M48
; DRILL file {KiCad 5.1.4+dfsg1-1} date Mon 30 Mar 2020 20:01:36 AEDT
; FORMAT={-:-/ absolute / metric / decimal}
; #@! TF.CreationDate,2020-03-30T20:01:36+11:00
; #@! TF.GenerationSoftware,Kicad,Pcbnew,5.1.4+dfsg1-1
FMAT,2
METRIC
T1C0.400
T2C0.762
T3C0.800
T4C1.000
T5C2.000
T6C2.500
T7C12.000
%
G90
G05
T1
X120.65Y-99.06
X122.9Y-103.16
X125.73Y-87.63
X143.51Y-121.92
T2
X138.68Y-59.6
X141.22Y-59.6
X143.76Y-59.6
X146.3Y-59.6
X134.87Y-102.87
X134.87Y-105.41
X134.87Y-107.95
X134.87Y-110.49
X134.87Y-113.03
X134.87Y-115.57
X134.87Y-118.11
X134.87Y-120.65
X134.87Y-123.19
X134.87Y-125.73
X134.87Y-128.27
X134.87Y-130.81
X150.11Y-102.87
X150.11Y-105.41
X150.11Y-107.95
X150.11Y-110.49
X150.11Y-113.03
X150.11Y-115.57
X150.11Y-118.11
X150.11Y-120.65
X150.11Y-123.19
X150.11Y-125.73
X150.11Y-128.27
X150.11Y-130.81
X115.57Y-88.9
X115.57Y-91.44
X118.11Y-88.9
X118.11Y-91.44
X120.65Y-88.9
X120.65Y-91.44
X123.19Y-88.9
X123.19Y-91.44
X161.29Y-88.9
X163.83Y-88.9
X166.37Y-88.9
X168.91Y-88.9
T3
X133.35Y-67.31
X143.51Y-67.31
X161.29Y-81.28
X168.91Y-81.28
T4
X161.29Y-114.3
X163.83Y-114.3
X115.57Y-114.3
X118.11Y-114.3
X120.65Y-114.3
X123.19Y-114.3
X125.73Y-114.3
X128.27Y-114.3
T5
X130.84Y-60.1
X130.84Y-83.9
X154.14Y-60.1
X154.14Y-83.9
T6
X117.76Y-132.8
X118.11Y-62.8
X142.49Y-55.3
X142.49Y-140.3
X165.1Y-62.8
X165.1Y-132.8
T7
X142.49Y-77.47
T0
M30
