M48
; DRILL file {KiCad 5.1.4+dfsg1-1} date Sat 18 Apr 2020 12:41:49 AEST
; FORMAT={-:-/ absolute / metric / decimal}
; #@! TF.CreationDate,2020-04-18T12:41:49+10:00
; #@! TF.GenerationSoftware,Kicad,Pcbnew,5.1.4+dfsg1-1
FMAT,2
METRIC
T1C0.400
T2C0.762
T3C1.000
T4C3.000
T5C12.000
%
G90
G05
T1
X128.524Y-128.27
X130.048Y-122.428
T2
X118.237Y-122.428
X118.237Y-124.968
X120.777Y-122.428
X120.777Y-124.968
X123.317Y-122.428
X123.317Y-124.968
X125.857Y-122.428
X125.857Y-124.968
X159.131Y-124.824
X161.671Y-124.824
X164.211Y-124.824
X166.751Y-124.824
X134.87Y-104.53
X134.87Y-107.07
X134.87Y-109.61
X134.87Y-112.15
X134.87Y-114.69
X134.87Y-117.23
X134.87Y-119.77
X134.87Y-122.31
X134.87Y-124.85
X134.87Y-127.39
X134.87Y-129.93
X134.87Y-132.47
X150.11Y-104.53
X150.11Y-107.07
X150.11Y-109.61
X150.11Y-112.15
X150.11Y-114.69
X150.11Y-117.23
X150.11Y-119.77
X150.11Y-122.31
X150.11Y-124.85
X150.11Y-127.39
X150.11Y-129.93
X150.11Y-132.47
X138.68Y-59.6
X141.22Y-59.6
X143.76Y-59.6
X146.3Y-59.6
T3
X161.29Y-100.0
X163.83Y-100.0
T4
X117.76Y-132.8
X118.11Y-62.8
X142.49Y-55.3
X142.49Y-140.3
X167.22Y-62.8
X167.22Y-132.8
X160.041Y-108.324
X165.841Y-108.324
X130.84Y-60.1
X130.84Y-83.9
X154.14Y-60.1
X154.14Y-83.9
T5
X142.49Y-77.47
T0
M30
