G04 #@! TF.GenerationSoftware,KiCad,Pcbnew,5.1.4+dfsg1-1*
G04 #@! TF.CreationDate,2020-03-30T20:01:31+11:00*
G04 #@! TF.ProjectId,temp0_schematic,74656d70-305f-4736-9368-656d61746963,rev?*
G04 #@! TF.SameCoordinates,Original*
G04 #@! TF.FileFunction,Legend,Top*
G04 #@! TF.FilePolarity,Positive*
%FSLAX46Y46*%
G04 Gerber Fmt 4.6, Leading zero omitted, Abs format (unit mm)*
G04 Created by KiCad (PCBNEW 5.1.4+dfsg1-1) date 2020-03-30 20:01:31*
%MOMM*%
%LPD*%
G04 APERTURE LIST*
%ADD10C,0.300000*%
%ADD11C,0.010000*%
%ADD12C,0.120000*%
%ADD13C,0.150000*%
%ADD14C,0.125000*%
G04 APERTURE END LIST*
D10*
X129818571Y-92042142D02*
X129675714Y-92113571D01*
X129390000Y-92113571D01*
X129247142Y-92042142D01*
X129175714Y-91970714D01*
X129104285Y-91827857D01*
X129104285Y-91399285D01*
X129175714Y-91256428D01*
X129247142Y-91185000D01*
X129390000Y-91113571D01*
X129675714Y-91113571D01*
X129818571Y-91185000D01*
X130675714Y-92113571D02*
X130532857Y-92042142D01*
X130461428Y-91899285D01*
X130461428Y-90613571D01*
X131818571Y-92042142D02*
X131675714Y-92113571D01*
X131390000Y-92113571D01*
X131247142Y-92042142D01*
X131175714Y-91899285D01*
X131175714Y-91327857D01*
X131247142Y-91185000D01*
X131390000Y-91113571D01*
X131675714Y-91113571D01*
X131818571Y-91185000D01*
X131890000Y-91327857D01*
X131890000Y-91470714D01*
X131175714Y-91613571D01*
X132390000Y-91113571D02*
X132675714Y-92113571D01*
X132961428Y-91399285D01*
X133247142Y-92113571D01*
X133532857Y-91113571D01*
X134032857Y-92042142D02*
X134175714Y-92113571D01*
X134461428Y-92113571D01*
X134604285Y-92042142D01*
X134675714Y-91899285D01*
X134675714Y-91827857D01*
X134604285Y-91685000D01*
X134461428Y-91613571D01*
X134247142Y-91613571D01*
X134104285Y-91542142D01*
X134032857Y-91399285D01*
X134032857Y-91327857D01*
X134104285Y-91185000D01*
X134247142Y-91113571D01*
X134461428Y-91113571D01*
X134604285Y-91185000D01*
X135175714Y-91113571D02*
X135532857Y-92113571D01*
X135890000Y-91113571D02*
X135532857Y-92113571D01*
X135390000Y-92470714D01*
X135318571Y-92542142D01*
X135175714Y-92613571D01*
X137532857Y-90756428D02*
X137604285Y-90685000D01*
X137747142Y-90613571D01*
X138104285Y-90613571D01*
X138247142Y-90685000D01*
X138318571Y-90756428D01*
X138390000Y-90899285D01*
X138390000Y-91042142D01*
X138318571Y-91256428D01*
X137461428Y-92113571D01*
X138390000Y-92113571D01*
X139318571Y-90613571D02*
X139461428Y-90613571D01*
X139604285Y-90685000D01*
X139675714Y-90756428D01*
X139747142Y-90899285D01*
X139818571Y-91185000D01*
X139818571Y-91542142D01*
X139747142Y-91827857D01*
X139675714Y-91970714D01*
X139604285Y-92042142D01*
X139461428Y-92113571D01*
X139318571Y-92113571D01*
X139175714Y-92042142D01*
X139104285Y-91970714D01*
X139032857Y-91827857D01*
X138961428Y-91542142D01*
X138961428Y-91185000D01*
X139032857Y-90899285D01*
X139104285Y-90756428D01*
X139175714Y-90685000D01*
X139318571Y-90613571D01*
X140390000Y-90756428D02*
X140461428Y-90685000D01*
X140604285Y-90613571D01*
X140961428Y-90613571D01*
X141104285Y-90685000D01*
X141175714Y-90756428D01*
X141247142Y-90899285D01*
X141247142Y-91042142D01*
X141175714Y-91256428D01*
X140318571Y-92113571D01*
X141247142Y-92113571D01*
X142175714Y-90613571D02*
X142318571Y-90613571D01*
X142461428Y-90685000D01*
X142532857Y-90756428D01*
X142604285Y-90899285D01*
X142675714Y-91185000D01*
X142675714Y-91542142D01*
X142604285Y-91827857D01*
X142532857Y-91970714D01*
X142461428Y-92042142D01*
X142318571Y-92113571D01*
X142175714Y-92113571D01*
X142032857Y-92042142D01*
X141961428Y-91970714D01*
X141890000Y-91827857D01*
X141818571Y-91542142D01*
X141818571Y-91185000D01*
X141890000Y-90899285D01*
X141961428Y-90756428D01*
X142032857Y-90685000D01*
X142175714Y-90613571D01*
X132211428Y-94592142D02*
X132068571Y-94663571D01*
X131782857Y-94663571D01*
X131640000Y-94592142D01*
X131568571Y-94520714D01*
X131497142Y-94377857D01*
X131497142Y-93949285D01*
X131568571Y-93806428D01*
X131640000Y-93735000D01*
X131782857Y-93663571D01*
X132068571Y-93663571D01*
X132211428Y-93735000D01*
X133068571Y-94663571D02*
X132925714Y-94592142D01*
X132854285Y-94449285D01*
X132854285Y-93163571D01*
X134211428Y-94592142D02*
X134068571Y-94663571D01*
X133782857Y-94663571D01*
X133640000Y-94592142D01*
X133568571Y-94449285D01*
X133568571Y-93877857D01*
X133640000Y-93735000D01*
X133782857Y-93663571D01*
X134068571Y-93663571D01*
X134211428Y-93735000D01*
X134282857Y-93877857D01*
X134282857Y-94020714D01*
X133568571Y-94163571D01*
X134782857Y-93663571D02*
X135068571Y-94663571D01*
X135354285Y-93949285D01*
X135640000Y-94663571D01*
X135925714Y-93663571D01*
X136425714Y-94592142D02*
X136568571Y-94663571D01*
X136854285Y-94663571D01*
X136997142Y-94592142D01*
X137068571Y-94449285D01*
X137068571Y-94377857D01*
X136997142Y-94235000D01*
X136854285Y-94163571D01*
X136640000Y-94163571D01*
X136497142Y-94092142D01*
X136425714Y-93949285D01*
X136425714Y-93877857D01*
X136497142Y-93735000D01*
X136640000Y-93663571D01*
X136854285Y-93663571D01*
X136997142Y-93735000D01*
X137711428Y-94520714D02*
X137782857Y-94592142D01*
X137711428Y-94663571D01*
X137640000Y-94592142D01*
X137711428Y-94520714D01*
X137711428Y-94663571D01*
X138425714Y-93663571D02*
X138425714Y-95163571D01*
X138425714Y-93735000D02*
X138568571Y-93663571D01*
X138854285Y-93663571D01*
X138997142Y-93735000D01*
X139068571Y-93806428D01*
X139140000Y-93949285D01*
X139140000Y-94377857D01*
X139068571Y-94520714D01*
X138997142Y-94592142D01*
X138854285Y-94663571D01*
X138568571Y-94663571D01*
X138425714Y-94592142D01*
X139782857Y-94663571D02*
X139782857Y-93663571D01*
X139782857Y-93949285D02*
X139854285Y-93806428D01*
X139925714Y-93735000D01*
X140068571Y-93663571D01*
X140211428Y-93663571D01*
X140925714Y-94663571D02*
X140782857Y-94592142D01*
X140711428Y-94520714D01*
X140640000Y-94377857D01*
X140640000Y-93949285D01*
X140711428Y-93806428D01*
X140782857Y-93735000D01*
X140925714Y-93663571D01*
X141140000Y-93663571D01*
X141282857Y-93735000D01*
X141354285Y-93806428D01*
X141425714Y-93949285D01*
X141425714Y-94377857D01*
X141354285Y-94520714D01*
X141282857Y-94592142D01*
X141140000Y-94663571D01*
X140925714Y-94663571D01*
D11*
G36*
X150102222Y-87109019D02*
G01*
X150305620Y-87114290D01*
X150481111Y-87124689D01*
X150639614Y-87141537D01*
X150792046Y-87166155D01*
X150949324Y-87199863D01*
X151122366Y-87243983D01*
X151227652Y-87273007D01*
X151685872Y-87425575D01*
X152119115Y-87619466D01*
X152529940Y-87856196D01*
X152920902Y-88137282D01*
X153294562Y-88464240D01*
X153383619Y-88551372D01*
X153708058Y-88903249D01*
X153986976Y-89266363D01*
X154224378Y-89646700D01*
X154424268Y-90050245D01*
X154487104Y-90200568D01*
X154630232Y-90602884D01*
X154734441Y-90999607D01*
X154802115Y-91403400D01*
X154835642Y-91826928D01*
X154840392Y-92075000D01*
X154819370Y-92567885D01*
X154755468Y-93039694D01*
X154647437Y-93494321D01*
X154494024Y-93935663D01*
X154293978Y-94367614D01*
X154046047Y-94794070D01*
X153894254Y-95019972D01*
X153791621Y-95153468D01*
X153658663Y-95307761D01*
X153504712Y-95473519D01*
X153339100Y-95641409D01*
X153171158Y-95802100D01*
X153010220Y-95946260D01*
X152865616Y-96064556D01*
X152804972Y-96109254D01*
X152372235Y-96386654D01*
X151931619Y-96615463D01*
X151480924Y-96796572D01*
X151017951Y-96930869D01*
X150560944Y-97016433D01*
X150392870Y-97033930D01*
X150190496Y-97045611D01*
X149967631Y-97051482D01*
X149738081Y-97051552D01*
X149515654Y-97045827D01*
X149314159Y-97034315D01*
X149147402Y-97017024D01*
X149137843Y-97015663D01*
X148656104Y-96921177D01*
X148192037Y-96781612D01*
X147748042Y-96599293D01*
X147326514Y-96376546D01*
X146929853Y-96115695D01*
X146560456Y-95819066D01*
X146220720Y-95488984D01*
X145913045Y-95127773D01*
X145745721Y-94888921D01*
X147086564Y-94888921D01*
X147159703Y-94966188D01*
X147248424Y-95048909D01*
X147370543Y-95147430D01*
X147515416Y-95254298D01*
X147672398Y-95362060D01*
X147830845Y-95463264D01*
X147980113Y-95550457D01*
X148039235Y-95581997D01*
X148455941Y-95769477D01*
X148884604Y-95908815D01*
X149327427Y-96000710D01*
X149386862Y-96009307D01*
X149524284Y-96021329D01*
X149697165Y-96026108D01*
X149891778Y-96024199D01*
X150094393Y-96016158D01*
X150291280Y-96002541D01*
X150468710Y-95983902D01*
X150612955Y-95960797D01*
X150619509Y-95959438D01*
X151048447Y-95845247D01*
X151461964Y-95687527D01*
X151678979Y-95583547D01*
X151821616Y-95504157D01*
X151977793Y-95407734D01*
X152136926Y-95301692D01*
X152288433Y-95193445D01*
X152421729Y-95090406D01*
X152526232Y-94999989D01*
X152560296Y-94966188D01*
X152633435Y-94888921D01*
X147086564Y-94888921D01*
X145745721Y-94888921D01*
X145639826Y-94737758D01*
X145403463Y-94321266D01*
X145206354Y-93880620D01*
X145050895Y-93418146D01*
X145004858Y-93219921D01*
X146074902Y-93219921D01*
X146084417Y-93261277D01*
X146110208Y-93337483D01*
X146148147Y-93437957D01*
X146194103Y-93552120D01*
X146243946Y-93669390D01*
X146291380Y-93774558D01*
X146381579Y-93967549D01*
X151208768Y-93967549D01*
X151160073Y-93886617D01*
X151129598Y-93835463D01*
X151080169Y-93751928D01*
X151018029Y-93646587D01*
X150949425Y-93530017D01*
X150932158Y-93500637D01*
X150752939Y-93195588D01*
X148413920Y-93195588D01*
X147983052Y-93195845D01*
X147593421Y-93196611D01*
X147245978Y-93197875D01*
X146941671Y-93199627D01*
X146681451Y-93201858D01*
X146466269Y-93204558D01*
X146297073Y-93207717D01*
X146174814Y-93211324D01*
X146100443Y-93215370D01*
X146074908Y-93219846D01*
X146074902Y-93219921D01*
X145004858Y-93219921D01*
X144941372Y-92946568D01*
X144918206Y-92781867D01*
X144900734Y-92580522D01*
X144889167Y-92355390D01*
X144883717Y-92119327D01*
X144884374Y-91943914D01*
X145902605Y-91943914D01*
X145910169Y-92361295D01*
X145964976Y-92778319D01*
X145991333Y-92904745D01*
X146012009Y-92986232D01*
X146030432Y-93042119D01*
X146042894Y-93061329D01*
X146043620Y-93060856D01*
X146057644Y-93037887D01*
X146094934Y-92974536D01*
X146153887Y-92873572D01*
X146232898Y-92737764D01*
X146330364Y-92569880D01*
X146444680Y-92372688D01*
X146500767Y-92275837D01*
X147548268Y-92275837D01*
X147569035Y-92284159D01*
X147634074Y-92290930D01*
X147737870Y-92295849D01*
X147874908Y-92298616D01*
X147974777Y-92299117D01*
X149481716Y-92299117D01*
X150238283Y-92299117D01*
X150157782Y-92155931D01*
X150063107Y-91988004D01*
X149989936Y-91859414D01*
X149935738Y-91765876D01*
X149897980Y-91703108D01*
X149874130Y-91666827D01*
X149861657Y-91652748D01*
X149860000Y-91652195D01*
X149850008Y-91661326D01*
X149829281Y-91691574D01*
X149795289Y-91747222D01*
X149745498Y-91832553D01*
X149677377Y-91951852D01*
X149588393Y-92109401D01*
X149562217Y-92155931D01*
X149481716Y-92299117D01*
X147974777Y-92299117D01*
X148137005Y-92298442D01*
X148256368Y-92296037D01*
X148339789Y-92291336D01*
X148394195Y-92283772D01*
X148426509Y-92272779D01*
X148441266Y-92260947D01*
X148458086Y-92234238D01*
X148497978Y-92167455D01*
X148559150Y-92063678D01*
X148639811Y-91925986D01*
X148738168Y-91757458D01*
X148852429Y-91561174D01*
X148980802Y-91340212D01*
X149121495Y-91097652D01*
X149272714Y-90836574D01*
X149333556Y-90731394D01*
X150407843Y-90731394D01*
X150420034Y-90756764D01*
X150455455Y-90822188D01*
X150512374Y-90924625D01*
X150589060Y-91061032D01*
X150683781Y-91228366D01*
X150794807Y-91423584D01*
X150920407Y-91643645D01*
X151058848Y-91885504D01*
X151208401Y-92146120D01*
X151367333Y-92422451D01*
X151533915Y-92711452D01*
X151570428Y-92774717D01*
X151766690Y-93114633D01*
X151939633Y-93413915D01*
X152090802Y-93675081D01*
X152221744Y-93900651D01*
X152334008Y-94093142D01*
X152429138Y-94255073D01*
X152508683Y-94388961D01*
X152574189Y-94497326D01*
X152627203Y-94582684D01*
X152669271Y-94647555D01*
X152701942Y-94694457D01*
X152726761Y-94725907D01*
X152745276Y-94744424D01*
X152759034Y-94752527D01*
X152769580Y-94752733D01*
X152778463Y-94747560D01*
X152780973Y-94745392D01*
X152815105Y-94708145D01*
X152870243Y-94640907D01*
X152938125Y-94553980D01*
X152995419Y-94478039D01*
X153066885Y-94380807D01*
X153130507Y-94292382D01*
X153178331Y-94223927D01*
X153199496Y-94191666D01*
X153205179Y-94180295D01*
X153207991Y-94166447D01*
X153206513Y-94147508D01*
X153199324Y-94120862D01*
X153185005Y-94083895D01*
X153162136Y-94033990D01*
X153129297Y-93968534D01*
X153085068Y-93884911D01*
X153028028Y-93780505D01*
X152956759Y-93652703D01*
X152869841Y-93498888D01*
X152765852Y-93316445D01*
X152643375Y-93102760D01*
X152500988Y-92855217D01*
X152337272Y-92571202D01*
X152150806Y-92248098D01*
X152040357Y-92056797D01*
X151869826Y-91761733D01*
X151706225Y-91479199D01*
X151551280Y-91212147D01*
X151406714Y-90963524D01*
X151274255Y-90736280D01*
X151155626Y-90533364D01*
X151052554Y-90357725D01*
X150966763Y-90212313D01*
X150899979Y-90100076D01*
X150853927Y-90023964D01*
X150830333Y-89986926D01*
X150827599Y-89983709D01*
X150810310Y-90004062D01*
X150774532Y-90059708D01*
X150725144Y-90141957D01*
X150667025Y-90242120D01*
X150605053Y-90351508D01*
X150544106Y-90461430D01*
X150489062Y-90563198D01*
X150444800Y-90648122D01*
X150416198Y-90707513D01*
X150407843Y-90731394D01*
X149333556Y-90731394D01*
X149432670Y-90560055D01*
X149599568Y-90271177D01*
X149626029Y-90225343D01*
X149822978Y-89883995D01*
X149996276Y-89583170D01*
X150147308Y-89320339D01*
X150277462Y-89092974D01*
X150388126Y-88898546D01*
X150480686Y-88734526D01*
X150556530Y-88598386D01*
X150617045Y-88487597D01*
X150663617Y-88399630D01*
X150697635Y-88331956D01*
X150720486Y-88282047D01*
X150733555Y-88247374D01*
X150733911Y-88245702D01*
X150886737Y-88245702D01*
X151090765Y-88597753D01*
X151133070Y-88670819D01*
X151198172Y-88783350D01*
X151283952Y-88931682D01*
X151388296Y-89112155D01*
X151509085Y-89321106D01*
X151644205Y-89554875D01*
X151791538Y-89809799D01*
X151948968Y-90082216D01*
X152114378Y-90368465D01*
X152285652Y-90664884D01*
X152460674Y-90967812D01*
X152486485Y-91012489D01*
X152706047Y-91391845D01*
X152904750Y-91733752D01*
X153082205Y-92037554D01*
X153238019Y-92302595D01*
X153371801Y-92528218D01*
X153483159Y-92713767D01*
X153571702Y-92858586D01*
X153637038Y-92962018D01*
X153678776Y-93023407D01*
X153696524Y-93042097D01*
X153696905Y-93041712D01*
X153710080Y-93003031D01*
X153728925Y-92929012D01*
X153750069Y-92833294D01*
X153757452Y-92796870D01*
X153782516Y-92631960D01*
X153800849Y-92433486D01*
X153811945Y-92217297D01*
X153815297Y-91999242D01*
X153810396Y-91795171D01*
X153796737Y-91620932D01*
X153795413Y-91610043D01*
X153716141Y-91173138D01*
X153590836Y-90752292D01*
X153421539Y-90350551D01*
X153210288Y-89970964D01*
X152959126Y-89616577D01*
X152670093Y-89290437D01*
X152345230Y-88995592D01*
X151986576Y-88735088D01*
X151790195Y-88615800D01*
X151653787Y-88543809D01*
X151492851Y-88467819D01*
X151322953Y-88394449D01*
X151159661Y-88330318D01*
X151018541Y-88282047D01*
X150977241Y-88270117D01*
X150886737Y-88245702D01*
X150733911Y-88245702D01*
X150738232Y-88225408D01*
X150735902Y-88213621D01*
X150731429Y-88210271D01*
X150676999Y-88196370D01*
X150586318Y-88179488D01*
X150472704Y-88161487D01*
X150349475Y-88144233D01*
X150229948Y-88129589D01*
X150127439Y-88119419D01*
X150055268Y-88115588D01*
X149945134Y-88115588D01*
X148750851Y-90184073D01*
X148580456Y-90479286D01*
X148417153Y-90762389D01*
X148262663Y-91030389D01*
X148118706Y-91280295D01*
X147987000Y-91509115D01*
X147869266Y-91713859D01*
X147767224Y-91891535D01*
X147682593Y-92039151D01*
X147617094Y-92153717D01*
X147572445Y-92232240D01*
X147550367Y-92271730D01*
X147548268Y-92275837D01*
X146500767Y-92275837D01*
X146574244Y-92148958D01*
X146717450Y-91901457D01*
X146872696Y-91632954D01*
X147038378Y-91346218D01*
X147212890Y-91044016D01*
X147394631Y-90729118D01*
X147433188Y-90662287D01*
X147615788Y-90345432D01*
X147790964Y-90040788D01*
X147957155Y-89751109D01*
X148112797Y-89479149D01*
X148256328Y-89227660D01*
X148386185Y-88999397D01*
X148500805Y-88797112D01*
X148598626Y-88623559D01*
X148678084Y-88481491D01*
X148737618Y-88373661D01*
X148775664Y-88302823D01*
X148790659Y-88271730D01*
X148790713Y-88270498D01*
X148752674Y-88274165D01*
X148678465Y-88295772D01*
X148576878Y-88331838D01*
X148456705Y-88378883D01*
X148326737Y-88433426D01*
X148195767Y-88491987D01*
X148072586Y-88551085D01*
X148039235Y-88568002D01*
X147670888Y-88784574D01*
X147332236Y-89037948D01*
X147025033Y-89324408D01*
X146751035Y-89640239D01*
X146511996Y-89981724D01*
X146309672Y-90345148D01*
X146145815Y-90726794D01*
X146022182Y-91122948D01*
X145940527Y-91529893D01*
X145902605Y-91943914D01*
X144884374Y-91943914D01*
X144884595Y-91885191D01*
X144892013Y-91665839D01*
X144906181Y-91474127D01*
X144915837Y-91392838D01*
X145008555Y-90898729D01*
X145146273Y-90425953D01*
X145328928Y-89974637D01*
X145556457Y-89544907D01*
X145828797Y-89136888D01*
X146145885Y-88750707D01*
X146335874Y-88551117D01*
X146706157Y-88212607D01*
X147094098Y-87920099D01*
X147502008Y-87672217D01*
X147932198Y-87467583D01*
X148386977Y-87304821D01*
X148465392Y-87281649D01*
X148655575Y-87229001D01*
X148823026Y-87187913D01*
X148978679Y-87157021D01*
X149133467Y-87134960D01*
X149298326Y-87120363D01*
X149484190Y-87111867D01*
X149701993Y-87108107D01*
X149860000Y-87107555D01*
X150102222Y-87109019D01*
X150102222Y-87109019D01*
G37*
X150102222Y-87109019D02*
X150305620Y-87114290D01*
X150481111Y-87124689D01*
X150639614Y-87141537D01*
X150792046Y-87166155D01*
X150949324Y-87199863D01*
X151122366Y-87243983D01*
X151227652Y-87273007D01*
X151685872Y-87425575D01*
X152119115Y-87619466D01*
X152529940Y-87856196D01*
X152920902Y-88137282D01*
X153294562Y-88464240D01*
X153383619Y-88551372D01*
X153708058Y-88903249D01*
X153986976Y-89266363D01*
X154224378Y-89646700D01*
X154424268Y-90050245D01*
X154487104Y-90200568D01*
X154630232Y-90602884D01*
X154734441Y-90999607D01*
X154802115Y-91403400D01*
X154835642Y-91826928D01*
X154840392Y-92075000D01*
X154819370Y-92567885D01*
X154755468Y-93039694D01*
X154647437Y-93494321D01*
X154494024Y-93935663D01*
X154293978Y-94367614D01*
X154046047Y-94794070D01*
X153894254Y-95019972D01*
X153791621Y-95153468D01*
X153658663Y-95307761D01*
X153504712Y-95473519D01*
X153339100Y-95641409D01*
X153171158Y-95802100D01*
X153010220Y-95946260D01*
X152865616Y-96064556D01*
X152804972Y-96109254D01*
X152372235Y-96386654D01*
X151931619Y-96615463D01*
X151480924Y-96796572D01*
X151017951Y-96930869D01*
X150560944Y-97016433D01*
X150392870Y-97033930D01*
X150190496Y-97045611D01*
X149967631Y-97051482D01*
X149738081Y-97051552D01*
X149515654Y-97045827D01*
X149314159Y-97034315D01*
X149147402Y-97017024D01*
X149137843Y-97015663D01*
X148656104Y-96921177D01*
X148192037Y-96781612D01*
X147748042Y-96599293D01*
X147326514Y-96376546D01*
X146929853Y-96115695D01*
X146560456Y-95819066D01*
X146220720Y-95488984D01*
X145913045Y-95127773D01*
X145745721Y-94888921D01*
X147086564Y-94888921D01*
X147159703Y-94966188D01*
X147248424Y-95048909D01*
X147370543Y-95147430D01*
X147515416Y-95254298D01*
X147672398Y-95362060D01*
X147830845Y-95463264D01*
X147980113Y-95550457D01*
X148039235Y-95581997D01*
X148455941Y-95769477D01*
X148884604Y-95908815D01*
X149327427Y-96000710D01*
X149386862Y-96009307D01*
X149524284Y-96021329D01*
X149697165Y-96026108D01*
X149891778Y-96024199D01*
X150094393Y-96016158D01*
X150291280Y-96002541D01*
X150468710Y-95983902D01*
X150612955Y-95960797D01*
X150619509Y-95959438D01*
X151048447Y-95845247D01*
X151461964Y-95687527D01*
X151678979Y-95583547D01*
X151821616Y-95504157D01*
X151977793Y-95407734D01*
X152136926Y-95301692D01*
X152288433Y-95193445D01*
X152421729Y-95090406D01*
X152526232Y-94999989D01*
X152560296Y-94966188D01*
X152633435Y-94888921D01*
X147086564Y-94888921D01*
X145745721Y-94888921D01*
X145639826Y-94737758D01*
X145403463Y-94321266D01*
X145206354Y-93880620D01*
X145050895Y-93418146D01*
X145004858Y-93219921D01*
X146074902Y-93219921D01*
X146084417Y-93261277D01*
X146110208Y-93337483D01*
X146148147Y-93437957D01*
X146194103Y-93552120D01*
X146243946Y-93669390D01*
X146291380Y-93774558D01*
X146381579Y-93967549D01*
X151208768Y-93967549D01*
X151160073Y-93886617D01*
X151129598Y-93835463D01*
X151080169Y-93751928D01*
X151018029Y-93646587D01*
X150949425Y-93530017D01*
X150932158Y-93500637D01*
X150752939Y-93195588D01*
X148413920Y-93195588D01*
X147983052Y-93195845D01*
X147593421Y-93196611D01*
X147245978Y-93197875D01*
X146941671Y-93199627D01*
X146681451Y-93201858D01*
X146466269Y-93204558D01*
X146297073Y-93207717D01*
X146174814Y-93211324D01*
X146100443Y-93215370D01*
X146074908Y-93219846D01*
X146074902Y-93219921D01*
X145004858Y-93219921D01*
X144941372Y-92946568D01*
X144918206Y-92781867D01*
X144900734Y-92580522D01*
X144889167Y-92355390D01*
X144883717Y-92119327D01*
X144884374Y-91943914D01*
X145902605Y-91943914D01*
X145910169Y-92361295D01*
X145964976Y-92778319D01*
X145991333Y-92904745D01*
X146012009Y-92986232D01*
X146030432Y-93042119D01*
X146042894Y-93061329D01*
X146043620Y-93060856D01*
X146057644Y-93037887D01*
X146094934Y-92974536D01*
X146153887Y-92873572D01*
X146232898Y-92737764D01*
X146330364Y-92569880D01*
X146444680Y-92372688D01*
X146500767Y-92275837D01*
X147548268Y-92275837D01*
X147569035Y-92284159D01*
X147634074Y-92290930D01*
X147737870Y-92295849D01*
X147874908Y-92298616D01*
X147974777Y-92299117D01*
X149481716Y-92299117D01*
X150238283Y-92299117D01*
X150157782Y-92155931D01*
X150063107Y-91988004D01*
X149989936Y-91859414D01*
X149935738Y-91765876D01*
X149897980Y-91703108D01*
X149874130Y-91666827D01*
X149861657Y-91652748D01*
X149860000Y-91652195D01*
X149850008Y-91661326D01*
X149829281Y-91691574D01*
X149795289Y-91747222D01*
X149745498Y-91832553D01*
X149677377Y-91951852D01*
X149588393Y-92109401D01*
X149562217Y-92155931D01*
X149481716Y-92299117D01*
X147974777Y-92299117D01*
X148137005Y-92298442D01*
X148256368Y-92296037D01*
X148339789Y-92291336D01*
X148394195Y-92283772D01*
X148426509Y-92272779D01*
X148441266Y-92260947D01*
X148458086Y-92234238D01*
X148497978Y-92167455D01*
X148559150Y-92063678D01*
X148639811Y-91925986D01*
X148738168Y-91757458D01*
X148852429Y-91561174D01*
X148980802Y-91340212D01*
X149121495Y-91097652D01*
X149272714Y-90836574D01*
X149333556Y-90731394D01*
X150407843Y-90731394D01*
X150420034Y-90756764D01*
X150455455Y-90822188D01*
X150512374Y-90924625D01*
X150589060Y-91061032D01*
X150683781Y-91228366D01*
X150794807Y-91423584D01*
X150920407Y-91643645D01*
X151058848Y-91885504D01*
X151208401Y-92146120D01*
X151367333Y-92422451D01*
X151533915Y-92711452D01*
X151570428Y-92774717D01*
X151766690Y-93114633D01*
X151939633Y-93413915D01*
X152090802Y-93675081D01*
X152221744Y-93900651D01*
X152334008Y-94093142D01*
X152429138Y-94255073D01*
X152508683Y-94388961D01*
X152574189Y-94497326D01*
X152627203Y-94582684D01*
X152669271Y-94647555D01*
X152701942Y-94694457D01*
X152726761Y-94725907D01*
X152745276Y-94744424D01*
X152759034Y-94752527D01*
X152769580Y-94752733D01*
X152778463Y-94747560D01*
X152780973Y-94745392D01*
X152815105Y-94708145D01*
X152870243Y-94640907D01*
X152938125Y-94553980D01*
X152995419Y-94478039D01*
X153066885Y-94380807D01*
X153130507Y-94292382D01*
X153178331Y-94223927D01*
X153199496Y-94191666D01*
X153205179Y-94180295D01*
X153207991Y-94166447D01*
X153206513Y-94147508D01*
X153199324Y-94120862D01*
X153185005Y-94083895D01*
X153162136Y-94033990D01*
X153129297Y-93968534D01*
X153085068Y-93884911D01*
X153028028Y-93780505D01*
X152956759Y-93652703D01*
X152869841Y-93498888D01*
X152765852Y-93316445D01*
X152643375Y-93102760D01*
X152500988Y-92855217D01*
X152337272Y-92571202D01*
X152150806Y-92248098D01*
X152040357Y-92056797D01*
X151869826Y-91761733D01*
X151706225Y-91479199D01*
X151551280Y-91212147D01*
X151406714Y-90963524D01*
X151274255Y-90736280D01*
X151155626Y-90533364D01*
X151052554Y-90357725D01*
X150966763Y-90212313D01*
X150899979Y-90100076D01*
X150853927Y-90023964D01*
X150830333Y-89986926D01*
X150827599Y-89983709D01*
X150810310Y-90004062D01*
X150774532Y-90059708D01*
X150725144Y-90141957D01*
X150667025Y-90242120D01*
X150605053Y-90351508D01*
X150544106Y-90461430D01*
X150489062Y-90563198D01*
X150444800Y-90648122D01*
X150416198Y-90707513D01*
X150407843Y-90731394D01*
X149333556Y-90731394D01*
X149432670Y-90560055D01*
X149599568Y-90271177D01*
X149626029Y-90225343D01*
X149822978Y-89883995D01*
X149996276Y-89583170D01*
X150147308Y-89320339D01*
X150277462Y-89092974D01*
X150388126Y-88898546D01*
X150480686Y-88734526D01*
X150556530Y-88598386D01*
X150617045Y-88487597D01*
X150663617Y-88399630D01*
X150697635Y-88331956D01*
X150720486Y-88282047D01*
X150733555Y-88247374D01*
X150733911Y-88245702D01*
X150886737Y-88245702D01*
X151090765Y-88597753D01*
X151133070Y-88670819D01*
X151198172Y-88783350D01*
X151283952Y-88931682D01*
X151388296Y-89112155D01*
X151509085Y-89321106D01*
X151644205Y-89554875D01*
X151791538Y-89809799D01*
X151948968Y-90082216D01*
X152114378Y-90368465D01*
X152285652Y-90664884D01*
X152460674Y-90967812D01*
X152486485Y-91012489D01*
X152706047Y-91391845D01*
X152904750Y-91733752D01*
X153082205Y-92037554D01*
X153238019Y-92302595D01*
X153371801Y-92528218D01*
X153483159Y-92713767D01*
X153571702Y-92858586D01*
X153637038Y-92962018D01*
X153678776Y-93023407D01*
X153696524Y-93042097D01*
X153696905Y-93041712D01*
X153710080Y-93003031D01*
X153728925Y-92929012D01*
X153750069Y-92833294D01*
X153757452Y-92796870D01*
X153782516Y-92631960D01*
X153800849Y-92433486D01*
X153811945Y-92217297D01*
X153815297Y-91999242D01*
X153810396Y-91795171D01*
X153796737Y-91620932D01*
X153795413Y-91610043D01*
X153716141Y-91173138D01*
X153590836Y-90752292D01*
X153421539Y-90350551D01*
X153210288Y-89970964D01*
X152959126Y-89616577D01*
X152670093Y-89290437D01*
X152345230Y-88995592D01*
X151986576Y-88735088D01*
X151790195Y-88615800D01*
X151653787Y-88543809D01*
X151492851Y-88467819D01*
X151322953Y-88394449D01*
X151159661Y-88330318D01*
X151018541Y-88282047D01*
X150977241Y-88270117D01*
X150886737Y-88245702D01*
X150733911Y-88245702D01*
X150738232Y-88225408D01*
X150735902Y-88213621D01*
X150731429Y-88210271D01*
X150676999Y-88196370D01*
X150586318Y-88179488D01*
X150472704Y-88161487D01*
X150349475Y-88144233D01*
X150229948Y-88129589D01*
X150127439Y-88119419D01*
X150055268Y-88115588D01*
X149945134Y-88115588D01*
X148750851Y-90184073D01*
X148580456Y-90479286D01*
X148417153Y-90762389D01*
X148262663Y-91030389D01*
X148118706Y-91280295D01*
X147987000Y-91509115D01*
X147869266Y-91713859D01*
X147767224Y-91891535D01*
X147682593Y-92039151D01*
X147617094Y-92153717D01*
X147572445Y-92232240D01*
X147550367Y-92271730D01*
X147548268Y-92275837D01*
X146500767Y-92275837D01*
X146574244Y-92148958D01*
X146717450Y-91901457D01*
X146872696Y-91632954D01*
X147038378Y-91346218D01*
X147212890Y-91044016D01*
X147394631Y-90729118D01*
X147433188Y-90662287D01*
X147615788Y-90345432D01*
X147790964Y-90040788D01*
X147957155Y-89751109D01*
X148112797Y-89479149D01*
X148256328Y-89227660D01*
X148386185Y-88999397D01*
X148500805Y-88797112D01*
X148598626Y-88623559D01*
X148678084Y-88481491D01*
X148737618Y-88373661D01*
X148775664Y-88302823D01*
X148790659Y-88271730D01*
X148790713Y-88270498D01*
X148752674Y-88274165D01*
X148678465Y-88295772D01*
X148576878Y-88331838D01*
X148456705Y-88378883D01*
X148326737Y-88433426D01*
X148195767Y-88491987D01*
X148072586Y-88551085D01*
X148039235Y-88568002D01*
X147670888Y-88784574D01*
X147332236Y-89037948D01*
X147025033Y-89324408D01*
X146751035Y-89640239D01*
X146511996Y-89981724D01*
X146309672Y-90345148D01*
X146145815Y-90726794D01*
X146022182Y-91122948D01*
X145940527Y-91529893D01*
X145902605Y-91943914D01*
X144884374Y-91943914D01*
X144884595Y-91885191D01*
X144892013Y-91665839D01*
X144906181Y-91474127D01*
X144915837Y-91392838D01*
X145008555Y-90898729D01*
X145146273Y-90425953D01*
X145328928Y-89974637D01*
X145556457Y-89544907D01*
X145828797Y-89136888D01*
X146145885Y-88750707D01*
X146335874Y-88551117D01*
X146706157Y-88212607D01*
X147094098Y-87920099D01*
X147502008Y-87672217D01*
X147932198Y-87467583D01*
X148386977Y-87304821D01*
X148465392Y-87281649D01*
X148655575Y-87229001D01*
X148823026Y-87187913D01*
X148978679Y-87157021D01*
X149133467Y-87134960D01*
X149298326Y-87120363D01*
X149484190Y-87111867D01*
X149701993Y-87108107D01*
X149860000Y-87107555D01*
X150102222Y-87109019D01*
D12*
X146300000Y-104140000D02*
X146300000Y-98552000D01*
X138680000Y-104140000D02*
X146300000Y-104140000D01*
X138680000Y-98552000D02*
X138680000Y-104140000D01*
X138680000Y-134620000D02*
X133600000Y-134620000D01*
X151380000Y-134620000D02*
X150110000Y-134620000D01*
X139950000Y-135890000D02*
X138680000Y-134620000D01*
X148840000Y-135890000D02*
X139950000Y-135890000D01*
X150110000Y-134620000D02*
X148840000Y-135890000D01*
X149602000Y-133350000D02*
G75*
G03X149602000Y-133350000I-762000J0D01*
G01*
X147062000Y-133350000D02*
G75*
G03X147062000Y-133350000I-762000J0D01*
G01*
X144522000Y-133350000D02*
G75*
G03X144522000Y-133350000I-762000J0D01*
G01*
X141982000Y-133350000D02*
G75*
G03X141982000Y-133350000I-762000J0D01*
G01*
X139442000Y-133350000D02*
G75*
G03X139442000Y-133350000I-762000J0D01*
G01*
X136902000Y-133350000D02*
G75*
G03X136902000Y-133350000I-762000J0D01*
G01*
X136755000Y-100310000D02*
G75*
G03X136755000Y-100310000I-1250000J0D01*
G01*
X150725000Y-100310000D02*
G75*
G03X150725000Y-100310000I-1250000J0D01*
G01*
X151380000Y-98552000D02*
X133600000Y-98552000D01*
X151380000Y-134620000D02*
X151380000Y-98552000D01*
X133600000Y-98552000D02*
X133600000Y-134620000D01*
X167640000Y-82550000D02*
X167640000Y-74930000D01*
X162560000Y-82550000D02*
X167640000Y-82550000D01*
X162560000Y-74930000D02*
X162560000Y-82550000D01*
X162560000Y-74930000D02*
X167640000Y-74930000D01*
X170706051Y-72390000D02*
G75*
G03X170706051Y-72390000I-1796051J0D01*
G01*
X163086051Y-72390000D02*
G75*
G03X163086051Y-72390000I-1796051J0D01*
G01*
X159100000Y-69510000D02*
X159100000Y-90510000D01*
X171100000Y-69510000D02*
X159100000Y-69510000D01*
X171100000Y-90510000D02*
X171100000Y-69510000D01*
X159100000Y-90510000D02*
X171100000Y-90510000D01*
X153360000Y-68670000D02*
X153360000Y-79530000D01*
X131620000Y-68670000D02*
X153360000Y-68670000D01*
X131620000Y-79530000D02*
X131620000Y-68670000D01*
X153360000Y-79530000D02*
X131620000Y-79530000D01*
X147490000Y-62365000D02*
X155840000Y-62365000D01*
X155840000Y-62365000D02*
X155840000Y-81635000D01*
X129140000Y-62365000D02*
X137490000Y-62365000D01*
X129140000Y-81635000D02*
X129140000Y-62365000D01*
X155840000Y-81635000D02*
X129140000Y-81635000D01*
X128840000Y-85900000D02*
X156140000Y-85900000D01*
X128840000Y-58100000D02*
X128840000Y-85900000D01*
X156140000Y-58100000D02*
X128840000Y-58100000D01*
X156140000Y-85900000D02*
X156140000Y-58100000D01*
X114300000Y-77470000D02*
X121920000Y-77470000D01*
X114300000Y-71120000D02*
X114300000Y-77470000D01*
X115570000Y-71120000D02*
X114300000Y-71120000D01*
X115570000Y-76200000D02*
X115570000Y-71120000D01*
X116840000Y-76200000D02*
X115570000Y-76200000D01*
X116840000Y-71120000D02*
X116840000Y-76200000D01*
X118110000Y-71120000D02*
X116840000Y-71120000D01*
X118110000Y-76200000D02*
X118110000Y-71120000D01*
X119380000Y-76200000D02*
X118110000Y-76200000D01*
X119380000Y-71120000D02*
X119380000Y-76200000D01*
X120650000Y-71120000D02*
X119380000Y-71120000D01*
X120650000Y-76200000D02*
X120650000Y-71120000D01*
X121920000Y-76200000D02*
X120650000Y-76200000D01*
X121920000Y-71120000D02*
X121920000Y-76200000D01*
X124460000Y-71120000D02*
X121920000Y-71120000D01*
X112130000Y-94350000D02*
X114880000Y-94350000D01*
X112130000Y-69350000D02*
X126630000Y-69350000D01*
X112130000Y-94350000D02*
X112130000Y-69350000D01*
X126630000Y-94350000D02*
X123880000Y-94350000D01*
X126630000Y-69350000D02*
X126630000Y-94350000D01*
X159330000Y-108640000D02*
X165790000Y-108640000D01*
X159330000Y-104110000D02*
X159330000Y-106710000D01*
X159330000Y-102180000D02*
X165790000Y-102180000D01*
X165790000Y-104110000D02*
X165790000Y-106710000D01*
X159330000Y-102210000D02*
X159330000Y-102180000D01*
X159330000Y-108640000D02*
X159330000Y-108610000D01*
X165790000Y-108640000D02*
X165790000Y-108610000D01*
X165790000Y-102180000D02*
X165790000Y-102210000D01*
X141887936Y-119020000D02*
X143092064Y-119020000D01*
X141887936Y-117200000D02*
X143092064Y-117200000D01*
X159330000Y-123880000D02*
X165790000Y-123880000D01*
X159330000Y-119350000D02*
X159330000Y-121950000D01*
X159330000Y-117420000D02*
X165790000Y-117420000D01*
X165790000Y-119350000D02*
X165790000Y-121950000D01*
X159330000Y-117450000D02*
X159330000Y-117420000D01*
X159330000Y-123880000D02*
X159330000Y-123850000D01*
X165790000Y-123880000D02*
X165790000Y-123850000D01*
X165790000Y-117420000D02*
X165790000Y-117450000D01*
X119190000Y-108640000D02*
X125650000Y-108640000D01*
X119190000Y-104110000D02*
X119190000Y-106710000D01*
X119190000Y-102180000D02*
X125650000Y-102180000D01*
X125650000Y-104110000D02*
X125650000Y-106710000D01*
X119190000Y-102210000D02*
X119190000Y-102180000D01*
X119190000Y-108640000D02*
X119190000Y-108610000D01*
X125650000Y-108640000D02*
X125650000Y-108610000D01*
X125650000Y-102180000D02*
X125650000Y-102210000D01*
X119190000Y-123880000D02*
X125650000Y-123880000D01*
X119190000Y-119350000D02*
X119190000Y-121950000D01*
X119190000Y-117420000D02*
X125650000Y-117420000D01*
X125650000Y-119350000D02*
X125650000Y-121950000D01*
X119190000Y-117450000D02*
X119190000Y-117420000D01*
X119190000Y-123880000D02*
X119190000Y-123850000D01*
X125650000Y-123880000D02*
X125650000Y-123850000D01*
X125650000Y-117420000D02*
X125650000Y-117450000D01*
X140090000Y-124130000D02*
X140090000Y-124930000D01*
X144740000Y-124130000D02*
X140090000Y-124130000D01*
X144740000Y-127330000D02*
X140090000Y-127330000D01*
D13*
X137299523Y-114117380D02*
X137299523Y-113117380D01*
X137680476Y-113117380D01*
X137775714Y-113165000D01*
X137823333Y-113212619D01*
X137870952Y-113307857D01*
X137870952Y-113450714D01*
X137823333Y-113545952D01*
X137775714Y-113593571D01*
X137680476Y-113641190D01*
X137299523Y-113641190D01*
X138299523Y-114117380D02*
X138299523Y-113450714D01*
X138299523Y-113641190D02*
X138347142Y-113545952D01*
X138394761Y-113498333D01*
X138490000Y-113450714D01*
X138585238Y-113450714D01*
X139061428Y-114117380D02*
X138966190Y-114069761D01*
X138918571Y-114022142D01*
X138870952Y-113926904D01*
X138870952Y-113641190D01*
X138918571Y-113545952D01*
X138966190Y-113498333D01*
X139061428Y-113450714D01*
X139204285Y-113450714D01*
X139299523Y-113498333D01*
X139347142Y-113545952D01*
X139394761Y-113641190D01*
X139394761Y-113926904D01*
X139347142Y-114022142D01*
X139299523Y-114069761D01*
X139204285Y-114117380D01*
X139061428Y-114117380D01*
X139585238Y-114212619D02*
X140347142Y-114212619D01*
X140442380Y-113117380D02*
X141013809Y-113117380D01*
X140728095Y-114117380D02*
X140728095Y-113117380D01*
X141347142Y-114117380D02*
X141347142Y-113450714D01*
X141347142Y-113641190D02*
X141394761Y-113545952D01*
X141442380Y-113498333D01*
X141537619Y-113450714D01*
X141632857Y-113450714D01*
X141966190Y-114117380D02*
X141966190Y-113450714D01*
X141966190Y-113117380D02*
X141918571Y-113165000D01*
X141966190Y-113212619D01*
X142013809Y-113165000D01*
X141966190Y-113117380D01*
X141966190Y-113212619D01*
X142442380Y-113450714D02*
X142442380Y-114117380D01*
X142442380Y-113545952D02*
X142490000Y-113498333D01*
X142585238Y-113450714D01*
X142728095Y-113450714D01*
X142823333Y-113498333D01*
X142870952Y-113593571D01*
X142870952Y-114117380D01*
X143347142Y-114117380D02*
X143347142Y-113117380D01*
X143442380Y-113736428D02*
X143728095Y-114117380D01*
X143728095Y-113450714D02*
X143347142Y-113831666D01*
X144537619Y-114069761D02*
X144442380Y-114117380D01*
X144251904Y-114117380D01*
X144156666Y-114069761D01*
X144109047Y-113974523D01*
X144109047Y-113593571D01*
X144156666Y-113498333D01*
X144251904Y-113450714D01*
X144442380Y-113450714D01*
X144537619Y-113498333D01*
X144585238Y-113593571D01*
X144585238Y-113688809D01*
X144109047Y-113784047D01*
X144870952Y-113450714D02*
X145251904Y-113450714D01*
X145013809Y-113117380D02*
X145013809Y-113974523D01*
X145061428Y-114069761D01*
X145156666Y-114117380D01*
X145251904Y-114117380D01*
X145347142Y-114212619D02*
X146109047Y-114212619D01*
X146823333Y-113117380D02*
X146347142Y-113117380D01*
X146299523Y-113593571D01*
X146347142Y-113545952D01*
X146442380Y-113498333D01*
X146680476Y-113498333D01*
X146775714Y-113545952D01*
X146823333Y-113593571D01*
X146870952Y-113688809D01*
X146870952Y-113926904D01*
X146823333Y-114022142D01*
X146775714Y-114069761D01*
X146680476Y-114117380D01*
X146442380Y-114117380D01*
X146347142Y-114069761D01*
X146299523Y-114022142D01*
X147156666Y-113117380D02*
X147490000Y-114117380D01*
X147823333Y-113117380D01*
X136648095Y-104910000D02*
X136552857Y-104862380D01*
X136410000Y-104862380D01*
X136267142Y-104910000D01*
X136171904Y-105005238D01*
X136124285Y-105100476D01*
X136076666Y-105290952D01*
X136076666Y-105433809D01*
X136124285Y-105624285D01*
X136171904Y-105719523D01*
X136267142Y-105814761D01*
X136410000Y-105862380D01*
X136505238Y-105862380D01*
X136648095Y-105814761D01*
X136695714Y-105767142D01*
X136695714Y-105433809D01*
X136505238Y-105433809D01*
X137124285Y-105862380D02*
X137124285Y-104862380D01*
X137695714Y-105862380D01*
X137695714Y-104862380D01*
X138171904Y-105862380D02*
X138171904Y-104862380D01*
X138410000Y-104862380D01*
X138552857Y-104910000D01*
X138648095Y-105005238D01*
X138695714Y-105100476D01*
X138743333Y-105290952D01*
X138743333Y-105433809D01*
X138695714Y-105624285D01*
X138648095Y-105719523D01*
X138552857Y-105814761D01*
X138410000Y-105862380D01*
X138171904Y-105862380D01*
X136132380Y-107402380D02*
X136132380Y-108211904D01*
X136180000Y-108307142D01*
X136227619Y-108354761D01*
X136322857Y-108402380D01*
X136513333Y-108402380D01*
X136608571Y-108354761D01*
X136656190Y-108307142D01*
X136703809Y-108211904D01*
X136703809Y-107402380D01*
X137132380Y-108354761D02*
X137275238Y-108402380D01*
X137513333Y-108402380D01*
X137608571Y-108354761D01*
X137656190Y-108307142D01*
X137703809Y-108211904D01*
X137703809Y-108116666D01*
X137656190Y-108021428D01*
X137608571Y-107973809D01*
X137513333Y-107926190D01*
X137322857Y-107878571D01*
X137227619Y-107830952D01*
X137180000Y-107783333D01*
X137132380Y-107688095D01*
X137132380Y-107592857D01*
X137180000Y-107497619D01*
X137227619Y-107450000D01*
X137322857Y-107402380D01*
X137560952Y-107402380D01*
X137703809Y-107450000D01*
X138465714Y-107878571D02*
X138608571Y-107926190D01*
X138656190Y-107973809D01*
X138703809Y-108069047D01*
X138703809Y-108211904D01*
X138656190Y-108307142D01*
X138608571Y-108354761D01*
X138513333Y-108402380D01*
X138132380Y-108402380D01*
X138132380Y-107402380D01*
X138465714Y-107402380D01*
X138560952Y-107450000D01*
X138608571Y-107497619D01*
X138656190Y-107592857D01*
X138656190Y-107688095D01*
X138608571Y-107783333D01*
X138560952Y-107830952D01*
X138465714Y-107878571D01*
X138132380Y-107878571D01*
X138894285Y-108497619D02*
X139656190Y-108497619D01*
X140370476Y-107402380D02*
X139894285Y-107402380D01*
X139846666Y-107878571D01*
X139894285Y-107830952D01*
X139989523Y-107783333D01*
X140227619Y-107783333D01*
X140322857Y-107830952D01*
X140370476Y-107878571D01*
X140418095Y-107973809D01*
X140418095Y-108211904D01*
X140370476Y-108307142D01*
X140322857Y-108354761D01*
X140227619Y-108402380D01*
X139989523Y-108402380D01*
X139894285Y-108354761D01*
X139846666Y-108307142D01*
X140703809Y-107402380D02*
X141037142Y-108402380D01*
X141370476Y-107402380D01*
X136171904Y-116022380D02*
X136171904Y-115022380D01*
X136552857Y-115022380D01*
X136648095Y-115070000D01*
X136695714Y-115117619D01*
X136743333Y-115212857D01*
X136743333Y-115355714D01*
X136695714Y-115450952D01*
X136648095Y-115498571D01*
X136552857Y-115546190D01*
X136171904Y-115546190D01*
X137171904Y-116022380D02*
X137171904Y-115022380D01*
X137410000Y-115022380D01*
X137552857Y-115070000D01*
X137648095Y-115165238D01*
X137695714Y-115260476D01*
X137743333Y-115450952D01*
X137743333Y-115593809D01*
X137695714Y-115784285D01*
X137648095Y-115879523D01*
X137552857Y-115974761D01*
X137410000Y-116022380D01*
X137171904Y-116022380D01*
X138600476Y-115022380D02*
X138410000Y-115022380D01*
X138314761Y-115070000D01*
X138267142Y-115117619D01*
X138171904Y-115260476D01*
X138124285Y-115450952D01*
X138124285Y-115831904D01*
X138171904Y-115927142D01*
X138219523Y-115974761D01*
X138314761Y-116022380D01*
X138505238Y-116022380D01*
X138600476Y-115974761D01*
X138648095Y-115927142D01*
X138695714Y-115831904D01*
X138695714Y-115593809D01*
X138648095Y-115498571D01*
X138600476Y-115450952D01*
X138505238Y-115403333D01*
X138314761Y-115403333D01*
X138219523Y-115450952D01*
X138171904Y-115498571D01*
X138124285Y-115593809D01*
X136171904Y-123642380D02*
X136171904Y-122642380D01*
X136552857Y-122642380D01*
X136648095Y-122690000D01*
X136695714Y-122737619D01*
X136743333Y-122832857D01*
X136743333Y-122975714D01*
X136695714Y-123070952D01*
X136648095Y-123118571D01*
X136552857Y-123166190D01*
X136171904Y-123166190D01*
X137171904Y-123642380D02*
X137171904Y-122642380D01*
X137410000Y-122642380D01*
X137552857Y-122690000D01*
X137648095Y-122785238D01*
X137695714Y-122880476D01*
X137743333Y-123070952D01*
X137743333Y-123213809D01*
X137695714Y-123404285D01*
X137648095Y-123499523D01*
X137552857Y-123594761D01*
X137410000Y-123642380D01*
X137171904Y-123642380D01*
X138076666Y-122642380D02*
X138695714Y-122642380D01*
X138362380Y-123023333D01*
X138505238Y-123023333D01*
X138600476Y-123070952D01*
X138648095Y-123118571D01*
X138695714Y-123213809D01*
X138695714Y-123451904D01*
X138648095Y-123547142D01*
X138600476Y-123594761D01*
X138505238Y-123642380D01*
X138219523Y-123642380D01*
X138124285Y-123594761D01*
X138076666Y-123547142D01*
X136267142Y-125182380D02*
X136838571Y-125182380D01*
X136552857Y-126182380D02*
X136552857Y-125182380D01*
X137076666Y-125182380D02*
X137743333Y-126182380D01*
X137743333Y-125182380D02*
X137076666Y-126182380D01*
X136862380Y-128722380D02*
X136529047Y-128246190D01*
X136290952Y-128722380D02*
X136290952Y-127722380D01*
X136671904Y-127722380D01*
X136767142Y-127770000D01*
X136814761Y-127817619D01*
X136862380Y-127912857D01*
X136862380Y-128055714D01*
X136814761Y-128150952D01*
X136767142Y-128198571D01*
X136671904Y-128246190D01*
X136290952Y-128246190D01*
X137195714Y-127722380D02*
X137862380Y-128722380D01*
X137862380Y-127722380D02*
X137195714Y-128722380D01*
X136862380Y-131262380D02*
X136529047Y-130786190D01*
X136290952Y-131262380D02*
X136290952Y-130262380D01*
X136671904Y-130262380D01*
X136767142Y-130310000D01*
X136814761Y-130357619D01*
X136862380Y-130452857D01*
X136862380Y-130595714D01*
X136814761Y-130690952D01*
X136767142Y-130738571D01*
X136671904Y-130786190D01*
X136290952Y-130786190D01*
X137243333Y-131214761D02*
X137386190Y-131262380D01*
X137624285Y-131262380D01*
X137719523Y-131214761D01*
X137767142Y-131167142D01*
X137814761Y-131071904D01*
X137814761Y-130976666D01*
X137767142Y-130881428D01*
X137719523Y-130833809D01*
X137624285Y-130786190D01*
X137433809Y-130738571D01*
X137338571Y-130690952D01*
X137290952Y-130643333D01*
X137243333Y-130548095D01*
X137243333Y-130452857D01*
X137290952Y-130357619D01*
X137338571Y-130310000D01*
X137433809Y-130262380D01*
X137671904Y-130262380D01*
X137814761Y-130310000D01*
X138100476Y-130262380D02*
X138671904Y-130262380D01*
X138386190Y-131262380D02*
X138386190Y-130262380D01*
X146379523Y-131214761D02*
X146522380Y-131262380D01*
X146760476Y-131262380D01*
X146855714Y-131214761D01*
X146903333Y-131167142D01*
X146950952Y-131071904D01*
X146950952Y-130976666D01*
X146903333Y-130881428D01*
X146855714Y-130833809D01*
X146760476Y-130786190D01*
X146570000Y-130738571D01*
X146474761Y-130690952D01*
X146427142Y-130643333D01*
X146379523Y-130548095D01*
X146379523Y-130452857D01*
X146427142Y-130357619D01*
X146474761Y-130310000D01*
X146570000Y-130262380D01*
X146808095Y-130262380D01*
X146950952Y-130310000D01*
X147950952Y-131167142D02*
X147903333Y-131214761D01*
X147760476Y-131262380D01*
X147665238Y-131262380D01*
X147522380Y-131214761D01*
X147427142Y-131119523D01*
X147379523Y-131024285D01*
X147331904Y-130833809D01*
X147331904Y-130690952D01*
X147379523Y-130500476D01*
X147427142Y-130405238D01*
X147522380Y-130310000D01*
X147665238Y-130262380D01*
X147760476Y-130262380D01*
X147903333Y-130310000D01*
X147950952Y-130357619D01*
X148855714Y-131262380D02*
X148379523Y-131262380D01*
X148379523Y-130262380D01*
X146355714Y-128674761D02*
X146498571Y-128722380D01*
X146736666Y-128722380D01*
X146831904Y-128674761D01*
X146879523Y-128627142D01*
X146927142Y-128531904D01*
X146927142Y-128436666D01*
X146879523Y-128341428D01*
X146831904Y-128293809D01*
X146736666Y-128246190D01*
X146546190Y-128198571D01*
X146450952Y-128150952D01*
X146403333Y-128103333D01*
X146355714Y-128008095D01*
X146355714Y-127912857D01*
X146403333Y-127817619D01*
X146450952Y-127770000D01*
X146546190Y-127722380D01*
X146784285Y-127722380D01*
X146927142Y-127770000D01*
X147355714Y-128722380D02*
X147355714Y-127722380D01*
X147593809Y-127722380D01*
X147736666Y-127770000D01*
X147831904Y-127865238D01*
X147879523Y-127960476D01*
X147927142Y-128150952D01*
X147927142Y-128293809D01*
X147879523Y-128484285D01*
X147831904Y-128579523D01*
X147736666Y-128674761D01*
X147593809Y-128722380D01*
X147355714Y-128722380D01*
X148308095Y-128436666D02*
X148784285Y-128436666D01*
X148212857Y-128722380D02*
X148546190Y-127722380D01*
X148879523Y-128722380D01*
X141228095Y-101052380D02*
X141228095Y-101861904D01*
X141275714Y-101957142D01*
X141323333Y-102004761D01*
X141418571Y-102052380D01*
X141609047Y-102052380D01*
X141704285Y-102004761D01*
X141751904Y-101957142D01*
X141799523Y-101861904D01*
X141799523Y-101052380D01*
X142228095Y-102004761D02*
X142370952Y-102052380D01*
X142609047Y-102052380D01*
X142704285Y-102004761D01*
X142751904Y-101957142D01*
X142799523Y-101861904D01*
X142799523Y-101766666D01*
X142751904Y-101671428D01*
X142704285Y-101623809D01*
X142609047Y-101576190D01*
X142418571Y-101528571D01*
X142323333Y-101480952D01*
X142275714Y-101433333D01*
X142228095Y-101338095D01*
X142228095Y-101242857D01*
X142275714Y-101147619D01*
X142323333Y-101100000D01*
X142418571Y-101052380D01*
X142656666Y-101052380D01*
X142799523Y-101100000D01*
X143561428Y-101528571D02*
X143704285Y-101576190D01*
X143751904Y-101623809D01*
X143799523Y-101719047D01*
X143799523Y-101861904D01*
X143751904Y-101957142D01*
X143704285Y-102004761D01*
X143609047Y-102052380D01*
X143228095Y-102052380D01*
X143228095Y-101052380D01*
X143561428Y-101052380D01*
X143656666Y-101100000D01*
X143704285Y-101147619D01*
X143751904Y-101242857D01*
X143751904Y-101338095D01*
X143704285Y-101433333D01*
X143656666Y-101480952D01*
X143561428Y-101528571D01*
X143228095Y-101528571D01*
D14*
X134620000Y-133730952D02*
X134596190Y-133778571D01*
X134596190Y-133850000D01*
X134620000Y-133921428D01*
X134667619Y-133969047D01*
X134715238Y-133992857D01*
X134810476Y-134016666D01*
X134881904Y-134016666D01*
X134977142Y-133992857D01*
X135024761Y-133969047D01*
X135072380Y-133921428D01*
X135096190Y-133850000D01*
X135096190Y-133802380D01*
X135072380Y-133730952D01*
X135048571Y-133707142D01*
X134881904Y-133707142D01*
X134881904Y-133802380D01*
X135096190Y-133207142D02*
X134858095Y-133373809D01*
X135096190Y-133492857D02*
X134596190Y-133492857D01*
X134596190Y-133302380D01*
X134620000Y-133254761D01*
X134643809Y-133230952D01*
X134691428Y-133207142D01*
X134762857Y-133207142D01*
X134810476Y-133230952D01*
X134834285Y-133254761D01*
X134858095Y-133302380D01*
X134858095Y-133492857D01*
X135096190Y-132992857D02*
X134596190Y-132992857D01*
X135096190Y-132707142D01*
X134596190Y-132707142D01*
X150074285Y-133766666D02*
X150098095Y-133695238D01*
X150121904Y-133671428D01*
X150169523Y-133647619D01*
X150240952Y-133647619D01*
X150288571Y-133671428D01*
X150312380Y-133695238D01*
X150336190Y-133742857D01*
X150336190Y-133933333D01*
X149836190Y-133933333D01*
X149836190Y-133766666D01*
X149860000Y-133719047D01*
X149883809Y-133695238D01*
X149931428Y-133671428D01*
X149979047Y-133671428D01*
X150026666Y-133695238D01*
X150050476Y-133719047D01*
X150074285Y-133766666D01*
X150074285Y-133933333D01*
X150336190Y-133195238D02*
X150336190Y-133433333D01*
X149836190Y-133433333D01*
X150336190Y-133028571D02*
X149836190Y-133028571D01*
X150336190Y-132742857D02*
X150050476Y-132957142D01*
X149836190Y-132742857D02*
X150121904Y-133028571D01*
X141652857Y-135219285D02*
X141486190Y-135219285D01*
X141486190Y-135481190D02*
X141486190Y-134981190D01*
X141724285Y-134981190D01*
X141843333Y-134981190D02*
X142129047Y-134981190D01*
X141986190Y-135481190D02*
X141986190Y-134981190D01*
X142295714Y-135481190D02*
X142295714Y-134981190D01*
X142414761Y-134981190D01*
X142486190Y-135005000D01*
X142533809Y-135052619D01*
X142557619Y-135100238D01*
X142581428Y-135195476D01*
X142581428Y-135266904D01*
X142557619Y-135362142D01*
X142533809Y-135409761D01*
X142486190Y-135457380D01*
X142414761Y-135481190D01*
X142295714Y-135481190D01*
X142795714Y-135481190D02*
X142795714Y-134981190D01*
X142914761Y-135528809D02*
X143295714Y-135528809D01*
X143414761Y-135481190D02*
X143414761Y-134981190D01*
X143414761Y-135219285D02*
X143700476Y-135219285D01*
X143700476Y-135481190D02*
X143700476Y-134981190D01*
X143938571Y-135219285D02*
X144105238Y-135219285D01*
X144176666Y-135481190D02*
X143938571Y-135481190D01*
X143938571Y-134981190D01*
X144176666Y-134981190D01*
X144367142Y-135338333D02*
X144605238Y-135338333D01*
X144319523Y-135481190D02*
X144486190Y-134981190D01*
X144652857Y-135481190D01*
X144819523Y-135481190D02*
X144819523Y-134981190D01*
X144938571Y-134981190D01*
X145010000Y-135005000D01*
X145057619Y-135052619D01*
X145081428Y-135100238D01*
X145105238Y-135195476D01*
X145105238Y-135266904D01*
X145081428Y-135362142D01*
X145057619Y-135409761D01*
X145010000Y-135457380D01*
X144938571Y-135481190D01*
X144819523Y-135481190D01*
X145319523Y-135219285D02*
X145486190Y-135219285D01*
X145557619Y-135481190D02*
X145319523Y-135481190D01*
X145319523Y-134981190D01*
X145557619Y-134981190D01*
X146057619Y-135481190D02*
X145890952Y-135243095D01*
X145771904Y-135481190D02*
X145771904Y-134981190D01*
X145962380Y-134981190D01*
X146010000Y-135005000D01*
X146033809Y-135028809D01*
X146057619Y-135076428D01*
X146057619Y-135147857D01*
X146033809Y-135195476D01*
X146010000Y-135219285D01*
X145962380Y-135243095D01*
X145771904Y-135243095D01*
D13*
X161909523Y-84272380D02*
X161909523Y-83272380D01*
X161909523Y-83748571D02*
X162480952Y-83748571D01*
X162480952Y-84272380D02*
X162480952Y-83272380D01*
X162957142Y-84272380D02*
X162957142Y-83272380D01*
X163195238Y-83272380D01*
X163338095Y-83320000D01*
X163433333Y-83415238D01*
X163480952Y-83510476D01*
X163528571Y-83700952D01*
X163528571Y-83843809D01*
X163480952Y-84034285D01*
X163433333Y-84129523D01*
X163338095Y-84224761D01*
X163195238Y-84272380D01*
X162957142Y-84272380D01*
X164528571Y-84177142D02*
X164480952Y-84224761D01*
X164338095Y-84272380D01*
X164242857Y-84272380D01*
X164100000Y-84224761D01*
X164004761Y-84129523D01*
X163957142Y-84034285D01*
X163909523Y-83843809D01*
X163909523Y-83700952D01*
X163957142Y-83510476D01*
X164004761Y-83415238D01*
X164100000Y-83320000D01*
X164242857Y-83272380D01*
X164338095Y-83272380D01*
X164480952Y-83320000D01*
X164528571Y-83367619D01*
X165480952Y-84272380D02*
X164909523Y-84272380D01*
X165195238Y-84272380D02*
X165195238Y-83272380D01*
X165100000Y-83415238D01*
X165004761Y-83510476D01*
X164909523Y-83558095D01*
X166100000Y-83272380D02*
X166195238Y-83272380D01*
X166290476Y-83320000D01*
X166338095Y-83367619D01*
X166385714Y-83462857D01*
X166433333Y-83653333D01*
X166433333Y-83891428D01*
X166385714Y-84081904D01*
X166338095Y-84177142D01*
X166290476Y-84224761D01*
X166195238Y-84272380D01*
X166100000Y-84272380D01*
X166004761Y-84224761D01*
X165957142Y-84177142D01*
X165909523Y-84081904D01*
X165861904Y-83891428D01*
X165861904Y-83653333D01*
X165909523Y-83462857D01*
X165957142Y-83367619D01*
X166004761Y-83320000D01*
X166100000Y-83272380D01*
X167004761Y-83700952D02*
X166909523Y-83653333D01*
X166861904Y-83605714D01*
X166814285Y-83510476D01*
X166814285Y-83462857D01*
X166861904Y-83367619D01*
X166909523Y-83320000D01*
X167004761Y-83272380D01*
X167195238Y-83272380D01*
X167290476Y-83320000D01*
X167338095Y-83367619D01*
X167385714Y-83462857D01*
X167385714Y-83510476D01*
X167338095Y-83605714D01*
X167290476Y-83653333D01*
X167195238Y-83700952D01*
X167004761Y-83700952D01*
X166909523Y-83748571D01*
X166861904Y-83796190D01*
X166814285Y-83891428D01*
X166814285Y-84081904D01*
X166861904Y-84177142D01*
X166909523Y-84224761D01*
X167004761Y-84272380D01*
X167195238Y-84272380D01*
X167290476Y-84224761D01*
X167338095Y-84177142D01*
X167385714Y-84081904D01*
X167385714Y-83891428D01*
X167338095Y-83796190D01*
X167290476Y-83748571D01*
X167195238Y-83700952D01*
X168004761Y-83272380D02*
X168100000Y-83272380D01*
X168195238Y-83320000D01*
X168242857Y-83367619D01*
X168290476Y-83462857D01*
X168338095Y-83653333D01*
X168338095Y-83891428D01*
X168290476Y-84081904D01*
X168242857Y-84177142D01*
X168195238Y-84224761D01*
X168100000Y-84272380D01*
X168004761Y-84272380D01*
X167909523Y-84224761D01*
X167861904Y-84177142D01*
X167814285Y-84081904D01*
X167766666Y-83891428D01*
X167766666Y-83653333D01*
X167814285Y-83462857D01*
X167861904Y-83367619D01*
X167909523Y-83320000D01*
X168004761Y-83272380D01*
X168362380Y-87693333D02*
X169362380Y-87360000D01*
X168362380Y-87026666D01*
X169267142Y-86121904D02*
X169314761Y-86169523D01*
X169362380Y-86312380D01*
X169362380Y-86407619D01*
X169314761Y-86550476D01*
X169219523Y-86645714D01*
X169124285Y-86693333D01*
X168933809Y-86740952D01*
X168790952Y-86740952D01*
X168600476Y-86693333D01*
X168505238Y-86645714D01*
X168410000Y-86550476D01*
X168362380Y-86407619D01*
X168362380Y-86312380D01*
X168410000Y-86169523D01*
X168457619Y-86121904D01*
X169267142Y-85121904D02*
X169314761Y-85169523D01*
X169362380Y-85312380D01*
X169362380Y-85407619D01*
X169314761Y-85550476D01*
X169219523Y-85645714D01*
X169124285Y-85693333D01*
X168933809Y-85740952D01*
X168790952Y-85740952D01*
X168600476Y-85693333D01*
X168505238Y-85645714D01*
X168410000Y-85550476D01*
X168362380Y-85407619D01*
X168362380Y-85312380D01*
X168410000Y-85169523D01*
X168457619Y-85121904D01*
X166774761Y-87574285D02*
X166822380Y-87431428D01*
X166822380Y-87193333D01*
X166774761Y-87098095D01*
X166727142Y-87050476D01*
X166631904Y-87002857D01*
X166536666Y-87002857D01*
X166441428Y-87050476D01*
X166393809Y-87098095D01*
X166346190Y-87193333D01*
X166298571Y-87383809D01*
X166250952Y-87479047D01*
X166203333Y-87526666D01*
X166108095Y-87574285D01*
X166012857Y-87574285D01*
X165917619Y-87526666D01*
X165870000Y-87479047D01*
X165822380Y-87383809D01*
X165822380Y-87145714D01*
X165870000Y-87002857D01*
X166822380Y-86574285D02*
X165822380Y-86574285D01*
X165822380Y-86336190D01*
X165870000Y-86193333D01*
X165965238Y-86098095D01*
X166060476Y-86050476D01*
X166250952Y-86002857D01*
X166393809Y-86002857D01*
X166584285Y-86050476D01*
X166679523Y-86098095D01*
X166774761Y-86193333D01*
X166822380Y-86336190D01*
X166822380Y-86574285D01*
X166536666Y-85621904D02*
X166536666Y-85145714D01*
X166822380Y-85717142D02*
X165822380Y-85383809D01*
X166822380Y-85050476D01*
X164234761Y-87550476D02*
X164282380Y-87407619D01*
X164282380Y-87169523D01*
X164234761Y-87074285D01*
X164187142Y-87026666D01*
X164091904Y-86979047D01*
X163996666Y-86979047D01*
X163901428Y-87026666D01*
X163853809Y-87074285D01*
X163806190Y-87169523D01*
X163758571Y-87360000D01*
X163710952Y-87455238D01*
X163663333Y-87502857D01*
X163568095Y-87550476D01*
X163472857Y-87550476D01*
X163377619Y-87502857D01*
X163330000Y-87455238D01*
X163282380Y-87360000D01*
X163282380Y-87121904D01*
X163330000Y-86979047D01*
X164187142Y-85979047D02*
X164234761Y-86026666D01*
X164282380Y-86169523D01*
X164282380Y-86264761D01*
X164234761Y-86407619D01*
X164139523Y-86502857D01*
X164044285Y-86550476D01*
X163853809Y-86598095D01*
X163710952Y-86598095D01*
X163520476Y-86550476D01*
X163425238Y-86502857D01*
X163330000Y-86407619D01*
X163282380Y-86264761D01*
X163282380Y-86169523D01*
X163330000Y-86026666D01*
X163377619Y-85979047D01*
X164282380Y-85074285D02*
X164282380Y-85550476D01*
X163282380Y-85550476D01*
X160790000Y-87121904D02*
X160742380Y-87217142D01*
X160742380Y-87360000D01*
X160790000Y-87502857D01*
X160885238Y-87598095D01*
X160980476Y-87645714D01*
X161170952Y-87693333D01*
X161313809Y-87693333D01*
X161504285Y-87645714D01*
X161599523Y-87598095D01*
X161694761Y-87502857D01*
X161742380Y-87360000D01*
X161742380Y-87264761D01*
X161694761Y-87121904D01*
X161647142Y-87074285D01*
X161313809Y-87074285D01*
X161313809Y-87264761D01*
X161742380Y-86645714D02*
X160742380Y-86645714D01*
X161742380Y-86074285D01*
X160742380Y-86074285D01*
X161742380Y-85598095D02*
X160742380Y-85598095D01*
X160742380Y-85360000D01*
X160790000Y-85217142D01*
X160885238Y-85121904D01*
X160980476Y-85074285D01*
X161170952Y-85026666D01*
X161313809Y-85026666D01*
X161504285Y-85074285D01*
X161599523Y-85121904D01*
X161694761Y-85217142D01*
X161742380Y-85360000D01*
X161742380Y-85598095D01*
X133894761Y-70254761D02*
X134037619Y-70302380D01*
X134275714Y-70302380D01*
X134370952Y-70254761D01*
X134418571Y-70207142D01*
X134466190Y-70111904D01*
X134466190Y-70016666D01*
X134418571Y-69921428D01*
X134370952Y-69873809D01*
X134275714Y-69826190D01*
X134085238Y-69778571D01*
X133990000Y-69730952D01*
X133942380Y-69683333D01*
X133894761Y-69588095D01*
X133894761Y-69492857D01*
X133942380Y-69397619D01*
X133990000Y-69350000D01*
X134085238Y-69302380D01*
X134323333Y-69302380D01*
X134466190Y-69350000D01*
X134847142Y-70254761D02*
X134990000Y-70302380D01*
X135228095Y-70302380D01*
X135323333Y-70254761D01*
X135370952Y-70207142D01*
X135418571Y-70111904D01*
X135418571Y-70016666D01*
X135370952Y-69921428D01*
X135323333Y-69873809D01*
X135228095Y-69826190D01*
X135037619Y-69778571D01*
X134942380Y-69730952D01*
X134894761Y-69683333D01*
X134847142Y-69588095D01*
X134847142Y-69492857D01*
X134894761Y-69397619D01*
X134942380Y-69350000D01*
X135037619Y-69302380D01*
X135275714Y-69302380D01*
X135418571Y-69350000D01*
X135847142Y-70302380D02*
X135847142Y-69302380D01*
X136085238Y-69302380D01*
X136228095Y-69350000D01*
X136323333Y-69445238D01*
X136370952Y-69540476D01*
X136418571Y-69730952D01*
X136418571Y-69873809D01*
X136370952Y-70064285D01*
X136323333Y-70159523D01*
X136228095Y-70254761D01*
X136085238Y-70302380D01*
X135847142Y-70302380D01*
X137370952Y-70302380D02*
X136799523Y-70302380D01*
X137085238Y-70302380D02*
X137085238Y-69302380D01*
X136990000Y-69445238D01*
X136894761Y-69540476D01*
X136799523Y-69588095D01*
X137704285Y-69302380D02*
X138323333Y-69302380D01*
X137990000Y-69683333D01*
X138132857Y-69683333D01*
X138228095Y-69730952D01*
X138275714Y-69778571D01*
X138323333Y-69873809D01*
X138323333Y-70111904D01*
X138275714Y-70207142D01*
X138228095Y-70254761D01*
X138132857Y-70302380D01*
X137847142Y-70302380D01*
X137751904Y-70254761D01*
X137704285Y-70207142D01*
X138942380Y-69302380D02*
X139037619Y-69302380D01*
X139132857Y-69350000D01*
X139180476Y-69397619D01*
X139228095Y-69492857D01*
X139275714Y-69683333D01*
X139275714Y-69921428D01*
X139228095Y-70111904D01*
X139180476Y-70207142D01*
X139132857Y-70254761D01*
X139037619Y-70302380D01*
X138942380Y-70302380D01*
X138847142Y-70254761D01*
X138799523Y-70207142D01*
X138751904Y-70111904D01*
X138704285Y-69921428D01*
X138704285Y-69683333D01*
X138751904Y-69492857D01*
X138799523Y-69397619D01*
X138847142Y-69350000D01*
X138942380Y-69302380D01*
X140132857Y-69302380D02*
X139942380Y-69302380D01*
X139847142Y-69350000D01*
X139799523Y-69397619D01*
X139704285Y-69540476D01*
X139656666Y-69730952D01*
X139656666Y-70111904D01*
X139704285Y-70207142D01*
X139751904Y-70254761D01*
X139847142Y-70302380D01*
X140037619Y-70302380D01*
X140132857Y-70254761D01*
X140180476Y-70207142D01*
X140228095Y-70111904D01*
X140228095Y-69873809D01*
X140180476Y-69778571D01*
X140132857Y-69730952D01*
X140037619Y-69683333D01*
X139847142Y-69683333D01*
X139751904Y-69730952D01*
X139704285Y-69778571D01*
X139656666Y-69873809D01*
X140418571Y-70397619D02*
X141180476Y-70397619D01*
X141942380Y-70302380D02*
X141370952Y-70302380D01*
X141656666Y-70302380D02*
X141656666Y-69302380D01*
X141561428Y-69445238D01*
X141466190Y-69540476D01*
X141370952Y-69588095D01*
X142323333Y-69397619D02*
X142370952Y-69350000D01*
X142466190Y-69302380D01*
X142704285Y-69302380D01*
X142799523Y-69350000D01*
X142847142Y-69397619D01*
X142894761Y-69492857D01*
X142894761Y-69588095D01*
X142847142Y-69730952D01*
X142275714Y-70302380D01*
X142894761Y-70302380D01*
X143466190Y-69730952D02*
X143370952Y-69683333D01*
X143323333Y-69635714D01*
X143275714Y-69540476D01*
X143275714Y-69492857D01*
X143323333Y-69397619D01*
X143370952Y-69350000D01*
X143466190Y-69302380D01*
X143656666Y-69302380D01*
X143751904Y-69350000D01*
X143799523Y-69397619D01*
X143847142Y-69492857D01*
X143847142Y-69540476D01*
X143799523Y-69635714D01*
X143751904Y-69683333D01*
X143656666Y-69730952D01*
X143466190Y-69730952D01*
X143370952Y-69778571D01*
X143323333Y-69826190D01*
X143275714Y-69921428D01*
X143275714Y-70111904D01*
X143323333Y-70207142D01*
X143370952Y-70254761D01*
X143466190Y-70302380D01*
X143656666Y-70302380D01*
X143751904Y-70254761D01*
X143799523Y-70207142D01*
X143847142Y-70111904D01*
X143847142Y-69921428D01*
X143799523Y-69826190D01*
X143751904Y-69778571D01*
X143656666Y-69730952D01*
X144180476Y-70302380D02*
X144704285Y-69635714D01*
X144180476Y-69635714D02*
X144704285Y-70302380D01*
X145513809Y-69302380D02*
X145323333Y-69302380D01*
X145228095Y-69350000D01*
X145180476Y-69397619D01*
X145085238Y-69540476D01*
X145037619Y-69730952D01*
X145037619Y-70111904D01*
X145085238Y-70207142D01*
X145132857Y-70254761D01*
X145228095Y-70302380D01*
X145418571Y-70302380D01*
X145513809Y-70254761D01*
X145561428Y-70207142D01*
X145609047Y-70111904D01*
X145609047Y-69873809D01*
X145561428Y-69778571D01*
X145513809Y-69730952D01*
X145418571Y-69683333D01*
X145228095Y-69683333D01*
X145132857Y-69730952D01*
X145085238Y-69778571D01*
X145037619Y-69873809D01*
X146466190Y-69635714D02*
X146466190Y-70302380D01*
X146228095Y-69254761D02*
X145990000Y-69969047D01*
X146609047Y-69969047D01*
X146751904Y-70397619D02*
X147513809Y-70397619D01*
X147942380Y-69302380D02*
X148132857Y-69302380D01*
X148228095Y-69350000D01*
X148323333Y-69445238D01*
X148370952Y-69635714D01*
X148370952Y-69969047D01*
X148323333Y-70159523D01*
X148228095Y-70254761D01*
X148132857Y-70302380D01*
X147942380Y-70302380D01*
X147847142Y-70254761D01*
X147751904Y-70159523D01*
X147704285Y-69969047D01*
X147704285Y-69635714D01*
X147751904Y-69445238D01*
X147847142Y-69350000D01*
X147942380Y-69302380D01*
X149275714Y-70302380D02*
X148799523Y-70302380D01*
X148799523Y-69302380D01*
X149609047Y-69778571D02*
X149942380Y-69778571D01*
X150085238Y-70302380D02*
X149609047Y-70302380D01*
X149609047Y-69302380D01*
X150085238Y-69302380D01*
X150513809Y-70302380D02*
X150513809Y-69302380D01*
X150751904Y-69302380D01*
X150894761Y-69350000D01*
X150990000Y-69445238D01*
X151037619Y-69540476D01*
X151085238Y-69730952D01*
X151085238Y-69873809D01*
X151037619Y-70064285D01*
X150990000Y-70159523D01*
X150894761Y-70254761D01*
X150751904Y-70302380D01*
X150513809Y-70302380D01*
X146704761Y-63054285D02*
X146752380Y-62911428D01*
X146752380Y-62673333D01*
X146704761Y-62578095D01*
X146657142Y-62530476D01*
X146561904Y-62482857D01*
X146466666Y-62482857D01*
X146371428Y-62530476D01*
X146323809Y-62578095D01*
X146276190Y-62673333D01*
X146228571Y-62863809D01*
X146180952Y-62959047D01*
X146133333Y-63006666D01*
X146038095Y-63054285D01*
X145942857Y-63054285D01*
X145847619Y-63006666D01*
X145800000Y-62959047D01*
X145752380Y-62863809D01*
X145752380Y-62625714D01*
X145800000Y-62482857D01*
X146752380Y-62054285D02*
X145752380Y-62054285D01*
X145752380Y-61816190D01*
X145800000Y-61673333D01*
X145895238Y-61578095D01*
X145990476Y-61530476D01*
X146180952Y-61482857D01*
X146323809Y-61482857D01*
X146514285Y-61530476D01*
X146609523Y-61578095D01*
X146704761Y-61673333D01*
X146752380Y-61816190D01*
X146752380Y-62054285D01*
X146466666Y-61101904D02*
X146466666Y-60625714D01*
X146752380Y-61197142D02*
X145752380Y-60863809D01*
X146752380Y-60530476D01*
X144164761Y-63030476D02*
X144212380Y-62887619D01*
X144212380Y-62649523D01*
X144164761Y-62554285D01*
X144117142Y-62506666D01*
X144021904Y-62459047D01*
X143926666Y-62459047D01*
X143831428Y-62506666D01*
X143783809Y-62554285D01*
X143736190Y-62649523D01*
X143688571Y-62840000D01*
X143640952Y-62935238D01*
X143593333Y-62982857D01*
X143498095Y-63030476D01*
X143402857Y-63030476D01*
X143307619Y-62982857D01*
X143260000Y-62935238D01*
X143212380Y-62840000D01*
X143212380Y-62601904D01*
X143260000Y-62459047D01*
X144117142Y-61459047D02*
X144164761Y-61506666D01*
X144212380Y-61649523D01*
X144212380Y-61744761D01*
X144164761Y-61887619D01*
X144069523Y-61982857D01*
X143974285Y-62030476D01*
X143783809Y-62078095D01*
X143640952Y-62078095D01*
X143450476Y-62030476D01*
X143355238Y-61982857D01*
X143260000Y-61887619D01*
X143212380Y-61744761D01*
X143212380Y-61649523D01*
X143260000Y-61506666D01*
X143307619Y-61459047D01*
X144212380Y-60554285D02*
X144212380Y-61030476D01*
X143212380Y-61030476D01*
X140672380Y-63173333D02*
X141672380Y-62840000D01*
X140672380Y-62506666D01*
X141577142Y-61601904D02*
X141624761Y-61649523D01*
X141672380Y-61792380D01*
X141672380Y-61887619D01*
X141624761Y-62030476D01*
X141529523Y-62125714D01*
X141434285Y-62173333D01*
X141243809Y-62220952D01*
X141100952Y-62220952D01*
X140910476Y-62173333D01*
X140815238Y-62125714D01*
X140720000Y-62030476D01*
X140672380Y-61887619D01*
X140672380Y-61792380D01*
X140720000Y-61649523D01*
X140767619Y-61601904D01*
X141577142Y-60601904D02*
X141624761Y-60649523D01*
X141672380Y-60792380D01*
X141672380Y-60887619D01*
X141624761Y-61030476D01*
X141529523Y-61125714D01*
X141434285Y-61173333D01*
X141243809Y-61220952D01*
X141100952Y-61220952D01*
X140910476Y-61173333D01*
X140815238Y-61125714D01*
X140720000Y-61030476D01*
X140672380Y-60887619D01*
X140672380Y-60792380D01*
X140720000Y-60649523D01*
X140767619Y-60601904D01*
X138180000Y-62601904D02*
X138132380Y-62697142D01*
X138132380Y-62840000D01*
X138180000Y-62982857D01*
X138275238Y-63078095D01*
X138370476Y-63125714D01*
X138560952Y-63173333D01*
X138703809Y-63173333D01*
X138894285Y-63125714D01*
X138989523Y-63078095D01*
X139084761Y-62982857D01*
X139132380Y-62840000D01*
X139132380Y-62744761D01*
X139084761Y-62601904D01*
X139037142Y-62554285D01*
X138703809Y-62554285D01*
X138703809Y-62744761D01*
X139132380Y-62125714D02*
X138132380Y-62125714D01*
X139132380Y-61554285D01*
X138132380Y-61554285D01*
X139132380Y-61078095D02*
X138132380Y-61078095D01*
X138132380Y-60840000D01*
X138180000Y-60697142D01*
X138275238Y-60601904D01*
X138370476Y-60554285D01*
X138560952Y-60506666D01*
X138703809Y-60506666D01*
X138894285Y-60554285D01*
X138989523Y-60601904D01*
X139084761Y-60697142D01*
X139132380Y-60840000D01*
X139132380Y-61078095D01*
X116618095Y-79938571D02*
X116951428Y-79938571D01*
X117094285Y-80462380D02*
X116618095Y-80462380D01*
X116618095Y-79462380D01*
X117094285Y-79462380D01*
X117475238Y-80414761D02*
X117618095Y-80462380D01*
X117856190Y-80462380D01*
X117951428Y-80414761D01*
X117999047Y-80367142D01*
X118046666Y-80271904D01*
X118046666Y-80176666D01*
X117999047Y-80081428D01*
X117951428Y-80033809D01*
X117856190Y-79986190D01*
X117665714Y-79938571D01*
X117570476Y-79890952D01*
X117522857Y-79843333D01*
X117475238Y-79748095D01*
X117475238Y-79652857D01*
X117522857Y-79557619D01*
X117570476Y-79510000D01*
X117665714Y-79462380D01*
X117903809Y-79462380D01*
X118046666Y-79510000D01*
X118475238Y-80462380D02*
X118475238Y-79462380D01*
X118856190Y-79462380D01*
X118951428Y-79510000D01*
X118999047Y-79557619D01*
X119046666Y-79652857D01*
X119046666Y-79795714D01*
X118999047Y-79890952D01*
X118951428Y-79938571D01*
X118856190Y-79986190D01*
X118475238Y-79986190D01*
X119475238Y-80081428D02*
X120237142Y-80081428D01*
X120903809Y-79462380D02*
X120999047Y-79462380D01*
X121094285Y-79510000D01*
X121141904Y-79557619D01*
X121189523Y-79652857D01*
X121237142Y-79843333D01*
X121237142Y-80081428D01*
X121189523Y-80271904D01*
X121141904Y-80367142D01*
X121094285Y-80414761D01*
X120999047Y-80462380D01*
X120903809Y-80462380D01*
X120808571Y-80414761D01*
X120760952Y-80367142D01*
X120713333Y-80271904D01*
X120665714Y-80081428D01*
X120665714Y-79843333D01*
X120713333Y-79652857D01*
X120760952Y-79557619D01*
X120808571Y-79510000D01*
X120903809Y-79462380D01*
X122189523Y-80462380D02*
X121618095Y-80462380D01*
X121903809Y-80462380D02*
X121903809Y-79462380D01*
X121808571Y-79605238D01*
X121713333Y-79700476D01*
X121618095Y-79748095D01*
X117610000Y-86947142D02*
X117562380Y-87042380D01*
X117562380Y-87185238D01*
X117610000Y-87328095D01*
X117705238Y-87423333D01*
X117800476Y-87470952D01*
X117990952Y-87518571D01*
X118133809Y-87518571D01*
X118324285Y-87470952D01*
X118419523Y-87423333D01*
X118514761Y-87328095D01*
X118562380Y-87185238D01*
X118562380Y-87090000D01*
X118514761Y-86947142D01*
X118467142Y-86899523D01*
X118133809Y-86899523D01*
X118133809Y-87090000D01*
X118562380Y-86470952D02*
X117562380Y-86470952D01*
X117562380Y-86090000D01*
X117610000Y-85994761D01*
X117657619Y-85947142D01*
X117752857Y-85899523D01*
X117895714Y-85899523D01*
X117990952Y-85947142D01*
X118038571Y-85994761D01*
X118086190Y-86090000D01*
X118086190Y-86470952D01*
X118562380Y-85470952D02*
X117562380Y-85470952D01*
X117562380Y-84804285D02*
X117562380Y-84613809D01*
X117610000Y-84518571D01*
X117705238Y-84423333D01*
X117895714Y-84375714D01*
X118229047Y-84375714D01*
X118419523Y-84423333D01*
X118514761Y-84518571D01*
X118562380Y-84613809D01*
X118562380Y-84804285D01*
X118514761Y-84899523D01*
X118419523Y-84994761D01*
X118229047Y-85042380D01*
X117895714Y-85042380D01*
X117705238Y-84994761D01*
X117610000Y-84899523D01*
X117562380Y-84804285D01*
X118657619Y-84185238D02*
X118657619Y-83423333D01*
X117657619Y-83232857D02*
X117610000Y-83185238D01*
X117562380Y-83090000D01*
X117562380Y-82851904D01*
X117610000Y-82756666D01*
X117657619Y-82709047D01*
X117752857Y-82661428D01*
X117848095Y-82661428D01*
X117990952Y-82709047D01*
X118562380Y-83280476D01*
X118562380Y-82661428D01*
X120150000Y-86947142D02*
X120102380Y-87042380D01*
X120102380Y-87185238D01*
X120150000Y-87328095D01*
X120245238Y-87423333D01*
X120340476Y-87470952D01*
X120530952Y-87518571D01*
X120673809Y-87518571D01*
X120864285Y-87470952D01*
X120959523Y-87423333D01*
X121054761Y-87328095D01*
X121102380Y-87185238D01*
X121102380Y-87090000D01*
X121054761Y-86947142D01*
X121007142Y-86899523D01*
X120673809Y-86899523D01*
X120673809Y-87090000D01*
X121102380Y-86470952D02*
X120102380Y-86470952D01*
X120102380Y-86090000D01*
X120150000Y-85994761D01*
X120197619Y-85947142D01*
X120292857Y-85899523D01*
X120435714Y-85899523D01*
X120530952Y-85947142D01*
X120578571Y-85994761D01*
X120626190Y-86090000D01*
X120626190Y-86470952D01*
X121102380Y-85470952D02*
X120102380Y-85470952D01*
X120102380Y-84804285D02*
X120102380Y-84613809D01*
X120150000Y-84518571D01*
X120245238Y-84423333D01*
X120435714Y-84375714D01*
X120769047Y-84375714D01*
X120959523Y-84423333D01*
X121054761Y-84518571D01*
X121102380Y-84613809D01*
X121102380Y-84804285D01*
X121054761Y-84899523D01*
X120959523Y-84994761D01*
X120769047Y-85042380D01*
X120435714Y-85042380D01*
X120245238Y-84994761D01*
X120150000Y-84899523D01*
X120102380Y-84804285D01*
X121197619Y-84185238D02*
X121197619Y-83423333D01*
X120102380Y-82994761D02*
X120102380Y-82899523D01*
X120150000Y-82804285D01*
X120197619Y-82756666D01*
X120292857Y-82709047D01*
X120483333Y-82661428D01*
X120721428Y-82661428D01*
X120911904Y-82709047D01*
X121007142Y-82756666D01*
X121054761Y-82804285D01*
X121102380Y-82899523D01*
X121102380Y-82994761D01*
X121054761Y-83090000D01*
X121007142Y-83137619D01*
X120911904Y-83185238D01*
X120721428Y-83232857D01*
X120483333Y-83232857D01*
X120292857Y-83185238D01*
X120197619Y-83137619D01*
X120150000Y-83090000D01*
X120102380Y-82994761D01*
X123642380Y-86526666D02*
X123166190Y-86860000D01*
X123642380Y-87098095D02*
X122642380Y-87098095D01*
X122642380Y-86717142D01*
X122690000Y-86621904D01*
X122737619Y-86574285D01*
X122832857Y-86526666D01*
X122975714Y-86526666D01*
X123070952Y-86574285D01*
X123118571Y-86621904D01*
X123166190Y-86717142D01*
X123166190Y-87098095D01*
X122642380Y-86193333D02*
X123642380Y-85526666D01*
X122642380Y-85526666D02*
X123642380Y-86193333D01*
X115022380Y-94741904D02*
X115022380Y-94170476D01*
X116022380Y-94456190D02*
X115022380Y-94456190D01*
X115022380Y-93932380D02*
X116022380Y-93265714D01*
X115022380Y-93265714D02*
X116022380Y-93932380D01*
X118467142Y-96821428D02*
X118514761Y-96869047D01*
X118562380Y-97011904D01*
X118562380Y-97107142D01*
X118514761Y-97250000D01*
X118419523Y-97345238D01*
X118324285Y-97392857D01*
X118133809Y-97440476D01*
X117990952Y-97440476D01*
X117800476Y-97392857D01*
X117705238Y-97345238D01*
X117610000Y-97250000D01*
X117562380Y-97107142D01*
X117562380Y-97011904D01*
X117610000Y-96869047D01*
X117657619Y-96821428D01*
X118562380Y-96392857D02*
X117562380Y-96392857D01*
X118038571Y-96392857D02*
X118038571Y-95821428D01*
X118562380Y-95821428D02*
X117562380Y-95821428D01*
X118657619Y-95583333D02*
X118657619Y-94821428D01*
X118038571Y-94583333D02*
X118038571Y-94250000D01*
X118562380Y-94107142D02*
X118562380Y-94583333D01*
X117562380Y-94583333D01*
X117562380Y-94107142D01*
X118562380Y-93678571D02*
X117562380Y-93678571D01*
X118562380Y-93107142D01*
X117562380Y-93107142D01*
X121102380Y-94527619D02*
X120626190Y-94860952D01*
X121102380Y-95099047D02*
X120102380Y-95099047D01*
X120102380Y-94718095D01*
X120150000Y-94622857D01*
X120197619Y-94575238D01*
X120292857Y-94527619D01*
X120435714Y-94527619D01*
X120530952Y-94575238D01*
X120578571Y-94622857D01*
X120626190Y-94718095D01*
X120626190Y-95099047D01*
X121054761Y-94146666D02*
X121102380Y-94003809D01*
X121102380Y-93765714D01*
X121054761Y-93670476D01*
X121007142Y-93622857D01*
X120911904Y-93575238D01*
X120816666Y-93575238D01*
X120721428Y-93622857D01*
X120673809Y-93670476D01*
X120626190Y-93765714D01*
X120578571Y-93956190D01*
X120530952Y-94051428D01*
X120483333Y-94099047D01*
X120388095Y-94146666D01*
X120292857Y-94146666D01*
X120197619Y-94099047D01*
X120150000Y-94051428D01*
X120102380Y-93956190D01*
X120102380Y-93718095D01*
X120150000Y-93575238D01*
X120102380Y-93289523D02*
X120102380Y-92718095D01*
X121102380Y-93003809D02*
X120102380Y-93003809D01*
X122642380Y-95313333D02*
X123642380Y-94980000D01*
X122642380Y-94646666D01*
X123547142Y-93741904D02*
X123594761Y-93789523D01*
X123642380Y-93932380D01*
X123642380Y-94027619D01*
X123594761Y-94170476D01*
X123499523Y-94265714D01*
X123404285Y-94313333D01*
X123213809Y-94360952D01*
X123070952Y-94360952D01*
X122880476Y-94313333D01*
X122785238Y-94265714D01*
X122690000Y-94170476D01*
X122642380Y-94027619D01*
X122642380Y-93932380D01*
X122690000Y-93789523D01*
X122737619Y-93741904D01*
X123547142Y-92741904D02*
X123594761Y-92789523D01*
X123642380Y-92932380D01*
X123642380Y-93027619D01*
X123594761Y-93170476D01*
X123499523Y-93265714D01*
X123404285Y-93313333D01*
X123213809Y-93360952D01*
X123070952Y-93360952D01*
X122880476Y-93313333D01*
X122785238Y-93265714D01*
X122690000Y-93170476D01*
X122642380Y-93027619D01*
X122642380Y-92932380D01*
X122690000Y-92789523D01*
X122737619Y-92741904D01*
X115070000Y-87121904D02*
X115022380Y-87217142D01*
X115022380Y-87360000D01*
X115070000Y-87502857D01*
X115165238Y-87598095D01*
X115260476Y-87645714D01*
X115450952Y-87693333D01*
X115593809Y-87693333D01*
X115784285Y-87645714D01*
X115879523Y-87598095D01*
X115974761Y-87502857D01*
X116022380Y-87360000D01*
X116022380Y-87264761D01*
X115974761Y-87121904D01*
X115927142Y-87074285D01*
X115593809Y-87074285D01*
X115593809Y-87264761D01*
X116022380Y-86645714D02*
X115022380Y-86645714D01*
X116022380Y-86074285D01*
X115022380Y-86074285D01*
X116022380Y-85598095D02*
X115022380Y-85598095D01*
X115022380Y-85360000D01*
X115070000Y-85217142D01*
X115165238Y-85121904D01*
X115260476Y-85074285D01*
X115450952Y-85026666D01*
X115593809Y-85026666D01*
X115784285Y-85074285D01*
X115879523Y-85121904D01*
X115974761Y-85217142D01*
X116022380Y-85360000D01*
X116022380Y-85598095D01*
X162012380Y-101812380D02*
X161679047Y-101336190D01*
X161440952Y-101812380D02*
X161440952Y-100812380D01*
X161821904Y-100812380D01*
X161917142Y-100860000D01*
X161964761Y-100907619D01*
X162012380Y-101002857D01*
X162012380Y-101145714D01*
X161964761Y-101240952D01*
X161917142Y-101288571D01*
X161821904Y-101336190D01*
X161440952Y-101336190D01*
X162393333Y-101764761D02*
X162536190Y-101812380D01*
X162774285Y-101812380D01*
X162869523Y-101764761D01*
X162917142Y-101717142D01*
X162964761Y-101621904D01*
X162964761Y-101526666D01*
X162917142Y-101431428D01*
X162869523Y-101383809D01*
X162774285Y-101336190D01*
X162583809Y-101288571D01*
X162488571Y-101240952D01*
X162440952Y-101193333D01*
X162393333Y-101098095D01*
X162393333Y-101002857D01*
X162440952Y-100907619D01*
X162488571Y-100860000D01*
X162583809Y-100812380D01*
X162821904Y-100812380D01*
X162964761Y-100860000D01*
X163250476Y-100812380D02*
X163821904Y-100812380D01*
X163536190Y-101812380D02*
X163536190Y-100812380D01*
X141823333Y-120382380D02*
X141251904Y-120382380D01*
X141537619Y-120382380D02*
X141537619Y-119382380D01*
X141442380Y-119525238D01*
X141347142Y-119620476D01*
X141251904Y-119668095D01*
X142442380Y-119382380D02*
X142537619Y-119382380D01*
X142632857Y-119430000D01*
X142680476Y-119477619D01*
X142728095Y-119572857D01*
X142775714Y-119763333D01*
X142775714Y-120001428D01*
X142728095Y-120191904D01*
X142680476Y-120287142D01*
X142632857Y-120334761D01*
X142537619Y-120382380D01*
X142442380Y-120382380D01*
X142347142Y-120334761D01*
X142299523Y-120287142D01*
X142251904Y-120191904D01*
X142204285Y-120001428D01*
X142204285Y-119763333D01*
X142251904Y-119572857D01*
X142299523Y-119477619D01*
X142347142Y-119430000D01*
X142442380Y-119382380D01*
X143394761Y-119382380D02*
X143490000Y-119382380D01*
X143585238Y-119430000D01*
X143632857Y-119477619D01*
X143680476Y-119572857D01*
X143728095Y-119763333D01*
X143728095Y-120001428D01*
X143680476Y-120191904D01*
X143632857Y-120287142D01*
X143585238Y-120334761D01*
X143490000Y-120382380D01*
X143394761Y-120382380D01*
X143299523Y-120334761D01*
X143251904Y-120287142D01*
X143204285Y-120191904D01*
X143156666Y-120001428D01*
X143156666Y-119763333D01*
X143204285Y-119572857D01*
X143251904Y-119477619D01*
X143299523Y-119430000D01*
X143394761Y-119382380D01*
X160750476Y-117052380D02*
X160750476Y-116052380D01*
X161083809Y-116766666D01*
X161417142Y-116052380D01*
X161417142Y-117052380D01*
X162083809Y-116052380D02*
X162274285Y-116052380D01*
X162369523Y-116100000D01*
X162464761Y-116195238D01*
X162512380Y-116385714D01*
X162512380Y-116719047D01*
X162464761Y-116909523D01*
X162369523Y-117004761D01*
X162274285Y-117052380D01*
X162083809Y-117052380D01*
X161988571Y-117004761D01*
X161893333Y-116909523D01*
X161845714Y-116719047D01*
X161845714Y-116385714D01*
X161893333Y-116195238D01*
X161988571Y-116100000D01*
X162083809Y-116052380D01*
X162940952Y-117052380D02*
X162940952Y-116052380D01*
X163179047Y-116052380D01*
X163321904Y-116100000D01*
X163417142Y-116195238D01*
X163464761Y-116290476D01*
X163512380Y-116480952D01*
X163512380Y-116623809D01*
X163464761Y-116814285D01*
X163417142Y-116909523D01*
X163321904Y-117004761D01*
X163179047Y-117052380D01*
X162940952Y-117052380D01*
X163940952Y-116528571D02*
X164274285Y-116528571D01*
X164417142Y-117052380D02*
X163940952Y-117052380D01*
X163940952Y-116052380D01*
X164417142Y-116052380D01*
X119491428Y-101288571D02*
X119824761Y-101288571D01*
X119967619Y-101812380D02*
X119491428Y-101812380D01*
X119491428Y-100812380D01*
X119967619Y-100812380D01*
X120348571Y-101764761D02*
X120491428Y-101812380D01*
X120729523Y-101812380D01*
X120824761Y-101764761D01*
X120872380Y-101717142D01*
X120920000Y-101621904D01*
X120920000Y-101526666D01*
X120872380Y-101431428D01*
X120824761Y-101383809D01*
X120729523Y-101336190D01*
X120539047Y-101288571D01*
X120443809Y-101240952D01*
X120396190Y-101193333D01*
X120348571Y-101098095D01*
X120348571Y-101002857D01*
X120396190Y-100907619D01*
X120443809Y-100860000D01*
X120539047Y-100812380D01*
X120777142Y-100812380D01*
X120920000Y-100860000D01*
X121348571Y-101812380D02*
X121348571Y-100812380D01*
X121729523Y-100812380D01*
X121824761Y-100860000D01*
X121872380Y-100907619D01*
X121920000Y-101002857D01*
X121920000Y-101145714D01*
X121872380Y-101240952D01*
X121824761Y-101288571D01*
X121729523Y-101336190D01*
X121348571Y-101336190D01*
X122110476Y-101907619D02*
X122872380Y-101907619D01*
X123681904Y-101812380D02*
X123348571Y-101336190D01*
X123110476Y-101812380D02*
X123110476Y-100812380D01*
X123491428Y-100812380D01*
X123586666Y-100860000D01*
X123634285Y-100907619D01*
X123681904Y-101002857D01*
X123681904Y-101145714D01*
X123634285Y-101240952D01*
X123586666Y-101288571D01*
X123491428Y-101336190D01*
X123110476Y-101336190D01*
X124062857Y-101764761D02*
X124205714Y-101812380D01*
X124443809Y-101812380D01*
X124539047Y-101764761D01*
X124586666Y-101717142D01*
X124634285Y-101621904D01*
X124634285Y-101526666D01*
X124586666Y-101431428D01*
X124539047Y-101383809D01*
X124443809Y-101336190D01*
X124253333Y-101288571D01*
X124158095Y-101240952D01*
X124110476Y-101193333D01*
X124062857Y-101098095D01*
X124062857Y-101002857D01*
X124110476Y-100907619D01*
X124158095Y-100860000D01*
X124253333Y-100812380D01*
X124491428Y-100812380D01*
X124634285Y-100860000D01*
X124920000Y-100812380D02*
X125491428Y-100812380D01*
X125205714Y-101812380D02*
X125205714Y-100812380D01*
X119348571Y-116528571D02*
X119681904Y-116528571D01*
X119824761Y-117052380D02*
X119348571Y-117052380D01*
X119348571Y-116052380D01*
X119824761Y-116052380D01*
X120205714Y-117004761D02*
X120348571Y-117052380D01*
X120586666Y-117052380D01*
X120681904Y-117004761D01*
X120729523Y-116957142D01*
X120777142Y-116861904D01*
X120777142Y-116766666D01*
X120729523Y-116671428D01*
X120681904Y-116623809D01*
X120586666Y-116576190D01*
X120396190Y-116528571D01*
X120300952Y-116480952D01*
X120253333Y-116433333D01*
X120205714Y-116338095D01*
X120205714Y-116242857D01*
X120253333Y-116147619D01*
X120300952Y-116100000D01*
X120396190Y-116052380D01*
X120634285Y-116052380D01*
X120777142Y-116100000D01*
X121205714Y-117052380D02*
X121205714Y-116052380D01*
X121586666Y-116052380D01*
X121681904Y-116100000D01*
X121729523Y-116147619D01*
X121777142Y-116242857D01*
X121777142Y-116385714D01*
X121729523Y-116480952D01*
X121681904Y-116528571D01*
X121586666Y-116576190D01*
X121205714Y-116576190D01*
X121967619Y-117147619D02*
X122729523Y-117147619D01*
X122967619Y-117052380D02*
X122967619Y-116052380D01*
X123348571Y-116052380D01*
X123443809Y-116100000D01*
X123491428Y-116147619D01*
X123539047Y-116242857D01*
X123539047Y-116385714D01*
X123491428Y-116480952D01*
X123443809Y-116528571D01*
X123348571Y-116576190D01*
X122967619Y-116576190D01*
X124539047Y-117052380D02*
X124205714Y-116576190D01*
X123967619Y-117052380D02*
X123967619Y-116052380D01*
X124348571Y-116052380D01*
X124443809Y-116100000D01*
X124491428Y-116147619D01*
X124539047Y-116242857D01*
X124539047Y-116385714D01*
X124491428Y-116480952D01*
X124443809Y-116528571D01*
X124348571Y-116576190D01*
X123967619Y-116576190D01*
X125491428Y-116100000D02*
X125396190Y-116052380D01*
X125253333Y-116052380D01*
X125110476Y-116100000D01*
X125015238Y-116195238D01*
X124967619Y-116290476D01*
X124920000Y-116480952D01*
X124920000Y-116623809D01*
X124967619Y-116814285D01*
X125015238Y-116909523D01*
X125110476Y-117004761D01*
X125253333Y-117052380D01*
X125348571Y-117052380D01*
X125491428Y-117004761D01*
X125539047Y-116957142D01*
X125539047Y-116623809D01*
X125348571Y-116623809D01*
X141847142Y-128682380D02*
X141370952Y-128682380D01*
X141370952Y-127682380D01*
X142180476Y-128158571D02*
X142513809Y-128158571D01*
X142656666Y-128682380D02*
X142180476Y-128682380D01*
X142180476Y-127682380D01*
X142656666Y-127682380D01*
X143085238Y-128682380D02*
X143085238Y-127682380D01*
X143323333Y-127682380D01*
X143466190Y-127730000D01*
X143561428Y-127825238D01*
X143609047Y-127920476D01*
X143656666Y-128110952D01*
X143656666Y-128253809D01*
X143609047Y-128444285D01*
X143561428Y-128539523D01*
X143466190Y-128634761D01*
X143323333Y-128682380D01*
X143085238Y-128682380D01*
M02*
