M48
; DRILL file {KiCad 5.1.4+dfsg1-1} date Tue 31 Mar 2020 16:34:22 AEDT
; FORMAT={-:-/ absolute / metric / decimal}
; #@! TF.CreationDate,2020-03-31T16:34:22+11:00
; #@! TF.GenerationSoftware,Kicad,Pcbnew,5.1.4+dfsg1-1
FMAT,2
METRIC
T1C0.400
T2C0.762
T3C1.000
T4C2.000
T5C2.500
T6C12.000
%
G90
G05
T1
X125.73Y-93.98
X130.81Y-88.9
X143.51Y-121.92
T2
X161.29Y-88.9
X163.83Y-88.9
X166.37Y-88.9
X168.91Y-88.9
X134.87Y-102.87
X134.87Y-105.41
X134.87Y-107.95
X134.87Y-110.49
X134.87Y-113.03
X134.87Y-115.57
X134.87Y-118.11
X134.87Y-120.65
X134.87Y-123.19
X134.87Y-125.73
X134.87Y-128.27
X134.87Y-130.81
X150.11Y-102.87
X150.11Y-105.41
X150.11Y-107.95
X150.11Y-110.49
X150.11Y-113.03
X150.11Y-115.57
X150.11Y-118.11
X150.11Y-120.65
X150.11Y-123.19
X150.11Y-125.73
X150.11Y-128.27
X150.11Y-130.81
X138.68Y-59.6
X141.22Y-59.6
X143.76Y-59.6
X146.3Y-59.6
X116.205Y-88.9
X116.205Y-91.44
X118.745Y-88.9
X118.745Y-91.44
X121.285Y-88.9
X121.285Y-91.44
X123.825Y-88.9
X123.825Y-91.44
T3
X115.57Y-114.3
X118.11Y-114.3
X120.65Y-114.3
X123.19Y-114.3
X125.73Y-114.3
X128.27Y-114.3
X161.29Y-114.3
X163.83Y-114.3
T4
X130.84Y-60.1
X130.84Y-83.9
X154.14Y-60.1
X154.14Y-83.9
T5
X117.76Y-132.8
X118.11Y-62.8
X142.49Y-55.3
X142.49Y-140.3
X167.22Y-62.8
X167.22Y-132.8
T6
X142.49Y-77.47
T0
M30
