G04 #@! TF.GenerationSoftware,KiCad,Pcbnew,5.1.4+dfsg1-1*
G04 #@! TF.CreationDate,2020-03-30T20:01:31+11:00*
G04 #@! TF.ProjectId,temp0_schematic,74656d70-305f-4736-9368-656d61746963,rev?*
G04 #@! TF.SameCoordinates,Original*
G04 #@! TF.FileFunction,Legend,Bot*
G04 #@! TF.FilePolarity,Positive*
%FSLAX46Y46*%
G04 Gerber Fmt 4.6, Leading zero omitted, Abs format (unit mm)*
G04 Created by KiCad (PCBNEW 5.1.4+dfsg1-1) date 2020-03-30 20:01:31*
%MOMM*%
%LPD*%
G04 APERTURE LIST*
%ADD10C,0.120000*%
%ADD11C,0.150000*%
G04 APERTURE END LIST*
D10*
X165100000Y-115570000D02*
X165100000Y-114300000D01*
X163830000Y-115570000D02*
X165100000Y-115570000D01*
X160910000Y-113257071D02*
X160910000Y-112860000D01*
X161670000Y-113257071D02*
X161670000Y-112860000D01*
X160910000Y-104200000D02*
X160910000Y-110200000D01*
X161670000Y-104200000D02*
X160910000Y-104200000D01*
X161670000Y-110200000D02*
X161670000Y-104200000D01*
X162560000Y-112860000D02*
X162560000Y-110200000D01*
X163450000Y-113190000D02*
X163450000Y-112860000D01*
X164210000Y-113190000D02*
X164210000Y-112860000D01*
X163550000Y-110200000D02*
X163550000Y-104200000D01*
X163670000Y-110200000D02*
X163670000Y-104200000D01*
X163790000Y-110200000D02*
X163790000Y-104200000D01*
X163910000Y-110200000D02*
X163910000Y-104200000D01*
X164030000Y-110200000D02*
X164030000Y-104200000D01*
X164150000Y-110200000D02*
X164150000Y-104200000D01*
X163450000Y-104200000D02*
X163450000Y-110200000D01*
X164210000Y-104200000D02*
X163450000Y-104200000D01*
X164210000Y-110200000D02*
X164210000Y-104200000D01*
X165160000Y-110200000D02*
X165160000Y-112860000D01*
X159960000Y-110200000D02*
X165160000Y-110200000D01*
X159960000Y-112860000D02*
X159960000Y-110200000D01*
X165160000Y-112860000D02*
X159960000Y-112860000D01*
X129600000Y-112860000D02*
X114240000Y-112860000D01*
X114240000Y-112860000D02*
X114240000Y-110200000D01*
X114240000Y-110200000D02*
X129600000Y-110200000D01*
X129600000Y-110200000D02*
X129600000Y-112860000D01*
X128650000Y-110200000D02*
X128650000Y-104200000D01*
X128650000Y-104200000D02*
X127890000Y-104200000D01*
X127890000Y-104200000D02*
X127890000Y-110200000D01*
X128590000Y-110200000D02*
X128590000Y-104200000D01*
X128470000Y-110200000D02*
X128470000Y-104200000D01*
X128350000Y-110200000D02*
X128350000Y-104200000D01*
X128230000Y-110200000D02*
X128230000Y-104200000D01*
X128110000Y-110200000D02*
X128110000Y-104200000D01*
X127990000Y-110200000D02*
X127990000Y-104200000D01*
X128650000Y-113190000D02*
X128650000Y-112860000D01*
X127890000Y-113190000D02*
X127890000Y-112860000D01*
X127000000Y-112860000D02*
X127000000Y-110200000D01*
X126110000Y-110200000D02*
X126110000Y-104200000D01*
X126110000Y-104200000D02*
X125350000Y-104200000D01*
X125350000Y-104200000D02*
X125350000Y-110200000D01*
X126110000Y-113257071D02*
X126110000Y-112860000D01*
X125350000Y-113257071D02*
X125350000Y-112860000D01*
X124460000Y-112860000D02*
X124460000Y-110200000D01*
X123570000Y-110200000D02*
X123570000Y-104200000D01*
X123570000Y-104200000D02*
X122810000Y-104200000D01*
X122810000Y-104200000D02*
X122810000Y-110200000D01*
X123570000Y-113257071D02*
X123570000Y-112860000D01*
X122810000Y-113257071D02*
X122810000Y-112860000D01*
X121920000Y-112860000D02*
X121920000Y-110200000D01*
X121030000Y-110200000D02*
X121030000Y-104200000D01*
X121030000Y-104200000D02*
X120270000Y-104200000D01*
X120270000Y-104200000D02*
X120270000Y-110200000D01*
X121030000Y-113257071D02*
X121030000Y-112860000D01*
X120270000Y-113257071D02*
X120270000Y-112860000D01*
X119380000Y-112860000D02*
X119380000Y-110200000D01*
X118490000Y-110200000D02*
X118490000Y-104200000D01*
X118490000Y-104200000D02*
X117730000Y-104200000D01*
X117730000Y-104200000D02*
X117730000Y-110200000D01*
X118490000Y-113257071D02*
X118490000Y-112860000D01*
X117730000Y-113257071D02*
X117730000Y-112860000D01*
X116840000Y-112860000D02*
X116840000Y-110200000D01*
X115950000Y-110200000D02*
X115950000Y-104200000D01*
X115950000Y-104200000D02*
X115190000Y-104200000D01*
X115190000Y-104200000D02*
X115190000Y-110200000D01*
X115950000Y-113257071D02*
X115950000Y-112860000D01*
X115190000Y-113257071D02*
X115190000Y-112860000D01*
X128270000Y-115570000D02*
X129540000Y-115570000D01*
X129540000Y-115570000D02*
X129540000Y-114300000D01*
X129940000Y-63210000D02*
X129940000Y-69220000D01*
X136760000Y-65460000D02*
X136760000Y-69220000D01*
X129940000Y-69220000D02*
X131200000Y-69220000D01*
X136760000Y-69220000D02*
X135500000Y-69220000D01*
X124009564Y-84730000D02*
X122805436Y-84730000D01*
X124009564Y-82910000D02*
X122805436Y-82910000D01*
X117659564Y-84730000D02*
X116455436Y-84730000D01*
X117659564Y-82910000D02*
X116455436Y-82910000D01*
X124100000Y-96970436D02*
X124100000Y-98174564D01*
X122280000Y-96970436D02*
X122280000Y-98174564D01*
X146935436Y-67670000D02*
X148139564Y-67670000D01*
X146935436Y-69490000D02*
X148139564Y-69490000D01*
X146935436Y-63860000D02*
X148139564Y-63860000D01*
X146935436Y-65680000D02*
X148139564Y-65680000D01*
D11*
X166060000Y-117292380D02*
X166060000Y-116292380D01*
X165726666Y-117006666D01*
X165393333Y-116292380D01*
X165393333Y-117292380D01*
X164726666Y-116292380D02*
X164536190Y-116292380D01*
X164440952Y-116340000D01*
X164345714Y-116435238D01*
X164298095Y-116625714D01*
X164298095Y-116959047D01*
X164345714Y-117149523D01*
X164440952Y-117244761D01*
X164536190Y-117292380D01*
X164726666Y-117292380D01*
X164821904Y-117244761D01*
X164917142Y-117149523D01*
X164964761Y-116959047D01*
X164964761Y-116625714D01*
X164917142Y-116435238D01*
X164821904Y-116340000D01*
X164726666Y-116292380D01*
X163869523Y-117292380D02*
X163869523Y-116292380D01*
X163631428Y-116292380D01*
X163488571Y-116340000D01*
X163393333Y-116435238D01*
X163345714Y-116530476D01*
X163298095Y-116720952D01*
X163298095Y-116863809D01*
X163345714Y-117054285D01*
X163393333Y-117149523D01*
X163488571Y-117244761D01*
X163631428Y-117292380D01*
X163869523Y-117292380D01*
X162869523Y-116768571D02*
X162536190Y-116768571D01*
X162393333Y-117292380D02*
X162869523Y-117292380D01*
X162869523Y-116292380D01*
X162393333Y-116292380D01*
X162202857Y-117387619D02*
X161440952Y-117387619D01*
X161202857Y-116768571D02*
X160869523Y-116768571D01*
X160726666Y-117292380D02*
X161202857Y-117292380D01*
X161202857Y-116292380D01*
X160726666Y-116292380D01*
X160393333Y-116292380D02*
X159726666Y-117292380D01*
X159726666Y-116292380D02*
X160393333Y-117292380D01*
X159488571Y-116292380D02*
X158917142Y-116292380D01*
X159202857Y-117292380D02*
X159202857Y-116292380D01*
X122896190Y-116768571D02*
X123229523Y-116768571D01*
X123229523Y-117292380D02*
X123229523Y-116292380D01*
X122753333Y-116292380D01*
X122515238Y-116292380D02*
X121943809Y-116292380D01*
X122229523Y-117292380D02*
X122229523Y-116292380D01*
X121610476Y-117292380D02*
X121610476Y-116292380D01*
X121372380Y-116292380D01*
X121229523Y-116340000D01*
X121134285Y-116435238D01*
X121086666Y-116530476D01*
X121039047Y-116720952D01*
X121039047Y-116863809D01*
X121086666Y-117054285D01*
X121134285Y-117149523D01*
X121229523Y-117244761D01*
X121372380Y-117292380D01*
X121610476Y-117292380D01*
X120610476Y-117292380D02*
X120610476Y-116292380D01*
X136659523Y-71842380D02*
X136040476Y-71842380D01*
X136373809Y-72223333D01*
X136230952Y-72223333D01*
X136135714Y-72270952D01*
X136088095Y-72318571D01*
X136040476Y-72413809D01*
X136040476Y-72651904D01*
X136088095Y-72747142D01*
X136135714Y-72794761D01*
X136230952Y-72842380D01*
X136516666Y-72842380D01*
X136611904Y-72794761D01*
X136659523Y-72747142D01*
X135611904Y-72747142D02*
X135564285Y-72794761D01*
X135611904Y-72842380D01*
X135659523Y-72794761D01*
X135611904Y-72747142D01*
X135611904Y-72842380D01*
X135230952Y-71842380D02*
X134611904Y-71842380D01*
X134945238Y-72223333D01*
X134802380Y-72223333D01*
X134707142Y-72270952D01*
X134659523Y-72318571D01*
X134611904Y-72413809D01*
X134611904Y-72651904D01*
X134659523Y-72747142D01*
X134707142Y-72794761D01*
X134802380Y-72842380D01*
X135088095Y-72842380D01*
X135183333Y-72794761D01*
X135230952Y-72747142D01*
X134326190Y-71842380D02*
X133992857Y-72842380D01*
X133659523Y-71842380D01*
X133564285Y-72937619D02*
X132802380Y-72937619D01*
X131992857Y-72842380D02*
X132326190Y-72366190D01*
X132564285Y-72842380D02*
X132564285Y-71842380D01*
X132183333Y-71842380D01*
X132088095Y-71890000D01*
X132040476Y-71937619D01*
X131992857Y-72032857D01*
X131992857Y-72175714D01*
X132040476Y-72270952D01*
X132088095Y-72318571D01*
X132183333Y-72366190D01*
X132564285Y-72366190D01*
X131564285Y-72318571D02*
X131230952Y-72318571D01*
X131088095Y-72842380D02*
X131564285Y-72842380D01*
X131564285Y-71842380D01*
X131088095Y-71842380D01*
X130135714Y-71890000D02*
X130230952Y-71842380D01*
X130373809Y-71842380D01*
X130516666Y-71890000D01*
X130611904Y-71985238D01*
X130659523Y-72080476D01*
X130707142Y-72270952D01*
X130707142Y-72413809D01*
X130659523Y-72604285D01*
X130611904Y-72699523D01*
X130516666Y-72794761D01*
X130373809Y-72842380D01*
X130278571Y-72842380D01*
X130135714Y-72794761D01*
X130088095Y-72747142D01*
X130088095Y-72413809D01*
X130278571Y-72413809D01*
X124574166Y-85187619D02*
X124526547Y-85140000D01*
X124431309Y-85092380D01*
X124193214Y-85092380D01*
X124097976Y-85140000D01*
X124050357Y-85187619D01*
X124002738Y-85282857D01*
X124002738Y-85378095D01*
X124050357Y-85520952D01*
X124621785Y-86092380D01*
X124002738Y-86092380D01*
X123621785Y-85187619D02*
X123574166Y-85140000D01*
X123478928Y-85092380D01*
X123240833Y-85092380D01*
X123145595Y-85140000D01*
X123097976Y-85187619D01*
X123050357Y-85282857D01*
X123050357Y-85378095D01*
X123097976Y-85520952D01*
X123669404Y-86092380D01*
X123050357Y-86092380D01*
X122621785Y-86092380D02*
X122621785Y-85092380D01*
X122526547Y-85711428D02*
X122240833Y-86092380D01*
X122240833Y-85425714D02*
X122621785Y-85806666D01*
X117652738Y-86092380D02*
X118224166Y-86092380D01*
X117938452Y-86092380D02*
X117938452Y-85092380D01*
X118033690Y-85235238D01*
X118128928Y-85330476D01*
X118224166Y-85378095D01*
X117033690Y-85092380D02*
X116938452Y-85092380D01*
X116843214Y-85140000D01*
X116795595Y-85187619D01*
X116747976Y-85282857D01*
X116700357Y-85473333D01*
X116700357Y-85711428D01*
X116747976Y-85901904D01*
X116795595Y-85997142D01*
X116843214Y-86044761D01*
X116938452Y-86092380D01*
X117033690Y-86092380D01*
X117128928Y-86044761D01*
X117176547Y-85997142D01*
X117224166Y-85901904D01*
X117271785Y-85711428D01*
X117271785Y-85473333D01*
X117224166Y-85282857D01*
X117176547Y-85187619D01*
X117128928Y-85140000D01*
X117033690Y-85092380D01*
X116271785Y-86092380D02*
X116271785Y-85092380D01*
X116176547Y-85711428D02*
X115890833Y-86092380D01*
X115890833Y-85425714D02*
X116271785Y-85806666D01*
X125462380Y-96977261D02*
X125462380Y-96405833D01*
X125462380Y-96691547D02*
X124462380Y-96691547D01*
X124605238Y-96596309D01*
X124700476Y-96501071D01*
X124748095Y-96405833D01*
X124462380Y-97596309D02*
X124462380Y-97691547D01*
X124510000Y-97786785D01*
X124557619Y-97834404D01*
X124652857Y-97882023D01*
X124843333Y-97929642D01*
X125081428Y-97929642D01*
X125271904Y-97882023D01*
X125367142Y-97834404D01*
X125414761Y-97786785D01*
X125462380Y-97691547D01*
X125462380Y-97596309D01*
X125414761Y-97501071D01*
X125367142Y-97453452D01*
X125271904Y-97405833D01*
X125081428Y-97358214D01*
X124843333Y-97358214D01*
X124652857Y-97405833D01*
X124557619Y-97453452D01*
X124510000Y-97501071D01*
X124462380Y-97596309D01*
X125462380Y-98358214D02*
X124462380Y-98358214D01*
X125081428Y-98453452D02*
X125462380Y-98739166D01*
X124795714Y-98739166D02*
X125176666Y-98358214D01*
X148608928Y-67212380D02*
X149180357Y-67212380D01*
X148894642Y-67212380D02*
X148894642Y-66212380D01*
X148989880Y-66355238D01*
X149085119Y-66450476D01*
X149180357Y-66498095D01*
X147989880Y-66212380D02*
X147894642Y-66212380D01*
X147799404Y-66260000D01*
X147751785Y-66307619D01*
X147704166Y-66402857D01*
X147656547Y-66593333D01*
X147656547Y-66831428D01*
X147704166Y-67021904D01*
X147751785Y-67117142D01*
X147799404Y-67164761D01*
X147894642Y-67212380D01*
X147989880Y-67212380D01*
X148085119Y-67164761D01*
X148132738Y-67117142D01*
X148180357Y-67021904D01*
X148227976Y-66831428D01*
X148227976Y-66593333D01*
X148180357Y-66402857D01*
X148132738Y-66307619D01*
X148085119Y-66260000D01*
X147989880Y-66212380D01*
X146799404Y-66545714D02*
X146799404Y-67212380D01*
X147227976Y-66545714D02*
X147227976Y-67069523D01*
X147180357Y-67164761D01*
X147085119Y-67212380D01*
X146942261Y-67212380D01*
X146847023Y-67164761D01*
X146799404Y-67117142D01*
X145989880Y-66688571D02*
X146323214Y-66688571D01*
X146323214Y-67212380D02*
X146323214Y-66212380D01*
X145847023Y-66212380D01*
X148608928Y-63402380D02*
X149180357Y-63402380D01*
X148894642Y-63402380D02*
X148894642Y-62402380D01*
X148989880Y-62545238D01*
X149085119Y-62640476D01*
X149180357Y-62688095D01*
X147989880Y-62402380D02*
X147894642Y-62402380D01*
X147799404Y-62450000D01*
X147751785Y-62497619D01*
X147704166Y-62592857D01*
X147656547Y-62783333D01*
X147656547Y-63021428D01*
X147704166Y-63211904D01*
X147751785Y-63307142D01*
X147799404Y-63354761D01*
X147894642Y-63402380D01*
X147989880Y-63402380D01*
X148085119Y-63354761D01*
X148132738Y-63307142D01*
X148180357Y-63211904D01*
X148227976Y-63021428D01*
X148227976Y-62783333D01*
X148180357Y-62592857D01*
X148132738Y-62497619D01*
X148085119Y-62450000D01*
X147989880Y-62402380D01*
X146799404Y-62735714D02*
X146799404Y-63402380D01*
X147227976Y-62735714D02*
X147227976Y-63259523D01*
X147180357Y-63354761D01*
X147085119Y-63402380D01*
X146942261Y-63402380D01*
X146847023Y-63354761D01*
X146799404Y-63307142D01*
X145989880Y-62878571D02*
X146323214Y-62878571D01*
X146323214Y-63402380D02*
X146323214Y-62402380D01*
X145847023Y-62402380D01*
M02*
