G04 #@! TF.GenerationSoftware,KiCad,Pcbnew,5.1.4+dfsg1-1*
G04 #@! TF.CreationDate,2020-04-18T12:41:44+10:00*
G04 #@! TF.ProjectId,temp0_schematic,74656d70-305f-4736-9368-656d61746963,rev?*
G04 #@! TF.SameCoordinates,Original*
G04 #@! TF.FileFunction,Copper,L1,Top*
G04 #@! TF.FilePolarity,Positive*
%FSLAX46Y46*%
G04 Gerber Fmt 4.6, Leading zero omitted, Abs format (unit mm)*
G04 Created by KiCad (PCBNEW 5.1.4+dfsg1-1) date 2020-04-18 12:41:44*
%MOMM*%
%LPD*%
G04 APERTURE LIST*
%ADD10C,3.500000*%
%ADD11C,1.524000*%
%ADD12O,1.700000X1.700000*%
%ADD13R,1.700000X1.700000*%
%ADD14R,1.550000X1.300000*%
%ADD15C,0.100000*%
%ADD16C,1.425000*%
%ADD17R,1.500000X2.600000*%
%ADD18C,13.000000*%
%ADD19C,0.800000*%
%ADD20C,0.250000*%
%ADD21C,0.254000*%
G04 APERTURE END LIST*
D10*
X165841000Y-108324000D03*
X160041000Y-108324000D03*
D11*
X166751000Y-124824000D03*
X164211000Y-124824000D03*
X161671000Y-124824000D03*
X159131000Y-124824000D03*
D10*
X130840000Y-60100000D03*
X130840000Y-83900000D03*
X154140000Y-83900000D03*
X154140000Y-60100000D03*
D11*
X146300000Y-59600000D03*
X143760000Y-59600000D03*
X141220000Y-59600000D03*
X138680000Y-59600000D03*
X125857000Y-124968000D03*
X125857000Y-122428000D03*
X123317000Y-124968000D03*
X123317000Y-122428000D03*
X120777000Y-124968000D03*
X120777000Y-122428000D03*
X118237000Y-124968000D03*
X118237000Y-122428000D03*
D12*
X161290000Y-100000000D03*
D13*
X163830000Y-100000000D03*
D11*
X134870000Y-104530000D03*
X134870000Y-107070000D03*
X134870000Y-109610000D03*
X134870000Y-112150000D03*
X134870000Y-114690000D03*
X134870000Y-117230000D03*
X134870000Y-119770000D03*
X134870000Y-122310000D03*
X134870000Y-124850000D03*
X134870000Y-127390000D03*
X134870000Y-129930000D03*
X134870000Y-132470000D03*
X150110000Y-104530000D03*
X150110000Y-107070000D03*
X150110000Y-109610000D03*
X150110000Y-112150000D03*
X150110000Y-114690000D03*
X150110000Y-117230000D03*
X150110000Y-119770000D03*
X150110000Y-122310000D03*
X150110000Y-124850000D03*
X150110000Y-127390000D03*
X150110000Y-129930000D03*
X150110000Y-132470000D03*
D14*
X126465000Y-95250000D03*
X126465000Y-90750000D03*
X118515000Y-90750000D03*
X118515000Y-95250000D03*
D15*
G36*
X141489504Y-121126204D02*
G01*
X141513773Y-121129804D01*
X141537571Y-121135765D01*
X141560671Y-121144030D01*
X141582849Y-121154520D01*
X141603893Y-121167133D01*
X141623598Y-121181747D01*
X141641777Y-121198223D01*
X141658253Y-121216402D01*
X141672867Y-121236107D01*
X141685480Y-121257151D01*
X141695970Y-121279329D01*
X141704235Y-121302429D01*
X141710196Y-121326227D01*
X141713796Y-121350496D01*
X141715000Y-121375000D01*
X141715000Y-122625000D01*
X141713796Y-122649504D01*
X141710196Y-122673773D01*
X141704235Y-122697571D01*
X141695970Y-122720671D01*
X141685480Y-122742849D01*
X141672867Y-122763893D01*
X141658253Y-122783598D01*
X141641777Y-122801777D01*
X141623598Y-122818253D01*
X141603893Y-122832867D01*
X141582849Y-122845480D01*
X141560671Y-122855970D01*
X141537571Y-122864235D01*
X141513773Y-122870196D01*
X141489504Y-122873796D01*
X141465000Y-122875000D01*
X140540000Y-122875000D01*
X140515496Y-122873796D01*
X140491227Y-122870196D01*
X140467429Y-122864235D01*
X140444329Y-122855970D01*
X140422151Y-122845480D01*
X140401107Y-122832867D01*
X140381402Y-122818253D01*
X140363223Y-122801777D01*
X140346747Y-122783598D01*
X140332133Y-122763893D01*
X140319520Y-122742849D01*
X140309030Y-122720671D01*
X140300765Y-122697571D01*
X140294804Y-122673773D01*
X140291204Y-122649504D01*
X140290000Y-122625000D01*
X140290000Y-121375000D01*
X140291204Y-121350496D01*
X140294804Y-121326227D01*
X140300765Y-121302429D01*
X140309030Y-121279329D01*
X140319520Y-121257151D01*
X140332133Y-121236107D01*
X140346747Y-121216402D01*
X140363223Y-121198223D01*
X140381402Y-121181747D01*
X140401107Y-121167133D01*
X140422151Y-121154520D01*
X140444329Y-121144030D01*
X140467429Y-121135765D01*
X140491227Y-121129804D01*
X140515496Y-121126204D01*
X140540000Y-121125000D01*
X141465000Y-121125000D01*
X141489504Y-121126204D01*
X141489504Y-121126204D01*
G37*
D16*
X141002500Y-122000000D03*
D15*
G36*
X144464504Y-121126204D02*
G01*
X144488773Y-121129804D01*
X144512571Y-121135765D01*
X144535671Y-121144030D01*
X144557849Y-121154520D01*
X144578893Y-121167133D01*
X144598598Y-121181747D01*
X144616777Y-121198223D01*
X144633253Y-121216402D01*
X144647867Y-121236107D01*
X144660480Y-121257151D01*
X144670970Y-121279329D01*
X144679235Y-121302429D01*
X144685196Y-121326227D01*
X144688796Y-121350496D01*
X144690000Y-121375000D01*
X144690000Y-122625000D01*
X144688796Y-122649504D01*
X144685196Y-122673773D01*
X144679235Y-122697571D01*
X144670970Y-122720671D01*
X144660480Y-122742849D01*
X144647867Y-122763893D01*
X144633253Y-122783598D01*
X144616777Y-122801777D01*
X144598598Y-122818253D01*
X144578893Y-122832867D01*
X144557849Y-122845480D01*
X144535671Y-122855970D01*
X144512571Y-122864235D01*
X144488773Y-122870196D01*
X144464504Y-122873796D01*
X144440000Y-122875000D01*
X143515000Y-122875000D01*
X143490496Y-122873796D01*
X143466227Y-122870196D01*
X143442429Y-122864235D01*
X143419329Y-122855970D01*
X143397151Y-122845480D01*
X143376107Y-122832867D01*
X143356402Y-122818253D01*
X143338223Y-122801777D01*
X143321747Y-122783598D01*
X143307133Y-122763893D01*
X143294520Y-122742849D01*
X143284030Y-122720671D01*
X143275765Y-122697571D01*
X143269804Y-122673773D01*
X143266204Y-122649504D01*
X143265000Y-122625000D01*
X143265000Y-121375000D01*
X143266204Y-121350496D01*
X143269804Y-121326227D01*
X143275765Y-121302429D01*
X143284030Y-121279329D01*
X143294520Y-121257151D01*
X143307133Y-121236107D01*
X143321747Y-121216402D01*
X143338223Y-121198223D01*
X143356402Y-121181747D01*
X143376107Y-121167133D01*
X143397151Y-121154520D01*
X143419329Y-121144030D01*
X143442429Y-121135765D01*
X143466227Y-121129804D01*
X143490496Y-121126204D01*
X143515000Y-121125000D01*
X144440000Y-121125000D01*
X144464504Y-121126204D01*
X144464504Y-121126204D01*
G37*
D16*
X143977500Y-122000000D03*
D14*
X166465000Y-95250000D03*
X166465000Y-90750000D03*
X158515000Y-90750000D03*
X158515000Y-95250000D03*
D17*
X143990000Y-127500000D03*
X140990000Y-127500000D03*
D10*
X117760000Y-132800000D03*
X142490000Y-140300000D03*
X167220000Y-132800000D03*
X167220000Y-62800000D03*
X142490000Y-55300000D03*
X118110000Y-62800000D03*
D18*
X142490000Y-77470000D03*
D19*
X130048000Y-122428000D03*
X128524000Y-128270000D03*
D20*
X140990000Y-127500000D02*
X138930000Y-127500000D01*
X138930000Y-127500000D02*
X137668000Y-126238000D01*
X137668000Y-120028000D02*
X134870000Y-117230000D01*
X137668000Y-126238000D02*
X137668000Y-120028000D01*
X143990000Y-122012500D02*
X143977500Y-122000000D01*
X143990000Y-127500000D02*
X143990000Y-122012500D01*
X134870000Y-127390000D02*
X130048000Y-122568000D01*
X130048000Y-122568000D02*
X130048000Y-122428000D01*
X118515000Y-95250000D02*
X126465000Y-95250000D01*
X126590000Y-95250000D02*
X126465000Y-95250000D01*
X128524000Y-97184000D02*
X126590000Y-95250000D01*
X128524000Y-128270000D02*
X128524000Y-97184000D01*
X160909001Y-124062001D02*
X161671000Y-124824000D01*
X156215001Y-119368001D02*
X160909001Y-124062001D01*
X156215001Y-72055001D02*
X156215001Y-119368001D01*
X143760000Y-59600000D02*
X156215001Y-72055001D01*
X151187630Y-132470000D02*
X150110000Y-132470000D01*
X155102630Y-132470000D02*
X151187630Y-132470000D01*
X161671000Y-125901630D02*
X155102630Y-132470000D01*
X161671000Y-124824000D02*
X161671000Y-125901630D01*
X164211000Y-124824000D02*
X157480000Y-118093000D01*
X157480000Y-118093000D02*
X157463000Y-118093000D01*
X157463000Y-118093000D02*
X156972000Y-117602000D01*
X156972000Y-70272000D02*
X146300000Y-59600000D01*
X156972000Y-117602000D02*
X156972000Y-70272000D01*
X154923000Y-134112000D02*
X164211000Y-124824000D01*
X149032370Y-129930000D02*
X148336000Y-130626370D01*
X150110000Y-129930000D02*
X149032370Y-129930000D01*
X148336000Y-130626370D02*
X148336000Y-133604000D01*
X148336000Y-133604000D02*
X148844000Y-134112000D01*
X148844000Y-134112000D02*
X154923000Y-134112000D01*
X123199000Y-129930000D02*
X118237000Y-124968000D01*
X134870000Y-129930000D02*
X123199000Y-129930000D01*
X161290000Y-95504000D02*
X161036000Y-95250000D01*
X161290000Y-100000000D02*
X161290000Y-95504000D01*
X158515000Y-95250000D02*
X161036000Y-95250000D01*
X161036000Y-95250000D02*
X166465000Y-95250000D01*
D21*
G36*
X165280000Y-57184876D02*
G01*
X165283067Y-57216018D01*
X165282974Y-57229360D01*
X165283941Y-57239225D01*
X165327803Y-57656534D01*
X165340734Y-57719528D01*
X165352800Y-57782781D01*
X165355665Y-57792271D01*
X165479746Y-58193111D01*
X165504670Y-58252402D01*
X165528789Y-58312100D01*
X165533444Y-58320852D01*
X165733018Y-58689958D01*
X165768999Y-58743302D01*
X165804239Y-58797154D01*
X165810505Y-58804836D01*
X165862000Y-58867083D01*
X165862000Y-59309000D01*
X165864440Y-59333776D01*
X165871667Y-59357601D01*
X165883403Y-59379557D01*
X165899197Y-59398803D01*
X165918443Y-59414597D01*
X165940399Y-59426333D01*
X165964224Y-59433560D01*
X165989000Y-59436000D01*
X166434041Y-59436000D01*
X166501467Y-59490991D01*
X166555061Y-59526599D01*
X166608164Y-59562959D01*
X166616884Y-59567674D01*
X166987375Y-59764667D01*
X167046852Y-59789182D01*
X167106016Y-59814539D01*
X167115486Y-59817471D01*
X167517182Y-59938751D01*
X167580280Y-59951245D01*
X167643254Y-59964630D01*
X167653113Y-59965666D01*
X168070717Y-60006612D01*
X168070723Y-60006612D01*
X168105123Y-60010000D01*
X173780001Y-60010000D01*
X173780000Y-135590000D01*
X168105123Y-135590000D01*
X168073981Y-135593067D01*
X168060641Y-135592974D01*
X168050775Y-135593941D01*
X167633467Y-135637802D01*
X167570448Y-135650738D01*
X167507219Y-135662800D01*
X167497729Y-135665665D01*
X167096888Y-135789746D01*
X167037568Y-135814682D01*
X166977900Y-135838790D01*
X166969147Y-135843444D01*
X166600042Y-136043019D01*
X166546725Y-136078982D01*
X166492846Y-136114239D01*
X166485164Y-136120505D01*
X166456763Y-136144000D01*
X165989000Y-136144000D01*
X165964224Y-136146440D01*
X165940399Y-136153667D01*
X165918443Y-136165403D01*
X165899197Y-136181197D01*
X165883403Y-136200443D01*
X165871667Y-136222399D01*
X165864440Y-136246224D01*
X165862000Y-136271000D01*
X165862000Y-136734232D01*
X165799009Y-136811467D01*
X165763424Y-136865027D01*
X165727041Y-136918163D01*
X165722326Y-136926884D01*
X165525333Y-137297375D01*
X165500813Y-137356864D01*
X165475461Y-137416016D01*
X165472529Y-137425486D01*
X165351249Y-137827183D01*
X165338751Y-137890302D01*
X165325371Y-137953253D01*
X165324335Y-137963112D01*
X165283388Y-138380717D01*
X165283388Y-138380724D01*
X165280000Y-138415124D01*
X165280001Y-144090000D01*
X119700000Y-144090000D01*
X119700000Y-140065098D01*
X140105000Y-140065098D01*
X140105000Y-140534902D01*
X140196654Y-140995679D01*
X140376440Y-141429721D01*
X140637450Y-141820349D01*
X140969651Y-142152550D01*
X141360279Y-142413560D01*
X141794321Y-142593346D01*
X142255098Y-142685000D01*
X142724902Y-142685000D01*
X143185679Y-142593346D01*
X143619721Y-142413560D01*
X144010349Y-142152550D01*
X144342550Y-141820349D01*
X144603560Y-141429721D01*
X144783346Y-140995679D01*
X144875000Y-140534902D01*
X144875000Y-140065098D01*
X144783346Y-139604321D01*
X144603560Y-139170279D01*
X144342550Y-138779651D01*
X144010349Y-138447450D01*
X143619721Y-138186440D01*
X143185679Y-138006654D01*
X142724902Y-137915000D01*
X142255098Y-137915000D01*
X141794321Y-138006654D01*
X141360279Y-138186440D01*
X140969651Y-138447450D01*
X140637450Y-138779651D01*
X140376440Y-139170279D01*
X140196654Y-139604321D01*
X140105000Y-140065098D01*
X119700000Y-140065098D01*
X119700000Y-138415123D01*
X119696933Y-138383981D01*
X119697026Y-138370641D01*
X119696059Y-138360775D01*
X119652198Y-137943467D01*
X119639262Y-137880448D01*
X119627200Y-137817219D01*
X119624335Y-137807729D01*
X119500254Y-137406888D01*
X119475318Y-137347568D01*
X119451210Y-137287900D01*
X119446556Y-137279147D01*
X119246981Y-136910042D01*
X119211018Y-136856725D01*
X119175761Y-136802846D01*
X119169495Y-136795164D01*
X119126000Y-136742588D01*
X119126000Y-136271000D01*
X119123560Y-136246224D01*
X119116333Y-136222399D01*
X119104597Y-136200443D01*
X119088803Y-136181197D01*
X119069557Y-136165403D01*
X119047601Y-136153667D01*
X119023776Y-136146440D01*
X118999000Y-136144000D01*
X118521436Y-136144000D01*
X118478533Y-136109009D01*
X118424973Y-136073424D01*
X118371837Y-136037041D01*
X118363116Y-136032326D01*
X117992625Y-135835333D01*
X117933136Y-135810813D01*
X117873984Y-135785461D01*
X117864514Y-135782529D01*
X117462817Y-135661249D01*
X117399698Y-135648751D01*
X117336747Y-135635371D01*
X117326890Y-135634335D01*
X117326888Y-135634335D01*
X116909283Y-135593388D01*
X116909277Y-135593388D01*
X116874877Y-135590000D01*
X111200000Y-135590000D01*
X111200000Y-132565098D01*
X115375000Y-132565098D01*
X115375000Y-133034902D01*
X115466654Y-133495679D01*
X115646440Y-133929721D01*
X115907450Y-134320349D01*
X116239651Y-134652550D01*
X116630279Y-134913560D01*
X117064321Y-135093346D01*
X117525098Y-135185000D01*
X117994902Y-135185000D01*
X118455679Y-135093346D01*
X118889721Y-134913560D01*
X119280349Y-134652550D01*
X119612550Y-134320349D01*
X119873560Y-133929721D01*
X120053346Y-133495679D01*
X120145000Y-133034902D01*
X120145000Y-132565098D01*
X120053346Y-132104321D01*
X119873560Y-131670279D01*
X119612550Y-131279651D01*
X119280349Y-130947450D01*
X118889721Y-130686440D01*
X118455679Y-130506654D01*
X117994902Y-130415000D01*
X117525098Y-130415000D01*
X117064321Y-130506654D01*
X116630279Y-130686440D01*
X116239651Y-130947450D01*
X115907450Y-131279651D01*
X115646440Y-131670279D01*
X115466654Y-132104321D01*
X115375000Y-132565098D01*
X111200000Y-132565098D01*
X111200000Y-124830408D01*
X116840000Y-124830408D01*
X116840000Y-125105592D01*
X116893686Y-125375490D01*
X116998995Y-125629727D01*
X117151880Y-125858535D01*
X117346465Y-126053120D01*
X117575273Y-126206005D01*
X117829510Y-126311314D01*
X118099408Y-126365000D01*
X118374592Y-126365000D01*
X118528571Y-126334372D01*
X122635201Y-130441003D01*
X122658999Y-130470001D01*
X122774724Y-130564974D01*
X122906753Y-130635546D01*
X123050014Y-130679003D01*
X123161667Y-130690000D01*
X123161675Y-130690000D01*
X123199000Y-130693676D01*
X123236325Y-130690000D01*
X133697659Y-130690000D01*
X133784880Y-130820535D01*
X133979465Y-131015120D01*
X134208273Y-131168005D01*
X134285515Y-131200000D01*
X134208273Y-131231995D01*
X133979465Y-131384880D01*
X133784880Y-131579465D01*
X133631995Y-131808273D01*
X133526686Y-132062510D01*
X133473000Y-132332408D01*
X133473000Y-132607592D01*
X133526686Y-132877490D01*
X133631995Y-133131727D01*
X133784880Y-133360535D01*
X133979465Y-133555120D01*
X134208273Y-133708005D01*
X134462510Y-133813314D01*
X134732408Y-133867000D01*
X135007592Y-133867000D01*
X135277490Y-133813314D01*
X135531727Y-133708005D01*
X135760535Y-133555120D01*
X135955120Y-133360535D01*
X136108005Y-133131727D01*
X136213314Y-132877490D01*
X136267000Y-132607592D01*
X136267000Y-132332408D01*
X136213314Y-132062510D01*
X136108005Y-131808273D01*
X135955120Y-131579465D01*
X135760535Y-131384880D01*
X135531727Y-131231995D01*
X135454485Y-131200000D01*
X135531727Y-131168005D01*
X135760535Y-131015120D01*
X135955120Y-130820535D01*
X136108005Y-130591727D01*
X136213314Y-130337490D01*
X136267000Y-130067592D01*
X136267000Y-129792408D01*
X136213314Y-129522510D01*
X136108005Y-129268273D01*
X135955120Y-129039465D01*
X135760535Y-128844880D01*
X135531727Y-128691995D01*
X135454485Y-128660000D01*
X135531727Y-128628005D01*
X135760535Y-128475120D01*
X135955120Y-128280535D01*
X136108005Y-128051727D01*
X136213314Y-127797490D01*
X136267000Y-127527592D01*
X136267000Y-127252408D01*
X136213314Y-126982510D01*
X136108005Y-126728273D01*
X135955120Y-126499465D01*
X135760535Y-126304880D01*
X135531727Y-126151995D01*
X135454485Y-126120000D01*
X135531727Y-126088005D01*
X135760535Y-125935120D01*
X135955120Y-125740535D01*
X136108005Y-125511727D01*
X136213314Y-125257490D01*
X136267000Y-124987592D01*
X136267000Y-124712408D01*
X136213314Y-124442510D01*
X136108005Y-124188273D01*
X135955120Y-123959465D01*
X135760535Y-123764880D01*
X135531727Y-123611995D01*
X135454485Y-123580000D01*
X135531727Y-123548005D01*
X135760535Y-123395120D01*
X135955120Y-123200535D01*
X136108005Y-122971727D01*
X136213314Y-122717490D01*
X136267000Y-122447592D01*
X136267000Y-122172408D01*
X136213314Y-121902510D01*
X136108005Y-121648273D01*
X135955120Y-121419465D01*
X135760535Y-121224880D01*
X135531727Y-121071995D01*
X135454485Y-121040000D01*
X135531727Y-121008005D01*
X135760535Y-120855120D01*
X135955120Y-120660535D01*
X136108005Y-120431727D01*
X136213314Y-120177490D01*
X136267000Y-119907592D01*
X136267000Y-119701802D01*
X136908001Y-120342803D01*
X136908000Y-126200677D01*
X136904324Y-126238000D01*
X136908000Y-126275322D01*
X136908000Y-126275332D01*
X136918997Y-126386985D01*
X136953117Y-126499465D01*
X136962454Y-126530246D01*
X137033026Y-126662276D01*
X137035514Y-126665307D01*
X137127999Y-126778001D01*
X137157003Y-126801804D01*
X138366201Y-128011003D01*
X138389999Y-128040001D01*
X138418997Y-128063799D01*
X138505724Y-128134974D01*
X138637753Y-128205546D01*
X138781014Y-128249003D01*
X138930000Y-128263677D01*
X138967333Y-128260000D01*
X139601928Y-128260000D01*
X139601928Y-128800000D01*
X139614188Y-128924482D01*
X139650498Y-129044180D01*
X139709463Y-129154494D01*
X139788815Y-129251185D01*
X139885506Y-129330537D01*
X139995820Y-129389502D01*
X140115518Y-129425812D01*
X140240000Y-129438072D01*
X141740000Y-129438072D01*
X141864482Y-129425812D01*
X141984180Y-129389502D01*
X142094494Y-129330537D01*
X142191185Y-129251185D01*
X142270537Y-129154494D01*
X142329502Y-129044180D01*
X142365812Y-128924482D01*
X142378072Y-128800000D01*
X142378072Y-126200000D01*
X142601928Y-126200000D01*
X142601928Y-128800000D01*
X142614188Y-128924482D01*
X142650498Y-129044180D01*
X142709463Y-129154494D01*
X142788815Y-129251185D01*
X142885506Y-129330537D01*
X142995820Y-129389502D01*
X143115518Y-129425812D01*
X143240000Y-129438072D01*
X144740000Y-129438072D01*
X144864482Y-129425812D01*
X144984180Y-129389502D01*
X145094494Y-129330537D01*
X145191185Y-129251185D01*
X145270537Y-129154494D01*
X145329502Y-129044180D01*
X145365812Y-128924482D01*
X145378072Y-128800000D01*
X145378072Y-126200000D01*
X145365812Y-126075518D01*
X145329502Y-125955820D01*
X145270537Y-125845506D01*
X145191185Y-125748815D01*
X145094494Y-125669463D01*
X144984180Y-125610498D01*
X144864482Y-125574188D01*
X144750000Y-125562913D01*
X144750000Y-123454527D01*
X144779850Y-123445472D01*
X144933386Y-123363405D01*
X145067962Y-123252962D01*
X145178405Y-123118386D01*
X145260472Y-122964850D01*
X145311008Y-122798254D01*
X145328072Y-122625000D01*
X145328072Y-121375000D01*
X145311008Y-121201746D01*
X145260472Y-121035150D01*
X145178405Y-120881614D01*
X145067962Y-120747038D01*
X144933386Y-120636595D01*
X144779850Y-120554528D01*
X144613254Y-120503992D01*
X144440000Y-120486928D01*
X143515000Y-120486928D01*
X143341746Y-120503992D01*
X143175150Y-120554528D01*
X143021614Y-120636595D01*
X142887038Y-120747038D01*
X142776595Y-120881614D01*
X142694528Y-121035150D01*
X142643992Y-121201746D01*
X142626928Y-121375000D01*
X142626928Y-122625000D01*
X142643992Y-122798254D01*
X142694528Y-122964850D01*
X142776595Y-123118386D01*
X142887038Y-123252962D01*
X143021614Y-123363405D01*
X143175150Y-123445472D01*
X143230001Y-123462111D01*
X143230000Y-125562913D01*
X143115518Y-125574188D01*
X142995820Y-125610498D01*
X142885506Y-125669463D01*
X142788815Y-125748815D01*
X142709463Y-125845506D01*
X142650498Y-125955820D01*
X142614188Y-126075518D01*
X142601928Y-126200000D01*
X142378072Y-126200000D01*
X142365812Y-126075518D01*
X142329502Y-125955820D01*
X142270537Y-125845506D01*
X142191185Y-125748815D01*
X142094494Y-125669463D01*
X141984180Y-125610498D01*
X141864482Y-125574188D01*
X141740000Y-125561928D01*
X140240000Y-125561928D01*
X140115518Y-125574188D01*
X139995820Y-125610498D01*
X139885506Y-125669463D01*
X139788815Y-125748815D01*
X139709463Y-125845506D01*
X139650498Y-125955820D01*
X139614188Y-126075518D01*
X139601928Y-126200000D01*
X139601928Y-126740000D01*
X139244802Y-126740000D01*
X138428000Y-125923199D01*
X138428000Y-122875000D01*
X139651928Y-122875000D01*
X139664188Y-122999482D01*
X139700498Y-123119180D01*
X139759463Y-123229494D01*
X139838815Y-123326185D01*
X139935506Y-123405537D01*
X140045820Y-123464502D01*
X140165518Y-123500812D01*
X140290000Y-123513072D01*
X140716750Y-123510000D01*
X140875500Y-123351250D01*
X140875500Y-122127000D01*
X141129500Y-122127000D01*
X141129500Y-123351250D01*
X141288250Y-123510000D01*
X141715000Y-123513072D01*
X141839482Y-123500812D01*
X141959180Y-123464502D01*
X142069494Y-123405537D01*
X142166185Y-123326185D01*
X142245537Y-123229494D01*
X142304502Y-123119180D01*
X142340812Y-122999482D01*
X142353072Y-122875000D01*
X142350000Y-122285750D01*
X142191250Y-122127000D01*
X141129500Y-122127000D01*
X140875500Y-122127000D01*
X139813750Y-122127000D01*
X139655000Y-122285750D01*
X139651928Y-122875000D01*
X138428000Y-122875000D01*
X138428000Y-121125000D01*
X139651928Y-121125000D01*
X139655000Y-121714250D01*
X139813750Y-121873000D01*
X140875500Y-121873000D01*
X140875500Y-120648750D01*
X141129500Y-120648750D01*
X141129500Y-121873000D01*
X142191250Y-121873000D01*
X142350000Y-121714250D01*
X142353072Y-121125000D01*
X142340812Y-121000518D01*
X142304502Y-120880820D01*
X142245537Y-120770506D01*
X142166185Y-120673815D01*
X142069494Y-120594463D01*
X141959180Y-120535498D01*
X141839482Y-120499188D01*
X141715000Y-120486928D01*
X141288250Y-120490000D01*
X141129500Y-120648750D01*
X140875500Y-120648750D01*
X140716750Y-120490000D01*
X140290000Y-120486928D01*
X140165518Y-120499188D01*
X140045820Y-120535498D01*
X139935506Y-120594463D01*
X139838815Y-120673815D01*
X139759463Y-120770506D01*
X139700498Y-120880820D01*
X139664188Y-121000518D01*
X139651928Y-121125000D01*
X138428000Y-121125000D01*
X138428000Y-120065333D01*
X138431677Y-120028000D01*
X138417003Y-119879014D01*
X138373546Y-119735753D01*
X138302974Y-119603724D01*
X138231799Y-119516997D01*
X138208001Y-119487999D01*
X138179003Y-119464201D01*
X136236372Y-117521571D01*
X136267000Y-117367592D01*
X136267000Y-117092408D01*
X136213314Y-116822510D01*
X136108005Y-116568273D01*
X135955120Y-116339465D01*
X135760535Y-116144880D01*
X135531727Y-115991995D01*
X135454485Y-115960000D01*
X135531727Y-115928005D01*
X135760535Y-115775120D01*
X135955120Y-115580535D01*
X136108005Y-115351727D01*
X136213314Y-115097490D01*
X136267000Y-114827592D01*
X136267000Y-114552408D01*
X136213314Y-114282510D01*
X136108005Y-114028273D01*
X135955120Y-113799465D01*
X135760535Y-113604880D01*
X135531727Y-113451995D01*
X135454485Y-113420000D01*
X135531727Y-113388005D01*
X135760535Y-113235120D01*
X135955120Y-113040535D01*
X136108005Y-112811727D01*
X136213314Y-112557490D01*
X136267000Y-112287592D01*
X136267000Y-112012408D01*
X136213314Y-111742510D01*
X136108005Y-111488273D01*
X135955120Y-111259465D01*
X135760535Y-111064880D01*
X135531727Y-110911995D01*
X135454485Y-110880000D01*
X135531727Y-110848005D01*
X135760535Y-110695120D01*
X135955120Y-110500535D01*
X136108005Y-110271727D01*
X136213314Y-110017490D01*
X136267000Y-109747592D01*
X136267000Y-109472408D01*
X136213314Y-109202510D01*
X136108005Y-108948273D01*
X135955120Y-108719465D01*
X135760535Y-108524880D01*
X135531727Y-108371995D01*
X135460057Y-108342308D01*
X135473023Y-108337636D01*
X135588980Y-108275656D01*
X135655960Y-108035565D01*
X134870000Y-107249605D01*
X134084040Y-108035565D01*
X134151020Y-108275656D01*
X134286760Y-108339485D01*
X134208273Y-108371995D01*
X133979465Y-108524880D01*
X133784880Y-108719465D01*
X133631995Y-108948273D01*
X133526686Y-109202510D01*
X133473000Y-109472408D01*
X133473000Y-109747592D01*
X133526686Y-110017490D01*
X133631995Y-110271727D01*
X133784880Y-110500535D01*
X133979465Y-110695120D01*
X134208273Y-110848005D01*
X134285515Y-110880000D01*
X134208273Y-110911995D01*
X133979465Y-111064880D01*
X133784880Y-111259465D01*
X133631995Y-111488273D01*
X133526686Y-111742510D01*
X133473000Y-112012408D01*
X133473000Y-112287592D01*
X133526686Y-112557490D01*
X133631995Y-112811727D01*
X133784880Y-113040535D01*
X133979465Y-113235120D01*
X134208273Y-113388005D01*
X134285515Y-113420000D01*
X134208273Y-113451995D01*
X133979465Y-113604880D01*
X133784880Y-113799465D01*
X133631995Y-114028273D01*
X133526686Y-114282510D01*
X133473000Y-114552408D01*
X133473000Y-114827592D01*
X133526686Y-115097490D01*
X133631995Y-115351727D01*
X133784880Y-115580535D01*
X133979465Y-115775120D01*
X134208273Y-115928005D01*
X134285515Y-115960000D01*
X134208273Y-115991995D01*
X133979465Y-116144880D01*
X133784880Y-116339465D01*
X133631995Y-116568273D01*
X133526686Y-116822510D01*
X133473000Y-117092408D01*
X133473000Y-117367592D01*
X133526686Y-117637490D01*
X133631995Y-117891727D01*
X133784880Y-118120535D01*
X133979465Y-118315120D01*
X134208273Y-118468005D01*
X134285515Y-118500000D01*
X134208273Y-118531995D01*
X133979465Y-118684880D01*
X133784880Y-118879465D01*
X133631995Y-119108273D01*
X133526686Y-119362510D01*
X133473000Y-119632408D01*
X133473000Y-119907592D01*
X133526686Y-120177490D01*
X133631995Y-120431727D01*
X133784880Y-120660535D01*
X133979465Y-120855120D01*
X134208273Y-121008005D01*
X134285515Y-121040000D01*
X134208273Y-121071995D01*
X133979465Y-121224880D01*
X133784880Y-121419465D01*
X133631995Y-121648273D01*
X133526686Y-121902510D01*
X133473000Y-122172408D01*
X133473000Y-122447592D01*
X133526686Y-122717490D01*
X133631995Y-122971727D01*
X133784880Y-123200535D01*
X133979465Y-123395120D01*
X134208273Y-123548005D01*
X134285515Y-123580000D01*
X134208273Y-123611995D01*
X133979465Y-123764880D01*
X133784880Y-123959465D01*
X133631995Y-124188273D01*
X133526686Y-124442510D01*
X133473000Y-124712408D01*
X133473000Y-124918198D01*
X131083000Y-122528199D01*
X131083000Y-122326061D01*
X131043226Y-122126102D01*
X130965205Y-121937744D01*
X130851937Y-121768226D01*
X130707774Y-121624063D01*
X130538256Y-121510795D01*
X130349898Y-121432774D01*
X130149939Y-121393000D01*
X129946061Y-121393000D01*
X129746102Y-121432774D01*
X129557744Y-121510795D01*
X129388226Y-121624063D01*
X129284000Y-121728289D01*
X129284000Y-107142017D01*
X133468090Y-107142017D01*
X133509078Y-107414133D01*
X133602364Y-107673023D01*
X133664344Y-107788980D01*
X133904435Y-107855960D01*
X134690395Y-107070000D01*
X135049605Y-107070000D01*
X135835565Y-107855960D01*
X136075656Y-107788980D01*
X136192756Y-107539952D01*
X136259023Y-107272865D01*
X136271910Y-106997983D01*
X136230922Y-106725867D01*
X136137636Y-106466977D01*
X136075656Y-106351020D01*
X135835565Y-106284040D01*
X135049605Y-107070000D01*
X134690395Y-107070000D01*
X133904435Y-106284040D01*
X133664344Y-106351020D01*
X133547244Y-106600048D01*
X133480977Y-106867135D01*
X133468090Y-107142017D01*
X129284000Y-107142017D01*
X129284000Y-104392408D01*
X133473000Y-104392408D01*
X133473000Y-104667592D01*
X133526686Y-104937490D01*
X133631995Y-105191727D01*
X133784880Y-105420535D01*
X133979465Y-105615120D01*
X134208273Y-105768005D01*
X134279943Y-105797692D01*
X134266977Y-105802364D01*
X134151020Y-105864344D01*
X134084040Y-106104435D01*
X134870000Y-106890395D01*
X135655960Y-106104435D01*
X135588980Y-105864344D01*
X135453240Y-105800515D01*
X135531727Y-105768005D01*
X135760535Y-105615120D01*
X135955120Y-105420535D01*
X136108005Y-105191727D01*
X136213314Y-104937490D01*
X136267000Y-104667592D01*
X136267000Y-104392408D01*
X136213314Y-104122510D01*
X136108005Y-103868273D01*
X135955120Y-103639465D01*
X135760535Y-103444880D01*
X135531727Y-103291995D01*
X135277490Y-103186686D01*
X135007592Y-103133000D01*
X134732408Y-103133000D01*
X134462510Y-103186686D01*
X134208273Y-103291995D01*
X133979465Y-103444880D01*
X133784880Y-103639465D01*
X133631995Y-103868273D01*
X133526686Y-104122510D01*
X133473000Y-104392408D01*
X129284000Y-104392408D01*
X129284000Y-97221322D01*
X129287676Y-97183999D01*
X129284000Y-97146676D01*
X129284000Y-97146667D01*
X129273003Y-97035014D01*
X129229546Y-96891753D01*
X129158974Y-96759723D01*
X129087799Y-96672997D01*
X129064001Y-96643999D01*
X129035003Y-96620201D01*
X127878072Y-95463271D01*
X127878072Y-94600000D01*
X127865812Y-94475518D01*
X127829502Y-94355820D01*
X127770537Y-94245506D01*
X127691185Y-94148815D01*
X127594494Y-94069463D01*
X127484180Y-94010498D01*
X127364482Y-93974188D01*
X127240000Y-93961928D01*
X125690000Y-93961928D01*
X125565518Y-93974188D01*
X125445820Y-94010498D01*
X125335506Y-94069463D01*
X125238815Y-94148815D01*
X125159463Y-94245506D01*
X125100498Y-94355820D01*
X125064188Y-94475518D01*
X125062762Y-94490000D01*
X119917238Y-94490000D01*
X119915812Y-94475518D01*
X119879502Y-94355820D01*
X119820537Y-94245506D01*
X119741185Y-94148815D01*
X119644494Y-94069463D01*
X119534180Y-94010498D01*
X119414482Y-93974188D01*
X119290000Y-93961928D01*
X117740000Y-93961928D01*
X117615518Y-93974188D01*
X117495820Y-94010498D01*
X117385506Y-94069463D01*
X117288815Y-94148815D01*
X117209463Y-94245506D01*
X117150498Y-94355820D01*
X117114188Y-94475518D01*
X117101928Y-94600000D01*
X117101928Y-95900000D01*
X117114188Y-96024482D01*
X117150498Y-96144180D01*
X117209463Y-96254494D01*
X117288815Y-96351185D01*
X117385506Y-96430537D01*
X117495820Y-96489502D01*
X117615518Y-96525812D01*
X117740000Y-96538072D01*
X119290000Y-96538072D01*
X119414482Y-96525812D01*
X119534180Y-96489502D01*
X119644494Y-96430537D01*
X119741185Y-96351185D01*
X119820537Y-96254494D01*
X119879502Y-96144180D01*
X119915812Y-96024482D01*
X119917238Y-96010000D01*
X125062762Y-96010000D01*
X125064188Y-96024482D01*
X125100498Y-96144180D01*
X125159463Y-96254494D01*
X125238815Y-96351185D01*
X125335506Y-96430537D01*
X125445820Y-96489502D01*
X125565518Y-96525812D01*
X125690000Y-96538072D01*
X126803271Y-96538072D01*
X127764001Y-97498803D01*
X127764000Y-127566289D01*
X127720063Y-127610226D01*
X127606795Y-127779744D01*
X127528774Y-127968102D01*
X127489000Y-128168061D01*
X127489000Y-128371939D01*
X127528774Y-128571898D01*
X127606795Y-128760256D01*
X127720063Y-128929774D01*
X127864226Y-129073937D01*
X128007995Y-129170000D01*
X123513802Y-129170000D01*
X120708801Y-126365000D01*
X120914592Y-126365000D01*
X121184490Y-126311314D01*
X121438727Y-126206005D01*
X121667535Y-126053120D01*
X121862120Y-125858535D01*
X122015005Y-125629727D01*
X122047000Y-125552485D01*
X122078995Y-125629727D01*
X122231880Y-125858535D01*
X122426465Y-126053120D01*
X122655273Y-126206005D01*
X122909510Y-126311314D01*
X123179408Y-126365000D01*
X123454592Y-126365000D01*
X123724490Y-126311314D01*
X123978727Y-126206005D01*
X124207535Y-126053120D01*
X124402120Y-125858535D01*
X124555005Y-125629727D01*
X124587000Y-125552485D01*
X124618995Y-125629727D01*
X124771880Y-125858535D01*
X124966465Y-126053120D01*
X125195273Y-126206005D01*
X125449510Y-126311314D01*
X125719408Y-126365000D01*
X125994592Y-126365000D01*
X126264490Y-126311314D01*
X126518727Y-126206005D01*
X126747535Y-126053120D01*
X126942120Y-125858535D01*
X127095005Y-125629727D01*
X127200314Y-125375490D01*
X127254000Y-125105592D01*
X127254000Y-124830408D01*
X127200314Y-124560510D01*
X127095005Y-124306273D01*
X126942120Y-124077465D01*
X126747535Y-123882880D01*
X126518727Y-123729995D01*
X126441485Y-123698000D01*
X126518727Y-123666005D01*
X126747535Y-123513120D01*
X126942120Y-123318535D01*
X127095005Y-123089727D01*
X127200314Y-122835490D01*
X127254000Y-122565592D01*
X127254000Y-122290408D01*
X127200314Y-122020510D01*
X127095005Y-121766273D01*
X126942120Y-121537465D01*
X126747535Y-121342880D01*
X126518727Y-121189995D01*
X126264490Y-121084686D01*
X125994592Y-121031000D01*
X125719408Y-121031000D01*
X125449510Y-121084686D01*
X125195273Y-121189995D01*
X124966465Y-121342880D01*
X124771880Y-121537465D01*
X124618995Y-121766273D01*
X124587000Y-121843515D01*
X124555005Y-121766273D01*
X124402120Y-121537465D01*
X124207535Y-121342880D01*
X123978727Y-121189995D01*
X123724490Y-121084686D01*
X123454592Y-121031000D01*
X123179408Y-121031000D01*
X122909510Y-121084686D01*
X122655273Y-121189995D01*
X122426465Y-121342880D01*
X122231880Y-121537465D01*
X122078995Y-121766273D01*
X122047000Y-121843515D01*
X122015005Y-121766273D01*
X121862120Y-121537465D01*
X121667535Y-121342880D01*
X121438727Y-121189995D01*
X121184490Y-121084686D01*
X120914592Y-121031000D01*
X120639408Y-121031000D01*
X120369510Y-121084686D01*
X120115273Y-121189995D01*
X119886465Y-121342880D01*
X119691880Y-121537465D01*
X119538995Y-121766273D01*
X119509308Y-121837943D01*
X119504636Y-121824977D01*
X119442656Y-121709020D01*
X119202565Y-121642040D01*
X118416605Y-122428000D01*
X119202565Y-123213960D01*
X119442656Y-123146980D01*
X119506485Y-123011240D01*
X119538995Y-123089727D01*
X119691880Y-123318535D01*
X119886465Y-123513120D01*
X120115273Y-123666005D01*
X120192515Y-123698000D01*
X120115273Y-123729995D01*
X119886465Y-123882880D01*
X119691880Y-124077465D01*
X119538995Y-124306273D01*
X119507000Y-124383515D01*
X119475005Y-124306273D01*
X119322120Y-124077465D01*
X119127535Y-123882880D01*
X118898727Y-123729995D01*
X118827057Y-123700308D01*
X118840023Y-123695636D01*
X118955980Y-123633656D01*
X119022960Y-123393565D01*
X118237000Y-122607605D01*
X117451040Y-123393565D01*
X117518020Y-123633656D01*
X117653760Y-123697485D01*
X117575273Y-123729995D01*
X117346465Y-123882880D01*
X117151880Y-124077465D01*
X116998995Y-124306273D01*
X116893686Y-124560510D01*
X116840000Y-124830408D01*
X111200000Y-124830408D01*
X111200000Y-122500017D01*
X116835090Y-122500017D01*
X116876078Y-122772133D01*
X116969364Y-123031023D01*
X117031344Y-123146980D01*
X117271435Y-123213960D01*
X118057395Y-122428000D01*
X117271435Y-121642040D01*
X117031344Y-121709020D01*
X116914244Y-121958048D01*
X116847977Y-122225135D01*
X116835090Y-122500017D01*
X111200000Y-122500017D01*
X111200000Y-121462435D01*
X117451040Y-121462435D01*
X118237000Y-122248395D01*
X119022960Y-121462435D01*
X118955980Y-121222344D01*
X118706952Y-121105244D01*
X118439865Y-121038977D01*
X118164983Y-121026090D01*
X117892867Y-121067078D01*
X117633977Y-121160364D01*
X117518020Y-121222344D01*
X117451040Y-121462435D01*
X111200000Y-121462435D01*
X111200000Y-91400000D01*
X117101928Y-91400000D01*
X117114188Y-91524482D01*
X117150498Y-91644180D01*
X117209463Y-91754494D01*
X117288815Y-91851185D01*
X117385506Y-91930537D01*
X117495820Y-91989502D01*
X117615518Y-92025812D01*
X117740000Y-92038072D01*
X118229250Y-92035000D01*
X118388000Y-91876250D01*
X118388000Y-90877000D01*
X118642000Y-90877000D01*
X118642000Y-91876250D01*
X118800750Y-92035000D01*
X119290000Y-92038072D01*
X119414482Y-92025812D01*
X119534180Y-91989502D01*
X119644494Y-91930537D01*
X119741185Y-91851185D01*
X119820537Y-91754494D01*
X119879502Y-91644180D01*
X119915812Y-91524482D01*
X119928072Y-91400000D01*
X125051928Y-91400000D01*
X125064188Y-91524482D01*
X125100498Y-91644180D01*
X125159463Y-91754494D01*
X125238815Y-91851185D01*
X125335506Y-91930537D01*
X125445820Y-91989502D01*
X125565518Y-92025812D01*
X125690000Y-92038072D01*
X126179250Y-92035000D01*
X126338000Y-91876250D01*
X126338000Y-90877000D01*
X126592000Y-90877000D01*
X126592000Y-91876250D01*
X126750750Y-92035000D01*
X127240000Y-92038072D01*
X127364482Y-92025812D01*
X127484180Y-91989502D01*
X127594494Y-91930537D01*
X127691185Y-91851185D01*
X127770537Y-91754494D01*
X127829502Y-91644180D01*
X127865812Y-91524482D01*
X127878072Y-91400000D01*
X127875000Y-91035750D01*
X127716250Y-90877000D01*
X126592000Y-90877000D01*
X126338000Y-90877000D01*
X125213750Y-90877000D01*
X125055000Y-91035750D01*
X125051928Y-91400000D01*
X119928072Y-91400000D01*
X119925000Y-91035750D01*
X119766250Y-90877000D01*
X118642000Y-90877000D01*
X118388000Y-90877000D01*
X117263750Y-90877000D01*
X117105000Y-91035750D01*
X117101928Y-91400000D01*
X111200000Y-91400000D01*
X111200000Y-90100000D01*
X117101928Y-90100000D01*
X117105000Y-90464250D01*
X117263750Y-90623000D01*
X118388000Y-90623000D01*
X118388000Y-89623750D01*
X118642000Y-89623750D01*
X118642000Y-90623000D01*
X119766250Y-90623000D01*
X119925000Y-90464250D01*
X119928072Y-90100000D01*
X125051928Y-90100000D01*
X125055000Y-90464250D01*
X125213750Y-90623000D01*
X126338000Y-90623000D01*
X126338000Y-89623750D01*
X126592000Y-89623750D01*
X126592000Y-90623000D01*
X127716250Y-90623000D01*
X127875000Y-90464250D01*
X127878072Y-90100000D01*
X127865812Y-89975518D01*
X127829502Y-89855820D01*
X127770537Y-89745506D01*
X127691185Y-89648815D01*
X127594494Y-89569463D01*
X127484180Y-89510498D01*
X127364482Y-89474188D01*
X127240000Y-89461928D01*
X126750750Y-89465000D01*
X126592000Y-89623750D01*
X126338000Y-89623750D01*
X126179250Y-89465000D01*
X125690000Y-89461928D01*
X125565518Y-89474188D01*
X125445820Y-89510498D01*
X125335506Y-89569463D01*
X125238815Y-89648815D01*
X125159463Y-89745506D01*
X125100498Y-89855820D01*
X125064188Y-89975518D01*
X125051928Y-90100000D01*
X119928072Y-90100000D01*
X119915812Y-89975518D01*
X119879502Y-89855820D01*
X119820537Y-89745506D01*
X119741185Y-89648815D01*
X119644494Y-89569463D01*
X119534180Y-89510498D01*
X119414482Y-89474188D01*
X119290000Y-89461928D01*
X118800750Y-89465000D01*
X118642000Y-89623750D01*
X118388000Y-89623750D01*
X118229250Y-89465000D01*
X117740000Y-89461928D01*
X117615518Y-89474188D01*
X117495820Y-89510498D01*
X117385506Y-89569463D01*
X117288815Y-89648815D01*
X117209463Y-89745506D01*
X117150498Y-89855820D01*
X117114188Y-89975518D01*
X117101928Y-90100000D01*
X111200000Y-90100000D01*
X111200000Y-83665098D01*
X128455000Y-83665098D01*
X128455000Y-84134902D01*
X128546654Y-84595679D01*
X128726440Y-85029721D01*
X128987450Y-85420349D01*
X129319651Y-85752550D01*
X129710279Y-86013560D01*
X130144321Y-86193346D01*
X130605098Y-86285000D01*
X131074902Y-86285000D01*
X131535679Y-86193346D01*
X131969721Y-86013560D01*
X132360349Y-85752550D01*
X132692550Y-85420349D01*
X132953560Y-85029721D01*
X133133346Y-84595679D01*
X133225000Y-84134902D01*
X133225000Y-83665098D01*
X133133346Y-83204321D01*
X132953560Y-82770279D01*
X132692550Y-82379651D01*
X132360349Y-82047450D01*
X131969721Y-81786440D01*
X131535679Y-81606654D01*
X131074902Y-81515000D01*
X130605098Y-81515000D01*
X130144321Y-81606654D01*
X129710279Y-81786440D01*
X129319651Y-82047450D01*
X128987450Y-82379651D01*
X128726440Y-82770279D01*
X128546654Y-83204321D01*
X128455000Y-83665098D01*
X111200000Y-83665098D01*
X111200000Y-76767264D01*
X135355000Y-76767264D01*
X135355000Y-78172736D01*
X135629194Y-79551203D01*
X136167045Y-80849690D01*
X136947884Y-82018297D01*
X137941703Y-83012116D01*
X139110310Y-83792955D01*
X140408797Y-84330806D01*
X141787264Y-84605000D01*
X143192736Y-84605000D01*
X144571203Y-84330806D01*
X145869690Y-83792955D01*
X147038297Y-83012116D01*
X148032116Y-82018297D01*
X148812955Y-80849690D01*
X149350806Y-79551203D01*
X149625000Y-78172736D01*
X149625000Y-76767264D01*
X149350806Y-75388797D01*
X148812955Y-74090310D01*
X148032116Y-72921703D01*
X147038297Y-71927884D01*
X145869690Y-71147045D01*
X144571203Y-70609194D01*
X143192736Y-70335000D01*
X141787264Y-70335000D01*
X140408797Y-70609194D01*
X139110310Y-71147045D01*
X137941703Y-71927884D01*
X136947884Y-72921703D01*
X136167045Y-74090310D01*
X135629194Y-75388797D01*
X135355000Y-76767264D01*
X111200000Y-76767264D01*
X111200000Y-62565098D01*
X115725000Y-62565098D01*
X115725000Y-63034902D01*
X115816654Y-63495679D01*
X115996440Y-63929721D01*
X116257450Y-64320349D01*
X116589651Y-64652550D01*
X116980279Y-64913560D01*
X117414321Y-65093346D01*
X117875098Y-65185000D01*
X118344902Y-65185000D01*
X118805679Y-65093346D01*
X119239721Y-64913560D01*
X119630349Y-64652550D01*
X119962550Y-64320349D01*
X120223560Y-63929721D01*
X120403346Y-63495679D01*
X120495000Y-63034902D01*
X120495000Y-62565098D01*
X120403346Y-62104321D01*
X120223560Y-61670279D01*
X119962550Y-61279651D01*
X119630349Y-60947450D01*
X119239721Y-60686440D01*
X118805679Y-60506654D01*
X118344902Y-60415000D01*
X117875098Y-60415000D01*
X117414321Y-60506654D01*
X116980279Y-60686440D01*
X116589651Y-60947450D01*
X116257450Y-61279651D01*
X115996440Y-61670279D01*
X115816654Y-62104321D01*
X115725000Y-62565098D01*
X111200000Y-62565098D01*
X111200000Y-60010000D01*
X116874877Y-60010000D01*
X116906019Y-60006933D01*
X116919360Y-60007026D01*
X116929225Y-60006059D01*
X117346534Y-59962197D01*
X117409528Y-59949266D01*
X117472781Y-59937200D01*
X117482271Y-59934335D01*
X117705939Y-59865098D01*
X128455000Y-59865098D01*
X128455000Y-60334902D01*
X128546654Y-60795679D01*
X128726440Y-61229721D01*
X128987450Y-61620349D01*
X129319651Y-61952550D01*
X129710279Y-62213560D01*
X130144321Y-62393346D01*
X130605098Y-62485000D01*
X131074902Y-62485000D01*
X131535679Y-62393346D01*
X131969721Y-62213560D01*
X132360349Y-61952550D01*
X132692550Y-61620349D01*
X132953560Y-61229721D01*
X133133346Y-60795679D01*
X133179118Y-60565565D01*
X137894040Y-60565565D01*
X137961020Y-60805656D01*
X138210048Y-60922756D01*
X138477135Y-60989023D01*
X138752017Y-61001910D01*
X139024133Y-60960922D01*
X139283023Y-60867636D01*
X139398980Y-60805656D01*
X139465960Y-60565565D01*
X138680000Y-59779605D01*
X137894040Y-60565565D01*
X133179118Y-60565565D01*
X133225000Y-60334902D01*
X133225000Y-59865098D01*
X133186594Y-59672017D01*
X137278090Y-59672017D01*
X137319078Y-59944133D01*
X137412364Y-60203023D01*
X137474344Y-60318980D01*
X137714435Y-60385960D01*
X138500395Y-59600000D01*
X138859605Y-59600000D01*
X139645565Y-60385960D01*
X139885656Y-60318980D01*
X139949485Y-60183240D01*
X139981995Y-60261727D01*
X140134880Y-60490535D01*
X140329465Y-60685120D01*
X140558273Y-60838005D01*
X140812510Y-60943314D01*
X141082408Y-60997000D01*
X141357592Y-60997000D01*
X141627490Y-60943314D01*
X141881727Y-60838005D01*
X142110535Y-60685120D01*
X142305120Y-60490535D01*
X142458005Y-60261727D01*
X142490000Y-60184485D01*
X142521995Y-60261727D01*
X142674880Y-60490535D01*
X142869465Y-60685120D01*
X143098273Y-60838005D01*
X143352510Y-60943314D01*
X143622408Y-60997000D01*
X143897592Y-60997000D01*
X144051571Y-60966372D01*
X155455001Y-72369803D01*
X155455001Y-81910241D01*
X155269721Y-81786440D01*
X154835679Y-81606654D01*
X154374902Y-81515000D01*
X153905098Y-81515000D01*
X153444321Y-81606654D01*
X153010279Y-81786440D01*
X152619651Y-82047450D01*
X152287450Y-82379651D01*
X152026440Y-82770279D01*
X151846654Y-83204321D01*
X151755000Y-83665098D01*
X151755000Y-84134902D01*
X151846654Y-84595679D01*
X152026440Y-85029721D01*
X152287450Y-85420349D01*
X152619651Y-85752550D01*
X153010279Y-86013560D01*
X153444321Y-86193346D01*
X153905098Y-86285000D01*
X154374902Y-86285000D01*
X154835679Y-86193346D01*
X155269721Y-86013560D01*
X155455001Y-85889759D01*
X155455002Y-119330668D01*
X155451325Y-119368001D01*
X155465999Y-119516986D01*
X155509455Y-119660247D01*
X155580027Y-119792277D01*
X155651202Y-119879003D01*
X155675001Y-119908002D01*
X155703999Y-119931800D01*
X159200943Y-123428745D01*
X159058983Y-123422090D01*
X158786867Y-123463078D01*
X158527977Y-123556364D01*
X158412020Y-123618344D01*
X158345040Y-123858435D01*
X159131000Y-124644395D01*
X159145143Y-124630253D01*
X159324748Y-124809858D01*
X159310605Y-124824000D01*
X160096565Y-125609960D01*
X160336656Y-125542980D01*
X160400485Y-125407240D01*
X160432995Y-125485727D01*
X160585880Y-125714535D01*
X160684587Y-125813242D01*
X154787829Y-131710000D01*
X151282341Y-131710000D01*
X151195120Y-131579465D01*
X151000535Y-131384880D01*
X150771727Y-131231995D01*
X150694485Y-131200000D01*
X150771727Y-131168005D01*
X151000535Y-131015120D01*
X151195120Y-130820535D01*
X151348005Y-130591727D01*
X151453314Y-130337490D01*
X151507000Y-130067592D01*
X151507000Y-129792408D01*
X151453314Y-129522510D01*
X151348005Y-129268273D01*
X151195120Y-129039465D01*
X151000535Y-128844880D01*
X150771727Y-128691995D01*
X150694485Y-128660000D01*
X150771727Y-128628005D01*
X151000535Y-128475120D01*
X151195120Y-128280535D01*
X151348005Y-128051727D01*
X151453314Y-127797490D01*
X151507000Y-127527592D01*
X151507000Y-127252408D01*
X151453314Y-126982510D01*
X151348005Y-126728273D01*
X151195120Y-126499465D01*
X151000535Y-126304880D01*
X150771727Y-126151995D01*
X150694485Y-126120000D01*
X150771727Y-126088005D01*
X151000535Y-125935120D01*
X151146090Y-125789565D01*
X158345040Y-125789565D01*
X158412020Y-126029656D01*
X158661048Y-126146756D01*
X158928135Y-126213023D01*
X159203017Y-126225910D01*
X159475133Y-126184922D01*
X159734023Y-126091636D01*
X159849980Y-126029656D01*
X159916960Y-125789565D01*
X159131000Y-125003605D01*
X158345040Y-125789565D01*
X151146090Y-125789565D01*
X151195120Y-125740535D01*
X151348005Y-125511727D01*
X151453314Y-125257490D01*
X151507000Y-124987592D01*
X151507000Y-124896017D01*
X157729090Y-124896017D01*
X157770078Y-125168133D01*
X157863364Y-125427023D01*
X157925344Y-125542980D01*
X158165435Y-125609960D01*
X158951395Y-124824000D01*
X158165435Y-124038040D01*
X157925344Y-124105020D01*
X157808244Y-124354048D01*
X157741977Y-124621135D01*
X157729090Y-124896017D01*
X151507000Y-124896017D01*
X151507000Y-124712408D01*
X151453314Y-124442510D01*
X151348005Y-124188273D01*
X151195120Y-123959465D01*
X151000535Y-123764880D01*
X150771727Y-123611995D01*
X150694485Y-123580000D01*
X150771727Y-123548005D01*
X151000535Y-123395120D01*
X151195120Y-123200535D01*
X151348005Y-122971727D01*
X151453314Y-122717490D01*
X151507000Y-122447592D01*
X151507000Y-122172408D01*
X151453314Y-121902510D01*
X151348005Y-121648273D01*
X151195120Y-121419465D01*
X151000535Y-121224880D01*
X150771727Y-121071995D01*
X150694485Y-121040000D01*
X150771727Y-121008005D01*
X151000535Y-120855120D01*
X151195120Y-120660535D01*
X151348005Y-120431727D01*
X151453314Y-120177490D01*
X151507000Y-119907592D01*
X151507000Y-119632408D01*
X151453314Y-119362510D01*
X151348005Y-119108273D01*
X151195120Y-118879465D01*
X151000535Y-118684880D01*
X150771727Y-118531995D01*
X150694485Y-118500000D01*
X150771727Y-118468005D01*
X151000535Y-118315120D01*
X151195120Y-118120535D01*
X151348005Y-117891727D01*
X151453314Y-117637490D01*
X151507000Y-117367592D01*
X151507000Y-117092408D01*
X151453314Y-116822510D01*
X151348005Y-116568273D01*
X151195120Y-116339465D01*
X151000535Y-116144880D01*
X150771727Y-115991995D01*
X150694485Y-115960000D01*
X150771727Y-115928005D01*
X151000535Y-115775120D01*
X151195120Y-115580535D01*
X151348005Y-115351727D01*
X151453314Y-115097490D01*
X151507000Y-114827592D01*
X151507000Y-114552408D01*
X151453314Y-114282510D01*
X151348005Y-114028273D01*
X151195120Y-113799465D01*
X151000535Y-113604880D01*
X150771727Y-113451995D01*
X150694485Y-113420000D01*
X150771727Y-113388005D01*
X151000535Y-113235120D01*
X151195120Y-113040535D01*
X151348005Y-112811727D01*
X151453314Y-112557490D01*
X151507000Y-112287592D01*
X151507000Y-112012408D01*
X151453314Y-111742510D01*
X151348005Y-111488273D01*
X151195120Y-111259465D01*
X151000535Y-111064880D01*
X150771727Y-110911995D01*
X150694485Y-110880000D01*
X150771727Y-110848005D01*
X151000535Y-110695120D01*
X151195120Y-110500535D01*
X151348005Y-110271727D01*
X151453314Y-110017490D01*
X151507000Y-109747592D01*
X151507000Y-109472408D01*
X151453314Y-109202510D01*
X151348005Y-108948273D01*
X151195120Y-108719465D01*
X151000535Y-108524880D01*
X150771727Y-108371995D01*
X150694485Y-108340000D01*
X150771727Y-108308005D01*
X151000535Y-108155120D01*
X151195120Y-107960535D01*
X151348005Y-107731727D01*
X151453314Y-107477490D01*
X151507000Y-107207592D01*
X151507000Y-106932408D01*
X151453314Y-106662510D01*
X151348005Y-106408273D01*
X151195120Y-106179465D01*
X151000535Y-105984880D01*
X150771727Y-105831995D01*
X150694485Y-105800000D01*
X150771727Y-105768005D01*
X151000535Y-105615120D01*
X151195120Y-105420535D01*
X151348005Y-105191727D01*
X151453314Y-104937490D01*
X151507000Y-104667592D01*
X151507000Y-104392408D01*
X151453314Y-104122510D01*
X151348005Y-103868273D01*
X151195120Y-103639465D01*
X151000535Y-103444880D01*
X150771727Y-103291995D01*
X150517490Y-103186686D01*
X150247592Y-103133000D01*
X149972408Y-103133000D01*
X149702510Y-103186686D01*
X149448273Y-103291995D01*
X149219465Y-103444880D01*
X149024880Y-103639465D01*
X148871995Y-103868273D01*
X148766686Y-104122510D01*
X148713000Y-104392408D01*
X148713000Y-104667592D01*
X148766686Y-104937490D01*
X148871995Y-105191727D01*
X149024880Y-105420535D01*
X149219465Y-105615120D01*
X149448273Y-105768005D01*
X149525515Y-105800000D01*
X149448273Y-105831995D01*
X149219465Y-105984880D01*
X149024880Y-106179465D01*
X148871995Y-106408273D01*
X148766686Y-106662510D01*
X148713000Y-106932408D01*
X148713000Y-107207592D01*
X148766686Y-107477490D01*
X148871995Y-107731727D01*
X149024880Y-107960535D01*
X149219465Y-108155120D01*
X149448273Y-108308005D01*
X149525515Y-108340000D01*
X149448273Y-108371995D01*
X149219465Y-108524880D01*
X149024880Y-108719465D01*
X148871995Y-108948273D01*
X148766686Y-109202510D01*
X148713000Y-109472408D01*
X148713000Y-109747592D01*
X148766686Y-110017490D01*
X148871995Y-110271727D01*
X149024880Y-110500535D01*
X149219465Y-110695120D01*
X149448273Y-110848005D01*
X149525515Y-110880000D01*
X149448273Y-110911995D01*
X149219465Y-111064880D01*
X149024880Y-111259465D01*
X148871995Y-111488273D01*
X148766686Y-111742510D01*
X148713000Y-112012408D01*
X148713000Y-112287592D01*
X148766686Y-112557490D01*
X148871995Y-112811727D01*
X149024880Y-113040535D01*
X149219465Y-113235120D01*
X149448273Y-113388005D01*
X149525515Y-113420000D01*
X149448273Y-113451995D01*
X149219465Y-113604880D01*
X149024880Y-113799465D01*
X148871995Y-114028273D01*
X148766686Y-114282510D01*
X148713000Y-114552408D01*
X148713000Y-114827592D01*
X148766686Y-115097490D01*
X148871995Y-115351727D01*
X149024880Y-115580535D01*
X149219465Y-115775120D01*
X149448273Y-115928005D01*
X149525515Y-115960000D01*
X149448273Y-115991995D01*
X149219465Y-116144880D01*
X149024880Y-116339465D01*
X148871995Y-116568273D01*
X148766686Y-116822510D01*
X148713000Y-117092408D01*
X148713000Y-117367592D01*
X148766686Y-117637490D01*
X148871995Y-117891727D01*
X149024880Y-118120535D01*
X149219465Y-118315120D01*
X149448273Y-118468005D01*
X149525515Y-118500000D01*
X149448273Y-118531995D01*
X149219465Y-118684880D01*
X149024880Y-118879465D01*
X148871995Y-119108273D01*
X148766686Y-119362510D01*
X148713000Y-119632408D01*
X148713000Y-119907592D01*
X148766686Y-120177490D01*
X148871995Y-120431727D01*
X149024880Y-120660535D01*
X149219465Y-120855120D01*
X149448273Y-121008005D01*
X149525515Y-121040000D01*
X149448273Y-121071995D01*
X149219465Y-121224880D01*
X149024880Y-121419465D01*
X148871995Y-121648273D01*
X148766686Y-121902510D01*
X148713000Y-122172408D01*
X148713000Y-122447592D01*
X148766686Y-122717490D01*
X148871995Y-122971727D01*
X149024880Y-123200535D01*
X149219465Y-123395120D01*
X149448273Y-123548005D01*
X149525515Y-123580000D01*
X149448273Y-123611995D01*
X149219465Y-123764880D01*
X149024880Y-123959465D01*
X148871995Y-124188273D01*
X148766686Y-124442510D01*
X148713000Y-124712408D01*
X148713000Y-124987592D01*
X148766686Y-125257490D01*
X148871995Y-125511727D01*
X149024880Y-125740535D01*
X149219465Y-125935120D01*
X149448273Y-126088005D01*
X149525515Y-126120000D01*
X149448273Y-126151995D01*
X149219465Y-126304880D01*
X149024880Y-126499465D01*
X148871995Y-126728273D01*
X148766686Y-126982510D01*
X148713000Y-127252408D01*
X148713000Y-127527592D01*
X148766686Y-127797490D01*
X148871995Y-128051727D01*
X149024880Y-128280535D01*
X149219465Y-128475120D01*
X149448273Y-128628005D01*
X149525515Y-128660000D01*
X149448273Y-128691995D01*
X149219465Y-128844880D01*
X149024880Y-129039465D01*
X148933617Y-129176049D01*
X148883384Y-129180997D01*
X148740123Y-129224454D01*
X148608093Y-129295026D01*
X148524453Y-129363668D01*
X148492369Y-129389999D01*
X148468571Y-129418997D01*
X147825002Y-130062567D01*
X147795999Y-130086369D01*
X147740871Y-130153544D01*
X147701026Y-130202094D01*
X147690254Y-130222247D01*
X147630454Y-130334124D01*
X147586997Y-130477385D01*
X147576000Y-130589038D01*
X147576000Y-130589048D01*
X147572324Y-130626370D01*
X147576000Y-130663693D01*
X147576001Y-133566668D01*
X147572324Y-133604000D01*
X147586998Y-133752985D01*
X147630454Y-133896246D01*
X147701026Y-134028276D01*
X147769737Y-134112000D01*
X147796000Y-134144001D01*
X147824998Y-134167799D01*
X148280200Y-134623002D01*
X148303999Y-134652001D01*
X148419724Y-134746974D01*
X148551753Y-134817546D01*
X148695014Y-134861003D01*
X148806667Y-134872000D01*
X148806676Y-134872000D01*
X148843999Y-134875676D01*
X148881322Y-134872000D01*
X154885678Y-134872000D01*
X154923000Y-134875676D01*
X154960322Y-134872000D01*
X154960333Y-134872000D01*
X155071986Y-134861003D01*
X155215247Y-134817546D01*
X155347276Y-134746974D01*
X155463001Y-134652001D01*
X155486804Y-134622997D01*
X157544703Y-132565098D01*
X164835000Y-132565098D01*
X164835000Y-133034902D01*
X164926654Y-133495679D01*
X165106440Y-133929721D01*
X165367450Y-134320349D01*
X165699651Y-134652550D01*
X166090279Y-134913560D01*
X166524321Y-135093346D01*
X166985098Y-135185000D01*
X167454902Y-135185000D01*
X167915679Y-135093346D01*
X168349721Y-134913560D01*
X168740349Y-134652550D01*
X169072550Y-134320349D01*
X169333560Y-133929721D01*
X169513346Y-133495679D01*
X169605000Y-133034902D01*
X169605000Y-132565098D01*
X169513346Y-132104321D01*
X169333560Y-131670279D01*
X169072550Y-131279651D01*
X168740349Y-130947450D01*
X168349721Y-130686440D01*
X167915679Y-130506654D01*
X167454902Y-130415000D01*
X166985098Y-130415000D01*
X166524321Y-130506654D01*
X166090279Y-130686440D01*
X165699651Y-130947450D01*
X165367450Y-131279651D01*
X165106440Y-131670279D01*
X164926654Y-132104321D01*
X164835000Y-132565098D01*
X157544703Y-132565098D01*
X163919430Y-126190372D01*
X164073408Y-126221000D01*
X164348592Y-126221000D01*
X164618490Y-126167314D01*
X164872727Y-126062005D01*
X165101535Y-125909120D01*
X165296120Y-125714535D01*
X165449005Y-125485727D01*
X165481000Y-125408485D01*
X165512995Y-125485727D01*
X165665880Y-125714535D01*
X165860465Y-125909120D01*
X166089273Y-126062005D01*
X166343510Y-126167314D01*
X166613408Y-126221000D01*
X166888592Y-126221000D01*
X167158490Y-126167314D01*
X167412727Y-126062005D01*
X167641535Y-125909120D01*
X167836120Y-125714535D01*
X167989005Y-125485727D01*
X168094314Y-125231490D01*
X168148000Y-124961592D01*
X168148000Y-124686408D01*
X168094314Y-124416510D01*
X167989005Y-124162273D01*
X167836120Y-123933465D01*
X167641535Y-123738880D01*
X167412727Y-123585995D01*
X167158490Y-123480686D01*
X166888592Y-123427000D01*
X166613408Y-123427000D01*
X166343510Y-123480686D01*
X166089273Y-123585995D01*
X165860465Y-123738880D01*
X165665880Y-123933465D01*
X165512995Y-124162273D01*
X165481000Y-124239515D01*
X165449005Y-124162273D01*
X165296120Y-123933465D01*
X165101535Y-123738880D01*
X164872727Y-123585995D01*
X164618490Y-123480686D01*
X164348592Y-123427000D01*
X164073408Y-123427000D01*
X163919431Y-123457628D01*
X158043804Y-117582003D01*
X158020001Y-117552999D01*
X157904276Y-117458026D01*
X157901163Y-117456362D01*
X157732000Y-117287199D01*
X157732000Y-108940981D01*
X157747654Y-109019679D01*
X157927440Y-109453721D01*
X158188450Y-109844349D01*
X158520651Y-110176550D01*
X158911279Y-110437560D01*
X159345321Y-110617346D01*
X159806098Y-110709000D01*
X160275902Y-110709000D01*
X160736679Y-110617346D01*
X161170721Y-110437560D01*
X161561349Y-110176550D01*
X161893550Y-109844349D01*
X162154560Y-109453721D01*
X162334346Y-109019679D01*
X162426000Y-108558902D01*
X162426000Y-108089098D01*
X163456000Y-108089098D01*
X163456000Y-108558902D01*
X163547654Y-109019679D01*
X163727440Y-109453721D01*
X163988450Y-109844349D01*
X164320651Y-110176550D01*
X164711279Y-110437560D01*
X165145321Y-110617346D01*
X165606098Y-110709000D01*
X166075902Y-110709000D01*
X166536679Y-110617346D01*
X166970721Y-110437560D01*
X167361349Y-110176550D01*
X167693550Y-109844349D01*
X167954560Y-109453721D01*
X168134346Y-109019679D01*
X168226000Y-108558902D01*
X168226000Y-108089098D01*
X168134346Y-107628321D01*
X167954560Y-107194279D01*
X167693550Y-106803651D01*
X167361349Y-106471450D01*
X166970721Y-106210440D01*
X166536679Y-106030654D01*
X166075902Y-105939000D01*
X165606098Y-105939000D01*
X165145321Y-106030654D01*
X164711279Y-106210440D01*
X164320651Y-106471450D01*
X163988450Y-106803651D01*
X163727440Y-107194279D01*
X163547654Y-107628321D01*
X163456000Y-108089098D01*
X162426000Y-108089098D01*
X162334346Y-107628321D01*
X162154560Y-107194279D01*
X161893550Y-106803651D01*
X161561349Y-106471450D01*
X161170721Y-106210440D01*
X160736679Y-106030654D01*
X160275902Y-105939000D01*
X159806098Y-105939000D01*
X159345321Y-106030654D01*
X158911279Y-106210440D01*
X158520651Y-106471450D01*
X158188450Y-106803651D01*
X157927440Y-107194279D01*
X157747654Y-107628321D01*
X157732000Y-107707019D01*
X157732000Y-96537284D01*
X157740000Y-96538072D01*
X159290000Y-96538072D01*
X159414482Y-96525812D01*
X159534180Y-96489502D01*
X159644494Y-96430537D01*
X159741185Y-96351185D01*
X159820537Y-96254494D01*
X159879502Y-96144180D01*
X159915812Y-96024482D01*
X159917238Y-96010000D01*
X160530001Y-96010000D01*
X160530000Y-98722405D01*
X160460986Y-98759294D01*
X160234866Y-98944866D01*
X160049294Y-99170986D01*
X159911401Y-99428966D01*
X159826487Y-99708889D01*
X159797815Y-100000000D01*
X159826487Y-100291111D01*
X159911401Y-100571034D01*
X160049294Y-100829014D01*
X160234866Y-101055134D01*
X160460986Y-101240706D01*
X160718966Y-101378599D01*
X160998889Y-101463513D01*
X161217050Y-101485000D01*
X161362950Y-101485000D01*
X161581111Y-101463513D01*
X161861034Y-101378599D01*
X162119014Y-101240706D01*
X162345134Y-101055134D01*
X162369607Y-101025313D01*
X162390498Y-101094180D01*
X162449463Y-101204494D01*
X162528815Y-101301185D01*
X162625506Y-101380537D01*
X162735820Y-101439502D01*
X162855518Y-101475812D01*
X162980000Y-101488072D01*
X163544250Y-101485000D01*
X163703000Y-101326250D01*
X163703000Y-100127000D01*
X163957000Y-100127000D01*
X163957000Y-101326250D01*
X164115750Y-101485000D01*
X164680000Y-101488072D01*
X164804482Y-101475812D01*
X164924180Y-101439502D01*
X165034494Y-101380537D01*
X165131185Y-101301185D01*
X165210537Y-101204494D01*
X165269502Y-101094180D01*
X165305812Y-100974482D01*
X165318072Y-100850000D01*
X165315000Y-100285750D01*
X165156250Y-100127000D01*
X163957000Y-100127000D01*
X163703000Y-100127000D01*
X163683000Y-100127000D01*
X163683000Y-99873000D01*
X163703000Y-99873000D01*
X163703000Y-98673750D01*
X163957000Y-98673750D01*
X163957000Y-99873000D01*
X165156250Y-99873000D01*
X165315000Y-99714250D01*
X165318072Y-99150000D01*
X165305812Y-99025518D01*
X165269502Y-98905820D01*
X165210537Y-98795506D01*
X165131185Y-98698815D01*
X165034494Y-98619463D01*
X164924180Y-98560498D01*
X164804482Y-98524188D01*
X164680000Y-98511928D01*
X164115750Y-98515000D01*
X163957000Y-98673750D01*
X163703000Y-98673750D01*
X163544250Y-98515000D01*
X162980000Y-98511928D01*
X162855518Y-98524188D01*
X162735820Y-98560498D01*
X162625506Y-98619463D01*
X162528815Y-98698815D01*
X162449463Y-98795506D01*
X162390498Y-98905820D01*
X162369607Y-98974687D01*
X162345134Y-98944866D01*
X162119014Y-98759294D01*
X162050000Y-98722405D01*
X162050000Y-96010000D01*
X165062762Y-96010000D01*
X165064188Y-96024482D01*
X165100498Y-96144180D01*
X165159463Y-96254494D01*
X165238815Y-96351185D01*
X165335506Y-96430537D01*
X165445820Y-96489502D01*
X165565518Y-96525812D01*
X165690000Y-96538072D01*
X167240000Y-96538072D01*
X167364482Y-96525812D01*
X167484180Y-96489502D01*
X167594494Y-96430537D01*
X167691185Y-96351185D01*
X167770537Y-96254494D01*
X167829502Y-96144180D01*
X167865812Y-96024482D01*
X167878072Y-95900000D01*
X167878072Y-94600000D01*
X167865812Y-94475518D01*
X167829502Y-94355820D01*
X167770537Y-94245506D01*
X167691185Y-94148815D01*
X167594494Y-94069463D01*
X167484180Y-94010498D01*
X167364482Y-93974188D01*
X167240000Y-93961928D01*
X165690000Y-93961928D01*
X165565518Y-93974188D01*
X165445820Y-94010498D01*
X165335506Y-94069463D01*
X165238815Y-94148815D01*
X165159463Y-94245506D01*
X165100498Y-94355820D01*
X165064188Y-94475518D01*
X165062762Y-94490000D01*
X161073322Y-94490000D01*
X161036000Y-94486324D01*
X160998678Y-94490000D01*
X159917238Y-94490000D01*
X159915812Y-94475518D01*
X159879502Y-94355820D01*
X159820537Y-94245506D01*
X159741185Y-94148815D01*
X159644494Y-94069463D01*
X159534180Y-94010498D01*
X159414482Y-93974188D01*
X159290000Y-93961928D01*
X157740000Y-93961928D01*
X157732000Y-93962716D01*
X157732000Y-92037284D01*
X157740000Y-92038072D01*
X158229250Y-92035000D01*
X158388000Y-91876250D01*
X158388000Y-90877000D01*
X158642000Y-90877000D01*
X158642000Y-91876250D01*
X158800750Y-92035000D01*
X159290000Y-92038072D01*
X159414482Y-92025812D01*
X159534180Y-91989502D01*
X159644494Y-91930537D01*
X159741185Y-91851185D01*
X159820537Y-91754494D01*
X159879502Y-91644180D01*
X159915812Y-91524482D01*
X159928072Y-91400000D01*
X165051928Y-91400000D01*
X165064188Y-91524482D01*
X165100498Y-91644180D01*
X165159463Y-91754494D01*
X165238815Y-91851185D01*
X165335506Y-91930537D01*
X165445820Y-91989502D01*
X165565518Y-92025812D01*
X165690000Y-92038072D01*
X166179250Y-92035000D01*
X166338000Y-91876250D01*
X166338000Y-90877000D01*
X166592000Y-90877000D01*
X166592000Y-91876250D01*
X166750750Y-92035000D01*
X167240000Y-92038072D01*
X167364482Y-92025812D01*
X167484180Y-91989502D01*
X167594494Y-91930537D01*
X167691185Y-91851185D01*
X167770537Y-91754494D01*
X167829502Y-91644180D01*
X167865812Y-91524482D01*
X167878072Y-91400000D01*
X167875000Y-91035750D01*
X167716250Y-90877000D01*
X166592000Y-90877000D01*
X166338000Y-90877000D01*
X165213750Y-90877000D01*
X165055000Y-91035750D01*
X165051928Y-91400000D01*
X159928072Y-91400000D01*
X159925000Y-91035750D01*
X159766250Y-90877000D01*
X158642000Y-90877000D01*
X158388000Y-90877000D01*
X158368000Y-90877000D01*
X158368000Y-90623000D01*
X158388000Y-90623000D01*
X158388000Y-89623750D01*
X158642000Y-89623750D01*
X158642000Y-90623000D01*
X159766250Y-90623000D01*
X159925000Y-90464250D01*
X159928072Y-90100000D01*
X165051928Y-90100000D01*
X165055000Y-90464250D01*
X165213750Y-90623000D01*
X166338000Y-90623000D01*
X166338000Y-89623750D01*
X166592000Y-89623750D01*
X166592000Y-90623000D01*
X167716250Y-90623000D01*
X167875000Y-90464250D01*
X167878072Y-90100000D01*
X167865812Y-89975518D01*
X167829502Y-89855820D01*
X167770537Y-89745506D01*
X167691185Y-89648815D01*
X167594494Y-89569463D01*
X167484180Y-89510498D01*
X167364482Y-89474188D01*
X167240000Y-89461928D01*
X166750750Y-89465000D01*
X166592000Y-89623750D01*
X166338000Y-89623750D01*
X166179250Y-89465000D01*
X165690000Y-89461928D01*
X165565518Y-89474188D01*
X165445820Y-89510498D01*
X165335506Y-89569463D01*
X165238815Y-89648815D01*
X165159463Y-89745506D01*
X165100498Y-89855820D01*
X165064188Y-89975518D01*
X165051928Y-90100000D01*
X159928072Y-90100000D01*
X159915812Y-89975518D01*
X159879502Y-89855820D01*
X159820537Y-89745506D01*
X159741185Y-89648815D01*
X159644494Y-89569463D01*
X159534180Y-89510498D01*
X159414482Y-89474188D01*
X159290000Y-89461928D01*
X158800750Y-89465000D01*
X158642000Y-89623750D01*
X158388000Y-89623750D01*
X158229250Y-89465000D01*
X157740000Y-89461928D01*
X157732000Y-89462716D01*
X157732000Y-70309322D01*
X157735676Y-70271999D01*
X157732000Y-70234676D01*
X157732000Y-70234667D01*
X157721003Y-70123014D01*
X157677546Y-69979753D01*
X157606974Y-69847723D01*
X157535799Y-69760997D01*
X157512001Y-69731999D01*
X157483003Y-69708201D01*
X150339900Y-62565098D01*
X164835000Y-62565098D01*
X164835000Y-63034902D01*
X164926654Y-63495679D01*
X165106440Y-63929721D01*
X165367450Y-64320349D01*
X165699651Y-64652550D01*
X166090279Y-64913560D01*
X166524321Y-65093346D01*
X166985098Y-65185000D01*
X167454902Y-65185000D01*
X167915679Y-65093346D01*
X168349721Y-64913560D01*
X168740349Y-64652550D01*
X169072550Y-64320349D01*
X169333560Y-63929721D01*
X169513346Y-63495679D01*
X169605000Y-63034902D01*
X169605000Y-62565098D01*
X169513346Y-62104321D01*
X169333560Y-61670279D01*
X169072550Y-61279651D01*
X168740349Y-60947450D01*
X168349721Y-60686440D01*
X167915679Y-60506654D01*
X167454902Y-60415000D01*
X166985098Y-60415000D01*
X166524321Y-60506654D01*
X166090279Y-60686440D01*
X165699651Y-60947450D01*
X165367450Y-61279651D01*
X165106440Y-61670279D01*
X164926654Y-62104321D01*
X164835000Y-62565098D01*
X150339900Y-62565098D01*
X147666372Y-59891571D01*
X147671637Y-59865098D01*
X151755000Y-59865098D01*
X151755000Y-60334902D01*
X151846654Y-60795679D01*
X152026440Y-61229721D01*
X152287450Y-61620349D01*
X152619651Y-61952550D01*
X153010279Y-62213560D01*
X153444321Y-62393346D01*
X153905098Y-62485000D01*
X154374902Y-62485000D01*
X154835679Y-62393346D01*
X155269721Y-62213560D01*
X155660349Y-61952550D01*
X155992550Y-61620349D01*
X156253560Y-61229721D01*
X156433346Y-60795679D01*
X156525000Y-60334902D01*
X156525000Y-59865098D01*
X156433346Y-59404321D01*
X156253560Y-58970279D01*
X155992550Y-58579651D01*
X155660349Y-58247450D01*
X155269721Y-57986440D01*
X154835679Y-57806654D01*
X154374902Y-57715000D01*
X153905098Y-57715000D01*
X153444321Y-57806654D01*
X153010279Y-57986440D01*
X152619651Y-58247450D01*
X152287450Y-58579651D01*
X152026440Y-58970279D01*
X151846654Y-59404321D01*
X151755000Y-59865098D01*
X147671637Y-59865098D01*
X147697000Y-59737592D01*
X147697000Y-59462408D01*
X147643314Y-59192510D01*
X147538005Y-58938273D01*
X147385120Y-58709465D01*
X147190535Y-58514880D01*
X146961727Y-58361995D01*
X146707490Y-58256686D01*
X146437592Y-58203000D01*
X146162408Y-58203000D01*
X145892510Y-58256686D01*
X145638273Y-58361995D01*
X145409465Y-58514880D01*
X145214880Y-58709465D01*
X145061995Y-58938273D01*
X145030000Y-59015515D01*
X144998005Y-58938273D01*
X144845120Y-58709465D01*
X144650535Y-58514880D01*
X144421727Y-58361995D01*
X144167490Y-58256686D01*
X143897592Y-58203000D01*
X143622408Y-58203000D01*
X143352510Y-58256686D01*
X143098273Y-58361995D01*
X142869465Y-58514880D01*
X142674880Y-58709465D01*
X142521995Y-58938273D01*
X142490000Y-59015515D01*
X142458005Y-58938273D01*
X142305120Y-58709465D01*
X142110535Y-58514880D01*
X141881727Y-58361995D01*
X141627490Y-58256686D01*
X141357592Y-58203000D01*
X141082408Y-58203000D01*
X140812510Y-58256686D01*
X140558273Y-58361995D01*
X140329465Y-58514880D01*
X140134880Y-58709465D01*
X139981995Y-58938273D01*
X139952308Y-59009943D01*
X139947636Y-58996977D01*
X139885656Y-58881020D01*
X139645565Y-58814040D01*
X138859605Y-59600000D01*
X138500395Y-59600000D01*
X137714435Y-58814040D01*
X137474344Y-58881020D01*
X137357244Y-59130048D01*
X137290977Y-59397135D01*
X137278090Y-59672017D01*
X133186594Y-59672017D01*
X133133346Y-59404321D01*
X132953560Y-58970279D01*
X132729156Y-58634435D01*
X137894040Y-58634435D01*
X138680000Y-59420395D01*
X139465960Y-58634435D01*
X139398980Y-58394344D01*
X139149952Y-58277244D01*
X138882865Y-58210977D01*
X138607983Y-58198090D01*
X138335867Y-58239078D01*
X138076977Y-58332364D01*
X137961020Y-58394344D01*
X137894040Y-58634435D01*
X132729156Y-58634435D01*
X132692550Y-58579651D01*
X132360349Y-58247450D01*
X131969721Y-57986440D01*
X131535679Y-57806654D01*
X131074902Y-57715000D01*
X130605098Y-57715000D01*
X130144321Y-57806654D01*
X129710279Y-57986440D01*
X129319651Y-58247450D01*
X128987450Y-58579651D01*
X128726440Y-58970279D01*
X128546654Y-59404321D01*
X128455000Y-59865098D01*
X117705939Y-59865098D01*
X117883111Y-59810254D01*
X117942402Y-59785330D01*
X118002100Y-59761211D01*
X118010847Y-59756559D01*
X118010851Y-59756557D01*
X118010854Y-59756555D01*
X118379958Y-59556982D01*
X118433302Y-59521001D01*
X118487154Y-59485761D01*
X118494836Y-59479495D01*
X118547412Y-59436000D01*
X118999000Y-59436000D01*
X119023776Y-59433560D01*
X119047601Y-59426333D01*
X119069557Y-59414597D01*
X119088803Y-59398803D01*
X119104597Y-59379557D01*
X119116333Y-59357601D01*
X119123560Y-59333776D01*
X119126000Y-59309000D01*
X119126000Y-58855959D01*
X119180991Y-58788533D01*
X119216599Y-58734939D01*
X119252959Y-58681836D01*
X119257674Y-58673116D01*
X119454667Y-58302625D01*
X119479182Y-58243148D01*
X119504539Y-58183984D01*
X119507471Y-58174514D01*
X119628751Y-57772818D01*
X119641245Y-57709720D01*
X119654630Y-57646746D01*
X119655666Y-57636887D01*
X119696612Y-57219283D01*
X119696612Y-57219277D01*
X119700000Y-57184877D01*
X119700000Y-55065098D01*
X140105000Y-55065098D01*
X140105000Y-55534902D01*
X140196654Y-55995679D01*
X140376440Y-56429721D01*
X140637450Y-56820349D01*
X140969651Y-57152550D01*
X141360279Y-57413560D01*
X141794321Y-57593346D01*
X142255098Y-57685000D01*
X142724902Y-57685000D01*
X143185679Y-57593346D01*
X143619721Y-57413560D01*
X144010349Y-57152550D01*
X144342550Y-56820349D01*
X144603560Y-56429721D01*
X144783346Y-55995679D01*
X144875000Y-55534902D01*
X144875000Y-55065098D01*
X144783346Y-54604321D01*
X144603560Y-54170279D01*
X144342550Y-53779651D01*
X144010349Y-53447450D01*
X143619721Y-53186440D01*
X143185679Y-53006654D01*
X142724902Y-52915000D01*
X142255098Y-52915000D01*
X141794321Y-53006654D01*
X141360279Y-53186440D01*
X140969651Y-53447450D01*
X140637450Y-53779651D01*
X140376440Y-54170279D01*
X140196654Y-54604321D01*
X140105000Y-55065098D01*
X119700000Y-55065098D01*
X119700000Y-51510000D01*
X165280001Y-51510000D01*
X165280000Y-57184876D01*
X165280000Y-57184876D01*
G37*
X165280000Y-57184876D02*
X165283067Y-57216018D01*
X165282974Y-57229360D01*
X165283941Y-57239225D01*
X165327803Y-57656534D01*
X165340734Y-57719528D01*
X165352800Y-57782781D01*
X165355665Y-57792271D01*
X165479746Y-58193111D01*
X165504670Y-58252402D01*
X165528789Y-58312100D01*
X165533444Y-58320852D01*
X165733018Y-58689958D01*
X165768999Y-58743302D01*
X165804239Y-58797154D01*
X165810505Y-58804836D01*
X165862000Y-58867083D01*
X165862000Y-59309000D01*
X165864440Y-59333776D01*
X165871667Y-59357601D01*
X165883403Y-59379557D01*
X165899197Y-59398803D01*
X165918443Y-59414597D01*
X165940399Y-59426333D01*
X165964224Y-59433560D01*
X165989000Y-59436000D01*
X166434041Y-59436000D01*
X166501467Y-59490991D01*
X166555061Y-59526599D01*
X166608164Y-59562959D01*
X166616884Y-59567674D01*
X166987375Y-59764667D01*
X167046852Y-59789182D01*
X167106016Y-59814539D01*
X167115486Y-59817471D01*
X167517182Y-59938751D01*
X167580280Y-59951245D01*
X167643254Y-59964630D01*
X167653113Y-59965666D01*
X168070717Y-60006612D01*
X168070723Y-60006612D01*
X168105123Y-60010000D01*
X173780001Y-60010000D01*
X173780000Y-135590000D01*
X168105123Y-135590000D01*
X168073981Y-135593067D01*
X168060641Y-135592974D01*
X168050775Y-135593941D01*
X167633467Y-135637802D01*
X167570448Y-135650738D01*
X167507219Y-135662800D01*
X167497729Y-135665665D01*
X167096888Y-135789746D01*
X167037568Y-135814682D01*
X166977900Y-135838790D01*
X166969147Y-135843444D01*
X166600042Y-136043019D01*
X166546725Y-136078982D01*
X166492846Y-136114239D01*
X166485164Y-136120505D01*
X166456763Y-136144000D01*
X165989000Y-136144000D01*
X165964224Y-136146440D01*
X165940399Y-136153667D01*
X165918443Y-136165403D01*
X165899197Y-136181197D01*
X165883403Y-136200443D01*
X165871667Y-136222399D01*
X165864440Y-136246224D01*
X165862000Y-136271000D01*
X165862000Y-136734232D01*
X165799009Y-136811467D01*
X165763424Y-136865027D01*
X165727041Y-136918163D01*
X165722326Y-136926884D01*
X165525333Y-137297375D01*
X165500813Y-137356864D01*
X165475461Y-137416016D01*
X165472529Y-137425486D01*
X165351249Y-137827183D01*
X165338751Y-137890302D01*
X165325371Y-137953253D01*
X165324335Y-137963112D01*
X165283388Y-138380717D01*
X165283388Y-138380724D01*
X165280000Y-138415124D01*
X165280001Y-144090000D01*
X119700000Y-144090000D01*
X119700000Y-140065098D01*
X140105000Y-140065098D01*
X140105000Y-140534902D01*
X140196654Y-140995679D01*
X140376440Y-141429721D01*
X140637450Y-141820349D01*
X140969651Y-142152550D01*
X141360279Y-142413560D01*
X141794321Y-142593346D01*
X142255098Y-142685000D01*
X142724902Y-142685000D01*
X143185679Y-142593346D01*
X143619721Y-142413560D01*
X144010349Y-142152550D01*
X144342550Y-141820349D01*
X144603560Y-141429721D01*
X144783346Y-140995679D01*
X144875000Y-140534902D01*
X144875000Y-140065098D01*
X144783346Y-139604321D01*
X144603560Y-139170279D01*
X144342550Y-138779651D01*
X144010349Y-138447450D01*
X143619721Y-138186440D01*
X143185679Y-138006654D01*
X142724902Y-137915000D01*
X142255098Y-137915000D01*
X141794321Y-138006654D01*
X141360279Y-138186440D01*
X140969651Y-138447450D01*
X140637450Y-138779651D01*
X140376440Y-139170279D01*
X140196654Y-139604321D01*
X140105000Y-140065098D01*
X119700000Y-140065098D01*
X119700000Y-138415123D01*
X119696933Y-138383981D01*
X119697026Y-138370641D01*
X119696059Y-138360775D01*
X119652198Y-137943467D01*
X119639262Y-137880448D01*
X119627200Y-137817219D01*
X119624335Y-137807729D01*
X119500254Y-137406888D01*
X119475318Y-137347568D01*
X119451210Y-137287900D01*
X119446556Y-137279147D01*
X119246981Y-136910042D01*
X119211018Y-136856725D01*
X119175761Y-136802846D01*
X119169495Y-136795164D01*
X119126000Y-136742588D01*
X119126000Y-136271000D01*
X119123560Y-136246224D01*
X119116333Y-136222399D01*
X119104597Y-136200443D01*
X119088803Y-136181197D01*
X119069557Y-136165403D01*
X119047601Y-136153667D01*
X119023776Y-136146440D01*
X118999000Y-136144000D01*
X118521436Y-136144000D01*
X118478533Y-136109009D01*
X118424973Y-136073424D01*
X118371837Y-136037041D01*
X118363116Y-136032326D01*
X117992625Y-135835333D01*
X117933136Y-135810813D01*
X117873984Y-135785461D01*
X117864514Y-135782529D01*
X117462817Y-135661249D01*
X117399698Y-135648751D01*
X117336747Y-135635371D01*
X117326890Y-135634335D01*
X117326888Y-135634335D01*
X116909283Y-135593388D01*
X116909277Y-135593388D01*
X116874877Y-135590000D01*
X111200000Y-135590000D01*
X111200000Y-132565098D01*
X115375000Y-132565098D01*
X115375000Y-133034902D01*
X115466654Y-133495679D01*
X115646440Y-133929721D01*
X115907450Y-134320349D01*
X116239651Y-134652550D01*
X116630279Y-134913560D01*
X117064321Y-135093346D01*
X117525098Y-135185000D01*
X117994902Y-135185000D01*
X118455679Y-135093346D01*
X118889721Y-134913560D01*
X119280349Y-134652550D01*
X119612550Y-134320349D01*
X119873560Y-133929721D01*
X120053346Y-133495679D01*
X120145000Y-133034902D01*
X120145000Y-132565098D01*
X120053346Y-132104321D01*
X119873560Y-131670279D01*
X119612550Y-131279651D01*
X119280349Y-130947450D01*
X118889721Y-130686440D01*
X118455679Y-130506654D01*
X117994902Y-130415000D01*
X117525098Y-130415000D01*
X117064321Y-130506654D01*
X116630279Y-130686440D01*
X116239651Y-130947450D01*
X115907450Y-131279651D01*
X115646440Y-131670279D01*
X115466654Y-132104321D01*
X115375000Y-132565098D01*
X111200000Y-132565098D01*
X111200000Y-124830408D01*
X116840000Y-124830408D01*
X116840000Y-125105592D01*
X116893686Y-125375490D01*
X116998995Y-125629727D01*
X117151880Y-125858535D01*
X117346465Y-126053120D01*
X117575273Y-126206005D01*
X117829510Y-126311314D01*
X118099408Y-126365000D01*
X118374592Y-126365000D01*
X118528571Y-126334372D01*
X122635201Y-130441003D01*
X122658999Y-130470001D01*
X122774724Y-130564974D01*
X122906753Y-130635546D01*
X123050014Y-130679003D01*
X123161667Y-130690000D01*
X123161675Y-130690000D01*
X123199000Y-130693676D01*
X123236325Y-130690000D01*
X133697659Y-130690000D01*
X133784880Y-130820535D01*
X133979465Y-131015120D01*
X134208273Y-131168005D01*
X134285515Y-131200000D01*
X134208273Y-131231995D01*
X133979465Y-131384880D01*
X133784880Y-131579465D01*
X133631995Y-131808273D01*
X133526686Y-132062510D01*
X133473000Y-132332408D01*
X133473000Y-132607592D01*
X133526686Y-132877490D01*
X133631995Y-133131727D01*
X133784880Y-133360535D01*
X133979465Y-133555120D01*
X134208273Y-133708005D01*
X134462510Y-133813314D01*
X134732408Y-133867000D01*
X135007592Y-133867000D01*
X135277490Y-133813314D01*
X135531727Y-133708005D01*
X135760535Y-133555120D01*
X135955120Y-133360535D01*
X136108005Y-133131727D01*
X136213314Y-132877490D01*
X136267000Y-132607592D01*
X136267000Y-132332408D01*
X136213314Y-132062510D01*
X136108005Y-131808273D01*
X135955120Y-131579465D01*
X135760535Y-131384880D01*
X135531727Y-131231995D01*
X135454485Y-131200000D01*
X135531727Y-131168005D01*
X135760535Y-131015120D01*
X135955120Y-130820535D01*
X136108005Y-130591727D01*
X136213314Y-130337490D01*
X136267000Y-130067592D01*
X136267000Y-129792408D01*
X136213314Y-129522510D01*
X136108005Y-129268273D01*
X135955120Y-129039465D01*
X135760535Y-128844880D01*
X135531727Y-128691995D01*
X135454485Y-128660000D01*
X135531727Y-128628005D01*
X135760535Y-128475120D01*
X135955120Y-128280535D01*
X136108005Y-128051727D01*
X136213314Y-127797490D01*
X136267000Y-127527592D01*
X136267000Y-127252408D01*
X136213314Y-126982510D01*
X136108005Y-126728273D01*
X135955120Y-126499465D01*
X135760535Y-126304880D01*
X135531727Y-126151995D01*
X135454485Y-126120000D01*
X135531727Y-126088005D01*
X135760535Y-125935120D01*
X135955120Y-125740535D01*
X136108005Y-125511727D01*
X136213314Y-125257490D01*
X136267000Y-124987592D01*
X136267000Y-124712408D01*
X136213314Y-124442510D01*
X136108005Y-124188273D01*
X135955120Y-123959465D01*
X135760535Y-123764880D01*
X135531727Y-123611995D01*
X135454485Y-123580000D01*
X135531727Y-123548005D01*
X135760535Y-123395120D01*
X135955120Y-123200535D01*
X136108005Y-122971727D01*
X136213314Y-122717490D01*
X136267000Y-122447592D01*
X136267000Y-122172408D01*
X136213314Y-121902510D01*
X136108005Y-121648273D01*
X135955120Y-121419465D01*
X135760535Y-121224880D01*
X135531727Y-121071995D01*
X135454485Y-121040000D01*
X135531727Y-121008005D01*
X135760535Y-120855120D01*
X135955120Y-120660535D01*
X136108005Y-120431727D01*
X136213314Y-120177490D01*
X136267000Y-119907592D01*
X136267000Y-119701802D01*
X136908001Y-120342803D01*
X136908000Y-126200677D01*
X136904324Y-126238000D01*
X136908000Y-126275322D01*
X136908000Y-126275332D01*
X136918997Y-126386985D01*
X136953117Y-126499465D01*
X136962454Y-126530246D01*
X137033026Y-126662276D01*
X137035514Y-126665307D01*
X137127999Y-126778001D01*
X137157003Y-126801804D01*
X138366201Y-128011003D01*
X138389999Y-128040001D01*
X138418997Y-128063799D01*
X138505724Y-128134974D01*
X138637753Y-128205546D01*
X138781014Y-128249003D01*
X138930000Y-128263677D01*
X138967333Y-128260000D01*
X139601928Y-128260000D01*
X139601928Y-128800000D01*
X139614188Y-128924482D01*
X139650498Y-129044180D01*
X139709463Y-129154494D01*
X139788815Y-129251185D01*
X139885506Y-129330537D01*
X139995820Y-129389502D01*
X140115518Y-129425812D01*
X140240000Y-129438072D01*
X141740000Y-129438072D01*
X141864482Y-129425812D01*
X141984180Y-129389502D01*
X142094494Y-129330537D01*
X142191185Y-129251185D01*
X142270537Y-129154494D01*
X142329502Y-129044180D01*
X142365812Y-128924482D01*
X142378072Y-128800000D01*
X142378072Y-126200000D01*
X142601928Y-126200000D01*
X142601928Y-128800000D01*
X142614188Y-128924482D01*
X142650498Y-129044180D01*
X142709463Y-129154494D01*
X142788815Y-129251185D01*
X142885506Y-129330537D01*
X142995820Y-129389502D01*
X143115518Y-129425812D01*
X143240000Y-129438072D01*
X144740000Y-129438072D01*
X144864482Y-129425812D01*
X144984180Y-129389502D01*
X145094494Y-129330537D01*
X145191185Y-129251185D01*
X145270537Y-129154494D01*
X145329502Y-129044180D01*
X145365812Y-128924482D01*
X145378072Y-128800000D01*
X145378072Y-126200000D01*
X145365812Y-126075518D01*
X145329502Y-125955820D01*
X145270537Y-125845506D01*
X145191185Y-125748815D01*
X145094494Y-125669463D01*
X144984180Y-125610498D01*
X144864482Y-125574188D01*
X144750000Y-125562913D01*
X144750000Y-123454527D01*
X144779850Y-123445472D01*
X144933386Y-123363405D01*
X145067962Y-123252962D01*
X145178405Y-123118386D01*
X145260472Y-122964850D01*
X145311008Y-122798254D01*
X145328072Y-122625000D01*
X145328072Y-121375000D01*
X145311008Y-121201746D01*
X145260472Y-121035150D01*
X145178405Y-120881614D01*
X145067962Y-120747038D01*
X144933386Y-120636595D01*
X144779850Y-120554528D01*
X144613254Y-120503992D01*
X144440000Y-120486928D01*
X143515000Y-120486928D01*
X143341746Y-120503992D01*
X143175150Y-120554528D01*
X143021614Y-120636595D01*
X142887038Y-120747038D01*
X142776595Y-120881614D01*
X142694528Y-121035150D01*
X142643992Y-121201746D01*
X142626928Y-121375000D01*
X142626928Y-122625000D01*
X142643992Y-122798254D01*
X142694528Y-122964850D01*
X142776595Y-123118386D01*
X142887038Y-123252962D01*
X143021614Y-123363405D01*
X143175150Y-123445472D01*
X143230001Y-123462111D01*
X143230000Y-125562913D01*
X143115518Y-125574188D01*
X142995820Y-125610498D01*
X142885506Y-125669463D01*
X142788815Y-125748815D01*
X142709463Y-125845506D01*
X142650498Y-125955820D01*
X142614188Y-126075518D01*
X142601928Y-126200000D01*
X142378072Y-126200000D01*
X142365812Y-126075518D01*
X142329502Y-125955820D01*
X142270537Y-125845506D01*
X142191185Y-125748815D01*
X142094494Y-125669463D01*
X141984180Y-125610498D01*
X141864482Y-125574188D01*
X141740000Y-125561928D01*
X140240000Y-125561928D01*
X140115518Y-125574188D01*
X139995820Y-125610498D01*
X139885506Y-125669463D01*
X139788815Y-125748815D01*
X139709463Y-125845506D01*
X139650498Y-125955820D01*
X139614188Y-126075518D01*
X139601928Y-126200000D01*
X139601928Y-126740000D01*
X139244802Y-126740000D01*
X138428000Y-125923199D01*
X138428000Y-122875000D01*
X139651928Y-122875000D01*
X139664188Y-122999482D01*
X139700498Y-123119180D01*
X139759463Y-123229494D01*
X139838815Y-123326185D01*
X139935506Y-123405537D01*
X140045820Y-123464502D01*
X140165518Y-123500812D01*
X140290000Y-123513072D01*
X140716750Y-123510000D01*
X140875500Y-123351250D01*
X140875500Y-122127000D01*
X141129500Y-122127000D01*
X141129500Y-123351250D01*
X141288250Y-123510000D01*
X141715000Y-123513072D01*
X141839482Y-123500812D01*
X141959180Y-123464502D01*
X142069494Y-123405537D01*
X142166185Y-123326185D01*
X142245537Y-123229494D01*
X142304502Y-123119180D01*
X142340812Y-122999482D01*
X142353072Y-122875000D01*
X142350000Y-122285750D01*
X142191250Y-122127000D01*
X141129500Y-122127000D01*
X140875500Y-122127000D01*
X139813750Y-122127000D01*
X139655000Y-122285750D01*
X139651928Y-122875000D01*
X138428000Y-122875000D01*
X138428000Y-121125000D01*
X139651928Y-121125000D01*
X139655000Y-121714250D01*
X139813750Y-121873000D01*
X140875500Y-121873000D01*
X140875500Y-120648750D01*
X141129500Y-120648750D01*
X141129500Y-121873000D01*
X142191250Y-121873000D01*
X142350000Y-121714250D01*
X142353072Y-121125000D01*
X142340812Y-121000518D01*
X142304502Y-120880820D01*
X142245537Y-120770506D01*
X142166185Y-120673815D01*
X142069494Y-120594463D01*
X141959180Y-120535498D01*
X141839482Y-120499188D01*
X141715000Y-120486928D01*
X141288250Y-120490000D01*
X141129500Y-120648750D01*
X140875500Y-120648750D01*
X140716750Y-120490000D01*
X140290000Y-120486928D01*
X140165518Y-120499188D01*
X140045820Y-120535498D01*
X139935506Y-120594463D01*
X139838815Y-120673815D01*
X139759463Y-120770506D01*
X139700498Y-120880820D01*
X139664188Y-121000518D01*
X139651928Y-121125000D01*
X138428000Y-121125000D01*
X138428000Y-120065333D01*
X138431677Y-120028000D01*
X138417003Y-119879014D01*
X138373546Y-119735753D01*
X138302974Y-119603724D01*
X138231799Y-119516997D01*
X138208001Y-119487999D01*
X138179003Y-119464201D01*
X136236372Y-117521571D01*
X136267000Y-117367592D01*
X136267000Y-117092408D01*
X136213314Y-116822510D01*
X136108005Y-116568273D01*
X135955120Y-116339465D01*
X135760535Y-116144880D01*
X135531727Y-115991995D01*
X135454485Y-115960000D01*
X135531727Y-115928005D01*
X135760535Y-115775120D01*
X135955120Y-115580535D01*
X136108005Y-115351727D01*
X136213314Y-115097490D01*
X136267000Y-114827592D01*
X136267000Y-114552408D01*
X136213314Y-114282510D01*
X136108005Y-114028273D01*
X135955120Y-113799465D01*
X135760535Y-113604880D01*
X135531727Y-113451995D01*
X135454485Y-113420000D01*
X135531727Y-113388005D01*
X135760535Y-113235120D01*
X135955120Y-113040535D01*
X136108005Y-112811727D01*
X136213314Y-112557490D01*
X136267000Y-112287592D01*
X136267000Y-112012408D01*
X136213314Y-111742510D01*
X136108005Y-111488273D01*
X135955120Y-111259465D01*
X135760535Y-111064880D01*
X135531727Y-110911995D01*
X135454485Y-110880000D01*
X135531727Y-110848005D01*
X135760535Y-110695120D01*
X135955120Y-110500535D01*
X136108005Y-110271727D01*
X136213314Y-110017490D01*
X136267000Y-109747592D01*
X136267000Y-109472408D01*
X136213314Y-109202510D01*
X136108005Y-108948273D01*
X135955120Y-108719465D01*
X135760535Y-108524880D01*
X135531727Y-108371995D01*
X135460057Y-108342308D01*
X135473023Y-108337636D01*
X135588980Y-108275656D01*
X135655960Y-108035565D01*
X134870000Y-107249605D01*
X134084040Y-108035565D01*
X134151020Y-108275656D01*
X134286760Y-108339485D01*
X134208273Y-108371995D01*
X133979465Y-108524880D01*
X133784880Y-108719465D01*
X133631995Y-108948273D01*
X133526686Y-109202510D01*
X133473000Y-109472408D01*
X133473000Y-109747592D01*
X133526686Y-110017490D01*
X133631995Y-110271727D01*
X133784880Y-110500535D01*
X133979465Y-110695120D01*
X134208273Y-110848005D01*
X134285515Y-110880000D01*
X134208273Y-110911995D01*
X133979465Y-111064880D01*
X133784880Y-111259465D01*
X133631995Y-111488273D01*
X133526686Y-111742510D01*
X133473000Y-112012408D01*
X133473000Y-112287592D01*
X133526686Y-112557490D01*
X133631995Y-112811727D01*
X133784880Y-113040535D01*
X133979465Y-113235120D01*
X134208273Y-113388005D01*
X134285515Y-113420000D01*
X134208273Y-113451995D01*
X133979465Y-113604880D01*
X133784880Y-113799465D01*
X133631995Y-114028273D01*
X133526686Y-114282510D01*
X133473000Y-114552408D01*
X133473000Y-114827592D01*
X133526686Y-115097490D01*
X133631995Y-115351727D01*
X133784880Y-115580535D01*
X133979465Y-115775120D01*
X134208273Y-115928005D01*
X134285515Y-115960000D01*
X134208273Y-115991995D01*
X133979465Y-116144880D01*
X133784880Y-116339465D01*
X133631995Y-116568273D01*
X133526686Y-116822510D01*
X133473000Y-117092408D01*
X133473000Y-117367592D01*
X133526686Y-117637490D01*
X133631995Y-117891727D01*
X133784880Y-118120535D01*
X133979465Y-118315120D01*
X134208273Y-118468005D01*
X134285515Y-118500000D01*
X134208273Y-118531995D01*
X133979465Y-118684880D01*
X133784880Y-118879465D01*
X133631995Y-119108273D01*
X133526686Y-119362510D01*
X133473000Y-119632408D01*
X133473000Y-119907592D01*
X133526686Y-120177490D01*
X133631995Y-120431727D01*
X133784880Y-120660535D01*
X133979465Y-120855120D01*
X134208273Y-121008005D01*
X134285515Y-121040000D01*
X134208273Y-121071995D01*
X133979465Y-121224880D01*
X133784880Y-121419465D01*
X133631995Y-121648273D01*
X133526686Y-121902510D01*
X133473000Y-122172408D01*
X133473000Y-122447592D01*
X133526686Y-122717490D01*
X133631995Y-122971727D01*
X133784880Y-123200535D01*
X133979465Y-123395120D01*
X134208273Y-123548005D01*
X134285515Y-123580000D01*
X134208273Y-123611995D01*
X133979465Y-123764880D01*
X133784880Y-123959465D01*
X133631995Y-124188273D01*
X133526686Y-124442510D01*
X133473000Y-124712408D01*
X133473000Y-124918198D01*
X131083000Y-122528199D01*
X131083000Y-122326061D01*
X131043226Y-122126102D01*
X130965205Y-121937744D01*
X130851937Y-121768226D01*
X130707774Y-121624063D01*
X130538256Y-121510795D01*
X130349898Y-121432774D01*
X130149939Y-121393000D01*
X129946061Y-121393000D01*
X129746102Y-121432774D01*
X129557744Y-121510795D01*
X129388226Y-121624063D01*
X129284000Y-121728289D01*
X129284000Y-107142017D01*
X133468090Y-107142017D01*
X133509078Y-107414133D01*
X133602364Y-107673023D01*
X133664344Y-107788980D01*
X133904435Y-107855960D01*
X134690395Y-107070000D01*
X135049605Y-107070000D01*
X135835565Y-107855960D01*
X136075656Y-107788980D01*
X136192756Y-107539952D01*
X136259023Y-107272865D01*
X136271910Y-106997983D01*
X136230922Y-106725867D01*
X136137636Y-106466977D01*
X136075656Y-106351020D01*
X135835565Y-106284040D01*
X135049605Y-107070000D01*
X134690395Y-107070000D01*
X133904435Y-106284040D01*
X133664344Y-106351020D01*
X133547244Y-106600048D01*
X133480977Y-106867135D01*
X133468090Y-107142017D01*
X129284000Y-107142017D01*
X129284000Y-104392408D01*
X133473000Y-104392408D01*
X133473000Y-104667592D01*
X133526686Y-104937490D01*
X133631995Y-105191727D01*
X133784880Y-105420535D01*
X133979465Y-105615120D01*
X134208273Y-105768005D01*
X134279943Y-105797692D01*
X134266977Y-105802364D01*
X134151020Y-105864344D01*
X134084040Y-106104435D01*
X134870000Y-106890395D01*
X135655960Y-106104435D01*
X135588980Y-105864344D01*
X135453240Y-105800515D01*
X135531727Y-105768005D01*
X135760535Y-105615120D01*
X135955120Y-105420535D01*
X136108005Y-105191727D01*
X136213314Y-104937490D01*
X136267000Y-104667592D01*
X136267000Y-104392408D01*
X136213314Y-104122510D01*
X136108005Y-103868273D01*
X135955120Y-103639465D01*
X135760535Y-103444880D01*
X135531727Y-103291995D01*
X135277490Y-103186686D01*
X135007592Y-103133000D01*
X134732408Y-103133000D01*
X134462510Y-103186686D01*
X134208273Y-103291995D01*
X133979465Y-103444880D01*
X133784880Y-103639465D01*
X133631995Y-103868273D01*
X133526686Y-104122510D01*
X133473000Y-104392408D01*
X129284000Y-104392408D01*
X129284000Y-97221322D01*
X129287676Y-97183999D01*
X129284000Y-97146676D01*
X129284000Y-97146667D01*
X129273003Y-97035014D01*
X129229546Y-96891753D01*
X129158974Y-96759723D01*
X129087799Y-96672997D01*
X129064001Y-96643999D01*
X129035003Y-96620201D01*
X127878072Y-95463271D01*
X127878072Y-94600000D01*
X127865812Y-94475518D01*
X127829502Y-94355820D01*
X127770537Y-94245506D01*
X127691185Y-94148815D01*
X127594494Y-94069463D01*
X127484180Y-94010498D01*
X127364482Y-93974188D01*
X127240000Y-93961928D01*
X125690000Y-93961928D01*
X125565518Y-93974188D01*
X125445820Y-94010498D01*
X125335506Y-94069463D01*
X125238815Y-94148815D01*
X125159463Y-94245506D01*
X125100498Y-94355820D01*
X125064188Y-94475518D01*
X125062762Y-94490000D01*
X119917238Y-94490000D01*
X119915812Y-94475518D01*
X119879502Y-94355820D01*
X119820537Y-94245506D01*
X119741185Y-94148815D01*
X119644494Y-94069463D01*
X119534180Y-94010498D01*
X119414482Y-93974188D01*
X119290000Y-93961928D01*
X117740000Y-93961928D01*
X117615518Y-93974188D01*
X117495820Y-94010498D01*
X117385506Y-94069463D01*
X117288815Y-94148815D01*
X117209463Y-94245506D01*
X117150498Y-94355820D01*
X117114188Y-94475518D01*
X117101928Y-94600000D01*
X117101928Y-95900000D01*
X117114188Y-96024482D01*
X117150498Y-96144180D01*
X117209463Y-96254494D01*
X117288815Y-96351185D01*
X117385506Y-96430537D01*
X117495820Y-96489502D01*
X117615518Y-96525812D01*
X117740000Y-96538072D01*
X119290000Y-96538072D01*
X119414482Y-96525812D01*
X119534180Y-96489502D01*
X119644494Y-96430537D01*
X119741185Y-96351185D01*
X119820537Y-96254494D01*
X119879502Y-96144180D01*
X119915812Y-96024482D01*
X119917238Y-96010000D01*
X125062762Y-96010000D01*
X125064188Y-96024482D01*
X125100498Y-96144180D01*
X125159463Y-96254494D01*
X125238815Y-96351185D01*
X125335506Y-96430537D01*
X125445820Y-96489502D01*
X125565518Y-96525812D01*
X125690000Y-96538072D01*
X126803271Y-96538072D01*
X127764001Y-97498803D01*
X127764000Y-127566289D01*
X127720063Y-127610226D01*
X127606795Y-127779744D01*
X127528774Y-127968102D01*
X127489000Y-128168061D01*
X127489000Y-128371939D01*
X127528774Y-128571898D01*
X127606795Y-128760256D01*
X127720063Y-128929774D01*
X127864226Y-129073937D01*
X128007995Y-129170000D01*
X123513802Y-129170000D01*
X120708801Y-126365000D01*
X120914592Y-126365000D01*
X121184490Y-126311314D01*
X121438727Y-126206005D01*
X121667535Y-126053120D01*
X121862120Y-125858535D01*
X122015005Y-125629727D01*
X122047000Y-125552485D01*
X122078995Y-125629727D01*
X122231880Y-125858535D01*
X122426465Y-126053120D01*
X122655273Y-126206005D01*
X122909510Y-126311314D01*
X123179408Y-126365000D01*
X123454592Y-126365000D01*
X123724490Y-126311314D01*
X123978727Y-126206005D01*
X124207535Y-126053120D01*
X124402120Y-125858535D01*
X124555005Y-125629727D01*
X124587000Y-125552485D01*
X124618995Y-125629727D01*
X124771880Y-125858535D01*
X124966465Y-126053120D01*
X125195273Y-126206005D01*
X125449510Y-126311314D01*
X125719408Y-126365000D01*
X125994592Y-126365000D01*
X126264490Y-126311314D01*
X126518727Y-126206005D01*
X126747535Y-126053120D01*
X126942120Y-125858535D01*
X127095005Y-125629727D01*
X127200314Y-125375490D01*
X127254000Y-125105592D01*
X127254000Y-124830408D01*
X127200314Y-124560510D01*
X127095005Y-124306273D01*
X126942120Y-124077465D01*
X126747535Y-123882880D01*
X126518727Y-123729995D01*
X126441485Y-123698000D01*
X126518727Y-123666005D01*
X126747535Y-123513120D01*
X126942120Y-123318535D01*
X127095005Y-123089727D01*
X127200314Y-122835490D01*
X127254000Y-122565592D01*
X127254000Y-122290408D01*
X127200314Y-122020510D01*
X127095005Y-121766273D01*
X126942120Y-121537465D01*
X126747535Y-121342880D01*
X126518727Y-121189995D01*
X126264490Y-121084686D01*
X125994592Y-121031000D01*
X125719408Y-121031000D01*
X125449510Y-121084686D01*
X125195273Y-121189995D01*
X124966465Y-121342880D01*
X124771880Y-121537465D01*
X124618995Y-121766273D01*
X124587000Y-121843515D01*
X124555005Y-121766273D01*
X124402120Y-121537465D01*
X124207535Y-121342880D01*
X123978727Y-121189995D01*
X123724490Y-121084686D01*
X123454592Y-121031000D01*
X123179408Y-121031000D01*
X122909510Y-121084686D01*
X122655273Y-121189995D01*
X122426465Y-121342880D01*
X122231880Y-121537465D01*
X122078995Y-121766273D01*
X122047000Y-121843515D01*
X122015005Y-121766273D01*
X121862120Y-121537465D01*
X121667535Y-121342880D01*
X121438727Y-121189995D01*
X121184490Y-121084686D01*
X120914592Y-121031000D01*
X120639408Y-121031000D01*
X120369510Y-121084686D01*
X120115273Y-121189995D01*
X119886465Y-121342880D01*
X119691880Y-121537465D01*
X119538995Y-121766273D01*
X119509308Y-121837943D01*
X119504636Y-121824977D01*
X119442656Y-121709020D01*
X119202565Y-121642040D01*
X118416605Y-122428000D01*
X119202565Y-123213960D01*
X119442656Y-123146980D01*
X119506485Y-123011240D01*
X119538995Y-123089727D01*
X119691880Y-123318535D01*
X119886465Y-123513120D01*
X120115273Y-123666005D01*
X120192515Y-123698000D01*
X120115273Y-123729995D01*
X119886465Y-123882880D01*
X119691880Y-124077465D01*
X119538995Y-124306273D01*
X119507000Y-124383515D01*
X119475005Y-124306273D01*
X119322120Y-124077465D01*
X119127535Y-123882880D01*
X118898727Y-123729995D01*
X118827057Y-123700308D01*
X118840023Y-123695636D01*
X118955980Y-123633656D01*
X119022960Y-123393565D01*
X118237000Y-122607605D01*
X117451040Y-123393565D01*
X117518020Y-123633656D01*
X117653760Y-123697485D01*
X117575273Y-123729995D01*
X117346465Y-123882880D01*
X117151880Y-124077465D01*
X116998995Y-124306273D01*
X116893686Y-124560510D01*
X116840000Y-124830408D01*
X111200000Y-124830408D01*
X111200000Y-122500017D01*
X116835090Y-122500017D01*
X116876078Y-122772133D01*
X116969364Y-123031023D01*
X117031344Y-123146980D01*
X117271435Y-123213960D01*
X118057395Y-122428000D01*
X117271435Y-121642040D01*
X117031344Y-121709020D01*
X116914244Y-121958048D01*
X116847977Y-122225135D01*
X116835090Y-122500017D01*
X111200000Y-122500017D01*
X111200000Y-121462435D01*
X117451040Y-121462435D01*
X118237000Y-122248395D01*
X119022960Y-121462435D01*
X118955980Y-121222344D01*
X118706952Y-121105244D01*
X118439865Y-121038977D01*
X118164983Y-121026090D01*
X117892867Y-121067078D01*
X117633977Y-121160364D01*
X117518020Y-121222344D01*
X117451040Y-121462435D01*
X111200000Y-121462435D01*
X111200000Y-91400000D01*
X117101928Y-91400000D01*
X117114188Y-91524482D01*
X117150498Y-91644180D01*
X117209463Y-91754494D01*
X117288815Y-91851185D01*
X117385506Y-91930537D01*
X117495820Y-91989502D01*
X117615518Y-92025812D01*
X117740000Y-92038072D01*
X118229250Y-92035000D01*
X118388000Y-91876250D01*
X118388000Y-90877000D01*
X118642000Y-90877000D01*
X118642000Y-91876250D01*
X118800750Y-92035000D01*
X119290000Y-92038072D01*
X119414482Y-92025812D01*
X119534180Y-91989502D01*
X119644494Y-91930537D01*
X119741185Y-91851185D01*
X119820537Y-91754494D01*
X119879502Y-91644180D01*
X119915812Y-91524482D01*
X119928072Y-91400000D01*
X125051928Y-91400000D01*
X125064188Y-91524482D01*
X125100498Y-91644180D01*
X125159463Y-91754494D01*
X125238815Y-91851185D01*
X125335506Y-91930537D01*
X125445820Y-91989502D01*
X125565518Y-92025812D01*
X125690000Y-92038072D01*
X126179250Y-92035000D01*
X126338000Y-91876250D01*
X126338000Y-90877000D01*
X126592000Y-90877000D01*
X126592000Y-91876250D01*
X126750750Y-92035000D01*
X127240000Y-92038072D01*
X127364482Y-92025812D01*
X127484180Y-91989502D01*
X127594494Y-91930537D01*
X127691185Y-91851185D01*
X127770537Y-91754494D01*
X127829502Y-91644180D01*
X127865812Y-91524482D01*
X127878072Y-91400000D01*
X127875000Y-91035750D01*
X127716250Y-90877000D01*
X126592000Y-90877000D01*
X126338000Y-90877000D01*
X125213750Y-90877000D01*
X125055000Y-91035750D01*
X125051928Y-91400000D01*
X119928072Y-91400000D01*
X119925000Y-91035750D01*
X119766250Y-90877000D01*
X118642000Y-90877000D01*
X118388000Y-90877000D01*
X117263750Y-90877000D01*
X117105000Y-91035750D01*
X117101928Y-91400000D01*
X111200000Y-91400000D01*
X111200000Y-90100000D01*
X117101928Y-90100000D01*
X117105000Y-90464250D01*
X117263750Y-90623000D01*
X118388000Y-90623000D01*
X118388000Y-89623750D01*
X118642000Y-89623750D01*
X118642000Y-90623000D01*
X119766250Y-90623000D01*
X119925000Y-90464250D01*
X119928072Y-90100000D01*
X125051928Y-90100000D01*
X125055000Y-90464250D01*
X125213750Y-90623000D01*
X126338000Y-90623000D01*
X126338000Y-89623750D01*
X126592000Y-89623750D01*
X126592000Y-90623000D01*
X127716250Y-90623000D01*
X127875000Y-90464250D01*
X127878072Y-90100000D01*
X127865812Y-89975518D01*
X127829502Y-89855820D01*
X127770537Y-89745506D01*
X127691185Y-89648815D01*
X127594494Y-89569463D01*
X127484180Y-89510498D01*
X127364482Y-89474188D01*
X127240000Y-89461928D01*
X126750750Y-89465000D01*
X126592000Y-89623750D01*
X126338000Y-89623750D01*
X126179250Y-89465000D01*
X125690000Y-89461928D01*
X125565518Y-89474188D01*
X125445820Y-89510498D01*
X125335506Y-89569463D01*
X125238815Y-89648815D01*
X125159463Y-89745506D01*
X125100498Y-89855820D01*
X125064188Y-89975518D01*
X125051928Y-90100000D01*
X119928072Y-90100000D01*
X119915812Y-89975518D01*
X119879502Y-89855820D01*
X119820537Y-89745506D01*
X119741185Y-89648815D01*
X119644494Y-89569463D01*
X119534180Y-89510498D01*
X119414482Y-89474188D01*
X119290000Y-89461928D01*
X118800750Y-89465000D01*
X118642000Y-89623750D01*
X118388000Y-89623750D01*
X118229250Y-89465000D01*
X117740000Y-89461928D01*
X117615518Y-89474188D01*
X117495820Y-89510498D01*
X117385506Y-89569463D01*
X117288815Y-89648815D01*
X117209463Y-89745506D01*
X117150498Y-89855820D01*
X117114188Y-89975518D01*
X117101928Y-90100000D01*
X111200000Y-90100000D01*
X111200000Y-83665098D01*
X128455000Y-83665098D01*
X128455000Y-84134902D01*
X128546654Y-84595679D01*
X128726440Y-85029721D01*
X128987450Y-85420349D01*
X129319651Y-85752550D01*
X129710279Y-86013560D01*
X130144321Y-86193346D01*
X130605098Y-86285000D01*
X131074902Y-86285000D01*
X131535679Y-86193346D01*
X131969721Y-86013560D01*
X132360349Y-85752550D01*
X132692550Y-85420349D01*
X132953560Y-85029721D01*
X133133346Y-84595679D01*
X133225000Y-84134902D01*
X133225000Y-83665098D01*
X133133346Y-83204321D01*
X132953560Y-82770279D01*
X132692550Y-82379651D01*
X132360349Y-82047450D01*
X131969721Y-81786440D01*
X131535679Y-81606654D01*
X131074902Y-81515000D01*
X130605098Y-81515000D01*
X130144321Y-81606654D01*
X129710279Y-81786440D01*
X129319651Y-82047450D01*
X128987450Y-82379651D01*
X128726440Y-82770279D01*
X128546654Y-83204321D01*
X128455000Y-83665098D01*
X111200000Y-83665098D01*
X111200000Y-76767264D01*
X135355000Y-76767264D01*
X135355000Y-78172736D01*
X135629194Y-79551203D01*
X136167045Y-80849690D01*
X136947884Y-82018297D01*
X137941703Y-83012116D01*
X139110310Y-83792955D01*
X140408797Y-84330806D01*
X141787264Y-84605000D01*
X143192736Y-84605000D01*
X144571203Y-84330806D01*
X145869690Y-83792955D01*
X147038297Y-83012116D01*
X148032116Y-82018297D01*
X148812955Y-80849690D01*
X149350806Y-79551203D01*
X149625000Y-78172736D01*
X149625000Y-76767264D01*
X149350806Y-75388797D01*
X148812955Y-74090310D01*
X148032116Y-72921703D01*
X147038297Y-71927884D01*
X145869690Y-71147045D01*
X144571203Y-70609194D01*
X143192736Y-70335000D01*
X141787264Y-70335000D01*
X140408797Y-70609194D01*
X139110310Y-71147045D01*
X137941703Y-71927884D01*
X136947884Y-72921703D01*
X136167045Y-74090310D01*
X135629194Y-75388797D01*
X135355000Y-76767264D01*
X111200000Y-76767264D01*
X111200000Y-62565098D01*
X115725000Y-62565098D01*
X115725000Y-63034902D01*
X115816654Y-63495679D01*
X115996440Y-63929721D01*
X116257450Y-64320349D01*
X116589651Y-64652550D01*
X116980279Y-64913560D01*
X117414321Y-65093346D01*
X117875098Y-65185000D01*
X118344902Y-65185000D01*
X118805679Y-65093346D01*
X119239721Y-64913560D01*
X119630349Y-64652550D01*
X119962550Y-64320349D01*
X120223560Y-63929721D01*
X120403346Y-63495679D01*
X120495000Y-63034902D01*
X120495000Y-62565098D01*
X120403346Y-62104321D01*
X120223560Y-61670279D01*
X119962550Y-61279651D01*
X119630349Y-60947450D01*
X119239721Y-60686440D01*
X118805679Y-60506654D01*
X118344902Y-60415000D01*
X117875098Y-60415000D01*
X117414321Y-60506654D01*
X116980279Y-60686440D01*
X116589651Y-60947450D01*
X116257450Y-61279651D01*
X115996440Y-61670279D01*
X115816654Y-62104321D01*
X115725000Y-62565098D01*
X111200000Y-62565098D01*
X111200000Y-60010000D01*
X116874877Y-60010000D01*
X116906019Y-60006933D01*
X116919360Y-60007026D01*
X116929225Y-60006059D01*
X117346534Y-59962197D01*
X117409528Y-59949266D01*
X117472781Y-59937200D01*
X117482271Y-59934335D01*
X117705939Y-59865098D01*
X128455000Y-59865098D01*
X128455000Y-60334902D01*
X128546654Y-60795679D01*
X128726440Y-61229721D01*
X128987450Y-61620349D01*
X129319651Y-61952550D01*
X129710279Y-62213560D01*
X130144321Y-62393346D01*
X130605098Y-62485000D01*
X131074902Y-62485000D01*
X131535679Y-62393346D01*
X131969721Y-62213560D01*
X132360349Y-61952550D01*
X132692550Y-61620349D01*
X132953560Y-61229721D01*
X133133346Y-60795679D01*
X133179118Y-60565565D01*
X137894040Y-60565565D01*
X137961020Y-60805656D01*
X138210048Y-60922756D01*
X138477135Y-60989023D01*
X138752017Y-61001910D01*
X139024133Y-60960922D01*
X139283023Y-60867636D01*
X139398980Y-60805656D01*
X139465960Y-60565565D01*
X138680000Y-59779605D01*
X137894040Y-60565565D01*
X133179118Y-60565565D01*
X133225000Y-60334902D01*
X133225000Y-59865098D01*
X133186594Y-59672017D01*
X137278090Y-59672017D01*
X137319078Y-59944133D01*
X137412364Y-60203023D01*
X137474344Y-60318980D01*
X137714435Y-60385960D01*
X138500395Y-59600000D01*
X138859605Y-59600000D01*
X139645565Y-60385960D01*
X139885656Y-60318980D01*
X139949485Y-60183240D01*
X139981995Y-60261727D01*
X140134880Y-60490535D01*
X140329465Y-60685120D01*
X140558273Y-60838005D01*
X140812510Y-60943314D01*
X141082408Y-60997000D01*
X141357592Y-60997000D01*
X141627490Y-60943314D01*
X141881727Y-60838005D01*
X142110535Y-60685120D01*
X142305120Y-60490535D01*
X142458005Y-60261727D01*
X142490000Y-60184485D01*
X142521995Y-60261727D01*
X142674880Y-60490535D01*
X142869465Y-60685120D01*
X143098273Y-60838005D01*
X143352510Y-60943314D01*
X143622408Y-60997000D01*
X143897592Y-60997000D01*
X144051571Y-60966372D01*
X155455001Y-72369803D01*
X155455001Y-81910241D01*
X155269721Y-81786440D01*
X154835679Y-81606654D01*
X154374902Y-81515000D01*
X153905098Y-81515000D01*
X153444321Y-81606654D01*
X153010279Y-81786440D01*
X152619651Y-82047450D01*
X152287450Y-82379651D01*
X152026440Y-82770279D01*
X151846654Y-83204321D01*
X151755000Y-83665098D01*
X151755000Y-84134902D01*
X151846654Y-84595679D01*
X152026440Y-85029721D01*
X152287450Y-85420349D01*
X152619651Y-85752550D01*
X153010279Y-86013560D01*
X153444321Y-86193346D01*
X153905098Y-86285000D01*
X154374902Y-86285000D01*
X154835679Y-86193346D01*
X155269721Y-86013560D01*
X155455001Y-85889759D01*
X155455002Y-119330668D01*
X155451325Y-119368001D01*
X155465999Y-119516986D01*
X155509455Y-119660247D01*
X155580027Y-119792277D01*
X155651202Y-119879003D01*
X155675001Y-119908002D01*
X155703999Y-119931800D01*
X159200943Y-123428745D01*
X159058983Y-123422090D01*
X158786867Y-123463078D01*
X158527977Y-123556364D01*
X158412020Y-123618344D01*
X158345040Y-123858435D01*
X159131000Y-124644395D01*
X159145143Y-124630253D01*
X159324748Y-124809858D01*
X159310605Y-124824000D01*
X160096565Y-125609960D01*
X160336656Y-125542980D01*
X160400485Y-125407240D01*
X160432995Y-125485727D01*
X160585880Y-125714535D01*
X160684587Y-125813242D01*
X154787829Y-131710000D01*
X151282341Y-131710000D01*
X151195120Y-131579465D01*
X151000535Y-131384880D01*
X150771727Y-131231995D01*
X150694485Y-131200000D01*
X150771727Y-131168005D01*
X151000535Y-131015120D01*
X151195120Y-130820535D01*
X151348005Y-130591727D01*
X151453314Y-130337490D01*
X151507000Y-130067592D01*
X151507000Y-129792408D01*
X151453314Y-129522510D01*
X151348005Y-129268273D01*
X151195120Y-129039465D01*
X151000535Y-128844880D01*
X150771727Y-128691995D01*
X150694485Y-128660000D01*
X150771727Y-128628005D01*
X151000535Y-128475120D01*
X151195120Y-128280535D01*
X151348005Y-128051727D01*
X151453314Y-127797490D01*
X151507000Y-127527592D01*
X151507000Y-127252408D01*
X151453314Y-126982510D01*
X151348005Y-126728273D01*
X151195120Y-126499465D01*
X151000535Y-126304880D01*
X150771727Y-126151995D01*
X150694485Y-126120000D01*
X150771727Y-126088005D01*
X151000535Y-125935120D01*
X151146090Y-125789565D01*
X158345040Y-125789565D01*
X158412020Y-126029656D01*
X158661048Y-126146756D01*
X158928135Y-126213023D01*
X159203017Y-126225910D01*
X159475133Y-126184922D01*
X159734023Y-126091636D01*
X159849980Y-126029656D01*
X159916960Y-125789565D01*
X159131000Y-125003605D01*
X158345040Y-125789565D01*
X151146090Y-125789565D01*
X151195120Y-125740535D01*
X151348005Y-125511727D01*
X151453314Y-125257490D01*
X151507000Y-124987592D01*
X151507000Y-124896017D01*
X157729090Y-124896017D01*
X157770078Y-125168133D01*
X157863364Y-125427023D01*
X157925344Y-125542980D01*
X158165435Y-125609960D01*
X158951395Y-124824000D01*
X158165435Y-124038040D01*
X157925344Y-124105020D01*
X157808244Y-124354048D01*
X157741977Y-124621135D01*
X157729090Y-124896017D01*
X151507000Y-124896017D01*
X151507000Y-124712408D01*
X151453314Y-124442510D01*
X151348005Y-124188273D01*
X151195120Y-123959465D01*
X151000535Y-123764880D01*
X150771727Y-123611995D01*
X150694485Y-123580000D01*
X150771727Y-123548005D01*
X151000535Y-123395120D01*
X151195120Y-123200535D01*
X151348005Y-122971727D01*
X151453314Y-122717490D01*
X151507000Y-122447592D01*
X151507000Y-122172408D01*
X151453314Y-121902510D01*
X151348005Y-121648273D01*
X151195120Y-121419465D01*
X151000535Y-121224880D01*
X150771727Y-121071995D01*
X150694485Y-121040000D01*
X150771727Y-121008005D01*
X151000535Y-120855120D01*
X151195120Y-120660535D01*
X151348005Y-120431727D01*
X151453314Y-120177490D01*
X151507000Y-119907592D01*
X151507000Y-119632408D01*
X151453314Y-119362510D01*
X151348005Y-119108273D01*
X151195120Y-118879465D01*
X151000535Y-118684880D01*
X150771727Y-118531995D01*
X150694485Y-118500000D01*
X150771727Y-118468005D01*
X151000535Y-118315120D01*
X151195120Y-118120535D01*
X151348005Y-117891727D01*
X151453314Y-117637490D01*
X151507000Y-117367592D01*
X151507000Y-117092408D01*
X151453314Y-116822510D01*
X151348005Y-116568273D01*
X151195120Y-116339465D01*
X151000535Y-116144880D01*
X150771727Y-115991995D01*
X150694485Y-115960000D01*
X150771727Y-115928005D01*
X151000535Y-115775120D01*
X151195120Y-115580535D01*
X151348005Y-115351727D01*
X151453314Y-115097490D01*
X151507000Y-114827592D01*
X151507000Y-114552408D01*
X151453314Y-114282510D01*
X151348005Y-114028273D01*
X151195120Y-113799465D01*
X151000535Y-113604880D01*
X150771727Y-113451995D01*
X150694485Y-113420000D01*
X150771727Y-113388005D01*
X151000535Y-113235120D01*
X151195120Y-113040535D01*
X151348005Y-112811727D01*
X151453314Y-112557490D01*
X151507000Y-112287592D01*
X151507000Y-112012408D01*
X151453314Y-111742510D01*
X151348005Y-111488273D01*
X151195120Y-111259465D01*
X151000535Y-111064880D01*
X150771727Y-110911995D01*
X150694485Y-110880000D01*
X150771727Y-110848005D01*
X151000535Y-110695120D01*
X151195120Y-110500535D01*
X151348005Y-110271727D01*
X151453314Y-110017490D01*
X151507000Y-109747592D01*
X151507000Y-109472408D01*
X151453314Y-109202510D01*
X151348005Y-108948273D01*
X151195120Y-108719465D01*
X151000535Y-108524880D01*
X150771727Y-108371995D01*
X150694485Y-108340000D01*
X150771727Y-108308005D01*
X151000535Y-108155120D01*
X151195120Y-107960535D01*
X151348005Y-107731727D01*
X151453314Y-107477490D01*
X151507000Y-107207592D01*
X151507000Y-106932408D01*
X151453314Y-106662510D01*
X151348005Y-106408273D01*
X151195120Y-106179465D01*
X151000535Y-105984880D01*
X150771727Y-105831995D01*
X150694485Y-105800000D01*
X150771727Y-105768005D01*
X151000535Y-105615120D01*
X151195120Y-105420535D01*
X151348005Y-105191727D01*
X151453314Y-104937490D01*
X151507000Y-104667592D01*
X151507000Y-104392408D01*
X151453314Y-104122510D01*
X151348005Y-103868273D01*
X151195120Y-103639465D01*
X151000535Y-103444880D01*
X150771727Y-103291995D01*
X150517490Y-103186686D01*
X150247592Y-103133000D01*
X149972408Y-103133000D01*
X149702510Y-103186686D01*
X149448273Y-103291995D01*
X149219465Y-103444880D01*
X149024880Y-103639465D01*
X148871995Y-103868273D01*
X148766686Y-104122510D01*
X148713000Y-104392408D01*
X148713000Y-104667592D01*
X148766686Y-104937490D01*
X148871995Y-105191727D01*
X149024880Y-105420535D01*
X149219465Y-105615120D01*
X149448273Y-105768005D01*
X149525515Y-105800000D01*
X149448273Y-105831995D01*
X149219465Y-105984880D01*
X149024880Y-106179465D01*
X148871995Y-106408273D01*
X148766686Y-106662510D01*
X148713000Y-106932408D01*
X148713000Y-107207592D01*
X148766686Y-107477490D01*
X148871995Y-107731727D01*
X149024880Y-107960535D01*
X149219465Y-108155120D01*
X149448273Y-108308005D01*
X149525515Y-108340000D01*
X149448273Y-108371995D01*
X149219465Y-108524880D01*
X149024880Y-108719465D01*
X148871995Y-108948273D01*
X148766686Y-109202510D01*
X148713000Y-109472408D01*
X148713000Y-109747592D01*
X148766686Y-110017490D01*
X148871995Y-110271727D01*
X149024880Y-110500535D01*
X149219465Y-110695120D01*
X149448273Y-110848005D01*
X149525515Y-110880000D01*
X149448273Y-110911995D01*
X149219465Y-111064880D01*
X149024880Y-111259465D01*
X148871995Y-111488273D01*
X148766686Y-111742510D01*
X148713000Y-112012408D01*
X148713000Y-112287592D01*
X148766686Y-112557490D01*
X148871995Y-112811727D01*
X149024880Y-113040535D01*
X149219465Y-113235120D01*
X149448273Y-113388005D01*
X149525515Y-113420000D01*
X149448273Y-113451995D01*
X149219465Y-113604880D01*
X149024880Y-113799465D01*
X148871995Y-114028273D01*
X148766686Y-114282510D01*
X148713000Y-114552408D01*
X148713000Y-114827592D01*
X148766686Y-115097490D01*
X148871995Y-115351727D01*
X149024880Y-115580535D01*
X149219465Y-115775120D01*
X149448273Y-115928005D01*
X149525515Y-115960000D01*
X149448273Y-115991995D01*
X149219465Y-116144880D01*
X149024880Y-116339465D01*
X148871995Y-116568273D01*
X148766686Y-116822510D01*
X148713000Y-117092408D01*
X148713000Y-117367592D01*
X148766686Y-117637490D01*
X148871995Y-117891727D01*
X149024880Y-118120535D01*
X149219465Y-118315120D01*
X149448273Y-118468005D01*
X149525515Y-118500000D01*
X149448273Y-118531995D01*
X149219465Y-118684880D01*
X149024880Y-118879465D01*
X148871995Y-119108273D01*
X148766686Y-119362510D01*
X148713000Y-119632408D01*
X148713000Y-119907592D01*
X148766686Y-120177490D01*
X148871995Y-120431727D01*
X149024880Y-120660535D01*
X149219465Y-120855120D01*
X149448273Y-121008005D01*
X149525515Y-121040000D01*
X149448273Y-121071995D01*
X149219465Y-121224880D01*
X149024880Y-121419465D01*
X148871995Y-121648273D01*
X148766686Y-121902510D01*
X148713000Y-122172408D01*
X148713000Y-122447592D01*
X148766686Y-122717490D01*
X148871995Y-122971727D01*
X149024880Y-123200535D01*
X149219465Y-123395120D01*
X149448273Y-123548005D01*
X149525515Y-123580000D01*
X149448273Y-123611995D01*
X149219465Y-123764880D01*
X149024880Y-123959465D01*
X148871995Y-124188273D01*
X148766686Y-124442510D01*
X148713000Y-124712408D01*
X148713000Y-124987592D01*
X148766686Y-125257490D01*
X148871995Y-125511727D01*
X149024880Y-125740535D01*
X149219465Y-125935120D01*
X149448273Y-126088005D01*
X149525515Y-126120000D01*
X149448273Y-126151995D01*
X149219465Y-126304880D01*
X149024880Y-126499465D01*
X148871995Y-126728273D01*
X148766686Y-126982510D01*
X148713000Y-127252408D01*
X148713000Y-127527592D01*
X148766686Y-127797490D01*
X148871995Y-128051727D01*
X149024880Y-128280535D01*
X149219465Y-128475120D01*
X149448273Y-128628005D01*
X149525515Y-128660000D01*
X149448273Y-128691995D01*
X149219465Y-128844880D01*
X149024880Y-129039465D01*
X148933617Y-129176049D01*
X148883384Y-129180997D01*
X148740123Y-129224454D01*
X148608093Y-129295026D01*
X148524453Y-129363668D01*
X148492369Y-129389999D01*
X148468571Y-129418997D01*
X147825002Y-130062567D01*
X147795999Y-130086369D01*
X147740871Y-130153544D01*
X147701026Y-130202094D01*
X147690254Y-130222247D01*
X147630454Y-130334124D01*
X147586997Y-130477385D01*
X147576000Y-130589038D01*
X147576000Y-130589048D01*
X147572324Y-130626370D01*
X147576000Y-130663693D01*
X147576001Y-133566668D01*
X147572324Y-133604000D01*
X147586998Y-133752985D01*
X147630454Y-133896246D01*
X147701026Y-134028276D01*
X147769737Y-134112000D01*
X147796000Y-134144001D01*
X147824998Y-134167799D01*
X148280200Y-134623002D01*
X148303999Y-134652001D01*
X148419724Y-134746974D01*
X148551753Y-134817546D01*
X148695014Y-134861003D01*
X148806667Y-134872000D01*
X148806676Y-134872000D01*
X148843999Y-134875676D01*
X148881322Y-134872000D01*
X154885678Y-134872000D01*
X154923000Y-134875676D01*
X154960322Y-134872000D01*
X154960333Y-134872000D01*
X155071986Y-134861003D01*
X155215247Y-134817546D01*
X155347276Y-134746974D01*
X155463001Y-134652001D01*
X155486804Y-134622997D01*
X157544703Y-132565098D01*
X164835000Y-132565098D01*
X164835000Y-133034902D01*
X164926654Y-133495679D01*
X165106440Y-133929721D01*
X165367450Y-134320349D01*
X165699651Y-134652550D01*
X166090279Y-134913560D01*
X166524321Y-135093346D01*
X166985098Y-135185000D01*
X167454902Y-135185000D01*
X167915679Y-135093346D01*
X168349721Y-134913560D01*
X168740349Y-134652550D01*
X169072550Y-134320349D01*
X169333560Y-133929721D01*
X169513346Y-133495679D01*
X169605000Y-133034902D01*
X169605000Y-132565098D01*
X169513346Y-132104321D01*
X169333560Y-131670279D01*
X169072550Y-131279651D01*
X168740349Y-130947450D01*
X168349721Y-130686440D01*
X167915679Y-130506654D01*
X167454902Y-130415000D01*
X166985098Y-130415000D01*
X166524321Y-130506654D01*
X166090279Y-130686440D01*
X165699651Y-130947450D01*
X165367450Y-131279651D01*
X165106440Y-131670279D01*
X164926654Y-132104321D01*
X164835000Y-132565098D01*
X157544703Y-132565098D01*
X163919430Y-126190372D01*
X164073408Y-126221000D01*
X164348592Y-126221000D01*
X164618490Y-126167314D01*
X164872727Y-126062005D01*
X165101535Y-125909120D01*
X165296120Y-125714535D01*
X165449005Y-125485727D01*
X165481000Y-125408485D01*
X165512995Y-125485727D01*
X165665880Y-125714535D01*
X165860465Y-125909120D01*
X166089273Y-126062005D01*
X166343510Y-126167314D01*
X166613408Y-126221000D01*
X166888592Y-126221000D01*
X167158490Y-126167314D01*
X167412727Y-126062005D01*
X167641535Y-125909120D01*
X167836120Y-125714535D01*
X167989005Y-125485727D01*
X168094314Y-125231490D01*
X168148000Y-124961592D01*
X168148000Y-124686408D01*
X168094314Y-124416510D01*
X167989005Y-124162273D01*
X167836120Y-123933465D01*
X167641535Y-123738880D01*
X167412727Y-123585995D01*
X167158490Y-123480686D01*
X166888592Y-123427000D01*
X166613408Y-123427000D01*
X166343510Y-123480686D01*
X166089273Y-123585995D01*
X165860465Y-123738880D01*
X165665880Y-123933465D01*
X165512995Y-124162273D01*
X165481000Y-124239515D01*
X165449005Y-124162273D01*
X165296120Y-123933465D01*
X165101535Y-123738880D01*
X164872727Y-123585995D01*
X164618490Y-123480686D01*
X164348592Y-123427000D01*
X164073408Y-123427000D01*
X163919431Y-123457628D01*
X158043804Y-117582003D01*
X158020001Y-117552999D01*
X157904276Y-117458026D01*
X157901163Y-117456362D01*
X157732000Y-117287199D01*
X157732000Y-108940981D01*
X157747654Y-109019679D01*
X157927440Y-109453721D01*
X158188450Y-109844349D01*
X158520651Y-110176550D01*
X158911279Y-110437560D01*
X159345321Y-110617346D01*
X159806098Y-110709000D01*
X160275902Y-110709000D01*
X160736679Y-110617346D01*
X161170721Y-110437560D01*
X161561349Y-110176550D01*
X161893550Y-109844349D01*
X162154560Y-109453721D01*
X162334346Y-109019679D01*
X162426000Y-108558902D01*
X162426000Y-108089098D01*
X163456000Y-108089098D01*
X163456000Y-108558902D01*
X163547654Y-109019679D01*
X163727440Y-109453721D01*
X163988450Y-109844349D01*
X164320651Y-110176550D01*
X164711279Y-110437560D01*
X165145321Y-110617346D01*
X165606098Y-110709000D01*
X166075902Y-110709000D01*
X166536679Y-110617346D01*
X166970721Y-110437560D01*
X167361349Y-110176550D01*
X167693550Y-109844349D01*
X167954560Y-109453721D01*
X168134346Y-109019679D01*
X168226000Y-108558902D01*
X168226000Y-108089098D01*
X168134346Y-107628321D01*
X167954560Y-107194279D01*
X167693550Y-106803651D01*
X167361349Y-106471450D01*
X166970721Y-106210440D01*
X166536679Y-106030654D01*
X166075902Y-105939000D01*
X165606098Y-105939000D01*
X165145321Y-106030654D01*
X164711279Y-106210440D01*
X164320651Y-106471450D01*
X163988450Y-106803651D01*
X163727440Y-107194279D01*
X163547654Y-107628321D01*
X163456000Y-108089098D01*
X162426000Y-108089098D01*
X162334346Y-107628321D01*
X162154560Y-107194279D01*
X161893550Y-106803651D01*
X161561349Y-106471450D01*
X161170721Y-106210440D01*
X160736679Y-106030654D01*
X160275902Y-105939000D01*
X159806098Y-105939000D01*
X159345321Y-106030654D01*
X158911279Y-106210440D01*
X158520651Y-106471450D01*
X158188450Y-106803651D01*
X157927440Y-107194279D01*
X157747654Y-107628321D01*
X157732000Y-107707019D01*
X157732000Y-96537284D01*
X157740000Y-96538072D01*
X159290000Y-96538072D01*
X159414482Y-96525812D01*
X159534180Y-96489502D01*
X159644494Y-96430537D01*
X159741185Y-96351185D01*
X159820537Y-96254494D01*
X159879502Y-96144180D01*
X159915812Y-96024482D01*
X159917238Y-96010000D01*
X160530001Y-96010000D01*
X160530000Y-98722405D01*
X160460986Y-98759294D01*
X160234866Y-98944866D01*
X160049294Y-99170986D01*
X159911401Y-99428966D01*
X159826487Y-99708889D01*
X159797815Y-100000000D01*
X159826487Y-100291111D01*
X159911401Y-100571034D01*
X160049294Y-100829014D01*
X160234866Y-101055134D01*
X160460986Y-101240706D01*
X160718966Y-101378599D01*
X160998889Y-101463513D01*
X161217050Y-101485000D01*
X161362950Y-101485000D01*
X161581111Y-101463513D01*
X161861034Y-101378599D01*
X162119014Y-101240706D01*
X162345134Y-101055134D01*
X162369607Y-101025313D01*
X162390498Y-101094180D01*
X162449463Y-101204494D01*
X162528815Y-101301185D01*
X162625506Y-101380537D01*
X162735820Y-101439502D01*
X162855518Y-101475812D01*
X162980000Y-101488072D01*
X163544250Y-101485000D01*
X163703000Y-101326250D01*
X163703000Y-100127000D01*
X163957000Y-100127000D01*
X163957000Y-101326250D01*
X164115750Y-101485000D01*
X164680000Y-101488072D01*
X164804482Y-101475812D01*
X164924180Y-101439502D01*
X165034494Y-101380537D01*
X165131185Y-101301185D01*
X165210537Y-101204494D01*
X165269502Y-101094180D01*
X165305812Y-100974482D01*
X165318072Y-100850000D01*
X165315000Y-100285750D01*
X165156250Y-100127000D01*
X163957000Y-100127000D01*
X163703000Y-100127000D01*
X163683000Y-100127000D01*
X163683000Y-99873000D01*
X163703000Y-99873000D01*
X163703000Y-98673750D01*
X163957000Y-98673750D01*
X163957000Y-99873000D01*
X165156250Y-99873000D01*
X165315000Y-99714250D01*
X165318072Y-99150000D01*
X165305812Y-99025518D01*
X165269502Y-98905820D01*
X165210537Y-98795506D01*
X165131185Y-98698815D01*
X165034494Y-98619463D01*
X164924180Y-98560498D01*
X164804482Y-98524188D01*
X164680000Y-98511928D01*
X164115750Y-98515000D01*
X163957000Y-98673750D01*
X163703000Y-98673750D01*
X163544250Y-98515000D01*
X162980000Y-98511928D01*
X162855518Y-98524188D01*
X162735820Y-98560498D01*
X162625506Y-98619463D01*
X162528815Y-98698815D01*
X162449463Y-98795506D01*
X162390498Y-98905820D01*
X162369607Y-98974687D01*
X162345134Y-98944866D01*
X162119014Y-98759294D01*
X162050000Y-98722405D01*
X162050000Y-96010000D01*
X165062762Y-96010000D01*
X165064188Y-96024482D01*
X165100498Y-96144180D01*
X165159463Y-96254494D01*
X165238815Y-96351185D01*
X165335506Y-96430537D01*
X165445820Y-96489502D01*
X165565518Y-96525812D01*
X165690000Y-96538072D01*
X167240000Y-96538072D01*
X167364482Y-96525812D01*
X167484180Y-96489502D01*
X167594494Y-96430537D01*
X167691185Y-96351185D01*
X167770537Y-96254494D01*
X167829502Y-96144180D01*
X167865812Y-96024482D01*
X167878072Y-95900000D01*
X167878072Y-94600000D01*
X167865812Y-94475518D01*
X167829502Y-94355820D01*
X167770537Y-94245506D01*
X167691185Y-94148815D01*
X167594494Y-94069463D01*
X167484180Y-94010498D01*
X167364482Y-93974188D01*
X167240000Y-93961928D01*
X165690000Y-93961928D01*
X165565518Y-93974188D01*
X165445820Y-94010498D01*
X165335506Y-94069463D01*
X165238815Y-94148815D01*
X165159463Y-94245506D01*
X165100498Y-94355820D01*
X165064188Y-94475518D01*
X165062762Y-94490000D01*
X161073322Y-94490000D01*
X161036000Y-94486324D01*
X160998678Y-94490000D01*
X159917238Y-94490000D01*
X159915812Y-94475518D01*
X159879502Y-94355820D01*
X159820537Y-94245506D01*
X159741185Y-94148815D01*
X159644494Y-94069463D01*
X159534180Y-94010498D01*
X159414482Y-93974188D01*
X159290000Y-93961928D01*
X157740000Y-93961928D01*
X157732000Y-93962716D01*
X157732000Y-92037284D01*
X157740000Y-92038072D01*
X158229250Y-92035000D01*
X158388000Y-91876250D01*
X158388000Y-90877000D01*
X158642000Y-90877000D01*
X158642000Y-91876250D01*
X158800750Y-92035000D01*
X159290000Y-92038072D01*
X159414482Y-92025812D01*
X159534180Y-91989502D01*
X159644494Y-91930537D01*
X159741185Y-91851185D01*
X159820537Y-91754494D01*
X159879502Y-91644180D01*
X159915812Y-91524482D01*
X159928072Y-91400000D01*
X165051928Y-91400000D01*
X165064188Y-91524482D01*
X165100498Y-91644180D01*
X165159463Y-91754494D01*
X165238815Y-91851185D01*
X165335506Y-91930537D01*
X165445820Y-91989502D01*
X165565518Y-92025812D01*
X165690000Y-92038072D01*
X166179250Y-92035000D01*
X166338000Y-91876250D01*
X166338000Y-90877000D01*
X166592000Y-90877000D01*
X166592000Y-91876250D01*
X166750750Y-92035000D01*
X167240000Y-92038072D01*
X167364482Y-92025812D01*
X167484180Y-91989502D01*
X167594494Y-91930537D01*
X167691185Y-91851185D01*
X167770537Y-91754494D01*
X167829502Y-91644180D01*
X167865812Y-91524482D01*
X167878072Y-91400000D01*
X167875000Y-91035750D01*
X167716250Y-90877000D01*
X166592000Y-90877000D01*
X166338000Y-90877000D01*
X165213750Y-90877000D01*
X165055000Y-91035750D01*
X165051928Y-91400000D01*
X159928072Y-91400000D01*
X159925000Y-91035750D01*
X159766250Y-90877000D01*
X158642000Y-90877000D01*
X158388000Y-90877000D01*
X158368000Y-90877000D01*
X158368000Y-90623000D01*
X158388000Y-90623000D01*
X158388000Y-89623750D01*
X158642000Y-89623750D01*
X158642000Y-90623000D01*
X159766250Y-90623000D01*
X159925000Y-90464250D01*
X159928072Y-90100000D01*
X165051928Y-90100000D01*
X165055000Y-90464250D01*
X165213750Y-90623000D01*
X166338000Y-90623000D01*
X166338000Y-89623750D01*
X166592000Y-89623750D01*
X166592000Y-90623000D01*
X167716250Y-90623000D01*
X167875000Y-90464250D01*
X167878072Y-90100000D01*
X167865812Y-89975518D01*
X167829502Y-89855820D01*
X167770537Y-89745506D01*
X167691185Y-89648815D01*
X167594494Y-89569463D01*
X167484180Y-89510498D01*
X167364482Y-89474188D01*
X167240000Y-89461928D01*
X166750750Y-89465000D01*
X166592000Y-89623750D01*
X166338000Y-89623750D01*
X166179250Y-89465000D01*
X165690000Y-89461928D01*
X165565518Y-89474188D01*
X165445820Y-89510498D01*
X165335506Y-89569463D01*
X165238815Y-89648815D01*
X165159463Y-89745506D01*
X165100498Y-89855820D01*
X165064188Y-89975518D01*
X165051928Y-90100000D01*
X159928072Y-90100000D01*
X159915812Y-89975518D01*
X159879502Y-89855820D01*
X159820537Y-89745506D01*
X159741185Y-89648815D01*
X159644494Y-89569463D01*
X159534180Y-89510498D01*
X159414482Y-89474188D01*
X159290000Y-89461928D01*
X158800750Y-89465000D01*
X158642000Y-89623750D01*
X158388000Y-89623750D01*
X158229250Y-89465000D01*
X157740000Y-89461928D01*
X157732000Y-89462716D01*
X157732000Y-70309322D01*
X157735676Y-70271999D01*
X157732000Y-70234676D01*
X157732000Y-70234667D01*
X157721003Y-70123014D01*
X157677546Y-69979753D01*
X157606974Y-69847723D01*
X157535799Y-69760997D01*
X157512001Y-69731999D01*
X157483003Y-69708201D01*
X150339900Y-62565098D01*
X164835000Y-62565098D01*
X164835000Y-63034902D01*
X164926654Y-63495679D01*
X165106440Y-63929721D01*
X165367450Y-64320349D01*
X165699651Y-64652550D01*
X166090279Y-64913560D01*
X166524321Y-65093346D01*
X166985098Y-65185000D01*
X167454902Y-65185000D01*
X167915679Y-65093346D01*
X168349721Y-64913560D01*
X168740349Y-64652550D01*
X169072550Y-64320349D01*
X169333560Y-63929721D01*
X169513346Y-63495679D01*
X169605000Y-63034902D01*
X169605000Y-62565098D01*
X169513346Y-62104321D01*
X169333560Y-61670279D01*
X169072550Y-61279651D01*
X168740349Y-60947450D01*
X168349721Y-60686440D01*
X167915679Y-60506654D01*
X167454902Y-60415000D01*
X166985098Y-60415000D01*
X166524321Y-60506654D01*
X166090279Y-60686440D01*
X165699651Y-60947450D01*
X165367450Y-61279651D01*
X165106440Y-61670279D01*
X164926654Y-62104321D01*
X164835000Y-62565098D01*
X150339900Y-62565098D01*
X147666372Y-59891571D01*
X147671637Y-59865098D01*
X151755000Y-59865098D01*
X151755000Y-60334902D01*
X151846654Y-60795679D01*
X152026440Y-61229721D01*
X152287450Y-61620349D01*
X152619651Y-61952550D01*
X153010279Y-62213560D01*
X153444321Y-62393346D01*
X153905098Y-62485000D01*
X154374902Y-62485000D01*
X154835679Y-62393346D01*
X155269721Y-62213560D01*
X155660349Y-61952550D01*
X155992550Y-61620349D01*
X156253560Y-61229721D01*
X156433346Y-60795679D01*
X156525000Y-60334902D01*
X156525000Y-59865098D01*
X156433346Y-59404321D01*
X156253560Y-58970279D01*
X155992550Y-58579651D01*
X155660349Y-58247450D01*
X155269721Y-57986440D01*
X154835679Y-57806654D01*
X154374902Y-57715000D01*
X153905098Y-57715000D01*
X153444321Y-57806654D01*
X153010279Y-57986440D01*
X152619651Y-58247450D01*
X152287450Y-58579651D01*
X152026440Y-58970279D01*
X151846654Y-59404321D01*
X151755000Y-59865098D01*
X147671637Y-59865098D01*
X147697000Y-59737592D01*
X147697000Y-59462408D01*
X147643314Y-59192510D01*
X147538005Y-58938273D01*
X147385120Y-58709465D01*
X147190535Y-58514880D01*
X146961727Y-58361995D01*
X146707490Y-58256686D01*
X146437592Y-58203000D01*
X146162408Y-58203000D01*
X145892510Y-58256686D01*
X145638273Y-58361995D01*
X145409465Y-58514880D01*
X145214880Y-58709465D01*
X145061995Y-58938273D01*
X145030000Y-59015515D01*
X144998005Y-58938273D01*
X144845120Y-58709465D01*
X144650535Y-58514880D01*
X144421727Y-58361995D01*
X144167490Y-58256686D01*
X143897592Y-58203000D01*
X143622408Y-58203000D01*
X143352510Y-58256686D01*
X143098273Y-58361995D01*
X142869465Y-58514880D01*
X142674880Y-58709465D01*
X142521995Y-58938273D01*
X142490000Y-59015515D01*
X142458005Y-58938273D01*
X142305120Y-58709465D01*
X142110535Y-58514880D01*
X141881727Y-58361995D01*
X141627490Y-58256686D01*
X141357592Y-58203000D01*
X141082408Y-58203000D01*
X140812510Y-58256686D01*
X140558273Y-58361995D01*
X140329465Y-58514880D01*
X140134880Y-58709465D01*
X139981995Y-58938273D01*
X139952308Y-59009943D01*
X139947636Y-58996977D01*
X139885656Y-58881020D01*
X139645565Y-58814040D01*
X138859605Y-59600000D01*
X138500395Y-59600000D01*
X137714435Y-58814040D01*
X137474344Y-58881020D01*
X137357244Y-59130048D01*
X137290977Y-59397135D01*
X137278090Y-59672017D01*
X133186594Y-59672017D01*
X133133346Y-59404321D01*
X132953560Y-58970279D01*
X132729156Y-58634435D01*
X137894040Y-58634435D01*
X138680000Y-59420395D01*
X139465960Y-58634435D01*
X139398980Y-58394344D01*
X139149952Y-58277244D01*
X138882865Y-58210977D01*
X138607983Y-58198090D01*
X138335867Y-58239078D01*
X138076977Y-58332364D01*
X137961020Y-58394344D01*
X137894040Y-58634435D01*
X132729156Y-58634435D01*
X132692550Y-58579651D01*
X132360349Y-58247450D01*
X131969721Y-57986440D01*
X131535679Y-57806654D01*
X131074902Y-57715000D01*
X130605098Y-57715000D01*
X130144321Y-57806654D01*
X129710279Y-57986440D01*
X129319651Y-58247450D01*
X128987450Y-58579651D01*
X128726440Y-58970279D01*
X128546654Y-59404321D01*
X128455000Y-59865098D01*
X117705939Y-59865098D01*
X117883111Y-59810254D01*
X117942402Y-59785330D01*
X118002100Y-59761211D01*
X118010847Y-59756559D01*
X118010851Y-59756557D01*
X118010854Y-59756555D01*
X118379958Y-59556982D01*
X118433302Y-59521001D01*
X118487154Y-59485761D01*
X118494836Y-59479495D01*
X118547412Y-59436000D01*
X118999000Y-59436000D01*
X119023776Y-59433560D01*
X119047601Y-59426333D01*
X119069557Y-59414597D01*
X119088803Y-59398803D01*
X119104597Y-59379557D01*
X119116333Y-59357601D01*
X119123560Y-59333776D01*
X119126000Y-59309000D01*
X119126000Y-58855959D01*
X119180991Y-58788533D01*
X119216599Y-58734939D01*
X119252959Y-58681836D01*
X119257674Y-58673116D01*
X119454667Y-58302625D01*
X119479182Y-58243148D01*
X119504539Y-58183984D01*
X119507471Y-58174514D01*
X119628751Y-57772818D01*
X119641245Y-57709720D01*
X119654630Y-57646746D01*
X119655666Y-57636887D01*
X119696612Y-57219283D01*
X119696612Y-57219277D01*
X119700000Y-57184877D01*
X119700000Y-55065098D01*
X140105000Y-55065098D01*
X140105000Y-55534902D01*
X140196654Y-55995679D01*
X140376440Y-56429721D01*
X140637450Y-56820349D01*
X140969651Y-57152550D01*
X141360279Y-57413560D01*
X141794321Y-57593346D01*
X142255098Y-57685000D01*
X142724902Y-57685000D01*
X143185679Y-57593346D01*
X143619721Y-57413560D01*
X144010349Y-57152550D01*
X144342550Y-56820349D01*
X144603560Y-56429721D01*
X144783346Y-55995679D01*
X144875000Y-55534902D01*
X144875000Y-55065098D01*
X144783346Y-54604321D01*
X144603560Y-54170279D01*
X144342550Y-53779651D01*
X144010349Y-53447450D01*
X143619721Y-53186440D01*
X143185679Y-53006654D01*
X142724902Y-52915000D01*
X142255098Y-52915000D01*
X141794321Y-53006654D01*
X141360279Y-53186440D01*
X140969651Y-53447450D01*
X140637450Y-53779651D01*
X140376440Y-54170279D01*
X140196654Y-54604321D01*
X140105000Y-55065098D01*
X119700000Y-55065098D01*
X119700000Y-51510000D01*
X165280001Y-51510000D01*
X165280000Y-57184876D01*
M02*
