G04 #@! TF.GenerationSoftware,KiCad,Pcbnew,5.1.4+dfsg1-1*
G04 #@! TF.CreationDate,2020-04-18T12:41:44+10:00*
G04 #@! TF.ProjectId,temp0_schematic,74656d70-305f-4736-9368-656d61746963,rev?*
G04 #@! TF.SameCoordinates,Original*
G04 #@! TF.FileFunction,Legend,Bot*
G04 #@! TF.FilePolarity,Positive*
%FSLAX46Y46*%
G04 Gerber Fmt 4.6, Leading zero omitted, Abs format (unit mm)*
G04 Created by KiCad (PCBNEW 5.1.4+dfsg1-1) date 2020-04-18 12:41:44*
%MOMM*%
%LPD*%
G04 APERTURE LIST*
%ADD10C,0.010000*%
%ADD11C,0.120000*%
%ADD12C,0.150000*%
G04 APERTURE END LIST*
D10*
G36*
X159635619Y-66255048D02*
G01*
X159617147Y-66271977D01*
X159557100Y-66594138D01*
X159544498Y-66661789D01*
X159530731Y-66735777D01*
X159516210Y-66813878D01*
X159501350Y-66893867D01*
X159486562Y-66973520D01*
X159472260Y-67050613D01*
X159458858Y-67122922D01*
X159446767Y-67188223D01*
X159443035Y-67208400D01*
X159431152Y-67272542D01*
X159420888Y-67327465D01*
X159412033Y-67373943D01*
X159404380Y-67412750D01*
X159397719Y-67444661D01*
X159391842Y-67470449D01*
X159386539Y-67490891D01*
X159381601Y-67506759D01*
X159376820Y-67518829D01*
X159371988Y-67527876D01*
X159366894Y-67534672D01*
X159361330Y-67539994D01*
X159355087Y-67544616D01*
X159351760Y-67546831D01*
X159344594Y-67550390D01*
X159328973Y-67557363D01*
X159305856Y-67567348D01*
X159276203Y-67579940D01*
X159240971Y-67594734D01*
X159201122Y-67611325D01*
X159157614Y-67629309D01*
X159111405Y-67648282D01*
X159104100Y-67651270D01*
X159056078Y-67670906D01*
X159009373Y-67690009D01*
X158965136Y-67708107D01*
X158924519Y-67724730D01*
X158888677Y-67739404D01*
X158858759Y-67751660D01*
X158835920Y-67761023D01*
X158821312Y-67767024D01*
X158821120Y-67767103D01*
X158796146Y-67777372D01*
X158765955Y-67789764D01*
X158734735Y-67802561D01*
X158711900Y-67811908D01*
X158682826Y-67823822D01*
X158648614Y-67837875D01*
X158613513Y-67852322D01*
X158581774Y-67865413D01*
X158581515Y-67865520D01*
X158546128Y-67879454D01*
X158517941Y-67888715D01*
X158495245Y-67893514D01*
X158476330Y-67894064D01*
X158459488Y-67890575D01*
X158443009Y-67883259D01*
X158442114Y-67882770D01*
X158432683Y-67876996D01*
X158416162Y-67866271D01*
X158393806Y-67851435D01*
X158366872Y-67833330D01*
X158336617Y-67812795D01*
X158304295Y-67790673D01*
X158296020Y-67784980D01*
X158223108Y-67734772D01*
X158154941Y-67687858D01*
X158089221Y-67642659D01*
X158023652Y-67597595D01*
X157955937Y-67551088D01*
X157883779Y-67501559D01*
X157827980Y-67463276D01*
X157789821Y-67437098D01*
X157751524Y-67410824D01*
X157714586Y-67385481D01*
X157680504Y-67362097D01*
X157650775Y-67341697D01*
X157626895Y-67325310D01*
X157614620Y-67316886D01*
X157569149Y-67285687D01*
X157531265Y-67259755D01*
X157500179Y-67238603D01*
X157475106Y-67221744D01*
X157455257Y-67208692D01*
X157439846Y-67198958D01*
X157428086Y-67192057D01*
X157419189Y-67187502D01*
X157412368Y-67184806D01*
X157406835Y-67183481D01*
X157401804Y-67183041D01*
X157398146Y-67183000D01*
X157381051Y-67184884D01*
X157365786Y-67189502D01*
X157364178Y-67190293D01*
X157358816Y-67194810D01*
X157346857Y-67205997D01*
X157328842Y-67223312D01*
X157305314Y-67246211D01*
X157276816Y-67274151D01*
X157243891Y-67306589D01*
X157207080Y-67342983D01*
X157166927Y-67382789D01*
X157123974Y-67425464D01*
X157078764Y-67470466D01*
X157031838Y-67517250D01*
X156983741Y-67565275D01*
X156935013Y-67613997D01*
X156886198Y-67662874D01*
X156837838Y-67711361D01*
X156790476Y-67758916D01*
X156744654Y-67804997D01*
X156700915Y-67849059D01*
X156659802Y-67890561D01*
X156621856Y-67928959D01*
X156587621Y-67963710D01*
X156557639Y-67994271D01*
X156532452Y-68020098D01*
X156512603Y-68040650D01*
X156498635Y-68055383D01*
X156491090Y-68063754D01*
X156489927Y-68065316D01*
X156484425Y-68087292D01*
X156488617Y-68112182D01*
X156500830Y-68137266D01*
X156507867Y-68148178D01*
X156519806Y-68166155D01*
X156535773Y-68189904D01*
X156554894Y-68218131D01*
X156576296Y-68249543D01*
X156599104Y-68282848D01*
X156607125Y-68294522D01*
X156633749Y-68333238D01*
X156662478Y-68375029D01*
X156691713Y-68417567D01*
X156719854Y-68458525D01*
X156745302Y-68495575D01*
X156764899Y-68524120D01*
X156814060Y-68595746D01*
X156857986Y-68659739D01*
X156897187Y-68716844D01*
X156932175Y-68767804D01*
X156963461Y-68813366D01*
X156991558Y-68854273D01*
X157016975Y-68891270D01*
X157040226Y-68925102D01*
X157061821Y-68956513D01*
X157082272Y-68986249D01*
X157088363Y-68995105D01*
X157109154Y-69025431D01*
X157128602Y-69053998D01*
X157145780Y-69079427D01*
X157159760Y-69100339D01*
X157169613Y-69115354D01*
X157173847Y-69122105D01*
X157177596Y-69128424D01*
X157180774Y-69134324D01*
X157183174Y-69140394D01*
X157184591Y-69147224D01*
X157184820Y-69155403D01*
X157183655Y-69165521D01*
X157180892Y-69178168D01*
X157176324Y-69193931D01*
X157169747Y-69213402D01*
X157160955Y-69237170D01*
X157149743Y-69265824D01*
X157135905Y-69299953D01*
X157119236Y-69340147D01*
X157099531Y-69386996D01*
X157076584Y-69441088D01*
X157050190Y-69503014D01*
X157020144Y-69573363D01*
X157001210Y-69617677D01*
X156966110Y-69699687D01*
X156934766Y-69772593D01*
X156907052Y-69836682D01*
X156882840Y-69892239D01*
X156862003Y-69939548D01*
X156844414Y-69978896D01*
X156829946Y-70010568D01*
X156818472Y-70034849D01*
X156809865Y-70052024D01*
X156803997Y-70062380D01*
X156801820Y-70065350D01*
X156794223Y-70072786D01*
X156785417Y-70079220D01*
X156774242Y-70084998D01*
X156759535Y-70090465D01*
X156740134Y-70095969D01*
X156714879Y-70101855D01*
X156682607Y-70108470D01*
X156642155Y-70116160D01*
X156613860Y-70121363D01*
X156539724Y-70134922D01*
X156463991Y-70148830D01*
X156387324Y-70162963D01*
X156310388Y-70177195D01*
X156233845Y-70191401D01*
X156158358Y-70205457D01*
X156084590Y-70219237D01*
X156013205Y-70232616D01*
X155944866Y-70245470D01*
X155880235Y-70257672D01*
X155819976Y-70269098D01*
X155764753Y-70279623D01*
X155715227Y-70289122D01*
X155672063Y-70297470D01*
X155635924Y-70304541D01*
X155607472Y-70310211D01*
X155587371Y-70314354D01*
X155576284Y-70316846D01*
X155574366Y-70317416D01*
X155563336Y-70325338D01*
X155552235Y-70337505D01*
X155550777Y-70339543D01*
X155539440Y-70356088D01*
X155539459Y-70972994D01*
X155539465Y-71065002D01*
X155539482Y-71147397D01*
X155539519Y-71220726D01*
X155539585Y-71285535D01*
X155539688Y-71342371D01*
X155539837Y-71391781D01*
X155540041Y-71434311D01*
X155540309Y-71470508D01*
X155540649Y-71500919D01*
X155541070Y-71526091D01*
X155541582Y-71546570D01*
X155542192Y-71562903D01*
X155542909Y-71575638D01*
X155543742Y-71585320D01*
X155544700Y-71592496D01*
X155545792Y-71597714D01*
X155547026Y-71601519D01*
X155548411Y-71604459D01*
X155549585Y-71606475D01*
X155561051Y-71619917D01*
X155575220Y-71630125D01*
X155576236Y-71630611D01*
X155579596Y-71631817D01*
X155585464Y-71633438D01*
X155594243Y-71635551D01*
X155606336Y-71638233D01*
X155622145Y-71641559D01*
X155642074Y-71645607D01*
X155666526Y-71650453D01*
X155695902Y-71656173D01*
X155730606Y-71662844D01*
X155771042Y-71670543D01*
X155817610Y-71679346D01*
X155870716Y-71689329D01*
X155930761Y-71700570D01*
X155998148Y-71713144D01*
X156073280Y-71727128D01*
X156156561Y-71742600D01*
X156248392Y-71759634D01*
X156349176Y-71778308D01*
X156459318Y-71798698D01*
X156527500Y-71811314D01*
X156571120Y-71819437D01*
X156612129Y-71827174D01*
X156649328Y-71834292D01*
X156681517Y-71840557D01*
X156707496Y-71845736D01*
X156726065Y-71849593D01*
X156736024Y-71851896D01*
X156736715Y-71852097D01*
X156742872Y-71854122D01*
X156748567Y-71856505D01*
X156754057Y-71859794D01*
X156759596Y-71864532D01*
X156765438Y-71871268D01*
X156771838Y-71880548D01*
X156779050Y-71892917D01*
X156787330Y-71908922D01*
X156796931Y-71929110D01*
X156808109Y-71954027D01*
X156821118Y-71984218D01*
X156836212Y-72020231D01*
X156853647Y-72062611D01*
X156873676Y-72111906D01*
X156896555Y-72168660D01*
X156922539Y-72233421D01*
X156951880Y-72306735D01*
X156971681Y-72356250D01*
X157002204Y-72432612D01*
X157029158Y-72500124D01*
X157052759Y-72559363D01*
X157073222Y-72610906D01*
X157090763Y-72655331D01*
X157105598Y-72693216D01*
X157117943Y-72725139D01*
X157128015Y-72751677D01*
X157136027Y-72773408D01*
X157142198Y-72790909D01*
X157146742Y-72804759D01*
X157149875Y-72815535D01*
X157151814Y-72823814D01*
X157152774Y-72830175D01*
X157152971Y-72835195D01*
X157152620Y-72839451D01*
X157152519Y-72840160D01*
X157151638Y-72845101D01*
X157150241Y-72850318D01*
X157147945Y-72856399D01*
X157144369Y-72863933D01*
X157139130Y-72873510D01*
X157131846Y-72885720D01*
X157122136Y-72901151D01*
X157109618Y-72920392D01*
X157093910Y-72944033D01*
X157074629Y-72972663D01*
X157051393Y-73006872D01*
X157023822Y-73047248D01*
X156991532Y-73094380D01*
X156954142Y-73148859D01*
X156923230Y-73193863D01*
X156864328Y-73279609D01*
X156801500Y-73371084D01*
X156736564Y-73465637D01*
X156671341Y-73560619D01*
X156607649Y-73653381D01*
X156559510Y-73723500D01*
X156539784Y-73752696D01*
X156521952Y-73779970D01*
X156506864Y-73803948D01*
X156495374Y-73823253D01*
X156488333Y-73836513D01*
X156486551Y-73841212D01*
X156485358Y-73846901D01*
X156484439Y-73852141D01*
X156484162Y-73857344D01*
X156484895Y-73862918D01*
X156487008Y-73869274D01*
X156490870Y-73876821D01*
X156496849Y-73885969D01*
X156505314Y-73897127D01*
X156516634Y-73910705D01*
X156531179Y-73927114D01*
X156549316Y-73946761D01*
X156571415Y-73970059D01*
X156597845Y-73997414D01*
X156628974Y-74029239D01*
X156665172Y-74065942D01*
X156706807Y-74107933D01*
X156754248Y-74155621D01*
X156807864Y-74209417D01*
X156868025Y-74269730D01*
X156912803Y-74314618D01*
X156967668Y-74369554D01*
X157020837Y-74422661D01*
X157071836Y-74473474D01*
X157120193Y-74521526D01*
X157165435Y-74566352D01*
X157207087Y-74607485D01*
X157244677Y-74644460D01*
X157277731Y-74676811D01*
X157305777Y-74704072D01*
X157328341Y-74725776D01*
X157344949Y-74741459D01*
X157355130Y-74750653D01*
X157357805Y-74752768D01*
X157381095Y-74764322D01*
X157402353Y-74766713D01*
X157423487Y-74760143D01*
X157424162Y-74759798D01*
X157430996Y-74755542D01*
X157446052Y-74745604D01*
X157469196Y-74730077D01*
X157500290Y-74709054D01*
X157539198Y-74682628D01*
X157585785Y-74650892D01*
X157639914Y-74613939D01*
X157701449Y-74571863D01*
X157770254Y-74524756D01*
X157846193Y-74472711D01*
X157929129Y-74415822D01*
X158018927Y-74354181D01*
X158115450Y-74287881D01*
X158218562Y-74217016D01*
X158227866Y-74210621D01*
X158259558Y-74188921D01*
X158289199Y-74168793D01*
X158315566Y-74151053D01*
X158337434Y-74136520D01*
X158353582Y-74126011D01*
X158362786Y-74120343D01*
X158363503Y-74119955D01*
X158378174Y-74115077D01*
X158396581Y-74112337D01*
X158402596Y-74112120D01*
X158409180Y-74112513D01*
X158416730Y-74113972D01*
X158426125Y-74116916D01*
X158438244Y-74121763D01*
X158453968Y-74128932D01*
X158474175Y-74138841D01*
X158499745Y-74151910D01*
X158531558Y-74168558D01*
X158570491Y-74189202D01*
X158617426Y-74214262D01*
X158620018Y-74215649D01*
X158661652Y-74237911D01*
X158701209Y-74259034D01*
X158737638Y-74278457D01*
X158769889Y-74295622D01*
X158796909Y-74309970D01*
X158817647Y-74320941D01*
X158831052Y-74327976D01*
X158834888Y-74329949D01*
X158860496Y-74339076D01*
X158883156Y-74339568D01*
X158901738Y-74331434D01*
X158904306Y-74329290D01*
X158907161Y-74324758D01*
X158912532Y-74313972D01*
X158920502Y-74296731D01*
X158931158Y-74272834D01*
X158944582Y-74242082D01*
X158960860Y-74204274D01*
X158980075Y-74159209D01*
X159002313Y-74106687D01*
X159027658Y-74046508D01*
X159056193Y-73978471D01*
X159088004Y-73902377D01*
X159123175Y-73818024D01*
X159161791Y-73725213D01*
X159203935Y-73623743D01*
X159249693Y-73513413D01*
X159299149Y-73394024D01*
X159337293Y-73301860D01*
X159377489Y-73204644D01*
X159416660Y-73109788D01*
X159454627Y-73017729D01*
X159491211Y-72928904D01*
X159526235Y-72843750D01*
X159559519Y-72762705D01*
X159590884Y-72686206D01*
X159620153Y-72614690D01*
X159647147Y-72548595D01*
X159671686Y-72488358D01*
X159693593Y-72434416D01*
X159712689Y-72387207D01*
X159728795Y-72347168D01*
X159741732Y-72314736D01*
X159751322Y-72290349D01*
X159757387Y-72274444D01*
X159759748Y-72267458D01*
X159759769Y-72267328D01*
X159760276Y-72252016D01*
X159757272Y-72238642D01*
X159749698Y-72225959D01*
X159736495Y-72212725D01*
X159716605Y-72197692D01*
X159688970Y-72179617D01*
X159680920Y-72174597D01*
X159655860Y-72158776D01*
X159631873Y-72143114D01*
X159611267Y-72129151D01*
X159596347Y-72118429D01*
X159593280Y-72116039D01*
X159580536Y-72106169D01*
X159561812Y-72092171D01*
X159539440Y-72075766D01*
X159515748Y-72058674D01*
X159511036Y-72055310D01*
X159419713Y-71984118D01*
X159335724Y-71906088D01*
X159259343Y-71821692D01*
X159190845Y-71731401D01*
X159130503Y-71635684D01*
X159078593Y-71535012D01*
X159035389Y-71429855D01*
X159001166Y-71320684D01*
X158976197Y-71207970D01*
X158963147Y-71116274D01*
X158960407Y-71080629D01*
X158958915Y-71038007D01*
X158958604Y-70990821D01*
X158959407Y-70941482D01*
X158961256Y-70892404D01*
X158964084Y-70845997D01*
X158967823Y-70804673D01*
X158972406Y-70770846D01*
X158972870Y-70768182D01*
X158996026Y-70659562D01*
X159025809Y-70557564D01*
X159062842Y-70460611D01*
X159107751Y-70367129D01*
X159161158Y-70275542D01*
X159178545Y-70248780D01*
X159244685Y-70158184D01*
X159318580Y-70073391D01*
X159399444Y-69995029D01*
X159486488Y-69923727D01*
X159578922Y-69860113D01*
X159675959Y-69804818D01*
X159776811Y-69758469D01*
X159809180Y-69745845D01*
X159902731Y-69714233D01*
X159993868Y-69690530D01*
X160085265Y-69674257D01*
X160179592Y-69664935D01*
X160276389Y-69662081D01*
X160328950Y-69662592D01*
X160374322Y-69664237D01*
X160415434Y-69667265D01*
X160455219Y-69671919D01*
X160496606Y-69678446D01*
X160518097Y-69682353D01*
X160631521Y-69708741D01*
X160740959Y-69744390D01*
X160846070Y-69789123D01*
X160946514Y-69842759D01*
X161041951Y-69905121D01*
X161132040Y-69976029D01*
X161204054Y-70042786D01*
X161266031Y-70107748D01*
X161320101Y-70171503D01*
X161367900Y-70236320D01*
X161411068Y-70304471D01*
X161451243Y-70378225D01*
X161462662Y-70401180D01*
X161507421Y-70501952D01*
X161542671Y-70601876D01*
X161568773Y-70702502D01*
X161586089Y-70805385D01*
X161594981Y-70912079D01*
X161596419Y-70975220D01*
X161595997Y-71029977D01*
X161594269Y-71077657D01*
X161590956Y-71121293D01*
X161585778Y-71163914D01*
X161578457Y-71208553D01*
X161571692Y-71243690D01*
X161544895Y-71351316D01*
X161508435Y-71457324D01*
X161462792Y-71560703D01*
X161408446Y-71660440D01*
X161345877Y-71755524D01*
X161301771Y-71813426D01*
X161273156Y-71846884D01*
X161238889Y-71883643D01*
X161201173Y-71921574D01*
X161162210Y-71958549D01*
X161124201Y-71992437D01*
X161089349Y-72021111D01*
X161078194Y-72029602D01*
X161052735Y-72048477D01*
X161024670Y-72069273D01*
X160998007Y-72089022D01*
X160982583Y-72100440D01*
X160960374Y-72116307D01*
X160932949Y-72135055D01*
X160903805Y-72154335D01*
X160876608Y-72171688D01*
X160844951Y-72192342D01*
X160821653Y-72209909D01*
X160805764Y-72225367D01*
X160796333Y-72239699D01*
X160792409Y-72253885D01*
X160792160Y-72258822D01*
X160794074Y-72265255D01*
X160799660Y-72280497D01*
X160808687Y-72303975D01*
X160820924Y-72335118D01*
X160836141Y-72373354D01*
X160854107Y-72418111D01*
X160874589Y-72468818D01*
X160897358Y-72524902D01*
X160922182Y-72585792D01*
X160948829Y-72650917D01*
X160977070Y-72719703D01*
X161006673Y-72791580D01*
X161037407Y-72865976D01*
X161041787Y-72876561D01*
X161073109Y-72952238D01*
X161103671Y-73026083D01*
X161133212Y-73097470D01*
X161161474Y-73165769D01*
X161188197Y-73230353D01*
X161213119Y-73290593D01*
X161235982Y-73345860D01*
X161256526Y-73395527D01*
X161274490Y-73438966D01*
X161289615Y-73475548D01*
X161301641Y-73504644D01*
X161310308Y-73525627D01*
X161315356Y-73537869D01*
X161315443Y-73538080D01*
X161325666Y-73562888D01*
X161338535Y-73594050D01*
X161352798Y-73628534D01*
X161367201Y-73663312D01*
X161376360Y-73685400D01*
X161390156Y-73718667D01*
X161404663Y-73753683D01*
X161418626Y-73787419D01*
X161430791Y-73816843D01*
X161437346Y-73832720D01*
X161448545Y-73859852D01*
X161462060Y-73892566D01*
X161476319Y-73927060D01*
X161489751Y-73959528D01*
X161491933Y-73964800D01*
X161504832Y-73995962D01*
X161520077Y-74032792D01*
X161536126Y-74071568D01*
X161551441Y-74108570D01*
X161558166Y-74124820D01*
X161571713Y-74157541D01*
X161585932Y-74191875D01*
X161599564Y-74224775D01*
X161611344Y-74253196D01*
X161617094Y-74267060D01*
X161627161Y-74289904D01*
X161637040Y-74309867D01*
X161645544Y-74324688D01*
X161651123Y-74331830D01*
X161657120Y-74336291D01*
X161663367Y-74339407D01*
X161670651Y-74340859D01*
X161679758Y-74340331D01*
X161691476Y-74337506D01*
X161706593Y-74332068D01*
X161725894Y-74323701D01*
X161750168Y-74312086D01*
X161780200Y-74296909D01*
X161816779Y-74277852D01*
X161860692Y-74254598D01*
X161912725Y-74226831D01*
X161914556Y-74225852D01*
X162129398Y-74110985D01*
X162158217Y-74113070D01*
X162163518Y-74113457D01*
X162168523Y-74114043D01*
X162173789Y-74115187D01*
X162179878Y-74117248D01*
X162187348Y-74120587D01*
X162196760Y-74125561D01*
X162208673Y-74132530D01*
X162223647Y-74141855D01*
X162242242Y-74153893D01*
X162265016Y-74169005D01*
X162292532Y-74187550D01*
X162325346Y-74209886D01*
X162364021Y-74236374D01*
X162409114Y-74267373D01*
X162461187Y-74303242D01*
X162520799Y-74344340D01*
X162552380Y-74366117D01*
X162572111Y-74379703D01*
X162598907Y-74398125D01*
X162631451Y-74420479D01*
X162668424Y-74445860D01*
X162708509Y-74473363D01*
X162750389Y-74502085D01*
X162792745Y-74531121D01*
X162811460Y-74543947D01*
X162852969Y-74572399D01*
X162894052Y-74600579D01*
X162933487Y-74627648D01*
X162970050Y-74652764D01*
X163002519Y-74675088D01*
X163029671Y-74693779D01*
X163050282Y-74707997D01*
X163057840Y-74713227D01*
X163088757Y-74734242D01*
X163113113Y-74749582D01*
X163132369Y-74759806D01*
X163147986Y-74765472D01*
X163161426Y-74767141D01*
X163174150Y-74765371D01*
X163184840Y-74761838D01*
X163190054Y-74757647D01*
X163201879Y-74746783D01*
X163219774Y-74729786D01*
X163243198Y-74707196D01*
X163271608Y-74679555D01*
X163304462Y-74647402D01*
X163341218Y-74611279D01*
X163381335Y-74571725D01*
X163424269Y-74529282D01*
X163469479Y-74484489D01*
X163516424Y-74437888D01*
X163564560Y-74390019D01*
X163613347Y-74341423D01*
X163662242Y-74292640D01*
X163710702Y-74244210D01*
X163758187Y-74196675D01*
X163804153Y-74150574D01*
X163848060Y-74106449D01*
X163889364Y-74064840D01*
X163927524Y-74026287D01*
X163961998Y-73991331D01*
X163992244Y-73960513D01*
X164017720Y-73934373D01*
X164037884Y-73913451D01*
X164052194Y-73898289D01*
X164060107Y-73889426D01*
X164061467Y-73887582D01*
X164067810Y-73866261D01*
X164067316Y-73842497D01*
X164060134Y-73821223D01*
X164059424Y-73820020D01*
X164055351Y-73813860D01*
X164045906Y-73799883D01*
X164031468Y-73778645D01*
X164012420Y-73750702D01*
X163989142Y-73716611D01*
X163962013Y-73676928D01*
X163931416Y-73632211D01*
X163897730Y-73583014D01*
X163861336Y-73529896D01*
X163822615Y-73473412D01*
X163781948Y-73414119D01*
X163739715Y-73352573D01*
X163732080Y-73341450D01*
X163689678Y-73279657D01*
X163648826Y-73220078D01*
X163609899Y-73163264D01*
X163573272Y-73109765D01*
X163539322Y-73060131D01*
X163508425Y-73014913D01*
X163480956Y-72974661D01*
X163457292Y-72939926D01*
X163437807Y-72911258D01*
X163422878Y-72889207D01*
X163412881Y-72874325D01*
X163408191Y-72867161D01*
X163407932Y-72866718D01*
X163405176Y-72861308D01*
X163403004Y-72855837D01*
X163401610Y-72849735D01*
X163401191Y-72842429D01*
X163401942Y-72833346D01*
X163404059Y-72821915D01*
X163407738Y-72807564D01*
X163413173Y-72789720D01*
X163420562Y-72767811D01*
X163430099Y-72741266D01*
X163441981Y-72709511D01*
X163456402Y-72671975D01*
X163473560Y-72628086D01*
X163493648Y-72577272D01*
X163516864Y-72518960D01*
X163543403Y-72452578D01*
X163573460Y-72377554D01*
X163585630Y-72347198D01*
X163616932Y-72269135D01*
X163644709Y-72199951D01*
X163669220Y-72139095D01*
X163690720Y-72086016D01*
X163709468Y-72040162D01*
X163725721Y-72000983D01*
X163739736Y-71967927D01*
X163751769Y-71940444D01*
X163762080Y-71917982D01*
X163770925Y-71899991D01*
X163778560Y-71885918D01*
X163785244Y-71875214D01*
X163791234Y-71867327D01*
X163796787Y-71861705D01*
X163802160Y-71857799D01*
X163807611Y-71855056D01*
X163813397Y-71852926D01*
X163816934Y-71851778D01*
X163828322Y-71848826D01*
X163846900Y-71844769D01*
X163869841Y-71840200D01*
X163888420Y-71836757D01*
X163925959Y-71829989D01*
X163969761Y-71822012D01*
X164019056Y-71812973D01*
X164073073Y-71803016D01*
X164131041Y-71792287D01*
X164192190Y-71780930D01*
X164255749Y-71769090D01*
X164320947Y-71756914D01*
X164387013Y-71744545D01*
X164453177Y-71732130D01*
X164518668Y-71719813D01*
X164582715Y-71707739D01*
X164644547Y-71696054D01*
X164703394Y-71684902D01*
X164758484Y-71674430D01*
X164809048Y-71664781D01*
X164854314Y-71656102D01*
X164893512Y-71648536D01*
X164925870Y-71642230D01*
X164950619Y-71637329D01*
X164966986Y-71633977D01*
X164974203Y-71632320D01*
X164974373Y-71632261D01*
X164987286Y-71624477D01*
X164999966Y-71612954D01*
X165001043Y-71611711D01*
X165013641Y-71596740D01*
X165013640Y-70977117D01*
X165013649Y-70883146D01*
X165013658Y-70798804D01*
X165013644Y-70723559D01*
X165013582Y-70656880D01*
X165013449Y-70598236D01*
X165013221Y-70547097D01*
X165012873Y-70502930D01*
X165012382Y-70465205D01*
X165011724Y-70433390D01*
X165010874Y-70406955D01*
X165009809Y-70385367D01*
X165008504Y-70368096D01*
X165006936Y-70354611D01*
X165005081Y-70344380D01*
X165002915Y-70336872D01*
X165000413Y-70331556D01*
X164997551Y-70327901D01*
X164994306Y-70325375D01*
X164990654Y-70323448D01*
X164986570Y-70321588D01*
X164983959Y-70320312D01*
X164980474Y-70318639D01*
X164976177Y-70316956D01*
X164970352Y-70315119D01*
X164962282Y-70312984D01*
X164951250Y-70310409D01*
X164936539Y-70307249D01*
X164917431Y-70303362D01*
X164893212Y-70298603D01*
X164863162Y-70292829D01*
X164826566Y-70285896D01*
X164782707Y-70277661D01*
X164730867Y-70267981D01*
X164670331Y-70256711D01*
X164614860Y-70246399D01*
X164508663Y-70226661D01*
X164411995Y-70208687D01*
X164324399Y-70192388D01*
X164245414Y-70177674D01*
X164174583Y-70164456D01*
X164111444Y-70152645D01*
X164055540Y-70142152D01*
X164006410Y-70132889D01*
X163963596Y-70124764D01*
X163926639Y-70117691D01*
X163895078Y-70111578D01*
X163868456Y-70106338D01*
X163846312Y-70101880D01*
X163828187Y-70098117D01*
X163813622Y-70094958D01*
X163802159Y-70092315D01*
X163793337Y-70090098D01*
X163786697Y-70088218D01*
X163781780Y-70086586D01*
X163778128Y-70085113D01*
X163775279Y-70083710D01*
X163774415Y-70083234D01*
X163759304Y-70072124D01*
X163746394Y-70058461D01*
X163745168Y-70056739D01*
X163741582Y-70049759D01*
X163734309Y-70034123D01*
X163723649Y-70010519D01*
X163709904Y-69979634D01*
X163693375Y-69942157D01*
X163674363Y-69898775D01*
X163653170Y-69850176D01*
X163630097Y-69797048D01*
X163605446Y-69740078D01*
X163579518Y-69679955D01*
X163552614Y-69617367D01*
X163550945Y-69613477D01*
X163515853Y-69531537D01*
X163484772Y-69458632D01*
X163457598Y-69394506D01*
X163434225Y-69338904D01*
X163414550Y-69291573D01*
X163398467Y-69252256D01*
X163385871Y-69220700D01*
X163376658Y-69196650D01*
X163370723Y-69179850D01*
X163367960Y-69170047D01*
X163367720Y-69168037D01*
X163369188Y-69151305D01*
X163372731Y-69136447D01*
X163372844Y-69136145D01*
X163376331Y-69130294D01*
X163385216Y-69116603D01*
X163399141Y-69095603D01*
X163417745Y-69067826D01*
X163440668Y-69033802D01*
X163467550Y-68994062D01*
X163498031Y-68949136D01*
X163531751Y-68899556D01*
X163568350Y-68845853D01*
X163607469Y-68788556D01*
X163648746Y-68728198D01*
X163691823Y-68665308D01*
X163721532Y-68621991D01*
X163774351Y-68545023D01*
X163821716Y-68475982D01*
X163863907Y-68414406D01*
X163901207Y-68359836D01*
X163933895Y-68311810D01*
X163962253Y-68269869D01*
X163986561Y-68233552D01*
X164007101Y-68202398D01*
X164024154Y-68175948D01*
X164038000Y-68153740D01*
X164048920Y-68135314D01*
X164057196Y-68120210D01*
X164063107Y-68107968D01*
X164066937Y-68098126D01*
X164068964Y-68090225D01*
X164069470Y-68083804D01*
X164068737Y-68078402D01*
X164067044Y-68073560D01*
X164064674Y-68068817D01*
X164062033Y-68063951D01*
X164057487Y-68058519D01*
X164046191Y-68046375D01*
X164028598Y-68027979D01*
X164005157Y-68003787D01*
X163976320Y-67974257D01*
X163942538Y-67939847D01*
X163904260Y-67901015D01*
X163861939Y-67858218D01*
X163816025Y-67811914D01*
X163766969Y-67762561D01*
X163715222Y-67710615D01*
X163661235Y-67656536D01*
X163622491Y-67617794D01*
X163190808Y-67186449D01*
X163163423Y-67184178D01*
X163157552Y-67183462D01*
X163152815Y-67182714D01*
X163148483Y-67182375D01*
X163143821Y-67182882D01*
X163138100Y-67184674D01*
X163130588Y-67188192D01*
X163120552Y-67193873D01*
X163107262Y-67202157D01*
X163089986Y-67213483D01*
X163067992Y-67228290D01*
X163040549Y-67247017D01*
X163006925Y-67270102D01*
X162966388Y-67297985D01*
X162918208Y-67331106D01*
X162915600Y-67332896D01*
X162812024Y-67404024D01*
X162715294Y-67470439D01*
X162625556Y-67532043D01*
X162542955Y-67588734D01*
X162467637Y-67640415D01*
X162399746Y-67686984D01*
X162339427Y-67728343D01*
X162286827Y-67764392D01*
X162242091Y-67795030D01*
X162205363Y-67820160D01*
X162176789Y-67839680D01*
X162165746Y-67847210D01*
X162139902Y-67864699D01*
X162120705Y-67877214D01*
X162106462Y-67885583D01*
X162095481Y-67890635D01*
X162086070Y-67893200D01*
X162076535Y-67894106D01*
X162069843Y-67894200D01*
X162064242Y-67893854D01*
X162057159Y-67892663D01*
X162047988Y-67890393D01*
X162036123Y-67886811D01*
X162020957Y-67881685D01*
X162001884Y-67874781D01*
X161978298Y-67865867D01*
X161949591Y-67854710D01*
X161915158Y-67841077D01*
X161874392Y-67824735D01*
X161826688Y-67805451D01*
X161771437Y-67782992D01*
X161708034Y-67757126D01*
X161635873Y-67727619D01*
X161632822Y-67726371D01*
X161571218Y-67701142D01*
X161512094Y-67676895D01*
X161456157Y-67653922D01*
X161404113Y-67632514D01*
X161356668Y-67612963D01*
X161314528Y-67595559D01*
X161278399Y-67580596D01*
X161248988Y-67568363D01*
X161227000Y-67559154D01*
X161213142Y-67553259D01*
X161208365Y-67551116D01*
X161189436Y-67536334D01*
X161173893Y-67514688D01*
X161164019Y-67489412D01*
X161163621Y-67487689D01*
X161162056Y-67479819D01*
X161158757Y-67462607D01*
X161153846Y-67436699D01*
X161147444Y-67402741D01*
X161139672Y-67361381D01*
X161130651Y-67313264D01*
X161120502Y-67259038D01*
X161109346Y-67199349D01*
X161097304Y-67134844D01*
X161084497Y-67066170D01*
X161071047Y-66993972D01*
X161057074Y-66918899D01*
X161048703Y-66873890D01*
X161034502Y-66797662D01*
X161020742Y-66724087D01*
X161007543Y-66653798D01*
X160995026Y-66587425D01*
X160983312Y-66525603D01*
X160972523Y-66468962D01*
X160962779Y-66418135D01*
X160954202Y-66373753D01*
X160946912Y-66336450D01*
X160941031Y-66306856D01*
X160936679Y-66285604D01*
X160933977Y-66273327D01*
X160933192Y-66270516D01*
X160925042Y-66259469D01*
X160912679Y-66249012D01*
X160911339Y-66248155D01*
X160908738Y-66246662D01*
X160905664Y-66245325D01*
X160901571Y-66244136D01*
X160895916Y-66243085D01*
X160888154Y-66242164D01*
X160877739Y-66241365D01*
X160864127Y-66240678D01*
X160846773Y-66240096D01*
X160825133Y-66239609D01*
X160798661Y-66239210D01*
X160766813Y-66238889D01*
X160729044Y-66238638D01*
X160684810Y-66238449D01*
X160633565Y-66238312D01*
X160574765Y-66238219D01*
X160507866Y-66238162D01*
X160432321Y-66238133D01*
X160347588Y-66238121D01*
X160274596Y-66238120D01*
X159654091Y-66238120D01*
X159635619Y-66255048D01*
X159635619Y-66255048D01*
G37*
X159635619Y-66255048D02*
X159617147Y-66271977D01*
X159557100Y-66594138D01*
X159544498Y-66661789D01*
X159530731Y-66735777D01*
X159516210Y-66813878D01*
X159501350Y-66893867D01*
X159486562Y-66973520D01*
X159472260Y-67050613D01*
X159458858Y-67122922D01*
X159446767Y-67188223D01*
X159443035Y-67208400D01*
X159431152Y-67272542D01*
X159420888Y-67327465D01*
X159412033Y-67373943D01*
X159404380Y-67412750D01*
X159397719Y-67444661D01*
X159391842Y-67470449D01*
X159386539Y-67490891D01*
X159381601Y-67506759D01*
X159376820Y-67518829D01*
X159371988Y-67527876D01*
X159366894Y-67534672D01*
X159361330Y-67539994D01*
X159355087Y-67544616D01*
X159351760Y-67546831D01*
X159344594Y-67550390D01*
X159328973Y-67557363D01*
X159305856Y-67567348D01*
X159276203Y-67579940D01*
X159240971Y-67594734D01*
X159201122Y-67611325D01*
X159157614Y-67629309D01*
X159111405Y-67648282D01*
X159104100Y-67651270D01*
X159056078Y-67670906D01*
X159009373Y-67690009D01*
X158965136Y-67708107D01*
X158924519Y-67724730D01*
X158888677Y-67739404D01*
X158858759Y-67751660D01*
X158835920Y-67761023D01*
X158821312Y-67767024D01*
X158821120Y-67767103D01*
X158796146Y-67777372D01*
X158765955Y-67789764D01*
X158734735Y-67802561D01*
X158711900Y-67811908D01*
X158682826Y-67823822D01*
X158648614Y-67837875D01*
X158613513Y-67852322D01*
X158581774Y-67865413D01*
X158581515Y-67865520D01*
X158546128Y-67879454D01*
X158517941Y-67888715D01*
X158495245Y-67893514D01*
X158476330Y-67894064D01*
X158459488Y-67890575D01*
X158443009Y-67883259D01*
X158442114Y-67882770D01*
X158432683Y-67876996D01*
X158416162Y-67866271D01*
X158393806Y-67851435D01*
X158366872Y-67833330D01*
X158336617Y-67812795D01*
X158304295Y-67790673D01*
X158296020Y-67784980D01*
X158223108Y-67734772D01*
X158154941Y-67687858D01*
X158089221Y-67642659D01*
X158023652Y-67597595D01*
X157955937Y-67551088D01*
X157883779Y-67501559D01*
X157827980Y-67463276D01*
X157789821Y-67437098D01*
X157751524Y-67410824D01*
X157714586Y-67385481D01*
X157680504Y-67362097D01*
X157650775Y-67341697D01*
X157626895Y-67325310D01*
X157614620Y-67316886D01*
X157569149Y-67285687D01*
X157531265Y-67259755D01*
X157500179Y-67238603D01*
X157475106Y-67221744D01*
X157455257Y-67208692D01*
X157439846Y-67198958D01*
X157428086Y-67192057D01*
X157419189Y-67187502D01*
X157412368Y-67184806D01*
X157406835Y-67183481D01*
X157401804Y-67183041D01*
X157398146Y-67183000D01*
X157381051Y-67184884D01*
X157365786Y-67189502D01*
X157364178Y-67190293D01*
X157358816Y-67194810D01*
X157346857Y-67205997D01*
X157328842Y-67223312D01*
X157305314Y-67246211D01*
X157276816Y-67274151D01*
X157243891Y-67306589D01*
X157207080Y-67342983D01*
X157166927Y-67382789D01*
X157123974Y-67425464D01*
X157078764Y-67470466D01*
X157031838Y-67517250D01*
X156983741Y-67565275D01*
X156935013Y-67613997D01*
X156886198Y-67662874D01*
X156837838Y-67711361D01*
X156790476Y-67758916D01*
X156744654Y-67804997D01*
X156700915Y-67849059D01*
X156659802Y-67890561D01*
X156621856Y-67928959D01*
X156587621Y-67963710D01*
X156557639Y-67994271D01*
X156532452Y-68020098D01*
X156512603Y-68040650D01*
X156498635Y-68055383D01*
X156491090Y-68063754D01*
X156489927Y-68065316D01*
X156484425Y-68087292D01*
X156488617Y-68112182D01*
X156500830Y-68137266D01*
X156507867Y-68148178D01*
X156519806Y-68166155D01*
X156535773Y-68189904D01*
X156554894Y-68218131D01*
X156576296Y-68249543D01*
X156599104Y-68282848D01*
X156607125Y-68294522D01*
X156633749Y-68333238D01*
X156662478Y-68375029D01*
X156691713Y-68417567D01*
X156719854Y-68458525D01*
X156745302Y-68495575D01*
X156764899Y-68524120D01*
X156814060Y-68595746D01*
X156857986Y-68659739D01*
X156897187Y-68716844D01*
X156932175Y-68767804D01*
X156963461Y-68813366D01*
X156991558Y-68854273D01*
X157016975Y-68891270D01*
X157040226Y-68925102D01*
X157061821Y-68956513D01*
X157082272Y-68986249D01*
X157088363Y-68995105D01*
X157109154Y-69025431D01*
X157128602Y-69053998D01*
X157145780Y-69079427D01*
X157159760Y-69100339D01*
X157169613Y-69115354D01*
X157173847Y-69122105D01*
X157177596Y-69128424D01*
X157180774Y-69134324D01*
X157183174Y-69140394D01*
X157184591Y-69147224D01*
X157184820Y-69155403D01*
X157183655Y-69165521D01*
X157180892Y-69178168D01*
X157176324Y-69193931D01*
X157169747Y-69213402D01*
X157160955Y-69237170D01*
X157149743Y-69265824D01*
X157135905Y-69299953D01*
X157119236Y-69340147D01*
X157099531Y-69386996D01*
X157076584Y-69441088D01*
X157050190Y-69503014D01*
X157020144Y-69573363D01*
X157001210Y-69617677D01*
X156966110Y-69699687D01*
X156934766Y-69772593D01*
X156907052Y-69836682D01*
X156882840Y-69892239D01*
X156862003Y-69939548D01*
X156844414Y-69978896D01*
X156829946Y-70010568D01*
X156818472Y-70034849D01*
X156809865Y-70052024D01*
X156803997Y-70062380D01*
X156801820Y-70065350D01*
X156794223Y-70072786D01*
X156785417Y-70079220D01*
X156774242Y-70084998D01*
X156759535Y-70090465D01*
X156740134Y-70095969D01*
X156714879Y-70101855D01*
X156682607Y-70108470D01*
X156642155Y-70116160D01*
X156613860Y-70121363D01*
X156539724Y-70134922D01*
X156463991Y-70148830D01*
X156387324Y-70162963D01*
X156310388Y-70177195D01*
X156233845Y-70191401D01*
X156158358Y-70205457D01*
X156084590Y-70219237D01*
X156013205Y-70232616D01*
X155944866Y-70245470D01*
X155880235Y-70257672D01*
X155819976Y-70269098D01*
X155764753Y-70279623D01*
X155715227Y-70289122D01*
X155672063Y-70297470D01*
X155635924Y-70304541D01*
X155607472Y-70310211D01*
X155587371Y-70314354D01*
X155576284Y-70316846D01*
X155574366Y-70317416D01*
X155563336Y-70325338D01*
X155552235Y-70337505D01*
X155550777Y-70339543D01*
X155539440Y-70356088D01*
X155539459Y-70972994D01*
X155539465Y-71065002D01*
X155539482Y-71147397D01*
X155539519Y-71220726D01*
X155539585Y-71285535D01*
X155539688Y-71342371D01*
X155539837Y-71391781D01*
X155540041Y-71434311D01*
X155540309Y-71470508D01*
X155540649Y-71500919D01*
X155541070Y-71526091D01*
X155541582Y-71546570D01*
X155542192Y-71562903D01*
X155542909Y-71575638D01*
X155543742Y-71585320D01*
X155544700Y-71592496D01*
X155545792Y-71597714D01*
X155547026Y-71601519D01*
X155548411Y-71604459D01*
X155549585Y-71606475D01*
X155561051Y-71619917D01*
X155575220Y-71630125D01*
X155576236Y-71630611D01*
X155579596Y-71631817D01*
X155585464Y-71633438D01*
X155594243Y-71635551D01*
X155606336Y-71638233D01*
X155622145Y-71641559D01*
X155642074Y-71645607D01*
X155666526Y-71650453D01*
X155695902Y-71656173D01*
X155730606Y-71662844D01*
X155771042Y-71670543D01*
X155817610Y-71679346D01*
X155870716Y-71689329D01*
X155930761Y-71700570D01*
X155998148Y-71713144D01*
X156073280Y-71727128D01*
X156156561Y-71742600D01*
X156248392Y-71759634D01*
X156349176Y-71778308D01*
X156459318Y-71798698D01*
X156527500Y-71811314D01*
X156571120Y-71819437D01*
X156612129Y-71827174D01*
X156649328Y-71834292D01*
X156681517Y-71840557D01*
X156707496Y-71845736D01*
X156726065Y-71849593D01*
X156736024Y-71851896D01*
X156736715Y-71852097D01*
X156742872Y-71854122D01*
X156748567Y-71856505D01*
X156754057Y-71859794D01*
X156759596Y-71864532D01*
X156765438Y-71871268D01*
X156771838Y-71880548D01*
X156779050Y-71892917D01*
X156787330Y-71908922D01*
X156796931Y-71929110D01*
X156808109Y-71954027D01*
X156821118Y-71984218D01*
X156836212Y-72020231D01*
X156853647Y-72062611D01*
X156873676Y-72111906D01*
X156896555Y-72168660D01*
X156922539Y-72233421D01*
X156951880Y-72306735D01*
X156971681Y-72356250D01*
X157002204Y-72432612D01*
X157029158Y-72500124D01*
X157052759Y-72559363D01*
X157073222Y-72610906D01*
X157090763Y-72655331D01*
X157105598Y-72693216D01*
X157117943Y-72725139D01*
X157128015Y-72751677D01*
X157136027Y-72773408D01*
X157142198Y-72790909D01*
X157146742Y-72804759D01*
X157149875Y-72815535D01*
X157151814Y-72823814D01*
X157152774Y-72830175D01*
X157152971Y-72835195D01*
X157152620Y-72839451D01*
X157152519Y-72840160D01*
X157151638Y-72845101D01*
X157150241Y-72850318D01*
X157147945Y-72856399D01*
X157144369Y-72863933D01*
X157139130Y-72873510D01*
X157131846Y-72885720D01*
X157122136Y-72901151D01*
X157109618Y-72920392D01*
X157093910Y-72944033D01*
X157074629Y-72972663D01*
X157051393Y-73006872D01*
X157023822Y-73047248D01*
X156991532Y-73094380D01*
X156954142Y-73148859D01*
X156923230Y-73193863D01*
X156864328Y-73279609D01*
X156801500Y-73371084D01*
X156736564Y-73465637D01*
X156671341Y-73560619D01*
X156607649Y-73653381D01*
X156559510Y-73723500D01*
X156539784Y-73752696D01*
X156521952Y-73779970D01*
X156506864Y-73803948D01*
X156495374Y-73823253D01*
X156488333Y-73836513D01*
X156486551Y-73841212D01*
X156485358Y-73846901D01*
X156484439Y-73852141D01*
X156484162Y-73857344D01*
X156484895Y-73862918D01*
X156487008Y-73869274D01*
X156490870Y-73876821D01*
X156496849Y-73885969D01*
X156505314Y-73897127D01*
X156516634Y-73910705D01*
X156531179Y-73927114D01*
X156549316Y-73946761D01*
X156571415Y-73970059D01*
X156597845Y-73997414D01*
X156628974Y-74029239D01*
X156665172Y-74065942D01*
X156706807Y-74107933D01*
X156754248Y-74155621D01*
X156807864Y-74209417D01*
X156868025Y-74269730D01*
X156912803Y-74314618D01*
X156967668Y-74369554D01*
X157020837Y-74422661D01*
X157071836Y-74473474D01*
X157120193Y-74521526D01*
X157165435Y-74566352D01*
X157207087Y-74607485D01*
X157244677Y-74644460D01*
X157277731Y-74676811D01*
X157305777Y-74704072D01*
X157328341Y-74725776D01*
X157344949Y-74741459D01*
X157355130Y-74750653D01*
X157357805Y-74752768D01*
X157381095Y-74764322D01*
X157402353Y-74766713D01*
X157423487Y-74760143D01*
X157424162Y-74759798D01*
X157430996Y-74755542D01*
X157446052Y-74745604D01*
X157469196Y-74730077D01*
X157500290Y-74709054D01*
X157539198Y-74682628D01*
X157585785Y-74650892D01*
X157639914Y-74613939D01*
X157701449Y-74571863D01*
X157770254Y-74524756D01*
X157846193Y-74472711D01*
X157929129Y-74415822D01*
X158018927Y-74354181D01*
X158115450Y-74287881D01*
X158218562Y-74217016D01*
X158227866Y-74210621D01*
X158259558Y-74188921D01*
X158289199Y-74168793D01*
X158315566Y-74151053D01*
X158337434Y-74136520D01*
X158353582Y-74126011D01*
X158362786Y-74120343D01*
X158363503Y-74119955D01*
X158378174Y-74115077D01*
X158396581Y-74112337D01*
X158402596Y-74112120D01*
X158409180Y-74112513D01*
X158416730Y-74113972D01*
X158426125Y-74116916D01*
X158438244Y-74121763D01*
X158453968Y-74128932D01*
X158474175Y-74138841D01*
X158499745Y-74151910D01*
X158531558Y-74168558D01*
X158570491Y-74189202D01*
X158617426Y-74214262D01*
X158620018Y-74215649D01*
X158661652Y-74237911D01*
X158701209Y-74259034D01*
X158737638Y-74278457D01*
X158769889Y-74295622D01*
X158796909Y-74309970D01*
X158817647Y-74320941D01*
X158831052Y-74327976D01*
X158834888Y-74329949D01*
X158860496Y-74339076D01*
X158883156Y-74339568D01*
X158901738Y-74331434D01*
X158904306Y-74329290D01*
X158907161Y-74324758D01*
X158912532Y-74313972D01*
X158920502Y-74296731D01*
X158931158Y-74272834D01*
X158944582Y-74242082D01*
X158960860Y-74204274D01*
X158980075Y-74159209D01*
X159002313Y-74106687D01*
X159027658Y-74046508D01*
X159056193Y-73978471D01*
X159088004Y-73902377D01*
X159123175Y-73818024D01*
X159161791Y-73725213D01*
X159203935Y-73623743D01*
X159249693Y-73513413D01*
X159299149Y-73394024D01*
X159337293Y-73301860D01*
X159377489Y-73204644D01*
X159416660Y-73109788D01*
X159454627Y-73017729D01*
X159491211Y-72928904D01*
X159526235Y-72843750D01*
X159559519Y-72762705D01*
X159590884Y-72686206D01*
X159620153Y-72614690D01*
X159647147Y-72548595D01*
X159671686Y-72488358D01*
X159693593Y-72434416D01*
X159712689Y-72387207D01*
X159728795Y-72347168D01*
X159741732Y-72314736D01*
X159751322Y-72290349D01*
X159757387Y-72274444D01*
X159759748Y-72267458D01*
X159759769Y-72267328D01*
X159760276Y-72252016D01*
X159757272Y-72238642D01*
X159749698Y-72225959D01*
X159736495Y-72212725D01*
X159716605Y-72197692D01*
X159688970Y-72179617D01*
X159680920Y-72174597D01*
X159655860Y-72158776D01*
X159631873Y-72143114D01*
X159611267Y-72129151D01*
X159596347Y-72118429D01*
X159593280Y-72116039D01*
X159580536Y-72106169D01*
X159561812Y-72092171D01*
X159539440Y-72075766D01*
X159515748Y-72058674D01*
X159511036Y-72055310D01*
X159419713Y-71984118D01*
X159335724Y-71906088D01*
X159259343Y-71821692D01*
X159190845Y-71731401D01*
X159130503Y-71635684D01*
X159078593Y-71535012D01*
X159035389Y-71429855D01*
X159001166Y-71320684D01*
X158976197Y-71207970D01*
X158963147Y-71116274D01*
X158960407Y-71080629D01*
X158958915Y-71038007D01*
X158958604Y-70990821D01*
X158959407Y-70941482D01*
X158961256Y-70892404D01*
X158964084Y-70845997D01*
X158967823Y-70804673D01*
X158972406Y-70770846D01*
X158972870Y-70768182D01*
X158996026Y-70659562D01*
X159025809Y-70557564D01*
X159062842Y-70460611D01*
X159107751Y-70367129D01*
X159161158Y-70275542D01*
X159178545Y-70248780D01*
X159244685Y-70158184D01*
X159318580Y-70073391D01*
X159399444Y-69995029D01*
X159486488Y-69923727D01*
X159578922Y-69860113D01*
X159675959Y-69804818D01*
X159776811Y-69758469D01*
X159809180Y-69745845D01*
X159902731Y-69714233D01*
X159993868Y-69690530D01*
X160085265Y-69674257D01*
X160179592Y-69664935D01*
X160276389Y-69662081D01*
X160328950Y-69662592D01*
X160374322Y-69664237D01*
X160415434Y-69667265D01*
X160455219Y-69671919D01*
X160496606Y-69678446D01*
X160518097Y-69682353D01*
X160631521Y-69708741D01*
X160740959Y-69744390D01*
X160846070Y-69789123D01*
X160946514Y-69842759D01*
X161041951Y-69905121D01*
X161132040Y-69976029D01*
X161204054Y-70042786D01*
X161266031Y-70107748D01*
X161320101Y-70171503D01*
X161367900Y-70236320D01*
X161411068Y-70304471D01*
X161451243Y-70378225D01*
X161462662Y-70401180D01*
X161507421Y-70501952D01*
X161542671Y-70601876D01*
X161568773Y-70702502D01*
X161586089Y-70805385D01*
X161594981Y-70912079D01*
X161596419Y-70975220D01*
X161595997Y-71029977D01*
X161594269Y-71077657D01*
X161590956Y-71121293D01*
X161585778Y-71163914D01*
X161578457Y-71208553D01*
X161571692Y-71243690D01*
X161544895Y-71351316D01*
X161508435Y-71457324D01*
X161462792Y-71560703D01*
X161408446Y-71660440D01*
X161345877Y-71755524D01*
X161301771Y-71813426D01*
X161273156Y-71846884D01*
X161238889Y-71883643D01*
X161201173Y-71921574D01*
X161162210Y-71958549D01*
X161124201Y-71992437D01*
X161089349Y-72021111D01*
X161078194Y-72029602D01*
X161052735Y-72048477D01*
X161024670Y-72069273D01*
X160998007Y-72089022D01*
X160982583Y-72100440D01*
X160960374Y-72116307D01*
X160932949Y-72135055D01*
X160903805Y-72154335D01*
X160876608Y-72171688D01*
X160844951Y-72192342D01*
X160821653Y-72209909D01*
X160805764Y-72225367D01*
X160796333Y-72239699D01*
X160792409Y-72253885D01*
X160792160Y-72258822D01*
X160794074Y-72265255D01*
X160799660Y-72280497D01*
X160808687Y-72303975D01*
X160820924Y-72335118D01*
X160836141Y-72373354D01*
X160854107Y-72418111D01*
X160874589Y-72468818D01*
X160897358Y-72524902D01*
X160922182Y-72585792D01*
X160948829Y-72650917D01*
X160977070Y-72719703D01*
X161006673Y-72791580D01*
X161037407Y-72865976D01*
X161041787Y-72876561D01*
X161073109Y-72952238D01*
X161103671Y-73026083D01*
X161133212Y-73097470D01*
X161161474Y-73165769D01*
X161188197Y-73230353D01*
X161213119Y-73290593D01*
X161235982Y-73345860D01*
X161256526Y-73395527D01*
X161274490Y-73438966D01*
X161289615Y-73475548D01*
X161301641Y-73504644D01*
X161310308Y-73525627D01*
X161315356Y-73537869D01*
X161315443Y-73538080D01*
X161325666Y-73562888D01*
X161338535Y-73594050D01*
X161352798Y-73628534D01*
X161367201Y-73663312D01*
X161376360Y-73685400D01*
X161390156Y-73718667D01*
X161404663Y-73753683D01*
X161418626Y-73787419D01*
X161430791Y-73816843D01*
X161437346Y-73832720D01*
X161448545Y-73859852D01*
X161462060Y-73892566D01*
X161476319Y-73927060D01*
X161489751Y-73959528D01*
X161491933Y-73964800D01*
X161504832Y-73995962D01*
X161520077Y-74032792D01*
X161536126Y-74071568D01*
X161551441Y-74108570D01*
X161558166Y-74124820D01*
X161571713Y-74157541D01*
X161585932Y-74191875D01*
X161599564Y-74224775D01*
X161611344Y-74253196D01*
X161617094Y-74267060D01*
X161627161Y-74289904D01*
X161637040Y-74309867D01*
X161645544Y-74324688D01*
X161651123Y-74331830D01*
X161657120Y-74336291D01*
X161663367Y-74339407D01*
X161670651Y-74340859D01*
X161679758Y-74340331D01*
X161691476Y-74337506D01*
X161706593Y-74332068D01*
X161725894Y-74323701D01*
X161750168Y-74312086D01*
X161780200Y-74296909D01*
X161816779Y-74277852D01*
X161860692Y-74254598D01*
X161912725Y-74226831D01*
X161914556Y-74225852D01*
X162129398Y-74110985D01*
X162158217Y-74113070D01*
X162163518Y-74113457D01*
X162168523Y-74114043D01*
X162173789Y-74115187D01*
X162179878Y-74117248D01*
X162187348Y-74120587D01*
X162196760Y-74125561D01*
X162208673Y-74132530D01*
X162223647Y-74141855D01*
X162242242Y-74153893D01*
X162265016Y-74169005D01*
X162292532Y-74187550D01*
X162325346Y-74209886D01*
X162364021Y-74236374D01*
X162409114Y-74267373D01*
X162461187Y-74303242D01*
X162520799Y-74344340D01*
X162552380Y-74366117D01*
X162572111Y-74379703D01*
X162598907Y-74398125D01*
X162631451Y-74420479D01*
X162668424Y-74445860D01*
X162708509Y-74473363D01*
X162750389Y-74502085D01*
X162792745Y-74531121D01*
X162811460Y-74543947D01*
X162852969Y-74572399D01*
X162894052Y-74600579D01*
X162933487Y-74627648D01*
X162970050Y-74652764D01*
X163002519Y-74675088D01*
X163029671Y-74693779D01*
X163050282Y-74707997D01*
X163057840Y-74713227D01*
X163088757Y-74734242D01*
X163113113Y-74749582D01*
X163132369Y-74759806D01*
X163147986Y-74765472D01*
X163161426Y-74767141D01*
X163174150Y-74765371D01*
X163184840Y-74761838D01*
X163190054Y-74757647D01*
X163201879Y-74746783D01*
X163219774Y-74729786D01*
X163243198Y-74707196D01*
X163271608Y-74679555D01*
X163304462Y-74647402D01*
X163341218Y-74611279D01*
X163381335Y-74571725D01*
X163424269Y-74529282D01*
X163469479Y-74484489D01*
X163516424Y-74437888D01*
X163564560Y-74390019D01*
X163613347Y-74341423D01*
X163662242Y-74292640D01*
X163710702Y-74244210D01*
X163758187Y-74196675D01*
X163804153Y-74150574D01*
X163848060Y-74106449D01*
X163889364Y-74064840D01*
X163927524Y-74026287D01*
X163961998Y-73991331D01*
X163992244Y-73960513D01*
X164017720Y-73934373D01*
X164037884Y-73913451D01*
X164052194Y-73898289D01*
X164060107Y-73889426D01*
X164061467Y-73887582D01*
X164067810Y-73866261D01*
X164067316Y-73842497D01*
X164060134Y-73821223D01*
X164059424Y-73820020D01*
X164055351Y-73813860D01*
X164045906Y-73799883D01*
X164031468Y-73778645D01*
X164012420Y-73750702D01*
X163989142Y-73716611D01*
X163962013Y-73676928D01*
X163931416Y-73632211D01*
X163897730Y-73583014D01*
X163861336Y-73529896D01*
X163822615Y-73473412D01*
X163781948Y-73414119D01*
X163739715Y-73352573D01*
X163732080Y-73341450D01*
X163689678Y-73279657D01*
X163648826Y-73220078D01*
X163609899Y-73163264D01*
X163573272Y-73109765D01*
X163539322Y-73060131D01*
X163508425Y-73014913D01*
X163480956Y-72974661D01*
X163457292Y-72939926D01*
X163437807Y-72911258D01*
X163422878Y-72889207D01*
X163412881Y-72874325D01*
X163408191Y-72867161D01*
X163407932Y-72866718D01*
X163405176Y-72861308D01*
X163403004Y-72855837D01*
X163401610Y-72849735D01*
X163401191Y-72842429D01*
X163401942Y-72833346D01*
X163404059Y-72821915D01*
X163407738Y-72807564D01*
X163413173Y-72789720D01*
X163420562Y-72767811D01*
X163430099Y-72741266D01*
X163441981Y-72709511D01*
X163456402Y-72671975D01*
X163473560Y-72628086D01*
X163493648Y-72577272D01*
X163516864Y-72518960D01*
X163543403Y-72452578D01*
X163573460Y-72377554D01*
X163585630Y-72347198D01*
X163616932Y-72269135D01*
X163644709Y-72199951D01*
X163669220Y-72139095D01*
X163690720Y-72086016D01*
X163709468Y-72040162D01*
X163725721Y-72000983D01*
X163739736Y-71967927D01*
X163751769Y-71940444D01*
X163762080Y-71917982D01*
X163770925Y-71899991D01*
X163778560Y-71885918D01*
X163785244Y-71875214D01*
X163791234Y-71867327D01*
X163796787Y-71861705D01*
X163802160Y-71857799D01*
X163807611Y-71855056D01*
X163813397Y-71852926D01*
X163816934Y-71851778D01*
X163828322Y-71848826D01*
X163846900Y-71844769D01*
X163869841Y-71840200D01*
X163888420Y-71836757D01*
X163925959Y-71829989D01*
X163969761Y-71822012D01*
X164019056Y-71812973D01*
X164073073Y-71803016D01*
X164131041Y-71792287D01*
X164192190Y-71780930D01*
X164255749Y-71769090D01*
X164320947Y-71756914D01*
X164387013Y-71744545D01*
X164453177Y-71732130D01*
X164518668Y-71719813D01*
X164582715Y-71707739D01*
X164644547Y-71696054D01*
X164703394Y-71684902D01*
X164758484Y-71674430D01*
X164809048Y-71664781D01*
X164854314Y-71656102D01*
X164893512Y-71648536D01*
X164925870Y-71642230D01*
X164950619Y-71637329D01*
X164966986Y-71633977D01*
X164974203Y-71632320D01*
X164974373Y-71632261D01*
X164987286Y-71624477D01*
X164999966Y-71612954D01*
X165001043Y-71611711D01*
X165013641Y-71596740D01*
X165013640Y-70977117D01*
X165013649Y-70883146D01*
X165013658Y-70798804D01*
X165013644Y-70723559D01*
X165013582Y-70656880D01*
X165013449Y-70598236D01*
X165013221Y-70547097D01*
X165012873Y-70502930D01*
X165012382Y-70465205D01*
X165011724Y-70433390D01*
X165010874Y-70406955D01*
X165009809Y-70385367D01*
X165008504Y-70368096D01*
X165006936Y-70354611D01*
X165005081Y-70344380D01*
X165002915Y-70336872D01*
X165000413Y-70331556D01*
X164997551Y-70327901D01*
X164994306Y-70325375D01*
X164990654Y-70323448D01*
X164986570Y-70321588D01*
X164983959Y-70320312D01*
X164980474Y-70318639D01*
X164976177Y-70316956D01*
X164970352Y-70315119D01*
X164962282Y-70312984D01*
X164951250Y-70310409D01*
X164936539Y-70307249D01*
X164917431Y-70303362D01*
X164893212Y-70298603D01*
X164863162Y-70292829D01*
X164826566Y-70285896D01*
X164782707Y-70277661D01*
X164730867Y-70267981D01*
X164670331Y-70256711D01*
X164614860Y-70246399D01*
X164508663Y-70226661D01*
X164411995Y-70208687D01*
X164324399Y-70192388D01*
X164245414Y-70177674D01*
X164174583Y-70164456D01*
X164111444Y-70152645D01*
X164055540Y-70142152D01*
X164006410Y-70132889D01*
X163963596Y-70124764D01*
X163926639Y-70117691D01*
X163895078Y-70111578D01*
X163868456Y-70106338D01*
X163846312Y-70101880D01*
X163828187Y-70098117D01*
X163813622Y-70094958D01*
X163802159Y-70092315D01*
X163793337Y-70090098D01*
X163786697Y-70088218D01*
X163781780Y-70086586D01*
X163778128Y-70085113D01*
X163775279Y-70083710D01*
X163774415Y-70083234D01*
X163759304Y-70072124D01*
X163746394Y-70058461D01*
X163745168Y-70056739D01*
X163741582Y-70049759D01*
X163734309Y-70034123D01*
X163723649Y-70010519D01*
X163709904Y-69979634D01*
X163693375Y-69942157D01*
X163674363Y-69898775D01*
X163653170Y-69850176D01*
X163630097Y-69797048D01*
X163605446Y-69740078D01*
X163579518Y-69679955D01*
X163552614Y-69617367D01*
X163550945Y-69613477D01*
X163515853Y-69531537D01*
X163484772Y-69458632D01*
X163457598Y-69394506D01*
X163434225Y-69338904D01*
X163414550Y-69291573D01*
X163398467Y-69252256D01*
X163385871Y-69220700D01*
X163376658Y-69196650D01*
X163370723Y-69179850D01*
X163367960Y-69170047D01*
X163367720Y-69168037D01*
X163369188Y-69151305D01*
X163372731Y-69136447D01*
X163372844Y-69136145D01*
X163376331Y-69130294D01*
X163385216Y-69116603D01*
X163399141Y-69095603D01*
X163417745Y-69067826D01*
X163440668Y-69033802D01*
X163467550Y-68994062D01*
X163498031Y-68949136D01*
X163531751Y-68899556D01*
X163568350Y-68845853D01*
X163607469Y-68788556D01*
X163648746Y-68728198D01*
X163691823Y-68665308D01*
X163721532Y-68621991D01*
X163774351Y-68545023D01*
X163821716Y-68475982D01*
X163863907Y-68414406D01*
X163901207Y-68359836D01*
X163933895Y-68311810D01*
X163962253Y-68269869D01*
X163986561Y-68233552D01*
X164007101Y-68202398D01*
X164024154Y-68175948D01*
X164038000Y-68153740D01*
X164048920Y-68135314D01*
X164057196Y-68120210D01*
X164063107Y-68107968D01*
X164066937Y-68098126D01*
X164068964Y-68090225D01*
X164069470Y-68083804D01*
X164068737Y-68078402D01*
X164067044Y-68073560D01*
X164064674Y-68068817D01*
X164062033Y-68063951D01*
X164057487Y-68058519D01*
X164046191Y-68046375D01*
X164028598Y-68027979D01*
X164005157Y-68003787D01*
X163976320Y-67974257D01*
X163942538Y-67939847D01*
X163904260Y-67901015D01*
X163861939Y-67858218D01*
X163816025Y-67811914D01*
X163766969Y-67762561D01*
X163715222Y-67710615D01*
X163661235Y-67656536D01*
X163622491Y-67617794D01*
X163190808Y-67186449D01*
X163163423Y-67184178D01*
X163157552Y-67183462D01*
X163152815Y-67182714D01*
X163148483Y-67182375D01*
X163143821Y-67182882D01*
X163138100Y-67184674D01*
X163130588Y-67188192D01*
X163120552Y-67193873D01*
X163107262Y-67202157D01*
X163089986Y-67213483D01*
X163067992Y-67228290D01*
X163040549Y-67247017D01*
X163006925Y-67270102D01*
X162966388Y-67297985D01*
X162918208Y-67331106D01*
X162915600Y-67332896D01*
X162812024Y-67404024D01*
X162715294Y-67470439D01*
X162625556Y-67532043D01*
X162542955Y-67588734D01*
X162467637Y-67640415D01*
X162399746Y-67686984D01*
X162339427Y-67728343D01*
X162286827Y-67764392D01*
X162242091Y-67795030D01*
X162205363Y-67820160D01*
X162176789Y-67839680D01*
X162165746Y-67847210D01*
X162139902Y-67864699D01*
X162120705Y-67877214D01*
X162106462Y-67885583D01*
X162095481Y-67890635D01*
X162086070Y-67893200D01*
X162076535Y-67894106D01*
X162069843Y-67894200D01*
X162064242Y-67893854D01*
X162057159Y-67892663D01*
X162047988Y-67890393D01*
X162036123Y-67886811D01*
X162020957Y-67881685D01*
X162001884Y-67874781D01*
X161978298Y-67865867D01*
X161949591Y-67854710D01*
X161915158Y-67841077D01*
X161874392Y-67824735D01*
X161826688Y-67805451D01*
X161771437Y-67782992D01*
X161708034Y-67757126D01*
X161635873Y-67727619D01*
X161632822Y-67726371D01*
X161571218Y-67701142D01*
X161512094Y-67676895D01*
X161456157Y-67653922D01*
X161404113Y-67632514D01*
X161356668Y-67612963D01*
X161314528Y-67595559D01*
X161278399Y-67580596D01*
X161248988Y-67568363D01*
X161227000Y-67559154D01*
X161213142Y-67553259D01*
X161208365Y-67551116D01*
X161189436Y-67536334D01*
X161173893Y-67514688D01*
X161164019Y-67489412D01*
X161163621Y-67487689D01*
X161162056Y-67479819D01*
X161158757Y-67462607D01*
X161153846Y-67436699D01*
X161147444Y-67402741D01*
X161139672Y-67361381D01*
X161130651Y-67313264D01*
X161120502Y-67259038D01*
X161109346Y-67199349D01*
X161097304Y-67134844D01*
X161084497Y-67066170D01*
X161071047Y-66993972D01*
X161057074Y-66918899D01*
X161048703Y-66873890D01*
X161034502Y-66797662D01*
X161020742Y-66724087D01*
X161007543Y-66653798D01*
X160995026Y-66587425D01*
X160983312Y-66525603D01*
X160972523Y-66468962D01*
X160962779Y-66418135D01*
X160954202Y-66373753D01*
X160946912Y-66336450D01*
X160941031Y-66306856D01*
X160936679Y-66285604D01*
X160933977Y-66273327D01*
X160933192Y-66270516D01*
X160925042Y-66259469D01*
X160912679Y-66249012D01*
X160911339Y-66248155D01*
X160908738Y-66246662D01*
X160905664Y-66245325D01*
X160901571Y-66244136D01*
X160895916Y-66243085D01*
X160888154Y-66242164D01*
X160877739Y-66241365D01*
X160864127Y-66240678D01*
X160846773Y-66240096D01*
X160825133Y-66239609D01*
X160798661Y-66239210D01*
X160766813Y-66238889D01*
X160729044Y-66238638D01*
X160684810Y-66238449D01*
X160633565Y-66238312D01*
X160574765Y-66238219D01*
X160507866Y-66238162D01*
X160432321Y-66238133D01*
X160347588Y-66238121D01*
X160274596Y-66238120D01*
X159654091Y-66238120D01*
X159635619Y-66255048D01*
G36*
X156530795Y-75736785D02*
G01*
X156497599Y-75739570D01*
X156467739Y-75745144D01*
X156437862Y-75754126D01*
X156405753Y-75766656D01*
X156390420Y-75773897D01*
X156371710Y-75783885D01*
X156351599Y-75795412D01*
X156332064Y-75807268D01*
X156315083Y-75818247D01*
X156302631Y-75827140D01*
X156296686Y-75832738D01*
X156296447Y-75833459D01*
X156299613Y-75838114D01*
X156308455Y-75849389D01*
X156322061Y-75866168D01*
X156339521Y-75887335D01*
X156359924Y-75911773D01*
X156373917Y-75928392D01*
X156396837Y-75955547D01*
X156418484Y-75981231D01*
X156437685Y-76004049D01*
X156453269Y-76022610D01*
X156464064Y-76035520D01*
X156467356Y-76039488D01*
X156483411Y-76058971D01*
X156500506Y-76045932D01*
X156513824Y-76037179D01*
X156532488Y-76026635D01*
X156552518Y-76016544D01*
X156553031Y-76016303D01*
X156572599Y-76007837D01*
X156589798Y-76002527D01*
X156608665Y-75999468D01*
X156633239Y-75997752D01*
X156636207Y-75997618D01*
X156664332Y-75997351D01*
X156690979Y-75998805D01*
X156711910Y-76001743D01*
X156712407Y-76001852D01*
X156756664Y-76016551D01*
X156796678Y-76039482D01*
X156830988Y-76069534D01*
X156858134Y-76105594D01*
X156864973Y-76118031D01*
X156870336Y-76128699D01*
X156875035Y-76138556D01*
X156879113Y-76148319D01*
X156882614Y-76158705D01*
X156885584Y-76170429D01*
X156888065Y-76184209D01*
X156890102Y-76200759D01*
X156891739Y-76220798D01*
X156893020Y-76245040D01*
X156893989Y-76274203D01*
X156894690Y-76309003D01*
X156895168Y-76350155D01*
X156895465Y-76398377D01*
X156895627Y-76454385D01*
X156895698Y-76518895D01*
X156895721Y-76592623D01*
X156895725Y-76617830D01*
X156895800Y-77022960D01*
X157159960Y-77022960D01*
X157159960Y-75747880D01*
X156895800Y-75747880D01*
X156895800Y-75881499D01*
X156866423Y-75852681D01*
X156833077Y-75822501D01*
X156800511Y-75798827D01*
X156765014Y-75779051D01*
X156754956Y-75774276D01*
X156714900Y-75757789D01*
X156676228Y-75746451D01*
X156635637Y-75739579D01*
X156589828Y-75736491D01*
X156570680Y-75736169D01*
X156530795Y-75736785D01*
X156530795Y-75736785D01*
G37*
X156530795Y-75736785D02*
X156497599Y-75739570D01*
X156467739Y-75745144D01*
X156437862Y-75754126D01*
X156405753Y-75766656D01*
X156390420Y-75773897D01*
X156371710Y-75783885D01*
X156351599Y-75795412D01*
X156332064Y-75807268D01*
X156315083Y-75818247D01*
X156302631Y-75827140D01*
X156296686Y-75832738D01*
X156296447Y-75833459D01*
X156299613Y-75838114D01*
X156308455Y-75849389D01*
X156322061Y-75866168D01*
X156339521Y-75887335D01*
X156359924Y-75911773D01*
X156373917Y-75928392D01*
X156396837Y-75955547D01*
X156418484Y-75981231D01*
X156437685Y-76004049D01*
X156453269Y-76022610D01*
X156464064Y-76035520D01*
X156467356Y-76039488D01*
X156483411Y-76058971D01*
X156500506Y-76045932D01*
X156513824Y-76037179D01*
X156532488Y-76026635D01*
X156552518Y-76016544D01*
X156553031Y-76016303D01*
X156572599Y-76007837D01*
X156589798Y-76002527D01*
X156608665Y-75999468D01*
X156633239Y-75997752D01*
X156636207Y-75997618D01*
X156664332Y-75997351D01*
X156690979Y-75998805D01*
X156711910Y-76001743D01*
X156712407Y-76001852D01*
X156756664Y-76016551D01*
X156796678Y-76039482D01*
X156830988Y-76069534D01*
X156858134Y-76105594D01*
X156864973Y-76118031D01*
X156870336Y-76128699D01*
X156875035Y-76138556D01*
X156879113Y-76148319D01*
X156882614Y-76158705D01*
X156885584Y-76170429D01*
X156888065Y-76184209D01*
X156890102Y-76200759D01*
X156891739Y-76220798D01*
X156893020Y-76245040D01*
X156893989Y-76274203D01*
X156894690Y-76309003D01*
X156895168Y-76350155D01*
X156895465Y-76398377D01*
X156895627Y-76454385D01*
X156895698Y-76518895D01*
X156895721Y-76592623D01*
X156895725Y-76617830D01*
X156895800Y-77022960D01*
X157159960Y-77022960D01*
X157159960Y-75747880D01*
X156895800Y-75747880D01*
X156895800Y-75881499D01*
X156866423Y-75852681D01*
X156833077Y-75822501D01*
X156800511Y-75798827D01*
X156765014Y-75779051D01*
X156754956Y-75774276D01*
X156714900Y-75757789D01*
X156676228Y-75746451D01*
X156635637Y-75739579D01*
X156589828Y-75736491D01*
X156570680Y-75736169D01*
X156530795Y-75736785D01*
G36*
X162027825Y-75736712D02*
G01*
X162000189Y-75738919D01*
X161975844Y-75742917D01*
X161958020Y-75747226D01*
X161894467Y-75769370D01*
X161836032Y-75799929D01*
X161783466Y-75838454D01*
X161747315Y-75873423D01*
X161719253Y-75906774D01*
X161696305Y-75940739D01*
X161677072Y-75977906D01*
X161660156Y-76020861D01*
X161649108Y-76055220D01*
X161647292Y-76061492D01*
X161645691Y-76067874D01*
X161644290Y-76075026D01*
X161643072Y-76083609D01*
X161642021Y-76094283D01*
X161641121Y-76107709D01*
X161640355Y-76124546D01*
X161639707Y-76145455D01*
X161639162Y-76171096D01*
X161638702Y-76202130D01*
X161638311Y-76239216D01*
X161637974Y-76283016D01*
X161637674Y-76334189D01*
X161637395Y-76393396D01*
X161637121Y-76461297D01*
X161636834Y-76538552D01*
X161636768Y-76556870D01*
X161635088Y-77022960D01*
X161894124Y-77022960D01*
X161895822Y-76612750D01*
X161896127Y-76536940D01*
X161896406Y-76470568D01*
X161896709Y-76412911D01*
X161897087Y-76363246D01*
X161897587Y-76320852D01*
X161898261Y-76285006D01*
X161899157Y-76254985D01*
X161900325Y-76230067D01*
X161901815Y-76209530D01*
X161903677Y-76192651D01*
X161905959Y-76178708D01*
X161908713Y-76166979D01*
X161911987Y-76156741D01*
X161915830Y-76147272D01*
X161920294Y-76137849D01*
X161925426Y-76127751D01*
X161929717Y-76119353D01*
X161955119Y-76080014D01*
X161988044Y-76047502D01*
X162028485Y-76021824D01*
X162035655Y-76018349D01*
X162053719Y-76010262D01*
X162068603Y-76004859D01*
X162083437Y-76001485D01*
X162101346Y-75999485D01*
X162125459Y-75998204D01*
X162133280Y-75997902D01*
X162160699Y-75997182D01*
X162181036Y-75997597D01*
X162197332Y-75999443D01*
X162212631Y-76003017D01*
X162224720Y-76006821D01*
X162270450Y-76026936D01*
X162309008Y-76054220D01*
X162340570Y-76088819D01*
X162361639Y-76123321D01*
X162366998Y-76133986D01*
X162371692Y-76143849D01*
X162375763Y-76153628D01*
X162379257Y-76164042D01*
X162382218Y-76175811D01*
X162384691Y-76189652D01*
X162386719Y-76206285D01*
X162388346Y-76226428D01*
X162389618Y-76250800D01*
X162390579Y-76280120D01*
X162391272Y-76315107D01*
X162391742Y-76356479D01*
X162392034Y-76404956D01*
X162392192Y-76461255D01*
X162392260Y-76526097D01*
X162392282Y-76600198D01*
X162392285Y-76620370D01*
X162392360Y-77022960D01*
X162656520Y-77022960D01*
X162656520Y-75747880D01*
X162392360Y-75747880D01*
X162392360Y-75881015D01*
X162351043Y-75842147D01*
X162326135Y-75820054D01*
X162302891Y-75802948D01*
X162276912Y-75787809D01*
X162258333Y-75778486D01*
X162216063Y-75760072D01*
X162176226Y-75747391D01*
X162135415Y-75739703D01*
X162090220Y-75736269D01*
X162062160Y-75735926D01*
X162027825Y-75736712D01*
X162027825Y-75736712D01*
G37*
X162027825Y-75736712D02*
X162000189Y-75738919D01*
X161975844Y-75742917D01*
X161958020Y-75747226D01*
X161894467Y-75769370D01*
X161836032Y-75799929D01*
X161783466Y-75838454D01*
X161747315Y-75873423D01*
X161719253Y-75906774D01*
X161696305Y-75940739D01*
X161677072Y-75977906D01*
X161660156Y-76020861D01*
X161649108Y-76055220D01*
X161647292Y-76061492D01*
X161645691Y-76067874D01*
X161644290Y-76075026D01*
X161643072Y-76083609D01*
X161642021Y-76094283D01*
X161641121Y-76107709D01*
X161640355Y-76124546D01*
X161639707Y-76145455D01*
X161639162Y-76171096D01*
X161638702Y-76202130D01*
X161638311Y-76239216D01*
X161637974Y-76283016D01*
X161637674Y-76334189D01*
X161637395Y-76393396D01*
X161637121Y-76461297D01*
X161636834Y-76538552D01*
X161636768Y-76556870D01*
X161635088Y-77022960D01*
X161894124Y-77022960D01*
X161895822Y-76612750D01*
X161896127Y-76536940D01*
X161896406Y-76470568D01*
X161896709Y-76412911D01*
X161897087Y-76363246D01*
X161897587Y-76320852D01*
X161898261Y-76285006D01*
X161899157Y-76254985D01*
X161900325Y-76230067D01*
X161901815Y-76209530D01*
X161903677Y-76192651D01*
X161905959Y-76178708D01*
X161908713Y-76166979D01*
X161911987Y-76156741D01*
X161915830Y-76147272D01*
X161920294Y-76137849D01*
X161925426Y-76127751D01*
X161929717Y-76119353D01*
X161955119Y-76080014D01*
X161988044Y-76047502D01*
X162028485Y-76021824D01*
X162035655Y-76018349D01*
X162053719Y-76010262D01*
X162068603Y-76004859D01*
X162083437Y-76001485D01*
X162101346Y-75999485D01*
X162125459Y-75998204D01*
X162133280Y-75997902D01*
X162160699Y-75997182D01*
X162181036Y-75997597D01*
X162197332Y-75999443D01*
X162212631Y-76003017D01*
X162224720Y-76006821D01*
X162270450Y-76026936D01*
X162309008Y-76054220D01*
X162340570Y-76088819D01*
X162361639Y-76123321D01*
X162366998Y-76133986D01*
X162371692Y-76143849D01*
X162375763Y-76153628D01*
X162379257Y-76164042D01*
X162382218Y-76175811D01*
X162384691Y-76189652D01*
X162386719Y-76206285D01*
X162388346Y-76226428D01*
X162389618Y-76250800D01*
X162390579Y-76280120D01*
X162391272Y-76315107D01*
X162391742Y-76356479D01*
X162392034Y-76404956D01*
X162392192Y-76461255D01*
X162392260Y-76526097D01*
X162392282Y-76600198D01*
X162392285Y-76620370D01*
X162392360Y-77022960D01*
X162656520Y-77022960D01*
X162656520Y-75747880D01*
X162392360Y-75747880D01*
X162392360Y-75881015D01*
X162351043Y-75842147D01*
X162326135Y-75820054D01*
X162302891Y-75802948D01*
X162276912Y-75787809D01*
X162258333Y-75778486D01*
X162216063Y-75760072D01*
X162176226Y-75747391D01*
X162135415Y-75739703D01*
X162090220Y-75736269D01*
X162062160Y-75735926D01*
X162027825Y-75736712D01*
G36*
X154613077Y-75742465D02*
G01*
X154597100Y-75745373D01*
X154527644Y-75763937D01*
X154462863Y-75791263D01*
X154403309Y-75826827D01*
X154349533Y-75870107D01*
X154302086Y-75920580D01*
X154261519Y-75977722D01*
X154228382Y-76041010D01*
X154203227Y-76109922D01*
X154199624Y-76122754D01*
X154195866Y-76137179D01*
X154192870Y-76150305D01*
X154190531Y-76163554D01*
X154188741Y-76178346D01*
X154187396Y-76196103D01*
X154186388Y-76218246D01*
X154185613Y-76246195D01*
X154184963Y-76281373D01*
X154184334Y-76325200D01*
X154184293Y-76328270D01*
X154182199Y-76484480D01*
X154973291Y-76484480D01*
X154969752Y-76526390D01*
X154960681Y-76583176D01*
X154943665Y-76633752D01*
X154918840Y-76677944D01*
X154886342Y-76715576D01*
X154846307Y-76746472D01*
X154798872Y-76770459D01*
X154772360Y-76779825D01*
X154739711Y-76787123D01*
X154701739Y-76791193D01*
X154662017Y-76791990D01*
X154624118Y-76789466D01*
X154591613Y-76783574D01*
X154586940Y-76782252D01*
X154546292Y-76767884D01*
X154506268Y-76749881D01*
X154469188Y-76729524D01*
X154437374Y-76708096D01*
X154413148Y-76686877D01*
X154412065Y-76685723D01*
X154402763Y-76676876D01*
X154396039Y-76672531D01*
X154395451Y-76672440D01*
X154390475Y-76675600D01*
X154378987Y-76684432D01*
X154362161Y-76697961D01*
X154341170Y-76715213D01*
X154317186Y-76735212D01*
X154291384Y-76756986D01*
X154264937Y-76779559D01*
X154239017Y-76801957D01*
X154229438Y-76810317D01*
X154217132Y-76821485D01*
X154211415Y-76828702D01*
X154211097Y-76834557D01*
X154214990Y-76841638D01*
X154215028Y-76841696D01*
X154224062Y-76852497D01*
X154239265Y-76867606D01*
X154258641Y-76885277D01*
X154280197Y-76903767D01*
X154301939Y-76921333D01*
X154321873Y-76936231D01*
X154327860Y-76940363D01*
X154381001Y-76972457D01*
X154434799Y-76997360D01*
X154491115Y-77015616D01*
X154551813Y-77027773D01*
X154618752Y-77034375D01*
X154652980Y-77035716D01*
X154682013Y-77036266D01*
X154707809Y-77036542D01*
X154728521Y-77036540D01*
X154742301Y-77036257D01*
X154746960Y-77035863D01*
X154755474Y-77034201D01*
X154770893Y-77031508D01*
X154790082Y-77028327D01*
X154792680Y-77027908D01*
X154864648Y-77011763D01*
X154930536Y-76987509D01*
X154990253Y-76955243D01*
X155043709Y-76915062D01*
X155090814Y-76867064D01*
X155131478Y-76811344D01*
X155165610Y-76748002D01*
X155193121Y-76677132D01*
X155213920Y-76598834D01*
X155219920Y-76567866D01*
X155226392Y-76519918D01*
X155230523Y-76465104D01*
X155232313Y-76406444D01*
X155231763Y-76346959D01*
X155228872Y-76289668D01*
X155227010Y-76271120D01*
X154973625Y-76271120D01*
X154440990Y-76271120D01*
X154444476Y-76241910D01*
X154454601Y-76185609D01*
X154470878Y-76136681D01*
X154493768Y-76094083D01*
X154523730Y-76056772D01*
X154528070Y-76052354D01*
X154561453Y-76023465D01*
X154596204Y-76002761D01*
X154634323Y-75989459D01*
X154677810Y-75982780D01*
X154709208Y-75981620D01*
X154761784Y-75986063D01*
X154809543Y-75999248D01*
X154852042Y-76020747D01*
X154888835Y-76050129D01*
X154919476Y-76086965D01*
X154943519Y-76130825D01*
X154960520Y-76181280D01*
X154969498Y-76232602D01*
X154973625Y-76271120D01*
X155227010Y-76271120D01*
X155223643Y-76237592D01*
X155219863Y-76212795D01*
X155202264Y-76132541D01*
X155178961Y-76060315D01*
X155149700Y-75995569D01*
X155114222Y-75937756D01*
X155072272Y-75886327D01*
X155062428Y-75876096D01*
X155010970Y-75831191D01*
X154954055Y-75794550D01*
X154892409Y-75766378D01*
X154826760Y-75746879D01*
X154757837Y-75736257D01*
X154686367Y-75734718D01*
X154613077Y-75742465D01*
X154613077Y-75742465D01*
G37*
X154613077Y-75742465D02*
X154597100Y-75745373D01*
X154527644Y-75763937D01*
X154462863Y-75791263D01*
X154403309Y-75826827D01*
X154349533Y-75870107D01*
X154302086Y-75920580D01*
X154261519Y-75977722D01*
X154228382Y-76041010D01*
X154203227Y-76109922D01*
X154199624Y-76122754D01*
X154195866Y-76137179D01*
X154192870Y-76150305D01*
X154190531Y-76163554D01*
X154188741Y-76178346D01*
X154187396Y-76196103D01*
X154186388Y-76218246D01*
X154185613Y-76246195D01*
X154184963Y-76281373D01*
X154184334Y-76325200D01*
X154184293Y-76328270D01*
X154182199Y-76484480D01*
X154973291Y-76484480D01*
X154969752Y-76526390D01*
X154960681Y-76583176D01*
X154943665Y-76633752D01*
X154918840Y-76677944D01*
X154886342Y-76715576D01*
X154846307Y-76746472D01*
X154798872Y-76770459D01*
X154772360Y-76779825D01*
X154739711Y-76787123D01*
X154701739Y-76791193D01*
X154662017Y-76791990D01*
X154624118Y-76789466D01*
X154591613Y-76783574D01*
X154586940Y-76782252D01*
X154546292Y-76767884D01*
X154506268Y-76749881D01*
X154469188Y-76729524D01*
X154437374Y-76708096D01*
X154413148Y-76686877D01*
X154412065Y-76685723D01*
X154402763Y-76676876D01*
X154396039Y-76672531D01*
X154395451Y-76672440D01*
X154390475Y-76675600D01*
X154378987Y-76684432D01*
X154362161Y-76697961D01*
X154341170Y-76715213D01*
X154317186Y-76735212D01*
X154291384Y-76756986D01*
X154264937Y-76779559D01*
X154239017Y-76801957D01*
X154229438Y-76810317D01*
X154217132Y-76821485D01*
X154211415Y-76828702D01*
X154211097Y-76834557D01*
X154214990Y-76841638D01*
X154215028Y-76841696D01*
X154224062Y-76852497D01*
X154239265Y-76867606D01*
X154258641Y-76885277D01*
X154280197Y-76903767D01*
X154301939Y-76921333D01*
X154321873Y-76936231D01*
X154327860Y-76940363D01*
X154381001Y-76972457D01*
X154434799Y-76997360D01*
X154491115Y-77015616D01*
X154551813Y-77027773D01*
X154618752Y-77034375D01*
X154652980Y-77035716D01*
X154682013Y-77036266D01*
X154707809Y-77036542D01*
X154728521Y-77036540D01*
X154742301Y-77036257D01*
X154746960Y-77035863D01*
X154755474Y-77034201D01*
X154770893Y-77031508D01*
X154790082Y-77028327D01*
X154792680Y-77027908D01*
X154864648Y-77011763D01*
X154930536Y-76987509D01*
X154990253Y-76955243D01*
X155043709Y-76915062D01*
X155090814Y-76867064D01*
X155131478Y-76811344D01*
X155165610Y-76748002D01*
X155193121Y-76677132D01*
X155213920Y-76598834D01*
X155219920Y-76567866D01*
X155226392Y-76519918D01*
X155230523Y-76465104D01*
X155232313Y-76406444D01*
X155231763Y-76346959D01*
X155228872Y-76289668D01*
X155227010Y-76271120D01*
X154973625Y-76271120D01*
X154440990Y-76271120D01*
X154444476Y-76241910D01*
X154454601Y-76185609D01*
X154470878Y-76136681D01*
X154493768Y-76094083D01*
X154523730Y-76056772D01*
X154528070Y-76052354D01*
X154561453Y-76023465D01*
X154596204Y-76002761D01*
X154634323Y-75989459D01*
X154677810Y-75982780D01*
X154709208Y-75981620D01*
X154761784Y-75986063D01*
X154809543Y-75999248D01*
X154852042Y-76020747D01*
X154888835Y-76050129D01*
X154919476Y-76086965D01*
X154943519Y-76130825D01*
X154960520Y-76181280D01*
X154969498Y-76232602D01*
X154973625Y-76271120D01*
X155227010Y-76271120D01*
X155223643Y-76237592D01*
X155219863Y-76212795D01*
X155202264Y-76132541D01*
X155178961Y-76060315D01*
X155149700Y-75995569D01*
X155114222Y-75937756D01*
X155072272Y-75886327D01*
X155062428Y-75876096D01*
X155010970Y-75831191D01*
X154954055Y-75794550D01*
X154892409Y-75766378D01*
X154826760Y-75746879D01*
X154757837Y-75736257D01*
X154686367Y-75734718D01*
X154613077Y-75742465D01*
G36*
X155672791Y-75739366D02*
G01*
X155646498Y-75743395D01*
X155599667Y-75754723D01*
X155549293Y-75772231D01*
X155498583Y-75794502D01*
X155450743Y-75820121D01*
X155408982Y-75847674D01*
X155407277Y-75848951D01*
X155392045Y-75861172D01*
X155374116Y-75876687D01*
X155355025Y-75894025D01*
X155336306Y-75911714D01*
X155319492Y-75928282D01*
X155306117Y-75942259D01*
X155297716Y-75952172D01*
X155295600Y-75956088D01*
X155299241Y-75960459D01*
X155309480Y-75970589D01*
X155325293Y-75985521D01*
X155345655Y-76004297D01*
X155369540Y-76025960D01*
X155390104Y-76044376D01*
X155484607Y-76128553D01*
X155510092Y-76100669D01*
X155541345Y-76071613D01*
X155578858Y-76044861D01*
X155618902Y-76022799D01*
X155652733Y-76009331D01*
X155674240Y-76003222D01*
X155694259Y-75999428D01*
X155716488Y-75997472D01*
X155744627Y-75996877D01*
X155749253Y-75996875D01*
X155779094Y-75997714D01*
X155807882Y-75999933D01*
X155831789Y-76003200D01*
X155838712Y-76004627D01*
X155889819Y-76021512D01*
X155934968Y-76046553D01*
X155973941Y-76079525D01*
X156006524Y-76120202D01*
X156032501Y-76168360D01*
X156051655Y-76223772D01*
X156052740Y-76227940D01*
X156061058Y-76270531D01*
X156066423Y-76319625D01*
X156068832Y-76372307D01*
X156068277Y-76425666D01*
X156064756Y-76476789D01*
X156058264Y-76522763D01*
X156053259Y-76545440D01*
X156034500Y-76601994D01*
X156009516Y-76650536D01*
X155978254Y-76691108D01*
X155940658Y-76723750D01*
X155896676Y-76748504D01*
X155846254Y-76765410D01*
X155789336Y-76774511D01*
X155750260Y-76776253D01*
X155719320Y-76775944D01*
X155695845Y-76774453D01*
X155677180Y-76771506D01*
X155661360Y-76767064D01*
X155605110Y-76742843D01*
X155554431Y-76710239D01*
X155522960Y-76683251D01*
X155483619Y-76645747D01*
X155451840Y-76673674D01*
X155413498Y-76707503D01*
X155379593Y-76737688D01*
X155350684Y-76763720D01*
X155327329Y-76785088D01*
X155310088Y-76801281D01*
X155299519Y-76811789D01*
X155296204Y-76815854D01*
X155298927Y-76821212D01*
X155307758Y-76831981D01*
X155321361Y-76846658D01*
X155338404Y-76863739D01*
X155340557Y-76865823D01*
X155401021Y-76918003D01*
X155464282Y-76960559D01*
X155530884Y-76993771D01*
X155601371Y-77017922D01*
X155658216Y-77030448D01*
X155691384Y-77034527D01*
X155730642Y-77036832D01*
X155772069Y-77037320D01*
X155811744Y-77035947D01*
X155845746Y-77032671D01*
X155846678Y-77032537D01*
X155921763Y-77016902D01*
X155991791Y-76992736D01*
X156056362Y-76960302D01*
X156115078Y-76919861D01*
X156167540Y-76871675D01*
X156213351Y-76816005D01*
X156240449Y-76774094D01*
X156271171Y-76712350D01*
X156295577Y-76644083D01*
X156313644Y-76570746D01*
X156325348Y-76493794D01*
X156330665Y-76414679D01*
X156329574Y-76334855D01*
X156322049Y-76255775D01*
X156308068Y-76178894D01*
X156287607Y-76105665D01*
X156260643Y-76037540D01*
X156252557Y-76020828D01*
X156222520Y-75970336D01*
X156184637Y-75921195D01*
X156141152Y-75875943D01*
X156094307Y-75837114D01*
X156082979Y-75829145D01*
X156024254Y-75795127D01*
X155959624Y-75768329D01*
X155890626Y-75749052D01*
X155818797Y-75737597D01*
X155745673Y-75734268D01*
X155672791Y-75739366D01*
X155672791Y-75739366D01*
G37*
X155672791Y-75739366D02*
X155646498Y-75743395D01*
X155599667Y-75754723D01*
X155549293Y-75772231D01*
X155498583Y-75794502D01*
X155450743Y-75820121D01*
X155408982Y-75847674D01*
X155407277Y-75848951D01*
X155392045Y-75861172D01*
X155374116Y-75876687D01*
X155355025Y-75894025D01*
X155336306Y-75911714D01*
X155319492Y-75928282D01*
X155306117Y-75942259D01*
X155297716Y-75952172D01*
X155295600Y-75956088D01*
X155299241Y-75960459D01*
X155309480Y-75970589D01*
X155325293Y-75985521D01*
X155345655Y-76004297D01*
X155369540Y-76025960D01*
X155390104Y-76044376D01*
X155484607Y-76128553D01*
X155510092Y-76100669D01*
X155541345Y-76071613D01*
X155578858Y-76044861D01*
X155618902Y-76022799D01*
X155652733Y-76009331D01*
X155674240Y-76003222D01*
X155694259Y-75999428D01*
X155716488Y-75997472D01*
X155744627Y-75996877D01*
X155749253Y-75996875D01*
X155779094Y-75997714D01*
X155807882Y-75999933D01*
X155831789Y-76003200D01*
X155838712Y-76004627D01*
X155889819Y-76021512D01*
X155934968Y-76046553D01*
X155973941Y-76079525D01*
X156006524Y-76120202D01*
X156032501Y-76168360D01*
X156051655Y-76223772D01*
X156052740Y-76227940D01*
X156061058Y-76270531D01*
X156066423Y-76319625D01*
X156068832Y-76372307D01*
X156068277Y-76425666D01*
X156064756Y-76476789D01*
X156058264Y-76522763D01*
X156053259Y-76545440D01*
X156034500Y-76601994D01*
X156009516Y-76650536D01*
X155978254Y-76691108D01*
X155940658Y-76723750D01*
X155896676Y-76748504D01*
X155846254Y-76765410D01*
X155789336Y-76774511D01*
X155750260Y-76776253D01*
X155719320Y-76775944D01*
X155695845Y-76774453D01*
X155677180Y-76771506D01*
X155661360Y-76767064D01*
X155605110Y-76742843D01*
X155554431Y-76710239D01*
X155522960Y-76683251D01*
X155483619Y-76645747D01*
X155451840Y-76673674D01*
X155413498Y-76707503D01*
X155379593Y-76737688D01*
X155350684Y-76763720D01*
X155327329Y-76785088D01*
X155310088Y-76801281D01*
X155299519Y-76811789D01*
X155296204Y-76815854D01*
X155298927Y-76821212D01*
X155307758Y-76831981D01*
X155321361Y-76846658D01*
X155338404Y-76863739D01*
X155340557Y-76865823D01*
X155401021Y-76918003D01*
X155464282Y-76960559D01*
X155530884Y-76993771D01*
X155601371Y-77017922D01*
X155658216Y-77030448D01*
X155691384Y-77034527D01*
X155730642Y-77036832D01*
X155772069Y-77037320D01*
X155811744Y-77035947D01*
X155845746Y-77032671D01*
X155846678Y-77032537D01*
X155921763Y-77016902D01*
X155991791Y-76992736D01*
X156056362Y-76960302D01*
X156115078Y-76919861D01*
X156167540Y-76871675D01*
X156213351Y-76816005D01*
X156240449Y-76774094D01*
X156271171Y-76712350D01*
X156295577Y-76644083D01*
X156313644Y-76570746D01*
X156325348Y-76493794D01*
X156330665Y-76414679D01*
X156329574Y-76334855D01*
X156322049Y-76255775D01*
X156308068Y-76178894D01*
X156287607Y-76105665D01*
X156260643Y-76037540D01*
X156252557Y-76020828D01*
X156222520Y-75970336D01*
X156184637Y-75921195D01*
X156141152Y-75875943D01*
X156094307Y-75837114D01*
X156082979Y-75829145D01*
X156024254Y-75795127D01*
X155959624Y-75768329D01*
X155890626Y-75749052D01*
X155818797Y-75737597D01*
X155745673Y-75734268D01*
X155672791Y-75739366D01*
G36*
X158191125Y-76150470D02*
G01*
X158191106Y-76226891D01*
X158191050Y-76293873D01*
X158190916Y-76352136D01*
X158190663Y-76402401D01*
X158190249Y-76445388D01*
X158189634Y-76481817D01*
X158188775Y-76512410D01*
X158187633Y-76537886D01*
X158186164Y-76558966D01*
X158184328Y-76576371D01*
X158182084Y-76590822D01*
X158179390Y-76603037D01*
X158176206Y-76613739D01*
X158172488Y-76623648D01*
X158168198Y-76633484D01*
X158163292Y-76643968D01*
X158162758Y-76645097D01*
X158141636Y-76679598D01*
X158113079Y-76711535D01*
X158079810Y-76738169D01*
X158057315Y-76751161D01*
X158011307Y-76768638D01*
X157964356Y-76777099D01*
X157917688Y-76776935D01*
X157872527Y-76768539D01*
X157830099Y-76752303D01*
X157791627Y-76728620D01*
X157758338Y-76697881D01*
X157731455Y-76660480D01*
X157722916Y-76644055D01*
X157717759Y-76632925D01*
X157713243Y-76622480D01*
X157709326Y-76611996D01*
X157705966Y-76600748D01*
X157703120Y-76588011D01*
X157700744Y-76573059D01*
X157698795Y-76555169D01*
X157697232Y-76533615D01*
X157696011Y-76507673D01*
X157695090Y-76476617D01*
X157694425Y-76439723D01*
X157693973Y-76396266D01*
X157693693Y-76345521D01*
X157693540Y-76286764D01*
X157693473Y-76219268D01*
X157693449Y-76145390D01*
X157693360Y-75747880D01*
X157434280Y-75747880D01*
X157434280Y-77022960D01*
X157693360Y-77022960D01*
X157693360Y-76888638D01*
X157722570Y-76918600D01*
X157768221Y-76958288D01*
X157819808Y-76990338D01*
X157876238Y-77014445D01*
X157936417Y-77030307D01*
X157999251Y-77037619D01*
X158063646Y-77036078D01*
X158116730Y-77028020D01*
X158160182Y-77015495D01*
X158206016Y-76996388D01*
X158250754Y-76972418D01*
X158290918Y-76945304D01*
X158301979Y-76936459D01*
X158346027Y-76893111D01*
X158383760Y-76842394D01*
X158414465Y-76785419D01*
X158435926Y-76728320D01*
X158447541Y-76690220D01*
X158450583Y-75747880D01*
X158191200Y-75747880D01*
X158191125Y-76150470D01*
X158191125Y-76150470D01*
G37*
X158191125Y-76150470D02*
X158191106Y-76226891D01*
X158191050Y-76293873D01*
X158190916Y-76352136D01*
X158190663Y-76402401D01*
X158190249Y-76445388D01*
X158189634Y-76481817D01*
X158188775Y-76512410D01*
X158187633Y-76537886D01*
X158186164Y-76558966D01*
X158184328Y-76576371D01*
X158182084Y-76590822D01*
X158179390Y-76603037D01*
X158176206Y-76613739D01*
X158172488Y-76623648D01*
X158168198Y-76633484D01*
X158163292Y-76643968D01*
X158162758Y-76645097D01*
X158141636Y-76679598D01*
X158113079Y-76711535D01*
X158079810Y-76738169D01*
X158057315Y-76751161D01*
X158011307Y-76768638D01*
X157964356Y-76777099D01*
X157917688Y-76776935D01*
X157872527Y-76768539D01*
X157830099Y-76752303D01*
X157791627Y-76728620D01*
X157758338Y-76697881D01*
X157731455Y-76660480D01*
X157722916Y-76644055D01*
X157717759Y-76632925D01*
X157713243Y-76622480D01*
X157709326Y-76611996D01*
X157705966Y-76600748D01*
X157703120Y-76588011D01*
X157700744Y-76573059D01*
X157698795Y-76555169D01*
X157697232Y-76533615D01*
X157696011Y-76507673D01*
X157695090Y-76476617D01*
X157694425Y-76439723D01*
X157693973Y-76396266D01*
X157693693Y-76345521D01*
X157693540Y-76286764D01*
X157693473Y-76219268D01*
X157693449Y-76145390D01*
X157693360Y-75747880D01*
X157434280Y-75747880D01*
X157434280Y-77022960D01*
X157693360Y-77022960D01*
X157693360Y-76888638D01*
X157722570Y-76918600D01*
X157768221Y-76958288D01*
X157819808Y-76990338D01*
X157876238Y-77014445D01*
X157936417Y-77030307D01*
X157999251Y-77037619D01*
X158063646Y-77036078D01*
X158116730Y-77028020D01*
X158160182Y-77015495D01*
X158206016Y-76996388D01*
X158250754Y-76972418D01*
X158290918Y-76945304D01*
X158301979Y-76936459D01*
X158346027Y-76893111D01*
X158383760Y-76842394D01*
X158414465Y-76785419D01*
X158435926Y-76728320D01*
X158447541Y-76690220D01*
X158450583Y-75747880D01*
X158191200Y-75747880D01*
X158191125Y-76150470D01*
G36*
X159147621Y-75735807D02*
G01*
X159133891Y-75737038D01*
X159060715Y-75748763D01*
X158993427Y-75768618D01*
X158931532Y-75796828D01*
X158874538Y-75833618D01*
X158822413Y-75878755D01*
X158788449Y-75914966D01*
X158759449Y-75952048D01*
X158735095Y-75991034D01*
X158715072Y-76032959D01*
X158699063Y-76078858D01*
X158686750Y-76129764D01*
X158677818Y-76186712D01*
X158671949Y-76250737D01*
X158668828Y-76322873D01*
X158668099Y-76382880D01*
X158669069Y-76460424D01*
X158672385Y-76529084D01*
X158678302Y-76589921D01*
X158687074Y-76643992D01*
X158698956Y-76692357D01*
X158714202Y-76736074D01*
X158733067Y-76776203D01*
X158755804Y-76813803D01*
X158779281Y-76845718D01*
X158827613Y-76899332D01*
X158880208Y-76943845D01*
X158937608Y-76979578D01*
X159000359Y-77006853D01*
X159069004Y-77025991D01*
X159092296Y-77030447D01*
X159124018Y-77034361D01*
X159162073Y-77036688D01*
X159202754Y-77037386D01*
X159242352Y-77036414D01*
X159277160Y-77033730D01*
X159285940Y-77032610D01*
X159350823Y-77018362D01*
X159414103Y-76994762D01*
X159474253Y-76962619D01*
X159529746Y-76922740D01*
X159576189Y-76879041D01*
X159607993Y-76842126D01*
X159635023Y-76804350D01*
X159657589Y-76764639D01*
X159675999Y-76721917D01*
X159690563Y-76675110D01*
X159701591Y-76623143D01*
X159709390Y-76564941D01*
X159714272Y-76499430D01*
X159716545Y-76425535D01*
X159716620Y-76415028D01*
X159455450Y-76415028D01*
X159454902Y-76467318D01*
X159452814Y-76511928D01*
X159448949Y-76550068D01*
X159443071Y-76582951D01*
X159434942Y-76611788D01*
X159424326Y-76637791D01*
X159410987Y-76662171D01*
X159394688Y-76686140D01*
X159388112Y-76694822D01*
X159366829Y-76716192D01*
X159337939Y-76736478D01*
X159303989Y-76754306D01*
X159267527Y-76768302D01*
X159237680Y-76775930D01*
X159218038Y-76777678D01*
X159192021Y-76777249D01*
X159163103Y-76774946D01*
X159134761Y-76771077D01*
X159110472Y-76765945D01*
X159104619Y-76764244D01*
X159059641Y-76745065D01*
X159020811Y-76718115D01*
X158988815Y-76683896D01*
X158982447Y-76674980D01*
X158967711Y-76651151D01*
X158955655Y-76626515D01*
X158946084Y-76599865D01*
X158938800Y-76569995D01*
X158933603Y-76535699D01*
X158930298Y-76495771D01*
X158928687Y-76449004D01*
X158928571Y-76394193D01*
X158929272Y-76350468D01*
X158930520Y-76302905D01*
X158932168Y-76263997D01*
X158934462Y-76232237D01*
X158937650Y-76206123D01*
X158941979Y-76184148D01*
X158947699Y-76164808D01*
X158955055Y-76146599D01*
X158964295Y-76128015D01*
X158966566Y-76123800D01*
X158994518Y-76082098D01*
X159028471Y-76048577D01*
X159068323Y-76023293D01*
X159113974Y-76006302D01*
X159165322Y-75997660D01*
X159194500Y-75996485D01*
X159246927Y-76000870D01*
X159294689Y-76013872D01*
X159337228Y-76035173D01*
X159373985Y-76064454D01*
X159404401Y-76101397D01*
X159417616Y-76123699D01*
X159427205Y-76142908D01*
X159434876Y-76161086D01*
X159440873Y-76179742D01*
X159445438Y-76200384D01*
X159448815Y-76224523D01*
X159451246Y-76253667D01*
X159452974Y-76289326D01*
X159454244Y-76333009D01*
X159454694Y-76353845D01*
X159455450Y-76415028D01*
X159716620Y-76415028D01*
X159716798Y-76390500D01*
X159715914Y-76314163D01*
X159712852Y-76246672D01*
X159707293Y-76186886D01*
X159698921Y-76133661D01*
X159687417Y-76085856D01*
X159672463Y-76042328D01*
X159653741Y-76001936D01*
X159630933Y-75963537D01*
X159603721Y-75925989D01*
X159579326Y-75896662D01*
X159533035Y-75851295D01*
X159479942Y-75812791D01*
X159421052Y-75781510D01*
X159357371Y-75757810D01*
X159289901Y-75742053D01*
X159219650Y-75734599D01*
X159147621Y-75735807D01*
X159147621Y-75735807D01*
G37*
X159147621Y-75735807D02*
X159133891Y-75737038D01*
X159060715Y-75748763D01*
X158993427Y-75768618D01*
X158931532Y-75796828D01*
X158874538Y-75833618D01*
X158822413Y-75878755D01*
X158788449Y-75914966D01*
X158759449Y-75952048D01*
X158735095Y-75991034D01*
X158715072Y-76032959D01*
X158699063Y-76078858D01*
X158686750Y-76129764D01*
X158677818Y-76186712D01*
X158671949Y-76250737D01*
X158668828Y-76322873D01*
X158668099Y-76382880D01*
X158669069Y-76460424D01*
X158672385Y-76529084D01*
X158678302Y-76589921D01*
X158687074Y-76643992D01*
X158698956Y-76692357D01*
X158714202Y-76736074D01*
X158733067Y-76776203D01*
X158755804Y-76813803D01*
X158779281Y-76845718D01*
X158827613Y-76899332D01*
X158880208Y-76943845D01*
X158937608Y-76979578D01*
X159000359Y-77006853D01*
X159069004Y-77025991D01*
X159092296Y-77030447D01*
X159124018Y-77034361D01*
X159162073Y-77036688D01*
X159202754Y-77037386D01*
X159242352Y-77036414D01*
X159277160Y-77033730D01*
X159285940Y-77032610D01*
X159350823Y-77018362D01*
X159414103Y-76994762D01*
X159474253Y-76962619D01*
X159529746Y-76922740D01*
X159576189Y-76879041D01*
X159607993Y-76842126D01*
X159635023Y-76804350D01*
X159657589Y-76764639D01*
X159675999Y-76721917D01*
X159690563Y-76675110D01*
X159701591Y-76623143D01*
X159709390Y-76564941D01*
X159714272Y-76499430D01*
X159716545Y-76425535D01*
X159716620Y-76415028D01*
X159455450Y-76415028D01*
X159454902Y-76467318D01*
X159452814Y-76511928D01*
X159448949Y-76550068D01*
X159443071Y-76582951D01*
X159434942Y-76611788D01*
X159424326Y-76637791D01*
X159410987Y-76662171D01*
X159394688Y-76686140D01*
X159388112Y-76694822D01*
X159366829Y-76716192D01*
X159337939Y-76736478D01*
X159303989Y-76754306D01*
X159267527Y-76768302D01*
X159237680Y-76775930D01*
X159218038Y-76777678D01*
X159192021Y-76777249D01*
X159163103Y-76774946D01*
X159134761Y-76771077D01*
X159110472Y-76765945D01*
X159104619Y-76764244D01*
X159059641Y-76745065D01*
X159020811Y-76718115D01*
X158988815Y-76683896D01*
X158982447Y-76674980D01*
X158967711Y-76651151D01*
X158955655Y-76626515D01*
X158946084Y-76599865D01*
X158938800Y-76569995D01*
X158933603Y-76535699D01*
X158930298Y-76495771D01*
X158928687Y-76449004D01*
X158928571Y-76394193D01*
X158929272Y-76350468D01*
X158930520Y-76302905D01*
X158932168Y-76263997D01*
X158934462Y-76232237D01*
X158937650Y-76206123D01*
X158941979Y-76184148D01*
X158947699Y-76164808D01*
X158955055Y-76146599D01*
X158964295Y-76128015D01*
X158966566Y-76123800D01*
X158994518Y-76082098D01*
X159028471Y-76048577D01*
X159068323Y-76023293D01*
X159113974Y-76006302D01*
X159165322Y-75997660D01*
X159194500Y-75996485D01*
X159246927Y-76000870D01*
X159294689Y-76013872D01*
X159337228Y-76035173D01*
X159373985Y-76064454D01*
X159404401Y-76101397D01*
X159417616Y-76123699D01*
X159427205Y-76142908D01*
X159434876Y-76161086D01*
X159440873Y-76179742D01*
X159445438Y-76200384D01*
X159448815Y-76224523D01*
X159451246Y-76253667D01*
X159452974Y-76289326D01*
X159454244Y-76333009D01*
X159454694Y-76353845D01*
X159455450Y-76415028D01*
X159716620Y-76415028D01*
X159716798Y-76390500D01*
X159715914Y-76314163D01*
X159712852Y-76246672D01*
X159707293Y-76186886D01*
X159698921Y-76133661D01*
X159687417Y-76085856D01*
X159672463Y-76042328D01*
X159653741Y-76001936D01*
X159630933Y-75963537D01*
X159603721Y-75925989D01*
X159579326Y-75896662D01*
X159533035Y-75851295D01*
X159479942Y-75812791D01*
X159421052Y-75781510D01*
X159357371Y-75757810D01*
X159289901Y-75742053D01*
X159219650Y-75734599D01*
X159147621Y-75735807D01*
G36*
X160316202Y-75737061D02*
G01*
X160243573Y-75745725D01*
X160173470Y-75759876D01*
X160119784Y-75775415D01*
X160077067Y-75792111D01*
X160030888Y-75814197D01*
X159984525Y-75839850D01*
X159941258Y-75867244D01*
X159904365Y-75894553D01*
X159901475Y-75896939D01*
X159887090Y-75908943D01*
X159966811Y-76002401D01*
X159989107Y-76028353D01*
X160009265Y-76051461D01*
X160026348Y-76070681D01*
X160039417Y-76084965D01*
X160047536Y-76093268D01*
X160049777Y-76094960D01*
X160055205Y-76092113D01*
X160067375Y-76085106D01*
X160084355Y-76075068D01*
X160099895Y-76065737D01*
X160148511Y-76038095D01*
X160192797Y-76017053D01*
X160235374Y-76001803D01*
X160278863Y-75991536D01*
X160325886Y-75985443D01*
X160367980Y-75983025D01*
X160402711Y-75982220D01*
X160429688Y-75982488D01*
X160451272Y-75983948D01*
X160469827Y-75986720D01*
X160478579Y-75988605D01*
X160520147Y-76001723D01*
X160552924Y-76019624D01*
X160577270Y-76042681D01*
X160593545Y-76071266D01*
X160602112Y-76105752D01*
X160603225Y-76117196D01*
X160601307Y-76150691D01*
X160590727Y-76178977D01*
X160571553Y-76201907D01*
X160561788Y-76209346D01*
X160548398Y-76217933D01*
X160535276Y-76225059D01*
X160521196Y-76230962D01*
X160504931Y-76235881D01*
X160485254Y-76240055D01*
X160460938Y-76243722D01*
X160430756Y-76247122D01*
X160393482Y-76250494D01*
X160347889Y-76254075D01*
X160322267Y-76255970D01*
X160271142Y-76259884D01*
X160228722Y-76263606D01*
X160193559Y-76267369D01*
X160164208Y-76271402D01*
X160139221Y-76275936D01*
X160117152Y-76281203D01*
X160096554Y-76287433D01*
X160075980Y-76294856D01*
X160074171Y-76295556D01*
X160021406Y-76320994D01*
X159975960Y-76353467D01*
X159937867Y-76392930D01*
X159907157Y-76439339D01*
X159883865Y-76492647D01*
X159868021Y-76552812D01*
X159862536Y-76588457D01*
X159858900Y-76647529D01*
X159863016Y-76701707D01*
X159875158Y-76752980D01*
X159890913Y-76793410D01*
X159919223Y-76843362D01*
X159955934Y-76888199D01*
X160000524Y-76927668D01*
X160052470Y-76961512D01*
X160111250Y-76989477D01*
X160176342Y-77011307D01*
X160247225Y-77026748D01*
X160323375Y-77035545D01*
X160390840Y-77037614D01*
X160421552Y-77036881D01*
X160453641Y-77035187D01*
X160483185Y-77032788D01*
X160505140Y-77030120D01*
X160593487Y-77011575D01*
X160677365Y-76984108D01*
X160756372Y-76947862D01*
X160790177Y-76928757D01*
X160817128Y-76911748D01*
X160845886Y-76892202D01*
X160874381Y-76871658D01*
X160900539Y-76851657D01*
X160922288Y-76833738D01*
X160937558Y-76819443D01*
X160938291Y-76818661D01*
X160949801Y-76806234D01*
X160889971Y-76748227D01*
X160866764Y-76725775D01*
X160843246Y-76703106D01*
X160821636Y-76682353D01*
X160804150Y-76665646D01*
X160798518Y-76660300D01*
X160766895Y-76630381D01*
X160744475Y-76651048D01*
X160687184Y-76697091D01*
X160624898Y-76734488D01*
X160558354Y-76762982D01*
X160488292Y-76782313D01*
X160415449Y-76792225D01*
X160340563Y-76792458D01*
X160340040Y-76792426D01*
X160285374Y-76785985D01*
X160237982Y-76774137D01*
X160198215Y-76757113D01*
X160166426Y-76735146D01*
X160142964Y-76708466D01*
X160128180Y-76677305D01*
X160122823Y-76649119D01*
X160121833Y-76619508D01*
X160124835Y-76596677D01*
X160132608Y-76577765D01*
X160145933Y-76559913D01*
X160147699Y-76557970D01*
X160157483Y-76548170D01*
X160167905Y-76539917D01*
X160180045Y-76532953D01*
X160194986Y-76527020D01*
X160213810Y-76521859D01*
X160237596Y-76517212D01*
X160267429Y-76512820D01*
X160304388Y-76508425D01*
X160349556Y-76503768D01*
X160391195Y-76499787D01*
X160436957Y-76495287D01*
X160479522Y-76490687D01*
X160517492Y-76486163D01*
X160549470Y-76481889D01*
X160574058Y-76478042D01*
X160589435Y-76474908D01*
X160649802Y-76454850D01*
X160703606Y-76427619D01*
X160750436Y-76393598D01*
X160789886Y-76353172D01*
X160821548Y-76306725D01*
X160845014Y-76254641D01*
X160853669Y-76226129D01*
X160858883Y-76198389D01*
X160862312Y-76164578D01*
X160863869Y-76128143D01*
X160863464Y-76092530D01*
X160861009Y-76061185D01*
X160858321Y-76044953D01*
X160840476Y-75984937D01*
X160814544Y-75931024D01*
X160780630Y-75883308D01*
X160738838Y-75841882D01*
X160689275Y-75806840D01*
X160632046Y-75778276D01*
X160567255Y-75756284D01*
X160522920Y-75745908D01*
X160458509Y-75736959D01*
X160388725Y-75734074D01*
X160316202Y-75737061D01*
X160316202Y-75737061D01*
G37*
X160316202Y-75737061D02*
X160243573Y-75745725D01*
X160173470Y-75759876D01*
X160119784Y-75775415D01*
X160077067Y-75792111D01*
X160030888Y-75814197D01*
X159984525Y-75839850D01*
X159941258Y-75867244D01*
X159904365Y-75894553D01*
X159901475Y-75896939D01*
X159887090Y-75908943D01*
X159966811Y-76002401D01*
X159989107Y-76028353D01*
X160009265Y-76051461D01*
X160026348Y-76070681D01*
X160039417Y-76084965D01*
X160047536Y-76093268D01*
X160049777Y-76094960D01*
X160055205Y-76092113D01*
X160067375Y-76085106D01*
X160084355Y-76075068D01*
X160099895Y-76065737D01*
X160148511Y-76038095D01*
X160192797Y-76017053D01*
X160235374Y-76001803D01*
X160278863Y-75991536D01*
X160325886Y-75985443D01*
X160367980Y-75983025D01*
X160402711Y-75982220D01*
X160429688Y-75982488D01*
X160451272Y-75983948D01*
X160469827Y-75986720D01*
X160478579Y-75988605D01*
X160520147Y-76001723D01*
X160552924Y-76019624D01*
X160577270Y-76042681D01*
X160593545Y-76071266D01*
X160602112Y-76105752D01*
X160603225Y-76117196D01*
X160601307Y-76150691D01*
X160590727Y-76178977D01*
X160571553Y-76201907D01*
X160561788Y-76209346D01*
X160548398Y-76217933D01*
X160535276Y-76225059D01*
X160521196Y-76230962D01*
X160504931Y-76235881D01*
X160485254Y-76240055D01*
X160460938Y-76243722D01*
X160430756Y-76247122D01*
X160393482Y-76250494D01*
X160347889Y-76254075D01*
X160322267Y-76255970D01*
X160271142Y-76259884D01*
X160228722Y-76263606D01*
X160193559Y-76267369D01*
X160164208Y-76271402D01*
X160139221Y-76275936D01*
X160117152Y-76281203D01*
X160096554Y-76287433D01*
X160075980Y-76294856D01*
X160074171Y-76295556D01*
X160021406Y-76320994D01*
X159975960Y-76353467D01*
X159937867Y-76392930D01*
X159907157Y-76439339D01*
X159883865Y-76492647D01*
X159868021Y-76552812D01*
X159862536Y-76588457D01*
X159858900Y-76647529D01*
X159863016Y-76701707D01*
X159875158Y-76752980D01*
X159890913Y-76793410D01*
X159919223Y-76843362D01*
X159955934Y-76888199D01*
X160000524Y-76927668D01*
X160052470Y-76961512D01*
X160111250Y-76989477D01*
X160176342Y-77011307D01*
X160247225Y-77026748D01*
X160323375Y-77035545D01*
X160390840Y-77037614D01*
X160421552Y-77036881D01*
X160453641Y-77035187D01*
X160483185Y-77032788D01*
X160505140Y-77030120D01*
X160593487Y-77011575D01*
X160677365Y-76984108D01*
X160756372Y-76947862D01*
X160790177Y-76928757D01*
X160817128Y-76911748D01*
X160845886Y-76892202D01*
X160874381Y-76871658D01*
X160900539Y-76851657D01*
X160922288Y-76833738D01*
X160937558Y-76819443D01*
X160938291Y-76818661D01*
X160949801Y-76806234D01*
X160889971Y-76748227D01*
X160866764Y-76725775D01*
X160843246Y-76703106D01*
X160821636Y-76682353D01*
X160804150Y-76665646D01*
X160798518Y-76660300D01*
X160766895Y-76630381D01*
X160744475Y-76651048D01*
X160687184Y-76697091D01*
X160624898Y-76734488D01*
X160558354Y-76762982D01*
X160488292Y-76782313D01*
X160415449Y-76792225D01*
X160340563Y-76792458D01*
X160340040Y-76792426D01*
X160285374Y-76785985D01*
X160237982Y-76774137D01*
X160198215Y-76757113D01*
X160166426Y-76735146D01*
X160142964Y-76708466D01*
X160128180Y-76677305D01*
X160122823Y-76649119D01*
X160121833Y-76619508D01*
X160124835Y-76596677D01*
X160132608Y-76577765D01*
X160145933Y-76559913D01*
X160147699Y-76557970D01*
X160157483Y-76548170D01*
X160167905Y-76539917D01*
X160180045Y-76532953D01*
X160194986Y-76527020D01*
X160213810Y-76521859D01*
X160237596Y-76517212D01*
X160267429Y-76512820D01*
X160304388Y-76508425D01*
X160349556Y-76503768D01*
X160391195Y-76499787D01*
X160436957Y-76495287D01*
X160479522Y-76490687D01*
X160517492Y-76486163D01*
X160549470Y-76481889D01*
X160574058Y-76478042D01*
X160589435Y-76474908D01*
X160649802Y-76454850D01*
X160703606Y-76427619D01*
X160750436Y-76393598D01*
X160789886Y-76353172D01*
X160821548Y-76306725D01*
X160845014Y-76254641D01*
X160853669Y-76226129D01*
X160858883Y-76198389D01*
X160862312Y-76164578D01*
X160863869Y-76128143D01*
X160863464Y-76092530D01*
X160861009Y-76061185D01*
X160858321Y-76044953D01*
X160840476Y-75984937D01*
X160814544Y-75931024D01*
X160780630Y-75883308D01*
X160738838Y-75841882D01*
X160689275Y-75806840D01*
X160632046Y-75778276D01*
X160567255Y-75756284D01*
X160522920Y-75745908D01*
X160458509Y-75736959D01*
X160388725Y-75734074D01*
X160316202Y-75737061D01*
G36*
X163352915Y-75735243D02*
G01*
X163285208Y-75744503D01*
X163219709Y-75762123D01*
X163157299Y-75787754D01*
X163098862Y-75821046D01*
X163045278Y-75861648D01*
X162997430Y-75909210D01*
X162956201Y-75963383D01*
X162928175Y-76012040D01*
X162912906Y-76044011D01*
X162900470Y-76074013D01*
X162890595Y-76103600D01*
X162883010Y-76134331D01*
X162877442Y-76167760D01*
X162873618Y-76205445D01*
X162871268Y-76248941D01*
X162870119Y-76299806D01*
X162869880Y-76345445D01*
X162869880Y-76484480D01*
X163657280Y-76484480D01*
X163657192Y-76511150D01*
X163653541Y-76552477D01*
X163643573Y-76595276D01*
X163628380Y-76636230D01*
X163609051Y-76672023D01*
X163600298Y-76684291D01*
X163570891Y-76717348D01*
X163539300Y-76742910D01*
X163502737Y-76762919D01*
X163468762Y-76775992D01*
X163414409Y-76788895D01*
X163358087Y-76792542D01*
X163301223Y-76787250D01*
X163245240Y-76773341D01*
X163191565Y-76751133D01*
X163141622Y-76720947D01*
X163110040Y-76695593D01*
X163096641Y-76683962D01*
X163086184Y-76675649D01*
X163080915Y-76672440D01*
X163080897Y-76672440D01*
X163075629Y-76675622D01*
X163064146Y-76684416D01*
X163047758Y-76697693D01*
X163027773Y-76714324D01*
X163005502Y-76733180D01*
X162982254Y-76753131D01*
X162959340Y-76773049D01*
X162938068Y-76791804D01*
X162919748Y-76808268D01*
X162905691Y-76821311D01*
X162897205Y-76829804D01*
X162895280Y-76832462D01*
X162898940Y-76838953D01*
X162908850Y-76850363D01*
X162923408Y-76865168D01*
X162941009Y-76881842D01*
X162960051Y-76898860D01*
X162978931Y-76914696D01*
X162993771Y-76926174D01*
X163054610Y-76964626D01*
X163121185Y-76995299D01*
X163192427Y-77017958D01*
X163267267Y-77032367D01*
X163344634Y-77038292D01*
X163423461Y-77035496D01*
X163466780Y-77030198D01*
X163540036Y-77014394D01*
X163607552Y-76990449D01*
X163669052Y-76958556D01*
X163724260Y-76918910D01*
X163772900Y-76871702D01*
X163814695Y-76817127D01*
X163843965Y-76766420D01*
X163870515Y-76704225D01*
X163891504Y-76634765D01*
X163906774Y-76559381D01*
X163916161Y-76479416D01*
X163919507Y-76396211D01*
X163916649Y-76311106D01*
X163912435Y-76271120D01*
X163657280Y-76271120D01*
X163127777Y-76271120D01*
X163131340Y-76237844D01*
X163141442Y-76182003D01*
X163158937Y-76131641D01*
X163183361Y-76087395D01*
X163214248Y-76049901D01*
X163251136Y-76019795D01*
X163293558Y-75997714D01*
X163311106Y-75991537D01*
X163344850Y-75984395D01*
X163383739Y-75981383D01*
X163423638Y-75982498D01*
X163460409Y-75987737D01*
X163475502Y-75991645D01*
X163510608Y-76005921D01*
X163544888Y-76026009D01*
X163574688Y-76049581D01*
X163587933Y-76063289D01*
X163610799Y-76095797D01*
X163630400Y-76134879D01*
X163645476Y-76177152D01*
X163654769Y-76219230D01*
X163657192Y-76249530D01*
X163657280Y-76271120D01*
X163912435Y-76271120D01*
X163908151Y-76230480D01*
X163892428Y-76148071D01*
X163869511Y-76072405D01*
X163839479Y-76003667D01*
X163802413Y-75942040D01*
X163758396Y-75887709D01*
X163756589Y-75885792D01*
X163715798Y-75846397D01*
X163674851Y-75814909D01*
X163630813Y-75789463D01*
X163580749Y-75768193D01*
X163560467Y-75761125D01*
X163491427Y-75743204D01*
X163421949Y-75734693D01*
X163352915Y-75735243D01*
X163352915Y-75735243D01*
G37*
X163352915Y-75735243D02*
X163285208Y-75744503D01*
X163219709Y-75762123D01*
X163157299Y-75787754D01*
X163098862Y-75821046D01*
X163045278Y-75861648D01*
X162997430Y-75909210D01*
X162956201Y-75963383D01*
X162928175Y-76012040D01*
X162912906Y-76044011D01*
X162900470Y-76074013D01*
X162890595Y-76103600D01*
X162883010Y-76134331D01*
X162877442Y-76167760D01*
X162873618Y-76205445D01*
X162871268Y-76248941D01*
X162870119Y-76299806D01*
X162869880Y-76345445D01*
X162869880Y-76484480D01*
X163657280Y-76484480D01*
X163657192Y-76511150D01*
X163653541Y-76552477D01*
X163643573Y-76595276D01*
X163628380Y-76636230D01*
X163609051Y-76672023D01*
X163600298Y-76684291D01*
X163570891Y-76717348D01*
X163539300Y-76742910D01*
X163502737Y-76762919D01*
X163468762Y-76775992D01*
X163414409Y-76788895D01*
X163358087Y-76792542D01*
X163301223Y-76787250D01*
X163245240Y-76773341D01*
X163191565Y-76751133D01*
X163141622Y-76720947D01*
X163110040Y-76695593D01*
X163096641Y-76683962D01*
X163086184Y-76675649D01*
X163080915Y-76672440D01*
X163080897Y-76672440D01*
X163075629Y-76675622D01*
X163064146Y-76684416D01*
X163047758Y-76697693D01*
X163027773Y-76714324D01*
X163005502Y-76733180D01*
X162982254Y-76753131D01*
X162959340Y-76773049D01*
X162938068Y-76791804D01*
X162919748Y-76808268D01*
X162905691Y-76821311D01*
X162897205Y-76829804D01*
X162895280Y-76832462D01*
X162898940Y-76838953D01*
X162908850Y-76850363D01*
X162923408Y-76865168D01*
X162941009Y-76881842D01*
X162960051Y-76898860D01*
X162978931Y-76914696D01*
X162993771Y-76926174D01*
X163054610Y-76964626D01*
X163121185Y-76995299D01*
X163192427Y-77017958D01*
X163267267Y-77032367D01*
X163344634Y-77038292D01*
X163423461Y-77035496D01*
X163466780Y-77030198D01*
X163540036Y-77014394D01*
X163607552Y-76990449D01*
X163669052Y-76958556D01*
X163724260Y-76918910D01*
X163772900Y-76871702D01*
X163814695Y-76817127D01*
X163843965Y-76766420D01*
X163870515Y-76704225D01*
X163891504Y-76634765D01*
X163906774Y-76559381D01*
X163916161Y-76479416D01*
X163919507Y-76396211D01*
X163916649Y-76311106D01*
X163912435Y-76271120D01*
X163657280Y-76271120D01*
X163127777Y-76271120D01*
X163131340Y-76237844D01*
X163141442Y-76182003D01*
X163158937Y-76131641D01*
X163183361Y-76087395D01*
X163214248Y-76049901D01*
X163251136Y-76019795D01*
X163293558Y-75997714D01*
X163311106Y-75991537D01*
X163344850Y-75984395D01*
X163383739Y-75981383D01*
X163423638Y-75982498D01*
X163460409Y-75987737D01*
X163475502Y-75991645D01*
X163510608Y-76005921D01*
X163544888Y-76026009D01*
X163574688Y-76049581D01*
X163587933Y-76063289D01*
X163610799Y-76095797D01*
X163630400Y-76134879D01*
X163645476Y-76177152D01*
X163654769Y-76219230D01*
X163657192Y-76249530D01*
X163657280Y-76271120D01*
X163912435Y-76271120D01*
X163908151Y-76230480D01*
X163892428Y-76148071D01*
X163869511Y-76072405D01*
X163839479Y-76003667D01*
X163802413Y-75942040D01*
X163758396Y-75887709D01*
X163756589Y-75885792D01*
X163715798Y-75846397D01*
X163674851Y-75814909D01*
X163630813Y-75789463D01*
X163580749Y-75768193D01*
X163560467Y-75761125D01*
X163491427Y-75743204D01*
X163421949Y-75734693D01*
X163352915Y-75735243D01*
G36*
X165756781Y-75740531D02*
G01*
X165688018Y-75755584D01*
X165622994Y-75779013D01*
X165562573Y-75810499D01*
X165507619Y-75849722D01*
X165458995Y-75896360D01*
X165452743Y-75903462D01*
X165422978Y-75940565D01*
X165397743Y-75978065D01*
X165376731Y-76017090D01*
X165359639Y-76058766D01*
X165346158Y-76104221D01*
X165335985Y-76154583D01*
X165328812Y-76210978D01*
X165324335Y-76274534D01*
X165322247Y-76346379D01*
X165322003Y-76385420D01*
X165323047Y-76463045D01*
X165326384Y-76531776D01*
X165332319Y-76592679D01*
X165341161Y-76646824D01*
X165353216Y-76695279D01*
X165368791Y-76739112D01*
X165388192Y-76779392D01*
X165411727Y-76817188D01*
X165439703Y-76853569D01*
X165464384Y-76881206D01*
X165504046Y-76919543D01*
X165544792Y-76950791D01*
X165590352Y-76977670D01*
X165610540Y-76987702D01*
X165648656Y-77004603D01*
X165683786Y-77017136D01*
X165718767Y-77025926D01*
X165756440Y-77031596D01*
X165799643Y-77034771D01*
X165828980Y-77035729D01*
X165857653Y-77036201D01*
X165883559Y-77036347D01*
X165904628Y-77036178D01*
X165918788Y-77035703D01*
X165922960Y-77035301D01*
X165935178Y-77033086D01*
X165952556Y-77029817D01*
X165963600Y-77027696D01*
X166029973Y-77009898D01*
X166092584Y-76983335D01*
X166150601Y-76948757D01*
X166203196Y-76906910D01*
X166249538Y-76858545D01*
X166288796Y-76804411D01*
X166320142Y-76745255D01*
X166341294Y-76686987D01*
X166348015Y-76662361D01*
X166353505Y-76638831D01*
X166357883Y-76615014D01*
X166361266Y-76589527D01*
X166363772Y-76560988D01*
X166365518Y-76528015D01*
X166366621Y-76489225D01*
X166367200Y-76443235D01*
X166367371Y-76388663D01*
X166367371Y-76387960D01*
X166108121Y-76387960D01*
X166107973Y-76438330D01*
X166107435Y-76479903D01*
X166106315Y-76514041D01*
X166104423Y-76542105D01*
X166101568Y-76565456D01*
X166097559Y-76585456D01*
X166092206Y-76603467D01*
X166085317Y-76620848D01*
X166076703Y-76638963D01*
X166071541Y-76649004D01*
X166044881Y-76689981D01*
X166011709Y-76723233D01*
X165971874Y-76748872D01*
X165925228Y-76767008D01*
X165907720Y-76771501D01*
X165874985Y-76776144D01*
X165838159Y-76776899D01*
X165801384Y-76773955D01*
X165768800Y-76767500D01*
X165760156Y-76764800D01*
X165714262Y-76744934D01*
X165676528Y-76719856D01*
X165645938Y-76688712D01*
X165621474Y-76650650D01*
X165619521Y-76646823D01*
X165610178Y-76627339D01*
X165602744Y-76609329D01*
X165596973Y-76591233D01*
X165592616Y-76571492D01*
X165589428Y-76548547D01*
X165587160Y-76520837D01*
X165585564Y-76486804D01*
X165584394Y-76444888D01*
X165583930Y-76422538D01*
X165583231Y-76363790D01*
X165583655Y-76313948D01*
X165585291Y-76271814D01*
X165588229Y-76236188D01*
X165592559Y-76205868D01*
X165598371Y-76179655D01*
X165603311Y-76163281D01*
X165623805Y-76117039D01*
X165651514Y-76077728D01*
X165685884Y-76045731D01*
X165726361Y-76021429D01*
X165772392Y-76005208D01*
X165823422Y-75997449D01*
X165844075Y-75996800D01*
X165898535Y-76000941D01*
X165947130Y-76013373D01*
X165989884Y-76034112D01*
X166026823Y-76063171D01*
X166057972Y-76100565D01*
X166072545Y-76124504D01*
X166081819Y-76142457D01*
X166089352Y-76159712D01*
X166095318Y-76177574D01*
X166099896Y-76197348D01*
X166103260Y-76220341D01*
X166105587Y-76247858D01*
X166107054Y-76281204D01*
X166107837Y-76321684D01*
X166108111Y-76370604D01*
X166108121Y-76387960D01*
X166367371Y-76387960D01*
X166367369Y-76380340D01*
X166367264Y-76330960D01*
X166366968Y-76290397D01*
X166366426Y-76257306D01*
X166365581Y-76230345D01*
X166364377Y-76208169D01*
X166362758Y-76189436D01*
X166360669Y-76172802D01*
X166358052Y-76156925D01*
X166358033Y-76156820D01*
X166344845Y-76097242D01*
X166327889Y-76045061D01*
X166306087Y-75997876D01*
X166278365Y-75953286D01*
X166250695Y-75917257D01*
X166202214Y-75865566D01*
X166149712Y-75822844D01*
X166092601Y-75788788D01*
X166030296Y-75763093D01*
X165962210Y-75745458D01*
X165902070Y-75736837D01*
X165828420Y-75734176D01*
X165756781Y-75740531D01*
X165756781Y-75740531D01*
G37*
X165756781Y-75740531D02*
X165688018Y-75755584D01*
X165622994Y-75779013D01*
X165562573Y-75810499D01*
X165507619Y-75849722D01*
X165458995Y-75896360D01*
X165452743Y-75903462D01*
X165422978Y-75940565D01*
X165397743Y-75978065D01*
X165376731Y-76017090D01*
X165359639Y-76058766D01*
X165346158Y-76104221D01*
X165335985Y-76154583D01*
X165328812Y-76210978D01*
X165324335Y-76274534D01*
X165322247Y-76346379D01*
X165322003Y-76385420D01*
X165323047Y-76463045D01*
X165326384Y-76531776D01*
X165332319Y-76592679D01*
X165341161Y-76646824D01*
X165353216Y-76695279D01*
X165368791Y-76739112D01*
X165388192Y-76779392D01*
X165411727Y-76817188D01*
X165439703Y-76853569D01*
X165464384Y-76881206D01*
X165504046Y-76919543D01*
X165544792Y-76950791D01*
X165590352Y-76977670D01*
X165610540Y-76987702D01*
X165648656Y-77004603D01*
X165683786Y-77017136D01*
X165718767Y-77025926D01*
X165756440Y-77031596D01*
X165799643Y-77034771D01*
X165828980Y-77035729D01*
X165857653Y-77036201D01*
X165883559Y-77036347D01*
X165904628Y-77036178D01*
X165918788Y-77035703D01*
X165922960Y-77035301D01*
X165935178Y-77033086D01*
X165952556Y-77029817D01*
X165963600Y-77027696D01*
X166029973Y-77009898D01*
X166092584Y-76983335D01*
X166150601Y-76948757D01*
X166203196Y-76906910D01*
X166249538Y-76858545D01*
X166288796Y-76804411D01*
X166320142Y-76745255D01*
X166341294Y-76686987D01*
X166348015Y-76662361D01*
X166353505Y-76638831D01*
X166357883Y-76615014D01*
X166361266Y-76589527D01*
X166363772Y-76560988D01*
X166365518Y-76528015D01*
X166366621Y-76489225D01*
X166367200Y-76443235D01*
X166367371Y-76388663D01*
X166367371Y-76387960D01*
X166108121Y-76387960D01*
X166107973Y-76438330D01*
X166107435Y-76479903D01*
X166106315Y-76514041D01*
X166104423Y-76542105D01*
X166101568Y-76565456D01*
X166097559Y-76585456D01*
X166092206Y-76603467D01*
X166085317Y-76620848D01*
X166076703Y-76638963D01*
X166071541Y-76649004D01*
X166044881Y-76689981D01*
X166011709Y-76723233D01*
X165971874Y-76748872D01*
X165925228Y-76767008D01*
X165907720Y-76771501D01*
X165874985Y-76776144D01*
X165838159Y-76776899D01*
X165801384Y-76773955D01*
X165768800Y-76767500D01*
X165760156Y-76764800D01*
X165714262Y-76744934D01*
X165676528Y-76719856D01*
X165645938Y-76688712D01*
X165621474Y-76650650D01*
X165619521Y-76646823D01*
X165610178Y-76627339D01*
X165602744Y-76609329D01*
X165596973Y-76591233D01*
X165592616Y-76571492D01*
X165589428Y-76548547D01*
X165587160Y-76520837D01*
X165585564Y-76486804D01*
X165584394Y-76444888D01*
X165583930Y-76422538D01*
X165583231Y-76363790D01*
X165583655Y-76313948D01*
X165585291Y-76271814D01*
X165588229Y-76236188D01*
X165592559Y-76205868D01*
X165598371Y-76179655D01*
X165603311Y-76163281D01*
X165623805Y-76117039D01*
X165651514Y-76077728D01*
X165685884Y-76045731D01*
X165726361Y-76021429D01*
X165772392Y-76005208D01*
X165823422Y-75997449D01*
X165844075Y-75996800D01*
X165898535Y-76000941D01*
X165947130Y-76013373D01*
X165989884Y-76034112D01*
X166026823Y-76063171D01*
X166057972Y-76100565D01*
X166072545Y-76124504D01*
X166081819Y-76142457D01*
X166089352Y-76159712D01*
X166095318Y-76177574D01*
X166099896Y-76197348D01*
X166103260Y-76220341D01*
X166105587Y-76247858D01*
X166107054Y-76281204D01*
X166107837Y-76321684D01*
X166108111Y-76370604D01*
X166108121Y-76387960D01*
X166367371Y-76387960D01*
X166367369Y-76380340D01*
X166367264Y-76330960D01*
X166366968Y-76290397D01*
X166366426Y-76257306D01*
X166365581Y-76230345D01*
X166364377Y-76208169D01*
X166362758Y-76189436D01*
X166360669Y-76172802D01*
X166358052Y-76156925D01*
X166358033Y-76156820D01*
X166344845Y-76097242D01*
X166327889Y-76045061D01*
X166306087Y-75997876D01*
X166278365Y-75953286D01*
X166250695Y-75917257D01*
X166202214Y-75865566D01*
X166149712Y-75822844D01*
X166092601Y-75788788D01*
X166030296Y-75763093D01*
X165962210Y-75745458D01*
X165902070Y-75736837D01*
X165828420Y-75734176D01*
X165756781Y-75740531D01*
G36*
X156838675Y-77743343D02*
G01*
X156803428Y-77747288D01*
X156784040Y-77751409D01*
X156754316Y-77761179D01*
X156720887Y-77774855D01*
X156687526Y-77790695D01*
X156658009Y-77806957D01*
X156643704Y-77816197D01*
X156629747Y-77825976D01*
X156618991Y-77833497D01*
X156614794Y-77836418D01*
X156614397Y-77838072D01*
X156616010Y-77841751D01*
X156620139Y-77848083D01*
X156627291Y-77857698D01*
X156637972Y-77871225D01*
X156652688Y-77889294D01*
X156671945Y-77912533D01*
X156696249Y-77941572D01*
X156726107Y-77977040D01*
X156762024Y-78019566D01*
X156764479Y-78022469D01*
X156799933Y-78064398D01*
X156821197Y-78049834D01*
X156856454Y-78028137D01*
X156889408Y-78013767D01*
X156923476Y-78005655D01*
X156962074Y-78002730D01*
X156971732Y-78002677D01*
X157022941Y-78007433D01*
X157069214Y-78020966D01*
X157110117Y-78042946D01*
X157145217Y-78073045D01*
X157174083Y-78110932D01*
X157196282Y-78156278D01*
X157204222Y-78179844D01*
X157205800Y-78185980D01*
X157207185Y-78193426D01*
X157208393Y-78202873D01*
X157209440Y-78215014D01*
X157210343Y-78230542D01*
X157211119Y-78250149D01*
X157211783Y-78274527D01*
X157212353Y-78304369D01*
X157212843Y-78340367D01*
X157213272Y-78383212D01*
X157213654Y-78433599D01*
X157214007Y-78492218D01*
X157214347Y-78559763D01*
X157214614Y-78619350D01*
X157216390Y-79029560D01*
X157474920Y-79029560D01*
X157474920Y-77754480D01*
X157215840Y-77754480D01*
X157215642Y-77894180D01*
X157197207Y-77872189D01*
X157164254Y-77839411D01*
X157123505Y-77809484D01*
X157077204Y-77783721D01*
X157027599Y-77763434D01*
X156994655Y-77753807D01*
X156959630Y-77747326D01*
X156919885Y-77743398D01*
X156878530Y-77742058D01*
X156838675Y-77743343D01*
X156838675Y-77743343D01*
G37*
X156838675Y-77743343D02*
X156803428Y-77747288D01*
X156784040Y-77751409D01*
X156754316Y-77761179D01*
X156720887Y-77774855D01*
X156687526Y-77790695D01*
X156658009Y-77806957D01*
X156643704Y-77816197D01*
X156629747Y-77825976D01*
X156618991Y-77833497D01*
X156614794Y-77836418D01*
X156614397Y-77838072D01*
X156616010Y-77841751D01*
X156620139Y-77848083D01*
X156627291Y-77857698D01*
X156637972Y-77871225D01*
X156652688Y-77889294D01*
X156671945Y-77912533D01*
X156696249Y-77941572D01*
X156726107Y-77977040D01*
X156762024Y-78019566D01*
X156764479Y-78022469D01*
X156799933Y-78064398D01*
X156821197Y-78049834D01*
X156856454Y-78028137D01*
X156889408Y-78013767D01*
X156923476Y-78005655D01*
X156962074Y-78002730D01*
X156971732Y-78002677D01*
X157022941Y-78007433D01*
X157069214Y-78020966D01*
X157110117Y-78042946D01*
X157145217Y-78073045D01*
X157174083Y-78110932D01*
X157196282Y-78156278D01*
X157204222Y-78179844D01*
X157205800Y-78185980D01*
X157207185Y-78193426D01*
X157208393Y-78202873D01*
X157209440Y-78215014D01*
X157210343Y-78230542D01*
X157211119Y-78250149D01*
X157211783Y-78274527D01*
X157212353Y-78304369D01*
X157212843Y-78340367D01*
X157213272Y-78383212D01*
X157213654Y-78433599D01*
X157214007Y-78492218D01*
X157214347Y-78559763D01*
X157214614Y-78619350D01*
X157216390Y-79029560D01*
X157474920Y-79029560D01*
X157474920Y-77754480D01*
X157215840Y-77754480D01*
X157215642Y-77894180D01*
X157197207Y-77872189D01*
X157164254Y-77839411D01*
X157123505Y-77809484D01*
X157077204Y-77783721D01*
X157027599Y-77763434D01*
X156994655Y-77753807D01*
X156959630Y-77747326D01*
X156919885Y-77743398D01*
X156878530Y-77742058D01*
X156838675Y-77743343D01*
G36*
X160313413Y-77783690D02*
G01*
X160310705Y-77793891D01*
X160305643Y-77812690D01*
X160298469Y-77839203D01*
X160289423Y-77872547D01*
X160278747Y-77911837D01*
X160266683Y-77956190D01*
X160253470Y-78004722D01*
X160239351Y-78056549D01*
X160224566Y-78110788D01*
X160209357Y-78166555D01*
X160193965Y-78222967D01*
X160178631Y-78279138D01*
X160163596Y-78334187D01*
X160149102Y-78387229D01*
X160135389Y-78437381D01*
X160122699Y-78483758D01*
X160111273Y-78525477D01*
X160101352Y-78561654D01*
X160093177Y-78591406D01*
X160086990Y-78613849D01*
X160083031Y-78628099D01*
X160081616Y-78633055D01*
X160079863Y-78635005D01*
X160076998Y-78631982D01*
X160072717Y-78623208D01*
X160066715Y-78607903D01*
X160058689Y-78585286D01*
X160048336Y-78554577D01*
X160035350Y-78514997D01*
X160034094Y-78511135D01*
X160014902Y-78452043D01*
X159993135Y-78384972D01*
X159969340Y-78311610D01*
X159944065Y-78233647D01*
X159917857Y-78152772D01*
X159891263Y-78070673D01*
X159864830Y-77989040D01*
X159839107Y-77909561D01*
X159833720Y-77892910D01*
X159788933Y-77754480D01*
X159600172Y-77754480D01*
X159571715Y-77842110D01*
X159563246Y-77868200D01*
X159552251Y-77902087D01*
X159539336Y-77941904D01*
X159525106Y-77985782D01*
X159510168Y-78031853D01*
X159495128Y-78078249D01*
X159484811Y-78110080D01*
X159457763Y-78193517D01*
X159433665Y-78267803D01*
X159412344Y-78333452D01*
X159393627Y-78390981D01*
X159377340Y-78440904D01*
X159363310Y-78483738D01*
X159351363Y-78519998D01*
X159341325Y-78550201D01*
X159333024Y-78574861D01*
X159326286Y-78594494D01*
X159320938Y-78609617D01*
X159316805Y-78620744D01*
X159313715Y-78628392D01*
X159311495Y-78633076D01*
X159309970Y-78635312D01*
X159308967Y-78635615D01*
X159308378Y-78634689D01*
X159306583Y-78628549D01*
X159302317Y-78613322D01*
X159295773Y-78589722D01*
X159287150Y-78558465D01*
X159276644Y-78520267D01*
X159264450Y-78475842D01*
X159250766Y-78425907D01*
X159235787Y-78371176D01*
X159219710Y-78312365D01*
X159202731Y-78250189D01*
X159186336Y-78190090D01*
X159067554Y-77754480D01*
X158791350Y-77754480D01*
X158795475Y-77768450D01*
X158797809Y-77775949D01*
X158802930Y-77792134D01*
X158810523Y-77816016D01*
X158820271Y-77846605D01*
X158831861Y-77882913D01*
X158844975Y-77923950D01*
X158859299Y-77968727D01*
X158874517Y-78016255D01*
X158876909Y-78023720D01*
X158893972Y-78076992D01*
X158911622Y-78132122D01*
X158929309Y-78187386D01*
X158946480Y-78241061D01*
X158962584Y-78291422D01*
X158977070Y-78336747D01*
X158989387Y-78375310D01*
X158996340Y-78397100D01*
X159006999Y-78430501D01*
X159020189Y-78471794D01*
X159035337Y-78519194D01*
X159051875Y-78570918D01*
X159069231Y-78625181D01*
X159086835Y-78680201D01*
X159104117Y-78734192D01*
X159113296Y-78762860D01*
X159128402Y-78810068D01*
X159142681Y-78854766D01*
X159155809Y-78895930D01*
X159167460Y-78932541D01*
X159177311Y-78963575D01*
X159185036Y-78988012D01*
X159190311Y-79004830D01*
X159192811Y-79013008D01*
X159192823Y-79013050D01*
X159197518Y-79029560D01*
X159428879Y-79029560D01*
X159468603Y-78896210D01*
X159477743Y-78865547D01*
X159489359Y-78826613D01*
X159503013Y-78780873D01*
X159518267Y-78729789D01*
X159534686Y-78674825D01*
X159551832Y-78617444D01*
X159569268Y-78559109D01*
X159586556Y-78501283D01*
X159594165Y-78475840D01*
X159609895Y-78423190D01*
X159624882Y-78372922D01*
X159638849Y-78325971D01*
X159651519Y-78283274D01*
X159662615Y-78245768D01*
X159671860Y-78214390D01*
X159678976Y-78190076D01*
X159683686Y-78173764D01*
X159685588Y-78166900D01*
X159689627Y-78154739D01*
X159693493Y-78148922D01*
X159694939Y-78149120D01*
X159697551Y-78155125D01*
X159702473Y-78169231D01*
X159709165Y-78189785D01*
X159717088Y-78215135D01*
X159724505Y-78239620D01*
X159736881Y-78281057D01*
X159750704Y-78327366D01*
X159765715Y-78377679D01*
X159781656Y-78431124D01*
X159798268Y-78486832D01*
X159815290Y-78543933D01*
X159832465Y-78601556D01*
X159849532Y-78658833D01*
X159866233Y-78714892D01*
X159882309Y-78768865D01*
X159897499Y-78819880D01*
X159911546Y-78867069D01*
X159924191Y-78909561D01*
X159935173Y-78946486D01*
X159944234Y-78976974D01*
X159951114Y-79000156D01*
X159955555Y-79015161D01*
X159957171Y-79020670D01*
X159958722Y-79023539D01*
X159962337Y-79025718D01*
X159969259Y-79027302D01*
X159980729Y-79028384D01*
X159997991Y-79029056D01*
X160022284Y-79029412D01*
X160054853Y-79029547D01*
X160075373Y-79029560D01*
X160191021Y-79029560D01*
X160204055Y-78987650D01*
X160206524Y-78979738D01*
X160209490Y-78970292D01*
X160213120Y-78958788D01*
X160217582Y-78944699D01*
X160223043Y-78927500D01*
X160229672Y-78906666D01*
X160237636Y-78881672D01*
X160247103Y-78851992D01*
X160258239Y-78817101D01*
X160271214Y-78776474D01*
X160286194Y-78729585D01*
X160303347Y-78675910D01*
X160322841Y-78614922D01*
X160344844Y-78546096D01*
X160369522Y-78468908D01*
X160397045Y-78382832D01*
X160411975Y-78336140D01*
X160427851Y-78286482D01*
X160443430Y-78237749D01*
X160458306Y-78191204D01*
X160472076Y-78148110D01*
X160484336Y-78109730D01*
X160494683Y-78077330D01*
X160502713Y-78052171D01*
X160507735Y-78036420D01*
X160515479Y-78012109D01*
X160525445Y-77980825D01*
X160536772Y-77945275D01*
X160548597Y-77908165D01*
X160560058Y-77872201D01*
X160560595Y-77870514D01*
X160570428Y-77839413D01*
X160579118Y-77811459D01*
X160586213Y-77788140D01*
X160591263Y-77770944D01*
X160593818Y-77761362D01*
X160594040Y-77760024D01*
X160590089Y-77758173D01*
X160577952Y-77756716D01*
X160557207Y-77755638D01*
X160527428Y-77754921D01*
X160488193Y-77754547D01*
X160457506Y-77754480D01*
X160320971Y-77754480D01*
X160313413Y-77783690D01*
X160313413Y-77783690D01*
G37*
X160313413Y-77783690D02*
X160310705Y-77793891D01*
X160305643Y-77812690D01*
X160298469Y-77839203D01*
X160289423Y-77872547D01*
X160278747Y-77911837D01*
X160266683Y-77956190D01*
X160253470Y-78004722D01*
X160239351Y-78056549D01*
X160224566Y-78110788D01*
X160209357Y-78166555D01*
X160193965Y-78222967D01*
X160178631Y-78279138D01*
X160163596Y-78334187D01*
X160149102Y-78387229D01*
X160135389Y-78437381D01*
X160122699Y-78483758D01*
X160111273Y-78525477D01*
X160101352Y-78561654D01*
X160093177Y-78591406D01*
X160086990Y-78613849D01*
X160083031Y-78628099D01*
X160081616Y-78633055D01*
X160079863Y-78635005D01*
X160076998Y-78631982D01*
X160072717Y-78623208D01*
X160066715Y-78607903D01*
X160058689Y-78585286D01*
X160048336Y-78554577D01*
X160035350Y-78514997D01*
X160034094Y-78511135D01*
X160014902Y-78452043D01*
X159993135Y-78384972D01*
X159969340Y-78311610D01*
X159944065Y-78233647D01*
X159917857Y-78152772D01*
X159891263Y-78070673D01*
X159864830Y-77989040D01*
X159839107Y-77909561D01*
X159833720Y-77892910D01*
X159788933Y-77754480D01*
X159600172Y-77754480D01*
X159571715Y-77842110D01*
X159563246Y-77868200D01*
X159552251Y-77902087D01*
X159539336Y-77941904D01*
X159525106Y-77985782D01*
X159510168Y-78031853D01*
X159495128Y-78078249D01*
X159484811Y-78110080D01*
X159457763Y-78193517D01*
X159433665Y-78267803D01*
X159412344Y-78333452D01*
X159393627Y-78390981D01*
X159377340Y-78440904D01*
X159363310Y-78483738D01*
X159351363Y-78519998D01*
X159341325Y-78550201D01*
X159333024Y-78574861D01*
X159326286Y-78594494D01*
X159320938Y-78609617D01*
X159316805Y-78620744D01*
X159313715Y-78628392D01*
X159311495Y-78633076D01*
X159309970Y-78635312D01*
X159308967Y-78635615D01*
X159308378Y-78634689D01*
X159306583Y-78628549D01*
X159302317Y-78613322D01*
X159295773Y-78589722D01*
X159287150Y-78558465D01*
X159276644Y-78520267D01*
X159264450Y-78475842D01*
X159250766Y-78425907D01*
X159235787Y-78371176D01*
X159219710Y-78312365D01*
X159202731Y-78250189D01*
X159186336Y-78190090D01*
X159067554Y-77754480D01*
X158791350Y-77754480D01*
X158795475Y-77768450D01*
X158797809Y-77775949D01*
X158802930Y-77792134D01*
X158810523Y-77816016D01*
X158820271Y-77846605D01*
X158831861Y-77882913D01*
X158844975Y-77923950D01*
X158859299Y-77968727D01*
X158874517Y-78016255D01*
X158876909Y-78023720D01*
X158893972Y-78076992D01*
X158911622Y-78132122D01*
X158929309Y-78187386D01*
X158946480Y-78241061D01*
X158962584Y-78291422D01*
X158977070Y-78336747D01*
X158989387Y-78375310D01*
X158996340Y-78397100D01*
X159006999Y-78430501D01*
X159020189Y-78471794D01*
X159035337Y-78519194D01*
X159051875Y-78570918D01*
X159069231Y-78625181D01*
X159086835Y-78680201D01*
X159104117Y-78734192D01*
X159113296Y-78762860D01*
X159128402Y-78810068D01*
X159142681Y-78854766D01*
X159155809Y-78895930D01*
X159167460Y-78932541D01*
X159177311Y-78963575D01*
X159185036Y-78988012D01*
X159190311Y-79004830D01*
X159192811Y-79013008D01*
X159192823Y-79013050D01*
X159197518Y-79029560D01*
X159428879Y-79029560D01*
X159468603Y-78896210D01*
X159477743Y-78865547D01*
X159489359Y-78826613D01*
X159503013Y-78780873D01*
X159518267Y-78729789D01*
X159534686Y-78674825D01*
X159551832Y-78617444D01*
X159569268Y-78559109D01*
X159586556Y-78501283D01*
X159594165Y-78475840D01*
X159609895Y-78423190D01*
X159624882Y-78372922D01*
X159638849Y-78325971D01*
X159651519Y-78283274D01*
X159662615Y-78245768D01*
X159671860Y-78214390D01*
X159678976Y-78190076D01*
X159683686Y-78173764D01*
X159685588Y-78166900D01*
X159689627Y-78154739D01*
X159693493Y-78148922D01*
X159694939Y-78149120D01*
X159697551Y-78155125D01*
X159702473Y-78169231D01*
X159709165Y-78189785D01*
X159717088Y-78215135D01*
X159724505Y-78239620D01*
X159736881Y-78281057D01*
X159750704Y-78327366D01*
X159765715Y-78377679D01*
X159781656Y-78431124D01*
X159798268Y-78486832D01*
X159815290Y-78543933D01*
X159832465Y-78601556D01*
X159849532Y-78658833D01*
X159866233Y-78714892D01*
X159882309Y-78768865D01*
X159897499Y-78819880D01*
X159911546Y-78867069D01*
X159924191Y-78909561D01*
X159935173Y-78946486D01*
X159944234Y-78976974D01*
X159951114Y-79000156D01*
X159955555Y-79015161D01*
X159957171Y-79020670D01*
X159958722Y-79023539D01*
X159962337Y-79025718D01*
X159969259Y-79027302D01*
X159980729Y-79028384D01*
X159997991Y-79029056D01*
X160022284Y-79029412D01*
X160054853Y-79029547D01*
X160075373Y-79029560D01*
X160191021Y-79029560D01*
X160204055Y-78987650D01*
X160206524Y-78979738D01*
X160209490Y-78970292D01*
X160213120Y-78958788D01*
X160217582Y-78944699D01*
X160223043Y-78927500D01*
X160229672Y-78906666D01*
X160237636Y-78881672D01*
X160247103Y-78851992D01*
X160258239Y-78817101D01*
X160271214Y-78776474D01*
X160286194Y-78729585D01*
X160303347Y-78675910D01*
X160322841Y-78614922D01*
X160344844Y-78546096D01*
X160369522Y-78468908D01*
X160397045Y-78382832D01*
X160411975Y-78336140D01*
X160427851Y-78286482D01*
X160443430Y-78237749D01*
X160458306Y-78191204D01*
X160472076Y-78148110D01*
X160484336Y-78109730D01*
X160494683Y-78077330D01*
X160502713Y-78052171D01*
X160507735Y-78036420D01*
X160515479Y-78012109D01*
X160525445Y-77980825D01*
X160536772Y-77945275D01*
X160548597Y-77908165D01*
X160560058Y-77872201D01*
X160560595Y-77870514D01*
X160570428Y-77839413D01*
X160579118Y-77811459D01*
X160586213Y-77788140D01*
X160591263Y-77770944D01*
X160593818Y-77761362D01*
X160594040Y-77760024D01*
X160590089Y-77758173D01*
X160577952Y-77756716D01*
X160557207Y-77755638D01*
X160527428Y-77754921D01*
X160488193Y-77754547D01*
X160457506Y-77754480D01*
X160320971Y-77754480D01*
X160313413Y-77783690D01*
G36*
X161962209Y-77743980D02*
G01*
X161906319Y-77755404D01*
X161873432Y-77766697D01*
X161852823Y-77775945D01*
X161828634Y-77788190D01*
X161803764Y-77801818D01*
X161781110Y-77815216D01*
X161763571Y-77826771D01*
X161758286Y-77830802D01*
X161746511Y-77840487D01*
X161818374Y-77925753D01*
X161841065Y-77952660D01*
X161863049Y-77978702D01*
X161882952Y-78002252D01*
X161899402Y-78021687D01*
X161911025Y-78035381D01*
X161913015Y-78037716D01*
X161935792Y-78064413D01*
X161957066Y-78049841D01*
X161992188Y-78028208D01*
X162024995Y-78013866D01*
X162058935Y-78005738D01*
X162097460Y-78002748D01*
X162108283Y-78002678D01*
X162159191Y-78007468D01*
X162205304Y-78021090D01*
X162246146Y-78043181D01*
X162281241Y-78073377D01*
X162310112Y-78111315D01*
X162332285Y-78156630D01*
X162340102Y-78179844D01*
X162341680Y-78185980D01*
X162343065Y-78193426D01*
X162344273Y-78202873D01*
X162345320Y-78215014D01*
X162346223Y-78230542D01*
X162346999Y-78250149D01*
X162347663Y-78274527D01*
X162348233Y-78304369D01*
X162348723Y-78340367D01*
X162349152Y-78383212D01*
X162349534Y-78433599D01*
X162349887Y-78492218D01*
X162350227Y-78559763D01*
X162350494Y-78619350D01*
X162352270Y-79029560D01*
X162610800Y-79029560D01*
X162610800Y-77754480D01*
X162351720Y-77754480D01*
X162351720Y-77893070D01*
X162331245Y-77869808D01*
X162291641Y-77832201D01*
X162245109Y-77800563D01*
X162193182Y-77775237D01*
X162137395Y-77756571D01*
X162079281Y-77744909D01*
X162020375Y-77740597D01*
X161962209Y-77743980D01*
X161962209Y-77743980D01*
G37*
X161962209Y-77743980D02*
X161906319Y-77755404D01*
X161873432Y-77766697D01*
X161852823Y-77775945D01*
X161828634Y-77788190D01*
X161803764Y-77801818D01*
X161781110Y-77815216D01*
X161763571Y-77826771D01*
X161758286Y-77830802D01*
X161746511Y-77840487D01*
X161818374Y-77925753D01*
X161841065Y-77952660D01*
X161863049Y-77978702D01*
X161882952Y-78002252D01*
X161899402Y-78021687D01*
X161911025Y-78035381D01*
X161913015Y-78037716D01*
X161935792Y-78064413D01*
X161957066Y-78049841D01*
X161992188Y-78028208D01*
X162024995Y-78013866D01*
X162058935Y-78005738D01*
X162097460Y-78002748D01*
X162108283Y-78002678D01*
X162159191Y-78007468D01*
X162205304Y-78021090D01*
X162246146Y-78043181D01*
X162281241Y-78073377D01*
X162310112Y-78111315D01*
X162332285Y-78156630D01*
X162340102Y-78179844D01*
X162341680Y-78185980D01*
X162343065Y-78193426D01*
X162344273Y-78202873D01*
X162345320Y-78215014D01*
X162346223Y-78230542D01*
X162346999Y-78250149D01*
X162347663Y-78274527D01*
X162348233Y-78304369D01*
X162348723Y-78340367D01*
X162349152Y-78383212D01*
X162349534Y-78433599D01*
X162349887Y-78492218D01*
X162350227Y-78559763D01*
X162350494Y-78619350D01*
X162352270Y-79029560D01*
X162610800Y-79029560D01*
X162610800Y-77754480D01*
X162351720Y-77754480D01*
X162351720Y-77893070D01*
X162331245Y-77869808D01*
X162291641Y-77832201D01*
X162245109Y-77800563D01*
X162193182Y-77775237D01*
X162137395Y-77756571D01*
X162079281Y-77744909D01*
X162020375Y-77740597D01*
X161962209Y-77743980D01*
G36*
X164469610Y-75737278D02*
G01*
X164434371Y-75741271D01*
X164417610Y-75744595D01*
X164354897Y-75764789D01*
X164297127Y-75793650D01*
X164244914Y-75830823D01*
X164208460Y-75865339D01*
X164176371Y-75902638D01*
X164150919Y-75939551D01*
X164131123Y-75978262D01*
X164115999Y-76020956D01*
X164104565Y-76069819D01*
X164097922Y-76111083D01*
X164096230Y-76129103D01*
X164094790Y-76155840D01*
X164093603Y-76189915D01*
X164092667Y-76229945D01*
X164091982Y-76274551D01*
X164091548Y-76322351D01*
X164091363Y-76371965D01*
X164091426Y-76422012D01*
X164091739Y-76471111D01*
X164092299Y-76517881D01*
X164093106Y-76560942D01*
X164094159Y-76598913D01*
X164095459Y-76630413D01*
X164097003Y-76654061D01*
X164098174Y-76664820D01*
X164107434Y-76717701D01*
X164119278Y-76762824D01*
X164134534Y-76802437D01*
X164154028Y-76838787D01*
X164171935Y-76865269D01*
X164214561Y-76915135D01*
X164263069Y-76956917D01*
X164316815Y-76990318D01*
X164375154Y-77015039D01*
X164437441Y-77030785D01*
X164503034Y-77037257D01*
X164543206Y-77036594D01*
X164590799Y-77031595D01*
X164635142Y-77021903D01*
X164677907Y-77006780D01*
X164720764Y-76985488D01*
X164765382Y-76957289D01*
X164813432Y-76921446D01*
X164825146Y-76912043D01*
X164846000Y-76895106D01*
X164846000Y-77883638D01*
X164821870Y-77860561D01*
X164783496Y-77826993D01*
X164745477Y-77800812D01*
X164704429Y-77779956D01*
X164664858Y-77764954D01*
X164598952Y-77747905D01*
X164533131Y-77740774D01*
X164468040Y-77743529D01*
X164404324Y-77756141D01*
X164342625Y-77778579D01*
X164338795Y-77780333D01*
X164279954Y-77812646D01*
X164228800Y-77851521D01*
X164185198Y-77897117D01*
X164149012Y-77949593D01*
X164120109Y-78009110D01*
X164102922Y-78059172D01*
X164101034Y-78065826D01*
X164099371Y-78072406D01*
X164097916Y-78079576D01*
X164096653Y-78087998D01*
X164095565Y-78098336D01*
X164094635Y-78111254D01*
X164093848Y-78127415D01*
X164093185Y-78147481D01*
X164092631Y-78172116D01*
X164092170Y-78201984D01*
X164091783Y-78237748D01*
X164091455Y-78280071D01*
X164091169Y-78329615D01*
X164090909Y-78387046D01*
X164090657Y-78453025D01*
X164090398Y-78528216D01*
X164090280Y-78563470D01*
X164088728Y-79029560D01*
X164348160Y-79029560D01*
X164348160Y-78635645D01*
X164348172Y-78558703D01*
X164348236Y-78491196D01*
X164348399Y-78432396D01*
X164348708Y-78381578D01*
X164349208Y-78338015D01*
X164349945Y-78300983D01*
X164350966Y-78269755D01*
X164352316Y-78243604D01*
X164354042Y-78221805D01*
X164356190Y-78203632D01*
X164358805Y-78188359D01*
X164361935Y-78175259D01*
X164365625Y-78163608D01*
X164369920Y-78152677D01*
X164374868Y-78141743D01*
X164380216Y-78130687D01*
X164404582Y-78092105D01*
X164436729Y-78058650D01*
X164475009Y-78031658D01*
X164517777Y-78012465D01*
X164530635Y-78008589D01*
X164546040Y-78005861D01*
X164567697Y-78003811D01*
X164591707Y-78002772D01*
X164599632Y-78002707D01*
X164651191Y-78007376D01*
X164698013Y-78020855D01*
X164739521Y-78042688D01*
X164775139Y-78072417D01*
X164804291Y-78109582D01*
X164826400Y-78153728D01*
X164838276Y-78192249D01*
X164839695Y-78199573D01*
X164840932Y-78209150D01*
X164841999Y-78221659D01*
X164842907Y-78237780D01*
X164843669Y-78258194D01*
X164844296Y-78283581D01*
X164844801Y-78314620D01*
X164845196Y-78351992D01*
X164845491Y-78396377D01*
X164845701Y-78448455D01*
X164845835Y-78508905D01*
X164845907Y-78578409D01*
X164845925Y-78626970D01*
X164846000Y-79029560D01*
X165110160Y-79029560D01*
X165110160Y-76385420D01*
X164843319Y-76385420D01*
X164843144Y-76436204D01*
X164842392Y-76478372D01*
X164840894Y-76513458D01*
X164838477Y-76542999D01*
X164834971Y-76568530D01*
X164830203Y-76591586D01*
X164824002Y-76613703D01*
X164816198Y-76636416D01*
X164814923Y-76639850D01*
X164794239Y-76681785D01*
X164766302Y-76716651D01*
X164731309Y-76744287D01*
X164689458Y-76764533D01*
X164647880Y-76775960D01*
X164632309Y-76777353D01*
X164609826Y-76777363D01*
X164583552Y-76776199D01*
X164556611Y-76774075D01*
X164532124Y-76771200D01*
X164513214Y-76767786D01*
X164508610Y-76766540D01*
X164470481Y-76750900D01*
X164438202Y-76729189D01*
X164411406Y-76700824D01*
X164389727Y-76665226D01*
X164372795Y-76621813D01*
X164360246Y-76570004D01*
X164352896Y-76520234D01*
X164350842Y-76494563D01*
X164349558Y-76461957D01*
X164349001Y-76424416D01*
X164349125Y-76383939D01*
X164349885Y-76342526D01*
X164351238Y-76302176D01*
X164353137Y-76264888D01*
X164355538Y-76232663D01*
X164358397Y-76207500D01*
X164360134Y-76197460D01*
X164374673Y-76144131D01*
X164394303Y-76099473D01*
X164419304Y-76063206D01*
X164449958Y-76035051D01*
X164486546Y-76014729D01*
X164529349Y-76001961D01*
X164561520Y-75997503D01*
X164615241Y-75996003D01*
X164662141Y-76001421D01*
X164703037Y-76013978D01*
X164738746Y-76033891D01*
X164759030Y-76050389D01*
X164784862Y-76079022D01*
X164805434Y-76112784D01*
X164821572Y-76153295D01*
X164832356Y-76193952D01*
X164835632Y-76209832D01*
X164838183Y-76225155D01*
X164840102Y-76241487D01*
X164841476Y-76260394D01*
X164842395Y-76283442D01*
X164842951Y-76312196D01*
X164843231Y-76348224D01*
X164843319Y-76385420D01*
X165110160Y-76385420D01*
X165110160Y-75747880D01*
X164846000Y-75747880D01*
X164846000Y-75812075D01*
X164846001Y-75876270D01*
X164820951Y-75852839D01*
X164773868Y-75815205D01*
X164719758Y-75783264D01*
X164660639Y-75758085D01*
X164617400Y-75745066D01*
X164586473Y-75739571D01*
X164549183Y-75736436D01*
X164509055Y-75735669D01*
X164469610Y-75737278D01*
X164469610Y-75737278D01*
G37*
X164469610Y-75737278D02*
X164434371Y-75741271D01*
X164417610Y-75744595D01*
X164354897Y-75764789D01*
X164297127Y-75793650D01*
X164244914Y-75830823D01*
X164208460Y-75865339D01*
X164176371Y-75902638D01*
X164150919Y-75939551D01*
X164131123Y-75978262D01*
X164115999Y-76020956D01*
X164104565Y-76069819D01*
X164097922Y-76111083D01*
X164096230Y-76129103D01*
X164094790Y-76155840D01*
X164093603Y-76189915D01*
X164092667Y-76229945D01*
X164091982Y-76274551D01*
X164091548Y-76322351D01*
X164091363Y-76371965D01*
X164091426Y-76422012D01*
X164091739Y-76471111D01*
X164092299Y-76517881D01*
X164093106Y-76560942D01*
X164094159Y-76598913D01*
X164095459Y-76630413D01*
X164097003Y-76654061D01*
X164098174Y-76664820D01*
X164107434Y-76717701D01*
X164119278Y-76762824D01*
X164134534Y-76802437D01*
X164154028Y-76838787D01*
X164171935Y-76865269D01*
X164214561Y-76915135D01*
X164263069Y-76956917D01*
X164316815Y-76990318D01*
X164375154Y-77015039D01*
X164437441Y-77030785D01*
X164503034Y-77037257D01*
X164543206Y-77036594D01*
X164590799Y-77031595D01*
X164635142Y-77021903D01*
X164677907Y-77006780D01*
X164720764Y-76985488D01*
X164765382Y-76957289D01*
X164813432Y-76921446D01*
X164825146Y-76912043D01*
X164846000Y-76895106D01*
X164846000Y-77883638D01*
X164821870Y-77860561D01*
X164783496Y-77826993D01*
X164745477Y-77800812D01*
X164704429Y-77779956D01*
X164664858Y-77764954D01*
X164598952Y-77747905D01*
X164533131Y-77740774D01*
X164468040Y-77743529D01*
X164404324Y-77756141D01*
X164342625Y-77778579D01*
X164338795Y-77780333D01*
X164279954Y-77812646D01*
X164228800Y-77851521D01*
X164185198Y-77897117D01*
X164149012Y-77949593D01*
X164120109Y-78009110D01*
X164102922Y-78059172D01*
X164101034Y-78065826D01*
X164099371Y-78072406D01*
X164097916Y-78079576D01*
X164096653Y-78087998D01*
X164095565Y-78098336D01*
X164094635Y-78111254D01*
X164093848Y-78127415D01*
X164093185Y-78147481D01*
X164092631Y-78172116D01*
X164092170Y-78201984D01*
X164091783Y-78237748D01*
X164091455Y-78280071D01*
X164091169Y-78329615D01*
X164090909Y-78387046D01*
X164090657Y-78453025D01*
X164090398Y-78528216D01*
X164090280Y-78563470D01*
X164088728Y-79029560D01*
X164348160Y-79029560D01*
X164348160Y-78635645D01*
X164348172Y-78558703D01*
X164348236Y-78491196D01*
X164348399Y-78432396D01*
X164348708Y-78381578D01*
X164349208Y-78338015D01*
X164349945Y-78300983D01*
X164350966Y-78269755D01*
X164352316Y-78243604D01*
X164354042Y-78221805D01*
X164356190Y-78203632D01*
X164358805Y-78188359D01*
X164361935Y-78175259D01*
X164365625Y-78163608D01*
X164369920Y-78152677D01*
X164374868Y-78141743D01*
X164380216Y-78130687D01*
X164404582Y-78092105D01*
X164436729Y-78058650D01*
X164475009Y-78031658D01*
X164517777Y-78012465D01*
X164530635Y-78008589D01*
X164546040Y-78005861D01*
X164567697Y-78003811D01*
X164591707Y-78002772D01*
X164599632Y-78002707D01*
X164651191Y-78007376D01*
X164698013Y-78020855D01*
X164739521Y-78042688D01*
X164775139Y-78072417D01*
X164804291Y-78109582D01*
X164826400Y-78153728D01*
X164838276Y-78192249D01*
X164839695Y-78199573D01*
X164840932Y-78209150D01*
X164841999Y-78221659D01*
X164842907Y-78237780D01*
X164843669Y-78258194D01*
X164844296Y-78283581D01*
X164844801Y-78314620D01*
X164845196Y-78351992D01*
X164845491Y-78396377D01*
X164845701Y-78448455D01*
X164845835Y-78508905D01*
X164845907Y-78578409D01*
X164845925Y-78626970D01*
X164846000Y-79029560D01*
X165110160Y-79029560D01*
X165110160Y-76385420D01*
X164843319Y-76385420D01*
X164843144Y-76436204D01*
X164842392Y-76478372D01*
X164840894Y-76513458D01*
X164838477Y-76542999D01*
X164834971Y-76568530D01*
X164830203Y-76591586D01*
X164824002Y-76613703D01*
X164816198Y-76636416D01*
X164814923Y-76639850D01*
X164794239Y-76681785D01*
X164766302Y-76716651D01*
X164731309Y-76744287D01*
X164689458Y-76764533D01*
X164647880Y-76775960D01*
X164632309Y-76777353D01*
X164609826Y-76777363D01*
X164583552Y-76776199D01*
X164556611Y-76774075D01*
X164532124Y-76771200D01*
X164513214Y-76767786D01*
X164508610Y-76766540D01*
X164470481Y-76750900D01*
X164438202Y-76729189D01*
X164411406Y-76700824D01*
X164389727Y-76665226D01*
X164372795Y-76621813D01*
X164360246Y-76570004D01*
X164352896Y-76520234D01*
X164350842Y-76494563D01*
X164349558Y-76461957D01*
X164349001Y-76424416D01*
X164349125Y-76383939D01*
X164349885Y-76342526D01*
X164351238Y-76302176D01*
X164353137Y-76264888D01*
X164355538Y-76232663D01*
X164358397Y-76207500D01*
X164360134Y-76197460D01*
X164374673Y-76144131D01*
X164394303Y-76099473D01*
X164419304Y-76063206D01*
X164449958Y-76035051D01*
X164486546Y-76014729D01*
X164529349Y-76001961D01*
X164561520Y-75997503D01*
X164615241Y-75996003D01*
X164662141Y-76001421D01*
X164703037Y-76013978D01*
X164738746Y-76033891D01*
X164759030Y-76050389D01*
X164784862Y-76079022D01*
X164805434Y-76112784D01*
X164821572Y-76153295D01*
X164832356Y-76193952D01*
X164835632Y-76209832D01*
X164838183Y-76225155D01*
X164840102Y-76241487D01*
X164841476Y-76260394D01*
X164842395Y-76283442D01*
X164842951Y-76312196D01*
X164843231Y-76348224D01*
X164843319Y-76385420D01*
X165110160Y-76385420D01*
X165110160Y-75747880D01*
X164846000Y-75747880D01*
X164846000Y-75812075D01*
X164846001Y-75876270D01*
X164820951Y-75852839D01*
X164773868Y-75815205D01*
X164719758Y-75783264D01*
X164660639Y-75758085D01*
X164617400Y-75745066D01*
X164586473Y-75739571D01*
X164549183Y-75736436D01*
X164509055Y-75735669D01*
X164469610Y-75737278D01*
G36*
X156049048Y-77743345D02*
G01*
X156015340Y-77745332D01*
X155987283Y-77748917D01*
X155974090Y-77751491D01*
X155902036Y-77772187D01*
X155835795Y-77801102D01*
X155775704Y-77837898D01*
X155722099Y-77882236D01*
X155675316Y-77933779D01*
X155635690Y-77992189D01*
X155603556Y-78057127D01*
X155579252Y-78128256D01*
X155572373Y-78155800D01*
X155569575Y-78170598D01*
X155567281Y-78188678D01*
X155565414Y-78211299D01*
X155563900Y-78239719D01*
X155562664Y-78275197D01*
X155561630Y-78318992D01*
X155561197Y-78342490D01*
X155558649Y-78491080D01*
X156353642Y-78491080D01*
X156350137Y-78529752D01*
X156340834Y-78585498D01*
X156323744Y-78636047D01*
X156299295Y-78680729D01*
X156267917Y-78718877D01*
X156230038Y-78749821D01*
X156197300Y-78768047D01*
X156162848Y-78782273D01*
X156130601Y-78791495D01*
X156096680Y-78796520D01*
X156057204Y-78798155D01*
X156052520Y-78798163D01*
X155993954Y-78793756D01*
X155938517Y-78780449D01*
X155885207Y-78757877D01*
X155833024Y-78725668D01*
X155811564Y-78709467D01*
X155793176Y-78695182D01*
X155780768Y-78686628D01*
X155772612Y-78682918D01*
X155766980Y-78683166D01*
X155763885Y-78685003D01*
X155757627Y-78690153D01*
X155744897Y-78700849D01*
X155726942Y-78716037D01*
X155705013Y-78734657D01*
X155680356Y-78755655D01*
X155669738Y-78764713D01*
X155584136Y-78837789D01*
X155621478Y-78875640D01*
X155677195Y-78925004D01*
X155738593Y-78966090D01*
X155805224Y-78998723D01*
X155876640Y-79022726D01*
X155952393Y-79037925D01*
X156032034Y-79044145D01*
X156052520Y-79044276D01*
X156081870Y-79043517D01*
X156112196Y-79041835D01*
X156139530Y-79039495D01*
X156156660Y-79037314D01*
X156224891Y-79023171D01*
X156285754Y-79003504D01*
X156340712Y-78977813D01*
X156354780Y-78969747D01*
X156376290Y-78956595D01*
X156393061Y-78945289D01*
X156408107Y-78933483D01*
X156424437Y-78918829D01*
X156442959Y-78901035D01*
X156486344Y-78852368D01*
X156523175Y-78797199D01*
X156553682Y-78735049D01*
X156578096Y-78665441D01*
X156596646Y-78587897D01*
X156598597Y-78577440D01*
X156603508Y-78542330D01*
X156607166Y-78499765D01*
X156609526Y-78452379D01*
X156610542Y-78402804D01*
X156610169Y-78353672D01*
X156608362Y-78307618D01*
X156605927Y-78277720D01*
X156353424Y-78277720D01*
X155820677Y-78277720D01*
X155824909Y-78240890D01*
X155835598Y-78183675D01*
X155853649Y-78133051D01*
X155878865Y-78089274D01*
X155911050Y-78052600D01*
X155950009Y-78023287D01*
X155995544Y-78001591D01*
X156011880Y-77996176D01*
X156038345Y-77990889D01*
X156070770Y-77988314D01*
X156105324Y-77988463D01*
X156138176Y-77991342D01*
X156161460Y-77995828D01*
X156206100Y-78012655D01*
X156245791Y-78037935D01*
X156280008Y-78070977D01*
X156308226Y-78111089D01*
X156329922Y-78157578D01*
X156344570Y-78209752D01*
X156349861Y-78244444D01*
X156353424Y-78277720D01*
X156605927Y-78277720D01*
X156605075Y-78267274D01*
X156604084Y-78258913D01*
X156590220Y-78176846D01*
X156570372Y-78102340D01*
X156544275Y-78034556D01*
X156514029Y-77976594D01*
X156473985Y-77918946D01*
X156427159Y-77868818D01*
X156373798Y-77826393D01*
X156314151Y-77791855D01*
X156248465Y-77765389D01*
X156217620Y-77756324D01*
X156195258Y-77750812D01*
X156175482Y-77747021D01*
X156155351Y-77744638D01*
X156131921Y-77743349D01*
X156102248Y-77742841D01*
X156090620Y-77742791D01*
X156049048Y-77743345D01*
X156049048Y-77743345D01*
G37*
X156049048Y-77743345D02*
X156015340Y-77745332D01*
X155987283Y-77748917D01*
X155974090Y-77751491D01*
X155902036Y-77772187D01*
X155835795Y-77801102D01*
X155775704Y-77837898D01*
X155722099Y-77882236D01*
X155675316Y-77933779D01*
X155635690Y-77992189D01*
X155603556Y-78057127D01*
X155579252Y-78128256D01*
X155572373Y-78155800D01*
X155569575Y-78170598D01*
X155567281Y-78188678D01*
X155565414Y-78211299D01*
X155563900Y-78239719D01*
X155562664Y-78275197D01*
X155561630Y-78318992D01*
X155561197Y-78342490D01*
X155558649Y-78491080D01*
X156353642Y-78491080D01*
X156350137Y-78529752D01*
X156340834Y-78585498D01*
X156323744Y-78636047D01*
X156299295Y-78680729D01*
X156267917Y-78718877D01*
X156230038Y-78749821D01*
X156197300Y-78768047D01*
X156162848Y-78782273D01*
X156130601Y-78791495D01*
X156096680Y-78796520D01*
X156057204Y-78798155D01*
X156052520Y-78798163D01*
X155993954Y-78793756D01*
X155938517Y-78780449D01*
X155885207Y-78757877D01*
X155833024Y-78725668D01*
X155811564Y-78709467D01*
X155793176Y-78695182D01*
X155780768Y-78686628D01*
X155772612Y-78682918D01*
X155766980Y-78683166D01*
X155763885Y-78685003D01*
X155757627Y-78690153D01*
X155744897Y-78700849D01*
X155726942Y-78716037D01*
X155705013Y-78734657D01*
X155680356Y-78755655D01*
X155669738Y-78764713D01*
X155584136Y-78837789D01*
X155621478Y-78875640D01*
X155677195Y-78925004D01*
X155738593Y-78966090D01*
X155805224Y-78998723D01*
X155876640Y-79022726D01*
X155952393Y-79037925D01*
X156032034Y-79044145D01*
X156052520Y-79044276D01*
X156081870Y-79043517D01*
X156112196Y-79041835D01*
X156139530Y-79039495D01*
X156156660Y-79037314D01*
X156224891Y-79023171D01*
X156285754Y-79003504D01*
X156340712Y-78977813D01*
X156354780Y-78969747D01*
X156376290Y-78956595D01*
X156393061Y-78945289D01*
X156408107Y-78933483D01*
X156424437Y-78918829D01*
X156442959Y-78901035D01*
X156486344Y-78852368D01*
X156523175Y-78797199D01*
X156553682Y-78735049D01*
X156578096Y-78665441D01*
X156596646Y-78587897D01*
X156598597Y-78577440D01*
X156603508Y-78542330D01*
X156607166Y-78499765D01*
X156609526Y-78452379D01*
X156610542Y-78402804D01*
X156610169Y-78353672D01*
X156608362Y-78307618D01*
X156605927Y-78277720D01*
X156353424Y-78277720D01*
X155820677Y-78277720D01*
X155824909Y-78240890D01*
X155835598Y-78183675D01*
X155853649Y-78133051D01*
X155878865Y-78089274D01*
X155911050Y-78052600D01*
X155950009Y-78023287D01*
X155995544Y-78001591D01*
X156011880Y-77996176D01*
X156038345Y-77990889D01*
X156070770Y-77988314D01*
X156105324Y-77988463D01*
X156138176Y-77991342D01*
X156161460Y-77995828D01*
X156206100Y-78012655D01*
X156245791Y-78037935D01*
X156280008Y-78070977D01*
X156308226Y-78111089D01*
X156329922Y-78157578D01*
X156344570Y-78209752D01*
X156349861Y-78244444D01*
X156353424Y-78277720D01*
X156605927Y-78277720D01*
X156605075Y-78267274D01*
X156604084Y-78258913D01*
X156590220Y-78176846D01*
X156570372Y-78102340D01*
X156544275Y-78034556D01*
X156514029Y-77976594D01*
X156473985Y-77918946D01*
X156427159Y-77868818D01*
X156373798Y-77826393D01*
X156314151Y-77791855D01*
X156248465Y-77765389D01*
X156217620Y-77756324D01*
X156195258Y-77750812D01*
X156175482Y-77747021D01*
X156155351Y-77744638D01*
X156131921Y-77743349D01*
X156102248Y-77742841D01*
X156090620Y-77742791D01*
X156049048Y-77743345D01*
G36*
X158174184Y-77745452D02*
G01*
X158108067Y-77753916D01*
X158074360Y-77760318D01*
X158007120Y-77778765D01*
X157947820Y-77803510D01*
X157896346Y-77834656D01*
X157852586Y-77872307D01*
X157816426Y-77916566D01*
X157787753Y-77967536D01*
X157766453Y-78025322D01*
X157760861Y-78046580D01*
X157759404Y-78053498D01*
X157758114Y-78061757D01*
X157756976Y-78072002D01*
X157755977Y-78084878D01*
X157755105Y-78101029D01*
X157754346Y-78121102D01*
X157753688Y-78145740D01*
X157753117Y-78175589D01*
X157752621Y-78211294D01*
X157752186Y-78253500D01*
X157751800Y-78302852D01*
X157751449Y-78359994D01*
X157751120Y-78425572D01*
X157750801Y-78500231D01*
X157750585Y-78555936D01*
X157748800Y-79029732D01*
X158010860Y-79027020D01*
X158012314Y-78974440D01*
X158013767Y-78921861D01*
X158028518Y-78942224D01*
X158055742Y-78971701D01*
X158091220Y-78997074D01*
X158133598Y-79017546D01*
X158181040Y-79032204D01*
X158206101Y-79036490D01*
X158238618Y-79039770D01*
X158275936Y-79041986D01*
X158315395Y-79043084D01*
X158354339Y-79043006D01*
X158390109Y-79041697D01*
X158420047Y-79039100D01*
X158431004Y-79037480D01*
X158498644Y-79021304D01*
X158559766Y-78997886D01*
X158614062Y-78967491D01*
X158661221Y-78930385D01*
X158700935Y-78886833D01*
X158732893Y-78837101D01*
X158756787Y-78781452D01*
X158765885Y-78750413D01*
X158770477Y-78730312D01*
X158773383Y-78712012D01*
X158774826Y-78692513D01*
X158775031Y-78668819D01*
X158774247Y-78638653D01*
X158774038Y-78634004D01*
X158530422Y-78634004D01*
X158528404Y-78670434D01*
X158517179Y-78703268D01*
X158497192Y-78732081D01*
X158468890Y-78756447D01*
X158432716Y-78775941D01*
X158389119Y-78790136D01*
X158361141Y-78795690D01*
X158340574Y-78797694D01*
X158312710Y-78798679D01*
X158280089Y-78798728D01*
X158245252Y-78797925D01*
X158210739Y-78796352D01*
X158179091Y-78794093D01*
X158152849Y-78791231D01*
X158136431Y-78788325D01*
X158097842Y-78775919D01*
X158067702Y-78758861D01*
X158045084Y-78736403D01*
X158029059Y-78707801D01*
X158025987Y-78699644D01*
X158021747Y-78682673D01*
X158017704Y-78657937D01*
X158014103Y-78627832D01*
X158011190Y-78594753D01*
X158009210Y-78561096D01*
X158008408Y-78529256D01*
X158008403Y-78527910D01*
X158008320Y-78491080D01*
X158177230Y-78491118D01*
X158236493Y-78491365D01*
X158286643Y-78492187D01*
X158328716Y-78493748D01*
X158363752Y-78496214D01*
X158392787Y-78499747D01*
X158416861Y-78504514D01*
X158437011Y-78510678D01*
X158454275Y-78518404D01*
X158469691Y-78527856D01*
X158484297Y-78539200D01*
X158485149Y-78539926D01*
X158508074Y-78564748D01*
X158522713Y-78593580D01*
X158529928Y-78628215D01*
X158530422Y-78634004D01*
X158774038Y-78634004D01*
X158772846Y-78607506D01*
X158770833Y-78583564D01*
X158767770Y-78563875D01*
X158763221Y-78545485D01*
X158758033Y-78529180D01*
X158733861Y-78472903D01*
X158701935Y-78423129D01*
X158662451Y-78380039D01*
X158615611Y-78343814D01*
X158561612Y-78314636D01*
X158500653Y-78292687D01*
X158497922Y-78291920D01*
X158487790Y-78289232D01*
X158477804Y-78287001D01*
X158466907Y-78285174D01*
X158454039Y-78283697D01*
X158438143Y-78282520D01*
X158418159Y-78281589D01*
X158393029Y-78280852D01*
X158361696Y-78280256D01*
X158323099Y-78279750D01*
X158276182Y-78279280D01*
X158235650Y-78278926D01*
X158013400Y-78277049D01*
X158013400Y-78192884D01*
X158013721Y-78155073D01*
X158014918Y-78125685D01*
X158017342Y-78102997D01*
X158021343Y-78085283D01*
X158027273Y-78070822D01*
X158035484Y-78057888D01*
X158042726Y-78048878D01*
X158063126Y-78029566D01*
X158088308Y-78014291D01*
X158119246Y-78002788D01*
X158156910Y-77994793D01*
X158202274Y-77990043D01*
X158256311Y-77988272D01*
X158265916Y-77988248D01*
X158312789Y-77989113D01*
X158351274Y-77991792D01*
X158383028Y-77996578D01*
X158409709Y-78003765D01*
X158432974Y-78013647D01*
X158444079Y-78019831D01*
X158469096Y-78037116D01*
X158488351Y-78056369D01*
X158501089Y-78073809D01*
X158503609Y-78077253D01*
X158506541Y-78079144D01*
X158510889Y-78078874D01*
X158517657Y-78075837D01*
X158527852Y-78069424D01*
X158542477Y-78059029D01*
X158562537Y-78044043D01*
X158589037Y-78023860D01*
X158609039Y-78008549D01*
X158636626Y-77987147D01*
X158661313Y-77967472D01*
X158682003Y-77950439D01*
X158697603Y-77936963D01*
X158707016Y-77927961D01*
X158709360Y-77924647D01*
X158705943Y-77918444D01*
X158696654Y-77906877D01*
X158682935Y-77891633D01*
X158667230Y-77875398D01*
X158621866Y-77835231D01*
X158573685Y-77803303D01*
X158520919Y-77778688D01*
X158461805Y-77760461D01*
X158437580Y-77755071D01*
X158377901Y-77746058D01*
X158312105Y-77741480D01*
X158243198Y-77741292D01*
X158174184Y-77745452D01*
X158174184Y-77745452D01*
G37*
X158174184Y-77745452D02*
X158108067Y-77753916D01*
X158074360Y-77760318D01*
X158007120Y-77778765D01*
X157947820Y-77803510D01*
X157896346Y-77834656D01*
X157852586Y-77872307D01*
X157816426Y-77916566D01*
X157787753Y-77967536D01*
X157766453Y-78025322D01*
X157760861Y-78046580D01*
X157759404Y-78053498D01*
X157758114Y-78061757D01*
X157756976Y-78072002D01*
X157755977Y-78084878D01*
X157755105Y-78101029D01*
X157754346Y-78121102D01*
X157753688Y-78145740D01*
X157753117Y-78175589D01*
X157752621Y-78211294D01*
X157752186Y-78253500D01*
X157751800Y-78302852D01*
X157751449Y-78359994D01*
X157751120Y-78425572D01*
X157750801Y-78500231D01*
X157750585Y-78555936D01*
X157748800Y-79029732D01*
X158010860Y-79027020D01*
X158012314Y-78974440D01*
X158013767Y-78921861D01*
X158028518Y-78942224D01*
X158055742Y-78971701D01*
X158091220Y-78997074D01*
X158133598Y-79017546D01*
X158181040Y-79032204D01*
X158206101Y-79036490D01*
X158238618Y-79039770D01*
X158275936Y-79041986D01*
X158315395Y-79043084D01*
X158354339Y-79043006D01*
X158390109Y-79041697D01*
X158420047Y-79039100D01*
X158431004Y-79037480D01*
X158498644Y-79021304D01*
X158559766Y-78997886D01*
X158614062Y-78967491D01*
X158661221Y-78930385D01*
X158700935Y-78886833D01*
X158732893Y-78837101D01*
X158756787Y-78781452D01*
X158765885Y-78750413D01*
X158770477Y-78730312D01*
X158773383Y-78712012D01*
X158774826Y-78692513D01*
X158775031Y-78668819D01*
X158774247Y-78638653D01*
X158774038Y-78634004D01*
X158530422Y-78634004D01*
X158528404Y-78670434D01*
X158517179Y-78703268D01*
X158497192Y-78732081D01*
X158468890Y-78756447D01*
X158432716Y-78775941D01*
X158389119Y-78790136D01*
X158361141Y-78795690D01*
X158340574Y-78797694D01*
X158312710Y-78798679D01*
X158280089Y-78798728D01*
X158245252Y-78797925D01*
X158210739Y-78796352D01*
X158179091Y-78794093D01*
X158152849Y-78791231D01*
X158136431Y-78788325D01*
X158097842Y-78775919D01*
X158067702Y-78758861D01*
X158045084Y-78736403D01*
X158029059Y-78707801D01*
X158025987Y-78699644D01*
X158021747Y-78682673D01*
X158017704Y-78657937D01*
X158014103Y-78627832D01*
X158011190Y-78594753D01*
X158009210Y-78561096D01*
X158008408Y-78529256D01*
X158008403Y-78527910D01*
X158008320Y-78491080D01*
X158177230Y-78491118D01*
X158236493Y-78491365D01*
X158286643Y-78492187D01*
X158328716Y-78493748D01*
X158363752Y-78496214D01*
X158392787Y-78499747D01*
X158416861Y-78504514D01*
X158437011Y-78510678D01*
X158454275Y-78518404D01*
X158469691Y-78527856D01*
X158484297Y-78539200D01*
X158485149Y-78539926D01*
X158508074Y-78564748D01*
X158522713Y-78593580D01*
X158529928Y-78628215D01*
X158530422Y-78634004D01*
X158774038Y-78634004D01*
X158772846Y-78607506D01*
X158770833Y-78583564D01*
X158767770Y-78563875D01*
X158763221Y-78545485D01*
X158758033Y-78529180D01*
X158733861Y-78472903D01*
X158701935Y-78423129D01*
X158662451Y-78380039D01*
X158615611Y-78343814D01*
X158561612Y-78314636D01*
X158500653Y-78292687D01*
X158497922Y-78291920D01*
X158487790Y-78289232D01*
X158477804Y-78287001D01*
X158466907Y-78285174D01*
X158454039Y-78283697D01*
X158438143Y-78282520D01*
X158418159Y-78281589D01*
X158393029Y-78280852D01*
X158361696Y-78280256D01*
X158323099Y-78279750D01*
X158276182Y-78279280D01*
X158235650Y-78278926D01*
X158013400Y-78277049D01*
X158013400Y-78192884D01*
X158013721Y-78155073D01*
X158014918Y-78125685D01*
X158017342Y-78102997D01*
X158021343Y-78085283D01*
X158027273Y-78070822D01*
X158035484Y-78057888D01*
X158042726Y-78048878D01*
X158063126Y-78029566D01*
X158088308Y-78014291D01*
X158119246Y-78002788D01*
X158156910Y-77994793D01*
X158202274Y-77990043D01*
X158256311Y-77988272D01*
X158265916Y-77988248D01*
X158312789Y-77989113D01*
X158351274Y-77991792D01*
X158383028Y-77996578D01*
X158409709Y-78003765D01*
X158432974Y-78013647D01*
X158444079Y-78019831D01*
X158469096Y-78037116D01*
X158488351Y-78056369D01*
X158501089Y-78073809D01*
X158503609Y-78077253D01*
X158506541Y-78079144D01*
X158510889Y-78078874D01*
X158517657Y-78075837D01*
X158527852Y-78069424D01*
X158542477Y-78059029D01*
X158562537Y-78044043D01*
X158589037Y-78023860D01*
X158609039Y-78008549D01*
X158636626Y-77987147D01*
X158661313Y-77967472D01*
X158682003Y-77950439D01*
X158697603Y-77936963D01*
X158707016Y-77927961D01*
X158709360Y-77924647D01*
X158705943Y-77918444D01*
X158696654Y-77906877D01*
X158682935Y-77891633D01*
X158667230Y-77875398D01*
X158621866Y-77835231D01*
X158573685Y-77803303D01*
X158520919Y-77778688D01*
X158461805Y-77760461D01*
X158437580Y-77755071D01*
X158377901Y-77746058D01*
X158312105Y-77741480D01*
X158243198Y-77741292D01*
X158174184Y-77745452D01*
G36*
X160726120Y-79029560D02*
G01*
X160990280Y-79029560D01*
X160990280Y-78907982D01*
X161033164Y-78942389D01*
X161081914Y-78976785D01*
X161134463Y-79005383D01*
X161187569Y-79026471D01*
X161198560Y-79029805D01*
X161223046Y-79035027D01*
X161254348Y-79039129D01*
X161289329Y-79041946D01*
X161324850Y-79043315D01*
X161357773Y-79043073D01*
X161384958Y-79041056D01*
X161392460Y-79039914D01*
X161439985Y-79028555D01*
X161486387Y-79011510D01*
X161521140Y-78995055D01*
X161543579Y-78982789D01*
X161562933Y-78970085D01*
X161581968Y-78954832D01*
X161603451Y-78934920D01*
X161615399Y-78923133D01*
X161647416Y-78889182D01*
X161672245Y-78857974D01*
X161691466Y-78827121D01*
X161706661Y-78794233D01*
X161713931Y-78774245D01*
X161720948Y-78751643D01*
X161726819Y-78728497D01*
X161731661Y-78703603D01*
X161735591Y-78675763D01*
X161738729Y-78643774D01*
X161741190Y-78606436D01*
X161743093Y-78562548D01*
X161744556Y-78510907D01*
X161745696Y-78450315D01*
X161745700Y-78450074D01*
X161746302Y-78392020D01*
X161485038Y-78392020D01*
X161484964Y-78435400D01*
X161484682Y-78470193D01*
X161484103Y-78497971D01*
X161483139Y-78520305D01*
X161481702Y-78538767D01*
X161479703Y-78554930D01*
X161477054Y-78570364D01*
X161474228Y-78584068D01*
X161459765Y-78636299D01*
X161440715Y-78679777D01*
X161416611Y-78715035D01*
X161386985Y-78742606D01*
X161351370Y-78763024D01*
X161309299Y-78776822D01*
X161304449Y-78777917D01*
X161252194Y-78784687D01*
X161199365Y-78783022D01*
X161180443Y-78780231D01*
X161145886Y-78770652D01*
X161112146Y-78755409D01*
X161082652Y-78736272D01*
X161066083Y-78721200D01*
X161046927Y-78695673D01*
X161029073Y-78663067D01*
X161013980Y-78626463D01*
X161003107Y-78588940D01*
X161002810Y-78587600D01*
X160999533Y-78566895D01*
X160996713Y-78537991D01*
X160994394Y-78502839D01*
X160992621Y-78463392D01*
X160991439Y-78421602D01*
X160990893Y-78379420D01*
X160991026Y-78338799D01*
X160991883Y-78301692D01*
X160993509Y-78270049D01*
X160995157Y-78251945D01*
X161005112Y-78192462D01*
X161020259Y-78141542D01*
X161040799Y-78098902D01*
X161066932Y-78064255D01*
X161098855Y-78037319D01*
X161136769Y-78017807D01*
X161165540Y-78008767D01*
X161193605Y-78004266D01*
X161227428Y-78002530D01*
X161263142Y-78003454D01*
X161296875Y-78006930D01*
X161324759Y-78012853D01*
X161325776Y-78013164D01*
X161364741Y-78028875D01*
X161397274Y-78050242D01*
X161424024Y-78078080D01*
X161445636Y-78113204D01*
X161462757Y-78156429D01*
X161474312Y-78200380D01*
X161477560Y-78216342D01*
X161480088Y-78231766D01*
X161481983Y-78248220D01*
X161483333Y-78267273D01*
X161484225Y-78290492D01*
X161484748Y-78319446D01*
X161484989Y-78355705D01*
X161485038Y-78392020D01*
X161746302Y-78392020D01*
X161746552Y-78367946D01*
X161746290Y-78295090D01*
X161744739Y-78230662D01*
X161741727Y-78173816D01*
X161737080Y-78123708D01*
X161730623Y-78079494D01*
X161722185Y-78040329D01*
X161711591Y-78005368D01*
X161698667Y-77973767D01*
X161683241Y-77944682D01*
X161665139Y-77917267D01*
X161644187Y-77890679D01*
X161626734Y-77871026D01*
X161581885Y-77829320D01*
X161531691Y-77795595D01*
X161475288Y-77769346D01*
X161426331Y-77753712D01*
X161386874Y-77746088D01*
X161342441Y-77742190D01*
X161296560Y-77742020D01*
X161252761Y-77745577D01*
X161214575Y-77752863D01*
X161211622Y-77753677D01*
X161149162Y-77776564D01*
X161088523Y-77809112D01*
X161030516Y-77850875D01*
X161020760Y-77859042D01*
X160992820Y-77882941D01*
X160991513Y-77562170D01*
X160990205Y-77241400D01*
X160726120Y-77241400D01*
X160726120Y-79029560D01*
X160726120Y-79029560D01*
G37*
X160726120Y-79029560D02*
X160990280Y-79029560D01*
X160990280Y-78907982D01*
X161033164Y-78942389D01*
X161081914Y-78976785D01*
X161134463Y-79005383D01*
X161187569Y-79026471D01*
X161198560Y-79029805D01*
X161223046Y-79035027D01*
X161254348Y-79039129D01*
X161289329Y-79041946D01*
X161324850Y-79043315D01*
X161357773Y-79043073D01*
X161384958Y-79041056D01*
X161392460Y-79039914D01*
X161439985Y-79028555D01*
X161486387Y-79011510D01*
X161521140Y-78995055D01*
X161543579Y-78982789D01*
X161562933Y-78970085D01*
X161581968Y-78954832D01*
X161603451Y-78934920D01*
X161615399Y-78923133D01*
X161647416Y-78889182D01*
X161672245Y-78857974D01*
X161691466Y-78827121D01*
X161706661Y-78794233D01*
X161713931Y-78774245D01*
X161720948Y-78751643D01*
X161726819Y-78728497D01*
X161731661Y-78703603D01*
X161735591Y-78675763D01*
X161738729Y-78643774D01*
X161741190Y-78606436D01*
X161743093Y-78562548D01*
X161744556Y-78510907D01*
X161745696Y-78450315D01*
X161745700Y-78450074D01*
X161746302Y-78392020D01*
X161485038Y-78392020D01*
X161484964Y-78435400D01*
X161484682Y-78470193D01*
X161484103Y-78497971D01*
X161483139Y-78520305D01*
X161481702Y-78538767D01*
X161479703Y-78554930D01*
X161477054Y-78570364D01*
X161474228Y-78584068D01*
X161459765Y-78636299D01*
X161440715Y-78679777D01*
X161416611Y-78715035D01*
X161386985Y-78742606D01*
X161351370Y-78763024D01*
X161309299Y-78776822D01*
X161304449Y-78777917D01*
X161252194Y-78784687D01*
X161199365Y-78783022D01*
X161180443Y-78780231D01*
X161145886Y-78770652D01*
X161112146Y-78755409D01*
X161082652Y-78736272D01*
X161066083Y-78721200D01*
X161046927Y-78695673D01*
X161029073Y-78663067D01*
X161013980Y-78626463D01*
X161003107Y-78588940D01*
X161002810Y-78587600D01*
X160999533Y-78566895D01*
X160996713Y-78537991D01*
X160994394Y-78502839D01*
X160992621Y-78463392D01*
X160991439Y-78421602D01*
X160990893Y-78379420D01*
X160991026Y-78338799D01*
X160991883Y-78301692D01*
X160993509Y-78270049D01*
X160995157Y-78251945D01*
X161005112Y-78192462D01*
X161020259Y-78141542D01*
X161040799Y-78098902D01*
X161066932Y-78064255D01*
X161098855Y-78037319D01*
X161136769Y-78017807D01*
X161165540Y-78008767D01*
X161193605Y-78004266D01*
X161227428Y-78002530D01*
X161263142Y-78003454D01*
X161296875Y-78006930D01*
X161324759Y-78012853D01*
X161325776Y-78013164D01*
X161364741Y-78028875D01*
X161397274Y-78050242D01*
X161424024Y-78078080D01*
X161445636Y-78113204D01*
X161462757Y-78156429D01*
X161474312Y-78200380D01*
X161477560Y-78216342D01*
X161480088Y-78231766D01*
X161481983Y-78248220D01*
X161483333Y-78267273D01*
X161484225Y-78290492D01*
X161484748Y-78319446D01*
X161484989Y-78355705D01*
X161485038Y-78392020D01*
X161746302Y-78392020D01*
X161746552Y-78367946D01*
X161746290Y-78295090D01*
X161744739Y-78230662D01*
X161741727Y-78173816D01*
X161737080Y-78123708D01*
X161730623Y-78079494D01*
X161722185Y-78040329D01*
X161711591Y-78005368D01*
X161698667Y-77973767D01*
X161683241Y-77944682D01*
X161665139Y-77917267D01*
X161644187Y-77890679D01*
X161626734Y-77871026D01*
X161581885Y-77829320D01*
X161531691Y-77795595D01*
X161475288Y-77769346D01*
X161426331Y-77753712D01*
X161386874Y-77746088D01*
X161342441Y-77742190D01*
X161296560Y-77742020D01*
X161252761Y-77745577D01*
X161214575Y-77752863D01*
X161211622Y-77753677D01*
X161149162Y-77776564D01*
X161088523Y-77809112D01*
X161030516Y-77850875D01*
X161020760Y-77859042D01*
X160992820Y-77882941D01*
X160991513Y-77562170D01*
X160990205Y-77241400D01*
X160726120Y-77241400D01*
X160726120Y-79029560D01*
G36*
X163381361Y-77742883D02*
G01*
X163346982Y-77743760D01*
X163315356Y-77745117D01*
X163288999Y-77746847D01*
X163271200Y-77748728D01*
X163197311Y-77763058D01*
X163131122Y-77783504D01*
X163072761Y-77809985D01*
X163022352Y-77842419D01*
X162980022Y-77880725D01*
X162945896Y-77924820D01*
X162920099Y-77974622D01*
X162918608Y-77978320D01*
X162913621Y-77990804D01*
X162909211Y-78001995D01*
X162905341Y-78012567D01*
X162901974Y-78023196D01*
X162899071Y-78034556D01*
X162896595Y-78047321D01*
X162894508Y-78062168D01*
X162892773Y-78079770D01*
X162891351Y-78100804D01*
X162890205Y-78125942D01*
X162889297Y-78155861D01*
X162888589Y-78191235D01*
X162888044Y-78232740D01*
X162887624Y-78281049D01*
X162887291Y-78336838D01*
X162887007Y-78400782D01*
X162886735Y-78473556D01*
X162886446Y-78553310D01*
X162884683Y-79029560D01*
X163144200Y-79029560D01*
X163144467Y-78972410D01*
X163144657Y-78947873D01*
X163145124Y-78932161D01*
X163146127Y-78923936D01*
X163147925Y-78921862D01*
X163150776Y-78924604D01*
X163153071Y-78927960D01*
X163168710Y-78947545D01*
X163189892Y-78968542D01*
X163213224Y-78987947D01*
X163235313Y-79002760D01*
X163240993Y-79005763D01*
X163270086Y-79018396D01*
X163300064Y-79027944D01*
X163332991Y-79034793D01*
X163370932Y-79039326D01*
X163415955Y-79041928D01*
X163438840Y-79042567D01*
X163487711Y-79042913D01*
X163527180Y-79041698D01*
X163557892Y-79038896D01*
X163566884Y-79037501D01*
X163633878Y-79021411D01*
X163694739Y-78998067D01*
X163749044Y-78967806D01*
X163796364Y-78930966D01*
X163836276Y-78887883D01*
X163868353Y-78838896D01*
X163892170Y-78784341D01*
X163894240Y-78778100D01*
X163902649Y-78743613D01*
X163908299Y-78702969D01*
X163910963Y-78659848D01*
X163910572Y-78629890D01*
X163665157Y-78629890D01*
X163664676Y-78659176D01*
X163659997Y-78685951D01*
X163653813Y-78701900D01*
X163631995Y-78732106D01*
X163601937Y-78757725D01*
X163564888Y-78777797D01*
X163545281Y-78785086D01*
X163513271Y-78792690D01*
X163473501Y-78797710D01*
X163428064Y-78800049D01*
X163379050Y-78799606D01*
X163328553Y-78796283D01*
X163322108Y-78795647D01*
X163296276Y-78792204D01*
X163270611Y-78787448D01*
X163249141Y-78782177D01*
X163241560Y-78779716D01*
X163210893Y-78763498D01*
X163185367Y-78740215D01*
X163166967Y-78711869D01*
X163162065Y-78699614D01*
X163156674Y-78677939D01*
X163151960Y-78648495D01*
X163148176Y-78613668D01*
X163145576Y-78575840D01*
X163144412Y-78537395D01*
X163144382Y-78532990D01*
X163144200Y-78491080D01*
X163310570Y-78491180D01*
X163352468Y-78491355D01*
X163392635Y-78491804D01*
X163429539Y-78492489D01*
X163461645Y-78493371D01*
X163487421Y-78494412D01*
X163505333Y-78495573D01*
X163510835Y-78496183D01*
X163556357Y-78506362D01*
X163594986Y-78522545D01*
X163626091Y-78544368D01*
X163649040Y-78571460D01*
X163653558Y-78579255D01*
X163661448Y-78601961D01*
X163665157Y-78629890D01*
X163910572Y-78629890D01*
X163910415Y-78617932D01*
X163906427Y-78580902D01*
X163906396Y-78580721D01*
X163891299Y-78522856D01*
X163867160Y-78468987D01*
X163834592Y-78420070D01*
X163794209Y-78377063D01*
X163757229Y-78347927D01*
X163721532Y-78326219D01*
X163682912Y-78308620D01*
X163637926Y-78293583D01*
X163633447Y-78292303D01*
X163623497Y-78289614D01*
X163613710Y-78287377D01*
X163603042Y-78285541D01*
X163590444Y-78284053D01*
X163574872Y-78282861D01*
X163555279Y-78281913D01*
X163530619Y-78281156D01*
X163499844Y-78280539D01*
X163461910Y-78280009D01*
X163415770Y-78279514D01*
X163368298Y-78279072D01*
X163142815Y-78277049D01*
X163145527Y-78192294D01*
X163147158Y-78153673D01*
X163149352Y-78123995D01*
X163152232Y-78102052D01*
X163155923Y-78086636D01*
X163156596Y-78084698D01*
X163172665Y-78055300D01*
X163197363Y-78030972D01*
X163230403Y-78011913D01*
X163271496Y-77998323D01*
X163285494Y-77995315D01*
X163307640Y-77992286D01*
X163336720Y-77990030D01*
X163370101Y-77988579D01*
X163405149Y-77987963D01*
X163439231Y-77988214D01*
X163469714Y-77989363D01*
X163493963Y-77991440D01*
X163502511Y-77992756D01*
X163548317Y-78005372D01*
X163586580Y-78024436D01*
X163617874Y-78050289D01*
X163634688Y-78070806D01*
X163644597Y-78084873D01*
X163670026Y-78065726D01*
X163718092Y-78029319D01*
X163758702Y-77998101D01*
X163791705Y-77972192D01*
X163816954Y-77951712D01*
X163834298Y-77936781D01*
X163843589Y-77927518D01*
X163845240Y-77924642D01*
X163841580Y-77917339D01*
X163831671Y-77905140D01*
X163817126Y-77889591D01*
X163799553Y-77872237D01*
X163780564Y-77854622D01*
X163761769Y-77838292D01*
X163744779Y-77824791D01*
X163732302Y-77816300D01*
X163673040Y-77786409D01*
X163609031Y-77763516D01*
X163570920Y-77753955D01*
X163549683Y-77749820D01*
X163529498Y-77746803D01*
X163508102Y-77744737D01*
X163483233Y-77743457D01*
X163452631Y-77742797D01*
X163415980Y-77742593D01*
X163381361Y-77742883D01*
X163381361Y-77742883D01*
G37*
X163381361Y-77742883D02*
X163346982Y-77743760D01*
X163315356Y-77745117D01*
X163288999Y-77746847D01*
X163271200Y-77748728D01*
X163197311Y-77763058D01*
X163131122Y-77783504D01*
X163072761Y-77809985D01*
X163022352Y-77842419D01*
X162980022Y-77880725D01*
X162945896Y-77924820D01*
X162920099Y-77974622D01*
X162918608Y-77978320D01*
X162913621Y-77990804D01*
X162909211Y-78001995D01*
X162905341Y-78012567D01*
X162901974Y-78023196D01*
X162899071Y-78034556D01*
X162896595Y-78047321D01*
X162894508Y-78062168D01*
X162892773Y-78079770D01*
X162891351Y-78100804D01*
X162890205Y-78125942D01*
X162889297Y-78155861D01*
X162888589Y-78191235D01*
X162888044Y-78232740D01*
X162887624Y-78281049D01*
X162887291Y-78336838D01*
X162887007Y-78400782D01*
X162886735Y-78473556D01*
X162886446Y-78553310D01*
X162884683Y-79029560D01*
X163144200Y-79029560D01*
X163144467Y-78972410D01*
X163144657Y-78947873D01*
X163145124Y-78932161D01*
X163146127Y-78923936D01*
X163147925Y-78921862D01*
X163150776Y-78924604D01*
X163153071Y-78927960D01*
X163168710Y-78947545D01*
X163189892Y-78968542D01*
X163213224Y-78987947D01*
X163235313Y-79002760D01*
X163240993Y-79005763D01*
X163270086Y-79018396D01*
X163300064Y-79027944D01*
X163332991Y-79034793D01*
X163370932Y-79039326D01*
X163415955Y-79041928D01*
X163438840Y-79042567D01*
X163487711Y-79042913D01*
X163527180Y-79041698D01*
X163557892Y-79038896D01*
X163566884Y-79037501D01*
X163633878Y-79021411D01*
X163694739Y-78998067D01*
X163749044Y-78967806D01*
X163796364Y-78930966D01*
X163836276Y-78887883D01*
X163868353Y-78838896D01*
X163892170Y-78784341D01*
X163894240Y-78778100D01*
X163902649Y-78743613D01*
X163908299Y-78702969D01*
X163910963Y-78659848D01*
X163910572Y-78629890D01*
X163665157Y-78629890D01*
X163664676Y-78659176D01*
X163659997Y-78685951D01*
X163653813Y-78701900D01*
X163631995Y-78732106D01*
X163601937Y-78757725D01*
X163564888Y-78777797D01*
X163545281Y-78785086D01*
X163513271Y-78792690D01*
X163473501Y-78797710D01*
X163428064Y-78800049D01*
X163379050Y-78799606D01*
X163328553Y-78796283D01*
X163322108Y-78795647D01*
X163296276Y-78792204D01*
X163270611Y-78787448D01*
X163249141Y-78782177D01*
X163241560Y-78779716D01*
X163210893Y-78763498D01*
X163185367Y-78740215D01*
X163166967Y-78711869D01*
X163162065Y-78699614D01*
X163156674Y-78677939D01*
X163151960Y-78648495D01*
X163148176Y-78613668D01*
X163145576Y-78575840D01*
X163144412Y-78537395D01*
X163144382Y-78532990D01*
X163144200Y-78491080D01*
X163310570Y-78491180D01*
X163352468Y-78491355D01*
X163392635Y-78491804D01*
X163429539Y-78492489D01*
X163461645Y-78493371D01*
X163487421Y-78494412D01*
X163505333Y-78495573D01*
X163510835Y-78496183D01*
X163556357Y-78506362D01*
X163594986Y-78522545D01*
X163626091Y-78544368D01*
X163649040Y-78571460D01*
X163653558Y-78579255D01*
X163661448Y-78601961D01*
X163665157Y-78629890D01*
X163910572Y-78629890D01*
X163910415Y-78617932D01*
X163906427Y-78580902D01*
X163906396Y-78580721D01*
X163891299Y-78522856D01*
X163867160Y-78468987D01*
X163834592Y-78420070D01*
X163794209Y-78377063D01*
X163757229Y-78347927D01*
X163721532Y-78326219D01*
X163682912Y-78308620D01*
X163637926Y-78293583D01*
X163633447Y-78292303D01*
X163623497Y-78289614D01*
X163613710Y-78287377D01*
X163603042Y-78285541D01*
X163590444Y-78284053D01*
X163574872Y-78282861D01*
X163555279Y-78281913D01*
X163530619Y-78281156D01*
X163499844Y-78280539D01*
X163461910Y-78280009D01*
X163415770Y-78279514D01*
X163368298Y-78279072D01*
X163142815Y-78277049D01*
X163145527Y-78192294D01*
X163147158Y-78153673D01*
X163149352Y-78123995D01*
X163152232Y-78102052D01*
X163155923Y-78086636D01*
X163156596Y-78084698D01*
X163172665Y-78055300D01*
X163197363Y-78030972D01*
X163230403Y-78011913D01*
X163271496Y-77998323D01*
X163285494Y-77995315D01*
X163307640Y-77992286D01*
X163336720Y-77990030D01*
X163370101Y-77988579D01*
X163405149Y-77987963D01*
X163439231Y-77988214D01*
X163469714Y-77989363D01*
X163493963Y-77991440D01*
X163502511Y-77992756D01*
X163548317Y-78005372D01*
X163586580Y-78024436D01*
X163617874Y-78050289D01*
X163634688Y-78070806D01*
X163644597Y-78084873D01*
X163670026Y-78065726D01*
X163718092Y-78029319D01*
X163758702Y-77998101D01*
X163791705Y-77972192D01*
X163816954Y-77951712D01*
X163834298Y-77936781D01*
X163843589Y-77927518D01*
X163845240Y-77924642D01*
X163841580Y-77917339D01*
X163831671Y-77905140D01*
X163817126Y-77889591D01*
X163799553Y-77872237D01*
X163780564Y-77854622D01*
X163761769Y-77838292D01*
X163744779Y-77824791D01*
X163732302Y-77816300D01*
X163673040Y-77786409D01*
X163609031Y-77763516D01*
X163570920Y-77753955D01*
X163549683Y-77749820D01*
X163529498Y-77746803D01*
X163508102Y-77744737D01*
X163483233Y-77743457D01*
X163452631Y-77742797D01*
X163415980Y-77742593D01*
X163381361Y-77742883D01*
G36*
X142505778Y-87998019D02*
G01*
X142302380Y-88003290D01*
X142126889Y-88013689D01*
X141968386Y-88030537D01*
X141815954Y-88055155D01*
X141658676Y-88088863D01*
X141485634Y-88132983D01*
X141380348Y-88162007D01*
X140922128Y-88314575D01*
X140488885Y-88508466D01*
X140078060Y-88745196D01*
X139687098Y-89026282D01*
X139313438Y-89353240D01*
X139224381Y-89440372D01*
X138899942Y-89792249D01*
X138621024Y-90155363D01*
X138383622Y-90535700D01*
X138183732Y-90939245D01*
X138120896Y-91089568D01*
X137977768Y-91491884D01*
X137873559Y-91888607D01*
X137805885Y-92292400D01*
X137772358Y-92715928D01*
X137767608Y-92964000D01*
X137788630Y-93456885D01*
X137852532Y-93928694D01*
X137960563Y-94383321D01*
X138113976Y-94824663D01*
X138314022Y-95256614D01*
X138561953Y-95683070D01*
X138713746Y-95908972D01*
X138816379Y-96042468D01*
X138949337Y-96196761D01*
X139103288Y-96362519D01*
X139268900Y-96530409D01*
X139436842Y-96691100D01*
X139597780Y-96835260D01*
X139742384Y-96953556D01*
X139803028Y-96998254D01*
X140235765Y-97275654D01*
X140676381Y-97504463D01*
X141127076Y-97685572D01*
X141590049Y-97819869D01*
X142047056Y-97905433D01*
X142215130Y-97922930D01*
X142417504Y-97934611D01*
X142640369Y-97940482D01*
X142869919Y-97940552D01*
X143092346Y-97934827D01*
X143293841Y-97923315D01*
X143460598Y-97906024D01*
X143470157Y-97904663D01*
X143951896Y-97810177D01*
X144415963Y-97670612D01*
X144859958Y-97488293D01*
X145281486Y-97265546D01*
X145678147Y-97004695D01*
X146047544Y-96708066D01*
X146387280Y-96377984D01*
X146694955Y-96016773D01*
X146862279Y-95777921D01*
X145521436Y-95777921D01*
X145448297Y-95855188D01*
X145359576Y-95937909D01*
X145237457Y-96036430D01*
X145092584Y-96143298D01*
X144935602Y-96251060D01*
X144777155Y-96352264D01*
X144627887Y-96439457D01*
X144568765Y-96470997D01*
X144152059Y-96658477D01*
X143723396Y-96797815D01*
X143280573Y-96889710D01*
X143221138Y-96898307D01*
X143083716Y-96910329D01*
X142910835Y-96915108D01*
X142716222Y-96913199D01*
X142513607Y-96905158D01*
X142316720Y-96891541D01*
X142139290Y-96872902D01*
X141995045Y-96849797D01*
X141988491Y-96848438D01*
X141559553Y-96734247D01*
X141146036Y-96576527D01*
X140929021Y-96472547D01*
X140786384Y-96393157D01*
X140630207Y-96296734D01*
X140471074Y-96190692D01*
X140319567Y-96082445D01*
X140186271Y-95979406D01*
X140081768Y-95888989D01*
X140047704Y-95855188D01*
X139974565Y-95777921D01*
X145521436Y-95777921D01*
X146862279Y-95777921D01*
X146968174Y-95626758D01*
X147204537Y-95210266D01*
X147401646Y-94769620D01*
X147557105Y-94307146D01*
X147603142Y-94108921D01*
X146533098Y-94108921D01*
X146523583Y-94150277D01*
X146497792Y-94226483D01*
X146459853Y-94326957D01*
X146413897Y-94441120D01*
X146364054Y-94558390D01*
X146316620Y-94663558D01*
X146226421Y-94856549D01*
X141399232Y-94856549D01*
X141447927Y-94775617D01*
X141478402Y-94724463D01*
X141527831Y-94640928D01*
X141589971Y-94535587D01*
X141658575Y-94419017D01*
X141675842Y-94389637D01*
X141855061Y-94084588D01*
X144194080Y-94084588D01*
X144624948Y-94084845D01*
X145014579Y-94085611D01*
X145362022Y-94086875D01*
X145666329Y-94088627D01*
X145926549Y-94090858D01*
X146141731Y-94093558D01*
X146310927Y-94096717D01*
X146433186Y-94100324D01*
X146507557Y-94104370D01*
X146533092Y-94108846D01*
X146533098Y-94108921D01*
X147603142Y-94108921D01*
X147666628Y-93835568D01*
X147689794Y-93670867D01*
X147707266Y-93469522D01*
X147718833Y-93244390D01*
X147724283Y-93008327D01*
X147723626Y-92832914D01*
X146705395Y-92832914D01*
X146697831Y-93250295D01*
X146643024Y-93667319D01*
X146616667Y-93793745D01*
X146595991Y-93875232D01*
X146577568Y-93931119D01*
X146565106Y-93950329D01*
X146564380Y-93949856D01*
X146550356Y-93926887D01*
X146513066Y-93863536D01*
X146454113Y-93762572D01*
X146375102Y-93626764D01*
X146277636Y-93458880D01*
X146163320Y-93261688D01*
X146107233Y-93164837D01*
X145059732Y-93164837D01*
X145038965Y-93173159D01*
X144973926Y-93179930D01*
X144870130Y-93184849D01*
X144733092Y-93187616D01*
X144633223Y-93188117D01*
X143126284Y-93188117D01*
X142369717Y-93188117D01*
X142450218Y-93044931D01*
X142544893Y-92877004D01*
X142618064Y-92748414D01*
X142672262Y-92654876D01*
X142710020Y-92592108D01*
X142733870Y-92555827D01*
X142746343Y-92541748D01*
X142748000Y-92541195D01*
X142757992Y-92550326D01*
X142778719Y-92580574D01*
X142812711Y-92636222D01*
X142862502Y-92721553D01*
X142930623Y-92840852D01*
X143019607Y-92998401D01*
X143045783Y-93044931D01*
X143126284Y-93188117D01*
X144633223Y-93188117D01*
X144470995Y-93187442D01*
X144351632Y-93185037D01*
X144268211Y-93180336D01*
X144213805Y-93172772D01*
X144181491Y-93161779D01*
X144166734Y-93149947D01*
X144149914Y-93123238D01*
X144110022Y-93056455D01*
X144048850Y-92952678D01*
X143968189Y-92814986D01*
X143869832Y-92646458D01*
X143755571Y-92450174D01*
X143627198Y-92229212D01*
X143486505Y-91986652D01*
X143335286Y-91725574D01*
X143274444Y-91620394D01*
X142200157Y-91620394D01*
X142187966Y-91645764D01*
X142152545Y-91711188D01*
X142095626Y-91813625D01*
X142018940Y-91950032D01*
X141924219Y-92117366D01*
X141813193Y-92312584D01*
X141687593Y-92532645D01*
X141549152Y-92774504D01*
X141399599Y-93035120D01*
X141240667Y-93311451D01*
X141074085Y-93600452D01*
X141037572Y-93663717D01*
X140841310Y-94003633D01*
X140668367Y-94302915D01*
X140517198Y-94564081D01*
X140386256Y-94789651D01*
X140273992Y-94982142D01*
X140178862Y-95144073D01*
X140099317Y-95277961D01*
X140033811Y-95386326D01*
X139980797Y-95471684D01*
X139938729Y-95536555D01*
X139906058Y-95583457D01*
X139881239Y-95614907D01*
X139862724Y-95633424D01*
X139848966Y-95641527D01*
X139838420Y-95641733D01*
X139829537Y-95636560D01*
X139827027Y-95634392D01*
X139792895Y-95597145D01*
X139737757Y-95529907D01*
X139669875Y-95442980D01*
X139612581Y-95367039D01*
X139541115Y-95269807D01*
X139477493Y-95181382D01*
X139429669Y-95112927D01*
X139408504Y-95080666D01*
X139402821Y-95069295D01*
X139400009Y-95055447D01*
X139401487Y-95036508D01*
X139408676Y-95009862D01*
X139422995Y-94972895D01*
X139445864Y-94922990D01*
X139478703Y-94857534D01*
X139522932Y-94773911D01*
X139579972Y-94669505D01*
X139651241Y-94541703D01*
X139738159Y-94387888D01*
X139842148Y-94205445D01*
X139964625Y-93991760D01*
X140107012Y-93744217D01*
X140270728Y-93460202D01*
X140457194Y-93137098D01*
X140567643Y-92945797D01*
X140738174Y-92650733D01*
X140901775Y-92368199D01*
X141056720Y-92101147D01*
X141201286Y-91852524D01*
X141333745Y-91625280D01*
X141452374Y-91422364D01*
X141555446Y-91246725D01*
X141641237Y-91101313D01*
X141708021Y-90989076D01*
X141754073Y-90912964D01*
X141777667Y-90875926D01*
X141780401Y-90872709D01*
X141797690Y-90893062D01*
X141833468Y-90948708D01*
X141882856Y-91030957D01*
X141940975Y-91131120D01*
X142002947Y-91240508D01*
X142063894Y-91350430D01*
X142118938Y-91452198D01*
X142163200Y-91537122D01*
X142191802Y-91596513D01*
X142200157Y-91620394D01*
X143274444Y-91620394D01*
X143175330Y-91449055D01*
X143008432Y-91160177D01*
X142981971Y-91114343D01*
X142785022Y-90772995D01*
X142611724Y-90472170D01*
X142460692Y-90209339D01*
X142330538Y-89981974D01*
X142219874Y-89787546D01*
X142127314Y-89623526D01*
X142051470Y-89487386D01*
X141990955Y-89376597D01*
X141944383Y-89288630D01*
X141910365Y-89220956D01*
X141887514Y-89171047D01*
X141874445Y-89136374D01*
X141874089Y-89134702D01*
X141721263Y-89134702D01*
X141517235Y-89486753D01*
X141474930Y-89559819D01*
X141409828Y-89672350D01*
X141324048Y-89820682D01*
X141219704Y-90001155D01*
X141098915Y-90210106D01*
X140963795Y-90443875D01*
X140816462Y-90698799D01*
X140659032Y-90971216D01*
X140493622Y-91257465D01*
X140322348Y-91553884D01*
X140147326Y-91856812D01*
X140121515Y-91901489D01*
X139901953Y-92280845D01*
X139703250Y-92622752D01*
X139525795Y-92926554D01*
X139369981Y-93191595D01*
X139236199Y-93417218D01*
X139124841Y-93602767D01*
X139036298Y-93747586D01*
X138970962Y-93851018D01*
X138929224Y-93912407D01*
X138911476Y-93931097D01*
X138911095Y-93930712D01*
X138897920Y-93892031D01*
X138879075Y-93818012D01*
X138857931Y-93722294D01*
X138850548Y-93685870D01*
X138825484Y-93520960D01*
X138807151Y-93322486D01*
X138796055Y-93106297D01*
X138792703Y-92888242D01*
X138797604Y-92684171D01*
X138811263Y-92509932D01*
X138812587Y-92499043D01*
X138891859Y-92062138D01*
X139017164Y-91641292D01*
X139186461Y-91239551D01*
X139397712Y-90859964D01*
X139648874Y-90505577D01*
X139937907Y-90179437D01*
X140262770Y-89884592D01*
X140621424Y-89624088D01*
X140817805Y-89504800D01*
X140954213Y-89432809D01*
X141115149Y-89356819D01*
X141285047Y-89283449D01*
X141448339Y-89219318D01*
X141589459Y-89171047D01*
X141630759Y-89159117D01*
X141721263Y-89134702D01*
X141874089Y-89134702D01*
X141869768Y-89114408D01*
X141872098Y-89102621D01*
X141876571Y-89099271D01*
X141931001Y-89085370D01*
X142021682Y-89068488D01*
X142135296Y-89050487D01*
X142258525Y-89033233D01*
X142378052Y-89018589D01*
X142480561Y-89008419D01*
X142552732Y-89004588D01*
X142662866Y-89004588D01*
X143857149Y-91073073D01*
X144027544Y-91368286D01*
X144190847Y-91651389D01*
X144345337Y-91919389D01*
X144489294Y-92169295D01*
X144621000Y-92398115D01*
X144738734Y-92602859D01*
X144840776Y-92780535D01*
X144925407Y-92928151D01*
X144990906Y-93042717D01*
X145035555Y-93121240D01*
X145057633Y-93160730D01*
X145059732Y-93164837D01*
X146107233Y-93164837D01*
X146033756Y-93037958D01*
X145890550Y-92790457D01*
X145735304Y-92521954D01*
X145569622Y-92235218D01*
X145395110Y-91933016D01*
X145213369Y-91618118D01*
X145174812Y-91551287D01*
X144992212Y-91234432D01*
X144817036Y-90929788D01*
X144650845Y-90640109D01*
X144495203Y-90368149D01*
X144351672Y-90116660D01*
X144221815Y-89888397D01*
X144107195Y-89686112D01*
X144009374Y-89512559D01*
X143929916Y-89370491D01*
X143870382Y-89262661D01*
X143832336Y-89191823D01*
X143817341Y-89160730D01*
X143817287Y-89159498D01*
X143855326Y-89163165D01*
X143929535Y-89184772D01*
X144031122Y-89220838D01*
X144151295Y-89267883D01*
X144281263Y-89322426D01*
X144412233Y-89380987D01*
X144535414Y-89440085D01*
X144568765Y-89457002D01*
X144937112Y-89673574D01*
X145275764Y-89926948D01*
X145582967Y-90213408D01*
X145856965Y-90529239D01*
X146096004Y-90870724D01*
X146298328Y-91234148D01*
X146462185Y-91615794D01*
X146585818Y-92011948D01*
X146667473Y-92418893D01*
X146705395Y-92832914D01*
X147723626Y-92832914D01*
X147723405Y-92774191D01*
X147715987Y-92554839D01*
X147701819Y-92363127D01*
X147692163Y-92281838D01*
X147599445Y-91787729D01*
X147461727Y-91314953D01*
X147279072Y-90863637D01*
X147051543Y-90433907D01*
X146779203Y-90025888D01*
X146462115Y-89639707D01*
X146272126Y-89440117D01*
X145901843Y-89101607D01*
X145513902Y-88809099D01*
X145105992Y-88561217D01*
X144675802Y-88356583D01*
X144221023Y-88193821D01*
X144142608Y-88170649D01*
X143952425Y-88118001D01*
X143784974Y-88076913D01*
X143629321Y-88046021D01*
X143474533Y-88023960D01*
X143309674Y-88009363D01*
X143123810Y-88000867D01*
X142906007Y-87997107D01*
X142748000Y-87996555D01*
X142505778Y-87998019D01*
X142505778Y-87998019D01*
G37*
X142505778Y-87998019D02*
X142302380Y-88003290D01*
X142126889Y-88013689D01*
X141968386Y-88030537D01*
X141815954Y-88055155D01*
X141658676Y-88088863D01*
X141485634Y-88132983D01*
X141380348Y-88162007D01*
X140922128Y-88314575D01*
X140488885Y-88508466D01*
X140078060Y-88745196D01*
X139687098Y-89026282D01*
X139313438Y-89353240D01*
X139224381Y-89440372D01*
X138899942Y-89792249D01*
X138621024Y-90155363D01*
X138383622Y-90535700D01*
X138183732Y-90939245D01*
X138120896Y-91089568D01*
X137977768Y-91491884D01*
X137873559Y-91888607D01*
X137805885Y-92292400D01*
X137772358Y-92715928D01*
X137767608Y-92964000D01*
X137788630Y-93456885D01*
X137852532Y-93928694D01*
X137960563Y-94383321D01*
X138113976Y-94824663D01*
X138314022Y-95256614D01*
X138561953Y-95683070D01*
X138713746Y-95908972D01*
X138816379Y-96042468D01*
X138949337Y-96196761D01*
X139103288Y-96362519D01*
X139268900Y-96530409D01*
X139436842Y-96691100D01*
X139597780Y-96835260D01*
X139742384Y-96953556D01*
X139803028Y-96998254D01*
X140235765Y-97275654D01*
X140676381Y-97504463D01*
X141127076Y-97685572D01*
X141590049Y-97819869D01*
X142047056Y-97905433D01*
X142215130Y-97922930D01*
X142417504Y-97934611D01*
X142640369Y-97940482D01*
X142869919Y-97940552D01*
X143092346Y-97934827D01*
X143293841Y-97923315D01*
X143460598Y-97906024D01*
X143470157Y-97904663D01*
X143951896Y-97810177D01*
X144415963Y-97670612D01*
X144859958Y-97488293D01*
X145281486Y-97265546D01*
X145678147Y-97004695D01*
X146047544Y-96708066D01*
X146387280Y-96377984D01*
X146694955Y-96016773D01*
X146862279Y-95777921D01*
X145521436Y-95777921D01*
X145448297Y-95855188D01*
X145359576Y-95937909D01*
X145237457Y-96036430D01*
X145092584Y-96143298D01*
X144935602Y-96251060D01*
X144777155Y-96352264D01*
X144627887Y-96439457D01*
X144568765Y-96470997D01*
X144152059Y-96658477D01*
X143723396Y-96797815D01*
X143280573Y-96889710D01*
X143221138Y-96898307D01*
X143083716Y-96910329D01*
X142910835Y-96915108D01*
X142716222Y-96913199D01*
X142513607Y-96905158D01*
X142316720Y-96891541D01*
X142139290Y-96872902D01*
X141995045Y-96849797D01*
X141988491Y-96848438D01*
X141559553Y-96734247D01*
X141146036Y-96576527D01*
X140929021Y-96472547D01*
X140786384Y-96393157D01*
X140630207Y-96296734D01*
X140471074Y-96190692D01*
X140319567Y-96082445D01*
X140186271Y-95979406D01*
X140081768Y-95888989D01*
X140047704Y-95855188D01*
X139974565Y-95777921D01*
X145521436Y-95777921D01*
X146862279Y-95777921D01*
X146968174Y-95626758D01*
X147204537Y-95210266D01*
X147401646Y-94769620D01*
X147557105Y-94307146D01*
X147603142Y-94108921D01*
X146533098Y-94108921D01*
X146523583Y-94150277D01*
X146497792Y-94226483D01*
X146459853Y-94326957D01*
X146413897Y-94441120D01*
X146364054Y-94558390D01*
X146316620Y-94663558D01*
X146226421Y-94856549D01*
X141399232Y-94856549D01*
X141447927Y-94775617D01*
X141478402Y-94724463D01*
X141527831Y-94640928D01*
X141589971Y-94535587D01*
X141658575Y-94419017D01*
X141675842Y-94389637D01*
X141855061Y-94084588D01*
X144194080Y-94084588D01*
X144624948Y-94084845D01*
X145014579Y-94085611D01*
X145362022Y-94086875D01*
X145666329Y-94088627D01*
X145926549Y-94090858D01*
X146141731Y-94093558D01*
X146310927Y-94096717D01*
X146433186Y-94100324D01*
X146507557Y-94104370D01*
X146533092Y-94108846D01*
X146533098Y-94108921D01*
X147603142Y-94108921D01*
X147666628Y-93835568D01*
X147689794Y-93670867D01*
X147707266Y-93469522D01*
X147718833Y-93244390D01*
X147724283Y-93008327D01*
X147723626Y-92832914D01*
X146705395Y-92832914D01*
X146697831Y-93250295D01*
X146643024Y-93667319D01*
X146616667Y-93793745D01*
X146595991Y-93875232D01*
X146577568Y-93931119D01*
X146565106Y-93950329D01*
X146564380Y-93949856D01*
X146550356Y-93926887D01*
X146513066Y-93863536D01*
X146454113Y-93762572D01*
X146375102Y-93626764D01*
X146277636Y-93458880D01*
X146163320Y-93261688D01*
X146107233Y-93164837D01*
X145059732Y-93164837D01*
X145038965Y-93173159D01*
X144973926Y-93179930D01*
X144870130Y-93184849D01*
X144733092Y-93187616D01*
X144633223Y-93188117D01*
X143126284Y-93188117D01*
X142369717Y-93188117D01*
X142450218Y-93044931D01*
X142544893Y-92877004D01*
X142618064Y-92748414D01*
X142672262Y-92654876D01*
X142710020Y-92592108D01*
X142733870Y-92555827D01*
X142746343Y-92541748D01*
X142748000Y-92541195D01*
X142757992Y-92550326D01*
X142778719Y-92580574D01*
X142812711Y-92636222D01*
X142862502Y-92721553D01*
X142930623Y-92840852D01*
X143019607Y-92998401D01*
X143045783Y-93044931D01*
X143126284Y-93188117D01*
X144633223Y-93188117D01*
X144470995Y-93187442D01*
X144351632Y-93185037D01*
X144268211Y-93180336D01*
X144213805Y-93172772D01*
X144181491Y-93161779D01*
X144166734Y-93149947D01*
X144149914Y-93123238D01*
X144110022Y-93056455D01*
X144048850Y-92952678D01*
X143968189Y-92814986D01*
X143869832Y-92646458D01*
X143755571Y-92450174D01*
X143627198Y-92229212D01*
X143486505Y-91986652D01*
X143335286Y-91725574D01*
X143274444Y-91620394D01*
X142200157Y-91620394D01*
X142187966Y-91645764D01*
X142152545Y-91711188D01*
X142095626Y-91813625D01*
X142018940Y-91950032D01*
X141924219Y-92117366D01*
X141813193Y-92312584D01*
X141687593Y-92532645D01*
X141549152Y-92774504D01*
X141399599Y-93035120D01*
X141240667Y-93311451D01*
X141074085Y-93600452D01*
X141037572Y-93663717D01*
X140841310Y-94003633D01*
X140668367Y-94302915D01*
X140517198Y-94564081D01*
X140386256Y-94789651D01*
X140273992Y-94982142D01*
X140178862Y-95144073D01*
X140099317Y-95277961D01*
X140033811Y-95386326D01*
X139980797Y-95471684D01*
X139938729Y-95536555D01*
X139906058Y-95583457D01*
X139881239Y-95614907D01*
X139862724Y-95633424D01*
X139848966Y-95641527D01*
X139838420Y-95641733D01*
X139829537Y-95636560D01*
X139827027Y-95634392D01*
X139792895Y-95597145D01*
X139737757Y-95529907D01*
X139669875Y-95442980D01*
X139612581Y-95367039D01*
X139541115Y-95269807D01*
X139477493Y-95181382D01*
X139429669Y-95112927D01*
X139408504Y-95080666D01*
X139402821Y-95069295D01*
X139400009Y-95055447D01*
X139401487Y-95036508D01*
X139408676Y-95009862D01*
X139422995Y-94972895D01*
X139445864Y-94922990D01*
X139478703Y-94857534D01*
X139522932Y-94773911D01*
X139579972Y-94669505D01*
X139651241Y-94541703D01*
X139738159Y-94387888D01*
X139842148Y-94205445D01*
X139964625Y-93991760D01*
X140107012Y-93744217D01*
X140270728Y-93460202D01*
X140457194Y-93137098D01*
X140567643Y-92945797D01*
X140738174Y-92650733D01*
X140901775Y-92368199D01*
X141056720Y-92101147D01*
X141201286Y-91852524D01*
X141333745Y-91625280D01*
X141452374Y-91422364D01*
X141555446Y-91246725D01*
X141641237Y-91101313D01*
X141708021Y-90989076D01*
X141754073Y-90912964D01*
X141777667Y-90875926D01*
X141780401Y-90872709D01*
X141797690Y-90893062D01*
X141833468Y-90948708D01*
X141882856Y-91030957D01*
X141940975Y-91131120D01*
X142002947Y-91240508D01*
X142063894Y-91350430D01*
X142118938Y-91452198D01*
X142163200Y-91537122D01*
X142191802Y-91596513D01*
X142200157Y-91620394D01*
X143274444Y-91620394D01*
X143175330Y-91449055D01*
X143008432Y-91160177D01*
X142981971Y-91114343D01*
X142785022Y-90772995D01*
X142611724Y-90472170D01*
X142460692Y-90209339D01*
X142330538Y-89981974D01*
X142219874Y-89787546D01*
X142127314Y-89623526D01*
X142051470Y-89487386D01*
X141990955Y-89376597D01*
X141944383Y-89288630D01*
X141910365Y-89220956D01*
X141887514Y-89171047D01*
X141874445Y-89136374D01*
X141874089Y-89134702D01*
X141721263Y-89134702D01*
X141517235Y-89486753D01*
X141474930Y-89559819D01*
X141409828Y-89672350D01*
X141324048Y-89820682D01*
X141219704Y-90001155D01*
X141098915Y-90210106D01*
X140963795Y-90443875D01*
X140816462Y-90698799D01*
X140659032Y-90971216D01*
X140493622Y-91257465D01*
X140322348Y-91553884D01*
X140147326Y-91856812D01*
X140121515Y-91901489D01*
X139901953Y-92280845D01*
X139703250Y-92622752D01*
X139525795Y-92926554D01*
X139369981Y-93191595D01*
X139236199Y-93417218D01*
X139124841Y-93602767D01*
X139036298Y-93747586D01*
X138970962Y-93851018D01*
X138929224Y-93912407D01*
X138911476Y-93931097D01*
X138911095Y-93930712D01*
X138897920Y-93892031D01*
X138879075Y-93818012D01*
X138857931Y-93722294D01*
X138850548Y-93685870D01*
X138825484Y-93520960D01*
X138807151Y-93322486D01*
X138796055Y-93106297D01*
X138792703Y-92888242D01*
X138797604Y-92684171D01*
X138811263Y-92509932D01*
X138812587Y-92499043D01*
X138891859Y-92062138D01*
X139017164Y-91641292D01*
X139186461Y-91239551D01*
X139397712Y-90859964D01*
X139648874Y-90505577D01*
X139937907Y-90179437D01*
X140262770Y-89884592D01*
X140621424Y-89624088D01*
X140817805Y-89504800D01*
X140954213Y-89432809D01*
X141115149Y-89356819D01*
X141285047Y-89283449D01*
X141448339Y-89219318D01*
X141589459Y-89171047D01*
X141630759Y-89159117D01*
X141721263Y-89134702D01*
X141874089Y-89134702D01*
X141869768Y-89114408D01*
X141872098Y-89102621D01*
X141876571Y-89099271D01*
X141931001Y-89085370D01*
X142021682Y-89068488D01*
X142135296Y-89050487D01*
X142258525Y-89033233D01*
X142378052Y-89018589D01*
X142480561Y-89008419D01*
X142552732Y-89004588D01*
X142662866Y-89004588D01*
X143857149Y-91073073D01*
X144027544Y-91368286D01*
X144190847Y-91651389D01*
X144345337Y-91919389D01*
X144489294Y-92169295D01*
X144621000Y-92398115D01*
X144738734Y-92602859D01*
X144840776Y-92780535D01*
X144925407Y-92928151D01*
X144990906Y-93042717D01*
X145035555Y-93121240D01*
X145057633Y-93160730D01*
X145059732Y-93164837D01*
X146107233Y-93164837D01*
X146033756Y-93037958D01*
X145890550Y-92790457D01*
X145735304Y-92521954D01*
X145569622Y-92235218D01*
X145395110Y-91933016D01*
X145213369Y-91618118D01*
X145174812Y-91551287D01*
X144992212Y-91234432D01*
X144817036Y-90929788D01*
X144650845Y-90640109D01*
X144495203Y-90368149D01*
X144351672Y-90116660D01*
X144221815Y-89888397D01*
X144107195Y-89686112D01*
X144009374Y-89512559D01*
X143929916Y-89370491D01*
X143870382Y-89262661D01*
X143832336Y-89191823D01*
X143817341Y-89160730D01*
X143817287Y-89159498D01*
X143855326Y-89163165D01*
X143929535Y-89184772D01*
X144031122Y-89220838D01*
X144151295Y-89267883D01*
X144281263Y-89322426D01*
X144412233Y-89380987D01*
X144535414Y-89440085D01*
X144568765Y-89457002D01*
X144937112Y-89673574D01*
X145275764Y-89926948D01*
X145582967Y-90213408D01*
X145856965Y-90529239D01*
X146096004Y-90870724D01*
X146298328Y-91234148D01*
X146462185Y-91615794D01*
X146585818Y-92011948D01*
X146667473Y-92418893D01*
X146705395Y-92832914D01*
X147723626Y-92832914D01*
X147723405Y-92774191D01*
X147715987Y-92554839D01*
X147701819Y-92363127D01*
X147692163Y-92281838D01*
X147599445Y-91787729D01*
X147461727Y-91314953D01*
X147279072Y-90863637D01*
X147051543Y-90433907D01*
X146779203Y-90025888D01*
X146462115Y-89639707D01*
X146272126Y-89440117D01*
X145901843Y-89101607D01*
X145513902Y-88809099D01*
X145105992Y-88561217D01*
X144675802Y-88356583D01*
X144221023Y-88193821D01*
X144142608Y-88170649D01*
X143952425Y-88118001D01*
X143784974Y-88076913D01*
X143629321Y-88046021D01*
X143474533Y-88023960D01*
X143309674Y-88009363D01*
X143123810Y-88000867D01*
X142906007Y-87997107D01*
X142748000Y-87996555D01*
X142505778Y-87998019D01*
D11*
X165100000Y-101270000D02*
X165100000Y-100000000D01*
X163830000Y-101270000D02*
X165100000Y-101270000D01*
X160910000Y-98957071D02*
X160910000Y-98560000D01*
X161670000Y-98957071D02*
X161670000Y-98560000D01*
X160910000Y-89900000D02*
X160910000Y-95900000D01*
X161670000Y-89900000D02*
X160910000Y-89900000D01*
X161670000Y-95900000D02*
X161670000Y-89900000D01*
X162560000Y-98560000D02*
X162560000Y-95900000D01*
X163450000Y-98890000D02*
X163450000Y-98560000D01*
X164210000Y-98890000D02*
X164210000Y-98560000D01*
X163550000Y-95900000D02*
X163550000Y-89900000D01*
X163670000Y-95900000D02*
X163670000Y-89900000D01*
X163790000Y-95900000D02*
X163790000Y-89900000D01*
X163910000Y-95900000D02*
X163910000Y-89900000D01*
X164030000Y-95900000D02*
X164030000Y-89900000D01*
X164150000Y-95900000D02*
X164150000Y-89900000D01*
X163450000Y-89900000D02*
X163450000Y-95900000D01*
X164210000Y-89900000D02*
X163450000Y-89900000D01*
X164210000Y-95900000D02*
X164210000Y-89900000D01*
X165160000Y-95900000D02*
X165160000Y-98560000D01*
X159960000Y-95900000D02*
X165160000Y-95900000D01*
X159960000Y-98560000D02*
X159960000Y-95900000D01*
X165160000Y-98560000D02*
X159960000Y-98560000D01*
X117240000Y-71846000D02*
X117240000Y-77856000D01*
X124060000Y-74096000D02*
X124060000Y-77856000D01*
X117240000Y-77856000D02*
X118500000Y-77856000D01*
X124060000Y-77856000D02*
X122800000Y-77856000D01*
X129162564Y-118258000D02*
X127958436Y-118258000D01*
X129162564Y-116438000D02*
X127958436Y-116438000D01*
X123247564Y-118258000D02*
X122043436Y-118258000D01*
X123247564Y-116438000D02*
X122043436Y-116438000D01*
X119764564Y-69744000D02*
X118560436Y-69744000D01*
X119764564Y-67924000D02*
X118560436Y-67924000D01*
X122050564Y-66188000D02*
X120846436Y-66188000D01*
X122050564Y-64368000D02*
X120846436Y-64368000D01*
D12*
X166060000Y-102992380D02*
X166060000Y-101992380D01*
X165726666Y-102706666D01*
X165393333Y-101992380D01*
X165393333Y-102992380D01*
X164726666Y-101992380D02*
X164536190Y-101992380D01*
X164440952Y-102040000D01*
X164345714Y-102135238D01*
X164298095Y-102325714D01*
X164298095Y-102659047D01*
X164345714Y-102849523D01*
X164440952Y-102944761D01*
X164536190Y-102992380D01*
X164726666Y-102992380D01*
X164821904Y-102944761D01*
X164917142Y-102849523D01*
X164964761Y-102659047D01*
X164964761Y-102325714D01*
X164917142Y-102135238D01*
X164821904Y-102040000D01*
X164726666Y-101992380D01*
X163869523Y-102992380D02*
X163869523Y-101992380D01*
X163631428Y-101992380D01*
X163488571Y-102040000D01*
X163393333Y-102135238D01*
X163345714Y-102230476D01*
X163298095Y-102420952D01*
X163298095Y-102563809D01*
X163345714Y-102754285D01*
X163393333Y-102849523D01*
X163488571Y-102944761D01*
X163631428Y-102992380D01*
X163869523Y-102992380D01*
X162869523Y-102468571D02*
X162536190Y-102468571D01*
X162393333Y-102992380D02*
X162869523Y-102992380D01*
X162869523Y-101992380D01*
X162393333Y-101992380D01*
X162202857Y-103087619D02*
X161440952Y-103087619D01*
X161202857Y-102468571D02*
X160869523Y-102468571D01*
X160726666Y-102992380D02*
X161202857Y-102992380D01*
X161202857Y-101992380D01*
X160726666Y-101992380D01*
X160393333Y-101992380D02*
X159726666Y-102992380D01*
X159726666Y-101992380D02*
X160393333Y-102992380D01*
X159488571Y-101992380D02*
X158917142Y-101992380D01*
X159202857Y-102992380D02*
X159202857Y-101992380D01*
X123959523Y-80478380D02*
X123340476Y-80478380D01*
X123673809Y-80859333D01*
X123530952Y-80859333D01*
X123435714Y-80906952D01*
X123388095Y-80954571D01*
X123340476Y-81049809D01*
X123340476Y-81287904D01*
X123388095Y-81383142D01*
X123435714Y-81430761D01*
X123530952Y-81478380D01*
X123816666Y-81478380D01*
X123911904Y-81430761D01*
X123959523Y-81383142D01*
X122911904Y-81383142D02*
X122864285Y-81430761D01*
X122911904Y-81478380D01*
X122959523Y-81430761D01*
X122911904Y-81383142D01*
X122911904Y-81478380D01*
X122530952Y-80478380D02*
X121911904Y-80478380D01*
X122245238Y-80859333D01*
X122102380Y-80859333D01*
X122007142Y-80906952D01*
X121959523Y-80954571D01*
X121911904Y-81049809D01*
X121911904Y-81287904D01*
X121959523Y-81383142D01*
X122007142Y-81430761D01*
X122102380Y-81478380D01*
X122388095Y-81478380D01*
X122483333Y-81430761D01*
X122530952Y-81383142D01*
X121626190Y-80478380D02*
X121292857Y-81478380D01*
X120959523Y-80478380D01*
X120864285Y-81573619D02*
X120102380Y-81573619D01*
X119292857Y-81478380D02*
X119626190Y-81002190D01*
X119864285Y-81478380D02*
X119864285Y-80478380D01*
X119483333Y-80478380D01*
X119388095Y-80526000D01*
X119340476Y-80573619D01*
X119292857Y-80668857D01*
X119292857Y-80811714D01*
X119340476Y-80906952D01*
X119388095Y-80954571D01*
X119483333Y-81002190D01*
X119864285Y-81002190D01*
X118864285Y-80954571D02*
X118530952Y-80954571D01*
X118388095Y-81478380D02*
X118864285Y-81478380D01*
X118864285Y-80478380D01*
X118388095Y-80478380D01*
X117435714Y-80526000D02*
X117530952Y-80478380D01*
X117673809Y-80478380D01*
X117816666Y-80526000D01*
X117911904Y-80621238D01*
X117959523Y-80716476D01*
X118007142Y-80906952D01*
X118007142Y-81049809D01*
X117959523Y-81240285D01*
X117911904Y-81335523D01*
X117816666Y-81430761D01*
X117673809Y-81478380D01*
X117578571Y-81478380D01*
X117435714Y-81430761D01*
X117388095Y-81383142D01*
X117388095Y-81049809D01*
X117578571Y-81049809D01*
X129727166Y-118715619D02*
X129679547Y-118668000D01*
X129584309Y-118620380D01*
X129346214Y-118620380D01*
X129250976Y-118668000D01*
X129203357Y-118715619D01*
X129155738Y-118810857D01*
X129155738Y-118906095D01*
X129203357Y-119048952D01*
X129774785Y-119620380D01*
X129155738Y-119620380D01*
X128774785Y-118715619D02*
X128727166Y-118668000D01*
X128631928Y-118620380D01*
X128393833Y-118620380D01*
X128298595Y-118668000D01*
X128250976Y-118715619D01*
X128203357Y-118810857D01*
X128203357Y-118906095D01*
X128250976Y-119048952D01*
X128822404Y-119620380D01*
X128203357Y-119620380D01*
X127774785Y-119620380D02*
X127774785Y-118620380D01*
X127679547Y-119239428D02*
X127393833Y-119620380D01*
X127393833Y-118953714D02*
X127774785Y-119334666D01*
X123240738Y-119620380D02*
X123812166Y-119620380D01*
X123526452Y-119620380D02*
X123526452Y-118620380D01*
X123621690Y-118763238D01*
X123716928Y-118858476D01*
X123812166Y-118906095D01*
X122621690Y-118620380D02*
X122526452Y-118620380D01*
X122431214Y-118668000D01*
X122383595Y-118715619D01*
X122335976Y-118810857D01*
X122288357Y-119001333D01*
X122288357Y-119239428D01*
X122335976Y-119429904D01*
X122383595Y-119525142D01*
X122431214Y-119572761D01*
X122526452Y-119620380D01*
X122621690Y-119620380D01*
X122716928Y-119572761D01*
X122764547Y-119525142D01*
X122812166Y-119429904D01*
X122859785Y-119239428D01*
X122859785Y-119001333D01*
X122812166Y-118810857D01*
X122764547Y-118715619D01*
X122716928Y-118668000D01*
X122621690Y-118620380D01*
X121859785Y-119620380D02*
X121859785Y-118620380D01*
X121764547Y-119239428D02*
X121478833Y-119620380D01*
X121478833Y-118953714D02*
X121859785Y-119334666D01*
X120233928Y-71106380D02*
X120805357Y-71106380D01*
X120519642Y-71106380D02*
X120519642Y-70106380D01*
X120614880Y-70249238D01*
X120710119Y-70344476D01*
X120805357Y-70392095D01*
X119614880Y-70106380D02*
X119519642Y-70106380D01*
X119424404Y-70154000D01*
X119376785Y-70201619D01*
X119329166Y-70296857D01*
X119281547Y-70487333D01*
X119281547Y-70725428D01*
X119329166Y-70915904D01*
X119376785Y-71011142D01*
X119424404Y-71058761D01*
X119519642Y-71106380D01*
X119614880Y-71106380D01*
X119710119Y-71058761D01*
X119757738Y-71011142D01*
X119805357Y-70915904D01*
X119852976Y-70725428D01*
X119852976Y-70487333D01*
X119805357Y-70296857D01*
X119757738Y-70201619D01*
X119710119Y-70154000D01*
X119614880Y-70106380D01*
X118424404Y-70439714D02*
X118424404Y-71106380D01*
X118852976Y-70439714D02*
X118852976Y-70963523D01*
X118805357Y-71058761D01*
X118710119Y-71106380D01*
X118567261Y-71106380D01*
X118472023Y-71058761D01*
X118424404Y-71011142D01*
X117614880Y-70582571D02*
X117948214Y-70582571D01*
X117948214Y-71106380D02*
X117948214Y-70106380D01*
X117472023Y-70106380D01*
X122519928Y-67550380D02*
X123091357Y-67550380D01*
X122805642Y-67550380D02*
X122805642Y-66550380D01*
X122900880Y-66693238D01*
X122996119Y-66788476D01*
X123091357Y-66836095D01*
X121900880Y-66550380D02*
X121805642Y-66550380D01*
X121710404Y-66598000D01*
X121662785Y-66645619D01*
X121615166Y-66740857D01*
X121567547Y-66931333D01*
X121567547Y-67169428D01*
X121615166Y-67359904D01*
X121662785Y-67455142D01*
X121710404Y-67502761D01*
X121805642Y-67550380D01*
X121900880Y-67550380D01*
X121996119Y-67502761D01*
X122043738Y-67455142D01*
X122091357Y-67359904D01*
X122138976Y-67169428D01*
X122138976Y-66931333D01*
X122091357Y-66740857D01*
X122043738Y-66645619D01*
X121996119Y-66598000D01*
X121900880Y-66550380D01*
X120710404Y-66883714D02*
X120710404Y-67550380D01*
X121138976Y-66883714D02*
X121138976Y-67407523D01*
X121091357Y-67502761D01*
X120996119Y-67550380D01*
X120853261Y-67550380D01*
X120758023Y-67502761D01*
X120710404Y-67455142D01*
X119900880Y-67026571D02*
X120234214Y-67026571D01*
X120234214Y-67550380D02*
X120234214Y-66550380D01*
X119758023Y-66550380D01*
M02*
