G04 #@! TF.GenerationSoftware,KiCad,Pcbnew,5.1.4+dfsg1-1*
G04 #@! TF.CreationDate,2020-04-18T12:41:44+10:00*
G04 #@! TF.ProjectId,temp0_schematic,74656d70-305f-4736-9368-656d61746963,rev?*
G04 #@! TF.SameCoordinates,Original*
G04 #@! TF.FileFunction,Soldermask,Bot*
G04 #@! TF.FilePolarity,Negative*
%FSLAX46Y46*%
G04 Gerber Fmt 4.6, Leading zero omitted, Abs format (unit mm)*
G04 Created by KiCad (PCBNEW 5.1.4+dfsg1-1) date 2020-04-18 12:41:44*
%MOMM*%
%LPD*%
G04 APERTURE LIST*
%ADD10C,0.100000*%
G04 APERTURE END LIST*
D10*
G36*
X150347142Y-131688242D02*
G01*
X150495101Y-131749529D01*
X150628255Y-131838499D01*
X150741501Y-131951745D01*
X150830471Y-132084899D01*
X150891758Y-132232858D01*
X150923000Y-132389925D01*
X150923000Y-132550075D01*
X150891758Y-132707142D01*
X150830471Y-132855101D01*
X150741501Y-132988255D01*
X150628255Y-133101501D01*
X150495101Y-133190471D01*
X150347142Y-133251758D01*
X150190075Y-133283000D01*
X150029925Y-133283000D01*
X149872858Y-133251758D01*
X149724899Y-133190471D01*
X149591745Y-133101501D01*
X149478499Y-132988255D01*
X149389529Y-132855101D01*
X149328242Y-132707142D01*
X149297000Y-132550075D01*
X149297000Y-132389925D01*
X149328242Y-132232858D01*
X149389529Y-132084899D01*
X149478499Y-131951745D01*
X149591745Y-131838499D01*
X149724899Y-131749529D01*
X149872858Y-131688242D01*
X150029925Y-131657000D01*
X150190075Y-131657000D01*
X150347142Y-131688242D01*
X150347142Y-131688242D01*
G37*
G36*
X135107142Y-131688242D02*
G01*
X135255101Y-131749529D01*
X135388255Y-131838499D01*
X135501501Y-131951745D01*
X135590471Y-132084899D01*
X135651758Y-132232858D01*
X135683000Y-132389925D01*
X135683000Y-132550075D01*
X135651758Y-132707142D01*
X135590471Y-132855101D01*
X135501501Y-132988255D01*
X135388255Y-133101501D01*
X135255101Y-133190471D01*
X135107142Y-133251758D01*
X134950075Y-133283000D01*
X134789925Y-133283000D01*
X134632858Y-133251758D01*
X134484899Y-133190471D01*
X134351745Y-133101501D01*
X134238499Y-132988255D01*
X134149529Y-132855101D01*
X134088242Y-132707142D01*
X134057000Y-132550075D01*
X134057000Y-132389925D01*
X134088242Y-132232858D01*
X134149529Y-132084899D01*
X134238499Y-131951745D01*
X134351745Y-131838499D01*
X134484899Y-131749529D01*
X134632858Y-131688242D01*
X134789925Y-131657000D01*
X134950075Y-131657000D01*
X135107142Y-131688242D01*
X135107142Y-131688242D01*
G37*
G36*
X135107142Y-129148242D02*
G01*
X135255101Y-129209529D01*
X135388255Y-129298499D01*
X135501501Y-129411745D01*
X135590471Y-129544899D01*
X135651758Y-129692858D01*
X135683000Y-129849925D01*
X135683000Y-130010075D01*
X135651758Y-130167142D01*
X135590471Y-130315101D01*
X135501501Y-130448255D01*
X135388255Y-130561501D01*
X135255101Y-130650471D01*
X135107142Y-130711758D01*
X134950075Y-130743000D01*
X134789925Y-130743000D01*
X134632858Y-130711758D01*
X134484899Y-130650471D01*
X134351745Y-130561501D01*
X134238499Y-130448255D01*
X134149529Y-130315101D01*
X134088242Y-130167142D01*
X134057000Y-130010075D01*
X134057000Y-129849925D01*
X134088242Y-129692858D01*
X134149529Y-129544899D01*
X134238499Y-129411745D01*
X134351745Y-129298499D01*
X134484899Y-129209529D01*
X134632858Y-129148242D01*
X134789925Y-129117000D01*
X134950075Y-129117000D01*
X135107142Y-129148242D01*
X135107142Y-129148242D01*
G37*
G36*
X150347142Y-129148242D02*
G01*
X150495101Y-129209529D01*
X150628255Y-129298499D01*
X150741501Y-129411745D01*
X150830471Y-129544899D01*
X150891758Y-129692858D01*
X150923000Y-129849925D01*
X150923000Y-130010075D01*
X150891758Y-130167142D01*
X150830471Y-130315101D01*
X150741501Y-130448255D01*
X150628255Y-130561501D01*
X150495101Y-130650471D01*
X150347142Y-130711758D01*
X150190075Y-130743000D01*
X150029925Y-130743000D01*
X149872858Y-130711758D01*
X149724899Y-130650471D01*
X149591745Y-130561501D01*
X149478499Y-130448255D01*
X149389529Y-130315101D01*
X149328242Y-130167142D01*
X149297000Y-130010075D01*
X149297000Y-129849925D01*
X149328242Y-129692858D01*
X149389529Y-129544899D01*
X149478499Y-129411745D01*
X149591745Y-129298499D01*
X149724899Y-129209529D01*
X149872858Y-129148242D01*
X150029925Y-129117000D01*
X150190075Y-129117000D01*
X150347142Y-129148242D01*
X150347142Y-129148242D01*
G37*
G36*
X150347142Y-126608242D02*
G01*
X150495101Y-126669529D01*
X150628255Y-126758499D01*
X150741501Y-126871745D01*
X150830471Y-127004899D01*
X150891758Y-127152858D01*
X150923000Y-127309925D01*
X150923000Y-127470075D01*
X150891758Y-127627142D01*
X150830471Y-127775101D01*
X150741501Y-127908255D01*
X150628255Y-128021501D01*
X150495101Y-128110471D01*
X150347142Y-128171758D01*
X150190075Y-128203000D01*
X150029925Y-128203000D01*
X149872858Y-128171758D01*
X149724899Y-128110471D01*
X149591745Y-128021501D01*
X149478499Y-127908255D01*
X149389529Y-127775101D01*
X149328242Y-127627142D01*
X149297000Y-127470075D01*
X149297000Y-127309925D01*
X149328242Y-127152858D01*
X149389529Y-127004899D01*
X149478499Y-126871745D01*
X149591745Y-126758499D01*
X149724899Y-126669529D01*
X149872858Y-126608242D01*
X150029925Y-126577000D01*
X150190075Y-126577000D01*
X150347142Y-126608242D01*
X150347142Y-126608242D01*
G37*
G36*
X135107142Y-126608242D02*
G01*
X135255101Y-126669529D01*
X135388255Y-126758499D01*
X135501501Y-126871745D01*
X135590471Y-127004899D01*
X135651758Y-127152858D01*
X135683000Y-127309925D01*
X135683000Y-127470075D01*
X135651758Y-127627142D01*
X135590471Y-127775101D01*
X135501501Y-127908255D01*
X135388255Y-128021501D01*
X135255101Y-128110471D01*
X135107142Y-128171758D01*
X134950075Y-128203000D01*
X134789925Y-128203000D01*
X134632858Y-128171758D01*
X134484899Y-128110471D01*
X134351745Y-128021501D01*
X134238499Y-127908255D01*
X134149529Y-127775101D01*
X134088242Y-127627142D01*
X134057000Y-127470075D01*
X134057000Y-127309925D01*
X134088242Y-127152858D01*
X134149529Y-127004899D01*
X134238499Y-126871745D01*
X134351745Y-126758499D01*
X134484899Y-126669529D01*
X134632858Y-126608242D01*
X134789925Y-126577000D01*
X134950075Y-126577000D01*
X135107142Y-126608242D01*
X135107142Y-126608242D01*
G37*
G36*
X126094142Y-124186242D02*
G01*
X126242101Y-124247529D01*
X126375255Y-124336499D01*
X126488501Y-124449745D01*
X126577471Y-124582899D01*
X126638758Y-124730858D01*
X126670000Y-124887925D01*
X126670000Y-125048075D01*
X126638758Y-125205142D01*
X126577471Y-125353101D01*
X126488501Y-125486255D01*
X126375255Y-125599501D01*
X126242101Y-125688471D01*
X126094142Y-125749758D01*
X125937075Y-125781000D01*
X125776925Y-125781000D01*
X125619858Y-125749758D01*
X125471899Y-125688471D01*
X125338745Y-125599501D01*
X125225499Y-125486255D01*
X125136529Y-125353101D01*
X125075242Y-125205142D01*
X125044000Y-125048075D01*
X125044000Y-124887925D01*
X125075242Y-124730858D01*
X125136529Y-124582899D01*
X125225499Y-124449745D01*
X125338745Y-124336499D01*
X125471899Y-124247529D01*
X125619858Y-124186242D01*
X125776925Y-124155000D01*
X125937075Y-124155000D01*
X126094142Y-124186242D01*
X126094142Y-124186242D01*
G37*
G36*
X123554142Y-124186242D02*
G01*
X123702101Y-124247529D01*
X123835255Y-124336499D01*
X123948501Y-124449745D01*
X124037471Y-124582899D01*
X124098758Y-124730858D01*
X124130000Y-124887925D01*
X124130000Y-125048075D01*
X124098758Y-125205142D01*
X124037471Y-125353101D01*
X123948501Y-125486255D01*
X123835255Y-125599501D01*
X123702101Y-125688471D01*
X123554142Y-125749758D01*
X123397075Y-125781000D01*
X123236925Y-125781000D01*
X123079858Y-125749758D01*
X122931899Y-125688471D01*
X122798745Y-125599501D01*
X122685499Y-125486255D01*
X122596529Y-125353101D01*
X122535242Y-125205142D01*
X122504000Y-125048075D01*
X122504000Y-124887925D01*
X122535242Y-124730858D01*
X122596529Y-124582899D01*
X122685499Y-124449745D01*
X122798745Y-124336499D01*
X122931899Y-124247529D01*
X123079858Y-124186242D01*
X123236925Y-124155000D01*
X123397075Y-124155000D01*
X123554142Y-124186242D01*
X123554142Y-124186242D01*
G37*
G36*
X121014142Y-124186242D02*
G01*
X121162101Y-124247529D01*
X121295255Y-124336499D01*
X121408501Y-124449745D01*
X121497471Y-124582899D01*
X121558758Y-124730858D01*
X121590000Y-124887925D01*
X121590000Y-125048075D01*
X121558758Y-125205142D01*
X121497471Y-125353101D01*
X121408501Y-125486255D01*
X121295255Y-125599501D01*
X121162101Y-125688471D01*
X121014142Y-125749758D01*
X120857075Y-125781000D01*
X120696925Y-125781000D01*
X120539858Y-125749758D01*
X120391899Y-125688471D01*
X120258745Y-125599501D01*
X120145499Y-125486255D01*
X120056529Y-125353101D01*
X119995242Y-125205142D01*
X119964000Y-125048075D01*
X119964000Y-124887925D01*
X119995242Y-124730858D01*
X120056529Y-124582899D01*
X120145499Y-124449745D01*
X120258745Y-124336499D01*
X120391899Y-124247529D01*
X120539858Y-124186242D01*
X120696925Y-124155000D01*
X120857075Y-124155000D01*
X121014142Y-124186242D01*
X121014142Y-124186242D01*
G37*
G36*
X118474142Y-124186242D02*
G01*
X118622101Y-124247529D01*
X118755255Y-124336499D01*
X118868501Y-124449745D01*
X118957471Y-124582899D01*
X119018758Y-124730858D01*
X119050000Y-124887925D01*
X119050000Y-125048075D01*
X119018758Y-125205142D01*
X118957471Y-125353101D01*
X118868501Y-125486255D01*
X118755255Y-125599501D01*
X118622101Y-125688471D01*
X118474142Y-125749758D01*
X118317075Y-125781000D01*
X118156925Y-125781000D01*
X117999858Y-125749758D01*
X117851899Y-125688471D01*
X117718745Y-125599501D01*
X117605499Y-125486255D01*
X117516529Y-125353101D01*
X117455242Y-125205142D01*
X117424000Y-125048075D01*
X117424000Y-124887925D01*
X117455242Y-124730858D01*
X117516529Y-124582899D01*
X117605499Y-124449745D01*
X117718745Y-124336499D01*
X117851899Y-124247529D01*
X117999858Y-124186242D01*
X118156925Y-124155000D01*
X118317075Y-124155000D01*
X118474142Y-124186242D01*
X118474142Y-124186242D01*
G37*
G36*
X150347142Y-124068242D02*
G01*
X150495101Y-124129529D01*
X150628255Y-124218499D01*
X150741501Y-124331745D01*
X150830471Y-124464899D01*
X150891758Y-124612858D01*
X150923000Y-124769925D01*
X150923000Y-124930075D01*
X150891758Y-125087142D01*
X150830471Y-125235101D01*
X150741501Y-125368255D01*
X150628255Y-125481501D01*
X150495101Y-125570471D01*
X150347142Y-125631758D01*
X150190075Y-125663000D01*
X150029925Y-125663000D01*
X149872858Y-125631758D01*
X149724899Y-125570471D01*
X149591745Y-125481501D01*
X149478499Y-125368255D01*
X149389529Y-125235101D01*
X149328242Y-125087142D01*
X149297000Y-124930075D01*
X149297000Y-124769925D01*
X149328242Y-124612858D01*
X149389529Y-124464899D01*
X149478499Y-124331745D01*
X149591745Y-124218499D01*
X149724899Y-124129529D01*
X149872858Y-124068242D01*
X150029925Y-124037000D01*
X150190075Y-124037000D01*
X150347142Y-124068242D01*
X150347142Y-124068242D01*
G37*
G36*
X135107142Y-124068242D02*
G01*
X135255101Y-124129529D01*
X135388255Y-124218499D01*
X135501501Y-124331745D01*
X135590471Y-124464899D01*
X135651758Y-124612858D01*
X135683000Y-124769925D01*
X135683000Y-124930075D01*
X135651758Y-125087142D01*
X135590471Y-125235101D01*
X135501501Y-125368255D01*
X135388255Y-125481501D01*
X135255101Y-125570471D01*
X135107142Y-125631758D01*
X134950075Y-125663000D01*
X134789925Y-125663000D01*
X134632858Y-125631758D01*
X134484899Y-125570471D01*
X134351745Y-125481501D01*
X134238499Y-125368255D01*
X134149529Y-125235101D01*
X134088242Y-125087142D01*
X134057000Y-124930075D01*
X134057000Y-124769925D01*
X134088242Y-124612858D01*
X134149529Y-124464899D01*
X134238499Y-124331745D01*
X134351745Y-124218499D01*
X134484899Y-124129529D01*
X134632858Y-124068242D01*
X134789925Y-124037000D01*
X134950075Y-124037000D01*
X135107142Y-124068242D01*
X135107142Y-124068242D01*
G37*
G36*
X166988142Y-124042242D02*
G01*
X167136101Y-124103529D01*
X167269255Y-124192499D01*
X167382501Y-124305745D01*
X167471471Y-124438899D01*
X167532758Y-124586858D01*
X167564000Y-124743925D01*
X167564000Y-124904075D01*
X167532758Y-125061142D01*
X167471471Y-125209101D01*
X167382501Y-125342255D01*
X167269255Y-125455501D01*
X167136101Y-125544471D01*
X166988142Y-125605758D01*
X166831075Y-125637000D01*
X166670925Y-125637000D01*
X166513858Y-125605758D01*
X166365899Y-125544471D01*
X166232745Y-125455501D01*
X166119499Y-125342255D01*
X166030529Y-125209101D01*
X165969242Y-125061142D01*
X165938000Y-124904075D01*
X165938000Y-124743925D01*
X165969242Y-124586858D01*
X166030529Y-124438899D01*
X166119499Y-124305745D01*
X166232745Y-124192499D01*
X166365899Y-124103529D01*
X166513858Y-124042242D01*
X166670925Y-124011000D01*
X166831075Y-124011000D01*
X166988142Y-124042242D01*
X166988142Y-124042242D01*
G37*
G36*
X161908142Y-124042242D02*
G01*
X162056101Y-124103529D01*
X162189255Y-124192499D01*
X162302501Y-124305745D01*
X162391471Y-124438899D01*
X162452758Y-124586858D01*
X162484000Y-124743925D01*
X162484000Y-124904075D01*
X162452758Y-125061142D01*
X162391471Y-125209101D01*
X162302501Y-125342255D01*
X162189255Y-125455501D01*
X162056101Y-125544471D01*
X161908142Y-125605758D01*
X161751075Y-125637000D01*
X161590925Y-125637000D01*
X161433858Y-125605758D01*
X161285899Y-125544471D01*
X161152745Y-125455501D01*
X161039499Y-125342255D01*
X160950529Y-125209101D01*
X160889242Y-125061142D01*
X160858000Y-124904075D01*
X160858000Y-124743925D01*
X160889242Y-124586858D01*
X160950529Y-124438899D01*
X161039499Y-124305745D01*
X161152745Y-124192499D01*
X161285899Y-124103529D01*
X161433858Y-124042242D01*
X161590925Y-124011000D01*
X161751075Y-124011000D01*
X161908142Y-124042242D01*
X161908142Y-124042242D01*
G37*
G36*
X159368142Y-124042242D02*
G01*
X159516101Y-124103529D01*
X159649255Y-124192499D01*
X159762501Y-124305745D01*
X159851471Y-124438899D01*
X159912758Y-124586858D01*
X159944000Y-124743925D01*
X159944000Y-124904075D01*
X159912758Y-125061142D01*
X159851471Y-125209101D01*
X159762501Y-125342255D01*
X159649255Y-125455501D01*
X159516101Y-125544471D01*
X159368142Y-125605758D01*
X159211075Y-125637000D01*
X159050925Y-125637000D01*
X158893858Y-125605758D01*
X158745899Y-125544471D01*
X158612745Y-125455501D01*
X158499499Y-125342255D01*
X158410529Y-125209101D01*
X158349242Y-125061142D01*
X158318000Y-124904075D01*
X158318000Y-124743925D01*
X158349242Y-124586858D01*
X158410529Y-124438899D01*
X158499499Y-124305745D01*
X158612745Y-124192499D01*
X158745899Y-124103529D01*
X158893858Y-124042242D01*
X159050925Y-124011000D01*
X159211075Y-124011000D01*
X159368142Y-124042242D01*
X159368142Y-124042242D01*
G37*
G36*
X164448142Y-124042242D02*
G01*
X164596101Y-124103529D01*
X164729255Y-124192499D01*
X164842501Y-124305745D01*
X164931471Y-124438899D01*
X164992758Y-124586858D01*
X165024000Y-124743925D01*
X165024000Y-124904075D01*
X164992758Y-125061142D01*
X164931471Y-125209101D01*
X164842501Y-125342255D01*
X164729255Y-125455501D01*
X164596101Y-125544471D01*
X164448142Y-125605758D01*
X164291075Y-125637000D01*
X164130925Y-125637000D01*
X163973858Y-125605758D01*
X163825899Y-125544471D01*
X163692745Y-125455501D01*
X163579499Y-125342255D01*
X163490529Y-125209101D01*
X163429242Y-125061142D01*
X163398000Y-124904075D01*
X163398000Y-124743925D01*
X163429242Y-124586858D01*
X163490529Y-124438899D01*
X163579499Y-124305745D01*
X163692745Y-124192499D01*
X163825899Y-124103529D01*
X163973858Y-124042242D01*
X164130925Y-124011000D01*
X164291075Y-124011000D01*
X164448142Y-124042242D01*
X164448142Y-124042242D01*
G37*
G36*
X118474142Y-121646242D02*
G01*
X118622101Y-121707529D01*
X118755255Y-121796499D01*
X118868501Y-121909745D01*
X118957471Y-122042899D01*
X119018758Y-122190858D01*
X119050000Y-122347925D01*
X119050000Y-122508075D01*
X119018758Y-122665142D01*
X118957471Y-122813101D01*
X118868501Y-122946255D01*
X118755255Y-123059501D01*
X118622101Y-123148471D01*
X118474142Y-123209758D01*
X118317075Y-123241000D01*
X118156925Y-123241000D01*
X117999858Y-123209758D01*
X117851899Y-123148471D01*
X117718745Y-123059501D01*
X117605499Y-122946255D01*
X117516529Y-122813101D01*
X117455242Y-122665142D01*
X117424000Y-122508075D01*
X117424000Y-122347925D01*
X117455242Y-122190858D01*
X117516529Y-122042899D01*
X117605499Y-121909745D01*
X117718745Y-121796499D01*
X117851899Y-121707529D01*
X117999858Y-121646242D01*
X118156925Y-121615000D01*
X118317075Y-121615000D01*
X118474142Y-121646242D01*
X118474142Y-121646242D01*
G37*
G36*
X126094142Y-121646242D02*
G01*
X126242101Y-121707529D01*
X126375255Y-121796499D01*
X126488501Y-121909745D01*
X126577471Y-122042899D01*
X126638758Y-122190858D01*
X126670000Y-122347925D01*
X126670000Y-122508075D01*
X126638758Y-122665142D01*
X126577471Y-122813101D01*
X126488501Y-122946255D01*
X126375255Y-123059501D01*
X126242101Y-123148471D01*
X126094142Y-123209758D01*
X125937075Y-123241000D01*
X125776925Y-123241000D01*
X125619858Y-123209758D01*
X125471899Y-123148471D01*
X125338745Y-123059501D01*
X125225499Y-122946255D01*
X125136529Y-122813101D01*
X125075242Y-122665142D01*
X125044000Y-122508075D01*
X125044000Y-122347925D01*
X125075242Y-122190858D01*
X125136529Y-122042899D01*
X125225499Y-121909745D01*
X125338745Y-121796499D01*
X125471899Y-121707529D01*
X125619858Y-121646242D01*
X125776925Y-121615000D01*
X125937075Y-121615000D01*
X126094142Y-121646242D01*
X126094142Y-121646242D01*
G37*
G36*
X123554142Y-121646242D02*
G01*
X123702101Y-121707529D01*
X123835255Y-121796499D01*
X123948501Y-121909745D01*
X124037471Y-122042899D01*
X124098758Y-122190858D01*
X124130000Y-122347925D01*
X124130000Y-122508075D01*
X124098758Y-122665142D01*
X124037471Y-122813101D01*
X123948501Y-122946255D01*
X123835255Y-123059501D01*
X123702101Y-123148471D01*
X123554142Y-123209758D01*
X123397075Y-123241000D01*
X123236925Y-123241000D01*
X123079858Y-123209758D01*
X122931899Y-123148471D01*
X122798745Y-123059501D01*
X122685499Y-122946255D01*
X122596529Y-122813101D01*
X122535242Y-122665142D01*
X122504000Y-122508075D01*
X122504000Y-122347925D01*
X122535242Y-122190858D01*
X122596529Y-122042899D01*
X122685499Y-121909745D01*
X122798745Y-121796499D01*
X122931899Y-121707529D01*
X123079858Y-121646242D01*
X123236925Y-121615000D01*
X123397075Y-121615000D01*
X123554142Y-121646242D01*
X123554142Y-121646242D01*
G37*
G36*
X121014142Y-121646242D02*
G01*
X121162101Y-121707529D01*
X121295255Y-121796499D01*
X121408501Y-121909745D01*
X121497471Y-122042899D01*
X121558758Y-122190858D01*
X121590000Y-122347925D01*
X121590000Y-122508075D01*
X121558758Y-122665142D01*
X121497471Y-122813101D01*
X121408501Y-122946255D01*
X121295255Y-123059501D01*
X121162101Y-123148471D01*
X121014142Y-123209758D01*
X120857075Y-123241000D01*
X120696925Y-123241000D01*
X120539858Y-123209758D01*
X120391899Y-123148471D01*
X120258745Y-123059501D01*
X120145499Y-122946255D01*
X120056529Y-122813101D01*
X119995242Y-122665142D01*
X119964000Y-122508075D01*
X119964000Y-122347925D01*
X119995242Y-122190858D01*
X120056529Y-122042899D01*
X120145499Y-121909745D01*
X120258745Y-121796499D01*
X120391899Y-121707529D01*
X120539858Y-121646242D01*
X120696925Y-121615000D01*
X120857075Y-121615000D01*
X121014142Y-121646242D01*
X121014142Y-121646242D01*
G37*
G36*
X150347142Y-121528242D02*
G01*
X150495101Y-121589529D01*
X150628255Y-121678499D01*
X150741501Y-121791745D01*
X150830471Y-121924899D01*
X150891758Y-122072858D01*
X150923000Y-122229925D01*
X150923000Y-122390075D01*
X150891758Y-122547142D01*
X150830471Y-122695101D01*
X150741501Y-122828255D01*
X150628255Y-122941501D01*
X150495101Y-123030471D01*
X150347142Y-123091758D01*
X150190075Y-123123000D01*
X150029925Y-123123000D01*
X149872858Y-123091758D01*
X149724899Y-123030471D01*
X149591745Y-122941501D01*
X149478499Y-122828255D01*
X149389529Y-122695101D01*
X149328242Y-122547142D01*
X149297000Y-122390075D01*
X149297000Y-122229925D01*
X149328242Y-122072858D01*
X149389529Y-121924899D01*
X149478499Y-121791745D01*
X149591745Y-121678499D01*
X149724899Y-121589529D01*
X149872858Y-121528242D01*
X150029925Y-121497000D01*
X150190075Y-121497000D01*
X150347142Y-121528242D01*
X150347142Y-121528242D01*
G37*
G36*
X135107142Y-121528242D02*
G01*
X135255101Y-121589529D01*
X135388255Y-121678499D01*
X135501501Y-121791745D01*
X135590471Y-121924899D01*
X135651758Y-122072858D01*
X135683000Y-122229925D01*
X135683000Y-122390075D01*
X135651758Y-122547142D01*
X135590471Y-122695101D01*
X135501501Y-122828255D01*
X135388255Y-122941501D01*
X135255101Y-123030471D01*
X135107142Y-123091758D01*
X134950075Y-123123000D01*
X134789925Y-123123000D01*
X134632858Y-123091758D01*
X134484899Y-123030471D01*
X134351745Y-122941501D01*
X134238499Y-122828255D01*
X134149529Y-122695101D01*
X134088242Y-122547142D01*
X134057000Y-122390075D01*
X134057000Y-122229925D01*
X134088242Y-122072858D01*
X134149529Y-121924899D01*
X134238499Y-121791745D01*
X134351745Y-121678499D01*
X134484899Y-121589529D01*
X134632858Y-121528242D01*
X134789925Y-121497000D01*
X134950075Y-121497000D01*
X135107142Y-121528242D01*
X135107142Y-121528242D01*
G37*
G36*
X150347142Y-118988242D02*
G01*
X150495101Y-119049529D01*
X150628255Y-119138499D01*
X150741501Y-119251745D01*
X150830471Y-119384899D01*
X150891758Y-119532858D01*
X150923000Y-119689925D01*
X150923000Y-119850075D01*
X150891758Y-120007142D01*
X150830471Y-120155101D01*
X150741501Y-120288255D01*
X150628255Y-120401501D01*
X150495101Y-120490471D01*
X150347142Y-120551758D01*
X150190075Y-120583000D01*
X150029925Y-120583000D01*
X149872858Y-120551758D01*
X149724899Y-120490471D01*
X149591745Y-120401501D01*
X149478499Y-120288255D01*
X149389529Y-120155101D01*
X149328242Y-120007142D01*
X149297000Y-119850075D01*
X149297000Y-119689925D01*
X149328242Y-119532858D01*
X149389529Y-119384899D01*
X149478499Y-119251745D01*
X149591745Y-119138499D01*
X149724899Y-119049529D01*
X149872858Y-118988242D01*
X150029925Y-118957000D01*
X150190075Y-118957000D01*
X150347142Y-118988242D01*
X150347142Y-118988242D01*
G37*
G36*
X135107142Y-118988242D02*
G01*
X135255101Y-119049529D01*
X135388255Y-119138499D01*
X135501501Y-119251745D01*
X135590471Y-119384899D01*
X135651758Y-119532858D01*
X135683000Y-119689925D01*
X135683000Y-119850075D01*
X135651758Y-120007142D01*
X135590471Y-120155101D01*
X135501501Y-120288255D01*
X135388255Y-120401501D01*
X135255101Y-120490471D01*
X135107142Y-120551758D01*
X134950075Y-120583000D01*
X134789925Y-120583000D01*
X134632858Y-120551758D01*
X134484899Y-120490471D01*
X134351745Y-120401501D01*
X134238499Y-120288255D01*
X134149529Y-120155101D01*
X134088242Y-120007142D01*
X134057000Y-119850075D01*
X134057000Y-119689925D01*
X134088242Y-119532858D01*
X134149529Y-119384899D01*
X134238499Y-119251745D01*
X134351745Y-119138499D01*
X134484899Y-119049529D01*
X134632858Y-118988242D01*
X134789925Y-118957000D01*
X134950075Y-118957000D01*
X135107142Y-118988242D01*
X135107142Y-118988242D01*
G37*
G36*
X130661062Y-116426181D02*
G01*
X130695981Y-116436774D01*
X130728163Y-116453976D01*
X130756373Y-116477127D01*
X130779524Y-116505337D01*
X130796726Y-116537519D01*
X130807319Y-116572438D01*
X130811500Y-116614895D01*
X130811500Y-118081105D01*
X130807319Y-118123562D01*
X130796726Y-118158481D01*
X130779524Y-118190663D01*
X130756373Y-118218873D01*
X130728163Y-118242024D01*
X130695981Y-118259226D01*
X130661062Y-118269819D01*
X130618605Y-118274000D01*
X129477395Y-118274000D01*
X129434938Y-118269819D01*
X129400019Y-118259226D01*
X129367837Y-118242024D01*
X129339627Y-118218873D01*
X129316476Y-118190663D01*
X129299274Y-118158481D01*
X129288681Y-118123562D01*
X129284500Y-118081105D01*
X129284500Y-116614895D01*
X129288681Y-116572438D01*
X129299274Y-116537519D01*
X129316476Y-116505337D01*
X129339627Y-116477127D01*
X129367837Y-116453976D01*
X129400019Y-116436774D01*
X129434938Y-116426181D01*
X129477395Y-116422000D01*
X130618605Y-116422000D01*
X130661062Y-116426181D01*
X130661062Y-116426181D01*
G37*
G36*
X121771062Y-116426181D02*
G01*
X121805981Y-116436774D01*
X121838163Y-116453976D01*
X121866373Y-116477127D01*
X121889524Y-116505337D01*
X121906726Y-116537519D01*
X121917319Y-116572438D01*
X121921500Y-116614895D01*
X121921500Y-118081105D01*
X121917319Y-118123562D01*
X121906726Y-118158481D01*
X121889524Y-118190663D01*
X121866373Y-118218873D01*
X121838163Y-118242024D01*
X121805981Y-118259226D01*
X121771062Y-118269819D01*
X121728605Y-118274000D01*
X120587395Y-118274000D01*
X120544938Y-118269819D01*
X120510019Y-118259226D01*
X120477837Y-118242024D01*
X120449627Y-118218873D01*
X120426476Y-118190663D01*
X120409274Y-118158481D01*
X120398681Y-118123562D01*
X120394500Y-118081105D01*
X120394500Y-116614895D01*
X120398681Y-116572438D01*
X120409274Y-116537519D01*
X120426476Y-116505337D01*
X120449627Y-116477127D01*
X120477837Y-116453976D01*
X120510019Y-116436774D01*
X120544938Y-116426181D01*
X120587395Y-116422000D01*
X121728605Y-116422000D01*
X121771062Y-116426181D01*
X121771062Y-116426181D01*
G37*
G36*
X127686062Y-116426181D02*
G01*
X127720981Y-116436774D01*
X127753163Y-116453976D01*
X127781373Y-116477127D01*
X127804524Y-116505337D01*
X127821726Y-116537519D01*
X127832319Y-116572438D01*
X127836500Y-116614895D01*
X127836500Y-118081105D01*
X127832319Y-118123562D01*
X127821726Y-118158481D01*
X127804524Y-118190663D01*
X127781373Y-118218873D01*
X127753163Y-118242024D01*
X127720981Y-118259226D01*
X127686062Y-118269819D01*
X127643605Y-118274000D01*
X126502395Y-118274000D01*
X126459938Y-118269819D01*
X126425019Y-118259226D01*
X126392837Y-118242024D01*
X126364627Y-118218873D01*
X126341476Y-118190663D01*
X126324274Y-118158481D01*
X126313681Y-118123562D01*
X126309500Y-118081105D01*
X126309500Y-116614895D01*
X126313681Y-116572438D01*
X126324274Y-116537519D01*
X126341476Y-116505337D01*
X126364627Y-116477127D01*
X126392837Y-116453976D01*
X126425019Y-116436774D01*
X126459938Y-116426181D01*
X126502395Y-116422000D01*
X127643605Y-116422000D01*
X127686062Y-116426181D01*
X127686062Y-116426181D01*
G37*
G36*
X124746062Y-116426181D02*
G01*
X124780981Y-116436774D01*
X124813163Y-116453976D01*
X124841373Y-116477127D01*
X124864524Y-116505337D01*
X124881726Y-116537519D01*
X124892319Y-116572438D01*
X124896500Y-116614895D01*
X124896500Y-118081105D01*
X124892319Y-118123562D01*
X124881726Y-118158481D01*
X124864524Y-118190663D01*
X124841373Y-118218873D01*
X124813163Y-118242024D01*
X124780981Y-118259226D01*
X124746062Y-118269819D01*
X124703605Y-118274000D01*
X123562395Y-118274000D01*
X123519938Y-118269819D01*
X123485019Y-118259226D01*
X123452837Y-118242024D01*
X123424627Y-118218873D01*
X123401476Y-118190663D01*
X123384274Y-118158481D01*
X123373681Y-118123562D01*
X123369500Y-118081105D01*
X123369500Y-116614895D01*
X123373681Y-116572438D01*
X123384274Y-116537519D01*
X123401476Y-116505337D01*
X123424627Y-116477127D01*
X123452837Y-116453976D01*
X123485019Y-116436774D01*
X123519938Y-116426181D01*
X123562395Y-116422000D01*
X124703605Y-116422000D01*
X124746062Y-116426181D01*
X124746062Y-116426181D01*
G37*
G36*
X150347142Y-116448242D02*
G01*
X150495101Y-116509529D01*
X150628255Y-116598499D01*
X150741501Y-116711745D01*
X150830471Y-116844899D01*
X150891758Y-116992858D01*
X150923000Y-117149925D01*
X150923000Y-117310075D01*
X150891758Y-117467142D01*
X150830471Y-117615101D01*
X150741501Y-117748255D01*
X150628255Y-117861501D01*
X150495101Y-117950471D01*
X150347142Y-118011758D01*
X150190075Y-118043000D01*
X150029925Y-118043000D01*
X149872858Y-118011758D01*
X149724899Y-117950471D01*
X149591745Y-117861501D01*
X149478499Y-117748255D01*
X149389529Y-117615101D01*
X149328242Y-117467142D01*
X149297000Y-117310075D01*
X149297000Y-117149925D01*
X149328242Y-116992858D01*
X149389529Y-116844899D01*
X149478499Y-116711745D01*
X149591745Y-116598499D01*
X149724899Y-116509529D01*
X149872858Y-116448242D01*
X150029925Y-116417000D01*
X150190075Y-116417000D01*
X150347142Y-116448242D01*
X150347142Y-116448242D01*
G37*
G36*
X135107142Y-116448242D02*
G01*
X135255101Y-116509529D01*
X135388255Y-116598499D01*
X135501501Y-116711745D01*
X135590471Y-116844899D01*
X135651758Y-116992858D01*
X135683000Y-117149925D01*
X135683000Y-117310075D01*
X135651758Y-117467142D01*
X135590471Y-117615101D01*
X135501501Y-117748255D01*
X135388255Y-117861501D01*
X135255101Y-117950471D01*
X135107142Y-118011758D01*
X134950075Y-118043000D01*
X134789925Y-118043000D01*
X134632858Y-118011758D01*
X134484899Y-117950471D01*
X134351745Y-117861501D01*
X134238499Y-117748255D01*
X134149529Y-117615101D01*
X134088242Y-117467142D01*
X134057000Y-117310075D01*
X134057000Y-117149925D01*
X134088242Y-116992858D01*
X134149529Y-116844899D01*
X134238499Y-116711745D01*
X134351745Y-116598499D01*
X134484899Y-116509529D01*
X134632858Y-116448242D01*
X134789925Y-116417000D01*
X134950075Y-116417000D01*
X135107142Y-116448242D01*
X135107142Y-116448242D01*
G37*
G36*
X135107142Y-113908242D02*
G01*
X135255101Y-113969529D01*
X135388255Y-114058499D01*
X135501501Y-114171745D01*
X135590471Y-114304899D01*
X135651758Y-114452858D01*
X135683000Y-114609925D01*
X135683000Y-114770075D01*
X135651758Y-114927142D01*
X135590471Y-115075101D01*
X135501501Y-115208255D01*
X135388255Y-115321501D01*
X135255101Y-115410471D01*
X135107142Y-115471758D01*
X134950075Y-115503000D01*
X134789925Y-115503000D01*
X134632858Y-115471758D01*
X134484899Y-115410471D01*
X134351745Y-115321501D01*
X134238499Y-115208255D01*
X134149529Y-115075101D01*
X134088242Y-114927142D01*
X134057000Y-114770075D01*
X134057000Y-114609925D01*
X134088242Y-114452858D01*
X134149529Y-114304899D01*
X134238499Y-114171745D01*
X134351745Y-114058499D01*
X134484899Y-113969529D01*
X134632858Y-113908242D01*
X134789925Y-113877000D01*
X134950075Y-113877000D01*
X135107142Y-113908242D01*
X135107142Y-113908242D01*
G37*
G36*
X150347142Y-113908242D02*
G01*
X150495101Y-113969529D01*
X150628255Y-114058499D01*
X150741501Y-114171745D01*
X150830471Y-114304899D01*
X150891758Y-114452858D01*
X150923000Y-114609925D01*
X150923000Y-114770075D01*
X150891758Y-114927142D01*
X150830471Y-115075101D01*
X150741501Y-115208255D01*
X150628255Y-115321501D01*
X150495101Y-115410471D01*
X150347142Y-115471758D01*
X150190075Y-115503000D01*
X150029925Y-115503000D01*
X149872858Y-115471758D01*
X149724899Y-115410471D01*
X149591745Y-115321501D01*
X149478499Y-115208255D01*
X149389529Y-115075101D01*
X149328242Y-114927142D01*
X149297000Y-114770075D01*
X149297000Y-114609925D01*
X149328242Y-114452858D01*
X149389529Y-114304899D01*
X149478499Y-114171745D01*
X149591745Y-114058499D01*
X149724899Y-113969529D01*
X149872858Y-113908242D01*
X150029925Y-113877000D01*
X150190075Y-113877000D01*
X150347142Y-113908242D01*
X150347142Y-113908242D01*
G37*
G36*
X135107142Y-111368242D02*
G01*
X135255101Y-111429529D01*
X135388255Y-111518499D01*
X135501501Y-111631745D01*
X135590471Y-111764899D01*
X135651758Y-111912858D01*
X135683000Y-112069925D01*
X135683000Y-112230075D01*
X135651758Y-112387142D01*
X135590471Y-112535101D01*
X135501501Y-112668255D01*
X135388255Y-112781501D01*
X135255101Y-112870471D01*
X135107142Y-112931758D01*
X134950075Y-112963000D01*
X134789925Y-112963000D01*
X134632858Y-112931758D01*
X134484899Y-112870471D01*
X134351745Y-112781501D01*
X134238499Y-112668255D01*
X134149529Y-112535101D01*
X134088242Y-112387142D01*
X134057000Y-112230075D01*
X134057000Y-112069925D01*
X134088242Y-111912858D01*
X134149529Y-111764899D01*
X134238499Y-111631745D01*
X134351745Y-111518499D01*
X134484899Y-111429529D01*
X134632858Y-111368242D01*
X134789925Y-111337000D01*
X134950075Y-111337000D01*
X135107142Y-111368242D01*
X135107142Y-111368242D01*
G37*
G36*
X150347142Y-111368242D02*
G01*
X150495101Y-111429529D01*
X150628255Y-111518499D01*
X150741501Y-111631745D01*
X150830471Y-111764899D01*
X150891758Y-111912858D01*
X150923000Y-112069925D01*
X150923000Y-112230075D01*
X150891758Y-112387142D01*
X150830471Y-112535101D01*
X150741501Y-112668255D01*
X150628255Y-112781501D01*
X150495101Y-112870471D01*
X150347142Y-112931758D01*
X150190075Y-112963000D01*
X150029925Y-112963000D01*
X149872858Y-112931758D01*
X149724899Y-112870471D01*
X149591745Y-112781501D01*
X149478499Y-112668255D01*
X149389529Y-112535101D01*
X149328242Y-112387142D01*
X149297000Y-112230075D01*
X149297000Y-112069925D01*
X149328242Y-111912858D01*
X149389529Y-111764899D01*
X149478499Y-111631745D01*
X149591745Y-111518499D01*
X149724899Y-111429529D01*
X149872858Y-111368242D01*
X150029925Y-111337000D01*
X150190075Y-111337000D01*
X150347142Y-111368242D01*
X150347142Y-111368242D01*
G37*
G36*
X135107142Y-108828242D02*
G01*
X135255101Y-108889529D01*
X135388255Y-108978499D01*
X135501501Y-109091745D01*
X135590471Y-109224899D01*
X135651758Y-109372858D01*
X135683000Y-109529925D01*
X135683000Y-109690075D01*
X135651758Y-109847142D01*
X135590471Y-109995101D01*
X135501501Y-110128255D01*
X135388255Y-110241501D01*
X135255101Y-110330471D01*
X135107142Y-110391758D01*
X134950075Y-110423000D01*
X134789925Y-110423000D01*
X134632858Y-110391758D01*
X134484899Y-110330471D01*
X134351745Y-110241501D01*
X134238499Y-110128255D01*
X134149529Y-109995101D01*
X134088242Y-109847142D01*
X134057000Y-109690075D01*
X134057000Y-109529925D01*
X134088242Y-109372858D01*
X134149529Y-109224899D01*
X134238499Y-109091745D01*
X134351745Y-108978499D01*
X134484899Y-108889529D01*
X134632858Y-108828242D01*
X134789925Y-108797000D01*
X134950075Y-108797000D01*
X135107142Y-108828242D01*
X135107142Y-108828242D01*
G37*
G36*
X150347142Y-108828242D02*
G01*
X150495101Y-108889529D01*
X150628255Y-108978499D01*
X150741501Y-109091745D01*
X150830471Y-109224899D01*
X150891758Y-109372858D01*
X150923000Y-109529925D01*
X150923000Y-109690075D01*
X150891758Y-109847142D01*
X150830471Y-109995101D01*
X150741501Y-110128255D01*
X150628255Y-110241501D01*
X150495101Y-110330471D01*
X150347142Y-110391758D01*
X150190075Y-110423000D01*
X150029925Y-110423000D01*
X149872858Y-110391758D01*
X149724899Y-110330471D01*
X149591745Y-110241501D01*
X149478499Y-110128255D01*
X149389529Y-109995101D01*
X149328242Y-109847142D01*
X149297000Y-109690075D01*
X149297000Y-109529925D01*
X149328242Y-109372858D01*
X149389529Y-109224899D01*
X149478499Y-109091745D01*
X149591745Y-108978499D01*
X149724899Y-108889529D01*
X149872858Y-108828242D01*
X150029925Y-108797000D01*
X150190075Y-108797000D01*
X150347142Y-108828242D01*
X150347142Y-108828242D01*
G37*
G36*
X166366331Y-106592211D02*
G01*
X166694092Y-106727974D01*
X166989070Y-106925072D01*
X167239928Y-107175930D01*
X167437026Y-107470908D01*
X167572789Y-107798669D01*
X167642000Y-108146616D01*
X167642000Y-108501384D01*
X167572789Y-108849331D01*
X167437026Y-109177092D01*
X167239928Y-109472070D01*
X166989070Y-109722928D01*
X166694092Y-109920026D01*
X166366331Y-110055789D01*
X166018384Y-110125000D01*
X165663616Y-110125000D01*
X165315669Y-110055789D01*
X164987908Y-109920026D01*
X164692930Y-109722928D01*
X164442072Y-109472070D01*
X164244974Y-109177092D01*
X164109211Y-108849331D01*
X164040000Y-108501384D01*
X164040000Y-108146616D01*
X164109211Y-107798669D01*
X164244974Y-107470908D01*
X164442072Y-107175930D01*
X164692930Y-106925072D01*
X164987908Y-106727974D01*
X165315669Y-106592211D01*
X165663616Y-106523000D01*
X166018384Y-106523000D01*
X166366331Y-106592211D01*
X166366331Y-106592211D01*
G37*
G36*
X160566331Y-106592211D02*
G01*
X160894092Y-106727974D01*
X161189070Y-106925072D01*
X161439928Y-107175930D01*
X161637026Y-107470908D01*
X161772789Y-107798669D01*
X161842000Y-108146616D01*
X161842000Y-108501384D01*
X161772789Y-108849331D01*
X161637026Y-109177092D01*
X161439928Y-109472070D01*
X161189070Y-109722928D01*
X160894092Y-109920026D01*
X160566331Y-110055789D01*
X160218384Y-110125000D01*
X159863616Y-110125000D01*
X159515669Y-110055789D01*
X159187908Y-109920026D01*
X158892930Y-109722928D01*
X158642072Y-109472070D01*
X158444974Y-109177092D01*
X158309211Y-108849331D01*
X158240000Y-108501384D01*
X158240000Y-108146616D01*
X158309211Y-107798669D01*
X158444974Y-107470908D01*
X158642072Y-107175930D01*
X158892930Y-106925072D01*
X159187908Y-106727974D01*
X159515669Y-106592211D01*
X159863616Y-106523000D01*
X160218384Y-106523000D01*
X160566331Y-106592211D01*
X160566331Y-106592211D01*
G37*
G36*
X135107142Y-106288242D02*
G01*
X135255101Y-106349529D01*
X135388255Y-106438499D01*
X135501501Y-106551745D01*
X135590471Y-106684899D01*
X135651758Y-106832858D01*
X135683000Y-106989925D01*
X135683000Y-107150075D01*
X135651758Y-107307142D01*
X135590471Y-107455101D01*
X135501501Y-107588255D01*
X135388255Y-107701501D01*
X135255101Y-107790471D01*
X135107142Y-107851758D01*
X134950075Y-107883000D01*
X134789925Y-107883000D01*
X134632858Y-107851758D01*
X134484899Y-107790471D01*
X134351745Y-107701501D01*
X134238499Y-107588255D01*
X134149529Y-107455101D01*
X134088242Y-107307142D01*
X134057000Y-107150075D01*
X134057000Y-106989925D01*
X134088242Y-106832858D01*
X134149529Y-106684899D01*
X134238499Y-106551745D01*
X134351745Y-106438499D01*
X134484899Y-106349529D01*
X134632858Y-106288242D01*
X134789925Y-106257000D01*
X134950075Y-106257000D01*
X135107142Y-106288242D01*
X135107142Y-106288242D01*
G37*
G36*
X150347142Y-106288242D02*
G01*
X150495101Y-106349529D01*
X150628255Y-106438499D01*
X150741501Y-106551745D01*
X150830471Y-106684899D01*
X150891758Y-106832858D01*
X150923000Y-106989925D01*
X150923000Y-107150075D01*
X150891758Y-107307142D01*
X150830471Y-107455101D01*
X150741501Y-107588255D01*
X150628255Y-107701501D01*
X150495101Y-107790471D01*
X150347142Y-107851758D01*
X150190075Y-107883000D01*
X150029925Y-107883000D01*
X149872858Y-107851758D01*
X149724899Y-107790471D01*
X149591745Y-107701501D01*
X149478499Y-107588255D01*
X149389529Y-107455101D01*
X149328242Y-107307142D01*
X149297000Y-107150075D01*
X149297000Y-106989925D01*
X149328242Y-106832858D01*
X149389529Y-106684899D01*
X149478499Y-106551745D01*
X149591745Y-106438499D01*
X149724899Y-106349529D01*
X149872858Y-106288242D01*
X150029925Y-106257000D01*
X150190075Y-106257000D01*
X150347142Y-106288242D01*
X150347142Y-106288242D01*
G37*
G36*
X135107142Y-103748242D02*
G01*
X135255101Y-103809529D01*
X135388255Y-103898499D01*
X135501501Y-104011745D01*
X135590471Y-104144899D01*
X135651758Y-104292858D01*
X135683000Y-104449925D01*
X135683000Y-104610075D01*
X135651758Y-104767142D01*
X135590471Y-104915101D01*
X135501501Y-105048255D01*
X135388255Y-105161501D01*
X135255101Y-105250471D01*
X135107142Y-105311758D01*
X134950075Y-105343000D01*
X134789925Y-105343000D01*
X134632858Y-105311758D01*
X134484899Y-105250471D01*
X134351745Y-105161501D01*
X134238499Y-105048255D01*
X134149529Y-104915101D01*
X134088242Y-104767142D01*
X134057000Y-104610075D01*
X134057000Y-104449925D01*
X134088242Y-104292858D01*
X134149529Y-104144899D01*
X134238499Y-104011745D01*
X134351745Y-103898499D01*
X134484899Y-103809529D01*
X134632858Y-103748242D01*
X134789925Y-103717000D01*
X134950075Y-103717000D01*
X135107142Y-103748242D01*
X135107142Y-103748242D01*
G37*
G36*
X150347142Y-103748242D02*
G01*
X150495101Y-103809529D01*
X150628255Y-103898499D01*
X150741501Y-104011745D01*
X150830471Y-104144899D01*
X150891758Y-104292858D01*
X150923000Y-104449925D01*
X150923000Y-104610075D01*
X150891758Y-104767142D01*
X150830471Y-104915101D01*
X150741501Y-105048255D01*
X150628255Y-105161501D01*
X150495101Y-105250471D01*
X150347142Y-105311758D01*
X150190075Y-105343000D01*
X150029925Y-105343000D01*
X149872858Y-105311758D01*
X149724899Y-105250471D01*
X149591745Y-105161501D01*
X149478499Y-105048255D01*
X149389529Y-104915101D01*
X149328242Y-104767142D01*
X149297000Y-104610075D01*
X149297000Y-104449925D01*
X149328242Y-104292858D01*
X149389529Y-104144899D01*
X149478499Y-104011745D01*
X149591745Y-103898499D01*
X149724899Y-103809529D01*
X149872858Y-103748242D01*
X150029925Y-103717000D01*
X150190075Y-103717000D01*
X150347142Y-103748242D01*
X150347142Y-103748242D01*
G37*
G36*
X164731000Y-100901000D02*
G01*
X162929000Y-100901000D01*
X162929000Y-99099000D01*
X164731000Y-99099000D01*
X164731000Y-100901000D01*
X164731000Y-100901000D01*
G37*
G36*
X161400442Y-99105518D02*
G01*
X161466627Y-99112037D01*
X161636466Y-99163557D01*
X161792991Y-99247222D01*
X161828729Y-99276552D01*
X161930186Y-99359814D01*
X162013448Y-99461271D01*
X162042778Y-99497009D01*
X162126443Y-99653534D01*
X162177963Y-99823373D01*
X162195359Y-100000000D01*
X162177963Y-100176627D01*
X162126443Y-100346466D01*
X162042778Y-100502991D01*
X162013448Y-100538729D01*
X161930186Y-100640186D01*
X161828729Y-100723448D01*
X161792991Y-100752778D01*
X161636466Y-100836443D01*
X161466627Y-100887963D01*
X161400443Y-100894481D01*
X161334260Y-100901000D01*
X161245740Y-100901000D01*
X161179557Y-100894481D01*
X161113373Y-100887963D01*
X160943534Y-100836443D01*
X160787009Y-100752778D01*
X160751271Y-100723448D01*
X160649814Y-100640186D01*
X160566552Y-100538729D01*
X160537222Y-100502991D01*
X160453557Y-100346466D01*
X160402037Y-100176627D01*
X160384641Y-100000000D01*
X160402037Y-99823373D01*
X160453557Y-99653534D01*
X160537222Y-99497009D01*
X160566552Y-99461271D01*
X160649814Y-99359814D01*
X160751271Y-99276552D01*
X160787009Y-99247222D01*
X160943534Y-99163557D01*
X161113373Y-99112037D01*
X161179558Y-99105518D01*
X161245740Y-99099000D01*
X161334260Y-99099000D01*
X161400442Y-99105518D01*
X161400442Y-99105518D01*
G37*
G36*
X131365331Y-82168211D02*
G01*
X131693092Y-82303974D01*
X131988070Y-82501072D01*
X132238928Y-82751930D01*
X132436026Y-83046908D01*
X132571789Y-83374669D01*
X132641000Y-83722616D01*
X132641000Y-84077384D01*
X132571789Y-84425331D01*
X132436026Y-84753092D01*
X132238928Y-85048070D01*
X131988070Y-85298928D01*
X131693092Y-85496026D01*
X131365331Y-85631789D01*
X131017384Y-85701000D01*
X130662616Y-85701000D01*
X130314669Y-85631789D01*
X129986908Y-85496026D01*
X129691930Y-85298928D01*
X129441072Y-85048070D01*
X129243974Y-84753092D01*
X129108211Y-84425331D01*
X129039000Y-84077384D01*
X129039000Y-83722616D01*
X129108211Y-83374669D01*
X129243974Y-83046908D01*
X129441072Y-82751930D01*
X129691930Y-82501072D01*
X129986908Y-82303974D01*
X130314669Y-82168211D01*
X130662616Y-82099000D01*
X131017384Y-82099000D01*
X131365331Y-82168211D01*
X131365331Y-82168211D01*
G37*
G36*
X154665331Y-82168211D02*
G01*
X154993092Y-82303974D01*
X155288070Y-82501072D01*
X155538928Y-82751930D01*
X155736026Y-83046908D01*
X155871789Y-83374669D01*
X155941000Y-83722616D01*
X155941000Y-84077384D01*
X155871789Y-84425331D01*
X155736026Y-84753092D01*
X155538928Y-85048070D01*
X155288070Y-85298928D01*
X154993092Y-85496026D01*
X154665331Y-85631789D01*
X154317384Y-85701000D01*
X153962616Y-85701000D01*
X153614669Y-85631789D01*
X153286908Y-85496026D01*
X152991930Y-85298928D01*
X152741072Y-85048070D01*
X152543974Y-84753092D01*
X152408211Y-84425331D01*
X152339000Y-84077384D01*
X152339000Y-83722616D01*
X152408211Y-83374669D01*
X152543974Y-83046908D01*
X152741072Y-82751930D01*
X152991930Y-82501072D01*
X153286908Y-82303974D01*
X153614669Y-82168211D01*
X153962616Y-82099000D01*
X154317384Y-82099000D01*
X154665331Y-82168211D01*
X154665331Y-82168211D01*
G37*
G36*
X122601000Y-80147000D02*
G01*
X118699000Y-80147000D01*
X118699000Y-78045000D01*
X122601000Y-78045000D01*
X122601000Y-80147000D01*
X122601000Y-80147000D01*
G37*
G36*
X121451000Y-73847000D02*
G01*
X119849000Y-73847000D01*
X119849000Y-71745000D01*
X121451000Y-71745000D01*
X121451000Y-73847000D01*
X121451000Y-73847000D01*
G37*
G36*
X123751000Y-73847000D02*
G01*
X122149000Y-73847000D01*
X122149000Y-71745000D01*
X123751000Y-71745000D01*
X123751000Y-73847000D01*
X123751000Y-73847000D01*
G37*
G36*
X119151000Y-73847000D02*
G01*
X117549000Y-73847000D01*
X117549000Y-71745000D01*
X119151000Y-71745000D01*
X119151000Y-73847000D01*
X119151000Y-73847000D01*
G37*
G36*
X118288062Y-67912181D02*
G01*
X118322981Y-67922774D01*
X118355163Y-67939976D01*
X118383373Y-67963127D01*
X118406524Y-67991337D01*
X118423726Y-68023519D01*
X118434319Y-68058438D01*
X118438500Y-68100895D01*
X118438500Y-69567105D01*
X118434319Y-69609562D01*
X118423726Y-69644481D01*
X118406524Y-69676663D01*
X118383373Y-69704873D01*
X118355163Y-69728024D01*
X118322981Y-69745226D01*
X118288062Y-69755819D01*
X118245605Y-69760000D01*
X117104395Y-69760000D01*
X117061938Y-69755819D01*
X117027019Y-69745226D01*
X116994837Y-69728024D01*
X116966627Y-69704873D01*
X116943476Y-69676663D01*
X116926274Y-69644481D01*
X116915681Y-69609562D01*
X116911500Y-69567105D01*
X116911500Y-68100895D01*
X116915681Y-68058438D01*
X116926274Y-68023519D01*
X116943476Y-67991337D01*
X116966627Y-67963127D01*
X116994837Y-67939976D01*
X117027019Y-67922774D01*
X117061938Y-67912181D01*
X117104395Y-67908000D01*
X118245605Y-67908000D01*
X118288062Y-67912181D01*
X118288062Y-67912181D01*
G37*
G36*
X121263062Y-67912181D02*
G01*
X121297981Y-67922774D01*
X121330163Y-67939976D01*
X121358373Y-67963127D01*
X121381524Y-67991337D01*
X121398726Y-68023519D01*
X121409319Y-68058438D01*
X121413500Y-68100895D01*
X121413500Y-69567105D01*
X121409319Y-69609562D01*
X121398726Y-69644481D01*
X121381524Y-69676663D01*
X121358373Y-69704873D01*
X121330163Y-69728024D01*
X121297981Y-69745226D01*
X121263062Y-69755819D01*
X121220605Y-69760000D01*
X120079395Y-69760000D01*
X120036938Y-69755819D01*
X120002019Y-69745226D01*
X119969837Y-69728024D01*
X119941627Y-69704873D01*
X119918476Y-69676663D01*
X119901274Y-69644481D01*
X119890681Y-69609562D01*
X119886500Y-69567105D01*
X119886500Y-68100895D01*
X119890681Y-68058438D01*
X119901274Y-68023519D01*
X119918476Y-67991337D01*
X119941627Y-67963127D01*
X119969837Y-67939976D01*
X120002019Y-67922774D01*
X120036938Y-67912181D01*
X120079395Y-67908000D01*
X121220605Y-67908000D01*
X121263062Y-67912181D01*
X121263062Y-67912181D01*
G37*
G36*
X123549062Y-64356181D02*
G01*
X123583981Y-64366774D01*
X123616163Y-64383976D01*
X123644373Y-64407127D01*
X123667524Y-64435337D01*
X123684726Y-64467519D01*
X123695319Y-64502438D01*
X123699500Y-64544895D01*
X123699500Y-66011105D01*
X123695319Y-66053562D01*
X123684726Y-66088481D01*
X123667524Y-66120663D01*
X123644373Y-66148873D01*
X123616163Y-66172024D01*
X123583981Y-66189226D01*
X123549062Y-66199819D01*
X123506605Y-66204000D01*
X122365395Y-66204000D01*
X122322938Y-66199819D01*
X122288019Y-66189226D01*
X122255837Y-66172024D01*
X122227627Y-66148873D01*
X122204476Y-66120663D01*
X122187274Y-66088481D01*
X122176681Y-66053562D01*
X122172500Y-66011105D01*
X122172500Y-64544895D01*
X122176681Y-64502438D01*
X122187274Y-64467519D01*
X122204476Y-64435337D01*
X122227627Y-64407127D01*
X122255837Y-64383976D01*
X122288019Y-64366774D01*
X122322938Y-64356181D01*
X122365395Y-64352000D01*
X123506605Y-64352000D01*
X123549062Y-64356181D01*
X123549062Y-64356181D01*
G37*
G36*
X120574062Y-64356181D02*
G01*
X120608981Y-64366774D01*
X120641163Y-64383976D01*
X120669373Y-64407127D01*
X120692524Y-64435337D01*
X120709726Y-64467519D01*
X120720319Y-64502438D01*
X120724500Y-64544895D01*
X120724500Y-66011105D01*
X120720319Y-66053562D01*
X120709726Y-66088481D01*
X120692524Y-66120663D01*
X120669373Y-66148873D01*
X120641163Y-66172024D01*
X120608981Y-66189226D01*
X120574062Y-66199819D01*
X120531605Y-66204000D01*
X119390395Y-66204000D01*
X119347938Y-66199819D01*
X119313019Y-66189226D01*
X119280837Y-66172024D01*
X119252627Y-66148873D01*
X119229476Y-66120663D01*
X119212274Y-66088481D01*
X119201681Y-66053562D01*
X119197500Y-66011105D01*
X119197500Y-64544895D01*
X119201681Y-64502438D01*
X119212274Y-64467519D01*
X119229476Y-64435337D01*
X119252627Y-64407127D01*
X119280837Y-64383976D01*
X119313019Y-64366774D01*
X119347938Y-64356181D01*
X119390395Y-64352000D01*
X120531605Y-64352000D01*
X120574062Y-64356181D01*
X120574062Y-64356181D01*
G37*
G36*
X154665331Y-58368211D02*
G01*
X154993092Y-58503974D01*
X155288070Y-58701072D01*
X155538928Y-58951930D01*
X155736026Y-59246908D01*
X155871789Y-59574669D01*
X155941000Y-59922616D01*
X155941000Y-60277384D01*
X155871789Y-60625331D01*
X155736026Y-60953092D01*
X155538928Y-61248070D01*
X155288070Y-61498928D01*
X154993092Y-61696026D01*
X154665331Y-61831789D01*
X154317384Y-61901000D01*
X153962616Y-61901000D01*
X153614669Y-61831789D01*
X153286908Y-61696026D01*
X152991930Y-61498928D01*
X152741072Y-61248070D01*
X152543974Y-60953092D01*
X152408211Y-60625331D01*
X152339000Y-60277384D01*
X152339000Y-59922616D01*
X152408211Y-59574669D01*
X152543974Y-59246908D01*
X152741072Y-58951930D01*
X152991930Y-58701072D01*
X153286908Y-58503974D01*
X153614669Y-58368211D01*
X153962616Y-58299000D01*
X154317384Y-58299000D01*
X154665331Y-58368211D01*
X154665331Y-58368211D01*
G37*
G36*
X131365331Y-58368211D02*
G01*
X131693092Y-58503974D01*
X131988070Y-58701072D01*
X132238928Y-58951930D01*
X132436026Y-59246908D01*
X132571789Y-59574669D01*
X132641000Y-59922616D01*
X132641000Y-60277384D01*
X132571789Y-60625331D01*
X132436026Y-60953092D01*
X132238928Y-61248070D01*
X131988070Y-61498928D01*
X131693092Y-61696026D01*
X131365331Y-61831789D01*
X131017384Y-61901000D01*
X130662616Y-61901000D01*
X130314669Y-61831789D01*
X129986908Y-61696026D01*
X129691930Y-61498928D01*
X129441072Y-61248070D01*
X129243974Y-60953092D01*
X129108211Y-60625331D01*
X129039000Y-60277384D01*
X129039000Y-59922616D01*
X129108211Y-59574669D01*
X129243974Y-59246908D01*
X129441072Y-58951930D01*
X129691930Y-58701072D01*
X129986908Y-58503974D01*
X130314669Y-58368211D01*
X130662616Y-58299000D01*
X131017384Y-58299000D01*
X131365331Y-58368211D01*
X131365331Y-58368211D01*
G37*
G36*
X138917142Y-58818242D02*
G01*
X139065101Y-58879529D01*
X139198255Y-58968499D01*
X139311501Y-59081745D01*
X139400471Y-59214899D01*
X139461758Y-59362858D01*
X139493000Y-59519925D01*
X139493000Y-59680075D01*
X139461758Y-59837142D01*
X139400471Y-59985101D01*
X139311501Y-60118255D01*
X139198255Y-60231501D01*
X139065101Y-60320471D01*
X138917142Y-60381758D01*
X138760075Y-60413000D01*
X138599925Y-60413000D01*
X138442858Y-60381758D01*
X138294899Y-60320471D01*
X138161745Y-60231501D01*
X138048499Y-60118255D01*
X137959529Y-59985101D01*
X137898242Y-59837142D01*
X137867000Y-59680075D01*
X137867000Y-59519925D01*
X137898242Y-59362858D01*
X137959529Y-59214899D01*
X138048499Y-59081745D01*
X138161745Y-58968499D01*
X138294899Y-58879529D01*
X138442858Y-58818242D01*
X138599925Y-58787000D01*
X138760075Y-58787000D01*
X138917142Y-58818242D01*
X138917142Y-58818242D01*
G37*
G36*
X146537142Y-58818242D02*
G01*
X146685101Y-58879529D01*
X146818255Y-58968499D01*
X146931501Y-59081745D01*
X147020471Y-59214899D01*
X147081758Y-59362858D01*
X147113000Y-59519925D01*
X147113000Y-59680075D01*
X147081758Y-59837142D01*
X147020471Y-59985101D01*
X146931501Y-60118255D01*
X146818255Y-60231501D01*
X146685101Y-60320471D01*
X146537142Y-60381758D01*
X146380075Y-60413000D01*
X146219925Y-60413000D01*
X146062858Y-60381758D01*
X145914899Y-60320471D01*
X145781745Y-60231501D01*
X145668499Y-60118255D01*
X145579529Y-59985101D01*
X145518242Y-59837142D01*
X145487000Y-59680075D01*
X145487000Y-59519925D01*
X145518242Y-59362858D01*
X145579529Y-59214899D01*
X145668499Y-59081745D01*
X145781745Y-58968499D01*
X145914899Y-58879529D01*
X146062858Y-58818242D01*
X146219925Y-58787000D01*
X146380075Y-58787000D01*
X146537142Y-58818242D01*
X146537142Y-58818242D01*
G37*
G36*
X143997142Y-58818242D02*
G01*
X144145101Y-58879529D01*
X144278255Y-58968499D01*
X144391501Y-59081745D01*
X144480471Y-59214899D01*
X144541758Y-59362858D01*
X144573000Y-59519925D01*
X144573000Y-59680075D01*
X144541758Y-59837142D01*
X144480471Y-59985101D01*
X144391501Y-60118255D01*
X144278255Y-60231501D01*
X144145101Y-60320471D01*
X143997142Y-60381758D01*
X143840075Y-60413000D01*
X143679925Y-60413000D01*
X143522858Y-60381758D01*
X143374899Y-60320471D01*
X143241745Y-60231501D01*
X143128499Y-60118255D01*
X143039529Y-59985101D01*
X142978242Y-59837142D01*
X142947000Y-59680075D01*
X142947000Y-59519925D01*
X142978242Y-59362858D01*
X143039529Y-59214899D01*
X143128499Y-59081745D01*
X143241745Y-58968499D01*
X143374899Y-58879529D01*
X143522858Y-58818242D01*
X143679925Y-58787000D01*
X143840075Y-58787000D01*
X143997142Y-58818242D01*
X143997142Y-58818242D01*
G37*
G36*
X141457142Y-58818242D02*
G01*
X141605101Y-58879529D01*
X141738255Y-58968499D01*
X141851501Y-59081745D01*
X141940471Y-59214899D01*
X142001758Y-59362858D01*
X142033000Y-59519925D01*
X142033000Y-59680075D01*
X142001758Y-59837142D01*
X141940471Y-59985101D01*
X141851501Y-60118255D01*
X141738255Y-60231501D01*
X141605101Y-60320471D01*
X141457142Y-60381758D01*
X141300075Y-60413000D01*
X141139925Y-60413000D01*
X140982858Y-60381758D01*
X140834899Y-60320471D01*
X140701745Y-60231501D01*
X140588499Y-60118255D01*
X140499529Y-59985101D01*
X140438242Y-59837142D01*
X140407000Y-59680075D01*
X140407000Y-59519925D01*
X140438242Y-59362858D01*
X140499529Y-59214899D01*
X140588499Y-59081745D01*
X140701745Y-58968499D01*
X140834899Y-58879529D01*
X140982858Y-58818242D01*
X141139925Y-58787000D01*
X141300075Y-58787000D01*
X141457142Y-58818242D01*
X141457142Y-58818242D01*
G37*
M02*
