G04 #@! TF.GenerationSoftware,KiCad,Pcbnew,5.1.4+dfsg1-1*
G04 #@! TF.CreationDate,2020-03-31T16:34:19+11:00*
G04 #@! TF.ProjectId,temp0_schematic,74656d70-305f-4736-9368-656d61746963,rev?*
G04 #@! TF.SameCoordinates,Original*
G04 #@! TF.FileFunction,Copper,L2,Bot*
G04 #@! TF.FilePolarity,Positive*
%FSLAX46Y46*%
G04 Gerber Fmt 4.6, Leading zero omitted, Abs format (unit mm)*
G04 Created by KiCad (PCBNEW 5.1.4+dfsg1-1) date 2020-03-31 16:34:19*
%MOMM*%
%LPD*%
G04 APERTURE LIST*
%ADD10C,3.500000*%
%ADD11C,1.524000*%
%ADD12O,1.700000X1.700000*%
%ADD13R,1.700000X1.700000*%
%ADD14R,1.500000X2.000000*%
%ADD15R,3.800000X2.000000*%
%ADD16C,0.100000*%
%ADD17C,1.425000*%
%ADD18C,13.000000*%
%ADD19C,0.800000*%
%ADD20C,0.500000*%
%ADD21C,0.250000*%
%ADD22C,0.254000*%
G04 APERTURE END LIST*
D10*
X130840000Y-60100000D03*
X130840000Y-83900000D03*
X154140000Y-83900000D03*
X154140000Y-60100000D03*
D11*
X146300000Y-59600000D03*
X143760000Y-59600000D03*
X141220000Y-59600000D03*
X138680000Y-59600000D03*
X123825000Y-91440000D03*
X123825000Y-88900000D03*
X121285000Y-91440000D03*
X121285000Y-88900000D03*
X118745000Y-91440000D03*
X118745000Y-88900000D03*
X116205000Y-91440000D03*
X116205000Y-88900000D03*
D12*
X161290000Y-114300000D03*
D13*
X163830000Y-114300000D03*
X128270000Y-114300000D03*
D12*
X125730000Y-114300000D03*
X123190000Y-114300000D03*
X120650000Y-114300000D03*
X118110000Y-114300000D03*
X115570000Y-114300000D03*
D14*
X162800000Y-75590000D03*
X167400000Y-75590000D03*
X165100000Y-75590000D03*
D15*
X165100000Y-81890000D03*
D11*
X150110000Y-130810000D03*
X150110000Y-128270000D03*
X150110000Y-125730000D03*
X150110000Y-123190000D03*
X150110000Y-120650000D03*
X150110000Y-118110000D03*
X150110000Y-115570000D03*
X150110000Y-113030000D03*
X150110000Y-110490000D03*
X150110000Y-107950000D03*
X150110000Y-105410000D03*
X150110000Y-102870000D03*
X134870000Y-130810000D03*
X134870000Y-128270000D03*
X134870000Y-125730000D03*
X134870000Y-123190000D03*
X134870000Y-120650000D03*
X134870000Y-118110000D03*
X134870000Y-115570000D03*
X134870000Y-113030000D03*
X134870000Y-110490000D03*
X134870000Y-107950000D03*
X134870000Y-105410000D03*
X134870000Y-102870000D03*
X168910000Y-88900000D03*
X166370000Y-88900000D03*
X163830000Y-88900000D03*
X161290000Y-88900000D03*
D16*
G36*
X122407004Y-82946204D02*
G01*
X122431273Y-82949804D01*
X122455071Y-82955765D01*
X122478171Y-82964030D01*
X122500349Y-82974520D01*
X122521393Y-82987133D01*
X122541098Y-83001747D01*
X122559277Y-83018223D01*
X122575753Y-83036402D01*
X122590367Y-83056107D01*
X122602980Y-83077151D01*
X122613470Y-83099329D01*
X122621735Y-83122429D01*
X122627696Y-83146227D01*
X122631296Y-83170496D01*
X122632500Y-83195000D01*
X122632500Y-84445000D01*
X122631296Y-84469504D01*
X122627696Y-84493773D01*
X122621735Y-84517571D01*
X122613470Y-84540671D01*
X122602980Y-84562849D01*
X122590367Y-84583893D01*
X122575753Y-84603598D01*
X122559277Y-84621777D01*
X122541098Y-84638253D01*
X122521393Y-84652867D01*
X122500349Y-84665480D01*
X122478171Y-84675970D01*
X122455071Y-84684235D01*
X122431273Y-84690196D01*
X122407004Y-84693796D01*
X122382500Y-84695000D01*
X121457500Y-84695000D01*
X121432996Y-84693796D01*
X121408727Y-84690196D01*
X121384929Y-84684235D01*
X121361829Y-84675970D01*
X121339651Y-84665480D01*
X121318607Y-84652867D01*
X121298902Y-84638253D01*
X121280723Y-84621777D01*
X121264247Y-84603598D01*
X121249633Y-84583893D01*
X121237020Y-84562849D01*
X121226530Y-84540671D01*
X121218265Y-84517571D01*
X121212304Y-84493773D01*
X121208704Y-84469504D01*
X121207500Y-84445000D01*
X121207500Y-83195000D01*
X121208704Y-83170496D01*
X121212304Y-83146227D01*
X121218265Y-83122429D01*
X121226530Y-83099329D01*
X121237020Y-83077151D01*
X121249633Y-83056107D01*
X121264247Y-83036402D01*
X121280723Y-83018223D01*
X121298902Y-83001747D01*
X121318607Y-82987133D01*
X121339651Y-82974520D01*
X121361829Y-82964030D01*
X121384929Y-82955765D01*
X121408727Y-82949804D01*
X121432996Y-82946204D01*
X121457500Y-82945000D01*
X122382500Y-82945000D01*
X122407004Y-82946204D01*
X122407004Y-82946204D01*
G37*
D17*
X121920000Y-83820000D03*
D16*
G36*
X125382004Y-82946204D02*
G01*
X125406273Y-82949804D01*
X125430071Y-82955765D01*
X125453171Y-82964030D01*
X125475349Y-82974520D01*
X125496393Y-82987133D01*
X125516098Y-83001747D01*
X125534277Y-83018223D01*
X125550753Y-83036402D01*
X125565367Y-83056107D01*
X125577980Y-83077151D01*
X125588470Y-83099329D01*
X125596735Y-83122429D01*
X125602696Y-83146227D01*
X125606296Y-83170496D01*
X125607500Y-83195000D01*
X125607500Y-84445000D01*
X125606296Y-84469504D01*
X125602696Y-84493773D01*
X125596735Y-84517571D01*
X125588470Y-84540671D01*
X125577980Y-84562849D01*
X125565367Y-84583893D01*
X125550753Y-84603598D01*
X125534277Y-84621777D01*
X125516098Y-84638253D01*
X125496393Y-84652867D01*
X125475349Y-84665480D01*
X125453171Y-84675970D01*
X125430071Y-84684235D01*
X125406273Y-84690196D01*
X125382004Y-84693796D01*
X125357500Y-84695000D01*
X124432500Y-84695000D01*
X124407996Y-84693796D01*
X124383727Y-84690196D01*
X124359929Y-84684235D01*
X124336829Y-84675970D01*
X124314651Y-84665480D01*
X124293607Y-84652867D01*
X124273902Y-84638253D01*
X124255723Y-84621777D01*
X124239247Y-84603598D01*
X124224633Y-84583893D01*
X124212020Y-84562849D01*
X124201530Y-84540671D01*
X124193265Y-84517571D01*
X124187304Y-84493773D01*
X124183704Y-84469504D01*
X124182500Y-84445000D01*
X124182500Y-83195000D01*
X124183704Y-83170496D01*
X124187304Y-83146227D01*
X124193265Y-83122429D01*
X124201530Y-83099329D01*
X124212020Y-83077151D01*
X124224633Y-83056107D01*
X124239247Y-83036402D01*
X124255723Y-83018223D01*
X124273902Y-83001747D01*
X124293607Y-82987133D01*
X124314651Y-82974520D01*
X124336829Y-82964030D01*
X124359929Y-82955765D01*
X124383727Y-82949804D01*
X124407996Y-82946204D01*
X124432500Y-82945000D01*
X125357500Y-82945000D01*
X125382004Y-82946204D01*
X125382004Y-82946204D01*
G37*
D17*
X124895000Y-83820000D03*
D16*
G36*
X116057004Y-82946204D02*
G01*
X116081273Y-82949804D01*
X116105071Y-82955765D01*
X116128171Y-82964030D01*
X116150349Y-82974520D01*
X116171393Y-82987133D01*
X116191098Y-83001747D01*
X116209277Y-83018223D01*
X116225753Y-83036402D01*
X116240367Y-83056107D01*
X116252980Y-83077151D01*
X116263470Y-83099329D01*
X116271735Y-83122429D01*
X116277696Y-83146227D01*
X116281296Y-83170496D01*
X116282500Y-83195000D01*
X116282500Y-84445000D01*
X116281296Y-84469504D01*
X116277696Y-84493773D01*
X116271735Y-84517571D01*
X116263470Y-84540671D01*
X116252980Y-84562849D01*
X116240367Y-84583893D01*
X116225753Y-84603598D01*
X116209277Y-84621777D01*
X116191098Y-84638253D01*
X116171393Y-84652867D01*
X116150349Y-84665480D01*
X116128171Y-84675970D01*
X116105071Y-84684235D01*
X116081273Y-84690196D01*
X116057004Y-84693796D01*
X116032500Y-84695000D01*
X115107500Y-84695000D01*
X115082996Y-84693796D01*
X115058727Y-84690196D01*
X115034929Y-84684235D01*
X115011829Y-84675970D01*
X114989651Y-84665480D01*
X114968607Y-84652867D01*
X114948902Y-84638253D01*
X114930723Y-84621777D01*
X114914247Y-84603598D01*
X114899633Y-84583893D01*
X114887020Y-84562849D01*
X114876530Y-84540671D01*
X114868265Y-84517571D01*
X114862304Y-84493773D01*
X114858704Y-84469504D01*
X114857500Y-84445000D01*
X114857500Y-83195000D01*
X114858704Y-83170496D01*
X114862304Y-83146227D01*
X114868265Y-83122429D01*
X114876530Y-83099329D01*
X114887020Y-83077151D01*
X114899633Y-83056107D01*
X114914247Y-83036402D01*
X114930723Y-83018223D01*
X114948902Y-83001747D01*
X114968607Y-82987133D01*
X114989651Y-82974520D01*
X115011829Y-82964030D01*
X115034929Y-82955765D01*
X115058727Y-82949804D01*
X115082996Y-82946204D01*
X115107500Y-82945000D01*
X116032500Y-82945000D01*
X116057004Y-82946204D01*
X116057004Y-82946204D01*
G37*
D17*
X115570000Y-83820000D03*
D16*
G36*
X119032004Y-82946204D02*
G01*
X119056273Y-82949804D01*
X119080071Y-82955765D01*
X119103171Y-82964030D01*
X119125349Y-82974520D01*
X119146393Y-82987133D01*
X119166098Y-83001747D01*
X119184277Y-83018223D01*
X119200753Y-83036402D01*
X119215367Y-83056107D01*
X119227980Y-83077151D01*
X119238470Y-83099329D01*
X119246735Y-83122429D01*
X119252696Y-83146227D01*
X119256296Y-83170496D01*
X119257500Y-83195000D01*
X119257500Y-84445000D01*
X119256296Y-84469504D01*
X119252696Y-84493773D01*
X119246735Y-84517571D01*
X119238470Y-84540671D01*
X119227980Y-84562849D01*
X119215367Y-84583893D01*
X119200753Y-84603598D01*
X119184277Y-84621777D01*
X119166098Y-84638253D01*
X119146393Y-84652867D01*
X119125349Y-84665480D01*
X119103171Y-84675970D01*
X119080071Y-84684235D01*
X119056273Y-84690196D01*
X119032004Y-84693796D01*
X119007500Y-84695000D01*
X118082500Y-84695000D01*
X118057996Y-84693796D01*
X118033727Y-84690196D01*
X118009929Y-84684235D01*
X117986829Y-84675970D01*
X117964651Y-84665480D01*
X117943607Y-84652867D01*
X117923902Y-84638253D01*
X117905723Y-84621777D01*
X117889247Y-84603598D01*
X117874633Y-84583893D01*
X117862020Y-84562849D01*
X117851530Y-84540671D01*
X117843265Y-84517571D01*
X117837304Y-84493773D01*
X117833704Y-84469504D01*
X117832500Y-84445000D01*
X117832500Y-83195000D01*
X117833704Y-83170496D01*
X117837304Y-83146227D01*
X117843265Y-83122429D01*
X117851530Y-83099329D01*
X117862020Y-83077151D01*
X117874633Y-83056107D01*
X117889247Y-83036402D01*
X117905723Y-83018223D01*
X117923902Y-83001747D01*
X117943607Y-82987133D01*
X117964651Y-82974520D01*
X117986829Y-82964030D01*
X118009929Y-82955765D01*
X118033727Y-82949804D01*
X118057996Y-82946204D01*
X118082500Y-82945000D01*
X119007500Y-82945000D01*
X119032004Y-82946204D01*
X119032004Y-82946204D01*
G37*
D17*
X118545000Y-83820000D03*
D16*
G36*
X128919504Y-93268704D02*
G01*
X128943773Y-93272304D01*
X128967571Y-93278265D01*
X128990671Y-93286530D01*
X129012849Y-93297020D01*
X129033893Y-93309633D01*
X129053598Y-93324247D01*
X129071777Y-93340723D01*
X129088253Y-93358902D01*
X129102867Y-93378607D01*
X129115480Y-93399651D01*
X129125970Y-93421829D01*
X129134235Y-93444929D01*
X129140196Y-93468727D01*
X129143796Y-93492996D01*
X129145000Y-93517500D01*
X129145000Y-94442500D01*
X129143796Y-94467004D01*
X129140196Y-94491273D01*
X129134235Y-94515071D01*
X129125970Y-94538171D01*
X129115480Y-94560349D01*
X129102867Y-94581393D01*
X129088253Y-94601098D01*
X129071777Y-94619277D01*
X129053598Y-94635753D01*
X129033893Y-94650367D01*
X129012849Y-94662980D01*
X128990671Y-94673470D01*
X128967571Y-94681735D01*
X128943773Y-94687696D01*
X128919504Y-94691296D01*
X128895000Y-94692500D01*
X127645000Y-94692500D01*
X127620496Y-94691296D01*
X127596227Y-94687696D01*
X127572429Y-94681735D01*
X127549329Y-94673470D01*
X127527151Y-94662980D01*
X127506107Y-94650367D01*
X127486402Y-94635753D01*
X127468223Y-94619277D01*
X127451747Y-94601098D01*
X127437133Y-94581393D01*
X127424520Y-94560349D01*
X127414030Y-94538171D01*
X127405765Y-94515071D01*
X127399804Y-94491273D01*
X127396204Y-94467004D01*
X127395000Y-94442500D01*
X127395000Y-93517500D01*
X127396204Y-93492996D01*
X127399804Y-93468727D01*
X127405765Y-93444929D01*
X127414030Y-93421829D01*
X127424520Y-93399651D01*
X127437133Y-93378607D01*
X127451747Y-93358902D01*
X127468223Y-93340723D01*
X127486402Y-93324247D01*
X127506107Y-93309633D01*
X127527151Y-93297020D01*
X127549329Y-93286530D01*
X127572429Y-93278265D01*
X127596227Y-93272304D01*
X127620496Y-93268704D01*
X127645000Y-93267500D01*
X128895000Y-93267500D01*
X128919504Y-93268704D01*
X128919504Y-93268704D01*
G37*
D17*
X128270000Y-93980000D03*
D16*
G36*
X128919504Y-90293704D02*
G01*
X128943773Y-90297304D01*
X128967571Y-90303265D01*
X128990671Y-90311530D01*
X129012849Y-90322020D01*
X129033893Y-90334633D01*
X129053598Y-90349247D01*
X129071777Y-90365723D01*
X129088253Y-90383902D01*
X129102867Y-90403607D01*
X129115480Y-90424651D01*
X129125970Y-90446829D01*
X129134235Y-90469929D01*
X129140196Y-90493727D01*
X129143796Y-90517996D01*
X129145000Y-90542500D01*
X129145000Y-91467500D01*
X129143796Y-91492004D01*
X129140196Y-91516273D01*
X129134235Y-91540071D01*
X129125970Y-91563171D01*
X129115480Y-91585349D01*
X129102867Y-91606393D01*
X129088253Y-91626098D01*
X129071777Y-91644277D01*
X129053598Y-91660753D01*
X129033893Y-91675367D01*
X129012849Y-91687980D01*
X128990671Y-91698470D01*
X128967571Y-91706735D01*
X128943773Y-91712696D01*
X128919504Y-91716296D01*
X128895000Y-91717500D01*
X127645000Y-91717500D01*
X127620496Y-91716296D01*
X127596227Y-91712696D01*
X127572429Y-91706735D01*
X127549329Y-91698470D01*
X127527151Y-91687980D01*
X127506107Y-91675367D01*
X127486402Y-91660753D01*
X127468223Y-91644277D01*
X127451747Y-91626098D01*
X127437133Y-91606393D01*
X127424520Y-91585349D01*
X127414030Y-91563171D01*
X127405765Y-91540071D01*
X127399804Y-91516273D01*
X127396204Y-91492004D01*
X127395000Y-91467500D01*
X127395000Y-90542500D01*
X127396204Y-90517996D01*
X127399804Y-90493727D01*
X127405765Y-90469929D01*
X127414030Y-90446829D01*
X127424520Y-90424651D01*
X127437133Y-90403607D01*
X127451747Y-90383902D01*
X127468223Y-90365723D01*
X127486402Y-90349247D01*
X127506107Y-90334633D01*
X127527151Y-90322020D01*
X127549329Y-90311530D01*
X127572429Y-90303265D01*
X127596227Y-90297304D01*
X127620496Y-90293704D01*
X127645000Y-90292500D01*
X128895000Y-90292500D01*
X128919504Y-90293704D01*
X128919504Y-90293704D01*
G37*
D17*
X128270000Y-91005000D03*
D16*
G36*
X162412004Y-71516204D02*
G01*
X162436273Y-71519804D01*
X162460071Y-71525765D01*
X162483171Y-71534030D01*
X162505349Y-71544520D01*
X162526393Y-71557133D01*
X162546098Y-71571747D01*
X162564277Y-71588223D01*
X162580753Y-71606402D01*
X162595367Y-71626107D01*
X162607980Y-71647151D01*
X162618470Y-71669329D01*
X162626735Y-71692429D01*
X162632696Y-71716227D01*
X162636296Y-71740496D01*
X162637500Y-71765000D01*
X162637500Y-73015000D01*
X162636296Y-73039504D01*
X162632696Y-73063773D01*
X162626735Y-73087571D01*
X162618470Y-73110671D01*
X162607980Y-73132849D01*
X162595367Y-73153893D01*
X162580753Y-73173598D01*
X162564277Y-73191777D01*
X162546098Y-73208253D01*
X162526393Y-73222867D01*
X162505349Y-73235480D01*
X162483171Y-73245970D01*
X162460071Y-73254235D01*
X162436273Y-73260196D01*
X162412004Y-73263796D01*
X162387500Y-73265000D01*
X161462500Y-73265000D01*
X161437996Y-73263796D01*
X161413727Y-73260196D01*
X161389929Y-73254235D01*
X161366829Y-73245970D01*
X161344651Y-73235480D01*
X161323607Y-73222867D01*
X161303902Y-73208253D01*
X161285723Y-73191777D01*
X161269247Y-73173598D01*
X161254633Y-73153893D01*
X161242020Y-73132849D01*
X161231530Y-73110671D01*
X161223265Y-73087571D01*
X161217304Y-73063773D01*
X161213704Y-73039504D01*
X161212500Y-73015000D01*
X161212500Y-71765000D01*
X161213704Y-71740496D01*
X161217304Y-71716227D01*
X161223265Y-71692429D01*
X161231530Y-71669329D01*
X161242020Y-71647151D01*
X161254633Y-71626107D01*
X161269247Y-71606402D01*
X161285723Y-71588223D01*
X161303902Y-71571747D01*
X161323607Y-71557133D01*
X161344651Y-71544520D01*
X161366829Y-71534030D01*
X161389929Y-71525765D01*
X161413727Y-71519804D01*
X161437996Y-71516204D01*
X161462500Y-71515000D01*
X162387500Y-71515000D01*
X162412004Y-71516204D01*
X162412004Y-71516204D01*
G37*
D17*
X161925000Y-72390000D03*
D16*
G36*
X165387004Y-71516204D02*
G01*
X165411273Y-71519804D01*
X165435071Y-71525765D01*
X165458171Y-71534030D01*
X165480349Y-71544520D01*
X165501393Y-71557133D01*
X165521098Y-71571747D01*
X165539277Y-71588223D01*
X165555753Y-71606402D01*
X165570367Y-71626107D01*
X165582980Y-71647151D01*
X165593470Y-71669329D01*
X165601735Y-71692429D01*
X165607696Y-71716227D01*
X165611296Y-71740496D01*
X165612500Y-71765000D01*
X165612500Y-73015000D01*
X165611296Y-73039504D01*
X165607696Y-73063773D01*
X165601735Y-73087571D01*
X165593470Y-73110671D01*
X165582980Y-73132849D01*
X165570367Y-73153893D01*
X165555753Y-73173598D01*
X165539277Y-73191777D01*
X165521098Y-73208253D01*
X165501393Y-73222867D01*
X165480349Y-73235480D01*
X165458171Y-73245970D01*
X165435071Y-73254235D01*
X165411273Y-73260196D01*
X165387004Y-73263796D01*
X165362500Y-73265000D01*
X164437500Y-73265000D01*
X164412996Y-73263796D01*
X164388727Y-73260196D01*
X164364929Y-73254235D01*
X164341829Y-73245970D01*
X164319651Y-73235480D01*
X164298607Y-73222867D01*
X164278902Y-73208253D01*
X164260723Y-73191777D01*
X164244247Y-73173598D01*
X164229633Y-73153893D01*
X164217020Y-73132849D01*
X164206530Y-73110671D01*
X164198265Y-73087571D01*
X164192304Y-73063773D01*
X164188704Y-73039504D01*
X164187500Y-73015000D01*
X164187500Y-71765000D01*
X164188704Y-71740496D01*
X164192304Y-71716227D01*
X164198265Y-71692429D01*
X164206530Y-71669329D01*
X164217020Y-71647151D01*
X164229633Y-71626107D01*
X164244247Y-71606402D01*
X164260723Y-71588223D01*
X164278902Y-71571747D01*
X164298607Y-71557133D01*
X164319651Y-71544520D01*
X164341829Y-71534030D01*
X164364929Y-71525765D01*
X164388727Y-71519804D01*
X164412996Y-71516204D01*
X164437500Y-71515000D01*
X165362500Y-71515000D01*
X165387004Y-71516204D01*
X165387004Y-71516204D01*
G37*
D17*
X164900000Y-72390000D03*
D16*
G36*
X164952004Y-68341204D02*
G01*
X164976273Y-68344804D01*
X165000071Y-68350765D01*
X165023171Y-68359030D01*
X165045349Y-68369520D01*
X165066393Y-68382133D01*
X165086098Y-68396747D01*
X165104277Y-68413223D01*
X165120753Y-68431402D01*
X165135367Y-68451107D01*
X165147980Y-68472151D01*
X165158470Y-68494329D01*
X165166735Y-68517429D01*
X165172696Y-68541227D01*
X165176296Y-68565496D01*
X165177500Y-68590000D01*
X165177500Y-69840000D01*
X165176296Y-69864504D01*
X165172696Y-69888773D01*
X165166735Y-69912571D01*
X165158470Y-69935671D01*
X165147980Y-69957849D01*
X165135367Y-69978893D01*
X165120753Y-69998598D01*
X165104277Y-70016777D01*
X165086098Y-70033253D01*
X165066393Y-70047867D01*
X165045349Y-70060480D01*
X165023171Y-70070970D01*
X165000071Y-70079235D01*
X164976273Y-70085196D01*
X164952004Y-70088796D01*
X164927500Y-70090000D01*
X164002500Y-70090000D01*
X163977996Y-70088796D01*
X163953727Y-70085196D01*
X163929929Y-70079235D01*
X163906829Y-70070970D01*
X163884651Y-70060480D01*
X163863607Y-70047867D01*
X163843902Y-70033253D01*
X163825723Y-70016777D01*
X163809247Y-69998598D01*
X163794633Y-69978893D01*
X163782020Y-69957849D01*
X163771530Y-69935671D01*
X163763265Y-69912571D01*
X163757304Y-69888773D01*
X163753704Y-69864504D01*
X163752500Y-69840000D01*
X163752500Y-68590000D01*
X163753704Y-68565496D01*
X163757304Y-68541227D01*
X163763265Y-68517429D01*
X163771530Y-68494329D01*
X163782020Y-68472151D01*
X163794633Y-68451107D01*
X163809247Y-68431402D01*
X163825723Y-68413223D01*
X163843902Y-68396747D01*
X163863607Y-68382133D01*
X163884651Y-68369520D01*
X163906829Y-68359030D01*
X163929929Y-68350765D01*
X163953727Y-68344804D01*
X163977996Y-68341204D01*
X164002500Y-68340000D01*
X164927500Y-68340000D01*
X164952004Y-68341204D01*
X164952004Y-68341204D01*
G37*
D17*
X164465000Y-69215000D03*
D16*
G36*
X167927004Y-68341204D02*
G01*
X167951273Y-68344804D01*
X167975071Y-68350765D01*
X167998171Y-68359030D01*
X168020349Y-68369520D01*
X168041393Y-68382133D01*
X168061098Y-68396747D01*
X168079277Y-68413223D01*
X168095753Y-68431402D01*
X168110367Y-68451107D01*
X168122980Y-68472151D01*
X168133470Y-68494329D01*
X168141735Y-68517429D01*
X168147696Y-68541227D01*
X168151296Y-68565496D01*
X168152500Y-68590000D01*
X168152500Y-69840000D01*
X168151296Y-69864504D01*
X168147696Y-69888773D01*
X168141735Y-69912571D01*
X168133470Y-69935671D01*
X168122980Y-69957849D01*
X168110367Y-69978893D01*
X168095753Y-69998598D01*
X168079277Y-70016777D01*
X168061098Y-70033253D01*
X168041393Y-70047867D01*
X168020349Y-70060480D01*
X167998171Y-70070970D01*
X167975071Y-70079235D01*
X167951273Y-70085196D01*
X167927004Y-70088796D01*
X167902500Y-70090000D01*
X166977500Y-70090000D01*
X166952996Y-70088796D01*
X166928727Y-70085196D01*
X166904929Y-70079235D01*
X166881829Y-70070970D01*
X166859651Y-70060480D01*
X166838607Y-70047867D01*
X166818902Y-70033253D01*
X166800723Y-70016777D01*
X166784247Y-69998598D01*
X166769633Y-69978893D01*
X166757020Y-69957849D01*
X166746530Y-69935671D01*
X166738265Y-69912571D01*
X166732304Y-69888773D01*
X166728704Y-69864504D01*
X166727500Y-69840000D01*
X166727500Y-68590000D01*
X166728704Y-68565496D01*
X166732304Y-68541227D01*
X166738265Y-68517429D01*
X166746530Y-68494329D01*
X166757020Y-68472151D01*
X166769633Y-68451107D01*
X166784247Y-68431402D01*
X166800723Y-68413223D01*
X166818902Y-68396747D01*
X166838607Y-68382133D01*
X166859651Y-68369520D01*
X166881829Y-68359030D01*
X166904929Y-68350765D01*
X166928727Y-68344804D01*
X166952996Y-68341204D01*
X166977500Y-68340000D01*
X167902500Y-68340000D01*
X167927004Y-68341204D01*
X167927004Y-68341204D01*
G37*
D17*
X167440000Y-69215000D03*
D10*
X117760000Y-132800000D03*
X142490000Y-140300000D03*
X167220000Y-132800000D03*
X167220000Y-62800000D03*
X142490000Y-55300000D03*
X118110000Y-62800000D03*
D18*
X142490000Y-77470000D03*
D19*
X143510000Y-121920000D03*
X125730000Y-93980000D03*
X130810000Y-88900000D03*
D20*
X167440000Y-69215000D02*
X167440000Y-66875000D01*
X167440000Y-66875000D02*
X167240000Y-66675000D01*
X167240000Y-66675000D02*
X141605000Y-66675000D01*
X141220000Y-66290000D02*
X141220000Y-59600000D01*
X141605000Y-66675000D02*
X141220000Y-66290000D01*
X167440000Y-75550000D02*
X167400000Y-75590000D01*
X167440000Y-69215000D02*
X167440000Y-75550000D01*
X127835000Y-91440000D02*
X128270000Y-91005000D01*
X123825000Y-91440000D02*
X127835000Y-91440000D01*
X162700000Y-81890000D02*
X161455000Y-80645000D01*
X165100000Y-81890000D02*
X162700000Y-81890000D01*
X161455000Y-80645000D02*
X151765000Y-80645000D01*
X151765000Y-80645000D02*
X141405000Y-91005000D01*
X118745000Y-91440000D02*
X118745000Y-97155000D01*
X132080000Y-97155000D02*
X132080000Y-91440000D01*
X141405000Y-91005000D02*
X131645000Y-91005000D01*
X132080000Y-91440000D02*
X131645000Y-91005000D01*
X131645000Y-91005000D02*
X128270000Y-91005000D01*
X123190000Y-114300000D02*
X123190000Y-97155000D01*
X118745000Y-97155000D02*
X123190000Y-97155000D01*
X123190000Y-97155000D02*
X132080000Y-97155000D01*
X165100000Y-75590000D02*
X165100000Y-81890000D01*
X164900000Y-75390000D02*
X165100000Y-75590000D01*
X164900000Y-72390000D02*
X164900000Y-75390000D01*
X166000000Y-81890000D02*
X165100000Y-81890000D01*
X168910000Y-84800000D02*
X166000000Y-81890000D01*
X168910000Y-88900000D02*
X168910000Y-84800000D01*
D21*
X137160000Y-115570000D02*
X134870000Y-115570000D01*
X143510000Y-121920000D02*
X137160000Y-115570000D01*
X128270000Y-93980000D02*
X125730000Y-93980000D01*
X125730000Y-93980000D02*
X121285000Y-93980000D01*
X121285000Y-93980000D02*
X121285000Y-91440000D01*
X118545000Y-83820000D02*
X121920000Y-83820000D01*
X121920000Y-85917370D02*
X121920000Y-83820000D01*
X123825000Y-88900000D02*
X123825000Y-87822370D01*
X123825000Y-87822370D02*
X121920000Y-85917370D01*
X124895000Y-83820000D02*
X125730000Y-83820000D01*
X125730000Y-83820000D02*
X130810000Y-88900000D01*
X161290000Y-91440000D02*
X163830000Y-88900000D01*
X147320000Y-102870000D02*
X158750000Y-91440000D01*
X158750000Y-91440000D02*
X161290000Y-91440000D01*
X150110000Y-130810000D02*
X147320000Y-130810000D01*
X147320000Y-130810000D02*
X147320000Y-102870000D01*
X166370000Y-90170000D02*
X166370000Y-88900000D01*
X153670000Y-102870000D02*
X166370000Y-90170000D01*
X153670000Y-128270000D02*
X153670000Y-102870000D01*
X150110000Y-128270000D02*
X153670000Y-128270000D01*
X134870000Y-128270000D02*
X118110000Y-128270000D01*
X118110000Y-128270000D02*
X118110000Y-114300000D01*
X118110000Y-114300000D02*
X118110000Y-107315000D01*
X118110000Y-107315000D02*
X116205000Y-105410000D01*
X116205000Y-105410000D02*
X116205000Y-91440000D01*
D22*
G36*
X165280000Y-57184876D02*
G01*
X165283067Y-57216018D01*
X165282974Y-57229360D01*
X165283941Y-57239225D01*
X165327803Y-57656534D01*
X165340734Y-57719528D01*
X165352800Y-57782781D01*
X165355665Y-57792271D01*
X165479746Y-58193111D01*
X165504670Y-58252402D01*
X165528789Y-58312100D01*
X165533444Y-58320852D01*
X165733018Y-58689958D01*
X165768999Y-58743302D01*
X165804239Y-58797154D01*
X165810505Y-58804836D01*
X165862000Y-58867083D01*
X165862000Y-59309000D01*
X165864440Y-59333776D01*
X165871667Y-59357601D01*
X165883403Y-59379557D01*
X165899197Y-59398803D01*
X165918443Y-59414597D01*
X165940399Y-59426333D01*
X165964224Y-59433560D01*
X165989000Y-59436000D01*
X166434041Y-59436000D01*
X166501467Y-59490991D01*
X166555061Y-59526599D01*
X166608164Y-59562959D01*
X166616884Y-59567674D01*
X166987375Y-59764667D01*
X167046852Y-59789182D01*
X167106016Y-59814539D01*
X167115486Y-59817471D01*
X167517182Y-59938751D01*
X167580280Y-59951245D01*
X167643254Y-59964630D01*
X167653113Y-59965666D01*
X168070717Y-60006612D01*
X168070723Y-60006612D01*
X168105123Y-60010000D01*
X173780001Y-60010000D01*
X173780000Y-135590000D01*
X168105123Y-135590000D01*
X168073981Y-135593067D01*
X168060641Y-135592974D01*
X168050775Y-135593941D01*
X167633467Y-135637802D01*
X167570448Y-135650738D01*
X167507219Y-135662800D01*
X167497729Y-135665665D01*
X167096888Y-135789746D01*
X167037568Y-135814682D01*
X166977900Y-135838790D01*
X166969147Y-135843444D01*
X166600042Y-136043019D01*
X166546725Y-136078982D01*
X166492846Y-136114239D01*
X166485164Y-136120505D01*
X166456763Y-136144000D01*
X165989000Y-136144000D01*
X165964224Y-136146440D01*
X165940399Y-136153667D01*
X165918443Y-136165403D01*
X165899197Y-136181197D01*
X165883403Y-136200443D01*
X165871667Y-136222399D01*
X165864440Y-136246224D01*
X165862000Y-136271000D01*
X165862000Y-136734232D01*
X165799009Y-136811467D01*
X165763424Y-136865027D01*
X165727041Y-136918163D01*
X165722326Y-136926884D01*
X165525333Y-137297375D01*
X165500813Y-137356864D01*
X165475461Y-137416016D01*
X165472529Y-137425486D01*
X165351249Y-137827183D01*
X165338751Y-137890302D01*
X165325371Y-137953253D01*
X165324335Y-137963112D01*
X165283388Y-138380717D01*
X165283388Y-138380724D01*
X165280000Y-138415124D01*
X165280001Y-144090000D01*
X119700000Y-144090000D01*
X119700000Y-140065098D01*
X140105000Y-140065098D01*
X140105000Y-140534902D01*
X140196654Y-140995679D01*
X140376440Y-141429721D01*
X140637450Y-141820349D01*
X140969651Y-142152550D01*
X141360279Y-142413560D01*
X141794321Y-142593346D01*
X142255098Y-142685000D01*
X142724902Y-142685000D01*
X143185679Y-142593346D01*
X143619721Y-142413560D01*
X144010349Y-142152550D01*
X144342550Y-141820349D01*
X144603560Y-141429721D01*
X144783346Y-140995679D01*
X144875000Y-140534902D01*
X144875000Y-140065098D01*
X144783346Y-139604321D01*
X144603560Y-139170279D01*
X144342550Y-138779651D01*
X144010349Y-138447450D01*
X143619721Y-138186440D01*
X143185679Y-138006654D01*
X142724902Y-137915000D01*
X142255098Y-137915000D01*
X141794321Y-138006654D01*
X141360279Y-138186440D01*
X140969651Y-138447450D01*
X140637450Y-138779651D01*
X140376440Y-139170279D01*
X140196654Y-139604321D01*
X140105000Y-140065098D01*
X119700000Y-140065098D01*
X119700000Y-138415123D01*
X119696933Y-138383981D01*
X119697026Y-138370641D01*
X119696059Y-138360775D01*
X119652198Y-137943467D01*
X119639262Y-137880448D01*
X119627200Y-137817219D01*
X119624335Y-137807729D01*
X119500254Y-137406888D01*
X119475318Y-137347568D01*
X119451210Y-137287900D01*
X119446556Y-137279147D01*
X119246981Y-136910042D01*
X119211018Y-136856725D01*
X119175761Y-136802846D01*
X119169495Y-136795164D01*
X119126000Y-136742588D01*
X119126000Y-136271000D01*
X119123560Y-136246224D01*
X119116333Y-136222399D01*
X119104597Y-136200443D01*
X119088803Y-136181197D01*
X119069557Y-136165403D01*
X119047601Y-136153667D01*
X119023776Y-136146440D01*
X118999000Y-136144000D01*
X118521436Y-136144000D01*
X118478533Y-136109009D01*
X118424973Y-136073424D01*
X118371837Y-136037041D01*
X118363116Y-136032326D01*
X117992625Y-135835333D01*
X117933136Y-135810813D01*
X117873984Y-135785461D01*
X117864514Y-135782529D01*
X117462817Y-135661249D01*
X117399698Y-135648751D01*
X117336747Y-135635371D01*
X117326890Y-135634335D01*
X117326888Y-135634335D01*
X116909283Y-135593388D01*
X116909277Y-135593388D01*
X116874877Y-135590000D01*
X111200000Y-135590000D01*
X111200000Y-132565098D01*
X115375000Y-132565098D01*
X115375000Y-133034902D01*
X115466654Y-133495679D01*
X115646440Y-133929721D01*
X115907450Y-134320349D01*
X116239651Y-134652550D01*
X116630279Y-134913560D01*
X117064321Y-135093346D01*
X117525098Y-135185000D01*
X117994902Y-135185000D01*
X118455679Y-135093346D01*
X118889721Y-134913560D01*
X119280349Y-134652550D01*
X119612550Y-134320349D01*
X119873560Y-133929721D01*
X120053346Y-133495679D01*
X120145000Y-133034902D01*
X120145000Y-132565098D01*
X164835000Y-132565098D01*
X164835000Y-133034902D01*
X164926654Y-133495679D01*
X165106440Y-133929721D01*
X165367450Y-134320349D01*
X165699651Y-134652550D01*
X166090279Y-134913560D01*
X166524321Y-135093346D01*
X166985098Y-135185000D01*
X167454902Y-135185000D01*
X167915679Y-135093346D01*
X168349721Y-134913560D01*
X168740349Y-134652550D01*
X169072550Y-134320349D01*
X169333560Y-133929721D01*
X169513346Y-133495679D01*
X169605000Y-133034902D01*
X169605000Y-132565098D01*
X169513346Y-132104321D01*
X169333560Y-131670279D01*
X169072550Y-131279651D01*
X168740349Y-130947450D01*
X168349721Y-130686440D01*
X167915679Y-130506654D01*
X167454902Y-130415000D01*
X166985098Y-130415000D01*
X166524321Y-130506654D01*
X166090279Y-130686440D01*
X165699651Y-130947450D01*
X165367450Y-131279651D01*
X165106440Y-131670279D01*
X164926654Y-132104321D01*
X164835000Y-132565098D01*
X120145000Y-132565098D01*
X120053346Y-132104321D01*
X119873560Y-131670279D01*
X119612550Y-131279651D01*
X119280349Y-130947450D01*
X118889721Y-130686440D01*
X118455679Y-130506654D01*
X117994902Y-130415000D01*
X117525098Y-130415000D01*
X117064321Y-130506654D01*
X116630279Y-130686440D01*
X116239651Y-130947450D01*
X115907450Y-131279651D01*
X115646440Y-131670279D01*
X115466654Y-132104321D01*
X115375000Y-132565098D01*
X111200000Y-132565098D01*
X111200000Y-114300000D01*
X114077815Y-114300000D01*
X114106487Y-114591111D01*
X114191401Y-114871034D01*
X114329294Y-115129014D01*
X114514866Y-115355134D01*
X114740986Y-115540706D01*
X114998966Y-115678599D01*
X115278889Y-115763513D01*
X115497050Y-115785000D01*
X115642950Y-115785000D01*
X115861111Y-115763513D01*
X116141034Y-115678599D01*
X116399014Y-115540706D01*
X116625134Y-115355134D01*
X116810706Y-115129014D01*
X116840000Y-115074209D01*
X116869294Y-115129014D01*
X117054866Y-115355134D01*
X117280986Y-115540706D01*
X117350001Y-115577595D01*
X117350000Y-128232667D01*
X117346323Y-128270000D01*
X117360997Y-128418986D01*
X117404454Y-128562247D01*
X117475026Y-128694276D01*
X117569999Y-128810001D01*
X117685724Y-128904974D01*
X117817753Y-128975546D01*
X117961014Y-129019003D01*
X118110000Y-129033677D01*
X118147333Y-129030000D01*
X133697659Y-129030000D01*
X133784880Y-129160535D01*
X133979465Y-129355120D01*
X134208273Y-129508005D01*
X134285515Y-129540000D01*
X134208273Y-129571995D01*
X133979465Y-129724880D01*
X133784880Y-129919465D01*
X133631995Y-130148273D01*
X133526686Y-130402510D01*
X133473000Y-130672408D01*
X133473000Y-130947592D01*
X133526686Y-131217490D01*
X133631995Y-131471727D01*
X133784880Y-131700535D01*
X133979465Y-131895120D01*
X134208273Y-132048005D01*
X134462510Y-132153314D01*
X134732408Y-132207000D01*
X135007592Y-132207000D01*
X135277490Y-132153314D01*
X135531727Y-132048005D01*
X135760535Y-131895120D01*
X135955120Y-131700535D01*
X136108005Y-131471727D01*
X136213314Y-131217490D01*
X136267000Y-130947592D01*
X136267000Y-130672408D01*
X136213314Y-130402510D01*
X136108005Y-130148273D01*
X135955120Y-129919465D01*
X135760535Y-129724880D01*
X135531727Y-129571995D01*
X135454485Y-129540000D01*
X135531727Y-129508005D01*
X135760535Y-129355120D01*
X135955120Y-129160535D01*
X136108005Y-128931727D01*
X136213314Y-128677490D01*
X136267000Y-128407592D01*
X136267000Y-128132408D01*
X136213314Y-127862510D01*
X136108005Y-127608273D01*
X135955120Y-127379465D01*
X135760535Y-127184880D01*
X135531727Y-127031995D01*
X135454485Y-127000000D01*
X135531727Y-126968005D01*
X135760535Y-126815120D01*
X135955120Y-126620535D01*
X136108005Y-126391727D01*
X136213314Y-126137490D01*
X136267000Y-125867592D01*
X136267000Y-125592408D01*
X136213314Y-125322510D01*
X136108005Y-125068273D01*
X135955120Y-124839465D01*
X135760535Y-124644880D01*
X135531727Y-124491995D01*
X135454485Y-124460000D01*
X135531727Y-124428005D01*
X135760535Y-124275120D01*
X135955120Y-124080535D01*
X136108005Y-123851727D01*
X136213314Y-123597490D01*
X136267000Y-123327592D01*
X136267000Y-123052408D01*
X136213314Y-122782510D01*
X136108005Y-122528273D01*
X135955120Y-122299465D01*
X135760535Y-122104880D01*
X135531727Y-121951995D01*
X135454485Y-121920000D01*
X135531727Y-121888005D01*
X135760535Y-121735120D01*
X135955120Y-121540535D01*
X136108005Y-121311727D01*
X136213314Y-121057490D01*
X136267000Y-120787592D01*
X136267000Y-120512408D01*
X136213314Y-120242510D01*
X136108005Y-119988273D01*
X135955120Y-119759465D01*
X135760535Y-119564880D01*
X135531727Y-119411995D01*
X135454485Y-119380000D01*
X135531727Y-119348005D01*
X135760535Y-119195120D01*
X135955120Y-119000535D01*
X136108005Y-118771727D01*
X136213314Y-118517490D01*
X136267000Y-118247592D01*
X136267000Y-117972408D01*
X136213314Y-117702510D01*
X136108005Y-117448273D01*
X135955120Y-117219465D01*
X135760535Y-117024880D01*
X135531727Y-116871995D01*
X135454485Y-116840000D01*
X135531727Y-116808005D01*
X135760535Y-116655120D01*
X135955120Y-116460535D01*
X136042341Y-116330000D01*
X136845199Y-116330000D01*
X142475000Y-121959802D01*
X142475000Y-122021939D01*
X142514774Y-122221898D01*
X142592795Y-122410256D01*
X142706063Y-122579774D01*
X142850226Y-122723937D01*
X143019744Y-122837205D01*
X143208102Y-122915226D01*
X143408061Y-122955000D01*
X143611939Y-122955000D01*
X143811898Y-122915226D01*
X144000256Y-122837205D01*
X144169774Y-122723937D01*
X144313937Y-122579774D01*
X144427205Y-122410256D01*
X144505226Y-122221898D01*
X144545000Y-122021939D01*
X144545000Y-121818061D01*
X144505226Y-121618102D01*
X144427205Y-121429744D01*
X144313937Y-121260226D01*
X144169774Y-121116063D01*
X144000256Y-121002795D01*
X143811898Y-120924774D01*
X143611939Y-120885000D01*
X143549802Y-120885000D01*
X137723804Y-115059003D01*
X137700001Y-115029999D01*
X137584276Y-114935026D01*
X137452247Y-114864454D01*
X137308986Y-114820997D01*
X137197333Y-114810000D01*
X137197322Y-114810000D01*
X137160000Y-114806324D01*
X137122678Y-114810000D01*
X136042341Y-114810000D01*
X135955120Y-114679465D01*
X135760535Y-114484880D01*
X135531727Y-114331995D01*
X135454485Y-114300000D01*
X135531727Y-114268005D01*
X135760535Y-114115120D01*
X135955120Y-113920535D01*
X136108005Y-113691727D01*
X136213314Y-113437490D01*
X136267000Y-113167592D01*
X136267000Y-112892408D01*
X136213314Y-112622510D01*
X136108005Y-112368273D01*
X135955120Y-112139465D01*
X135760535Y-111944880D01*
X135531727Y-111791995D01*
X135454485Y-111760000D01*
X135531727Y-111728005D01*
X135760535Y-111575120D01*
X135955120Y-111380535D01*
X136108005Y-111151727D01*
X136213314Y-110897490D01*
X136267000Y-110627592D01*
X136267000Y-110352408D01*
X136213314Y-110082510D01*
X136108005Y-109828273D01*
X135955120Y-109599465D01*
X135760535Y-109404880D01*
X135531727Y-109251995D01*
X135454485Y-109220000D01*
X135531727Y-109188005D01*
X135760535Y-109035120D01*
X135955120Y-108840535D01*
X136108005Y-108611727D01*
X136213314Y-108357490D01*
X136267000Y-108087592D01*
X136267000Y-107812408D01*
X136213314Y-107542510D01*
X136108005Y-107288273D01*
X135955120Y-107059465D01*
X135760535Y-106864880D01*
X135531727Y-106711995D01*
X135460057Y-106682308D01*
X135473023Y-106677636D01*
X135588980Y-106615656D01*
X135655960Y-106375565D01*
X134870000Y-105589605D01*
X134084040Y-106375565D01*
X134151020Y-106615656D01*
X134286760Y-106679485D01*
X134208273Y-106711995D01*
X133979465Y-106864880D01*
X133784880Y-107059465D01*
X133631995Y-107288273D01*
X133526686Y-107542510D01*
X133473000Y-107812408D01*
X133473000Y-108087592D01*
X133526686Y-108357490D01*
X133631995Y-108611727D01*
X133784880Y-108840535D01*
X133979465Y-109035120D01*
X134208273Y-109188005D01*
X134285515Y-109220000D01*
X134208273Y-109251995D01*
X133979465Y-109404880D01*
X133784880Y-109599465D01*
X133631995Y-109828273D01*
X133526686Y-110082510D01*
X133473000Y-110352408D01*
X133473000Y-110627592D01*
X133526686Y-110897490D01*
X133631995Y-111151727D01*
X133784880Y-111380535D01*
X133979465Y-111575120D01*
X134208273Y-111728005D01*
X134285515Y-111760000D01*
X134208273Y-111791995D01*
X133979465Y-111944880D01*
X133784880Y-112139465D01*
X133631995Y-112368273D01*
X133526686Y-112622510D01*
X133473000Y-112892408D01*
X133473000Y-113167592D01*
X133526686Y-113437490D01*
X133631995Y-113691727D01*
X133784880Y-113920535D01*
X133979465Y-114115120D01*
X134208273Y-114268005D01*
X134285515Y-114300000D01*
X134208273Y-114331995D01*
X133979465Y-114484880D01*
X133784880Y-114679465D01*
X133631995Y-114908273D01*
X133526686Y-115162510D01*
X133473000Y-115432408D01*
X133473000Y-115707592D01*
X133526686Y-115977490D01*
X133631995Y-116231727D01*
X133784880Y-116460535D01*
X133979465Y-116655120D01*
X134208273Y-116808005D01*
X134285515Y-116840000D01*
X134208273Y-116871995D01*
X133979465Y-117024880D01*
X133784880Y-117219465D01*
X133631995Y-117448273D01*
X133526686Y-117702510D01*
X133473000Y-117972408D01*
X133473000Y-118247592D01*
X133526686Y-118517490D01*
X133631995Y-118771727D01*
X133784880Y-119000535D01*
X133979465Y-119195120D01*
X134208273Y-119348005D01*
X134285515Y-119380000D01*
X134208273Y-119411995D01*
X133979465Y-119564880D01*
X133784880Y-119759465D01*
X133631995Y-119988273D01*
X133526686Y-120242510D01*
X133473000Y-120512408D01*
X133473000Y-120787592D01*
X133526686Y-121057490D01*
X133631995Y-121311727D01*
X133784880Y-121540535D01*
X133979465Y-121735120D01*
X134208273Y-121888005D01*
X134285515Y-121920000D01*
X134208273Y-121951995D01*
X133979465Y-122104880D01*
X133784880Y-122299465D01*
X133631995Y-122528273D01*
X133526686Y-122782510D01*
X133473000Y-123052408D01*
X133473000Y-123327592D01*
X133526686Y-123597490D01*
X133631995Y-123851727D01*
X133784880Y-124080535D01*
X133979465Y-124275120D01*
X134208273Y-124428005D01*
X134285515Y-124460000D01*
X134208273Y-124491995D01*
X133979465Y-124644880D01*
X133784880Y-124839465D01*
X133631995Y-125068273D01*
X133526686Y-125322510D01*
X133473000Y-125592408D01*
X133473000Y-125867592D01*
X133526686Y-126137490D01*
X133631995Y-126391727D01*
X133784880Y-126620535D01*
X133979465Y-126815120D01*
X134208273Y-126968005D01*
X134285515Y-127000000D01*
X134208273Y-127031995D01*
X133979465Y-127184880D01*
X133784880Y-127379465D01*
X133697659Y-127510000D01*
X118870000Y-127510000D01*
X118870000Y-115577595D01*
X118939014Y-115540706D01*
X119165134Y-115355134D01*
X119350706Y-115129014D01*
X119380000Y-115074209D01*
X119409294Y-115129014D01*
X119594866Y-115355134D01*
X119820986Y-115540706D01*
X120078966Y-115678599D01*
X120358889Y-115763513D01*
X120577050Y-115785000D01*
X120722950Y-115785000D01*
X120941111Y-115763513D01*
X121221034Y-115678599D01*
X121479014Y-115540706D01*
X121705134Y-115355134D01*
X121890706Y-115129014D01*
X121920000Y-115074209D01*
X121949294Y-115129014D01*
X122134866Y-115355134D01*
X122360986Y-115540706D01*
X122618966Y-115678599D01*
X122898889Y-115763513D01*
X123117050Y-115785000D01*
X123262950Y-115785000D01*
X123481111Y-115763513D01*
X123761034Y-115678599D01*
X124019014Y-115540706D01*
X124245134Y-115355134D01*
X124430706Y-115129014D01*
X124460000Y-115074209D01*
X124489294Y-115129014D01*
X124674866Y-115355134D01*
X124900986Y-115540706D01*
X125158966Y-115678599D01*
X125438889Y-115763513D01*
X125657050Y-115785000D01*
X125802950Y-115785000D01*
X126021111Y-115763513D01*
X126301034Y-115678599D01*
X126559014Y-115540706D01*
X126785134Y-115355134D01*
X126809607Y-115325313D01*
X126830498Y-115394180D01*
X126889463Y-115504494D01*
X126968815Y-115601185D01*
X127065506Y-115680537D01*
X127175820Y-115739502D01*
X127295518Y-115775812D01*
X127420000Y-115788072D01*
X127984250Y-115785000D01*
X128143000Y-115626250D01*
X128143000Y-114427000D01*
X128397000Y-114427000D01*
X128397000Y-115626250D01*
X128555750Y-115785000D01*
X129120000Y-115788072D01*
X129244482Y-115775812D01*
X129364180Y-115739502D01*
X129474494Y-115680537D01*
X129571185Y-115601185D01*
X129650537Y-115504494D01*
X129709502Y-115394180D01*
X129745812Y-115274482D01*
X129758072Y-115150000D01*
X129755000Y-114585750D01*
X129596250Y-114427000D01*
X128397000Y-114427000D01*
X128143000Y-114427000D01*
X128123000Y-114427000D01*
X128123000Y-114173000D01*
X128143000Y-114173000D01*
X128143000Y-112973750D01*
X128397000Y-112973750D01*
X128397000Y-114173000D01*
X129596250Y-114173000D01*
X129755000Y-114014250D01*
X129758072Y-113450000D01*
X129745812Y-113325518D01*
X129709502Y-113205820D01*
X129650537Y-113095506D01*
X129571185Y-112998815D01*
X129474494Y-112919463D01*
X129364180Y-112860498D01*
X129244482Y-112824188D01*
X129120000Y-112811928D01*
X128555750Y-112815000D01*
X128397000Y-112973750D01*
X128143000Y-112973750D01*
X127984250Y-112815000D01*
X127420000Y-112811928D01*
X127295518Y-112824188D01*
X127175820Y-112860498D01*
X127065506Y-112919463D01*
X126968815Y-112998815D01*
X126889463Y-113095506D01*
X126830498Y-113205820D01*
X126809607Y-113274687D01*
X126785134Y-113244866D01*
X126559014Y-113059294D01*
X126301034Y-112921401D01*
X126021111Y-112836487D01*
X125802950Y-112815000D01*
X125657050Y-112815000D01*
X125438889Y-112836487D01*
X125158966Y-112921401D01*
X124900986Y-113059294D01*
X124674866Y-113244866D01*
X124489294Y-113470986D01*
X124460000Y-113525791D01*
X124430706Y-113470986D01*
X124245134Y-113244866D01*
X124075000Y-113105241D01*
X124075000Y-105482017D01*
X133468090Y-105482017D01*
X133509078Y-105754133D01*
X133602364Y-106013023D01*
X133664344Y-106128980D01*
X133904435Y-106195960D01*
X134690395Y-105410000D01*
X135049605Y-105410000D01*
X135835565Y-106195960D01*
X136075656Y-106128980D01*
X136192756Y-105879952D01*
X136259023Y-105612865D01*
X136271910Y-105337983D01*
X136230922Y-105065867D01*
X136137636Y-104806977D01*
X136075656Y-104691020D01*
X135835565Y-104624040D01*
X135049605Y-105410000D01*
X134690395Y-105410000D01*
X133904435Y-104624040D01*
X133664344Y-104691020D01*
X133547244Y-104940048D01*
X133480977Y-105207135D01*
X133468090Y-105482017D01*
X124075000Y-105482017D01*
X124075000Y-102732408D01*
X133473000Y-102732408D01*
X133473000Y-103007592D01*
X133526686Y-103277490D01*
X133631995Y-103531727D01*
X133784880Y-103760535D01*
X133979465Y-103955120D01*
X134208273Y-104108005D01*
X134279943Y-104137692D01*
X134266977Y-104142364D01*
X134151020Y-104204344D01*
X134084040Y-104444435D01*
X134870000Y-105230395D01*
X135655960Y-104444435D01*
X135588980Y-104204344D01*
X135453240Y-104140515D01*
X135531727Y-104108005D01*
X135760535Y-103955120D01*
X135955120Y-103760535D01*
X136108005Y-103531727D01*
X136213314Y-103277490D01*
X136267000Y-103007592D01*
X136267000Y-102732408D01*
X136213314Y-102462510D01*
X136108005Y-102208273D01*
X135955120Y-101979465D01*
X135760535Y-101784880D01*
X135531727Y-101631995D01*
X135277490Y-101526686D01*
X135007592Y-101473000D01*
X134732408Y-101473000D01*
X134462510Y-101526686D01*
X134208273Y-101631995D01*
X133979465Y-101784880D01*
X133784880Y-101979465D01*
X133631995Y-102208273D01*
X133526686Y-102462510D01*
X133473000Y-102732408D01*
X124075000Y-102732408D01*
X124075000Y-98040000D01*
X132036523Y-98040000D01*
X132080000Y-98044282D01*
X132123476Y-98040000D01*
X132123477Y-98040000D01*
X132253490Y-98027195D01*
X132420313Y-97976589D01*
X132574059Y-97894411D01*
X132708817Y-97783817D01*
X132819411Y-97649059D01*
X132901589Y-97495313D01*
X132952195Y-97328490D01*
X132969282Y-97155000D01*
X132965000Y-97111523D01*
X132965000Y-91890000D01*
X141361531Y-91890000D01*
X141405000Y-91894281D01*
X141448469Y-91890000D01*
X141448477Y-91890000D01*
X141578490Y-91877195D01*
X141745313Y-91826589D01*
X141899059Y-91744411D01*
X142033817Y-91633817D01*
X142061534Y-91600044D01*
X144689561Y-88972017D01*
X159888090Y-88972017D01*
X159929078Y-89244133D01*
X160022364Y-89503023D01*
X160084344Y-89618980D01*
X160324435Y-89685960D01*
X161110395Y-88900000D01*
X160324435Y-88114040D01*
X160084344Y-88181020D01*
X159967244Y-88430048D01*
X159900977Y-88697135D01*
X159888090Y-88972017D01*
X144689561Y-88972017D01*
X145727143Y-87934435D01*
X160504040Y-87934435D01*
X161290000Y-88720395D01*
X162075960Y-87934435D01*
X162008980Y-87694344D01*
X161759952Y-87577244D01*
X161492865Y-87510977D01*
X161217983Y-87498090D01*
X160945867Y-87539078D01*
X160686977Y-87632364D01*
X160571020Y-87694344D01*
X160504040Y-87934435D01*
X145727143Y-87934435D01*
X152131579Y-81530000D01*
X153829688Y-81530000D01*
X153444321Y-81606654D01*
X153010279Y-81786440D01*
X152619651Y-82047450D01*
X152287450Y-82379651D01*
X152026440Y-82770279D01*
X151846654Y-83204321D01*
X151755000Y-83665098D01*
X151755000Y-84134902D01*
X151846654Y-84595679D01*
X152026440Y-85029721D01*
X152287450Y-85420349D01*
X152619651Y-85752550D01*
X153010279Y-86013560D01*
X153444321Y-86193346D01*
X153905098Y-86285000D01*
X154374902Y-86285000D01*
X154835679Y-86193346D01*
X155269721Y-86013560D01*
X155660349Y-85752550D01*
X155992550Y-85420349D01*
X156253560Y-85029721D01*
X156433346Y-84595679D01*
X156525000Y-84134902D01*
X156525000Y-83665098D01*
X156433346Y-83204321D01*
X156253560Y-82770279D01*
X155992550Y-82379651D01*
X155660349Y-82047450D01*
X155269721Y-81786440D01*
X154835679Y-81606654D01*
X154450312Y-81530000D01*
X161088422Y-81530000D01*
X162043470Y-82485049D01*
X162071183Y-82518817D01*
X162104951Y-82546530D01*
X162104953Y-82546532D01*
X162205941Y-82629411D01*
X162359687Y-82711589D01*
X162526510Y-82762195D01*
X162561928Y-82765683D01*
X162561928Y-82890000D01*
X162574188Y-83014482D01*
X162610498Y-83134180D01*
X162669463Y-83244494D01*
X162748815Y-83341185D01*
X162845506Y-83420537D01*
X162955820Y-83479502D01*
X163075518Y-83515812D01*
X163200000Y-83528072D01*
X166386494Y-83528072D01*
X168025001Y-85166580D01*
X168025000Y-87811181D01*
X168019465Y-87814880D01*
X167824880Y-88009465D01*
X167671995Y-88238273D01*
X167640000Y-88315515D01*
X167608005Y-88238273D01*
X167455120Y-88009465D01*
X167260535Y-87814880D01*
X167031727Y-87661995D01*
X166777490Y-87556686D01*
X166507592Y-87503000D01*
X166232408Y-87503000D01*
X165962510Y-87556686D01*
X165708273Y-87661995D01*
X165479465Y-87814880D01*
X165284880Y-88009465D01*
X165131995Y-88238273D01*
X165100000Y-88315515D01*
X165068005Y-88238273D01*
X164915120Y-88009465D01*
X164720535Y-87814880D01*
X164491727Y-87661995D01*
X164237490Y-87556686D01*
X163967592Y-87503000D01*
X163692408Y-87503000D01*
X163422510Y-87556686D01*
X163168273Y-87661995D01*
X162939465Y-87814880D01*
X162744880Y-88009465D01*
X162591995Y-88238273D01*
X162562308Y-88309943D01*
X162557636Y-88296977D01*
X162495656Y-88181020D01*
X162255565Y-88114040D01*
X161469605Y-88900000D01*
X161483748Y-88914143D01*
X161304143Y-89093748D01*
X161290000Y-89079605D01*
X160504040Y-89865565D01*
X160571020Y-90105656D01*
X160820048Y-90222756D01*
X161087135Y-90289023D01*
X161353679Y-90301519D01*
X160975199Y-90680000D01*
X158787322Y-90680000D01*
X158749999Y-90676324D01*
X158712677Y-90680000D01*
X158712667Y-90680000D01*
X158601014Y-90690997D01*
X158457753Y-90734454D01*
X158325723Y-90805026D01*
X158242083Y-90873668D01*
X158209999Y-90899999D01*
X158186201Y-90928997D01*
X146808998Y-102306201D01*
X146780000Y-102329999D01*
X146756202Y-102358997D01*
X146756201Y-102358998D01*
X146685026Y-102445724D01*
X146614454Y-102577754D01*
X146570998Y-102721015D01*
X146556324Y-102870000D01*
X146560001Y-102907333D01*
X146560000Y-130772667D01*
X146556323Y-130810000D01*
X146570997Y-130958986D01*
X146614454Y-131102247D01*
X146685026Y-131234276D01*
X146779999Y-131350001D01*
X146895724Y-131444974D01*
X147027753Y-131515546D01*
X147171014Y-131559003D01*
X147320000Y-131573677D01*
X147357333Y-131570000D01*
X148937659Y-131570000D01*
X149024880Y-131700535D01*
X149219465Y-131895120D01*
X149448273Y-132048005D01*
X149702510Y-132153314D01*
X149972408Y-132207000D01*
X150247592Y-132207000D01*
X150517490Y-132153314D01*
X150771727Y-132048005D01*
X151000535Y-131895120D01*
X151195120Y-131700535D01*
X151348005Y-131471727D01*
X151453314Y-131217490D01*
X151507000Y-130947592D01*
X151507000Y-130672408D01*
X151453314Y-130402510D01*
X151348005Y-130148273D01*
X151195120Y-129919465D01*
X151000535Y-129724880D01*
X150771727Y-129571995D01*
X150694485Y-129540000D01*
X150771727Y-129508005D01*
X151000535Y-129355120D01*
X151195120Y-129160535D01*
X151282341Y-129030000D01*
X153632667Y-129030000D01*
X153670000Y-129033677D01*
X153707333Y-129030000D01*
X153818986Y-129019003D01*
X153962247Y-128975546D01*
X154094276Y-128904974D01*
X154210001Y-128810001D01*
X154304974Y-128694276D01*
X154375546Y-128562247D01*
X154419003Y-128418986D01*
X154433677Y-128270000D01*
X154430000Y-128232667D01*
X154430000Y-114300000D01*
X159797815Y-114300000D01*
X159826487Y-114591111D01*
X159911401Y-114871034D01*
X160049294Y-115129014D01*
X160234866Y-115355134D01*
X160460986Y-115540706D01*
X160718966Y-115678599D01*
X160998889Y-115763513D01*
X161217050Y-115785000D01*
X161362950Y-115785000D01*
X161581111Y-115763513D01*
X161861034Y-115678599D01*
X162119014Y-115540706D01*
X162345134Y-115355134D01*
X162369607Y-115325313D01*
X162390498Y-115394180D01*
X162449463Y-115504494D01*
X162528815Y-115601185D01*
X162625506Y-115680537D01*
X162735820Y-115739502D01*
X162855518Y-115775812D01*
X162980000Y-115788072D01*
X163544250Y-115785000D01*
X163703000Y-115626250D01*
X163703000Y-114427000D01*
X163957000Y-114427000D01*
X163957000Y-115626250D01*
X164115750Y-115785000D01*
X164680000Y-115788072D01*
X164804482Y-115775812D01*
X164924180Y-115739502D01*
X165034494Y-115680537D01*
X165131185Y-115601185D01*
X165210537Y-115504494D01*
X165269502Y-115394180D01*
X165305812Y-115274482D01*
X165318072Y-115150000D01*
X165315000Y-114585750D01*
X165156250Y-114427000D01*
X163957000Y-114427000D01*
X163703000Y-114427000D01*
X163683000Y-114427000D01*
X163683000Y-114173000D01*
X163703000Y-114173000D01*
X163703000Y-112973750D01*
X163957000Y-112973750D01*
X163957000Y-114173000D01*
X165156250Y-114173000D01*
X165315000Y-114014250D01*
X165318072Y-113450000D01*
X165305812Y-113325518D01*
X165269502Y-113205820D01*
X165210537Y-113095506D01*
X165131185Y-112998815D01*
X165034494Y-112919463D01*
X164924180Y-112860498D01*
X164804482Y-112824188D01*
X164680000Y-112811928D01*
X164115750Y-112815000D01*
X163957000Y-112973750D01*
X163703000Y-112973750D01*
X163544250Y-112815000D01*
X162980000Y-112811928D01*
X162855518Y-112824188D01*
X162735820Y-112860498D01*
X162625506Y-112919463D01*
X162528815Y-112998815D01*
X162449463Y-113095506D01*
X162390498Y-113205820D01*
X162369607Y-113274687D01*
X162345134Y-113244866D01*
X162119014Y-113059294D01*
X161861034Y-112921401D01*
X161581111Y-112836487D01*
X161362950Y-112815000D01*
X161217050Y-112815000D01*
X160998889Y-112836487D01*
X160718966Y-112921401D01*
X160460986Y-113059294D01*
X160234866Y-113244866D01*
X160049294Y-113470986D01*
X159911401Y-113728966D01*
X159826487Y-114008889D01*
X159797815Y-114300000D01*
X154430000Y-114300000D01*
X154430000Y-103184801D01*
X166881004Y-90733798D01*
X166910001Y-90710001D01*
X167004974Y-90594276D01*
X167075546Y-90462247D01*
X167119003Y-90318986D01*
X167130000Y-90207333D01*
X167130000Y-90207324D01*
X167133676Y-90170001D01*
X167130000Y-90132678D01*
X167130000Y-90072341D01*
X167260535Y-89985120D01*
X167455120Y-89790535D01*
X167608005Y-89561727D01*
X167640000Y-89484485D01*
X167671995Y-89561727D01*
X167824880Y-89790535D01*
X168019465Y-89985120D01*
X168248273Y-90138005D01*
X168502510Y-90243314D01*
X168772408Y-90297000D01*
X169047592Y-90297000D01*
X169317490Y-90243314D01*
X169571727Y-90138005D01*
X169800535Y-89985120D01*
X169995120Y-89790535D01*
X170148005Y-89561727D01*
X170253314Y-89307490D01*
X170307000Y-89037592D01*
X170307000Y-88762408D01*
X170253314Y-88492510D01*
X170148005Y-88238273D01*
X169995120Y-88009465D01*
X169800535Y-87814880D01*
X169795000Y-87811182D01*
X169795000Y-84843465D01*
X169799281Y-84799999D01*
X169795000Y-84756533D01*
X169795000Y-84756523D01*
X169782195Y-84626510D01*
X169731589Y-84459687D01*
X169649411Y-84305941D01*
X169625210Y-84276452D01*
X169566532Y-84204953D01*
X169566530Y-84204951D01*
X169538817Y-84171183D01*
X169505049Y-84143470D01*
X167638072Y-82276494D01*
X167638072Y-80890000D01*
X167625812Y-80765518D01*
X167589502Y-80645820D01*
X167530537Y-80535506D01*
X167451185Y-80438815D01*
X167354494Y-80359463D01*
X167244180Y-80300498D01*
X167124482Y-80264188D01*
X167000000Y-80251928D01*
X165985000Y-80251928D01*
X165985000Y-77212621D01*
X166094180Y-77179502D01*
X166204494Y-77120537D01*
X166250000Y-77083191D01*
X166295506Y-77120537D01*
X166405820Y-77179502D01*
X166525518Y-77215812D01*
X166650000Y-77228072D01*
X168150000Y-77228072D01*
X168274482Y-77215812D01*
X168394180Y-77179502D01*
X168504494Y-77120537D01*
X168601185Y-77041185D01*
X168680537Y-76944494D01*
X168739502Y-76834180D01*
X168775812Y-76714482D01*
X168788072Y-76590000D01*
X168788072Y-74590000D01*
X168775812Y-74465518D01*
X168739502Y-74345820D01*
X168680537Y-74235506D01*
X168601185Y-74138815D01*
X168504494Y-74059463D01*
X168394180Y-74000498D01*
X168325000Y-73979512D01*
X168325000Y-70616294D01*
X168395886Y-70578405D01*
X168530462Y-70467962D01*
X168640905Y-70333386D01*
X168722972Y-70179850D01*
X168773508Y-70013254D01*
X168790572Y-69840000D01*
X168790572Y-68590000D01*
X168773508Y-68416746D01*
X168722972Y-68250150D01*
X168640905Y-68096614D01*
X168530462Y-67962038D01*
X168395886Y-67851595D01*
X168325000Y-67813706D01*
X168325000Y-66918469D01*
X168329281Y-66875000D01*
X168325000Y-66831531D01*
X168325000Y-66831523D01*
X168312195Y-66701510D01*
X168261589Y-66534687D01*
X168179411Y-66380941D01*
X168068817Y-66246183D01*
X168035044Y-66218466D01*
X167896532Y-66079954D01*
X167868817Y-66046183D01*
X167734059Y-65935589D01*
X167580313Y-65853411D01*
X167413490Y-65802805D01*
X167283477Y-65790000D01*
X167283469Y-65790000D01*
X167240000Y-65785719D01*
X167196531Y-65790000D01*
X142105000Y-65790000D01*
X142105000Y-62565098D01*
X164835000Y-62565098D01*
X164835000Y-63034902D01*
X164926654Y-63495679D01*
X165106440Y-63929721D01*
X165367450Y-64320349D01*
X165699651Y-64652550D01*
X166090279Y-64913560D01*
X166524321Y-65093346D01*
X166985098Y-65185000D01*
X167454902Y-65185000D01*
X167915679Y-65093346D01*
X168349721Y-64913560D01*
X168740349Y-64652550D01*
X169072550Y-64320349D01*
X169333560Y-63929721D01*
X169513346Y-63495679D01*
X169605000Y-63034902D01*
X169605000Y-62565098D01*
X169513346Y-62104321D01*
X169333560Y-61670279D01*
X169072550Y-61279651D01*
X168740349Y-60947450D01*
X168349721Y-60686440D01*
X167915679Y-60506654D01*
X167454902Y-60415000D01*
X166985098Y-60415000D01*
X166524321Y-60506654D01*
X166090279Y-60686440D01*
X165699651Y-60947450D01*
X165367450Y-61279651D01*
X165106440Y-61670279D01*
X164926654Y-62104321D01*
X164835000Y-62565098D01*
X142105000Y-62565098D01*
X142105000Y-60688818D01*
X142110535Y-60685120D01*
X142305120Y-60490535D01*
X142458005Y-60261727D01*
X142490000Y-60184485D01*
X142521995Y-60261727D01*
X142674880Y-60490535D01*
X142869465Y-60685120D01*
X143098273Y-60838005D01*
X143352510Y-60943314D01*
X143622408Y-60997000D01*
X143897592Y-60997000D01*
X144167490Y-60943314D01*
X144421727Y-60838005D01*
X144650535Y-60685120D01*
X144845120Y-60490535D01*
X144998005Y-60261727D01*
X145030000Y-60184485D01*
X145061995Y-60261727D01*
X145214880Y-60490535D01*
X145409465Y-60685120D01*
X145638273Y-60838005D01*
X145892510Y-60943314D01*
X146162408Y-60997000D01*
X146437592Y-60997000D01*
X146707490Y-60943314D01*
X146961727Y-60838005D01*
X147190535Y-60685120D01*
X147385120Y-60490535D01*
X147538005Y-60261727D01*
X147643314Y-60007490D01*
X147671637Y-59865098D01*
X151755000Y-59865098D01*
X151755000Y-60334902D01*
X151846654Y-60795679D01*
X152026440Y-61229721D01*
X152287450Y-61620349D01*
X152619651Y-61952550D01*
X153010279Y-62213560D01*
X153444321Y-62393346D01*
X153905098Y-62485000D01*
X154374902Y-62485000D01*
X154835679Y-62393346D01*
X155269721Y-62213560D01*
X155660349Y-61952550D01*
X155992550Y-61620349D01*
X156253560Y-61229721D01*
X156433346Y-60795679D01*
X156525000Y-60334902D01*
X156525000Y-59865098D01*
X156433346Y-59404321D01*
X156253560Y-58970279D01*
X155992550Y-58579651D01*
X155660349Y-58247450D01*
X155269721Y-57986440D01*
X154835679Y-57806654D01*
X154374902Y-57715000D01*
X153905098Y-57715000D01*
X153444321Y-57806654D01*
X153010279Y-57986440D01*
X152619651Y-58247450D01*
X152287450Y-58579651D01*
X152026440Y-58970279D01*
X151846654Y-59404321D01*
X151755000Y-59865098D01*
X147671637Y-59865098D01*
X147697000Y-59737592D01*
X147697000Y-59462408D01*
X147643314Y-59192510D01*
X147538005Y-58938273D01*
X147385120Y-58709465D01*
X147190535Y-58514880D01*
X146961727Y-58361995D01*
X146707490Y-58256686D01*
X146437592Y-58203000D01*
X146162408Y-58203000D01*
X145892510Y-58256686D01*
X145638273Y-58361995D01*
X145409465Y-58514880D01*
X145214880Y-58709465D01*
X145061995Y-58938273D01*
X145030000Y-59015515D01*
X144998005Y-58938273D01*
X144845120Y-58709465D01*
X144650535Y-58514880D01*
X144421727Y-58361995D01*
X144167490Y-58256686D01*
X143897592Y-58203000D01*
X143622408Y-58203000D01*
X143352510Y-58256686D01*
X143098273Y-58361995D01*
X142869465Y-58514880D01*
X142674880Y-58709465D01*
X142521995Y-58938273D01*
X142490000Y-59015515D01*
X142458005Y-58938273D01*
X142305120Y-58709465D01*
X142110535Y-58514880D01*
X141881727Y-58361995D01*
X141627490Y-58256686D01*
X141357592Y-58203000D01*
X141082408Y-58203000D01*
X140812510Y-58256686D01*
X140558273Y-58361995D01*
X140329465Y-58514880D01*
X140134880Y-58709465D01*
X139981995Y-58938273D01*
X139952308Y-59009943D01*
X139947636Y-58996977D01*
X139885656Y-58881020D01*
X139645565Y-58814040D01*
X138859605Y-59600000D01*
X139645565Y-60385960D01*
X139885656Y-60318980D01*
X139949485Y-60183240D01*
X139981995Y-60261727D01*
X140134880Y-60490535D01*
X140329465Y-60685120D01*
X140335001Y-60688819D01*
X140335000Y-66246531D01*
X140330719Y-66290000D01*
X140335000Y-66333469D01*
X140335000Y-66333476D01*
X140347805Y-66463489D01*
X140398411Y-66630312D01*
X140480589Y-66784058D01*
X140591183Y-66918817D01*
X140624956Y-66946534D01*
X140948466Y-67270044D01*
X140976183Y-67303817D01*
X141110941Y-67414411D01*
X141264687Y-67496589D01*
X141431510Y-67547195D01*
X141561523Y-67560000D01*
X141561533Y-67560000D01*
X141604999Y-67564281D01*
X141648465Y-67560000D01*
X166555001Y-67560000D01*
X166555001Y-67813705D01*
X166484114Y-67851595D01*
X166349538Y-67962038D01*
X166239095Y-68096614D01*
X166157028Y-68250150D01*
X166106492Y-68416746D01*
X166089428Y-68590000D01*
X166089428Y-69840000D01*
X166106492Y-70013254D01*
X166157028Y-70179850D01*
X166239095Y-70333386D01*
X166349538Y-70467962D01*
X166484114Y-70578405D01*
X166555000Y-70616295D01*
X166555001Y-73961284D01*
X166525518Y-73964188D01*
X166405820Y-74000498D01*
X166295506Y-74059463D01*
X166250000Y-74096809D01*
X166204494Y-74059463D01*
X166094180Y-74000498D01*
X165974482Y-73964188D01*
X165850000Y-73951928D01*
X165785000Y-73951928D01*
X165785000Y-73791294D01*
X165855886Y-73753405D01*
X165990462Y-73642962D01*
X166100905Y-73508386D01*
X166182972Y-73354850D01*
X166233508Y-73188254D01*
X166250572Y-73015000D01*
X166250572Y-71765000D01*
X166233508Y-71591746D01*
X166182972Y-71425150D01*
X166100905Y-71271614D01*
X165990462Y-71137038D01*
X165855886Y-71026595D01*
X165702350Y-70944528D01*
X165535754Y-70893992D01*
X165362500Y-70876928D01*
X164437500Y-70876928D01*
X164264246Y-70893992D01*
X164097650Y-70944528D01*
X163944114Y-71026595D01*
X163809538Y-71137038D01*
X163699095Y-71271614D01*
X163617028Y-71425150D01*
X163566492Y-71591746D01*
X163549428Y-71765000D01*
X163549428Y-73015000D01*
X163566492Y-73188254D01*
X163617028Y-73354850D01*
X163699095Y-73508386D01*
X163809538Y-73642962D01*
X163944114Y-73753405D01*
X164015000Y-73791295D01*
X164015001Y-74049043D01*
X163995506Y-74059463D01*
X163950000Y-74096809D01*
X163904494Y-74059463D01*
X163794180Y-74000498D01*
X163674482Y-73964188D01*
X163550000Y-73951928D01*
X163085750Y-73955000D01*
X162927000Y-74113750D01*
X162927000Y-75463000D01*
X162947000Y-75463000D01*
X162947000Y-75717000D01*
X162927000Y-75717000D01*
X162927000Y-77066250D01*
X163085750Y-77225000D01*
X163550000Y-77228072D01*
X163674482Y-77215812D01*
X163794180Y-77179502D01*
X163904494Y-77120537D01*
X163950000Y-77083191D01*
X163995506Y-77120537D01*
X164105820Y-77179502D01*
X164215000Y-77212621D01*
X164215001Y-80251928D01*
X163200000Y-80251928D01*
X163075518Y-80264188D01*
X162955820Y-80300498D01*
X162845506Y-80359463D01*
X162748815Y-80438815D01*
X162669463Y-80535506D01*
X162644251Y-80582673D01*
X162111534Y-80049956D01*
X162083817Y-80016183D01*
X161949059Y-79905589D01*
X161795313Y-79823411D01*
X161628490Y-79772805D01*
X161498477Y-79760000D01*
X161498469Y-79760000D01*
X161455000Y-79755719D01*
X161411531Y-79760000D01*
X151808469Y-79760000D01*
X151765000Y-79755719D01*
X151721531Y-79760000D01*
X151721523Y-79760000D01*
X151591510Y-79772805D01*
X151424686Y-79823411D01*
X151270941Y-79905589D01*
X151169953Y-79988468D01*
X151169951Y-79988470D01*
X151136183Y-80016183D01*
X151108470Y-80049951D01*
X141038422Y-90120000D01*
X131688469Y-90120000D01*
X131645000Y-90115719D01*
X131601531Y-90120000D01*
X129671294Y-90120000D01*
X129633405Y-90049114D01*
X129522962Y-89914538D01*
X129388386Y-89804095D01*
X129234850Y-89722028D01*
X129068254Y-89671492D01*
X128895000Y-89654428D01*
X127645000Y-89654428D01*
X127471746Y-89671492D01*
X127305150Y-89722028D01*
X127151614Y-89804095D01*
X127017038Y-89914538D01*
X126906595Y-90049114D01*
X126824528Y-90202650D01*
X126773992Y-90369246D01*
X126756928Y-90542500D01*
X126756928Y-90555000D01*
X124913818Y-90555000D01*
X124910120Y-90549465D01*
X124715535Y-90354880D01*
X124486727Y-90201995D01*
X124409485Y-90170000D01*
X124486727Y-90138005D01*
X124715535Y-89985120D01*
X124910120Y-89790535D01*
X125063005Y-89561727D01*
X125168314Y-89307490D01*
X125222000Y-89037592D01*
X125222000Y-88762408D01*
X125168314Y-88492510D01*
X125063005Y-88238273D01*
X124910120Y-88009465D01*
X124715535Y-87814880D01*
X124578951Y-87723617D01*
X124574003Y-87673384D01*
X124530546Y-87530123D01*
X124459974Y-87398094D01*
X124365001Y-87282369D01*
X124336003Y-87258571D01*
X122680000Y-85602569D01*
X122680000Y-85278319D01*
X122722350Y-85265472D01*
X122875886Y-85183405D01*
X123010462Y-85072962D01*
X123120905Y-84938386D01*
X123202972Y-84784850D01*
X123253508Y-84618254D01*
X123270572Y-84445000D01*
X123270572Y-83195000D01*
X123544428Y-83195000D01*
X123544428Y-84445000D01*
X123561492Y-84618254D01*
X123612028Y-84784850D01*
X123694095Y-84938386D01*
X123804538Y-85072962D01*
X123939114Y-85183405D01*
X124092650Y-85265472D01*
X124259246Y-85316008D01*
X124432500Y-85333072D01*
X125357500Y-85333072D01*
X125530754Y-85316008D01*
X125697350Y-85265472D01*
X125850886Y-85183405D01*
X125943005Y-85107806D01*
X129775000Y-88939802D01*
X129775000Y-89001939D01*
X129814774Y-89201898D01*
X129892795Y-89390256D01*
X130006063Y-89559774D01*
X130150226Y-89703937D01*
X130319744Y-89817205D01*
X130508102Y-89895226D01*
X130708061Y-89935000D01*
X130911939Y-89935000D01*
X131111898Y-89895226D01*
X131300256Y-89817205D01*
X131469774Y-89703937D01*
X131613937Y-89559774D01*
X131727205Y-89390256D01*
X131805226Y-89201898D01*
X131845000Y-89001939D01*
X131845000Y-88798061D01*
X131805226Y-88598102D01*
X131727205Y-88409744D01*
X131613937Y-88240226D01*
X131469774Y-88096063D01*
X131300256Y-87982795D01*
X131111898Y-87904774D01*
X130911939Y-87865000D01*
X130849802Y-87865000D01*
X126649900Y-83665098D01*
X128455000Y-83665098D01*
X128455000Y-84134902D01*
X128546654Y-84595679D01*
X128726440Y-85029721D01*
X128987450Y-85420349D01*
X129319651Y-85752550D01*
X129710279Y-86013560D01*
X130144321Y-86193346D01*
X130605098Y-86285000D01*
X131074902Y-86285000D01*
X131535679Y-86193346D01*
X131969721Y-86013560D01*
X132360349Y-85752550D01*
X132692550Y-85420349D01*
X132953560Y-85029721D01*
X133133346Y-84595679D01*
X133225000Y-84134902D01*
X133225000Y-83665098D01*
X133133346Y-83204321D01*
X132953560Y-82770279D01*
X132692550Y-82379651D01*
X132360349Y-82047450D01*
X131969721Y-81786440D01*
X131535679Y-81606654D01*
X131074902Y-81515000D01*
X130605098Y-81515000D01*
X130144321Y-81606654D01*
X129710279Y-81786440D01*
X129319651Y-82047450D01*
X128987450Y-82379651D01*
X128726440Y-82770279D01*
X128546654Y-83204321D01*
X128455000Y-83665098D01*
X126649900Y-83665098D01*
X126293804Y-83309003D01*
X126270001Y-83279999D01*
X126245572Y-83259951D01*
X126245572Y-83195000D01*
X126228508Y-83021746D01*
X126177972Y-82855150D01*
X126095905Y-82701614D01*
X125985462Y-82567038D01*
X125850886Y-82456595D01*
X125697350Y-82374528D01*
X125530754Y-82323992D01*
X125357500Y-82306928D01*
X124432500Y-82306928D01*
X124259246Y-82323992D01*
X124092650Y-82374528D01*
X123939114Y-82456595D01*
X123804538Y-82567038D01*
X123694095Y-82701614D01*
X123612028Y-82855150D01*
X123561492Y-83021746D01*
X123544428Y-83195000D01*
X123270572Y-83195000D01*
X123253508Y-83021746D01*
X123202972Y-82855150D01*
X123120905Y-82701614D01*
X123010462Y-82567038D01*
X122875886Y-82456595D01*
X122722350Y-82374528D01*
X122555754Y-82323992D01*
X122382500Y-82306928D01*
X121457500Y-82306928D01*
X121284246Y-82323992D01*
X121117650Y-82374528D01*
X120964114Y-82456595D01*
X120829538Y-82567038D01*
X120719095Y-82701614D01*
X120637028Y-82855150D01*
X120586492Y-83021746D01*
X120582724Y-83060000D01*
X119882276Y-83060000D01*
X119878508Y-83021746D01*
X119827972Y-82855150D01*
X119745905Y-82701614D01*
X119635462Y-82567038D01*
X119500886Y-82456595D01*
X119347350Y-82374528D01*
X119180754Y-82323992D01*
X119007500Y-82306928D01*
X118082500Y-82306928D01*
X117909246Y-82323992D01*
X117742650Y-82374528D01*
X117589114Y-82456595D01*
X117454538Y-82567038D01*
X117344095Y-82701614D01*
X117262028Y-82855150D01*
X117211492Y-83021746D01*
X117194428Y-83195000D01*
X117194428Y-84445000D01*
X117211492Y-84618254D01*
X117262028Y-84784850D01*
X117344095Y-84938386D01*
X117454538Y-85072962D01*
X117589114Y-85183405D01*
X117742650Y-85265472D01*
X117909246Y-85316008D01*
X118082500Y-85333072D01*
X119007500Y-85333072D01*
X119180754Y-85316008D01*
X119347350Y-85265472D01*
X119500886Y-85183405D01*
X119635462Y-85072962D01*
X119745905Y-84938386D01*
X119827972Y-84784850D01*
X119878508Y-84618254D01*
X119882276Y-84580000D01*
X120582724Y-84580000D01*
X120586492Y-84618254D01*
X120637028Y-84784850D01*
X120719095Y-84938386D01*
X120829538Y-85072962D01*
X120964114Y-85183405D01*
X121117650Y-85265472D01*
X121160000Y-85278319D01*
X121160000Y-85880047D01*
X121156324Y-85917370D01*
X121160000Y-85954692D01*
X121160000Y-85954702D01*
X121170997Y-86066355D01*
X121209519Y-86193346D01*
X121214454Y-86209616D01*
X121285026Y-86341646D01*
X121324871Y-86390196D01*
X121379999Y-86457371D01*
X121409003Y-86481174D01*
X122838587Y-87910758D01*
X122739880Y-88009465D01*
X122586995Y-88238273D01*
X122555000Y-88315515D01*
X122523005Y-88238273D01*
X122370120Y-88009465D01*
X122175535Y-87814880D01*
X121946727Y-87661995D01*
X121692490Y-87556686D01*
X121422592Y-87503000D01*
X121147408Y-87503000D01*
X120877510Y-87556686D01*
X120623273Y-87661995D01*
X120394465Y-87814880D01*
X120199880Y-88009465D01*
X120046995Y-88238273D01*
X120015000Y-88315515D01*
X119983005Y-88238273D01*
X119830120Y-88009465D01*
X119635535Y-87814880D01*
X119406727Y-87661995D01*
X119152490Y-87556686D01*
X118882592Y-87503000D01*
X118607408Y-87503000D01*
X118337510Y-87556686D01*
X118083273Y-87661995D01*
X117854465Y-87814880D01*
X117659880Y-88009465D01*
X117506995Y-88238273D01*
X117477308Y-88309943D01*
X117472636Y-88296977D01*
X117410656Y-88181020D01*
X117170565Y-88114040D01*
X116384605Y-88900000D01*
X117170565Y-89685960D01*
X117410656Y-89618980D01*
X117474485Y-89483240D01*
X117506995Y-89561727D01*
X117659880Y-89790535D01*
X117854465Y-89985120D01*
X118083273Y-90138005D01*
X118160515Y-90170000D01*
X118083273Y-90201995D01*
X117854465Y-90354880D01*
X117659880Y-90549465D01*
X117506995Y-90778273D01*
X117475000Y-90855515D01*
X117443005Y-90778273D01*
X117290120Y-90549465D01*
X117095535Y-90354880D01*
X116866727Y-90201995D01*
X116795057Y-90172308D01*
X116808023Y-90167636D01*
X116923980Y-90105656D01*
X116990960Y-89865565D01*
X116205000Y-89079605D01*
X115419040Y-89865565D01*
X115486020Y-90105656D01*
X115621760Y-90169485D01*
X115543273Y-90201995D01*
X115314465Y-90354880D01*
X115119880Y-90549465D01*
X114966995Y-90778273D01*
X114861686Y-91032510D01*
X114808000Y-91302408D01*
X114808000Y-91577592D01*
X114861686Y-91847490D01*
X114966995Y-92101727D01*
X115119880Y-92330535D01*
X115314465Y-92525120D01*
X115445001Y-92612342D01*
X115445000Y-105372678D01*
X115441324Y-105410000D01*
X115445000Y-105447322D01*
X115445000Y-105447332D01*
X115455997Y-105558985D01*
X115499454Y-105702246D01*
X115570026Y-105834276D01*
X115607512Y-105879952D01*
X115664999Y-105950001D01*
X115694003Y-105973804D01*
X117350001Y-107629803D01*
X117350000Y-113022405D01*
X117280986Y-113059294D01*
X117054866Y-113244866D01*
X116869294Y-113470986D01*
X116840000Y-113525791D01*
X116810706Y-113470986D01*
X116625134Y-113244866D01*
X116399014Y-113059294D01*
X116141034Y-112921401D01*
X115861111Y-112836487D01*
X115642950Y-112815000D01*
X115497050Y-112815000D01*
X115278889Y-112836487D01*
X114998966Y-112921401D01*
X114740986Y-113059294D01*
X114514866Y-113244866D01*
X114329294Y-113470986D01*
X114191401Y-113728966D01*
X114106487Y-114008889D01*
X114077815Y-114300000D01*
X111200000Y-114300000D01*
X111200000Y-88972017D01*
X114803090Y-88972017D01*
X114844078Y-89244133D01*
X114937364Y-89503023D01*
X114999344Y-89618980D01*
X115239435Y-89685960D01*
X116025395Y-88900000D01*
X115239435Y-88114040D01*
X114999344Y-88181020D01*
X114882244Y-88430048D01*
X114815977Y-88697135D01*
X114803090Y-88972017D01*
X111200000Y-88972017D01*
X111200000Y-87934435D01*
X115419040Y-87934435D01*
X116205000Y-88720395D01*
X116990960Y-87934435D01*
X116923980Y-87694344D01*
X116674952Y-87577244D01*
X116407865Y-87510977D01*
X116132983Y-87498090D01*
X115860867Y-87539078D01*
X115601977Y-87632364D01*
X115486020Y-87694344D01*
X115419040Y-87934435D01*
X111200000Y-87934435D01*
X111200000Y-84695000D01*
X114219428Y-84695000D01*
X114231688Y-84819482D01*
X114267998Y-84939180D01*
X114326963Y-85049494D01*
X114406315Y-85146185D01*
X114503006Y-85225537D01*
X114613320Y-85284502D01*
X114733018Y-85320812D01*
X114857500Y-85333072D01*
X115284250Y-85330000D01*
X115443000Y-85171250D01*
X115443000Y-83947000D01*
X115697000Y-83947000D01*
X115697000Y-85171250D01*
X115855750Y-85330000D01*
X116282500Y-85333072D01*
X116406982Y-85320812D01*
X116526680Y-85284502D01*
X116636994Y-85225537D01*
X116733685Y-85146185D01*
X116813037Y-85049494D01*
X116872002Y-84939180D01*
X116908312Y-84819482D01*
X116920572Y-84695000D01*
X116917500Y-84105750D01*
X116758750Y-83947000D01*
X115697000Y-83947000D01*
X115443000Y-83947000D01*
X114381250Y-83947000D01*
X114222500Y-84105750D01*
X114219428Y-84695000D01*
X111200000Y-84695000D01*
X111200000Y-82945000D01*
X114219428Y-82945000D01*
X114222500Y-83534250D01*
X114381250Y-83693000D01*
X115443000Y-83693000D01*
X115443000Y-82468750D01*
X115697000Y-82468750D01*
X115697000Y-83693000D01*
X116758750Y-83693000D01*
X116917500Y-83534250D01*
X116920572Y-82945000D01*
X116908312Y-82820518D01*
X116872002Y-82700820D01*
X116813037Y-82590506D01*
X116733685Y-82493815D01*
X116636994Y-82414463D01*
X116526680Y-82355498D01*
X116406982Y-82319188D01*
X116282500Y-82306928D01*
X115855750Y-82310000D01*
X115697000Y-82468750D01*
X115443000Y-82468750D01*
X115284250Y-82310000D01*
X114857500Y-82306928D01*
X114733018Y-82319188D01*
X114613320Y-82355498D01*
X114503006Y-82414463D01*
X114406315Y-82493815D01*
X114326963Y-82590506D01*
X114267998Y-82700820D01*
X114231688Y-82820518D01*
X114219428Y-82945000D01*
X111200000Y-82945000D01*
X111200000Y-76767264D01*
X135355000Y-76767264D01*
X135355000Y-78172736D01*
X135629194Y-79551203D01*
X136167045Y-80849690D01*
X136947884Y-82018297D01*
X137941703Y-83012116D01*
X139110310Y-83792955D01*
X140408797Y-84330806D01*
X141787264Y-84605000D01*
X143192736Y-84605000D01*
X144571203Y-84330806D01*
X145869690Y-83792955D01*
X147038297Y-83012116D01*
X148032116Y-82018297D01*
X148812955Y-80849690D01*
X149350806Y-79551203D01*
X149625000Y-78172736D01*
X149625000Y-76767264D01*
X149589741Y-76590000D01*
X161411928Y-76590000D01*
X161424188Y-76714482D01*
X161460498Y-76834180D01*
X161519463Y-76944494D01*
X161598815Y-77041185D01*
X161695506Y-77120537D01*
X161805820Y-77179502D01*
X161925518Y-77215812D01*
X162050000Y-77228072D01*
X162514250Y-77225000D01*
X162673000Y-77066250D01*
X162673000Y-75717000D01*
X161573750Y-75717000D01*
X161415000Y-75875750D01*
X161411928Y-76590000D01*
X149589741Y-76590000D01*
X149350806Y-75388797D01*
X149019934Y-74590000D01*
X161411928Y-74590000D01*
X161415000Y-75304250D01*
X161573750Y-75463000D01*
X162673000Y-75463000D01*
X162673000Y-74113750D01*
X162514250Y-73955000D01*
X162050000Y-73951928D01*
X161925518Y-73964188D01*
X161805820Y-74000498D01*
X161695506Y-74059463D01*
X161598815Y-74138815D01*
X161519463Y-74235506D01*
X161460498Y-74345820D01*
X161424188Y-74465518D01*
X161411928Y-74590000D01*
X149019934Y-74590000D01*
X148812955Y-74090310D01*
X148261500Y-73265000D01*
X160574428Y-73265000D01*
X160586688Y-73389482D01*
X160622998Y-73509180D01*
X160681963Y-73619494D01*
X160761315Y-73716185D01*
X160858006Y-73795537D01*
X160968320Y-73854502D01*
X161088018Y-73890812D01*
X161212500Y-73903072D01*
X161639250Y-73900000D01*
X161798000Y-73741250D01*
X161798000Y-72517000D01*
X162052000Y-72517000D01*
X162052000Y-73741250D01*
X162210750Y-73900000D01*
X162637500Y-73903072D01*
X162761982Y-73890812D01*
X162881680Y-73854502D01*
X162991994Y-73795537D01*
X163088685Y-73716185D01*
X163168037Y-73619494D01*
X163227002Y-73509180D01*
X163263312Y-73389482D01*
X163275572Y-73265000D01*
X163272500Y-72675750D01*
X163113750Y-72517000D01*
X162052000Y-72517000D01*
X161798000Y-72517000D01*
X160736250Y-72517000D01*
X160577500Y-72675750D01*
X160574428Y-73265000D01*
X148261500Y-73265000D01*
X148032116Y-72921703D01*
X147038297Y-71927884D01*
X146420374Y-71515000D01*
X160574428Y-71515000D01*
X160577500Y-72104250D01*
X160736250Y-72263000D01*
X161798000Y-72263000D01*
X161798000Y-71038750D01*
X162052000Y-71038750D01*
X162052000Y-72263000D01*
X163113750Y-72263000D01*
X163272500Y-72104250D01*
X163275572Y-71515000D01*
X163263312Y-71390518D01*
X163227002Y-71270820D01*
X163168037Y-71160506D01*
X163088685Y-71063815D01*
X162991994Y-70984463D01*
X162881680Y-70925498D01*
X162761982Y-70889188D01*
X162637500Y-70876928D01*
X162210750Y-70880000D01*
X162052000Y-71038750D01*
X161798000Y-71038750D01*
X161639250Y-70880000D01*
X161212500Y-70876928D01*
X161088018Y-70889188D01*
X160968320Y-70925498D01*
X160858006Y-70984463D01*
X160761315Y-71063815D01*
X160681963Y-71160506D01*
X160622998Y-71270820D01*
X160586688Y-71390518D01*
X160574428Y-71515000D01*
X146420374Y-71515000D01*
X145869690Y-71147045D01*
X144571203Y-70609194D01*
X143192736Y-70335000D01*
X141787264Y-70335000D01*
X140408797Y-70609194D01*
X139110310Y-71147045D01*
X137941703Y-71927884D01*
X136947884Y-72921703D01*
X136167045Y-74090310D01*
X135629194Y-75388797D01*
X135355000Y-76767264D01*
X111200000Y-76767264D01*
X111200000Y-70090000D01*
X163114428Y-70090000D01*
X163126688Y-70214482D01*
X163162998Y-70334180D01*
X163221963Y-70444494D01*
X163301315Y-70541185D01*
X163398006Y-70620537D01*
X163508320Y-70679502D01*
X163628018Y-70715812D01*
X163752500Y-70728072D01*
X164179250Y-70725000D01*
X164338000Y-70566250D01*
X164338000Y-69342000D01*
X164592000Y-69342000D01*
X164592000Y-70566250D01*
X164750750Y-70725000D01*
X165177500Y-70728072D01*
X165301982Y-70715812D01*
X165421680Y-70679502D01*
X165531994Y-70620537D01*
X165628685Y-70541185D01*
X165708037Y-70444494D01*
X165767002Y-70334180D01*
X165803312Y-70214482D01*
X165815572Y-70090000D01*
X165812500Y-69500750D01*
X165653750Y-69342000D01*
X164592000Y-69342000D01*
X164338000Y-69342000D01*
X163276250Y-69342000D01*
X163117500Y-69500750D01*
X163114428Y-70090000D01*
X111200000Y-70090000D01*
X111200000Y-68340000D01*
X163114428Y-68340000D01*
X163117500Y-68929250D01*
X163276250Y-69088000D01*
X164338000Y-69088000D01*
X164338000Y-67863750D01*
X164592000Y-67863750D01*
X164592000Y-69088000D01*
X165653750Y-69088000D01*
X165812500Y-68929250D01*
X165815572Y-68340000D01*
X165803312Y-68215518D01*
X165767002Y-68095820D01*
X165708037Y-67985506D01*
X165628685Y-67888815D01*
X165531994Y-67809463D01*
X165421680Y-67750498D01*
X165301982Y-67714188D01*
X165177500Y-67701928D01*
X164750750Y-67705000D01*
X164592000Y-67863750D01*
X164338000Y-67863750D01*
X164179250Y-67705000D01*
X163752500Y-67701928D01*
X163628018Y-67714188D01*
X163508320Y-67750498D01*
X163398006Y-67809463D01*
X163301315Y-67888815D01*
X163221963Y-67985506D01*
X163162998Y-68095820D01*
X163126688Y-68215518D01*
X163114428Y-68340000D01*
X111200000Y-68340000D01*
X111200000Y-62565098D01*
X115725000Y-62565098D01*
X115725000Y-63034902D01*
X115816654Y-63495679D01*
X115996440Y-63929721D01*
X116257450Y-64320349D01*
X116589651Y-64652550D01*
X116980279Y-64913560D01*
X117414321Y-65093346D01*
X117875098Y-65185000D01*
X118344902Y-65185000D01*
X118805679Y-65093346D01*
X119239721Y-64913560D01*
X119630349Y-64652550D01*
X119962550Y-64320349D01*
X120223560Y-63929721D01*
X120403346Y-63495679D01*
X120495000Y-63034902D01*
X120495000Y-62565098D01*
X120403346Y-62104321D01*
X120223560Y-61670279D01*
X119962550Y-61279651D01*
X119630349Y-60947450D01*
X119239721Y-60686440D01*
X118805679Y-60506654D01*
X118344902Y-60415000D01*
X117875098Y-60415000D01*
X117414321Y-60506654D01*
X116980279Y-60686440D01*
X116589651Y-60947450D01*
X116257450Y-61279651D01*
X115996440Y-61670279D01*
X115816654Y-62104321D01*
X115725000Y-62565098D01*
X111200000Y-62565098D01*
X111200000Y-60010000D01*
X116874877Y-60010000D01*
X116906019Y-60006933D01*
X116919360Y-60007026D01*
X116929225Y-60006059D01*
X117346534Y-59962197D01*
X117409528Y-59949266D01*
X117472781Y-59937200D01*
X117482271Y-59934335D01*
X117705939Y-59865098D01*
X128455000Y-59865098D01*
X128455000Y-60334902D01*
X128546654Y-60795679D01*
X128726440Y-61229721D01*
X128987450Y-61620349D01*
X129319651Y-61952550D01*
X129710279Y-62213560D01*
X130144321Y-62393346D01*
X130605098Y-62485000D01*
X131074902Y-62485000D01*
X131535679Y-62393346D01*
X131969721Y-62213560D01*
X132360349Y-61952550D01*
X132692550Y-61620349D01*
X132953560Y-61229721D01*
X133133346Y-60795679D01*
X133179118Y-60565565D01*
X137894040Y-60565565D01*
X137961020Y-60805656D01*
X138210048Y-60922756D01*
X138477135Y-60989023D01*
X138752017Y-61001910D01*
X139024133Y-60960922D01*
X139283023Y-60867636D01*
X139398980Y-60805656D01*
X139465960Y-60565565D01*
X138680000Y-59779605D01*
X137894040Y-60565565D01*
X133179118Y-60565565D01*
X133225000Y-60334902D01*
X133225000Y-59865098D01*
X133186594Y-59672017D01*
X137278090Y-59672017D01*
X137319078Y-59944133D01*
X137412364Y-60203023D01*
X137474344Y-60318980D01*
X137714435Y-60385960D01*
X138500395Y-59600000D01*
X137714435Y-58814040D01*
X137474344Y-58881020D01*
X137357244Y-59130048D01*
X137290977Y-59397135D01*
X137278090Y-59672017D01*
X133186594Y-59672017D01*
X133133346Y-59404321D01*
X132953560Y-58970279D01*
X132729156Y-58634435D01*
X137894040Y-58634435D01*
X138680000Y-59420395D01*
X139465960Y-58634435D01*
X139398980Y-58394344D01*
X139149952Y-58277244D01*
X138882865Y-58210977D01*
X138607983Y-58198090D01*
X138335867Y-58239078D01*
X138076977Y-58332364D01*
X137961020Y-58394344D01*
X137894040Y-58634435D01*
X132729156Y-58634435D01*
X132692550Y-58579651D01*
X132360349Y-58247450D01*
X131969721Y-57986440D01*
X131535679Y-57806654D01*
X131074902Y-57715000D01*
X130605098Y-57715000D01*
X130144321Y-57806654D01*
X129710279Y-57986440D01*
X129319651Y-58247450D01*
X128987450Y-58579651D01*
X128726440Y-58970279D01*
X128546654Y-59404321D01*
X128455000Y-59865098D01*
X117705939Y-59865098D01*
X117883111Y-59810254D01*
X117942402Y-59785330D01*
X118002100Y-59761211D01*
X118010847Y-59756559D01*
X118010851Y-59756557D01*
X118010854Y-59756555D01*
X118379958Y-59556982D01*
X118433302Y-59521001D01*
X118487154Y-59485761D01*
X118494836Y-59479495D01*
X118547412Y-59436000D01*
X118999000Y-59436000D01*
X119023776Y-59433560D01*
X119047601Y-59426333D01*
X119069557Y-59414597D01*
X119088803Y-59398803D01*
X119104597Y-59379557D01*
X119116333Y-59357601D01*
X119123560Y-59333776D01*
X119126000Y-59309000D01*
X119126000Y-58855959D01*
X119180991Y-58788533D01*
X119216599Y-58734939D01*
X119252959Y-58681836D01*
X119257674Y-58673116D01*
X119454667Y-58302625D01*
X119479182Y-58243148D01*
X119504539Y-58183984D01*
X119507471Y-58174514D01*
X119628751Y-57772818D01*
X119641245Y-57709720D01*
X119654630Y-57646746D01*
X119655666Y-57636887D01*
X119696612Y-57219283D01*
X119696612Y-57219277D01*
X119700000Y-57184877D01*
X119700000Y-55065098D01*
X140105000Y-55065098D01*
X140105000Y-55534902D01*
X140196654Y-55995679D01*
X140376440Y-56429721D01*
X140637450Y-56820349D01*
X140969651Y-57152550D01*
X141360279Y-57413560D01*
X141794321Y-57593346D01*
X142255098Y-57685000D01*
X142724902Y-57685000D01*
X143185679Y-57593346D01*
X143619721Y-57413560D01*
X144010349Y-57152550D01*
X144342550Y-56820349D01*
X144603560Y-56429721D01*
X144783346Y-55995679D01*
X144875000Y-55534902D01*
X144875000Y-55065098D01*
X144783346Y-54604321D01*
X144603560Y-54170279D01*
X144342550Y-53779651D01*
X144010349Y-53447450D01*
X143619721Y-53186440D01*
X143185679Y-53006654D01*
X142724902Y-52915000D01*
X142255098Y-52915000D01*
X141794321Y-53006654D01*
X141360279Y-53186440D01*
X140969651Y-53447450D01*
X140637450Y-53779651D01*
X140376440Y-54170279D01*
X140196654Y-54604321D01*
X140105000Y-55065098D01*
X119700000Y-55065098D01*
X119700000Y-51510000D01*
X165280001Y-51510000D01*
X165280000Y-57184876D01*
X165280000Y-57184876D01*
G37*
X165280000Y-57184876D02*
X165283067Y-57216018D01*
X165282974Y-57229360D01*
X165283941Y-57239225D01*
X165327803Y-57656534D01*
X165340734Y-57719528D01*
X165352800Y-57782781D01*
X165355665Y-57792271D01*
X165479746Y-58193111D01*
X165504670Y-58252402D01*
X165528789Y-58312100D01*
X165533444Y-58320852D01*
X165733018Y-58689958D01*
X165768999Y-58743302D01*
X165804239Y-58797154D01*
X165810505Y-58804836D01*
X165862000Y-58867083D01*
X165862000Y-59309000D01*
X165864440Y-59333776D01*
X165871667Y-59357601D01*
X165883403Y-59379557D01*
X165899197Y-59398803D01*
X165918443Y-59414597D01*
X165940399Y-59426333D01*
X165964224Y-59433560D01*
X165989000Y-59436000D01*
X166434041Y-59436000D01*
X166501467Y-59490991D01*
X166555061Y-59526599D01*
X166608164Y-59562959D01*
X166616884Y-59567674D01*
X166987375Y-59764667D01*
X167046852Y-59789182D01*
X167106016Y-59814539D01*
X167115486Y-59817471D01*
X167517182Y-59938751D01*
X167580280Y-59951245D01*
X167643254Y-59964630D01*
X167653113Y-59965666D01*
X168070717Y-60006612D01*
X168070723Y-60006612D01*
X168105123Y-60010000D01*
X173780001Y-60010000D01*
X173780000Y-135590000D01*
X168105123Y-135590000D01*
X168073981Y-135593067D01*
X168060641Y-135592974D01*
X168050775Y-135593941D01*
X167633467Y-135637802D01*
X167570448Y-135650738D01*
X167507219Y-135662800D01*
X167497729Y-135665665D01*
X167096888Y-135789746D01*
X167037568Y-135814682D01*
X166977900Y-135838790D01*
X166969147Y-135843444D01*
X166600042Y-136043019D01*
X166546725Y-136078982D01*
X166492846Y-136114239D01*
X166485164Y-136120505D01*
X166456763Y-136144000D01*
X165989000Y-136144000D01*
X165964224Y-136146440D01*
X165940399Y-136153667D01*
X165918443Y-136165403D01*
X165899197Y-136181197D01*
X165883403Y-136200443D01*
X165871667Y-136222399D01*
X165864440Y-136246224D01*
X165862000Y-136271000D01*
X165862000Y-136734232D01*
X165799009Y-136811467D01*
X165763424Y-136865027D01*
X165727041Y-136918163D01*
X165722326Y-136926884D01*
X165525333Y-137297375D01*
X165500813Y-137356864D01*
X165475461Y-137416016D01*
X165472529Y-137425486D01*
X165351249Y-137827183D01*
X165338751Y-137890302D01*
X165325371Y-137953253D01*
X165324335Y-137963112D01*
X165283388Y-138380717D01*
X165283388Y-138380724D01*
X165280000Y-138415124D01*
X165280001Y-144090000D01*
X119700000Y-144090000D01*
X119700000Y-140065098D01*
X140105000Y-140065098D01*
X140105000Y-140534902D01*
X140196654Y-140995679D01*
X140376440Y-141429721D01*
X140637450Y-141820349D01*
X140969651Y-142152550D01*
X141360279Y-142413560D01*
X141794321Y-142593346D01*
X142255098Y-142685000D01*
X142724902Y-142685000D01*
X143185679Y-142593346D01*
X143619721Y-142413560D01*
X144010349Y-142152550D01*
X144342550Y-141820349D01*
X144603560Y-141429721D01*
X144783346Y-140995679D01*
X144875000Y-140534902D01*
X144875000Y-140065098D01*
X144783346Y-139604321D01*
X144603560Y-139170279D01*
X144342550Y-138779651D01*
X144010349Y-138447450D01*
X143619721Y-138186440D01*
X143185679Y-138006654D01*
X142724902Y-137915000D01*
X142255098Y-137915000D01*
X141794321Y-138006654D01*
X141360279Y-138186440D01*
X140969651Y-138447450D01*
X140637450Y-138779651D01*
X140376440Y-139170279D01*
X140196654Y-139604321D01*
X140105000Y-140065098D01*
X119700000Y-140065098D01*
X119700000Y-138415123D01*
X119696933Y-138383981D01*
X119697026Y-138370641D01*
X119696059Y-138360775D01*
X119652198Y-137943467D01*
X119639262Y-137880448D01*
X119627200Y-137817219D01*
X119624335Y-137807729D01*
X119500254Y-137406888D01*
X119475318Y-137347568D01*
X119451210Y-137287900D01*
X119446556Y-137279147D01*
X119246981Y-136910042D01*
X119211018Y-136856725D01*
X119175761Y-136802846D01*
X119169495Y-136795164D01*
X119126000Y-136742588D01*
X119126000Y-136271000D01*
X119123560Y-136246224D01*
X119116333Y-136222399D01*
X119104597Y-136200443D01*
X119088803Y-136181197D01*
X119069557Y-136165403D01*
X119047601Y-136153667D01*
X119023776Y-136146440D01*
X118999000Y-136144000D01*
X118521436Y-136144000D01*
X118478533Y-136109009D01*
X118424973Y-136073424D01*
X118371837Y-136037041D01*
X118363116Y-136032326D01*
X117992625Y-135835333D01*
X117933136Y-135810813D01*
X117873984Y-135785461D01*
X117864514Y-135782529D01*
X117462817Y-135661249D01*
X117399698Y-135648751D01*
X117336747Y-135635371D01*
X117326890Y-135634335D01*
X117326888Y-135634335D01*
X116909283Y-135593388D01*
X116909277Y-135593388D01*
X116874877Y-135590000D01*
X111200000Y-135590000D01*
X111200000Y-132565098D01*
X115375000Y-132565098D01*
X115375000Y-133034902D01*
X115466654Y-133495679D01*
X115646440Y-133929721D01*
X115907450Y-134320349D01*
X116239651Y-134652550D01*
X116630279Y-134913560D01*
X117064321Y-135093346D01*
X117525098Y-135185000D01*
X117994902Y-135185000D01*
X118455679Y-135093346D01*
X118889721Y-134913560D01*
X119280349Y-134652550D01*
X119612550Y-134320349D01*
X119873560Y-133929721D01*
X120053346Y-133495679D01*
X120145000Y-133034902D01*
X120145000Y-132565098D01*
X164835000Y-132565098D01*
X164835000Y-133034902D01*
X164926654Y-133495679D01*
X165106440Y-133929721D01*
X165367450Y-134320349D01*
X165699651Y-134652550D01*
X166090279Y-134913560D01*
X166524321Y-135093346D01*
X166985098Y-135185000D01*
X167454902Y-135185000D01*
X167915679Y-135093346D01*
X168349721Y-134913560D01*
X168740349Y-134652550D01*
X169072550Y-134320349D01*
X169333560Y-133929721D01*
X169513346Y-133495679D01*
X169605000Y-133034902D01*
X169605000Y-132565098D01*
X169513346Y-132104321D01*
X169333560Y-131670279D01*
X169072550Y-131279651D01*
X168740349Y-130947450D01*
X168349721Y-130686440D01*
X167915679Y-130506654D01*
X167454902Y-130415000D01*
X166985098Y-130415000D01*
X166524321Y-130506654D01*
X166090279Y-130686440D01*
X165699651Y-130947450D01*
X165367450Y-131279651D01*
X165106440Y-131670279D01*
X164926654Y-132104321D01*
X164835000Y-132565098D01*
X120145000Y-132565098D01*
X120053346Y-132104321D01*
X119873560Y-131670279D01*
X119612550Y-131279651D01*
X119280349Y-130947450D01*
X118889721Y-130686440D01*
X118455679Y-130506654D01*
X117994902Y-130415000D01*
X117525098Y-130415000D01*
X117064321Y-130506654D01*
X116630279Y-130686440D01*
X116239651Y-130947450D01*
X115907450Y-131279651D01*
X115646440Y-131670279D01*
X115466654Y-132104321D01*
X115375000Y-132565098D01*
X111200000Y-132565098D01*
X111200000Y-114300000D01*
X114077815Y-114300000D01*
X114106487Y-114591111D01*
X114191401Y-114871034D01*
X114329294Y-115129014D01*
X114514866Y-115355134D01*
X114740986Y-115540706D01*
X114998966Y-115678599D01*
X115278889Y-115763513D01*
X115497050Y-115785000D01*
X115642950Y-115785000D01*
X115861111Y-115763513D01*
X116141034Y-115678599D01*
X116399014Y-115540706D01*
X116625134Y-115355134D01*
X116810706Y-115129014D01*
X116840000Y-115074209D01*
X116869294Y-115129014D01*
X117054866Y-115355134D01*
X117280986Y-115540706D01*
X117350001Y-115577595D01*
X117350000Y-128232667D01*
X117346323Y-128270000D01*
X117360997Y-128418986D01*
X117404454Y-128562247D01*
X117475026Y-128694276D01*
X117569999Y-128810001D01*
X117685724Y-128904974D01*
X117817753Y-128975546D01*
X117961014Y-129019003D01*
X118110000Y-129033677D01*
X118147333Y-129030000D01*
X133697659Y-129030000D01*
X133784880Y-129160535D01*
X133979465Y-129355120D01*
X134208273Y-129508005D01*
X134285515Y-129540000D01*
X134208273Y-129571995D01*
X133979465Y-129724880D01*
X133784880Y-129919465D01*
X133631995Y-130148273D01*
X133526686Y-130402510D01*
X133473000Y-130672408D01*
X133473000Y-130947592D01*
X133526686Y-131217490D01*
X133631995Y-131471727D01*
X133784880Y-131700535D01*
X133979465Y-131895120D01*
X134208273Y-132048005D01*
X134462510Y-132153314D01*
X134732408Y-132207000D01*
X135007592Y-132207000D01*
X135277490Y-132153314D01*
X135531727Y-132048005D01*
X135760535Y-131895120D01*
X135955120Y-131700535D01*
X136108005Y-131471727D01*
X136213314Y-131217490D01*
X136267000Y-130947592D01*
X136267000Y-130672408D01*
X136213314Y-130402510D01*
X136108005Y-130148273D01*
X135955120Y-129919465D01*
X135760535Y-129724880D01*
X135531727Y-129571995D01*
X135454485Y-129540000D01*
X135531727Y-129508005D01*
X135760535Y-129355120D01*
X135955120Y-129160535D01*
X136108005Y-128931727D01*
X136213314Y-128677490D01*
X136267000Y-128407592D01*
X136267000Y-128132408D01*
X136213314Y-127862510D01*
X136108005Y-127608273D01*
X135955120Y-127379465D01*
X135760535Y-127184880D01*
X135531727Y-127031995D01*
X135454485Y-127000000D01*
X135531727Y-126968005D01*
X135760535Y-126815120D01*
X135955120Y-126620535D01*
X136108005Y-126391727D01*
X136213314Y-126137490D01*
X136267000Y-125867592D01*
X136267000Y-125592408D01*
X136213314Y-125322510D01*
X136108005Y-125068273D01*
X135955120Y-124839465D01*
X135760535Y-124644880D01*
X135531727Y-124491995D01*
X135454485Y-124460000D01*
X135531727Y-124428005D01*
X135760535Y-124275120D01*
X135955120Y-124080535D01*
X136108005Y-123851727D01*
X136213314Y-123597490D01*
X136267000Y-123327592D01*
X136267000Y-123052408D01*
X136213314Y-122782510D01*
X136108005Y-122528273D01*
X135955120Y-122299465D01*
X135760535Y-122104880D01*
X135531727Y-121951995D01*
X135454485Y-121920000D01*
X135531727Y-121888005D01*
X135760535Y-121735120D01*
X135955120Y-121540535D01*
X136108005Y-121311727D01*
X136213314Y-121057490D01*
X136267000Y-120787592D01*
X136267000Y-120512408D01*
X136213314Y-120242510D01*
X136108005Y-119988273D01*
X135955120Y-119759465D01*
X135760535Y-119564880D01*
X135531727Y-119411995D01*
X135454485Y-119380000D01*
X135531727Y-119348005D01*
X135760535Y-119195120D01*
X135955120Y-119000535D01*
X136108005Y-118771727D01*
X136213314Y-118517490D01*
X136267000Y-118247592D01*
X136267000Y-117972408D01*
X136213314Y-117702510D01*
X136108005Y-117448273D01*
X135955120Y-117219465D01*
X135760535Y-117024880D01*
X135531727Y-116871995D01*
X135454485Y-116840000D01*
X135531727Y-116808005D01*
X135760535Y-116655120D01*
X135955120Y-116460535D01*
X136042341Y-116330000D01*
X136845199Y-116330000D01*
X142475000Y-121959802D01*
X142475000Y-122021939D01*
X142514774Y-122221898D01*
X142592795Y-122410256D01*
X142706063Y-122579774D01*
X142850226Y-122723937D01*
X143019744Y-122837205D01*
X143208102Y-122915226D01*
X143408061Y-122955000D01*
X143611939Y-122955000D01*
X143811898Y-122915226D01*
X144000256Y-122837205D01*
X144169774Y-122723937D01*
X144313937Y-122579774D01*
X144427205Y-122410256D01*
X144505226Y-122221898D01*
X144545000Y-122021939D01*
X144545000Y-121818061D01*
X144505226Y-121618102D01*
X144427205Y-121429744D01*
X144313937Y-121260226D01*
X144169774Y-121116063D01*
X144000256Y-121002795D01*
X143811898Y-120924774D01*
X143611939Y-120885000D01*
X143549802Y-120885000D01*
X137723804Y-115059003D01*
X137700001Y-115029999D01*
X137584276Y-114935026D01*
X137452247Y-114864454D01*
X137308986Y-114820997D01*
X137197333Y-114810000D01*
X137197322Y-114810000D01*
X137160000Y-114806324D01*
X137122678Y-114810000D01*
X136042341Y-114810000D01*
X135955120Y-114679465D01*
X135760535Y-114484880D01*
X135531727Y-114331995D01*
X135454485Y-114300000D01*
X135531727Y-114268005D01*
X135760535Y-114115120D01*
X135955120Y-113920535D01*
X136108005Y-113691727D01*
X136213314Y-113437490D01*
X136267000Y-113167592D01*
X136267000Y-112892408D01*
X136213314Y-112622510D01*
X136108005Y-112368273D01*
X135955120Y-112139465D01*
X135760535Y-111944880D01*
X135531727Y-111791995D01*
X135454485Y-111760000D01*
X135531727Y-111728005D01*
X135760535Y-111575120D01*
X135955120Y-111380535D01*
X136108005Y-111151727D01*
X136213314Y-110897490D01*
X136267000Y-110627592D01*
X136267000Y-110352408D01*
X136213314Y-110082510D01*
X136108005Y-109828273D01*
X135955120Y-109599465D01*
X135760535Y-109404880D01*
X135531727Y-109251995D01*
X135454485Y-109220000D01*
X135531727Y-109188005D01*
X135760535Y-109035120D01*
X135955120Y-108840535D01*
X136108005Y-108611727D01*
X136213314Y-108357490D01*
X136267000Y-108087592D01*
X136267000Y-107812408D01*
X136213314Y-107542510D01*
X136108005Y-107288273D01*
X135955120Y-107059465D01*
X135760535Y-106864880D01*
X135531727Y-106711995D01*
X135460057Y-106682308D01*
X135473023Y-106677636D01*
X135588980Y-106615656D01*
X135655960Y-106375565D01*
X134870000Y-105589605D01*
X134084040Y-106375565D01*
X134151020Y-106615656D01*
X134286760Y-106679485D01*
X134208273Y-106711995D01*
X133979465Y-106864880D01*
X133784880Y-107059465D01*
X133631995Y-107288273D01*
X133526686Y-107542510D01*
X133473000Y-107812408D01*
X133473000Y-108087592D01*
X133526686Y-108357490D01*
X133631995Y-108611727D01*
X133784880Y-108840535D01*
X133979465Y-109035120D01*
X134208273Y-109188005D01*
X134285515Y-109220000D01*
X134208273Y-109251995D01*
X133979465Y-109404880D01*
X133784880Y-109599465D01*
X133631995Y-109828273D01*
X133526686Y-110082510D01*
X133473000Y-110352408D01*
X133473000Y-110627592D01*
X133526686Y-110897490D01*
X133631995Y-111151727D01*
X133784880Y-111380535D01*
X133979465Y-111575120D01*
X134208273Y-111728005D01*
X134285515Y-111760000D01*
X134208273Y-111791995D01*
X133979465Y-111944880D01*
X133784880Y-112139465D01*
X133631995Y-112368273D01*
X133526686Y-112622510D01*
X133473000Y-112892408D01*
X133473000Y-113167592D01*
X133526686Y-113437490D01*
X133631995Y-113691727D01*
X133784880Y-113920535D01*
X133979465Y-114115120D01*
X134208273Y-114268005D01*
X134285515Y-114300000D01*
X134208273Y-114331995D01*
X133979465Y-114484880D01*
X133784880Y-114679465D01*
X133631995Y-114908273D01*
X133526686Y-115162510D01*
X133473000Y-115432408D01*
X133473000Y-115707592D01*
X133526686Y-115977490D01*
X133631995Y-116231727D01*
X133784880Y-116460535D01*
X133979465Y-116655120D01*
X134208273Y-116808005D01*
X134285515Y-116840000D01*
X134208273Y-116871995D01*
X133979465Y-117024880D01*
X133784880Y-117219465D01*
X133631995Y-117448273D01*
X133526686Y-117702510D01*
X133473000Y-117972408D01*
X133473000Y-118247592D01*
X133526686Y-118517490D01*
X133631995Y-118771727D01*
X133784880Y-119000535D01*
X133979465Y-119195120D01*
X134208273Y-119348005D01*
X134285515Y-119380000D01*
X134208273Y-119411995D01*
X133979465Y-119564880D01*
X133784880Y-119759465D01*
X133631995Y-119988273D01*
X133526686Y-120242510D01*
X133473000Y-120512408D01*
X133473000Y-120787592D01*
X133526686Y-121057490D01*
X133631995Y-121311727D01*
X133784880Y-121540535D01*
X133979465Y-121735120D01*
X134208273Y-121888005D01*
X134285515Y-121920000D01*
X134208273Y-121951995D01*
X133979465Y-122104880D01*
X133784880Y-122299465D01*
X133631995Y-122528273D01*
X133526686Y-122782510D01*
X133473000Y-123052408D01*
X133473000Y-123327592D01*
X133526686Y-123597490D01*
X133631995Y-123851727D01*
X133784880Y-124080535D01*
X133979465Y-124275120D01*
X134208273Y-124428005D01*
X134285515Y-124460000D01*
X134208273Y-124491995D01*
X133979465Y-124644880D01*
X133784880Y-124839465D01*
X133631995Y-125068273D01*
X133526686Y-125322510D01*
X133473000Y-125592408D01*
X133473000Y-125867592D01*
X133526686Y-126137490D01*
X133631995Y-126391727D01*
X133784880Y-126620535D01*
X133979465Y-126815120D01*
X134208273Y-126968005D01*
X134285515Y-127000000D01*
X134208273Y-127031995D01*
X133979465Y-127184880D01*
X133784880Y-127379465D01*
X133697659Y-127510000D01*
X118870000Y-127510000D01*
X118870000Y-115577595D01*
X118939014Y-115540706D01*
X119165134Y-115355134D01*
X119350706Y-115129014D01*
X119380000Y-115074209D01*
X119409294Y-115129014D01*
X119594866Y-115355134D01*
X119820986Y-115540706D01*
X120078966Y-115678599D01*
X120358889Y-115763513D01*
X120577050Y-115785000D01*
X120722950Y-115785000D01*
X120941111Y-115763513D01*
X121221034Y-115678599D01*
X121479014Y-115540706D01*
X121705134Y-115355134D01*
X121890706Y-115129014D01*
X121920000Y-115074209D01*
X121949294Y-115129014D01*
X122134866Y-115355134D01*
X122360986Y-115540706D01*
X122618966Y-115678599D01*
X122898889Y-115763513D01*
X123117050Y-115785000D01*
X123262950Y-115785000D01*
X123481111Y-115763513D01*
X123761034Y-115678599D01*
X124019014Y-115540706D01*
X124245134Y-115355134D01*
X124430706Y-115129014D01*
X124460000Y-115074209D01*
X124489294Y-115129014D01*
X124674866Y-115355134D01*
X124900986Y-115540706D01*
X125158966Y-115678599D01*
X125438889Y-115763513D01*
X125657050Y-115785000D01*
X125802950Y-115785000D01*
X126021111Y-115763513D01*
X126301034Y-115678599D01*
X126559014Y-115540706D01*
X126785134Y-115355134D01*
X126809607Y-115325313D01*
X126830498Y-115394180D01*
X126889463Y-115504494D01*
X126968815Y-115601185D01*
X127065506Y-115680537D01*
X127175820Y-115739502D01*
X127295518Y-115775812D01*
X127420000Y-115788072D01*
X127984250Y-115785000D01*
X128143000Y-115626250D01*
X128143000Y-114427000D01*
X128397000Y-114427000D01*
X128397000Y-115626250D01*
X128555750Y-115785000D01*
X129120000Y-115788072D01*
X129244482Y-115775812D01*
X129364180Y-115739502D01*
X129474494Y-115680537D01*
X129571185Y-115601185D01*
X129650537Y-115504494D01*
X129709502Y-115394180D01*
X129745812Y-115274482D01*
X129758072Y-115150000D01*
X129755000Y-114585750D01*
X129596250Y-114427000D01*
X128397000Y-114427000D01*
X128143000Y-114427000D01*
X128123000Y-114427000D01*
X128123000Y-114173000D01*
X128143000Y-114173000D01*
X128143000Y-112973750D01*
X128397000Y-112973750D01*
X128397000Y-114173000D01*
X129596250Y-114173000D01*
X129755000Y-114014250D01*
X129758072Y-113450000D01*
X129745812Y-113325518D01*
X129709502Y-113205820D01*
X129650537Y-113095506D01*
X129571185Y-112998815D01*
X129474494Y-112919463D01*
X129364180Y-112860498D01*
X129244482Y-112824188D01*
X129120000Y-112811928D01*
X128555750Y-112815000D01*
X128397000Y-112973750D01*
X128143000Y-112973750D01*
X127984250Y-112815000D01*
X127420000Y-112811928D01*
X127295518Y-112824188D01*
X127175820Y-112860498D01*
X127065506Y-112919463D01*
X126968815Y-112998815D01*
X126889463Y-113095506D01*
X126830498Y-113205820D01*
X126809607Y-113274687D01*
X126785134Y-113244866D01*
X126559014Y-113059294D01*
X126301034Y-112921401D01*
X126021111Y-112836487D01*
X125802950Y-112815000D01*
X125657050Y-112815000D01*
X125438889Y-112836487D01*
X125158966Y-112921401D01*
X124900986Y-113059294D01*
X124674866Y-113244866D01*
X124489294Y-113470986D01*
X124460000Y-113525791D01*
X124430706Y-113470986D01*
X124245134Y-113244866D01*
X124075000Y-113105241D01*
X124075000Y-105482017D01*
X133468090Y-105482017D01*
X133509078Y-105754133D01*
X133602364Y-106013023D01*
X133664344Y-106128980D01*
X133904435Y-106195960D01*
X134690395Y-105410000D01*
X135049605Y-105410000D01*
X135835565Y-106195960D01*
X136075656Y-106128980D01*
X136192756Y-105879952D01*
X136259023Y-105612865D01*
X136271910Y-105337983D01*
X136230922Y-105065867D01*
X136137636Y-104806977D01*
X136075656Y-104691020D01*
X135835565Y-104624040D01*
X135049605Y-105410000D01*
X134690395Y-105410000D01*
X133904435Y-104624040D01*
X133664344Y-104691020D01*
X133547244Y-104940048D01*
X133480977Y-105207135D01*
X133468090Y-105482017D01*
X124075000Y-105482017D01*
X124075000Y-102732408D01*
X133473000Y-102732408D01*
X133473000Y-103007592D01*
X133526686Y-103277490D01*
X133631995Y-103531727D01*
X133784880Y-103760535D01*
X133979465Y-103955120D01*
X134208273Y-104108005D01*
X134279943Y-104137692D01*
X134266977Y-104142364D01*
X134151020Y-104204344D01*
X134084040Y-104444435D01*
X134870000Y-105230395D01*
X135655960Y-104444435D01*
X135588980Y-104204344D01*
X135453240Y-104140515D01*
X135531727Y-104108005D01*
X135760535Y-103955120D01*
X135955120Y-103760535D01*
X136108005Y-103531727D01*
X136213314Y-103277490D01*
X136267000Y-103007592D01*
X136267000Y-102732408D01*
X136213314Y-102462510D01*
X136108005Y-102208273D01*
X135955120Y-101979465D01*
X135760535Y-101784880D01*
X135531727Y-101631995D01*
X135277490Y-101526686D01*
X135007592Y-101473000D01*
X134732408Y-101473000D01*
X134462510Y-101526686D01*
X134208273Y-101631995D01*
X133979465Y-101784880D01*
X133784880Y-101979465D01*
X133631995Y-102208273D01*
X133526686Y-102462510D01*
X133473000Y-102732408D01*
X124075000Y-102732408D01*
X124075000Y-98040000D01*
X132036523Y-98040000D01*
X132080000Y-98044282D01*
X132123476Y-98040000D01*
X132123477Y-98040000D01*
X132253490Y-98027195D01*
X132420313Y-97976589D01*
X132574059Y-97894411D01*
X132708817Y-97783817D01*
X132819411Y-97649059D01*
X132901589Y-97495313D01*
X132952195Y-97328490D01*
X132969282Y-97155000D01*
X132965000Y-97111523D01*
X132965000Y-91890000D01*
X141361531Y-91890000D01*
X141405000Y-91894281D01*
X141448469Y-91890000D01*
X141448477Y-91890000D01*
X141578490Y-91877195D01*
X141745313Y-91826589D01*
X141899059Y-91744411D01*
X142033817Y-91633817D01*
X142061534Y-91600044D01*
X144689561Y-88972017D01*
X159888090Y-88972017D01*
X159929078Y-89244133D01*
X160022364Y-89503023D01*
X160084344Y-89618980D01*
X160324435Y-89685960D01*
X161110395Y-88900000D01*
X160324435Y-88114040D01*
X160084344Y-88181020D01*
X159967244Y-88430048D01*
X159900977Y-88697135D01*
X159888090Y-88972017D01*
X144689561Y-88972017D01*
X145727143Y-87934435D01*
X160504040Y-87934435D01*
X161290000Y-88720395D01*
X162075960Y-87934435D01*
X162008980Y-87694344D01*
X161759952Y-87577244D01*
X161492865Y-87510977D01*
X161217983Y-87498090D01*
X160945867Y-87539078D01*
X160686977Y-87632364D01*
X160571020Y-87694344D01*
X160504040Y-87934435D01*
X145727143Y-87934435D01*
X152131579Y-81530000D01*
X153829688Y-81530000D01*
X153444321Y-81606654D01*
X153010279Y-81786440D01*
X152619651Y-82047450D01*
X152287450Y-82379651D01*
X152026440Y-82770279D01*
X151846654Y-83204321D01*
X151755000Y-83665098D01*
X151755000Y-84134902D01*
X151846654Y-84595679D01*
X152026440Y-85029721D01*
X152287450Y-85420349D01*
X152619651Y-85752550D01*
X153010279Y-86013560D01*
X153444321Y-86193346D01*
X153905098Y-86285000D01*
X154374902Y-86285000D01*
X154835679Y-86193346D01*
X155269721Y-86013560D01*
X155660349Y-85752550D01*
X155992550Y-85420349D01*
X156253560Y-85029721D01*
X156433346Y-84595679D01*
X156525000Y-84134902D01*
X156525000Y-83665098D01*
X156433346Y-83204321D01*
X156253560Y-82770279D01*
X155992550Y-82379651D01*
X155660349Y-82047450D01*
X155269721Y-81786440D01*
X154835679Y-81606654D01*
X154450312Y-81530000D01*
X161088422Y-81530000D01*
X162043470Y-82485049D01*
X162071183Y-82518817D01*
X162104951Y-82546530D01*
X162104953Y-82546532D01*
X162205941Y-82629411D01*
X162359687Y-82711589D01*
X162526510Y-82762195D01*
X162561928Y-82765683D01*
X162561928Y-82890000D01*
X162574188Y-83014482D01*
X162610498Y-83134180D01*
X162669463Y-83244494D01*
X162748815Y-83341185D01*
X162845506Y-83420537D01*
X162955820Y-83479502D01*
X163075518Y-83515812D01*
X163200000Y-83528072D01*
X166386494Y-83528072D01*
X168025001Y-85166580D01*
X168025000Y-87811181D01*
X168019465Y-87814880D01*
X167824880Y-88009465D01*
X167671995Y-88238273D01*
X167640000Y-88315515D01*
X167608005Y-88238273D01*
X167455120Y-88009465D01*
X167260535Y-87814880D01*
X167031727Y-87661995D01*
X166777490Y-87556686D01*
X166507592Y-87503000D01*
X166232408Y-87503000D01*
X165962510Y-87556686D01*
X165708273Y-87661995D01*
X165479465Y-87814880D01*
X165284880Y-88009465D01*
X165131995Y-88238273D01*
X165100000Y-88315515D01*
X165068005Y-88238273D01*
X164915120Y-88009465D01*
X164720535Y-87814880D01*
X164491727Y-87661995D01*
X164237490Y-87556686D01*
X163967592Y-87503000D01*
X163692408Y-87503000D01*
X163422510Y-87556686D01*
X163168273Y-87661995D01*
X162939465Y-87814880D01*
X162744880Y-88009465D01*
X162591995Y-88238273D01*
X162562308Y-88309943D01*
X162557636Y-88296977D01*
X162495656Y-88181020D01*
X162255565Y-88114040D01*
X161469605Y-88900000D01*
X161483748Y-88914143D01*
X161304143Y-89093748D01*
X161290000Y-89079605D01*
X160504040Y-89865565D01*
X160571020Y-90105656D01*
X160820048Y-90222756D01*
X161087135Y-90289023D01*
X161353679Y-90301519D01*
X160975199Y-90680000D01*
X158787322Y-90680000D01*
X158749999Y-90676324D01*
X158712677Y-90680000D01*
X158712667Y-90680000D01*
X158601014Y-90690997D01*
X158457753Y-90734454D01*
X158325723Y-90805026D01*
X158242083Y-90873668D01*
X158209999Y-90899999D01*
X158186201Y-90928997D01*
X146808998Y-102306201D01*
X146780000Y-102329999D01*
X146756202Y-102358997D01*
X146756201Y-102358998D01*
X146685026Y-102445724D01*
X146614454Y-102577754D01*
X146570998Y-102721015D01*
X146556324Y-102870000D01*
X146560001Y-102907333D01*
X146560000Y-130772667D01*
X146556323Y-130810000D01*
X146570997Y-130958986D01*
X146614454Y-131102247D01*
X146685026Y-131234276D01*
X146779999Y-131350001D01*
X146895724Y-131444974D01*
X147027753Y-131515546D01*
X147171014Y-131559003D01*
X147320000Y-131573677D01*
X147357333Y-131570000D01*
X148937659Y-131570000D01*
X149024880Y-131700535D01*
X149219465Y-131895120D01*
X149448273Y-132048005D01*
X149702510Y-132153314D01*
X149972408Y-132207000D01*
X150247592Y-132207000D01*
X150517490Y-132153314D01*
X150771727Y-132048005D01*
X151000535Y-131895120D01*
X151195120Y-131700535D01*
X151348005Y-131471727D01*
X151453314Y-131217490D01*
X151507000Y-130947592D01*
X151507000Y-130672408D01*
X151453314Y-130402510D01*
X151348005Y-130148273D01*
X151195120Y-129919465D01*
X151000535Y-129724880D01*
X150771727Y-129571995D01*
X150694485Y-129540000D01*
X150771727Y-129508005D01*
X151000535Y-129355120D01*
X151195120Y-129160535D01*
X151282341Y-129030000D01*
X153632667Y-129030000D01*
X153670000Y-129033677D01*
X153707333Y-129030000D01*
X153818986Y-129019003D01*
X153962247Y-128975546D01*
X154094276Y-128904974D01*
X154210001Y-128810001D01*
X154304974Y-128694276D01*
X154375546Y-128562247D01*
X154419003Y-128418986D01*
X154433677Y-128270000D01*
X154430000Y-128232667D01*
X154430000Y-114300000D01*
X159797815Y-114300000D01*
X159826487Y-114591111D01*
X159911401Y-114871034D01*
X160049294Y-115129014D01*
X160234866Y-115355134D01*
X160460986Y-115540706D01*
X160718966Y-115678599D01*
X160998889Y-115763513D01*
X161217050Y-115785000D01*
X161362950Y-115785000D01*
X161581111Y-115763513D01*
X161861034Y-115678599D01*
X162119014Y-115540706D01*
X162345134Y-115355134D01*
X162369607Y-115325313D01*
X162390498Y-115394180D01*
X162449463Y-115504494D01*
X162528815Y-115601185D01*
X162625506Y-115680537D01*
X162735820Y-115739502D01*
X162855518Y-115775812D01*
X162980000Y-115788072D01*
X163544250Y-115785000D01*
X163703000Y-115626250D01*
X163703000Y-114427000D01*
X163957000Y-114427000D01*
X163957000Y-115626250D01*
X164115750Y-115785000D01*
X164680000Y-115788072D01*
X164804482Y-115775812D01*
X164924180Y-115739502D01*
X165034494Y-115680537D01*
X165131185Y-115601185D01*
X165210537Y-115504494D01*
X165269502Y-115394180D01*
X165305812Y-115274482D01*
X165318072Y-115150000D01*
X165315000Y-114585750D01*
X165156250Y-114427000D01*
X163957000Y-114427000D01*
X163703000Y-114427000D01*
X163683000Y-114427000D01*
X163683000Y-114173000D01*
X163703000Y-114173000D01*
X163703000Y-112973750D01*
X163957000Y-112973750D01*
X163957000Y-114173000D01*
X165156250Y-114173000D01*
X165315000Y-114014250D01*
X165318072Y-113450000D01*
X165305812Y-113325518D01*
X165269502Y-113205820D01*
X165210537Y-113095506D01*
X165131185Y-112998815D01*
X165034494Y-112919463D01*
X164924180Y-112860498D01*
X164804482Y-112824188D01*
X164680000Y-112811928D01*
X164115750Y-112815000D01*
X163957000Y-112973750D01*
X163703000Y-112973750D01*
X163544250Y-112815000D01*
X162980000Y-112811928D01*
X162855518Y-112824188D01*
X162735820Y-112860498D01*
X162625506Y-112919463D01*
X162528815Y-112998815D01*
X162449463Y-113095506D01*
X162390498Y-113205820D01*
X162369607Y-113274687D01*
X162345134Y-113244866D01*
X162119014Y-113059294D01*
X161861034Y-112921401D01*
X161581111Y-112836487D01*
X161362950Y-112815000D01*
X161217050Y-112815000D01*
X160998889Y-112836487D01*
X160718966Y-112921401D01*
X160460986Y-113059294D01*
X160234866Y-113244866D01*
X160049294Y-113470986D01*
X159911401Y-113728966D01*
X159826487Y-114008889D01*
X159797815Y-114300000D01*
X154430000Y-114300000D01*
X154430000Y-103184801D01*
X166881004Y-90733798D01*
X166910001Y-90710001D01*
X167004974Y-90594276D01*
X167075546Y-90462247D01*
X167119003Y-90318986D01*
X167130000Y-90207333D01*
X167130000Y-90207324D01*
X167133676Y-90170001D01*
X167130000Y-90132678D01*
X167130000Y-90072341D01*
X167260535Y-89985120D01*
X167455120Y-89790535D01*
X167608005Y-89561727D01*
X167640000Y-89484485D01*
X167671995Y-89561727D01*
X167824880Y-89790535D01*
X168019465Y-89985120D01*
X168248273Y-90138005D01*
X168502510Y-90243314D01*
X168772408Y-90297000D01*
X169047592Y-90297000D01*
X169317490Y-90243314D01*
X169571727Y-90138005D01*
X169800535Y-89985120D01*
X169995120Y-89790535D01*
X170148005Y-89561727D01*
X170253314Y-89307490D01*
X170307000Y-89037592D01*
X170307000Y-88762408D01*
X170253314Y-88492510D01*
X170148005Y-88238273D01*
X169995120Y-88009465D01*
X169800535Y-87814880D01*
X169795000Y-87811182D01*
X169795000Y-84843465D01*
X169799281Y-84799999D01*
X169795000Y-84756533D01*
X169795000Y-84756523D01*
X169782195Y-84626510D01*
X169731589Y-84459687D01*
X169649411Y-84305941D01*
X169625210Y-84276452D01*
X169566532Y-84204953D01*
X169566530Y-84204951D01*
X169538817Y-84171183D01*
X169505049Y-84143470D01*
X167638072Y-82276494D01*
X167638072Y-80890000D01*
X167625812Y-80765518D01*
X167589502Y-80645820D01*
X167530537Y-80535506D01*
X167451185Y-80438815D01*
X167354494Y-80359463D01*
X167244180Y-80300498D01*
X167124482Y-80264188D01*
X167000000Y-80251928D01*
X165985000Y-80251928D01*
X165985000Y-77212621D01*
X166094180Y-77179502D01*
X166204494Y-77120537D01*
X166250000Y-77083191D01*
X166295506Y-77120537D01*
X166405820Y-77179502D01*
X166525518Y-77215812D01*
X166650000Y-77228072D01*
X168150000Y-77228072D01*
X168274482Y-77215812D01*
X168394180Y-77179502D01*
X168504494Y-77120537D01*
X168601185Y-77041185D01*
X168680537Y-76944494D01*
X168739502Y-76834180D01*
X168775812Y-76714482D01*
X168788072Y-76590000D01*
X168788072Y-74590000D01*
X168775812Y-74465518D01*
X168739502Y-74345820D01*
X168680537Y-74235506D01*
X168601185Y-74138815D01*
X168504494Y-74059463D01*
X168394180Y-74000498D01*
X168325000Y-73979512D01*
X168325000Y-70616294D01*
X168395886Y-70578405D01*
X168530462Y-70467962D01*
X168640905Y-70333386D01*
X168722972Y-70179850D01*
X168773508Y-70013254D01*
X168790572Y-69840000D01*
X168790572Y-68590000D01*
X168773508Y-68416746D01*
X168722972Y-68250150D01*
X168640905Y-68096614D01*
X168530462Y-67962038D01*
X168395886Y-67851595D01*
X168325000Y-67813706D01*
X168325000Y-66918469D01*
X168329281Y-66875000D01*
X168325000Y-66831531D01*
X168325000Y-66831523D01*
X168312195Y-66701510D01*
X168261589Y-66534687D01*
X168179411Y-66380941D01*
X168068817Y-66246183D01*
X168035044Y-66218466D01*
X167896532Y-66079954D01*
X167868817Y-66046183D01*
X167734059Y-65935589D01*
X167580313Y-65853411D01*
X167413490Y-65802805D01*
X167283477Y-65790000D01*
X167283469Y-65790000D01*
X167240000Y-65785719D01*
X167196531Y-65790000D01*
X142105000Y-65790000D01*
X142105000Y-62565098D01*
X164835000Y-62565098D01*
X164835000Y-63034902D01*
X164926654Y-63495679D01*
X165106440Y-63929721D01*
X165367450Y-64320349D01*
X165699651Y-64652550D01*
X166090279Y-64913560D01*
X166524321Y-65093346D01*
X166985098Y-65185000D01*
X167454902Y-65185000D01*
X167915679Y-65093346D01*
X168349721Y-64913560D01*
X168740349Y-64652550D01*
X169072550Y-64320349D01*
X169333560Y-63929721D01*
X169513346Y-63495679D01*
X169605000Y-63034902D01*
X169605000Y-62565098D01*
X169513346Y-62104321D01*
X169333560Y-61670279D01*
X169072550Y-61279651D01*
X168740349Y-60947450D01*
X168349721Y-60686440D01*
X167915679Y-60506654D01*
X167454902Y-60415000D01*
X166985098Y-60415000D01*
X166524321Y-60506654D01*
X166090279Y-60686440D01*
X165699651Y-60947450D01*
X165367450Y-61279651D01*
X165106440Y-61670279D01*
X164926654Y-62104321D01*
X164835000Y-62565098D01*
X142105000Y-62565098D01*
X142105000Y-60688818D01*
X142110535Y-60685120D01*
X142305120Y-60490535D01*
X142458005Y-60261727D01*
X142490000Y-60184485D01*
X142521995Y-60261727D01*
X142674880Y-60490535D01*
X142869465Y-60685120D01*
X143098273Y-60838005D01*
X143352510Y-60943314D01*
X143622408Y-60997000D01*
X143897592Y-60997000D01*
X144167490Y-60943314D01*
X144421727Y-60838005D01*
X144650535Y-60685120D01*
X144845120Y-60490535D01*
X144998005Y-60261727D01*
X145030000Y-60184485D01*
X145061995Y-60261727D01*
X145214880Y-60490535D01*
X145409465Y-60685120D01*
X145638273Y-60838005D01*
X145892510Y-60943314D01*
X146162408Y-60997000D01*
X146437592Y-60997000D01*
X146707490Y-60943314D01*
X146961727Y-60838005D01*
X147190535Y-60685120D01*
X147385120Y-60490535D01*
X147538005Y-60261727D01*
X147643314Y-60007490D01*
X147671637Y-59865098D01*
X151755000Y-59865098D01*
X151755000Y-60334902D01*
X151846654Y-60795679D01*
X152026440Y-61229721D01*
X152287450Y-61620349D01*
X152619651Y-61952550D01*
X153010279Y-62213560D01*
X153444321Y-62393346D01*
X153905098Y-62485000D01*
X154374902Y-62485000D01*
X154835679Y-62393346D01*
X155269721Y-62213560D01*
X155660349Y-61952550D01*
X155992550Y-61620349D01*
X156253560Y-61229721D01*
X156433346Y-60795679D01*
X156525000Y-60334902D01*
X156525000Y-59865098D01*
X156433346Y-59404321D01*
X156253560Y-58970279D01*
X155992550Y-58579651D01*
X155660349Y-58247450D01*
X155269721Y-57986440D01*
X154835679Y-57806654D01*
X154374902Y-57715000D01*
X153905098Y-57715000D01*
X153444321Y-57806654D01*
X153010279Y-57986440D01*
X152619651Y-58247450D01*
X152287450Y-58579651D01*
X152026440Y-58970279D01*
X151846654Y-59404321D01*
X151755000Y-59865098D01*
X147671637Y-59865098D01*
X147697000Y-59737592D01*
X147697000Y-59462408D01*
X147643314Y-59192510D01*
X147538005Y-58938273D01*
X147385120Y-58709465D01*
X147190535Y-58514880D01*
X146961727Y-58361995D01*
X146707490Y-58256686D01*
X146437592Y-58203000D01*
X146162408Y-58203000D01*
X145892510Y-58256686D01*
X145638273Y-58361995D01*
X145409465Y-58514880D01*
X145214880Y-58709465D01*
X145061995Y-58938273D01*
X145030000Y-59015515D01*
X144998005Y-58938273D01*
X144845120Y-58709465D01*
X144650535Y-58514880D01*
X144421727Y-58361995D01*
X144167490Y-58256686D01*
X143897592Y-58203000D01*
X143622408Y-58203000D01*
X143352510Y-58256686D01*
X143098273Y-58361995D01*
X142869465Y-58514880D01*
X142674880Y-58709465D01*
X142521995Y-58938273D01*
X142490000Y-59015515D01*
X142458005Y-58938273D01*
X142305120Y-58709465D01*
X142110535Y-58514880D01*
X141881727Y-58361995D01*
X141627490Y-58256686D01*
X141357592Y-58203000D01*
X141082408Y-58203000D01*
X140812510Y-58256686D01*
X140558273Y-58361995D01*
X140329465Y-58514880D01*
X140134880Y-58709465D01*
X139981995Y-58938273D01*
X139952308Y-59009943D01*
X139947636Y-58996977D01*
X139885656Y-58881020D01*
X139645565Y-58814040D01*
X138859605Y-59600000D01*
X139645565Y-60385960D01*
X139885656Y-60318980D01*
X139949485Y-60183240D01*
X139981995Y-60261727D01*
X140134880Y-60490535D01*
X140329465Y-60685120D01*
X140335001Y-60688819D01*
X140335000Y-66246531D01*
X140330719Y-66290000D01*
X140335000Y-66333469D01*
X140335000Y-66333476D01*
X140347805Y-66463489D01*
X140398411Y-66630312D01*
X140480589Y-66784058D01*
X140591183Y-66918817D01*
X140624956Y-66946534D01*
X140948466Y-67270044D01*
X140976183Y-67303817D01*
X141110941Y-67414411D01*
X141264687Y-67496589D01*
X141431510Y-67547195D01*
X141561523Y-67560000D01*
X141561533Y-67560000D01*
X141604999Y-67564281D01*
X141648465Y-67560000D01*
X166555001Y-67560000D01*
X166555001Y-67813705D01*
X166484114Y-67851595D01*
X166349538Y-67962038D01*
X166239095Y-68096614D01*
X166157028Y-68250150D01*
X166106492Y-68416746D01*
X166089428Y-68590000D01*
X166089428Y-69840000D01*
X166106492Y-70013254D01*
X166157028Y-70179850D01*
X166239095Y-70333386D01*
X166349538Y-70467962D01*
X166484114Y-70578405D01*
X166555000Y-70616295D01*
X166555001Y-73961284D01*
X166525518Y-73964188D01*
X166405820Y-74000498D01*
X166295506Y-74059463D01*
X166250000Y-74096809D01*
X166204494Y-74059463D01*
X166094180Y-74000498D01*
X165974482Y-73964188D01*
X165850000Y-73951928D01*
X165785000Y-73951928D01*
X165785000Y-73791294D01*
X165855886Y-73753405D01*
X165990462Y-73642962D01*
X166100905Y-73508386D01*
X166182972Y-73354850D01*
X166233508Y-73188254D01*
X166250572Y-73015000D01*
X166250572Y-71765000D01*
X166233508Y-71591746D01*
X166182972Y-71425150D01*
X166100905Y-71271614D01*
X165990462Y-71137038D01*
X165855886Y-71026595D01*
X165702350Y-70944528D01*
X165535754Y-70893992D01*
X165362500Y-70876928D01*
X164437500Y-70876928D01*
X164264246Y-70893992D01*
X164097650Y-70944528D01*
X163944114Y-71026595D01*
X163809538Y-71137038D01*
X163699095Y-71271614D01*
X163617028Y-71425150D01*
X163566492Y-71591746D01*
X163549428Y-71765000D01*
X163549428Y-73015000D01*
X163566492Y-73188254D01*
X163617028Y-73354850D01*
X163699095Y-73508386D01*
X163809538Y-73642962D01*
X163944114Y-73753405D01*
X164015000Y-73791295D01*
X164015001Y-74049043D01*
X163995506Y-74059463D01*
X163950000Y-74096809D01*
X163904494Y-74059463D01*
X163794180Y-74000498D01*
X163674482Y-73964188D01*
X163550000Y-73951928D01*
X163085750Y-73955000D01*
X162927000Y-74113750D01*
X162927000Y-75463000D01*
X162947000Y-75463000D01*
X162947000Y-75717000D01*
X162927000Y-75717000D01*
X162927000Y-77066250D01*
X163085750Y-77225000D01*
X163550000Y-77228072D01*
X163674482Y-77215812D01*
X163794180Y-77179502D01*
X163904494Y-77120537D01*
X163950000Y-77083191D01*
X163995506Y-77120537D01*
X164105820Y-77179502D01*
X164215000Y-77212621D01*
X164215001Y-80251928D01*
X163200000Y-80251928D01*
X163075518Y-80264188D01*
X162955820Y-80300498D01*
X162845506Y-80359463D01*
X162748815Y-80438815D01*
X162669463Y-80535506D01*
X162644251Y-80582673D01*
X162111534Y-80049956D01*
X162083817Y-80016183D01*
X161949059Y-79905589D01*
X161795313Y-79823411D01*
X161628490Y-79772805D01*
X161498477Y-79760000D01*
X161498469Y-79760000D01*
X161455000Y-79755719D01*
X161411531Y-79760000D01*
X151808469Y-79760000D01*
X151765000Y-79755719D01*
X151721531Y-79760000D01*
X151721523Y-79760000D01*
X151591510Y-79772805D01*
X151424686Y-79823411D01*
X151270941Y-79905589D01*
X151169953Y-79988468D01*
X151169951Y-79988470D01*
X151136183Y-80016183D01*
X151108470Y-80049951D01*
X141038422Y-90120000D01*
X131688469Y-90120000D01*
X131645000Y-90115719D01*
X131601531Y-90120000D01*
X129671294Y-90120000D01*
X129633405Y-90049114D01*
X129522962Y-89914538D01*
X129388386Y-89804095D01*
X129234850Y-89722028D01*
X129068254Y-89671492D01*
X128895000Y-89654428D01*
X127645000Y-89654428D01*
X127471746Y-89671492D01*
X127305150Y-89722028D01*
X127151614Y-89804095D01*
X127017038Y-89914538D01*
X126906595Y-90049114D01*
X126824528Y-90202650D01*
X126773992Y-90369246D01*
X126756928Y-90542500D01*
X126756928Y-90555000D01*
X124913818Y-90555000D01*
X124910120Y-90549465D01*
X124715535Y-90354880D01*
X124486727Y-90201995D01*
X124409485Y-90170000D01*
X124486727Y-90138005D01*
X124715535Y-89985120D01*
X124910120Y-89790535D01*
X125063005Y-89561727D01*
X125168314Y-89307490D01*
X125222000Y-89037592D01*
X125222000Y-88762408D01*
X125168314Y-88492510D01*
X125063005Y-88238273D01*
X124910120Y-88009465D01*
X124715535Y-87814880D01*
X124578951Y-87723617D01*
X124574003Y-87673384D01*
X124530546Y-87530123D01*
X124459974Y-87398094D01*
X124365001Y-87282369D01*
X124336003Y-87258571D01*
X122680000Y-85602569D01*
X122680000Y-85278319D01*
X122722350Y-85265472D01*
X122875886Y-85183405D01*
X123010462Y-85072962D01*
X123120905Y-84938386D01*
X123202972Y-84784850D01*
X123253508Y-84618254D01*
X123270572Y-84445000D01*
X123270572Y-83195000D01*
X123544428Y-83195000D01*
X123544428Y-84445000D01*
X123561492Y-84618254D01*
X123612028Y-84784850D01*
X123694095Y-84938386D01*
X123804538Y-85072962D01*
X123939114Y-85183405D01*
X124092650Y-85265472D01*
X124259246Y-85316008D01*
X124432500Y-85333072D01*
X125357500Y-85333072D01*
X125530754Y-85316008D01*
X125697350Y-85265472D01*
X125850886Y-85183405D01*
X125943005Y-85107806D01*
X129775000Y-88939802D01*
X129775000Y-89001939D01*
X129814774Y-89201898D01*
X129892795Y-89390256D01*
X130006063Y-89559774D01*
X130150226Y-89703937D01*
X130319744Y-89817205D01*
X130508102Y-89895226D01*
X130708061Y-89935000D01*
X130911939Y-89935000D01*
X131111898Y-89895226D01*
X131300256Y-89817205D01*
X131469774Y-89703937D01*
X131613937Y-89559774D01*
X131727205Y-89390256D01*
X131805226Y-89201898D01*
X131845000Y-89001939D01*
X131845000Y-88798061D01*
X131805226Y-88598102D01*
X131727205Y-88409744D01*
X131613937Y-88240226D01*
X131469774Y-88096063D01*
X131300256Y-87982795D01*
X131111898Y-87904774D01*
X130911939Y-87865000D01*
X130849802Y-87865000D01*
X126649900Y-83665098D01*
X128455000Y-83665098D01*
X128455000Y-84134902D01*
X128546654Y-84595679D01*
X128726440Y-85029721D01*
X128987450Y-85420349D01*
X129319651Y-85752550D01*
X129710279Y-86013560D01*
X130144321Y-86193346D01*
X130605098Y-86285000D01*
X131074902Y-86285000D01*
X131535679Y-86193346D01*
X131969721Y-86013560D01*
X132360349Y-85752550D01*
X132692550Y-85420349D01*
X132953560Y-85029721D01*
X133133346Y-84595679D01*
X133225000Y-84134902D01*
X133225000Y-83665098D01*
X133133346Y-83204321D01*
X132953560Y-82770279D01*
X132692550Y-82379651D01*
X132360349Y-82047450D01*
X131969721Y-81786440D01*
X131535679Y-81606654D01*
X131074902Y-81515000D01*
X130605098Y-81515000D01*
X130144321Y-81606654D01*
X129710279Y-81786440D01*
X129319651Y-82047450D01*
X128987450Y-82379651D01*
X128726440Y-82770279D01*
X128546654Y-83204321D01*
X128455000Y-83665098D01*
X126649900Y-83665098D01*
X126293804Y-83309003D01*
X126270001Y-83279999D01*
X126245572Y-83259951D01*
X126245572Y-83195000D01*
X126228508Y-83021746D01*
X126177972Y-82855150D01*
X126095905Y-82701614D01*
X125985462Y-82567038D01*
X125850886Y-82456595D01*
X125697350Y-82374528D01*
X125530754Y-82323992D01*
X125357500Y-82306928D01*
X124432500Y-82306928D01*
X124259246Y-82323992D01*
X124092650Y-82374528D01*
X123939114Y-82456595D01*
X123804538Y-82567038D01*
X123694095Y-82701614D01*
X123612028Y-82855150D01*
X123561492Y-83021746D01*
X123544428Y-83195000D01*
X123270572Y-83195000D01*
X123253508Y-83021746D01*
X123202972Y-82855150D01*
X123120905Y-82701614D01*
X123010462Y-82567038D01*
X122875886Y-82456595D01*
X122722350Y-82374528D01*
X122555754Y-82323992D01*
X122382500Y-82306928D01*
X121457500Y-82306928D01*
X121284246Y-82323992D01*
X121117650Y-82374528D01*
X120964114Y-82456595D01*
X120829538Y-82567038D01*
X120719095Y-82701614D01*
X120637028Y-82855150D01*
X120586492Y-83021746D01*
X120582724Y-83060000D01*
X119882276Y-83060000D01*
X119878508Y-83021746D01*
X119827972Y-82855150D01*
X119745905Y-82701614D01*
X119635462Y-82567038D01*
X119500886Y-82456595D01*
X119347350Y-82374528D01*
X119180754Y-82323992D01*
X119007500Y-82306928D01*
X118082500Y-82306928D01*
X117909246Y-82323992D01*
X117742650Y-82374528D01*
X117589114Y-82456595D01*
X117454538Y-82567038D01*
X117344095Y-82701614D01*
X117262028Y-82855150D01*
X117211492Y-83021746D01*
X117194428Y-83195000D01*
X117194428Y-84445000D01*
X117211492Y-84618254D01*
X117262028Y-84784850D01*
X117344095Y-84938386D01*
X117454538Y-85072962D01*
X117589114Y-85183405D01*
X117742650Y-85265472D01*
X117909246Y-85316008D01*
X118082500Y-85333072D01*
X119007500Y-85333072D01*
X119180754Y-85316008D01*
X119347350Y-85265472D01*
X119500886Y-85183405D01*
X119635462Y-85072962D01*
X119745905Y-84938386D01*
X119827972Y-84784850D01*
X119878508Y-84618254D01*
X119882276Y-84580000D01*
X120582724Y-84580000D01*
X120586492Y-84618254D01*
X120637028Y-84784850D01*
X120719095Y-84938386D01*
X120829538Y-85072962D01*
X120964114Y-85183405D01*
X121117650Y-85265472D01*
X121160000Y-85278319D01*
X121160000Y-85880047D01*
X121156324Y-85917370D01*
X121160000Y-85954692D01*
X121160000Y-85954702D01*
X121170997Y-86066355D01*
X121209519Y-86193346D01*
X121214454Y-86209616D01*
X121285026Y-86341646D01*
X121324871Y-86390196D01*
X121379999Y-86457371D01*
X121409003Y-86481174D01*
X122838587Y-87910758D01*
X122739880Y-88009465D01*
X122586995Y-88238273D01*
X122555000Y-88315515D01*
X122523005Y-88238273D01*
X122370120Y-88009465D01*
X122175535Y-87814880D01*
X121946727Y-87661995D01*
X121692490Y-87556686D01*
X121422592Y-87503000D01*
X121147408Y-87503000D01*
X120877510Y-87556686D01*
X120623273Y-87661995D01*
X120394465Y-87814880D01*
X120199880Y-88009465D01*
X120046995Y-88238273D01*
X120015000Y-88315515D01*
X119983005Y-88238273D01*
X119830120Y-88009465D01*
X119635535Y-87814880D01*
X119406727Y-87661995D01*
X119152490Y-87556686D01*
X118882592Y-87503000D01*
X118607408Y-87503000D01*
X118337510Y-87556686D01*
X118083273Y-87661995D01*
X117854465Y-87814880D01*
X117659880Y-88009465D01*
X117506995Y-88238273D01*
X117477308Y-88309943D01*
X117472636Y-88296977D01*
X117410656Y-88181020D01*
X117170565Y-88114040D01*
X116384605Y-88900000D01*
X117170565Y-89685960D01*
X117410656Y-89618980D01*
X117474485Y-89483240D01*
X117506995Y-89561727D01*
X117659880Y-89790535D01*
X117854465Y-89985120D01*
X118083273Y-90138005D01*
X118160515Y-90170000D01*
X118083273Y-90201995D01*
X117854465Y-90354880D01*
X117659880Y-90549465D01*
X117506995Y-90778273D01*
X117475000Y-90855515D01*
X117443005Y-90778273D01*
X117290120Y-90549465D01*
X117095535Y-90354880D01*
X116866727Y-90201995D01*
X116795057Y-90172308D01*
X116808023Y-90167636D01*
X116923980Y-90105656D01*
X116990960Y-89865565D01*
X116205000Y-89079605D01*
X115419040Y-89865565D01*
X115486020Y-90105656D01*
X115621760Y-90169485D01*
X115543273Y-90201995D01*
X115314465Y-90354880D01*
X115119880Y-90549465D01*
X114966995Y-90778273D01*
X114861686Y-91032510D01*
X114808000Y-91302408D01*
X114808000Y-91577592D01*
X114861686Y-91847490D01*
X114966995Y-92101727D01*
X115119880Y-92330535D01*
X115314465Y-92525120D01*
X115445001Y-92612342D01*
X115445000Y-105372678D01*
X115441324Y-105410000D01*
X115445000Y-105447322D01*
X115445000Y-105447332D01*
X115455997Y-105558985D01*
X115499454Y-105702246D01*
X115570026Y-105834276D01*
X115607512Y-105879952D01*
X115664999Y-105950001D01*
X115694003Y-105973804D01*
X117350001Y-107629803D01*
X117350000Y-113022405D01*
X117280986Y-113059294D01*
X117054866Y-113244866D01*
X116869294Y-113470986D01*
X116840000Y-113525791D01*
X116810706Y-113470986D01*
X116625134Y-113244866D01*
X116399014Y-113059294D01*
X116141034Y-112921401D01*
X115861111Y-112836487D01*
X115642950Y-112815000D01*
X115497050Y-112815000D01*
X115278889Y-112836487D01*
X114998966Y-112921401D01*
X114740986Y-113059294D01*
X114514866Y-113244866D01*
X114329294Y-113470986D01*
X114191401Y-113728966D01*
X114106487Y-114008889D01*
X114077815Y-114300000D01*
X111200000Y-114300000D01*
X111200000Y-88972017D01*
X114803090Y-88972017D01*
X114844078Y-89244133D01*
X114937364Y-89503023D01*
X114999344Y-89618980D01*
X115239435Y-89685960D01*
X116025395Y-88900000D01*
X115239435Y-88114040D01*
X114999344Y-88181020D01*
X114882244Y-88430048D01*
X114815977Y-88697135D01*
X114803090Y-88972017D01*
X111200000Y-88972017D01*
X111200000Y-87934435D01*
X115419040Y-87934435D01*
X116205000Y-88720395D01*
X116990960Y-87934435D01*
X116923980Y-87694344D01*
X116674952Y-87577244D01*
X116407865Y-87510977D01*
X116132983Y-87498090D01*
X115860867Y-87539078D01*
X115601977Y-87632364D01*
X115486020Y-87694344D01*
X115419040Y-87934435D01*
X111200000Y-87934435D01*
X111200000Y-84695000D01*
X114219428Y-84695000D01*
X114231688Y-84819482D01*
X114267998Y-84939180D01*
X114326963Y-85049494D01*
X114406315Y-85146185D01*
X114503006Y-85225537D01*
X114613320Y-85284502D01*
X114733018Y-85320812D01*
X114857500Y-85333072D01*
X115284250Y-85330000D01*
X115443000Y-85171250D01*
X115443000Y-83947000D01*
X115697000Y-83947000D01*
X115697000Y-85171250D01*
X115855750Y-85330000D01*
X116282500Y-85333072D01*
X116406982Y-85320812D01*
X116526680Y-85284502D01*
X116636994Y-85225537D01*
X116733685Y-85146185D01*
X116813037Y-85049494D01*
X116872002Y-84939180D01*
X116908312Y-84819482D01*
X116920572Y-84695000D01*
X116917500Y-84105750D01*
X116758750Y-83947000D01*
X115697000Y-83947000D01*
X115443000Y-83947000D01*
X114381250Y-83947000D01*
X114222500Y-84105750D01*
X114219428Y-84695000D01*
X111200000Y-84695000D01*
X111200000Y-82945000D01*
X114219428Y-82945000D01*
X114222500Y-83534250D01*
X114381250Y-83693000D01*
X115443000Y-83693000D01*
X115443000Y-82468750D01*
X115697000Y-82468750D01*
X115697000Y-83693000D01*
X116758750Y-83693000D01*
X116917500Y-83534250D01*
X116920572Y-82945000D01*
X116908312Y-82820518D01*
X116872002Y-82700820D01*
X116813037Y-82590506D01*
X116733685Y-82493815D01*
X116636994Y-82414463D01*
X116526680Y-82355498D01*
X116406982Y-82319188D01*
X116282500Y-82306928D01*
X115855750Y-82310000D01*
X115697000Y-82468750D01*
X115443000Y-82468750D01*
X115284250Y-82310000D01*
X114857500Y-82306928D01*
X114733018Y-82319188D01*
X114613320Y-82355498D01*
X114503006Y-82414463D01*
X114406315Y-82493815D01*
X114326963Y-82590506D01*
X114267998Y-82700820D01*
X114231688Y-82820518D01*
X114219428Y-82945000D01*
X111200000Y-82945000D01*
X111200000Y-76767264D01*
X135355000Y-76767264D01*
X135355000Y-78172736D01*
X135629194Y-79551203D01*
X136167045Y-80849690D01*
X136947884Y-82018297D01*
X137941703Y-83012116D01*
X139110310Y-83792955D01*
X140408797Y-84330806D01*
X141787264Y-84605000D01*
X143192736Y-84605000D01*
X144571203Y-84330806D01*
X145869690Y-83792955D01*
X147038297Y-83012116D01*
X148032116Y-82018297D01*
X148812955Y-80849690D01*
X149350806Y-79551203D01*
X149625000Y-78172736D01*
X149625000Y-76767264D01*
X149589741Y-76590000D01*
X161411928Y-76590000D01*
X161424188Y-76714482D01*
X161460498Y-76834180D01*
X161519463Y-76944494D01*
X161598815Y-77041185D01*
X161695506Y-77120537D01*
X161805820Y-77179502D01*
X161925518Y-77215812D01*
X162050000Y-77228072D01*
X162514250Y-77225000D01*
X162673000Y-77066250D01*
X162673000Y-75717000D01*
X161573750Y-75717000D01*
X161415000Y-75875750D01*
X161411928Y-76590000D01*
X149589741Y-76590000D01*
X149350806Y-75388797D01*
X149019934Y-74590000D01*
X161411928Y-74590000D01*
X161415000Y-75304250D01*
X161573750Y-75463000D01*
X162673000Y-75463000D01*
X162673000Y-74113750D01*
X162514250Y-73955000D01*
X162050000Y-73951928D01*
X161925518Y-73964188D01*
X161805820Y-74000498D01*
X161695506Y-74059463D01*
X161598815Y-74138815D01*
X161519463Y-74235506D01*
X161460498Y-74345820D01*
X161424188Y-74465518D01*
X161411928Y-74590000D01*
X149019934Y-74590000D01*
X148812955Y-74090310D01*
X148261500Y-73265000D01*
X160574428Y-73265000D01*
X160586688Y-73389482D01*
X160622998Y-73509180D01*
X160681963Y-73619494D01*
X160761315Y-73716185D01*
X160858006Y-73795537D01*
X160968320Y-73854502D01*
X161088018Y-73890812D01*
X161212500Y-73903072D01*
X161639250Y-73900000D01*
X161798000Y-73741250D01*
X161798000Y-72517000D01*
X162052000Y-72517000D01*
X162052000Y-73741250D01*
X162210750Y-73900000D01*
X162637500Y-73903072D01*
X162761982Y-73890812D01*
X162881680Y-73854502D01*
X162991994Y-73795537D01*
X163088685Y-73716185D01*
X163168037Y-73619494D01*
X163227002Y-73509180D01*
X163263312Y-73389482D01*
X163275572Y-73265000D01*
X163272500Y-72675750D01*
X163113750Y-72517000D01*
X162052000Y-72517000D01*
X161798000Y-72517000D01*
X160736250Y-72517000D01*
X160577500Y-72675750D01*
X160574428Y-73265000D01*
X148261500Y-73265000D01*
X148032116Y-72921703D01*
X147038297Y-71927884D01*
X146420374Y-71515000D01*
X160574428Y-71515000D01*
X160577500Y-72104250D01*
X160736250Y-72263000D01*
X161798000Y-72263000D01*
X161798000Y-71038750D01*
X162052000Y-71038750D01*
X162052000Y-72263000D01*
X163113750Y-72263000D01*
X163272500Y-72104250D01*
X163275572Y-71515000D01*
X163263312Y-71390518D01*
X163227002Y-71270820D01*
X163168037Y-71160506D01*
X163088685Y-71063815D01*
X162991994Y-70984463D01*
X162881680Y-70925498D01*
X162761982Y-70889188D01*
X162637500Y-70876928D01*
X162210750Y-70880000D01*
X162052000Y-71038750D01*
X161798000Y-71038750D01*
X161639250Y-70880000D01*
X161212500Y-70876928D01*
X161088018Y-70889188D01*
X160968320Y-70925498D01*
X160858006Y-70984463D01*
X160761315Y-71063815D01*
X160681963Y-71160506D01*
X160622998Y-71270820D01*
X160586688Y-71390518D01*
X160574428Y-71515000D01*
X146420374Y-71515000D01*
X145869690Y-71147045D01*
X144571203Y-70609194D01*
X143192736Y-70335000D01*
X141787264Y-70335000D01*
X140408797Y-70609194D01*
X139110310Y-71147045D01*
X137941703Y-71927884D01*
X136947884Y-72921703D01*
X136167045Y-74090310D01*
X135629194Y-75388797D01*
X135355000Y-76767264D01*
X111200000Y-76767264D01*
X111200000Y-70090000D01*
X163114428Y-70090000D01*
X163126688Y-70214482D01*
X163162998Y-70334180D01*
X163221963Y-70444494D01*
X163301315Y-70541185D01*
X163398006Y-70620537D01*
X163508320Y-70679502D01*
X163628018Y-70715812D01*
X163752500Y-70728072D01*
X164179250Y-70725000D01*
X164338000Y-70566250D01*
X164338000Y-69342000D01*
X164592000Y-69342000D01*
X164592000Y-70566250D01*
X164750750Y-70725000D01*
X165177500Y-70728072D01*
X165301982Y-70715812D01*
X165421680Y-70679502D01*
X165531994Y-70620537D01*
X165628685Y-70541185D01*
X165708037Y-70444494D01*
X165767002Y-70334180D01*
X165803312Y-70214482D01*
X165815572Y-70090000D01*
X165812500Y-69500750D01*
X165653750Y-69342000D01*
X164592000Y-69342000D01*
X164338000Y-69342000D01*
X163276250Y-69342000D01*
X163117500Y-69500750D01*
X163114428Y-70090000D01*
X111200000Y-70090000D01*
X111200000Y-68340000D01*
X163114428Y-68340000D01*
X163117500Y-68929250D01*
X163276250Y-69088000D01*
X164338000Y-69088000D01*
X164338000Y-67863750D01*
X164592000Y-67863750D01*
X164592000Y-69088000D01*
X165653750Y-69088000D01*
X165812500Y-68929250D01*
X165815572Y-68340000D01*
X165803312Y-68215518D01*
X165767002Y-68095820D01*
X165708037Y-67985506D01*
X165628685Y-67888815D01*
X165531994Y-67809463D01*
X165421680Y-67750498D01*
X165301982Y-67714188D01*
X165177500Y-67701928D01*
X164750750Y-67705000D01*
X164592000Y-67863750D01*
X164338000Y-67863750D01*
X164179250Y-67705000D01*
X163752500Y-67701928D01*
X163628018Y-67714188D01*
X163508320Y-67750498D01*
X163398006Y-67809463D01*
X163301315Y-67888815D01*
X163221963Y-67985506D01*
X163162998Y-68095820D01*
X163126688Y-68215518D01*
X163114428Y-68340000D01*
X111200000Y-68340000D01*
X111200000Y-62565098D01*
X115725000Y-62565098D01*
X115725000Y-63034902D01*
X115816654Y-63495679D01*
X115996440Y-63929721D01*
X116257450Y-64320349D01*
X116589651Y-64652550D01*
X116980279Y-64913560D01*
X117414321Y-65093346D01*
X117875098Y-65185000D01*
X118344902Y-65185000D01*
X118805679Y-65093346D01*
X119239721Y-64913560D01*
X119630349Y-64652550D01*
X119962550Y-64320349D01*
X120223560Y-63929721D01*
X120403346Y-63495679D01*
X120495000Y-63034902D01*
X120495000Y-62565098D01*
X120403346Y-62104321D01*
X120223560Y-61670279D01*
X119962550Y-61279651D01*
X119630349Y-60947450D01*
X119239721Y-60686440D01*
X118805679Y-60506654D01*
X118344902Y-60415000D01*
X117875098Y-60415000D01*
X117414321Y-60506654D01*
X116980279Y-60686440D01*
X116589651Y-60947450D01*
X116257450Y-61279651D01*
X115996440Y-61670279D01*
X115816654Y-62104321D01*
X115725000Y-62565098D01*
X111200000Y-62565098D01*
X111200000Y-60010000D01*
X116874877Y-60010000D01*
X116906019Y-60006933D01*
X116919360Y-60007026D01*
X116929225Y-60006059D01*
X117346534Y-59962197D01*
X117409528Y-59949266D01*
X117472781Y-59937200D01*
X117482271Y-59934335D01*
X117705939Y-59865098D01*
X128455000Y-59865098D01*
X128455000Y-60334902D01*
X128546654Y-60795679D01*
X128726440Y-61229721D01*
X128987450Y-61620349D01*
X129319651Y-61952550D01*
X129710279Y-62213560D01*
X130144321Y-62393346D01*
X130605098Y-62485000D01*
X131074902Y-62485000D01*
X131535679Y-62393346D01*
X131969721Y-62213560D01*
X132360349Y-61952550D01*
X132692550Y-61620349D01*
X132953560Y-61229721D01*
X133133346Y-60795679D01*
X133179118Y-60565565D01*
X137894040Y-60565565D01*
X137961020Y-60805656D01*
X138210048Y-60922756D01*
X138477135Y-60989023D01*
X138752017Y-61001910D01*
X139024133Y-60960922D01*
X139283023Y-60867636D01*
X139398980Y-60805656D01*
X139465960Y-60565565D01*
X138680000Y-59779605D01*
X137894040Y-60565565D01*
X133179118Y-60565565D01*
X133225000Y-60334902D01*
X133225000Y-59865098D01*
X133186594Y-59672017D01*
X137278090Y-59672017D01*
X137319078Y-59944133D01*
X137412364Y-60203023D01*
X137474344Y-60318980D01*
X137714435Y-60385960D01*
X138500395Y-59600000D01*
X137714435Y-58814040D01*
X137474344Y-58881020D01*
X137357244Y-59130048D01*
X137290977Y-59397135D01*
X137278090Y-59672017D01*
X133186594Y-59672017D01*
X133133346Y-59404321D01*
X132953560Y-58970279D01*
X132729156Y-58634435D01*
X137894040Y-58634435D01*
X138680000Y-59420395D01*
X139465960Y-58634435D01*
X139398980Y-58394344D01*
X139149952Y-58277244D01*
X138882865Y-58210977D01*
X138607983Y-58198090D01*
X138335867Y-58239078D01*
X138076977Y-58332364D01*
X137961020Y-58394344D01*
X137894040Y-58634435D01*
X132729156Y-58634435D01*
X132692550Y-58579651D01*
X132360349Y-58247450D01*
X131969721Y-57986440D01*
X131535679Y-57806654D01*
X131074902Y-57715000D01*
X130605098Y-57715000D01*
X130144321Y-57806654D01*
X129710279Y-57986440D01*
X129319651Y-58247450D01*
X128987450Y-58579651D01*
X128726440Y-58970279D01*
X128546654Y-59404321D01*
X128455000Y-59865098D01*
X117705939Y-59865098D01*
X117883111Y-59810254D01*
X117942402Y-59785330D01*
X118002100Y-59761211D01*
X118010847Y-59756559D01*
X118010851Y-59756557D01*
X118010854Y-59756555D01*
X118379958Y-59556982D01*
X118433302Y-59521001D01*
X118487154Y-59485761D01*
X118494836Y-59479495D01*
X118547412Y-59436000D01*
X118999000Y-59436000D01*
X119023776Y-59433560D01*
X119047601Y-59426333D01*
X119069557Y-59414597D01*
X119088803Y-59398803D01*
X119104597Y-59379557D01*
X119116333Y-59357601D01*
X119123560Y-59333776D01*
X119126000Y-59309000D01*
X119126000Y-58855959D01*
X119180991Y-58788533D01*
X119216599Y-58734939D01*
X119252959Y-58681836D01*
X119257674Y-58673116D01*
X119454667Y-58302625D01*
X119479182Y-58243148D01*
X119504539Y-58183984D01*
X119507471Y-58174514D01*
X119628751Y-57772818D01*
X119641245Y-57709720D01*
X119654630Y-57646746D01*
X119655666Y-57636887D01*
X119696612Y-57219283D01*
X119696612Y-57219277D01*
X119700000Y-57184877D01*
X119700000Y-55065098D01*
X140105000Y-55065098D01*
X140105000Y-55534902D01*
X140196654Y-55995679D01*
X140376440Y-56429721D01*
X140637450Y-56820349D01*
X140969651Y-57152550D01*
X141360279Y-57413560D01*
X141794321Y-57593346D01*
X142255098Y-57685000D01*
X142724902Y-57685000D01*
X143185679Y-57593346D01*
X143619721Y-57413560D01*
X144010349Y-57152550D01*
X144342550Y-56820349D01*
X144603560Y-56429721D01*
X144783346Y-55995679D01*
X144875000Y-55534902D01*
X144875000Y-55065098D01*
X144783346Y-54604321D01*
X144603560Y-54170279D01*
X144342550Y-53779651D01*
X144010349Y-53447450D01*
X143619721Y-53186440D01*
X143185679Y-53006654D01*
X142724902Y-52915000D01*
X142255098Y-52915000D01*
X141794321Y-53006654D01*
X141360279Y-53186440D01*
X140969651Y-53447450D01*
X140637450Y-53779651D01*
X140376440Y-54170279D01*
X140196654Y-54604321D01*
X140105000Y-55065098D01*
X119700000Y-55065098D01*
X119700000Y-51510000D01*
X165280001Y-51510000D01*
X165280000Y-57184876D01*
M02*
