G04 #@! TF.GenerationSoftware,KiCad,Pcbnew,5.1.4+dfsg1-1*
G04 #@! TF.CreationDate,2020-04-18T12:41:44+10:00*
G04 #@! TF.ProjectId,temp0_schematic,74656d70-305f-4736-9368-656d61746963,rev?*
G04 #@! TF.SameCoordinates,Original*
G04 #@! TF.FileFunction,Copper,L2,Bot*
G04 #@! TF.FilePolarity,Positive*
%FSLAX46Y46*%
G04 Gerber Fmt 4.6, Leading zero omitted, Abs format (unit mm)*
G04 Created by KiCad (PCBNEW 5.1.4+dfsg1-1) date 2020-04-18 12:41:44*
%MOMM*%
%LPD*%
G04 APERTURE LIST*
%ADD10C,3.500000*%
%ADD11C,1.524000*%
%ADD12O,1.700000X1.700000*%
%ADD13R,1.700000X1.700000*%
%ADD14R,1.500000X2.000000*%
%ADD15R,3.800000X2.000000*%
%ADD16C,0.100000*%
%ADD17C,1.425000*%
%ADD18C,13.000000*%
%ADD19C,0.800000*%
%ADD20C,0.500000*%
%ADD21C,0.250000*%
%ADD22C,0.254000*%
G04 APERTURE END LIST*
D10*
X165841000Y-108324000D03*
X160041000Y-108324000D03*
D11*
X166751000Y-124824000D03*
X164211000Y-124824000D03*
X161671000Y-124824000D03*
X159131000Y-124824000D03*
D10*
X130840000Y-60100000D03*
X130840000Y-83900000D03*
X154140000Y-83900000D03*
X154140000Y-60100000D03*
D11*
X146300000Y-59600000D03*
X143760000Y-59600000D03*
X141220000Y-59600000D03*
X138680000Y-59600000D03*
X125857000Y-124968000D03*
X125857000Y-122428000D03*
X123317000Y-124968000D03*
X123317000Y-122428000D03*
X120777000Y-124968000D03*
X120777000Y-122428000D03*
X118237000Y-124968000D03*
X118237000Y-122428000D03*
D12*
X161290000Y-100000000D03*
D13*
X163830000Y-100000000D03*
D14*
X118350000Y-72796000D03*
X122950000Y-72796000D03*
X120650000Y-72796000D03*
D15*
X120650000Y-79096000D03*
D11*
X134870000Y-104530000D03*
X134870000Y-107070000D03*
X134870000Y-109610000D03*
X134870000Y-112150000D03*
X134870000Y-114690000D03*
X134870000Y-117230000D03*
X134870000Y-119770000D03*
X134870000Y-122310000D03*
X134870000Y-124850000D03*
X134870000Y-127390000D03*
X134870000Y-129930000D03*
X134870000Y-132470000D03*
X150110000Y-104530000D03*
X150110000Y-107070000D03*
X150110000Y-109610000D03*
X150110000Y-112150000D03*
X150110000Y-114690000D03*
X150110000Y-117230000D03*
X150110000Y-119770000D03*
X150110000Y-122310000D03*
X150110000Y-124850000D03*
X150110000Y-127390000D03*
X150110000Y-129930000D03*
X150110000Y-132470000D03*
D16*
G36*
X127560004Y-116474204D02*
G01*
X127584273Y-116477804D01*
X127608071Y-116483765D01*
X127631171Y-116492030D01*
X127653349Y-116502520D01*
X127674393Y-116515133D01*
X127694098Y-116529747D01*
X127712277Y-116546223D01*
X127728753Y-116564402D01*
X127743367Y-116584107D01*
X127755980Y-116605151D01*
X127766470Y-116627329D01*
X127774735Y-116650429D01*
X127780696Y-116674227D01*
X127784296Y-116698496D01*
X127785500Y-116723000D01*
X127785500Y-117973000D01*
X127784296Y-117997504D01*
X127780696Y-118021773D01*
X127774735Y-118045571D01*
X127766470Y-118068671D01*
X127755980Y-118090849D01*
X127743367Y-118111893D01*
X127728753Y-118131598D01*
X127712277Y-118149777D01*
X127694098Y-118166253D01*
X127674393Y-118180867D01*
X127653349Y-118193480D01*
X127631171Y-118203970D01*
X127608071Y-118212235D01*
X127584273Y-118218196D01*
X127560004Y-118221796D01*
X127535500Y-118223000D01*
X126610500Y-118223000D01*
X126585996Y-118221796D01*
X126561727Y-118218196D01*
X126537929Y-118212235D01*
X126514829Y-118203970D01*
X126492651Y-118193480D01*
X126471607Y-118180867D01*
X126451902Y-118166253D01*
X126433723Y-118149777D01*
X126417247Y-118131598D01*
X126402633Y-118111893D01*
X126390020Y-118090849D01*
X126379530Y-118068671D01*
X126371265Y-118045571D01*
X126365304Y-118021773D01*
X126361704Y-117997504D01*
X126360500Y-117973000D01*
X126360500Y-116723000D01*
X126361704Y-116698496D01*
X126365304Y-116674227D01*
X126371265Y-116650429D01*
X126379530Y-116627329D01*
X126390020Y-116605151D01*
X126402633Y-116584107D01*
X126417247Y-116564402D01*
X126433723Y-116546223D01*
X126451902Y-116529747D01*
X126471607Y-116515133D01*
X126492651Y-116502520D01*
X126514829Y-116492030D01*
X126537929Y-116483765D01*
X126561727Y-116477804D01*
X126585996Y-116474204D01*
X126610500Y-116473000D01*
X127535500Y-116473000D01*
X127560004Y-116474204D01*
X127560004Y-116474204D01*
G37*
D17*
X127073000Y-117348000D03*
D16*
G36*
X130535004Y-116474204D02*
G01*
X130559273Y-116477804D01*
X130583071Y-116483765D01*
X130606171Y-116492030D01*
X130628349Y-116502520D01*
X130649393Y-116515133D01*
X130669098Y-116529747D01*
X130687277Y-116546223D01*
X130703753Y-116564402D01*
X130718367Y-116584107D01*
X130730980Y-116605151D01*
X130741470Y-116627329D01*
X130749735Y-116650429D01*
X130755696Y-116674227D01*
X130759296Y-116698496D01*
X130760500Y-116723000D01*
X130760500Y-117973000D01*
X130759296Y-117997504D01*
X130755696Y-118021773D01*
X130749735Y-118045571D01*
X130741470Y-118068671D01*
X130730980Y-118090849D01*
X130718367Y-118111893D01*
X130703753Y-118131598D01*
X130687277Y-118149777D01*
X130669098Y-118166253D01*
X130649393Y-118180867D01*
X130628349Y-118193480D01*
X130606171Y-118203970D01*
X130583071Y-118212235D01*
X130559273Y-118218196D01*
X130535004Y-118221796D01*
X130510500Y-118223000D01*
X129585500Y-118223000D01*
X129560996Y-118221796D01*
X129536727Y-118218196D01*
X129512929Y-118212235D01*
X129489829Y-118203970D01*
X129467651Y-118193480D01*
X129446607Y-118180867D01*
X129426902Y-118166253D01*
X129408723Y-118149777D01*
X129392247Y-118131598D01*
X129377633Y-118111893D01*
X129365020Y-118090849D01*
X129354530Y-118068671D01*
X129346265Y-118045571D01*
X129340304Y-118021773D01*
X129336704Y-117997504D01*
X129335500Y-117973000D01*
X129335500Y-116723000D01*
X129336704Y-116698496D01*
X129340304Y-116674227D01*
X129346265Y-116650429D01*
X129354530Y-116627329D01*
X129365020Y-116605151D01*
X129377633Y-116584107D01*
X129392247Y-116564402D01*
X129408723Y-116546223D01*
X129426902Y-116529747D01*
X129446607Y-116515133D01*
X129467651Y-116502520D01*
X129489829Y-116492030D01*
X129512929Y-116483765D01*
X129536727Y-116477804D01*
X129560996Y-116474204D01*
X129585500Y-116473000D01*
X130510500Y-116473000D01*
X130535004Y-116474204D01*
X130535004Y-116474204D01*
G37*
D17*
X130048000Y-117348000D03*
D16*
G36*
X121645004Y-116474204D02*
G01*
X121669273Y-116477804D01*
X121693071Y-116483765D01*
X121716171Y-116492030D01*
X121738349Y-116502520D01*
X121759393Y-116515133D01*
X121779098Y-116529747D01*
X121797277Y-116546223D01*
X121813753Y-116564402D01*
X121828367Y-116584107D01*
X121840980Y-116605151D01*
X121851470Y-116627329D01*
X121859735Y-116650429D01*
X121865696Y-116674227D01*
X121869296Y-116698496D01*
X121870500Y-116723000D01*
X121870500Y-117973000D01*
X121869296Y-117997504D01*
X121865696Y-118021773D01*
X121859735Y-118045571D01*
X121851470Y-118068671D01*
X121840980Y-118090849D01*
X121828367Y-118111893D01*
X121813753Y-118131598D01*
X121797277Y-118149777D01*
X121779098Y-118166253D01*
X121759393Y-118180867D01*
X121738349Y-118193480D01*
X121716171Y-118203970D01*
X121693071Y-118212235D01*
X121669273Y-118218196D01*
X121645004Y-118221796D01*
X121620500Y-118223000D01*
X120695500Y-118223000D01*
X120670996Y-118221796D01*
X120646727Y-118218196D01*
X120622929Y-118212235D01*
X120599829Y-118203970D01*
X120577651Y-118193480D01*
X120556607Y-118180867D01*
X120536902Y-118166253D01*
X120518723Y-118149777D01*
X120502247Y-118131598D01*
X120487633Y-118111893D01*
X120475020Y-118090849D01*
X120464530Y-118068671D01*
X120456265Y-118045571D01*
X120450304Y-118021773D01*
X120446704Y-117997504D01*
X120445500Y-117973000D01*
X120445500Y-116723000D01*
X120446704Y-116698496D01*
X120450304Y-116674227D01*
X120456265Y-116650429D01*
X120464530Y-116627329D01*
X120475020Y-116605151D01*
X120487633Y-116584107D01*
X120502247Y-116564402D01*
X120518723Y-116546223D01*
X120536902Y-116529747D01*
X120556607Y-116515133D01*
X120577651Y-116502520D01*
X120599829Y-116492030D01*
X120622929Y-116483765D01*
X120646727Y-116477804D01*
X120670996Y-116474204D01*
X120695500Y-116473000D01*
X121620500Y-116473000D01*
X121645004Y-116474204D01*
X121645004Y-116474204D01*
G37*
D17*
X121158000Y-117348000D03*
D16*
G36*
X124620004Y-116474204D02*
G01*
X124644273Y-116477804D01*
X124668071Y-116483765D01*
X124691171Y-116492030D01*
X124713349Y-116502520D01*
X124734393Y-116515133D01*
X124754098Y-116529747D01*
X124772277Y-116546223D01*
X124788753Y-116564402D01*
X124803367Y-116584107D01*
X124815980Y-116605151D01*
X124826470Y-116627329D01*
X124834735Y-116650429D01*
X124840696Y-116674227D01*
X124844296Y-116698496D01*
X124845500Y-116723000D01*
X124845500Y-117973000D01*
X124844296Y-117997504D01*
X124840696Y-118021773D01*
X124834735Y-118045571D01*
X124826470Y-118068671D01*
X124815980Y-118090849D01*
X124803367Y-118111893D01*
X124788753Y-118131598D01*
X124772277Y-118149777D01*
X124754098Y-118166253D01*
X124734393Y-118180867D01*
X124713349Y-118193480D01*
X124691171Y-118203970D01*
X124668071Y-118212235D01*
X124644273Y-118218196D01*
X124620004Y-118221796D01*
X124595500Y-118223000D01*
X123670500Y-118223000D01*
X123645996Y-118221796D01*
X123621727Y-118218196D01*
X123597929Y-118212235D01*
X123574829Y-118203970D01*
X123552651Y-118193480D01*
X123531607Y-118180867D01*
X123511902Y-118166253D01*
X123493723Y-118149777D01*
X123477247Y-118131598D01*
X123462633Y-118111893D01*
X123450020Y-118090849D01*
X123439530Y-118068671D01*
X123431265Y-118045571D01*
X123425304Y-118021773D01*
X123421704Y-117997504D01*
X123420500Y-117973000D01*
X123420500Y-116723000D01*
X123421704Y-116698496D01*
X123425304Y-116674227D01*
X123431265Y-116650429D01*
X123439530Y-116627329D01*
X123450020Y-116605151D01*
X123462633Y-116584107D01*
X123477247Y-116564402D01*
X123493723Y-116546223D01*
X123511902Y-116529747D01*
X123531607Y-116515133D01*
X123552651Y-116502520D01*
X123574829Y-116492030D01*
X123597929Y-116483765D01*
X123621727Y-116477804D01*
X123645996Y-116474204D01*
X123670500Y-116473000D01*
X124595500Y-116473000D01*
X124620004Y-116474204D01*
X124620004Y-116474204D01*
G37*
D17*
X124133000Y-117348000D03*
D16*
G36*
X118162004Y-67960204D02*
G01*
X118186273Y-67963804D01*
X118210071Y-67969765D01*
X118233171Y-67978030D01*
X118255349Y-67988520D01*
X118276393Y-68001133D01*
X118296098Y-68015747D01*
X118314277Y-68032223D01*
X118330753Y-68050402D01*
X118345367Y-68070107D01*
X118357980Y-68091151D01*
X118368470Y-68113329D01*
X118376735Y-68136429D01*
X118382696Y-68160227D01*
X118386296Y-68184496D01*
X118387500Y-68209000D01*
X118387500Y-69459000D01*
X118386296Y-69483504D01*
X118382696Y-69507773D01*
X118376735Y-69531571D01*
X118368470Y-69554671D01*
X118357980Y-69576849D01*
X118345367Y-69597893D01*
X118330753Y-69617598D01*
X118314277Y-69635777D01*
X118296098Y-69652253D01*
X118276393Y-69666867D01*
X118255349Y-69679480D01*
X118233171Y-69689970D01*
X118210071Y-69698235D01*
X118186273Y-69704196D01*
X118162004Y-69707796D01*
X118137500Y-69709000D01*
X117212500Y-69709000D01*
X117187996Y-69707796D01*
X117163727Y-69704196D01*
X117139929Y-69698235D01*
X117116829Y-69689970D01*
X117094651Y-69679480D01*
X117073607Y-69666867D01*
X117053902Y-69652253D01*
X117035723Y-69635777D01*
X117019247Y-69617598D01*
X117004633Y-69597893D01*
X116992020Y-69576849D01*
X116981530Y-69554671D01*
X116973265Y-69531571D01*
X116967304Y-69507773D01*
X116963704Y-69483504D01*
X116962500Y-69459000D01*
X116962500Y-68209000D01*
X116963704Y-68184496D01*
X116967304Y-68160227D01*
X116973265Y-68136429D01*
X116981530Y-68113329D01*
X116992020Y-68091151D01*
X117004633Y-68070107D01*
X117019247Y-68050402D01*
X117035723Y-68032223D01*
X117053902Y-68015747D01*
X117073607Y-68001133D01*
X117094651Y-67988520D01*
X117116829Y-67978030D01*
X117139929Y-67969765D01*
X117163727Y-67963804D01*
X117187996Y-67960204D01*
X117212500Y-67959000D01*
X118137500Y-67959000D01*
X118162004Y-67960204D01*
X118162004Y-67960204D01*
G37*
D17*
X117675000Y-68834000D03*
D16*
G36*
X121137004Y-67960204D02*
G01*
X121161273Y-67963804D01*
X121185071Y-67969765D01*
X121208171Y-67978030D01*
X121230349Y-67988520D01*
X121251393Y-68001133D01*
X121271098Y-68015747D01*
X121289277Y-68032223D01*
X121305753Y-68050402D01*
X121320367Y-68070107D01*
X121332980Y-68091151D01*
X121343470Y-68113329D01*
X121351735Y-68136429D01*
X121357696Y-68160227D01*
X121361296Y-68184496D01*
X121362500Y-68209000D01*
X121362500Y-69459000D01*
X121361296Y-69483504D01*
X121357696Y-69507773D01*
X121351735Y-69531571D01*
X121343470Y-69554671D01*
X121332980Y-69576849D01*
X121320367Y-69597893D01*
X121305753Y-69617598D01*
X121289277Y-69635777D01*
X121271098Y-69652253D01*
X121251393Y-69666867D01*
X121230349Y-69679480D01*
X121208171Y-69689970D01*
X121185071Y-69698235D01*
X121161273Y-69704196D01*
X121137004Y-69707796D01*
X121112500Y-69709000D01*
X120187500Y-69709000D01*
X120162996Y-69707796D01*
X120138727Y-69704196D01*
X120114929Y-69698235D01*
X120091829Y-69689970D01*
X120069651Y-69679480D01*
X120048607Y-69666867D01*
X120028902Y-69652253D01*
X120010723Y-69635777D01*
X119994247Y-69617598D01*
X119979633Y-69597893D01*
X119967020Y-69576849D01*
X119956530Y-69554671D01*
X119948265Y-69531571D01*
X119942304Y-69507773D01*
X119938704Y-69483504D01*
X119937500Y-69459000D01*
X119937500Y-68209000D01*
X119938704Y-68184496D01*
X119942304Y-68160227D01*
X119948265Y-68136429D01*
X119956530Y-68113329D01*
X119967020Y-68091151D01*
X119979633Y-68070107D01*
X119994247Y-68050402D01*
X120010723Y-68032223D01*
X120028902Y-68015747D01*
X120048607Y-68001133D01*
X120069651Y-67988520D01*
X120091829Y-67978030D01*
X120114929Y-67969765D01*
X120138727Y-67963804D01*
X120162996Y-67960204D01*
X120187500Y-67959000D01*
X121112500Y-67959000D01*
X121137004Y-67960204D01*
X121137004Y-67960204D01*
G37*
D17*
X120650000Y-68834000D03*
D16*
G36*
X120448004Y-64404204D02*
G01*
X120472273Y-64407804D01*
X120496071Y-64413765D01*
X120519171Y-64422030D01*
X120541349Y-64432520D01*
X120562393Y-64445133D01*
X120582098Y-64459747D01*
X120600277Y-64476223D01*
X120616753Y-64494402D01*
X120631367Y-64514107D01*
X120643980Y-64535151D01*
X120654470Y-64557329D01*
X120662735Y-64580429D01*
X120668696Y-64604227D01*
X120672296Y-64628496D01*
X120673500Y-64653000D01*
X120673500Y-65903000D01*
X120672296Y-65927504D01*
X120668696Y-65951773D01*
X120662735Y-65975571D01*
X120654470Y-65998671D01*
X120643980Y-66020849D01*
X120631367Y-66041893D01*
X120616753Y-66061598D01*
X120600277Y-66079777D01*
X120582098Y-66096253D01*
X120562393Y-66110867D01*
X120541349Y-66123480D01*
X120519171Y-66133970D01*
X120496071Y-66142235D01*
X120472273Y-66148196D01*
X120448004Y-66151796D01*
X120423500Y-66153000D01*
X119498500Y-66153000D01*
X119473996Y-66151796D01*
X119449727Y-66148196D01*
X119425929Y-66142235D01*
X119402829Y-66133970D01*
X119380651Y-66123480D01*
X119359607Y-66110867D01*
X119339902Y-66096253D01*
X119321723Y-66079777D01*
X119305247Y-66061598D01*
X119290633Y-66041893D01*
X119278020Y-66020849D01*
X119267530Y-65998671D01*
X119259265Y-65975571D01*
X119253304Y-65951773D01*
X119249704Y-65927504D01*
X119248500Y-65903000D01*
X119248500Y-64653000D01*
X119249704Y-64628496D01*
X119253304Y-64604227D01*
X119259265Y-64580429D01*
X119267530Y-64557329D01*
X119278020Y-64535151D01*
X119290633Y-64514107D01*
X119305247Y-64494402D01*
X119321723Y-64476223D01*
X119339902Y-64459747D01*
X119359607Y-64445133D01*
X119380651Y-64432520D01*
X119402829Y-64422030D01*
X119425929Y-64413765D01*
X119449727Y-64407804D01*
X119473996Y-64404204D01*
X119498500Y-64403000D01*
X120423500Y-64403000D01*
X120448004Y-64404204D01*
X120448004Y-64404204D01*
G37*
D17*
X119961000Y-65278000D03*
D16*
G36*
X123423004Y-64404204D02*
G01*
X123447273Y-64407804D01*
X123471071Y-64413765D01*
X123494171Y-64422030D01*
X123516349Y-64432520D01*
X123537393Y-64445133D01*
X123557098Y-64459747D01*
X123575277Y-64476223D01*
X123591753Y-64494402D01*
X123606367Y-64514107D01*
X123618980Y-64535151D01*
X123629470Y-64557329D01*
X123637735Y-64580429D01*
X123643696Y-64604227D01*
X123647296Y-64628496D01*
X123648500Y-64653000D01*
X123648500Y-65903000D01*
X123647296Y-65927504D01*
X123643696Y-65951773D01*
X123637735Y-65975571D01*
X123629470Y-65998671D01*
X123618980Y-66020849D01*
X123606367Y-66041893D01*
X123591753Y-66061598D01*
X123575277Y-66079777D01*
X123557098Y-66096253D01*
X123537393Y-66110867D01*
X123516349Y-66123480D01*
X123494171Y-66133970D01*
X123471071Y-66142235D01*
X123447273Y-66148196D01*
X123423004Y-66151796D01*
X123398500Y-66153000D01*
X122473500Y-66153000D01*
X122448996Y-66151796D01*
X122424727Y-66148196D01*
X122400929Y-66142235D01*
X122377829Y-66133970D01*
X122355651Y-66123480D01*
X122334607Y-66110867D01*
X122314902Y-66096253D01*
X122296723Y-66079777D01*
X122280247Y-66061598D01*
X122265633Y-66041893D01*
X122253020Y-66020849D01*
X122242530Y-65998671D01*
X122234265Y-65975571D01*
X122228304Y-65951773D01*
X122224704Y-65927504D01*
X122223500Y-65903000D01*
X122223500Y-64653000D01*
X122224704Y-64628496D01*
X122228304Y-64604227D01*
X122234265Y-64580429D01*
X122242530Y-64557329D01*
X122253020Y-64535151D01*
X122265633Y-64514107D01*
X122280247Y-64494402D01*
X122296723Y-64476223D01*
X122314902Y-64459747D01*
X122334607Y-64445133D01*
X122355651Y-64432520D01*
X122377829Y-64422030D01*
X122400929Y-64413765D01*
X122424727Y-64407804D01*
X122448996Y-64404204D01*
X122473500Y-64403000D01*
X123398500Y-64403000D01*
X123423004Y-64404204D01*
X123423004Y-64404204D01*
G37*
D17*
X122936000Y-65278000D03*
D10*
X117760000Y-132800000D03*
X142490000Y-140300000D03*
X167220000Y-132800000D03*
X167220000Y-62800000D03*
X142490000Y-55300000D03*
X118110000Y-62800000D03*
D18*
X142490000Y-77470000D03*
D19*
X130048000Y-122428000D03*
X128524000Y-128270000D03*
D20*
X134870000Y-109610000D02*
X125984000Y-100724000D01*
X125984000Y-100724000D02*
X125984000Y-72898000D01*
X125882000Y-72796000D02*
X122950000Y-72796000D01*
X125984000Y-72898000D02*
X125882000Y-72796000D01*
X122950000Y-65292000D02*
X122936000Y-65278000D01*
X122950000Y-72796000D02*
X122950000Y-65292000D01*
X141220000Y-59600000D02*
X141220000Y-65274000D01*
X141216000Y-65278000D02*
X122936000Y-65278000D01*
X141220000Y-65274000D02*
X141216000Y-65278000D01*
X120650000Y-68834000D02*
X120650000Y-72796000D01*
X120650000Y-72796000D02*
X120650000Y-79096000D01*
X120777000Y-124968000D02*
X123317000Y-124968000D01*
X125857000Y-124968000D02*
X123317000Y-124968000D01*
X166751000Y-124824000D02*
X156701000Y-134874000D01*
X125857000Y-124968000D02*
X125857000Y-134747000D01*
X125984000Y-134874000D02*
X156701000Y-134874000D01*
X125857000Y-134747000D02*
X125984000Y-134874000D01*
X120650000Y-97790000D02*
X120650000Y-79096000D01*
X131826000Y-108966000D02*
X120650000Y-97790000D01*
X125857000Y-124968000D02*
X131826000Y-124968000D01*
X131826000Y-124968000D02*
X131826000Y-108966000D01*
D21*
X125857000Y-117729000D02*
X126238000Y-117348000D01*
X125857000Y-122428000D02*
X125857000Y-117729000D01*
X127073000Y-117348000D02*
X126238000Y-117348000D01*
X126238000Y-117348000D02*
X124133000Y-117348000D01*
X130048000Y-122428000D02*
X130048000Y-117348000D01*
X134870000Y-132470000D02*
X132724000Y-132470000D01*
X132724000Y-132470000D02*
X128524000Y-128270000D01*
X138938000Y-120782000D02*
X138938000Y-106680000D01*
X134870000Y-124850000D02*
X138938000Y-120782000D01*
X145618000Y-100000000D02*
X161290000Y-100000000D01*
X138938000Y-106680000D02*
X145618000Y-100000000D01*
D22*
G36*
X165280000Y-57184876D02*
G01*
X165283067Y-57216018D01*
X165282974Y-57229360D01*
X165283941Y-57239225D01*
X165327803Y-57656534D01*
X165340734Y-57719528D01*
X165352800Y-57782781D01*
X165355665Y-57792271D01*
X165479746Y-58193111D01*
X165504670Y-58252402D01*
X165528789Y-58312100D01*
X165533444Y-58320852D01*
X165733018Y-58689958D01*
X165768999Y-58743302D01*
X165804239Y-58797154D01*
X165810505Y-58804836D01*
X165862000Y-58867083D01*
X165862000Y-59309000D01*
X165864440Y-59333776D01*
X165871667Y-59357601D01*
X165883403Y-59379557D01*
X165899197Y-59398803D01*
X165918443Y-59414597D01*
X165940399Y-59426333D01*
X165964224Y-59433560D01*
X165989000Y-59436000D01*
X166434041Y-59436000D01*
X166501467Y-59490991D01*
X166555061Y-59526599D01*
X166608164Y-59562959D01*
X166616884Y-59567674D01*
X166987375Y-59764667D01*
X167046852Y-59789182D01*
X167106016Y-59814539D01*
X167115486Y-59817471D01*
X167517182Y-59938751D01*
X167580280Y-59951245D01*
X167643254Y-59964630D01*
X167653113Y-59965666D01*
X168070717Y-60006612D01*
X168070723Y-60006612D01*
X168105123Y-60010000D01*
X173780001Y-60010000D01*
X173780000Y-135590000D01*
X168105123Y-135590000D01*
X168073981Y-135593067D01*
X168060641Y-135592974D01*
X168050775Y-135593941D01*
X167633467Y-135637802D01*
X167570448Y-135650738D01*
X167507219Y-135662800D01*
X167497729Y-135665665D01*
X167096888Y-135789746D01*
X167037568Y-135814682D01*
X166977900Y-135838790D01*
X166969147Y-135843444D01*
X166600042Y-136043019D01*
X166546725Y-136078982D01*
X166492846Y-136114239D01*
X166485164Y-136120505D01*
X166456763Y-136144000D01*
X165989000Y-136144000D01*
X165964224Y-136146440D01*
X165940399Y-136153667D01*
X165918443Y-136165403D01*
X165899197Y-136181197D01*
X165883403Y-136200443D01*
X165871667Y-136222399D01*
X165864440Y-136246224D01*
X165862000Y-136271000D01*
X165862000Y-136734232D01*
X165799009Y-136811467D01*
X165763424Y-136865027D01*
X165727041Y-136918163D01*
X165722326Y-136926884D01*
X165525333Y-137297375D01*
X165500813Y-137356864D01*
X165475461Y-137416016D01*
X165472529Y-137425486D01*
X165351249Y-137827183D01*
X165338751Y-137890302D01*
X165325371Y-137953253D01*
X165324335Y-137963112D01*
X165283388Y-138380717D01*
X165283388Y-138380724D01*
X165280000Y-138415124D01*
X165280001Y-144090000D01*
X119700000Y-144090000D01*
X119700000Y-140065098D01*
X140105000Y-140065098D01*
X140105000Y-140534902D01*
X140196654Y-140995679D01*
X140376440Y-141429721D01*
X140637450Y-141820349D01*
X140969651Y-142152550D01*
X141360279Y-142413560D01*
X141794321Y-142593346D01*
X142255098Y-142685000D01*
X142724902Y-142685000D01*
X143185679Y-142593346D01*
X143619721Y-142413560D01*
X144010349Y-142152550D01*
X144342550Y-141820349D01*
X144603560Y-141429721D01*
X144783346Y-140995679D01*
X144875000Y-140534902D01*
X144875000Y-140065098D01*
X144783346Y-139604321D01*
X144603560Y-139170279D01*
X144342550Y-138779651D01*
X144010349Y-138447450D01*
X143619721Y-138186440D01*
X143185679Y-138006654D01*
X142724902Y-137915000D01*
X142255098Y-137915000D01*
X141794321Y-138006654D01*
X141360279Y-138186440D01*
X140969651Y-138447450D01*
X140637450Y-138779651D01*
X140376440Y-139170279D01*
X140196654Y-139604321D01*
X140105000Y-140065098D01*
X119700000Y-140065098D01*
X119700000Y-138415123D01*
X119696933Y-138383981D01*
X119697026Y-138370641D01*
X119696059Y-138360775D01*
X119652198Y-137943467D01*
X119639262Y-137880448D01*
X119627200Y-137817219D01*
X119624335Y-137807729D01*
X119500254Y-137406888D01*
X119475318Y-137347568D01*
X119451210Y-137287900D01*
X119446556Y-137279147D01*
X119246981Y-136910042D01*
X119211018Y-136856725D01*
X119175761Y-136802846D01*
X119169495Y-136795164D01*
X119126000Y-136742588D01*
X119126000Y-136271000D01*
X119123560Y-136246224D01*
X119116333Y-136222399D01*
X119104597Y-136200443D01*
X119088803Y-136181197D01*
X119069557Y-136165403D01*
X119047601Y-136153667D01*
X119023776Y-136146440D01*
X118999000Y-136144000D01*
X118521436Y-136144000D01*
X118478533Y-136109009D01*
X118424973Y-136073424D01*
X118371837Y-136037041D01*
X118363116Y-136032326D01*
X117992625Y-135835333D01*
X117933136Y-135810813D01*
X117873984Y-135785461D01*
X117864514Y-135782529D01*
X117462817Y-135661249D01*
X117399698Y-135648751D01*
X117336747Y-135635371D01*
X117326890Y-135634335D01*
X117326888Y-135634335D01*
X116909283Y-135593388D01*
X116909277Y-135593388D01*
X116874877Y-135590000D01*
X111200000Y-135590000D01*
X111200000Y-132565098D01*
X115375000Y-132565098D01*
X115375000Y-133034902D01*
X115466654Y-133495679D01*
X115646440Y-133929721D01*
X115907450Y-134320349D01*
X116239651Y-134652550D01*
X116630279Y-134913560D01*
X117064321Y-135093346D01*
X117525098Y-135185000D01*
X117994902Y-135185000D01*
X118455679Y-135093346D01*
X118889721Y-134913560D01*
X119280349Y-134652550D01*
X119612550Y-134320349D01*
X119873560Y-133929721D01*
X120053346Y-133495679D01*
X120145000Y-133034902D01*
X120145000Y-132565098D01*
X120053346Y-132104321D01*
X119873560Y-131670279D01*
X119612550Y-131279651D01*
X119280349Y-130947450D01*
X118889721Y-130686440D01*
X118455679Y-130506654D01*
X117994902Y-130415000D01*
X117525098Y-130415000D01*
X117064321Y-130506654D01*
X116630279Y-130686440D01*
X116239651Y-130947450D01*
X115907450Y-131279651D01*
X115646440Y-131670279D01*
X115466654Y-132104321D01*
X115375000Y-132565098D01*
X111200000Y-132565098D01*
X111200000Y-124830408D01*
X116840000Y-124830408D01*
X116840000Y-125105592D01*
X116893686Y-125375490D01*
X116998995Y-125629727D01*
X117151880Y-125858535D01*
X117346465Y-126053120D01*
X117575273Y-126206005D01*
X117829510Y-126311314D01*
X118099408Y-126365000D01*
X118374592Y-126365000D01*
X118644490Y-126311314D01*
X118898727Y-126206005D01*
X119127535Y-126053120D01*
X119322120Y-125858535D01*
X119475005Y-125629727D01*
X119507000Y-125552485D01*
X119538995Y-125629727D01*
X119691880Y-125858535D01*
X119886465Y-126053120D01*
X120115273Y-126206005D01*
X120369510Y-126311314D01*
X120639408Y-126365000D01*
X120914592Y-126365000D01*
X121184490Y-126311314D01*
X121438727Y-126206005D01*
X121667535Y-126053120D01*
X121862120Y-125858535D01*
X121865818Y-125853000D01*
X122228182Y-125853000D01*
X122231880Y-125858535D01*
X122426465Y-126053120D01*
X122655273Y-126206005D01*
X122909510Y-126311314D01*
X123179408Y-126365000D01*
X123454592Y-126365000D01*
X123724490Y-126311314D01*
X123978727Y-126206005D01*
X124207535Y-126053120D01*
X124402120Y-125858535D01*
X124405818Y-125853000D01*
X124768182Y-125853000D01*
X124771880Y-125858535D01*
X124966465Y-126053120D01*
X124972000Y-126056818D01*
X124972001Y-134703521D01*
X124967719Y-134747000D01*
X124984805Y-134920490D01*
X125035412Y-135087313D01*
X125117590Y-135241059D01*
X125200468Y-135342046D01*
X125200471Y-135342049D01*
X125228184Y-135375817D01*
X125261952Y-135403530D01*
X125327466Y-135469044D01*
X125355183Y-135502817D01*
X125489941Y-135613411D01*
X125643687Y-135695589D01*
X125810510Y-135746195D01*
X125940523Y-135759000D01*
X125940533Y-135759000D01*
X125983999Y-135763281D01*
X126027465Y-135759000D01*
X156657531Y-135759000D01*
X156701000Y-135763281D01*
X156744469Y-135759000D01*
X156744477Y-135759000D01*
X156874490Y-135746195D01*
X157041313Y-135695589D01*
X157195059Y-135613411D01*
X157329817Y-135502817D01*
X157357534Y-135469044D01*
X160261480Y-132565098D01*
X164835000Y-132565098D01*
X164835000Y-133034902D01*
X164926654Y-133495679D01*
X165106440Y-133929721D01*
X165367450Y-134320349D01*
X165699651Y-134652550D01*
X166090279Y-134913560D01*
X166524321Y-135093346D01*
X166985098Y-135185000D01*
X167454902Y-135185000D01*
X167915679Y-135093346D01*
X168349721Y-134913560D01*
X168740349Y-134652550D01*
X169072550Y-134320349D01*
X169333560Y-133929721D01*
X169513346Y-133495679D01*
X169605000Y-133034902D01*
X169605000Y-132565098D01*
X169513346Y-132104321D01*
X169333560Y-131670279D01*
X169072550Y-131279651D01*
X168740349Y-130947450D01*
X168349721Y-130686440D01*
X167915679Y-130506654D01*
X167454902Y-130415000D01*
X166985098Y-130415000D01*
X166524321Y-130506654D01*
X166090279Y-130686440D01*
X165699651Y-130947450D01*
X165367450Y-131279651D01*
X165106440Y-131670279D01*
X164926654Y-132104321D01*
X164835000Y-132565098D01*
X160261480Y-132565098D01*
X166606878Y-126219701D01*
X166613408Y-126221000D01*
X166888592Y-126221000D01*
X167158490Y-126167314D01*
X167412727Y-126062005D01*
X167641535Y-125909120D01*
X167836120Y-125714535D01*
X167989005Y-125485727D01*
X168094314Y-125231490D01*
X168148000Y-124961592D01*
X168148000Y-124686408D01*
X168094314Y-124416510D01*
X167989005Y-124162273D01*
X167836120Y-123933465D01*
X167641535Y-123738880D01*
X167412727Y-123585995D01*
X167158490Y-123480686D01*
X166888592Y-123427000D01*
X166613408Y-123427000D01*
X166343510Y-123480686D01*
X166089273Y-123585995D01*
X165860465Y-123738880D01*
X165665880Y-123933465D01*
X165512995Y-124162273D01*
X165481000Y-124239515D01*
X165449005Y-124162273D01*
X165296120Y-123933465D01*
X165101535Y-123738880D01*
X164872727Y-123585995D01*
X164618490Y-123480686D01*
X164348592Y-123427000D01*
X164073408Y-123427000D01*
X163803510Y-123480686D01*
X163549273Y-123585995D01*
X163320465Y-123738880D01*
X163125880Y-123933465D01*
X162972995Y-124162273D01*
X162941000Y-124239515D01*
X162909005Y-124162273D01*
X162756120Y-123933465D01*
X162561535Y-123738880D01*
X162332727Y-123585995D01*
X162078490Y-123480686D01*
X161808592Y-123427000D01*
X161533408Y-123427000D01*
X161263510Y-123480686D01*
X161009273Y-123585995D01*
X160780465Y-123738880D01*
X160585880Y-123933465D01*
X160432995Y-124162273D01*
X160403308Y-124233943D01*
X160398636Y-124220977D01*
X160336656Y-124105020D01*
X160096565Y-124038040D01*
X159310605Y-124824000D01*
X160096565Y-125609960D01*
X160336656Y-125542980D01*
X160400485Y-125407240D01*
X160432995Y-125485727D01*
X160585880Y-125714535D01*
X160780465Y-125909120D01*
X161009273Y-126062005D01*
X161263510Y-126167314D01*
X161533408Y-126221000D01*
X161808592Y-126221000D01*
X162078490Y-126167314D01*
X162332727Y-126062005D01*
X162561535Y-125909120D01*
X162756120Y-125714535D01*
X162909005Y-125485727D01*
X162941000Y-125408485D01*
X162972995Y-125485727D01*
X163125880Y-125714535D01*
X163320465Y-125909120D01*
X163549273Y-126062005D01*
X163803510Y-126167314D01*
X164073408Y-126221000D01*
X164102421Y-126221000D01*
X156334422Y-133989000D01*
X126742000Y-133989000D01*
X126742000Y-126056818D01*
X126747535Y-126053120D01*
X126942120Y-125858535D01*
X126945818Y-125853000D01*
X131782523Y-125853000D01*
X131826000Y-125857282D01*
X131869476Y-125853000D01*
X131869477Y-125853000D01*
X131999490Y-125840195D01*
X132166313Y-125789589D01*
X132320059Y-125707411D01*
X132454817Y-125596817D01*
X132565411Y-125462059D01*
X132647589Y-125308313D01*
X132698195Y-125141490D01*
X132715282Y-124968000D01*
X132711000Y-124924523D01*
X132711000Y-109009469D01*
X132715281Y-108966000D01*
X132711000Y-108922531D01*
X132711000Y-108922523D01*
X132698195Y-108792510D01*
X132653459Y-108645038D01*
X133474299Y-109465878D01*
X133473000Y-109472408D01*
X133473000Y-109747592D01*
X133526686Y-110017490D01*
X133631995Y-110271727D01*
X133784880Y-110500535D01*
X133979465Y-110695120D01*
X134208273Y-110848005D01*
X134285515Y-110880000D01*
X134208273Y-110911995D01*
X133979465Y-111064880D01*
X133784880Y-111259465D01*
X133631995Y-111488273D01*
X133526686Y-111742510D01*
X133473000Y-112012408D01*
X133473000Y-112287592D01*
X133526686Y-112557490D01*
X133631995Y-112811727D01*
X133784880Y-113040535D01*
X133979465Y-113235120D01*
X134208273Y-113388005D01*
X134285515Y-113420000D01*
X134208273Y-113451995D01*
X133979465Y-113604880D01*
X133784880Y-113799465D01*
X133631995Y-114028273D01*
X133526686Y-114282510D01*
X133473000Y-114552408D01*
X133473000Y-114827592D01*
X133526686Y-115097490D01*
X133631995Y-115351727D01*
X133784880Y-115580535D01*
X133979465Y-115775120D01*
X134208273Y-115928005D01*
X134285515Y-115960000D01*
X134208273Y-115991995D01*
X133979465Y-116144880D01*
X133784880Y-116339465D01*
X133631995Y-116568273D01*
X133526686Y-116822510D01*
X133473000Y-117092408D01*
X133473000Y-117367592D01*
X133526686Y-117637490D01*
X133631995Y-117891727D01*
X133784880Y-118120535D01*
X133979465Y-118315120D01*
X134208273Y-118468005D01*
X134285515Y-118500000D01*
X134208273Y-118531995D01*
X133979465Y-118684880D01*
X133784880Y-118879465D01*
X133631995Y-119108273D01*
X133526686Y-119362510D01*
X133473000Y-119632408D01*
X133473000Y-119907592D01*
X133526686Y-120177490D01*
X133631995Y-120431727D01*
X133784880Y-120660535D01*
X133979465Y-120855120D01*
X134208273Y-121008005D01*
X134285515Y-121040000D01*
X134208273Y-121071995D01*
X133979465Y-121224880D01*
X133784880Y-121419465D01*
X133631995Y-121648273D01*
X133526686Y-121902510D01*
X133473000Y-122172408D01*
X133473000Y-122447592D01*
X133526686Y-122717490D01*
X133631995Y-122971727D01*
X133784880Y-123200535D01*
X133979465Y-123395120D01*
X134208273Y-123548005D01*
X134285515Y-123580000D01*
X134208273Y-123611995D01*
X133979465Y-123764880D01*
X133784880Y-123959465D01*
X133631995Y-124188273D01*
X133526686Y-124442510D01*
X133473000Y-124712408D01*
X133473000Y-124987592D01*
X133526686Y-125257490D01*
X133631995Y-125511727D01*
X133784880Y-125740535D01*
X133979465Y-125935120D01*
X134208273Y-126088005D01*
X134285515Y-126120000D01*
X134208273Y-126151995D01*
X133979465Y-126304880D01*
X133784880Y-126499465D01*
X133631995Y-126728273D01*
X133526686Y-126982510D01*
X133473000Y-127252408D01*
X133473000Y-127527592D01*
X133526686Y-127797490D01*
X133631995Y-128051727D01*
X133784880Y-128280535D01*
X133979465Y-128475120D01*
X134208273Y-128628005D01*
X134285515Y-128660000D01*
X134208273Y-128691995D01*
X133979465Y-128844880D01*
X133784880Y-129039465D01*
X133631995Y-129268273D01*
X133526686Y-129522510D01*
X133473000Y-129792408D01*
X133473000Y-130067592D01*
X133526686Y-130337490D01*
X133631995Y-130591727D01*
X133784880Y-130820535D01*
X133979465Y-131015120D01*
X134208273Y-131168005D01*
X134285515Y-131200000D01*
X134208273Y-131231995D01*
X133979465Y-131384880D01*
X133784880Y-131579465D01*
X133697659Y-131710000D01*
X133038802Y-131710000D01*
X129559000Y-128230199D01*
X129559000Y-128168061D01*
X129519226Y-127968102D01*
X129441205Y-127779744D01*
X129327937Y-127610226D01*
X129183774Y-127466063D01*
X129014256Y-127352795D01*
X128825898Y-127274774D01*
X128625939Y-127235000D01*
X128422061Y-127235000D01*
X128222102Y-127274774D01*
X128033744Y-127352795D01*
X127864226Y-127466063D01*
X127720063Y-127610226D01*
X127606795Y-127779744D01*
X127528774Y-127968102D01*
X127489000Y-128168061D01*
X127489000Y-128371939D01*
X127528774Y-128571898D01*
X127606795Y-128760256D01*
X127720063Y-128929774D01*
X127864226Y-129073937D01*
X128033744Y-129187205D01*
X128222102Y-129265226D01*
X128422061Y-129305000D01*
X128484199Y-129305000D01*
X132160201Y-132981003D01*
X132183999Y-133010001D01*
X132212997Y-133033799D01*
X132299723Y-133104974D01*
X132431753Y-133175546D01*
X132575014Y-133219003D01*
X132686667Y-133230000D01*
X132686677Y-133230000D01*
X132724000Y-133233676D01*
X132761323Y-133230000D01*
X133697659Y-133230000D01*
X133784880Y-133360535D01*
X133979465Y-133555120D01*
X134208273Y-133708005D01*
X134462510Y-133813314D01*
X134732408Y-133867000D01*
X135007592Y-133867000D01*
X135277490Y-133813314D01*
X135531727Y-133708005D01*
X135760535Y-133555120D01*
X135955120Y-133360535D01*
X136108005Y-133131727D01*
X136213314Y-132877490D01*
X136267000Y-132607592D01*
X136267000Y-132332408D01*
X136213314Y-132062510D01*
X136108005Y-131808273D01*
X135955120Y-131579465D01*
X135760535Y-131384880D01*
X135531727Y-131231995D01*
X135454485Y-131200000D01*
X135531727Y-131168005D01*
X135760535Y-131015120D01*
X135955120Y-130820535D01*
X136108005Y-130591727D01*
X136213314Y-130337490D01*
X136267000Y-130067592D01*
X136267000Y-129792408D01*
X136213314Y-129522510D01*
X136108005Y-129268273D01*
X135955120Y-129039465D01*
X135760535Y-128844880D01*
X135531727Y-128691995D01*
X135454485Y-128660000D01*
X135531727Y-128628005D01*
X135760535Y-128475120D01*
X135955120Y-128280535D01*
X136108005Y-128051727D01*
X136213314Y-127797490D01*
X136267000Y-127527592D01*
X136267000Y-127252408D01*
X136213314Y-126982510D01*
X136108005Y-126728273D01*
X135955120Y-126499465D01*
X135760535Y-126304880D01*
X135531727Y-126151995D01*
X135454485Y-126120000D01*
X135531727Y-126088005D01*
X135760535Y-125935120D01*
X135955120Y-125740535D01*
X136108005Y-125511727D01*
X136213314Y-125257490D01*
X136267000Y-124987592D01*
X136267000Y-124712408D01*
X136236372Y-124558429D01*
X139449004Y-121345798D01*
X139478001Y-121322001D01*
X139572974Y-121206276D01*
X139643546Y-121074247D01*
X139687003Y-120930986D01*
X139698000Y-120819333D01*
X139698000Y-120819325D01*
X139701676Y-120782000D01*
X139698000Y-120744675D01*
X139698000Y-106994801D01*
X142300393Y-104392408D01*
X148713000Y-104392408D01*
X148713000Y-104667592D01*
X148766686Y-104937490D01*
X148871995Y-105191727D01*
X149024880Y-105420535D01*
X149219465Y-105615120D01*
X149448273Y-105768005D01*
X149525515Y-105800000D01*
X149448273Y-105831995D01*
X149219465Y-105984880D01*
X149024880Y-106179465D01*
X148871995Y-106408273D01*
X148766686Y-106662510D01*
X148713000Y-106932408D01*
X148713000Y-107207592D01*
X148766686Y-107477490D01*
X148871995Y-107731727D01*
X149024880Y-107960535D01*
X149219465Y-108155120D01*
X149448273Y-108308005D01*
X149525515Y-108340000D01*
X149448273Y-108371995D01*
X149219465Y-108524880D01*
X149024880Y-108719465D01*
X148871995Y-108948273D01*
X148766686Y-109202510D01*
X148713000Y-109472408D01*
X148713000Y-109747592D01*
X148766686Y-110017490D01*
X148871995Y-110271727D01*
X149024880Y-110500535D01*
X149219465Y-110695120D01*
X149448273Y-110848005D01*
X149525515Y-110880000D01*
X149448273Y-110911995D01*
X149219465Y-111064880D01*
X149024880Y-111259465D01*
X148871995Y-111488273D01*
X148766686Y-111742510D01*
X148713000Y-112012408D01*
X148713000Y-112287592D01*
X148766686Y-112557490D01*
X148871995Y-112811727D01*
X149024880Y-113040535D01*
X149219465Y-113235120D01*
X149448273Y-113388005D01*
X149525515Y-113420000D01*
X149448273Y-113451995D01*
X149219465Y-113604880D01*
X149024880Y-113799465D01*
X148871995Y-114028273D01*
X148766686Y-114282510D01*
X148713000Y-114552408D01*
X148713000Y-114827592D01*
X148766686Y-115097490D01*
X148871995Y-115351727D01*
X149024880Y-115580535D01*
X149219465Y-115775120D01*
X149448273Y-115928005D01*
X149525515Y-115960000D01*
X149448273Y-115991995D01*
X149219465Y-116144880D01*
X149024880Y-116339465D01*
X148871995Y-116568273D01*
X148766686Y-116822510D01*
X148713000Y-117092408D01*
X148713000Y-117367592D01*
X148766686Y-117637490D01*
X148871995Y-117891727D01*
X149024880Y-118120535D01*
X149219465Y-118315120D01*
X149448273Y-118468005D01*
X149525515Y-118500000D01*
X149448273Y-118531995D01*
X149219465Y-118684880D01*
X149024880Y-118879465D01*
X148871995Y-119108273D01*
X148766686Y-119362510D01*
X148713000Y-119632408D01*
X148713000Y-119907592D01*
X148766686Y-120177490D01*
X148871995Y-120431727D01*
X149024880Y-120660535D01*
X149219465Y-120855120D01*
X149448273Y-121008005D01*
X149525515Y-121040000D01*
X149448273Y-121071995D01*
X149219465Y-121224880D01*
X149024880Y-121419465D01*
X148871995Y-121648273D01*
X148766686Y-121902510D01*
X148713000Y-122172408D01*
X148713000Y-122447592D01*
X148766686Y-122717490D01*
X148871995Y-122971727D01*
X149024880Y-123200535D01*
X149219465Y-123395120D01*
X149448273Y-123548005D01*
X149525515Y-123580000D01*
X149448273Y-123611995D01*
X149219465Y-123764880D01*
X149024880Y-123959465D01*
X148871995Y-124188273D01*
X148766686Y-124442510D01*
X148713000Y-124712408D01*
X148713000Y-124987592D01*
X148766686Y-125257490D01*
X148871995Y-125511727D01*
X149024880Y-125740535D01*
X149219465Y-125935120D01*
X149448273Y-126088005D01*
X149525515Y-126120000D01*
X149448273Y-126151995D01*
X149219465Y-126304880D01*
X149024880Y-126499465D01*
X148871995Y-126728273D01*
X148766686Y-126982510D01*
X148713000Y-127252408D01*
X148713000Y-127527592D01*
X148766686Y-127797490D01*
X148871995Y-128051727D01*
X149024880Y-128280535D01*
X149219465Y-128475120D01*
X149448273Y-128628005D01*
X149525515Y-128660000D01*
X149448273Y-128691995D01*
X149219465Y-128844880D01*
X149024880Y-129039465D01*
X148871995Y-129268273D01*
X148766686Y-129522510D01*
X148713000Y-129792408D01*
X148713000Y-130067592D01*
X148766686Y-130337490D01*
X148871995Y-130591727D01*
X149024880Y-130820535D01*
X149219465Y-131015120D01*
X149448273Y-131168005D01*
X149525515Y-131200000D01*
X149448273Y-131231995D01*
X149219465Y-131384880D01*
X149024880Y-131579465D01*
X148871995Y-131808273D01*
X148766686Y-132062510D01*
X148713000Y-132332408D01*
X148713000Y-132607592D01*
X148766686Y-132877490D01*
X148871995Y-133131727D01*
X149024880Y-133360535D01*
X149219465Y-133555120D01*
X149448273Y-133708005D01*
X149702510Y-133813314D01*
X149972408Y-133867000D01*
X150247592Y-133867000D01*
X150517490Y-133813314D01*
X150771727Y-133708005D01*
X151000535Y-133555120D01*
X151195120Y-133360535D01*
X151348005Y-133131727D01*
X151453314Y-132877490D01*
X151507000Y-132607592D01*
X151507000Y-132332408D01*
X151453314Y-132062510D01*
X151348005Y-131808273D01*
X151195120Y-131579465D01*
X151000535Y-131384880D01*
X150771727Y-131231995D01*
X150694485Y-131200000D01*
X150771727Y-131168005D01*
X151000535Y-131015120D01*
X151195120Y-130820535D01*
X151348005Y-130591727D01*
X151453314Y-130337490D01*
X151507000Y-130067592D01*
X151507000Y-129792408D01*
X151453314Y-129522510D01*
X151348005Y-129268273D01*
X151195120Y-129039465D01*
X151000535Y-128844880D01*
X150771727Y-128691995D01*
X150694485Y-128660000D01*
X150771727Y-128628005D01*
X151000535Y-128475120D01*
X151195120Y-128280535D01*
X151348005Y-128051727D01*
X151453314Y-127797490D01*
X151507000Y-127527592D01*
X151507000Y-127252408D01*
X151453314Y-126982510D01*
X151348005Y-126728273D01*
X151195120Y-126499465D01*
X151000535Y-126304880D01*
X150771727Y-126151995D01*
X150694485Y-126120000D01*
X150771727Y-126088005D01*
X151000535Y-125935120D01*
X151146090Y-125789565D01*
X158345040Y-125789565D01*
X158412020Y-126029656D01*
X158661048Y-126146756D01*
X158928135Y-126213023D01*
X159203017Y-126225910D01*
X159475133Y-126184922D01*
X159734023Y-126091636D01*
X159849980Y-126029656D01*
X159916960Y-125789565D01*
X159131000Y-125003605D01*
X158345040Y-125789565D01*
X151146090Y-125789565D01*
X151195120Y-125740535D01*
X151348005Y-125511727D01*
X151453314Y-125257490D01*
X151507000Y-124987592D01*
X151507000Y-124896017D01*
X157729090Y-124896017D01*
X157770078Y-125168133D01*
X157863364Y-125427023D01*
X157925344Y-125542980D01*
X158165435Y-125609960D01*
X158951395Y-124824000D01*
X158165435Y-124038040D01*
X157925344Y-124105020D01*
X157808244Y-124354048D01*
X157741977Y-124621135D01*
X157729090Y-124896017D01*
X151507000Y-124896017D01*
X151507000Y-124712408D01*
X151453314Y-124442510D01*
X151348005Y-124188273D01*
X151195120Y-123959465D01*
X151094090Y-123858435D01*
X158345040Y-123858435D01*
X159131000Y-124644395D01*
X159916960Y-123858435D01*
X159849980Y-123618344D01*
X159600952Y-123501244D01*
X159333865Y-123434977D01*
X159058983Y-123422090D01*
X158786867Y-123463078D01*
X158527977Y-123556364D01*
X158412020Y-123618344D01*
X158345040Y-123858435D01*
X151094090Y-123858435D01*
X151000535Y-123764880D01*
X150771727Y-123611995D01*
X150694485Y-123580000D01*
X150771727Y-123548005D01*
X151000535Y-123395120D01*
X151195120Y-123200535D01*
X151348005Y-122971727D01*
X151453314Y-122717490D01*
X151507000Y-122447592D01*
X151507000Y-122172408D01*
X151453314Y-121902510D01*
X151348005Y-121648273D01*
X151195120Y-121419465D01*
X151000535Y-121224880D01*
X150771727Y-121071995D01*
X150694485Y-121040000D01*
X150771727Y-121008005D01*
X151000535Y-120855120D01*
X151195120Y-120660535D01*
X151348005Y-120431727D01*
X151453314Y-120177490D01*
X151507000Y-119907592D01*
X151507000Y-119632408D01*
X151453314Y-119362510D01*
X151348005Y-119108273D01*
X151195120Y-118879465D01*
X151000535Y-118684880D01*
X150771727Y-118531995D01*
X150694485Y-118500000D01*
X150771727Y-118468005D01*
X151000535Y-118315120D01*
X151195120Y-118120535D01*
X151348005Y-117891727D01*
X151453314Y-117637490D01*
X151507000Y-117367592D01*
X151507000Y-117092408D01*
X151453314Y-116822510D01*
X151348005Y-116568273D01*
X151195120Y-116339465D01*
X151000535Y-116144880D01*
X150771727Y-115991995D01*
X150694485Y-115960000D01*
X150771727Y-115928005D01*
X151000535Y-115775120D01*
X151195120Y-115580535D01*
X151348005Y-115351727D01*
X151453314Y-115097490D01*
X151507000Y-114827592D01*
X151507000Y-114552408D01*
X151453314Y-114282510D01*
X151348005Y-114028273D01*
X151195120Y-113799465D01*
X151000535Y-113604880D01*
X150771727Y-113451995D01*
X150694485Y-113420000D01*
X150771727Y-113388005D01*
X151000535Y-113235120D01*
X151195120Y-113040535D01*
X151348005Y-112811727D01*
X151453314Y-112557490D01*
X151507000Y-112287592D01*
X151507000Y-112012408D01*
X151453314Y-111742510D01*
X151348005Y-111488273D01*
X151195120Y-111259465D01*
X151000535Y-111064880D01*
X150771727Y-110911995D01*
X150694485Y-110880000D01*
X150771727Y-110848005D01*
X151000535Y-110695120D01*
X151195120Y-110500535D01*
X151348005Y-110271727D01*
X151453314Y-110017490D01*
X151507000Y-109747592D01*
X151507000Y-109472408D01*
X151453314Y-109202510D01*
X151348005Y-108948273D01*
X151195120Y-108719465D01*
X151000535Y-108524880D01*
X150771727Y-108371995D01*
X150694485Y-108340000D01*
X150771727Y-108308005D01*
X151000535Y-108155120D01*
X151066557Y-108089098D01*
X157656000Y-108089098D01*
X157656000Y-108558902D01*
X157747654Y-109019679D01*
X157927440Y-109453721D01*
X158188450Y-109844349D01*
X158520651Y-110176550D01*
X158911279Y-110437560D01*
X159345321Y-110617346D01*
X159806098Y-110709000D01*
X160275902Y-110709000D01*
X160736679Y-110617346D01*
X161170721Y-110437560D01*
X161561349Y-110176550D01*
X161893550Y-109844349D01*
X162154560Y-109453721D01*
X162334346Y-109019679D01*
X162426000Y-108558902D01*
X162426000Y-108089098D01*
X163456000Y-108089098D01*
X163456000Y-108558902D01*
X163547654Y-109019679D01*
X163727440Y-109453721D01*
X163988450Y-109844349D01*
X164320651Y-110176550D01*
X164711279Y-110437560D01*
X165145321Y-110617346D01*
X165606098Y-110709000D01*
X166075902Y-110709000D01*
X166536679Y-110617346D01*
X166970721Y-110437560D01*
X167361349Y-110176550D01*
X167693550Y-109844349D01*
X167954560Y-109453721D01*
X168134346Y-109019679D01*
X168226000Y-108558902D01*
X168226000Y-108089098D01*
X168134346Y-107628321D01*
X167954560Y-107194279D01*
X167693550Y-106803651D01*
X167361349Y-106471450D01*
X166970721Y-106210440D01*
X166536679Y-106030654D01*
X166075902Y-105939000D01*
X165606098Y-105939000D01*
X165145321Y-106030654D01*
X164711279Y-106210440D01*
X164320651Y-106471450D01*
X163988450Y-106803651D01*
X163727440Y-107194279D01*
X163547654Y-107628321D01*
X163456000Y-108089098D01*
X162426000Y-108089098D01*
X162334346Y-107628321D01*
X162154560Y-107194279D01*
X161893550Y-106803651D01*
X161561349Y-106471450D01*
X161170721Y-106210440D01*
X160736679Y-106030654D01*
X160275902Y-105939000D01*
X159806098Y-105939000D01*
X159345321Y-106030654D01*
X158911279Y-106210440D01*
X158520651Y-106471450D01*
X158188450Y-106803651D01*
X157927440Y-107194279D01*
X157747654Y-107628321D01*
X157656000Y-108089098D01*
X151066557Y-108089098D01*
X151195120Y-107960535D01*
X151348005Y-107731727D01*
X151453314Y-107477490D01*
X151507000Y-107207592D01*
X151507000Y-106932408D01*
X151453314Y-106662510D01*
X151348005Y-106408273D01*
X151195120Y-106179465D01*
X151000535Y-105984880D01*
X150771727Y-105831995D01*
X150694485Y-105800000D01*
X150771727Y-105768005D01*
X151000535Y-105615120D01*
X151195120Y-105420535D01*
X151348005Y-105191727D01*
X151453314Y-104937490D01*
X151507000Y-104667592D01*
X151507000Y-104392408D01*
X151453314Y-104122510D01*
X151348005Y-103868273D01*
X151195120Y-103639465D01*
X151000535Y-103444880D01*
X150771727Y-103291995D01*
X150517490Y-103186686D01*
X150247592Y-103133000D01*
X149972408Y-103133000D01*
X149702510Y-103186686D01*
X149448273Y-103291995D01*
X149219465Y-103444880D01*
X149024880Y-103639465D01*
X148871995Y-103868273D01*
X148766686Y-104122510D01*
X148713000Y-104392408D01*
X142300393Y-104392408D01*
X145932802Y-100760000D01*
X160012405Y-100760000D01*
X160049294Y-100829014D01*
X160234866Y-101055134D01*
X160460986Y-101240706D01*
X160718966Y-101378599D01*
X160998889Y-101463513D01*
X161217050Y-101485000D01*
X161362950Y-101485000D01*
X161581111Y-101463513D01*
X161861034Y-101378599D01*
X162119014Y-101240706D01*
X162345134Y-101055134D01*
X162369607Y-101025313D01*
X162390498Y-101094180D01*
X162449463Y-101204494D01*
X162528815Y-101301185D01*
X162625506Y-101380537D01*
X162735820Y-101439502D01*
X162855518Y-101475812D01*
X162980000Y-101488072D01*
X163544250Y-101485000D01*
X163703000Y-101326250D01*
X163703000Y-100127000D01*
X163957000Y-100127000D01*
X163957000Y-101326250D01*
X164115750Y-101485000D01*
X164680000Y-101488072D01*
X164804482Y-101475812D01*
X164924180Y-101439502D01*
X165034494Y-101380537D01*
X165131185Y-101301185D01*
X165210537Y-101204494D01*
X165269502Y-101094180D01*
X165305812Y-100974482D01*
X165318072Y-100850000D01*
X165315000Y-100285750D01*
X165156250Y-100127000D01*
X163957000Y-100127000D01*
X163703000Y-100127000D01*
X163683000Y-100127000D01*
X163683000Y-99873000D01*
X163703000Y-99873000D01*
X163703000Y-98673750D01*
X163957000Y-98673750D01*
X163957000Y-99873000D01*
X165156250Y-99873000D01*
X165315000Y-99714250D01*
X165318072Y-99150000D01*
X165305812Y-99025518D01*
X165269502Y-98905820D01*
X165210537Y-98795506D01*
X165131185Y-98698815D01*
X165034494Y-98619463D01*
X164924180Y-98560498D01*
X164804482Y-98524188D01*
X164680000Y-98511928D01*
X164115750Y-98515000D01*
X163957000Y-98673750D01*
X163703000Y-98673750D01*
X163544250Y-98515000D01*
X162980000Y-98511928D01*
X162855518Y-98524188D01*
X162735820Y-98560498D01*
X162625506Y-98619463D01*
X162528815Y-98698815D01*
X162449463Y-98795506D01*
X162390498Y-98905820D01*
X162369607Y-98974687D01*
X162345134Y-98944866D01*
X162119014Y-98759294D01*
X161861034Y-98621401D01*
X161581111Y-98536487D01*
X161362950Y-98515000D01*
X161217050Y-98515000D01*
X160998889Y-98536487D01*
X160718966Y-98621401D01*
X160460986Y-98759294D01*
X160234866Y-98944866D01*
X160049294Y-99170986D01*
X160012405Y-99240000D01*
X145655333Y-99240000D01*
X145618000Y-99236323D01*
X145580667Y-99240000D01*
X145469014Y-99250997D01*
X145325753Y-99294454D01*
X145193724Y-99365026D01*
X145077999Y-99459999D01*
X145054201Y-99488997D01*
X138426998Y-106116201D01*
X138398000Y-106139999D01*
X138374202Y-106168997D01*
X138374201Y-106168998D01*
X138303026Y-106255724D01*
X138232454Y-106387754D01*
X138188998Y-106531015D01*
X138174324Y-106680000D01*
X138178001Y-106717332D01*
X138178000Y-120467198D01*
X136267000Y-122378199D01*
X136267000Y-122172408D01*
X136213314Y-121902510D01*
X136108005Y-121648273D01*
X135955120Y-121419465D01*
X135760535Y-121224880D01*
X135531727Y-121071995D01*
X135454485Y-121040000D01*
X135531727Y-121008005D01*
X135760535Y-120855120D01*
X135955120Y-120660535D01*
X136108005Y-120431727D01*
X136213314Y-120177490D01*
X136267000Y-119907592D01*
X136267000Y-119632408D01*
X136213314Y-119362510D01*
X136108005Y-119108273D01*
X135955120Y-118879465D01*
X135760535Y-118684880D01*
X135531727Y-118531995D01*
X135454485Y-118500000D01*
X135531727Y-118468005D01*
X135760535Y-118315120D01*
X135955120Y-118120535D01*
X136108005Y-117891727D01*
X136213314Y-117637490D01*
X136267000Y-117367592D01*
X136267000Y-117092408D01*
X136213314Y-116822510D01*
X136108005Y-116568273D01*
X135955120Y-116339465D01*
X135760535Y-116144880D01*
X135531727Y-115991995D01*
X135454485Y-115960000D01*
X135531727Y-115928005D01*
X135760535Y-115775120D01*
X135955120Y-115580535D01*
X136108005Y-115351727D01*
X136213314Y-115097490D01*
X136267000Y-114827592D01*
X136267000Y-114552408D01*
X136213314Y-114282510D01*
X136108005Y-114028273D01*
X135955120Y-113799465D01*
X135760535Y-113604880D01*
X135531727Y-113451995D01*
X135454485Y-113420000D01*
X135531727Y-113388005D01*
X135760535Y-113235120D01*
X135955120Y-113040535D01*
X136108005Y-112811727D01*
X136213314Y-112557490D01*
X136267000Y-112287592D01*
X136267000Y-112012408D01*
X136213314Y-111742510D01*
X136108005Y-111488273D01*
X135955120Y-111259465D01*
X135760535Y-111064880D01*
X135531727Y-110911995D01*
X135454485Y-110880000D01*
X135531727Y-110848005D01*
X135760535Y-110695120D01*
X135955120Y-110500535D01*
X136108005Y-110271727D01*
X136213314Y-110017490D01*
X136267000Y-109747592D01*
X136267000Y-109472408D01*
X136213314Y-109202510D01*
X136108005Y-108948273D01*
X135955120Y-108719465D01*
X135760535Y-108524880D01*
X135531727Y-108371995D01*
X135460057Y-108342308D01*
X135473023Y-108337636D01*
X135588980Y-108275656D01*
X135655960Y-108035565D01*
X134870000Y-107249605D01*
X134855858Y-107263748D01*
X134676253Y-107084143D01*
X134690395Y-107070000D01*
X135049605Y-107070000D01*
X135835565Y-107855960D01*
X136075656Y-107788980D01*
X136192756Y-107539952D01*
X136259023Y-107272865D01*
X136271910Y-106997983D01*
X136230922Y-106725867D01*
X136137636Y-106466977D01*
X136075656Y-106351020D01*
X135835565Y-106284040D01*
X135049605Y-107070000D01*
X134690395Y-107070000D01*
X133904435Y-106284040D01*
X133664344Y-106351020D01*
X133547244Y-106600048D01*
X133480977Y-106867135D01*
X133476397Y-106964819D01*
X130903986Y-104392408D01*
X133473000Y-104392408D01*
X133473000Y-104667592D01*
X133526686Y-104937490D01*
X133631995Y-105191727D01*
X133784880Y-105420535D01*
X133979465Y-105615120D01*
X134208273Y-105768005D01*
X134279943Y-105797692D01*
X134266977Y-105802364D01*
X134151020Y-105864344D01*
X134084040Y-106104435D01*
X134870000Y-106890395D01*
X135655960Y-106104435D01*
X135588980Y-105864344D01*
X135453240Y-105800515D01*
X135531727Y-105768005D01*
X135760535Y-105615120D01*
X135955120Y-105420535D01*
X136108005Y-105191727D01*
X136213314Y-104937490D01*
X136267000Y-104667592D01*
X136267000Y-104392408D01*
X136213314Y-104122510D01*
X136108005Y-103868273D01*
X135955120Y-103639465D01*
X135760535Y-103444880D01*
X135531727Y-103291995D01*
X135277490Y-103186686D01*
X135007592Y-103133000D01*
X134732408Y-103133000D01*
X134462510Y-103186686D01*
X134208273Y-103291995D01*
X133979465Y-103444880D01*
X133784880Y-103639465D01*
X133631995Y-103868273D01*
X133526686Y-104122510D01*
X133473000Y-104392408D01*
X130903986Y-104392408D01*
X126869000Y-100357422D01*
X126869000Y-83665098D01*
X128455000Y-83665098D01*
X128455000Y-84134902D01*
X128546654Y-84595679D01*
X128726440Y-85029721D01*
X128987450Y-85420349D01*
X129319651Y-85752550D01*
X129710279Y-86013560D01*
X130144321Y-86193346D01*
X130605098Y-86285000D01*
X131074902Y-86285000D01*
X131535679Y-86193346D01*
X131969721Y-86013560D01*
X132360349Y-85752550D01*
X132692550Y-85420349D01*
X132953560Y-85029721D01*
X133133346Y-84595679D01*
X133225000Y-84134902D01*
X133225000Y-83665098D01*
X133133346Y-83204321D01*
X132953560Y-82770279D01*
X132692550Y-82379651D01*
X132360349Y-82047450D01*
X131969721Y-81786440D01*
X131535679Y-81606654D01*
X131074902Y-81515000D01*
X130605098Y-81515000D01*
X130144321Y-81606654D01*
X129710279Y-81786440D01*
X129319651Y-82047450D01*
X128987450Y-82379651D01*
X128726440Y-82770279D01*
X128546654Y-83204321D01*
X128455000Y-83665098D01*
X126869000Y-83665098D01*
X126869000Y-76767264D01*
X135355000Y-76767264D01*
X135355000Y-78172736D01*
X135629194Y-79551203D01*
X136167045Y-80849690D01*
X136947884Y-82018297D01*
X137941703Y-83012116D01*
X139110310Y-83792955D01*
X140408797Y-84330806D01*
X141787264Y-84605000D01*
X143192736Y-84605000D01*
X144571203Y-84330806D01*
X145869690Y-83792955D01*
X146061041Y-83665098D01*
X151755000Y-83665098D01*
X151755000Y-84134902D01*
X151846654Y-84595679D01*
X152026440Y-85029721D01*
X152287450Y-85420349D01*
X152619651Y-85752550D01*
X153010279Y-86013560D01*
X153444321Y-86193346D01*
X153905098Y-86285000D01*
X154374902Y-86285000D01*
X154835679Y-86193346D01*
X155269721Y-86013560D01*
X155660349Y-85752550D01*
X155992550Y-85420349D01*
X156253560Y-85029721D01*
X156433346Y-84595679D01*
X156525000Y-84134902D01*
X156525000Y-83665098D01*
X156433346Y-83204321D01*
X156253560Y-82770279D01*
X155992550Y-82379651D01*
X155660349Y-82047450D01*
X155269721Y-81786440D01*
X154835679Y-81606654D01*
X154374902Y-81515000D01*
X153905098Y-81515000D01*
X153444321Y-81606654D01*
X153010279Y-81786440D01*
X152619651Y-82047450D01*
X152287450Y-82379651D01*
X152026440Y-82770279D01*
X151846654Y-83204321D01*
X151755000Y-83665098D01*
X146061041Y-83665098D01*
X147038297Y-83012116D01*
X148032116Y-82018297D01*
X148812955Y-80849690D01*
X149350806Y-79551203D01*
X149625000Y-78172736D01*
X149625000Y-76767264D01*
X149350806Y-75388797D01*
X148812955Y-74090310D01*
X148032116Y-72921703D01*
X147038297Y-71927884D01*
X145869690Y-71147045D01*
X144571203Y-70609194D01*
X143192736Y-70335000D01*
X141787264Y-70335000D01*
X140408797Y-70609194D01*
X139110310Y-71147045D01*
X137941703Y-71927884D01*
X136947884Y-72921703D01*
X136167045Y-74090310D01*
X135629194Y-75388797D01*
X135355000Y-76767264D01*
X126869000Y-76767264D01*
X126869000Y-72941469D01*
X126873281Y-72898000D01*
X126869000Y-72854531D01*
X126869000Y-72854523D01*
X126856195Y-72724510D01*
X126805589Y-72557687D01*
X126723411Y-72403941D01*
X126612817Y-72269183D01*
X126579044Y-72241466D01*
X126538534Y-72200956D01*
X126510817Y-72167183D01*
X126376059Y-72056589D01*
X126222313Y-71974411D01*
X126055490Y-71923805D01*
X125925477Y-71911000D01*
X125925469Y-71911000D01*
X125882000Y-71906719D01*
X125838531Y-71911000D01*
X124338072Y-71911000D01*
X124338072Y-71796000D01*
X124325812Y-71671518D01*
X124289502Y-71551820D01*
X124230537Y-71441506D01*
X124151185Y-71344815D01*
X124054494Y-71265463D01*
X123944180Y-71206498D01*
X123835000Y-71173379D01*
X123835000Y-66671811D01*
X123891886Y-66641405D01*
X124026462Y-66530962D01*
X124136905Y-66396386D01*
X124218972Y-66242850D01*
X124243194Y-66163000D01*
X141172531Y-66163000D01*
X141216000Y-66167281D01*
X141259469Y-66163000D01*
X141259477Y-66163000D01*
X141389490Y-66150195D01*
X141556313Y-66099589D01*
X141710059Y-66017411D01*
X141844817Y-65906817D01*
X141846620Y-65904620D01*
X141848817Y-65902817D01*
X141959411Y-65768059D01*
X142041589Y-65614313D01*
X142092195Y-65447490D01*
X142105000Y-65317477D01*
X142105000Y-65317469D01*
X142109281Y-65274000D01*
X142105000Y-65230531D01*
X142105000Y-62565098D01*
X164835000Y-62565098D01*
X164835000Y-63034902D01*
X164926654Y-63495679D01*
X165106440Y-63929721D01*
X165367450Y-64320349D01*
X165699651Y-64652550D01*
X166090279Y-64913560D01*
X166524321Y-65093346D01*
X166985098Y-65185000D01*
X167454902Y-65185000D01*
X167915679Y-65093346D01*
X168349721Y-64913560D01*
X168740349Y-64652550D01*
X169072550Y-64320349D01*
X169333560Y-63929721D01*
X169513346Y-63495679D01*
X169605000Y-63034902D01*
X169605000Y-62565098D01*
X169513346Y-62104321D01*
X169333560Y-61670279D01*
X169072550Y-61279651D01*
X168740349Y-60947450D01*
X168349721Y-60686440D01*
X167915679Y-60506654D01*
X167454902Y-60415000D01*
X166985098Y-60415000D01*
X166524321Y-60506654D01*
X166090279Y-60686440D01*
X165699651Y-60947450D01*
X165367450Y-61279651D01*
X165106440Y-61670279D01*
X164926654Y-62104321D01*
X164835000Y-62565098D01*
X142105000Y-62565098D01*
X142105000Y-60688818D01*
X142110535Y-60685120D01*
X142305120Y-60490535D01*
X142458005Y-60261727D01*
X142490000Y-60184485D01*
X142521995Y-60261727D01*
X142674880Y-60490535D01*
X142869465Y-60685120D01*
X143098273Y-60838005D01*
X143352510Y-60943314D01*
X143622408Y-60997000D01*
X143897592Y-60997000D01*
X144167490Y-60943314D01*
X144421727Y-60838005D01*
X144650535Y-60685120D01*
X144845120Y-60490535D01*
X144998005Y-60261727D01*
X145030000Y-60184485D01*
X145061995Y-60261727D01*
X145214880Y-60490535D01*
X145409465Y-60685120D01*
X145638273Y-60838005D01*
X145892510Y-60943314D01*
X146162408Y-60997000D01*
X146437592Y-60997000D01*
X146707490Y-60943314D01*
X146961727Y-60838005D01*
X147190535Y-60685120D01*
X147385120Y-60490535D01*
X147538005Y-60261727D01*
X147643314Y-60007490D01*
X147671637Y-59865098D01*
X151755000Y-59865098D01*
X151755000Y-60334902D01*
X151846654Y-60795679D01*
X152026440Y-61229721D01*
X152287450Y-61620349D01*
X152619651Y-61952550D01*
X153010279Y-62213560D01*
X153444321Y-62393346D01*
X153905098Y-62485000D01*
X154374902Y-62485000D01*
X154835679Y-62393346D01*
X155269721Y-62213560D01*
X155660349Y-61952550D01*
X155992550Y-61620349D01*
X156253560Y-61229721D01*
X156433346Y-60795679D01*
X156525000Y-60334902D01*
X156525000Y-59865098D01*
X156433346Y-59404321D01*
X156253560Y-58970279D01*
X155992550Y-58579651D01*
X155660349Y-58247450D01*
X155269721Y-57986440D01*
X154835679Y-57806654D01*
X154374902Y-57715000D01*
X153905098Y-57715000D01*
X153444321Y-57806654D01*
X153010279Y-57986440D01*
X152619651Y-58247450D01*
X152287450Y-58579651D01*
X152026440Y-58970279D01*
X151846654Y-59404321D01*
X151755000Y-59865098D01*
X147671637Y-59865098D01*
X147697000Y-59737592D01*
X147697000Y-59462408D01*
X147643314Y-59192510D01*
X147538005Y-58938273D01*
X147385120Y-58709465D01*
X147190535Y-58514880D01*
X146961727Y-58361995D01*
X146707490Y-58256686D01*
X146437592Y-58203000D01*
X146162408Y-58203000D01*
X145892510Y-58256686D01*
X145638273Y-58361995D01*
X145409465Y-58514880D01*
X145214880Y-58709465D01*
X145061995Y-58938273D01*
X145030000Y-59015515D01*
X144998005Y-58938273D01*
X144845120Y-58709465D01*
X144650535Y-58514880D01*
X144421727Y-58361995D01*
X144167490Y-58256686D01*
X143897592Y-58203000D01*
X143622408Y-58203000D01*
X143352510Y-58256686D01*
X143098273Y-58361995D01*
X142869465Y-58514880D01*
X142674880Y-58709465D01*
X142521995Y-58938273D01*
X142490000Y-59015515D01*
X142458005Y-58938273D01*
X142305120Y-58709465D01*
X142110535Y-58514880D01*
X141881727Y-58361995D01*
X141627490Y-58256686D01*
X141357592Y-58203000D01*
X141082408Y-58203000D01*
X140812510Y-58256686D01*
X140558273Y-58361995D01*
X140329465Y-58514880D01*
X140134880Y-58709465D01*
X139981995Y-58938273D01*
X139952308Y-59009943D01*
X139947636Y-58996977D01*
X139885656Y-58881020D01*
X139645565Y-58814040D01*
X138859605Y-59600000D01*
X139645565Y-60385960D01*
X139885656Y-60318980D01*
X139949485Y-60183240D01*
X139981995Y-60261727D01*
X140134880Y-60490535D01*
X140329465Y-60685120D01*
X140335000Y-60688819D01*
X140335001Y-64393000D01*
X124243194Y-64393000D01*
X124218972Y-64313150D01*
X124136905Y-64159614D01*
X124026462Y-64025038D01*
X123891886Y-63914595D01*
X123738350Y-63832528D01*
X123571754Y-63781992D01*
X123398500Y-63764928D01*
X122473500Y-63764928D01*
X122300246Y-63781992D01*
X122133650Y-63832528D01*
X121980114Y-63914595D01*
X121845538Y-64025038D01*
X121735095Y-64159614D01*
X121653028Y-64313150D01*
X121602492Y-64479746D01*
X121585428Y-64653000D01*
X121585428Y-65903000D01*
X121602492Y-66076254D01*
X121653028Y-66242850D01*
X121735095Y-66396386D01*
X121845538Y-66530962D01*
X121980114Y-66641405D01*
X122065001Y-66686778D01*
X122065000Y-71173379D01*
X121955820Y-71206498D01*
X121845506Y-71265463D01*
X121800000Y-71302809D01*
X121754494Y-71265463D01*
X121644180Y-71206498D01*
X121535000Y-71173379D01*
X121535000Y-70235294D01*
X121605886Y-70197405D01*
X121740462Y-70086962D01*
X121850905Y-69952386D01*
X121932972Y-69798850D01*
X121983508Y-69632254D01*
X122000572Y-69459000D01*
X122000572Y-68209000D01*
X121983508Y-68035746D01*
X121932972Y-67869150D01*
X121850905Y-67715614D01*
X121740462Y-67581038D01*
X121605886Y-67470595D01*
X121452350Y-67388528D01*
X121285754Y-67337992D01*
X121112500Y-67320928D01*
X120187500Y-67320928D01*
X120014246Y-67337992D01*
X119847650Y-67388528D01*
X119694114Y-67470595D01*
X119559538Y-67581038D01*
X119449095Y-67715614D01*
X119367028Y-67869150D01*
X119316492Y-68035746D01*
X119299428Y-68209000D01*
X119299428Y-69459000D01*
X119316492Y-69632254D01*
X119367028Y-69798850D01*
X119449095Y-69952386D01*
X119559538Y-70086962D01*
X119694114Y-70197405D01*
X119765000Y-70235295D01*
X119765001Y-71173378D01*
X119655820Y-71206498D01*
X119545506Y-71265463D01*
X119500000Y-71302809D01*
X119454494Y-71265463D01*
X119344180Y-71206498D01*
X119224482Y-71170188D01*
X119100000Y-71157928D01*
X118635750Y-71161000D01*
X118477000Y-71319750D01*
X118477000Y-72669000D01*
X118497000Y-72669000D01*
X118497000Y-72923000D01*
X118477000Y-72923000D01*
X118477000Y-74272250D01*
X118635750Y-74431000D01*
X119100000Y-74434072D01*
X119224482Y-74421812D01*
X119344180Y-74385502D01*
X119454494Y-74326537D01*
X119500000Y-74289191D01*
X119545506Y-74326537D01*
X119655820Y-74385502D01*
X119765000Y-74418621D01*
X119765001Y-77457928D01*
X118750000Y-77457928D01*
X118625518Y-77470188D01*
X118505820Y-77506498D01*
X118395506Y-77565463D01*
X118298815Y-77644815D01*
X118219463Y-77741506D01*
X118160498Y-77851820D01*
X118124188Y-77971518D01*
X118111928Y-78096000D01*
X118111928Y-80096000D01*
X118124188Y-80220482D01*
X118160498Y-80340180D01*
X118219463Y-80450494D01*
X118298815Y-80547185D01*
X118395506Y-80626537D01*
X118505820Y-80685502D01*
X118625518Y-80721812D01*
X118750000Y-80734072D01*
X119765001Y-80734072D01*
X119765000Y-97746531D01*
X119760719Y-97790000D01*
X119765000Y-97833469D01*
X119765000Y-97833476D01*
X119777805Y-97963489D01*
X119828411Y-98130312D01*
X119910589Y-98284058D01*
X120021183Y-98418817D01*
X120054956Y-98446534D01*
X130941001Y-109332580D01*
X130941001Y-115950982D01*
X130850350Y-115902528D01*
X130683754Y-115851992D01*
X130510500Y-115834928D01*
X129585500Y-115834928D01*
X129412246Y-115851992D01*
X129245650Y-115902528D01*
X129092114Y-115984595D01*
X128957538Y-116095038D01*
X128847095Y-116229614D01*
X128765028Y-116383150D01*
X128714492Y-116549746D01*
X128697428Y-116723000D01*
X128697428Y-117973000D01*
X128714492Y-118146254D01*
X128765028Y-118312850D01*
X128847095Y-118466386D01*
X128957538Y-118600962D01*
X129092114Y-118711405D01*
X129245650Y-118793472D01*
X129288001Y-118806319D01*
X129288000Y-121724289D01*
X129244063Y-121768226D01*
X129130795Y-121937744D01*
X129052774Y-122126102D01*
X129013000Y-122326061D01*
X129013000Y-122529939D01*
X129052774Y-122729898D01*
X129130795Y-122918256D01*
X129244063Y-123087774D01*
X129388226Y-123231937D01*
X129557744Y-123345205D01*
X129746102Y-123423226D01*
X129946061Y-123463000D01*
X130149939Y-123463000D01*
X130349898Y-123423226D01*
X130538256Y-123345205D01*
X130707774Y-123231937D01*
X130851937Y-123087774D01*
X130941000Y-122954481D01*
X130941000Y-124083000D01*
X126945818Y-124083000D01*
X126942120Y-124077465D01*
X126747535Y-123882880D01*
X126518727Y-123729995D01*
X126441485Y-123698000D01*
X126518727Y-123666005D01*
X126747535Y-123513120D01*
X126942120Y-123318535D01*
X127095005Y-123089727D01*
X127200314Y-122835490D01*
X127254000Y-122565592D01*
X127254000Y-122290408D01*
X127200314Y-122020510D01*
X127095005Y-121766273D01*
X126942120Y-121537465D01*
X126747535Y-121342880D01*
X126617000Y-121255659D01*
X126617000Y-118861072D01*
X127535500Y-118861072D01*
X127708754Y-118844008D01*
X127875350Y-118793472D01*
X128028886Y-118711405D01*
X128163462Y-118600962D01*
X128273905Y-118466386D01*
X128355972Y-118312850D01*
X128406508Y-118146254D01*
X128423572Y-117973000D01*
X128423572Y-116723000D01*
X128406508Y-116549746D01*
X128355972Y-116383150D01*
X128273905Y-116229614D01*
X128163462Y-116095038D01*
X128028886Y-115984595D01*
X127875350Y-115902528D01*
X127708754Y-115851992D01*
X127535500Y-115834928D01*
X126610500Y-115834928D01*
X126437246Y-115851992D01*
X126270650Y-115902528D01*
X126117114Y-115984595D01*
X125982538Y-116095038D01*
X125872095Y-116229614D01*
X125790028Y-116383150D01*
X125739492Y-116549746D01*
X125735724Y-116588000D01*
X125470276Y-116588000D01*
X125466508Y-116549746D01*
X125415972Y-116383150D01*
X125333905Y-116229614D01*
X125223462Y-116095038D01*
X125088886Y-115984595D01*
X124935350Y-115902528D01*
X124768754Y-115851992D01*
X124595500Y-115834928D01*
X123670500Y-115834928D01*
X123497246Y-115851992D01*
X123330650Y-115902528D01*
X123177114Y-115984595D01*
X123042538Y-116095038D01*
X122932095Y-116229614D01*
X122850028Y-116383150D01*
X122799492Y-116549746D01*
X122782428Y-116723000D01*
X122782428Y-117973000D01*
X122799492Y-118146254D01*
X122850028Y-118312850D01*
X122932095Y-118466386D01*
X123042538Y-118600962D01*
X123177114Y-118711405D01*
X123330650Y-118793472D01*
X123497246Y-118844008D01*
X123670500Y-118861072D01*
X124595500Y-118861072D01*
X124768754Y-118844008D01*
X124935350Y-118793472D01*
X125088886Y-118711405D01*
X125097001Y-118704745D01*
X125097000Y-121255659D01*
X124966465Y-121342880D01*
X124771880Y-121537465D01*
X124618995Y-121766273D01*
X124587000Y-121843515D01*
X124555005Y-121766273D01*
X124402120Y-121537465D01*
X124207535Y-121342880D01*
X123978727Y-121189995D01*
X123724490Y-121084686D01*
X123454592Y-121031000D01*
X123179408Y-121031000D01*
X122909510Y-121084686D01*
X122655273Y-121189995D01*
X122426465Y-121342880D01*
X122231880Y-121537465D01*
X122078995Y-121766273D01*
X122047000Y-121843515D01*
X122015005Y-121766273D01*
X121862120Y-121537465D01*
X121667535Y-121342880D01*
X121438727Y-121189995D01*
X121184490Y-121084686D01*
X120914592Y-121031000D01*
X120639408Y-121031000D01*
X120369510Y-121084686D01*
X120115273Y-121189995D01*
X119886465Y-121342880D01*
X119691880Y-121537465D01*
X119538995Y-121766273D01*
X119509308Y-121837943D01*
X119504636Y-121824977D01*
X119442656Y-121709020D01*
X119202565Y-121642040D01*
X118416605Y-122428000D01*
X119202565Y-123213960D01*
X119442656Y-123146980D01*
X119506485Y-123011240D01*
X119538995Y-123089727D01*
X119691880Y-123318535D01*
X119886465Y-123513120D01*
X120115273Y-123666005D01*
X120192515Y-123698000D01*
X120115273Y-123729995D01*
X119886465Y-123882880D01*
X119691880Y-124077465D01*
X119538995Y-124306273D01*
X119507000Y-124383515D01*
X119475005Y-124306273D01*
X119322120Y-124077465D01*
X119127535Y-123882880D01*
X118898727Y-123729995D01*
X118827057Y-123700308D01*
X118840023Y-123695636D01*
X118955980Y-123633656D01*
X119022960Y-123393565D01*
X118237000Y-122607605D01*
X117451040Y-123393565D01*
X117518020Y-123633656D01*
X117653760Y-123697485D01*
X117575273Y-123729995D01*
X117346465Y-123882880D01*
X117151880Y-124077465D01*
X116998995Y-124306273D01*
X116893686Y-124560510D01*
X116840000Y-124830408D01*
X111200000Y-124830408D01*
X111200000Y-122500017D01*
X116835090Y-122500017D01*
X116876078Y-122772133D01*
X116969364Y-123031023D01*
X117031344Y-123146980D01*
X117271435Y-123213960D01*
X118057395Y-122428000D01*
X117271435Y-121642040D01*
X117031344Y-121709020D01*
X116914244Y-121958048D01*
X116847977Y-122225135D01*
X116835090Y-122500017D01*
X111200000Y-122500017D01*
X111200000Y-121462435D01*
X117451040Y-121462435D01*
X118237000Y-122248395D01*
X119022960Y-121462435D01*
X118955980Y-121222344D01*
X118706952Y-121105244D01*
X118439865Y-121038977D01*
X118164983Y-121026090D01*
X117892867Y-121067078D01*
X117633977Y-121160364D01*
X117518020Y-121222344D01*
X117451040Y-121462435D01*
X111200000Y-121462435D01*
X111200000Y-118223000D01*
X119807428Y-118223000D01*
X119819688Y-118347482D01*
X119855998Y-118467180D01*
X119914963Y-118577494D01*
X119994315Y-118674185D01*
X120091006Y-118753537D01*
X120201320Y-118812502D01*
X120321018Y-118848812D01*
X120445500Y-118861072D01*
X120872250Y-118858000D01*
X121031000Y-118699250D01*
X121031000Y-117475000D01*
X121285000Y-117475000D01*
X121285000Y-118699250D01*
X121443750Y-118858000D01*
X121870500Y-118861072D01*
X121994982Y-118848812D01*
X122114680Y-118812502D01*
X122224994Y-118753537D01*
X122321685Y-118674185D01*
X122401037Y-118577494D01*
X122460002Y-118467180D01*
X122496312Y-118347482D01*
X122508572Y-118223000D01*
X122505500Y-117633750D01*
X122346750Y-117475000D01*
X121285000Y-117475000D01*
X121031000Y-117475000D01*
X119969250Y-117475000D01*
X119810500Y-117633750D01*
X119807428Y-118223000D01*
X111200000Y-118223000D01*
X111200000Y-116473000D01*
X119807428Y-116473000D01*
X119810500Y-117062250D01*
X119969250Y-117221000D01*
X121031000Y-117221000D01*
X121031000Y-115996750D01*
X121285000Y-115996750D01*
X121285000Y-117221000D01*
X122346750Y-117221000D01*
X122505500Y-117062250D01*
X122508572Y-116473000D01*
X122496312Y-116348518D01*
X122460002Y-116228820D01*
X122401037Y-116118506D01*
X122321685Y-116021815D01*
X122224994Y-115942463D01*
X122114680Y-115883498D01*
X121994982Y-115847188D01*
X121870500Y-115834928D01*
X121443750Y-115838000D01*
X121285000Y-115996750D01*
X121031000Y-115996750D01*
X120872250Y-115838000D01*
X120445500Y-115834928D01*
X120321018Y-115847188D01*
X120201320Y-115883498D01*
X120091006Y-115942463D01*
X119994315Y-116021815D01*
X119914963Y-116118506D01*
X119855998Y-116228820D01*
X119819688Y-116348518D01*
X119807428Y-116473000D01*
X111200000Y-116473000D01*
X111200000Y-73796000D01*
X116961928Y-73796000D01*
X116974188Y-73920482D01*
X117010498Y-74040180D01*
X117069463Y-74150494D01*
X117148815Y-74247185D01*
X117245506Y-74326537D01*
X117355820Y-74385502D01*
X117475518Y-74421812D01*
X117600000Y-74434072D01*
X118064250Y-74431000D01*
X118223000Y-74272250D01*
X118223000Y-72923000D01*
X117123750Y-72923000D01*
X116965000Y-73081750D01*
X116961928Y-73796000D01*
X111200000Y-73796000D01*
X111200000Y-71796000D01*
X116961928Y-71796000D01*
X116965000Y-72510250D01*
X117123750Y-72669000D01*
X118223000Y-72669000D01*
X118223000Y-71319750D01*
X118064250Y-71161000D01*
X117600000Y-71157928D01*
X117475518Y-71170188D01*
X117355820Y-71206498D01*
X117245506Y-71265463D01*
X117148815Y-71344815D01*
X117069463Y-71441506D01*
X117010498Y-71551820D01*
X116974188Y-71671518D01*
X116961928Y-71796000D01*
X111200000Y-71796000D01*
X111200000Y-69709000D01*
X116324428Y-69709000D01*
X116336688Y-69833482D01*
X116372998Y-69953180D01*
X116431963Y-70063494D01*
X116511315Y-70160185D01*
X116608006Y-70239537D01*
X116718320Y-70298502D01*
X116838018Y-70334812D01*
X116962500Y-70347072D01*
X117389250Y-70344000D01*
X117548000Y-70185250D01*
X117548000Y-68961000D01*
X117802000Y-68961000D01*
X117802000Y-70185250D01*
X117960750Y-70344000D01*
X118387500Y-70347072D01*
X118511982Y-70334812D01*
X118631680Y-70298502D01*
X118741994Y-70239537D01*
X118838685Y-70160185D01*
X118918037Y-70063494D01*
X118977002Y-69953180D01*
X119013312Y-69833482D01*
X119025572Y-69709000D01*
X119022500Y-69119750D01*
X118863750Y-68961000D01*
X117802000Y-68961000D01*
X117548000Y-68961000D01*
X116486250Y-68961000D01*
X116327500Y-69119750D01*
X116324428Y-69709000D01*
X111200000Y-69709000D01*
X111200000Y-67959000D01*
X116324428Y-67959000D01*
X116327500Y-68548250D01*
X116486250Y-68707000D01*
X117548000Y-68707000D01*
X117548000Y-67482750D01*
X117802000Y-67482750D01*
X117802000Y-68707000D01*
X118863750Y-68707000D01*
X119022500Y-68548250D01*
X119025572Y-67959000D01*
X119013312Y-67834518D01*
X118977002Y-67714820D01*
X118918037Y-67604506D01*
X118838685Y-67507815D01*
X118741994Y-67428463D01*
X118631680Y-67369498D01*
X118511982Y-67333188D01*
X118387500Y-67320928D01*
X117960750Y-67324000D01*
X117802000Y-67482750D01*
X117548000Y-67482750D01*
X117389250Y-67324000D01*
X116962500Y-67320928D01*
X116838018Y-67333188D01*
X116718320Y-67369498D01*
X116608006Y-67428463D01*
X116511315Y-67507815D01*
X116431963Y-67604506D01*
X116372998Y-67714820D01*
X116336688Y-67834518D01*
X116324428Y-67959000D01*
X111200000Y-67959000D01*
X111200000Y-66153000D01*
X118610428Y-66153000D01*
X118622688Y-66277482D01*
X118658998Y-66397180D01*
X118717963Y-66507494D01*
X118797315Y-66604185D01*
X118894006Y-66683537D01*
X119004320Y-66742502D01*
X119124018Y-66778812D01*
X119248500Y-66791072D01*
X119675250Y-66788000D01*
X119834000Y-66629250D01*
X119834000Y-65405000D01*
X120088000Y-65405000D01*
X120088000Y-66629250D01*
X120246750Y-66788000D01*
X120673500Y-66791072D01*
X120797982Y-66778812D01*
X120917680Y-66742502D01*
X121027994Y-66683537D01*
X121124685Y-66604185D01*
X121204037Y-66507494D01*
X121263002Y-66397180D01*
X121299312Y-66277482D01*
X121311572Y-66153000D01*
X121308500Y-65563750D01*
X121149750Y-65405000D01*
X120088000Y-65405000D01*
X119834000Y-65405000D01*
X118772250Y-65405000D01*
X118613500Y-65563750D01*
X118610428Y-66153000D01*
X111200000Y-66153000D01*
X111200000Y-62565098D01*
X115725000Y-62565098D01*
X115725000Y-63034902D01*
X115816654Y-63495679D01*
X115996440Y-63929721D01*
X116257450Y-64320349D01*
X116589651Y-64652550D01*
X116980279Y-64913560D01*
X117414321Y-65093346D01*
X117875098Y-65185000D01*
X118344902Y-65185000D01*
X118729708Y-65108458D01*
X118772250Y-65151000D01*
X119834000Y-65151000D01*
X119834000Y-65131000D01*
X120088000Y-65131000D01*
X120088000Y-65151000D01*
X121149750Y-65151000D01*
X121308500Y-64992250D01*
X121311572Y-64403000D01*
X121299312Y-64278518D01*
X121263002Y-64158820D01*
X121204037Y-64048506D01*
X121124685Y-63951815D01*
X121027994Y-63872463D01*
X120917680Y-63813498D01*
X120797982Y-63777188D01*
X120673500Y-63764928D01*
X120290678Y-63767684D01*
X120403346Y-63495679D01*
X120495000Y-63034902D01*
X120495000Y-62565098D01*
X120403346Y-62104321D01*
X120223560Y-61670279D01*
X119962550Y-61279651D01*
X119630349Y-60947450D01*
X119239721Y-60686440D01*
X118805679Y-60506654D01*
X118344902Y-60415000D01*
X117875098Y-60415000D01*
X117414321Y-60506654D01*
X116980279Y-60686440D01*
X116589651Y-60947450D01*
X116257450Y-61279651D01*
X115996440Y-61670279D01*
X115816654Y-62104321D01*
X115725000Y-62565098D01*
X111200000Y-62565098D01*
X111200000Y-60010000D01*
X116874877Y-60010000D01*
X116906019Y-60006933D01*
X116919360Y-60007026D01*
X116929225Y-60006059D01*
X117346534Y-59962197D01*
X117409528Y-59949266D01*
X117472781Y-59937200D01*
X117482271Y-59934335D01*
X117705939Y-59865098D01*
X128455000Y-59865098D01*
X128455000Y-60334902D01*
X128546654Y-60795679D01*
X128726440Y-61229721D01*
X128987450Y-61620349D01*
X129319651Y-61952550D01*
X129710279Y-62213560D01*
X130144321Y-62393346D01*
X130605098Y-62485000D01*
X131074902Y-62485000D01*
X131535679Y-62393346D01*
X131969721Y-62213560D01*
X132360349Y-61952550D01*
X132692550Y-61620349D01*
X132953560Y-61229721D01*
X133133346Y-60795679D01*
X133179118Y-60565565D01*
X137894040Y-60565565D01*
X137961020Y-60805656D01*
X138210048Y-60922756D01*
X138477135Y-60989023D01*
X138752017Y-61001910D01*
X139024133Y-60960922D01*
X139283023Y-60867636D01*
X139398980Y-60805656D01*
X139465960Y-60565565D01*
X138680000Y-59779605D01*
X137894040Y-60565565D01*
X133179118Y-60565565D01*
X133225000Y-60334902D01*
X133225000Y-59865098D01*
X133186594Y-59672017D01*
X137278090Y-59672017D01*
X137319078Y-59944133D01*
X137412364Y-60203023D01*
X137474344Y-60318980D01*
X137714435Y-60385960D01*
X138500395Y-59600000D01*
X137714435Y-58814040D01*
X137474344Y-58881020D01*
X137357244Y-59130048D01*
X137290977Y-59397135D01*
X137278090Y-59672017D01*
X133186594Y-59672017D01*
X133133346Y-59404321D01*
X132953560Y-58970279D01*
X132729156Y-58634435D01*
X137894040Y-58634435D01*
X138680000Y-59420395D01*
X139465960Y-58634435D01*
X139398980Y-58394344D01*
X139149952Y-58277244D01*
X138882865Y-58210977D01*
X138607983Y-58198090D01*
X138335867Y-58239078D01*
X138076977Y-58332364D01*
X137961020Y-58394344D01*
X137894040Y-58634435D01*
X132729156Y-58634435D01*
X132692550Y-58579651D01*
X132360349Y-58247450D01*
X131969721Y-57986440D01*
X131535679Y-57806654D01*
X131074902Y-57715000D01*
X130605098Y-57715000D01*
X130144321Y-57806654D01*
X129710279Y-57986440D01*
X129319651Y-58247450D01*
X128987450Y-58579651D01*
X128726440Y-58970279D01*
X128546654Y-59404321D01*
X128455000Y-59865098D01*
X117705939Y-59865098D01*
X117883111Y-59810254D01*
X117942402Y-59785330D01*
X118002100Y-59761211D01*
X118010847Y-59756559D01*
X118010851Y-59756557D01*
X118010854Y-59756555D01*
X118379958Y-59556982D01*
X118433302Y-59521001D01*
X118487154Y-59485761D01*
X118494836Y-59479495D01*
X118547412Y-59436000D01*
X118999000Y-59436000D01*
X119023776Y-59433560D01*
X119047601Y-59426333D01*
X119069557Y-59414597D01*
X119088803Y-59398803D01*
X119104597Y-59379557D01*
X119116333Y-59357601D01*
X119123560Y-59333776D01*
X119126000Y-59309000D01*
X119126000Y-58855959D01*
X119180991Y-58788533D01*
X119216599Y-58734939D01*
X119252959Y-58681836D01*
X119257674Y-58673116D01*
X119454667Y-58302625D01*
X119479182Y-58243148D01*
X119504539Y-58183984D01*
X119507471Y-58174514D01*
X119628751Y-57772818D01*
X119641245Y-57709720D01*
X119654630Y-57646746D01*
X119655666Y-57636887D01*
X119696612Y-57219283D01*
X119696612Y-57219277D01*
X119700000Y-57184877D01*
X119700000Y-55065098D01*
X140105000Y-55065098D01*
X140105000Y-55534902D01*
X140196654Y-55995679D01*
X140376440Y-56429721D01*
X140637450Y-56820349D01*
X140969651Y-57152550D01*
X141360279Y-57413560D01*
X141794321Y-57593346D01*
X142255098Y-57685000D01*
X142724902Y-57685000D01*
X143185679Y-57593346D01*
X143619721Y-57413560D01*
X144010349Y-57152550D01*
X144342550Y-56820349D01*
X144603560Y-56429721D01*
X144783346Y-55995679D01*
X144875000Y-55534902D01*
X144875000Y-55065098D01*
X144783346Y-54604321D01*
X144603560Y-54170279D01*
X144342550Y-53779651D01*
X144010349Y-53447450D01*
X143619721Y-53186440D01*
X143185679Y-53006654D01*
X142724902Y-52915000D01*
X142255098Y-52915000D01*
X141794321Y-53006654D01*
X141360279Y-53186440D01*
X140969651Y-53447450D01*
X140637450Y-53779651D01*
X140376440Y-54170279D01*
X140196654Y-54604321D01*
X140105000Y-55065098D01*
X119700000Y-55065098D01*
X119700000Y-51510000D01*
X165280001Y-51510000D01*
X165280000Y-57184876D01*
X165280000Y-57184876D01*
G37*
X165280000Y-57184876D02*
X165283067Y-57216018D01*
X165282974Y-57229360D01*
X165283941Y-57239225D01*
X165327803Y-57656534D01*
X165340734Y-57719528D01*
X165352800Y-57782781D01*
X165355665Y-57792271D01*
X165479746Y-58193111D01*
X165504670Y-58252402D01*
X165528789Y-58312100D01*
X165533444Y-58320852D01*
X165733018Y-58689958D01*
X165768999Y-58743302D01*
X165804239Y-58797154D01*
X165810505Y-58804836D01*
X165862000Y-58867083D01*
X165862000Y-59309000D01*
X165864440Y-59333776D01*
X165871667Y-59357601D01*
X165883403Y-59379557D01*
X165899197Y-59398803D01*
X165918443Y-59414597D01*
X165940399Y-59426333D01*
X165964224Y-59433560D01*
X165989000Y-59436000D01*
X166434041Y-59436000D01*
X166501467Y-59490991D01*
X166555061Y-59526599D01*
X166608164Y-59562959D01*
X166616884Y-59567674D01*
X166987375Y-59764667D01*
X167046852Y-59789182D01*
X167106016Y-59814539D01*
X167115486Y-59817471D01*
X167517182Y-59938751D01*
X167580280Y-59951245D01*
X167643254Y-59964630D01*
X167653113Y-59965666D01*
X168070717Y-60006612D01*
X168070723Y-60006612D01*
X168105123Y-60010000D01*
X173780001Y-60010000D01*
X173780000Y-135590000D01*
X168105123Y-135590000D01*
X168073981Y-135593067D01*
X168060641Y-135592974D01*
X168050775Y-135593941D01*
X167633467Y-135637802D01*
X167570448Y-135650738D01*
X167507219Y-135662800D01*
X167497729Y-135665665D01*
X167096888Y-135789746D01*
X167037568Y-135814682D01*
X166977900Y-135838790D01*
X166969147Y-135843444D01*
X166600042Y-136043019D01*
X166546725Y-136078982D01*
X166492846Y-136114239D01*
X166485164Y-136120505D01*
X166456763Y-136144000D01*
X165989000Y-136144000D01*
X165964224Y-136146440D01*
X165940399Y-136153667D01*
X165918443Y-136165403D01*
X165899197Y-136181197D01*
X165883403Y-136200443D01*
X165871667Y-136222399D01*
X165864440Y-136246224D01*
X165862000Y-136271000D01*
X165862000Y-136734232D01*
X165799009Y-136811467D01*
X165763424Y-136865027D01*
X165727041Y-136918163D01*
X165722326Y-136926884D01*
X165525333Y-137297375D01*
X165500813Y-137356864D01*
X165475461Y-137416016D01*
X165472529Y-137425486D01*
X165351249Y-137827183D01*
X165338751Y-137890302D01*
X165325371Y-137953253D01*
X165324335Y-137963112D01*
X165283388Y-138380717D01*
X165283388Y-138380724D01*
X165280000Y-138415124D01*
X165280001Y-144090000D01*
X119700000Y-144090000D01*
X119700000Y-140065098D01*
X140105000Y-140065098D01*
X140105000Y-140534902D01*
X140196654Y-140995679D01*
X140376440Y-141429721D01*
X140637450Y-141820349D01*
X140969651Y-142152550D01*
X141360279Y-142413560D01*
X141794321Y-142593346D01*
X142255098Y-142685000D01*
X142724902Y-142685000D01*
X143185679Y-142593346D01*
X143619721Y-142413560D01*
X144010349Y-142152550D01*
X144342550Y-141820349D01*
X144603560Y-141429721D01*
X144783346Y-140995679D01*
X144875000Y-140534902D01*
X144875000Y-140065098D01*
X144783346Y-139604321D01*
X144603560Y-139170279D01*
X144342550Y-138779651D01*
X144010349Y-138447450D01*
X143619721Y-138186440D01*
X143185679Y-138006654D01*
X142724902Y-137915000D01*
X142255098Y-137915000D01*
X141794321Y-138006654D01*
X141360279Y-138186440D01*
X140969651Y-138447450D01*
X140637450Y-138779651D01*
X140376440Y-139170279D01*
X140196654Y-139604321D01*
X140105000Y-140065098D01*
X119700000Y-140065098D01*
X119700000Y-138415123D01*
X119696933Y-138383981D01*
X119697026Y-138370641D01*
X119696059Y-138360775D01*
X119652198Y-137943467D01*
X119639262Y-137880448D01*
X119627200Y-137817219D01*
X119624335Y-137807729D01*
X119500254Y-137406888D01*
X119475318Y-137347568D01*
X119451210Y-137287900D01*
X119446556Y-137279147D01*
X119246981Y-136910042D01*
X119211018Y-136856725D01*
X119175761Y-136802846D01*
X119169495Y-136795164D01*
X119126000Y-136742588D01*
X119126000Y-136271000D01*
X119123560Y-136246224D01*
X119116333Y-136222399D01*
X119104597Y-136200443D01*
X119088803Y-136181197D01*
X119069557Y-136165403D01*
X119047601Y-136153667D01*
X119023776Y-136146440D01*
X118999000Y-136144000D01*
X118521436Y-136144000D01*
X118478533Y-136109009D01*
X118424973Y-136073424D01*
X118371837Y-136037041D01*
X118363116Y-136032326D01*
X117992625Y-135835333D01*
X117933136Y-135810813D01*
X117873984Y-135785461D01*
X117864514Y-135782529D01*
X117462817Y-135661249D01*
X117399698Y-135648751D01*
X117336747Y-135635371D01*
X117326890Y-135634335D01*
X117326888Y-135634335D01*
X116909283Y-135593388D01*
X116909277Y-135593388D01*
X116874877Y-135590000D01*
X111200000Y-135590000D01*
X111200000Y-132565098D01*
X115375000Y-132565098D01*
X115375000Y-133034902D01*
X115466654Y-133495679D01*
X115646440Y-133929721D01*
X115907450Y-134320349D01*
X116239651Y-134652550D01*
X116630279Y-134913560D01*
X117064321Y-135093346D01*
X117525098Y-135185000D01*
X117994902Y-135185000D01*
X118455679Y-135093346D01*
X118889721Y-134913560D01*
X119280349Y-134652550D01*
X119612550Y-134320349D01*
X119873560Y-133929721D01*
X120053346Y-133495679D01*
X120145000Y-133034902D01*
X120145000Y-132565098D01*
X120053346Y-132104321D01*
X119873560Y-131670279D01*
X119612550Y-131279651D01*
X119280349Y-130947450D01*
X118889721Y-130686440D01*
X118455679Y-130506654D01*
X117994902Y-130415000D01*
X117525098Y-130415000D01*
X117064321Y-130506654D01*
X116630279Y-130686440D01*
X116239651Y-130947450D01*
X115907450Y-131279651D01*
X115646440Y-131670279D01*
X115466654Y-132104321D01*
X115375000Y-132565098D01*
X111200000Y-132565098D01*
X111200000Y-124830408D01*
X116840000Y-124830408D01*
X116840000Y-125105592D01*
X116893686Y-125375490D01*
X116998995Y-125629727D01*
X117151880Y-125858535D01*
X117346465Y-126053120D01*
X117575273Y-126206005D01*
X117829510Y-126311314D01*
X118099408Y-126365000D01*
X118374592Y-126365000D01*
X118644490Y-126311314D01*
X118898727Y-126206005D01*
X119127535Y-126053120D01*
X119322120Y-125858535D01*
X119475005Y-125629727D01*
X119507000Y-125552485D01*
X119538995Y-125629727D01*
X119691880Y-125858535D01*
X119886465Y-126053120D01*
X120115273Y-126206005D01*
X120369510Y-126311314D01*
X120639408Y-126365000D01*
X120914592Y-126365000D01*
X121184490Y-126311314D01*
X121438727Y-126206005D01*
X121667535Y-126053120D01*
X121862120Y-125858535D01*
X121865818Y-125853000D01*
X122228182Y-125853000D01*
X122231880Y-125858535D01*
X122426465Y-126053120D01*
X122655273Y-126206005D01*
X122909510Y-126311314D01*
X123179408Y-126365000D01*
X123454592Y-126365000D01*
X123724490Y-126311314D01*
X123978727Y-126206005D01*
X124207535Y-126053120D01*
X124402120Y-125858535D01*
X124405818Y-125853000D01*
X124768182Y-125853000D01*
X124771880Y-125858535D01*
X124966465Y-126053120D01*
X124972000Y-126056818D01*
X124972001Y-134703521D01*
X124967719Y-134747000D01*
X124984805Y-134920490D01*
X125035412Y-135087313D01*
X125117590Y-135241059D01*
X125200468Y-135342046D01*
X125200471Y-135342049D01*
X125228184Y-135375817D01*
X125261952Y-135403530D01*
X125327466Y-135469044D01*
X125355183Y-135502817D01*
X125489941Y-135613411D01*
X125643687Y-135695589D01*
X125810510Y-135746195D01*
X125940523Y-135759000D01*
X125940533Y-135759000D01*
X125983999Y-135763281D01*
X126027465Y-135759000D01*
X156657531Y-135759000D01*
X156701000Y-135763281D01*
X156744469Y-135759000D01*
X156744477Y-135759000D01*
X156874490Y-135746195D01*
X157041313Y-135695589D01*
X157195059Y-135613411D01*
X157329817Y-135502817D01*
X157357534Y-135469044D01*
X160261480Y-132565098D01*
X164835000Y-132565098D01*
X164835000Y-133034902D01*
X164926654Y-133495679D01*
X165106440Y-133929721D01*
X165367450Y-134320349D01*
X165699651Y-134652550D01*
X166090279Y-134913560D01*
X166524321Y-135093346D01*
X166985098Y-135185000D01*
X167454902Y-135185000D01*
X167915679Y-135093346D01*
X168349721Y-134913560D01*
X168740349Y-134652550D01*
X169072550Y-134320349D01*
X169333560Y-133929721D01*
X169513346Y-133495679D01*
X169605000Y-133034902D01*
X169605000Y-132565098D01*
X169513346Y-132104321D01*
X169333560Y-131670279D01*
X169072550Y-131279651D01*
X168740349Y-130947450D01*
X168349721Y-130686440D01*
X167915679Y-130506654D01*
X167454902Y-130415000D01*
X166985098Y-130415000D01*
X166524321Y-130506654D01*
X166090279Y-130686440D01*
X165699651Y-130947450D01*
X165367450Y-131279651D01*
X165106440Y-131670279D01*
X164926654Y-132104321D01*
X164835000Y-132565098D01*
X160261480Y-132565098D01*
X166606878Y-126219701D01*
X166613408Y-126221000D01*
X166888592Y-126221000D01*
X167158490Y-126167314D01*
X167412727Y-126062005D01*
X167641535Y-125909120D01*
X167836120Y-125714535D01*
X167989005Y-125485727D01*
X168094314Y-125231490D01*
X168148000Y-124961592D01*
X168148000Y-124686408D01*
X168094314Y-124416510D01*
X167989005Y-124162273D01*
X167836120Y-123933465D01*
X167641535Y-123738880D01*
X167412727Y-123585995D01*
X167158490Y-123480686D01*
X166888592Y-123427000D01*
X166613408Y-123427000D01*
X166343510Y-123480686D01*
X166089273Y-123585995D01*
X165860465Y-123738880D01*
X165665880Y-123933465D01*
X165512995Y-124162273D01*
X165481000Y-124239515D01*
X165449005Y-124162273D01*
X165296120Y-123933465D01*
X165101535Y-123738880D01*
X164872727Y-123585995D01*
X164618490Y-123480686D01*
X164348592Y-123427000D01*
X164073408Y-123427000D01*
X163803510Y-123480686D01*
X163549273Y-123585995D01*
X163320465Y-123738880D01*
X163125880Y-123933465D01*
X162972995Y-124162273D01*
X162941000Y-124239515D01*
X162909005Y-124162273D01*
X162756120Y-123933465D01*
X162561535Y-123738880D01*
X162332727Y-123585995D01*
X162078490Y-123480686D01*
X161808592Y-123427000D01*
X161533408Y-123427000D01*
X161263510Y-123480686D01*
X161009273Y-123585995D01*
X160780465Y-123738880D01*
X160585880Y-123933465D01*
X160432995Y-124162273D01*
X160403308Y-124233943D01*
X160398636Y-124220977D01*
X160336656Y-124105020D01*
X160096565Y-124038040D01*
X159310605Y-124824000D01*
X160096565Y-125609960D01*
X160336656Y-125542980D01*
X160400485Y-125407240D01*
X160432995Y-125485727D01*
X160585880Y-125714535D01*
X160780465Y-125909120D01*
X161009273Y-126062005D01*
X161263510Y-126167314D01*
X161533408Y-126221000D01*
X161808592Y-126221000D01*
X162078490Y-126167314D01*
X162332727Y-126062005D01*
X162561535Y-125909120D01*
X162756120Y-125714535D01*
X162909005Y-125485727D01*
X162941000Y-125408485D01*
X162972995Y-125485727D01*
X163125880Y-125714535D01*
X163320465Y-125909120D01*
X163549273Y-126062005D01*
X163803510Y-126167314D01*
X164073408Y-126221000D01*
X164102421Y-126221000D01*
X156334422Y-133989000D01*
X126742000Y-133989000D01*
X126742000Y-126056818D01*
X126747535Y-126053120D01*
X126942120Y-125858535D01*
X126945818Y-125853000D01*
X131782523Y-125853000D01*
X131826000Y-125857282D01*
X131869476Y-125853000D01*
X131869477Y-125853000D01*
X131999490Y-125840195D01*
X132166313Y-125789589D01*
X132320059Y-125707411D01*
X132454817Y-125596817D01*
X132565411Y-125462059D01*
X132647589Y-125308313D01*
X132698195Y-125141490D01*
X132715282Y-124968000D01*
X132711000Y-124924523D01*
X132711000Y-109009469D01*
X132715281Y-108966000D01*
X132711000Y-108922531D01*
X132711000Y-108922523D01*
X132698195Y-108792510D01*
X132653459Y-108645038D01*
X133474299Y-109465878D01*
X133473000Y-109472408D01*
X133473000Y-109747592D01*
X133526686Y-110017490D01*
X133631995Y-110271727D01*
X133784880Y-110500535D01*
X133979465Y-110695120D01*
X134208273Y-110848005D01*
X134285515Y-110880000D01*
X134208273Y-110911995D01*
X133979465Y-111064880D01*
X133784880Y-111259465D01*
X133631995Y-111488273D01*
X133526686Y-111742510D01*
X133473000Y-112012408D01*
X133473000Y-112287592D01*
X133526686Y-112557490D01*
X133631995Y-112811727D01*
X133784880Y-113040535D01*
X133979465Y-113235120D01*
X134208273Y-113388005D01*
X134285515Y-113420000D01*
X134208273Y-113451995D01*
X133979465Y-113604880D01*
X133784880Y-113799465D01*
X133631995Y-114028273D01*
X133526686Y-114282510D01*
X133473000Y-114552408D01*
X133473000Y-114827592D01*
X133526686Y-115097490D01*
X133631995Y-115351727D01*
X133784880Y-115580535D01*
X133979465Y-115775120D01*
X134208273Y-115928005D01*
X134285515Y-115960000D01*
X134208273Y-115991995D01*
X133979465Y-116144880D01*
X133784880Y-116339465D01*
X133631995Y-116568273D01*
X133526686Y-116822510D01*
X133473000Y-117092408D01*
X133473000Y-117367592D01*
X133526686Y-117637490D01*
X133631995Y-117891727D01*
X133784880Y-118120535D01*
X133979465Y-118315120D01*
X134208273Y-118468005D01*
X134285515Y-118500000D01*
X134208273Y-118531995D01*
X133979465Y-118684880D01*
X133784880Y-118879465D01*
X133631995Y-119108273D01*
X133526686Y-119362510D01*
X133473000Y-119632408D01*
X133473000Y-119907592D01*
X133526686Y-120177490D01*
X133631995Y-120431727D01*
X133784880Y-120660535D01*
X133979465Y-120855120D01*
X134208273Y-121008005D01*
X134285515Y-121040000D01*
X134208273Y-121071995D01*
X133979465Y-121224880D01*
X133784880Y-121419465D01*
X133631995Y-121648273D01*
X133526686Y-121902510D01*
X133473000Y-122172408D01*
X133473000Y-122447592D01*
X133526686Y-122717490D01*
X133631995Y-122971727D01*
X133784880Y-123200535D01*
X133979465Y-123395120D01*
X134208273Y-123548005D01*
X134285515Y-123580000D01*
X134208273Y-123611995D01*
X133979465Y-123764880D01*
X133784880Y-123959465D01*
X133631995Y-124188273D01*
X133526686Y-124442510D01*
X133473000Y-124712408D01*
X133473000Y-124987592D01*
X133526686Y-125257490D01*
X133631995Y-125511727D01*
X133784880Y-125740535D01*
X133979465Y-125935120D01*
X134208273Y-126088005D01*
X134285515Y-126120000D01*
X134208273Y-126151995D01*
X133979465Y-126304880D01*
X133784880Y-126499465D01*
X133631995Y-126728273D01*
X133526686Y-126982510D01*
X133473000Y-127252408D01*
X133473000Y-127527592D01*
X133526686Y-127797490D01*
X133631995Y-128051727D01*
X133784880Y-128280535D01*
X133979465Y-128475120D01*
X134208273Y-128628005D01*
X134285515Y-128660000D01*
X134208273Y-128691995D01*
X133979465Y-128844880D01*
X133784880Y-129039465D01*
X133631995Y-129268273D01*
X133526686Y-129522510D01*
X133473000Y-129792408D01*
X133473000Y-130067592D01*
X133526686Y-130337490D01*
X133631995Y-130591727D01*
X133784880Y-130820535D01*
X133979465Y-131015120D01*
X134208273Y-131168005D01*
X134285515Y-131200000D01*
X134208273Y-131231995D01*
X133979465Y-131384880D01*
X133784880Y-131579465D01*
X133697659Y-131710000D01*
X133038802Y-131710000D01*
X129559000Y-128230199D01*
X129559000Y-128168061D01*
X129519226Y-127968102D01*
X129441205Y-127779744D01*
X129327937Y-127610226D01*
X129183774Y-127466063D01*
X129014256Y-127352795D01*
X128825898Y-127274774D01*
X128625939Y-127235000D01*
X128422061Y-127235000D01*
X128222102Y-127274774D01*
X128033744Y-127352795D01*
X127864226Y-127466063D01*
X127720063Y-127610226D01*
X127606795Y-127779744D01*
X127528774Y-127968102D01*
X127489000Y-128168061D01*
X127489000Y-128371939D01*
X127528774Y-128571898D01*
X127606795Y-128760256D01*
X127720063Y-128929774D01*
X127864226Y-129073937D01*
X128033744Y-129187205D01*
X128222102Y-129265226D01*
X128422061Y-129305000D01*
X128484199Y-129305000D01*
X132160201Y-132981003D01*
X132183999Y-133010001D01*
X132212997Y-133033799D01*
X132299723Y-133104974D01*
X132431753Y-133175546D01*
X132575014Y-133219003D01*
X132686667Y-133230000D01*
X132686677Y-133230000D01*
X132724000Y-133233676D01*
X132761323Y-133230000D01*
X133697659Y-133230000D01*
X133784880Y-133360535D01*
X133979465Y-133555120D01*
X134208273Y-133708005D01*
X134462510Y-133813314D01*
X134732408Y-133867000D01*
X135007592Y-133867000D01*
X135277490Y-133813314D01*
X135531727Y-133708005D01*
X135760535Y-133555120D01*
X135955120Y-133360535D01*
X136108005Y-133131727D01*
X136213314Y-132877490D01*
X136267000Y-132607592D01*
X136267000Y-132332408D01*
X136213314Y-132062510D01*
X136108005Y-131808273D01*
X135955120Y-131579465D01*
X135760535Y-131384880D01*
X135531727Y-131231995D01*
X135454485Y-131200000D01*
X135531727Y-131168005D01*
X135760535Y-131015120D01*
X135955120Y-130820535D01*
X136108005Y-130591727D01*
X136213314Y-130337490D01*
X136267000Y-130067592D01*
X136267000Y-129792408D01*
X136213314Y-129522510D01*
X136108005Y-129268273D01*
X135955120Y-129039465D01*
X135760535Y-128844880D01*
X135531727Y-128691995D01*
X135454485Y-128660000D01*
X135531727Y-128628005D01*
X135760535Y-128475120D01*
X135955120Y-128280535D01*
X136108005Y-128051727D01*
X136213314Y-127797490D01*
X136267000Y-127527592D01*
X136267000Y-127252408D01*
X136213314Y-126982510D01*
X136108005Y-126728273D01*
X135955120Y-126499465D01*
X135760535Y-126304880D01*
X135531727Y-126151995D01*
X135454485Y-126120000D01*
X135531727Y-126088005D01*
X135760535Y-125935120D01*
X135955120Y-125740535D01*
X136108005Y-125511727D01*
X136213314Y-125257490D01*
X136267000Y-124987592D01*
X136267000Y-124712408D01*
X136236372Y-124558429D01*
X139449004Y-121345798D01*
X139478001Y-121322001D01*
X139572974Y-121206276D01*
X139643546Y-121074247D01*
X139687003Y-120930986D01*
X139698000Y-120819333D01*
X139698000Y-120819325D01*
X139701676Y-120782000D01*
X139698000Y-120744675D01*
X139698000Y-106994801D01*
X142300393Y-104392408D01*
X148713000Y-104392408D01*
X148713000Y-104667592D01*
X148766686Y-104937490D01*
X148871995Y-105191727D01*
X149024880Y-105420535D01*
X149219465Y-105615120D01*
X149448273Y-105768005D01*
X149525515Y-105800000D01*
X149448273Y-105831995D01*
X149219465Y-105984880D01*
X149024880Y-106179465D01*
X148871995Y-106408273D01*
X148766686Y-106662510D01*
X148713000Y-106932408D01*
X148713000Y-107207592D01*
X148766686Y-107477490D01*
X148871995Y-107731727D01*
X149024880Y-107960535D01*
X149219465Y-108155120D01*
X149448273Y-108308005D01*
X149525515Y-108340000D01*
X149448273Y-108371995D01*
X149219465Y-108524880D01*
X149024880Y-108719465D01*
X148871995Y-108948273D01*
X148766686Y-109202510D01*
X148713000Y-109472408D01*
X148713000Y-109747592D01*
X148766686Y-110017490D01*
X148871995Y-110271727D01*
X149024880Y-110500535D01*
X149219465Y-110695120D01*
X149448273Y-110848005D01*
X149525515Y-110880000D01*
X149448273Y-110911995D01*
X149219465Y-111064880D01*
X149024880Y-111259465D01*
X148871995Y-111488273D01*
X148766686Y-111742510D01*
X148713000Y-112012408D01*
X148713000Y-112287592D01*
X148766686Y-112557490D01*
X148871995Y-112811727D01*
X149024880Y-113040535D01*
X149219465Y-113235120D01*
X149448273Y-113388005D01*
X149525515Y-113420000D01*
X149448273Y-113451995D01*
X149219465Y-113604880D01*
X149024880Y-113799465D01*
X148871995Y-114028273D01*
X148766686Y-114282510D01*
X148713000Y-114552408D01*
X148713000Y-114827592D01*
X148766686Y-115097490D01*
X148871995Y-115351727D01*
X149024880Y-115580535D01*
X149219465Y-115775120D01*
X149448273Y-115928005D01*
X149525515Y-115960000D01*
X149448273Y-115991995D01*
X149219465Y-116144880D01*
X149024880Y-116339465D01*
X148871995Y-116568273D01*
X148766686Y-116822510D01*
X148713000Y-117092408D01*
X148713000Y-117367592D01*
X148766686Y-117637490D01*
X148871995Y-117891727D01*
X149024880Y-118120535D01*
X149219465Y-118315120D01*
X149448273Y-118468005D01*
X149525515Y-118500000D01*
X149448273Y-118531995D01*
X149219465Y-118684880D01*
X149024880Y-118879465D01*
X148871995Y-119108273D01*
X148766686Y-119362510D01*
X148713000Y-119632408D01*
X148713000Y-119907592D01*
X148766686Y-120177490D01*
X148871995Y-120431727D01*
X149024880Y-120660535D01*
X149219465Y-120855120D01*
X149448273Y-121008005D01*
X149525515Y-121040000D01*
X149448273Y-121071995D01*
X149219465Y-121224880D01*
X149024880Y-121419465D01*
X148871995Y-121648273D01*
X148766686Y-121902510D01*
X148713000Y-122172408D01*
X148713000Y-122447592D01*
X148766686Y-122717490D01*
X148871995Y-122971727D01*
X149024880Y-123200535D01*
X149219465Y-123395120D01*
X149448273Y-123548005D01*
X149525515Y-123580000D01*
X149448273Y-123611995D01*
X149219465Y-123764880D01*
X149024880Y-123959465D01*
X148871995Y-124188273D01*
X148766686Y-124442510D01*
X148713000Y-124712408D01*
X148713000Y-124987592D01*
X148766686Y-125257490D01*
X148871995Y-125511727D01*
X149024880Y-125740535D01*
X149219465Y-125935120D01*
X149448273Y-126088005D01*
X149525515Y-126120000D01*
X149448273Y-126151995D01*
X149219465Y-126304880D01*
X149024880Y-126499465D01*
X148871995Y-126728273D01*
X148766686Y-126982510D01*
X148713000Y-127252408D01*
X148713000Y-127527592D01*
X148766686Y-127797490D01*
X148871995Y-128051727D01*
X149024880Y-128280535D01*
X149219465Y-128475120D01*
X149448273Y-128628005D01*
X149525515Y-128660000D01*
X149448273Y-128691995D01*
X149219465Y-128844880D01*
X149024880Y-129039465D01*
X148871995Y-129268273D01*
X148766686Y-129522510D01*
X148713000Y-129792408D01*
X148713000Y-130067592D01*
X148766686Y-130337490D01*
X148871995Y-130591727D01*
X149024880Y-130820535D01*
X149219465Y-131015120D01*
X149448273Y-131168005D01*
X149525515Y-131200000D01*
X149448273Y-131231995D01*
X149219465Y-131384880D01*
X149024880Y-131579465D01*
X148871995Y-131808273D01*
X148766686Y-132062510D01*
X148713000Y-132332408D01*
X148713000Y-132607592D01*
X148766686Y-132877490D01*
X148871995Y-133131727D01*
X149024880Y-133360535D01*
X149219465Y-133555120D01*
X149448273Y-133708005D01*
X149702510Y-133813314D01*
X149972408Y-133867000D01*
X150247592Y-133867000D01*
X150517490Y-133813314D01*
X150771727Y-133708005D01*
X151000535Y-133555120D01*
X151195120Y-133360535D01*
X151348005Y-133131727D01*
X151453314Y-132877490D01*
X151507000Y-132607592D01*
X151507000Y-132332408D01*
X151453314Y-132062510D01*
X151348005Y-131808273D01*
X151195120Y-131579465D01*
X151000535Y-131384880D01*
X150771727Y-131231995D01*
X150694485Y-131200000D01*
X150771727Y-131168005D01*
X151000535Y-131015120D01*
X151195120Y-130820535D01*
X151348005Y-130591727D01*
X151453314Y-130337490D01*
X151507000Y-130067592D01*
X151507000Y-129792408D01*
X151453314Y-129522510D01*
X151348005Y-129268273D01*
X151195120Y-129039465D01*
X151000535Y-128844880D01*
X150771727Y-128691995D01*
X150694485Y-128660000D01*
X150771727Y-128628005D01*
X151000535Y-128475120D01*
X151195120Y-128280535D01*
X151348005Y-128051727D01*
X151453314Y-127797490D01*
X151507000Y-127527592D01*
X151507000Y-127252408D01*
X151453314Y-126982510D01*
X151348005Y-126728273D01*
X151195120Y-126499465D01*
X151000535Y-126304880D01*
X150771727Y-126151995D01*
X150694485Y-126120000D01*
X150771727Y-126088005D01*
X151000535Y-125935120D01*
X151146090Y-125789565D01*
X158345040Y-125789565D01*
X158412020Y-126029656D01*
X158661048Y-126146756D01*
X158928135Y-126213023D01*
X159203017Y-126225910D01*
X159475133Y-126184922D01*
X159734023Y-126091636D01*
X159849980Y-126029656D01*
X159916960Y-125789565D01*
X159131000Y-125003605D01*
X158345040Y-125789565D01*
X151146090Y-125789565D01*
X151195120Y-125740535D01*
X151348005Y-125511727D01*
X151453314Y-125257490D01*
X151507000Y-124987592D01*
X151507000Y-124896017D01*
X157729090Y-124896017D01*
X157770078Y-125168133D01*
X157863364Y-125427023D01*
X157925344Y-125542980D01*
X158165435Y-125609960D01*
X158951395Y-124824000D01*
X158165435Y-124038040D01*
X157925344Y-124105020D01*
X157808244Y-124354048D01*
X157741977Y-124621135D01*
X157729090Y-124896017D01*
X151507000Y-124896017D01*
X151507000Y-124712408D01*
X151453314Y-124442510D01*
X151348005Y-124188273D01*
X151195120Y-123959465D01*
X151094090Y-123858435D01*
X158345040Y-123858435D01*
X159131000Y-124644395D01*
X159916960Y-123858435D01*
X159849980Y-123618344D01*
X159600952Y-123501244D01*
X159333865Y-123434977D01*
X159058983Y-123422090D01*
X158786867Y-123463078D01*
X158527977Y-123556364D01*
X158412020Y-123618344D01*
X158345040Y-123858435D01*
X151094090Y-123858435D01*
X151000535Y-123764880D01*
X150771727Y-123611995D01*
X150694485Y-123580000D01*
X150771727Y-123548005D01*
X151000535Y-123395120D01*
X151195120Y-123200535D01*
X151348005Y-122971727D01*
X151453314Y-122717490D01*
X151507000Y-122447592D01*
X151507000Y-122172408D01*
X151453314Y-121902510D01*
X151348005Y-121648273D01*
X151195120Y-121419465D01*
X151000535Y-121224880D01*
X150771727Y-121071995D01*
X150694485Y-121040000D01*
X150771727Y-121008005D01*
X151000535Y-120855120D01*
X151195120Y-120660535D01*
X151348005Y-120431727D01*
X151453314Y-120177490D01*
X151507000Y-119907592D01*
X151507000Y-119632408D01*
X151453314Y-119362510D01*
X151348005Y-119108273D01*
X151195120Y-118879465D01*
X151000535Y-118684880D01*
X150771727Y-118531995D01*
X150694485Y-118500000D01*
X150771727Y-118468005D01*
X151000535Y-118315120D01*
X151195120Y-118120535D01*
X151348005Y-117891727D01*
X151453314Y-117637490D01*
X151507000Y-117367592D01*
X151507000Y-117092408D01*
X151453314Y-116822510D01*
X151348005Y-116568273D01*
X151195120Y-116339465D01*
X151000535Y-116144880D01*
X150771727Y-115991995D01*
X150694485Y-115960000D01*
X150771727Y-115928005D01*
X151000535Y-115775120D01*
X151195120Y-115580535D01*
X151348005Y-115351727D01*
X151453314Y-115097490D01*
X151507000Y-114827592D01*
X151507000Y-114552408D01*
X151453314Y-114282510D01*
X151348005Y-114028273D01*
X151195120Y-113799465D01*
X151000535Y-113604880D01*
X150771727Y-113451995D01*
X150694485Y-113420000D01*
X150771727Y-113388005D01*
X151000535Y-113235120D01*
X151195120Y-113040535D01*
X151348005Y-112811727D01*
X151453314Y-112557490D01*
X151507000Y-112287592D01*
X151507000Y-112012408D01*
X151453314Y-111742510D01*
X151348005Y-111488273D01*
X151195120Y-111259465D01*
X151000535Y-111064880D01*
X150771727Y-110911995D01*
X150694485Y-110880000D01*
X150771727Y-110848005D01*
X151000535Y-110695120D01*
X151195120Y-110500535D01*
X151348005Y-110271727D01*
X151453314Y-110017490D01*
X151507000Y-109747592D01*
X151507000Y-109472408D01*
X151453314Y-109202510D01*
X151348005Y-108948273D01*
X151195120Y-108719465D01*
X151000535Y-108524880D01*
X150771727Y-108371995D01*
X150694485Y-108340000D01*
X150771727Y-108308005D01*
X151000535Y-108155120D01*
X151066557Y-108089098D01*
X157656000Y-108089098D01*
X157656000Y-108558902D01*
X157747654Y-109019679D01*
X157927440Y-109453721D01*
X158188450Y-109844349D01*
X158520651Y-110176550D01*
X158911279Y-110437560D01*
X159345321Y-110617346D01*
X159806098Y-110709000D01*
X160275902Y-110709000D01*
X160736679Y-110617346D01*
X161170721Y-110437560D01*
X161561349Y-110176550D01*
X161893550Y-109844349D01*
X162154560Y-109453721D01*
X162334346Y-109019679D01*
X162426000Y-108558902D01*
X162426000Y-108089098D01*
X163456000Y-108089098D01*
X163456000Y-108558902D01*
X163547654Y-109019679D01*
X163727440Y-109453721D01*
X163988450Y-109844349D01*
X164320651Y-110176550D01*
X164711279Y-110437560D01*
X165145321Y-110617346D01*
X165606098Y-110709000D01*
X166075902Y-110709000D01*
X166536679Y-110617346D01*
X166970721Y-110437560D01*
X167361349Y-110176550D01*
X167693550Y-109844349D01*
X167954560Y-109453721D01*
X168134346Y-109019679D01*
X168226000Y-108558902D01*
X168226000Y-108089098D01*
X168134346Y-107628321D01*
X167954560Y-107194279D01*
X167693550Y-106803651D01*
X167361349Y-106471450D01*
X166970721Y-106210440D01*
X166536679Y-106030654D01*
X166075902Y-105939000D01*
X165606098Y-105939000D01*
X165145321Y-106030654D01*
X164711279Y-106210440D01*
X164320651Y-106471450D01*
X163988450Y-106803651D01*
X163727440Y-107194279D01*
X163547654Y-107628321D01*
X163456000Y-108089098D01*
X162426000Y-108089098D01*
X162334346Y-107628321D01*
X162154560Y-107194279D01*
X161893550Y-106803651D01*
X161561349Y-106471450D01*
X161170721Y-106210440D01*
X160736679Y-106030654D01*
X160275902Y-105939000D01*
X159806098Y-105939000D01*
X159345321Y-106030654D01*
X158911279Y-106210440D01*
X158520651Y-106471450D01*
X158188450Y-106803651D01*
X157927440Y-107194279D01*
X157747654Y-107628321D01*
X157656000Y-108089098D01*
X151066557Y-108089098D01*
X151195120Y-107960535D01*
X151348005Y-107731727D01*
X151453314Y-107477490D01*
X151507000Y-107207592D01*
X151507000Y-106932408D01*
X151453314Y-106662510D01*
X151348005Y-106408273D01*
X151195120Y-106179465D01*
X151000535Y-105984880D01*
X150771727Y-105831995D01*
X150694485Y-105800000D01*
X150771727Y-105768005D01*
X151000535Y-105615120D01*
X151195120Y-105420535D01*
X151348005Y-105191727D01*
X151453314Y-104937490D01*
X151507000Y-104667592D01*
X151507000Y-104392408D01*
X151453314Y-104122510D01*
X151348005Y-103868273D01*
X151195120Y-103639465D01*
X151000535Y-103444880D01*
X150771727Y-103291995D01*
X150517490Y-103186686D01*
X150247592Y-103133000D01*
X149972408Y-103133000D01*
X149702510Y-103186686D01*
X149448273Y-103291995D01*
X149219465Y-103444880D01*
X149024880Y-103639465D01*
X148871995Y-103868273D01*
X148766686Y-104122510D01*
X148713000Y-104392408D01*
X142300393Y-104392408D01*
X145932802Y-100760000D01*
X160012405Y-100760000D01*
X160049294Y-100829014D01*
X160234866Y-101055134D01*
X160460986Y-101240706D01*
X160718966Y-101378599D01*
X160998889Y-101463513D01*
X161217050Y-101485000D01*
X161362950Y-101485000D01*
X161581111Y-101463513D01*
X161861034Y-101378599D01*
X162119014Y-101240706D01*
X162345134Y-101055134D01*
X162369607Y-101025313D01*
X162390498Y-101094180D01*
X162449463Y-101204494D01*
X162528815Y-101301185D01*
X162625506Y-101380537D01*
X162735820Y-101439502D01*
X162855518Y-101475812D01*
X162980000Y-101488072D01*
X163544250Y-101485000D01*
X163703000Y-101326250D01*
X163703000Y-100127000D01*
X163957000Y-100127000D01*
X163957000Y-101326250D01*
X164115750Y-101485000D01*
X164680000Y-101488072D01*
X164804482Y-101475812D01*
X164924180Y-101439502D01*
X165034494Y-101380537D01*
X165131185Y-101301185D01*
X165210537Y-101204494D01*
X165269502Y-101094180D01*
X165305812Y-100974482D01*
X165318072Y-100850000D01*
X165315000Y-100285750D01*
X165156250Y-100127000D01*
X163957000Y-100127000D01*
X163703000Y-100127000D01*
X163683000Y-100127000D01*
X163683000Y-99873000D01*
X163703000Y-99873000D01*
X163703000Y-98673750D01*
X163957000Y-98673750D01*
X163957000Y-99873000D01*
X165156250Y-99873000D01*
X165315000Y-99714250D01*
X165318072Y-99150000D01*
X165305812Y-99025518D01*
X165269502Y-98905820D01*
X165210537Y-98795506D01*
X165131185Y-98698815D01*
X165034494Y-98619463D01*
X164924180Y-98560498D01*
X164804482Y-98524188D01*
X164680000Y-98511928D01*
X164115750Y-98515000D01*
X163957000Y-98673750D01*
X163703000Y-98673750D01*
X163544250Y-98515000D01*
X162980000Y-98511928D01*
X162855518Y-98524188D01*
X162735820Y-98560498D01*
X162625506Y-98619463D01*
X162528815Y-98698815D01*
X162449463Y-98795506D01*
X162390498Y-98905820D01*
X162369607Y-98974687D01*
X162345134Y-98944866D01*
X162119014Y-98759294D01*
X161861034Y-98621401D01*
X161581111Y-98536487D01*
X161362950Y-98515000D01*
X161217050Y-98515000D01*
X160998889Y-98536487D01*
X160718966Y-98621401D01*
X160460986Y-98759294D01*
X160234866Y-98944866D01*
X160049294Y-99170986D01*
X160012405Y-99240000D01*
X145655333Y-99240000D01*
X145618000Y-99236323D01*
X145580667Y-99240000D01*
X145469014Y-99250997D01*
X145325753Y-99294454D01*
X145193724Y-99365026D01*
X145077999Y-99459999D01*
X145054201Y-99488997D01*
X138426998Y-106116201D01*
X138398000Y-106139999D01*
X138374202Y-106168997D01*
X138374201Y-106168998D01*
X138303026Y-106255724D01*
X138232454Y-106387754D01*
X138188998Y-106531015D01*
X138174324Y-106680000D01*
X138178001Y-106717332D01*
X138178000Y-120467198D01*
X136267000Y-122378199D01*
X136267000Y-122172408D01*
X136213314Y-121902510D01*
X136108005Y-121648273D01*
X135955120Y-121419465D01*
X135760535Y-121224880D01*
X135531727Y-121071995D01*
X135454485Y-121040000D01*
X135531727Y-121008005D01*
X135760535Y-120855120D01*
X135955120Y-120660535D01*
X136108005Y-120431727D01*
X136213314Y-120177490D01*
X136267000Y-119907592D01*
X136267000Y-119632408D01*
X136213314Y-119362510D01*
X136108005Y-119108273D01*
X135955120Y-118879465D01*
X135760535Y-118684880D01*
X135531727Y-118531995D01*
X135454485Y-118500000D01*
X135531727Y-118468005D01*
X135760535Y-118315120D01*
X135955120Y-118120535D01*
X136108005Y-117891727D01*
X136213314Y-117637490D01*
X136267000Y-117367592D01*
X136267000Y-117092408D01*
X136213314Y-116822510D01*
X136108005Y-116568273D01*
X135955120Y-116339465D01*
X135760535Y-116144880D01*
X135531727Y-115991995D01*
X135454485Y-115960000D01*
X135531727Y-115928005D01*
X135760535Y-115775120D01*
X135955120Y-115580535D01*
X136108005Y-115351727D01*
X136213314Y-115097490D01*
X136267000Y-114827592D01*
X136267000Y-114552408D01*
X136213314Y-114282510D01*
X136108005Y-114028273D01*
X135955120Y-113799465D01*
X135760535Y-113604880D01*
X135531727Y-113451995D01*
X135454485Y-113420000D01*
X135531727Y-113388005D01*
X135760535Y-113235120D01*
X135955120Y-113040535D01*
X136108005Y-112811727D01*
X136213314Y-112557490D01*
X136267000Y-112287592D01*
X136267000Y-112012408D01*
X136213314Y-111742510D01*
X136108005Y-111488273D01*
X135955120Y-111259465D01*
X135760535Y-111064880D01*
X135531727Y-110911995D01*
X135454485Y-110880000D01*
X135531727Y-110848005D01*
X135760535Y-110695120D01*
X135955120Y-110500535D01*
X136108005Y-110271727D01*
X136213314Y-110017490D01*
X136267000Y-109747592D01*
X136267000Y-109472408D01*
X136213314Y-109202510D01*
X136108005Y-108948273D01*
X135955120Y-108719465D01*
X135760535Y-108524880D01*
X135531727Y-108371995D01*
X135460057Y-108342308D01*
X135473023Y-108337636D01*
X135588980Y-108275656D01*
X135655960Y-108035565D01*
X134870000Y-107249605D01*
X134855858Y-107263748D01*
X134676253Y-107084143D01*
X134690395Y-107070000D01*
X135049605Y-107070000D01*
X135835565Y-107855960D01*
X136075656Y-107788980D01*
X136192756Y-107539952D01*
X136259023Y-107272865D01*
X136271910Y-106997983D01*
X136230922Y-106725867D01*
X136137636Y-106466977D01*
X136075656Y-106351020D01*
X135835565Y-106284040D01*
X135049605Y-107070000D01*
X134690395Y-107070000D01*
X133904435Y-106284040D01*
X133664344Y-106351020D01*
X133547244Y-106600048D01*
X133480977Y-106867135D01*
X133476397Y-106964819D01*
X130903986Y-104392408D01*
X133473000Y-104392408D01*
X133473000Y-104667592D01*
X133526686Y-104937490D01*
X133631995Y-105191727D01*
X133784880Y-105420535D01*
X133979465Y-105615120D01*
X134208273Y-105768005D01*
X134279943Y-105797692D01*
X134266977Y-105802364D01*
X134151020Y-105864344D01*
X134084040Y-106104435D01*
X134870000Y-106890395D01*
X135655960Y-106104435D01*
X135588980Y-105864344D01*
X135453240Y-105800515D01*
X135531727Y-105768005D01*
X135760535Y-105615120D01*
X135955120Y-105420535D01*
X136108005Y-105191727D01*
X136213314Y-104937490D01*
X136267000Y-104667592D01*
X136267000Y-104392408D01*
X136213314Y-104122510D01*
X136108005Y-103868273D01*
X135955120Y-103639465D01*
X135760535Y-103444880D01*
X135531727Y-103291995D01*
X135277490Y-103186686D01*
X135007592Y-103133000D01*
X134732408Y-103133000D01*
X134462510Y-103186686D01*
X134208273Y-103291995D01*
X133979465Y-103444880D01*
X133784880Y-103639465D01*
X133631995Y-103868273D01*
X133526686Y-104122510D01*
X133473000Y-104392408D01*
X130903986Y-104392408D01*
X126869000Y-100357422D01*
X126869000Y-83665098D01*
X128455000Y-83665098D01*
X128455000Y-84134902D01*
X128546654Y-84595679D01*
X128726440Y-85029721D01*
X128987450Y-85420349D01*
X129319651Y-85752550D01*
X129710279Y-86013560D01*
X130144321Y-86193346D01*
X130605098Y-86285000D01*
X131074902Y-86285000D01*
X131535679Y-86193346D01*
X131969721Y-86013560D01*
X132360349Y-85752550D01*
X132692550Y-85420349D01*
X132953560Y-85029721D01*
X133133346Y-84595679D01*
X133225000Y-84134902D01*
X133225000Y-83665098D01*
X133133346Y-83204321D01*
X132953560Y-82770279D01*
X132692550Y-82379651D01*
X132360349Y-82047450D01*
X131969721Y-81786440D01*
X131535679Y-81606654D01*
X131074902Y-81515000D01*
X130605098Y-81515000D01*
X130144321Y-81606654D01*
X129710279Y-81786440D01*
X129319651Y-82047450D01*
X128987450Y-82379651D01*
X128726440Y-82770279D01*
X128546654Y-83204321D01*
X128455000Y-83665098D01*
X126869000Y-83665098D01*
X126869000Y-76767264D01*
X135355000Y-76767264D01*
X135355000Y-78172736D01*
X135629194Y-79551203D01*
X136167045Y-80849690D01*
X136947884Y-82018297D01*
X137941703Y-83012116D01*
X139110310Y-83792955D01*
X140408797Y-84330806D01*
X141787264Y-84605000D01*
X143192736Y-84605000D01*
X144571203Y-84330806D01*
X145869690Y-83792955D01*
X146061041Y-83665098D01*
X151755000Y-83665098D01*
X151755000Y-84134902D01*
X151846654Y-84595679D01*
X152026440Y-85029721D01*
X152287450Y-85420349D01*
X152619651Y-85752550D01*
X153010279Y-86013560D01*
X153444321Y-86193346D01*
X153905098Y-86285000D01*
X154374902Y-86285000D01*
X154835679Y-86193346D01*
X155269721Y-86013560D01*
X155660349Y-85752550D01*
X155992550Y-85420349D01*
X156253560Y-85029721D01*
X156433346Y-84595679D01*
X156525000Y-84134902D01*
X156525000Y-83665098D01*
X156433346Y-83204321D01*
X156253560Y-82770279D01*
X155992550Y-82379651D01*
X155660349Y-82047450D01*
X155269721Y-81786440D01*
X154835679Y-81606654D01*
X154374902Y-81515000D01*
X153905098Y-81515000D01*
X153444321Y-81606654D01*
X153010279Y-81786440D01*
X152619651Y-82047450D01*
X152287450Y-82379651D01*
X152026440Y-82770279D01*
X151846654Y-83204321D01*
X151755000Y-83665098D01*
X146061041Y-83665098D01*
X147038297Y-83012116D01*
X148032116Y-82018297D01*
X148812955Y-80849690D01*
X149350806Y-79551203D01*
X149625000Y-78172736D01*
X149625000Y-76767264D01*
X149350806Y-75388797D01*
X148812955Y-74090310D01*
X148032116Y-72921703D01*
X147038297Y-71927884D01*
X145869690Y-71147045D01*
X144571203Y-70609194D01*
X143192736Y-70335000D01*
X141787264Y-70335000D01*
X140408797Y-70609194D01*
X139110310Y-71147045D01*
X137941703Y-71927884D01*
X136947884Y-72921703D01*
X136167045Y-74090310D01*
X135629194Y-75388797D01*
X135355000Y-76767264D01*
X126869000Y-76767264D01*
X126869000Y-72941469D01*
X126873281Y-72898000D01*
X126869000Y-72854531D01*
X126869000Y-72854523D01*
X126856195Y-72724510D01*
X126805589Y-72557687D01*
X126723411Y-72403941D01*
X126612817Y-72269183D01*
X126579044Y-72241466D01*
X126538534Y-72200956D01*
X126510817Y-72167183D01*
X126376059Y-72056589D01*
X126222313Y-71974411D01*
X126055490Y-71923805D01*
X125925477Y-71911000D01*
X125925469Y-71911000D01*
X125882000Y-71906719D01*
X125838531Y-71911000D01*
X124338072Y-71911000D01*
X124338072Y-71796000D01*
X124325812Y-71671518D01*
X124289502Y-71551820D01*
X124230537Y-71441506D01*
X124151185Y-71344815D01*
X124054494Y-71265463D01*
X123944180Y-71206498D01*
X123835000Y-71173379D01*
X123835000Y-66671811D01*
X123891886Y-66641405D01*
X124026462Y-66530962D01*
X124136905Y-66396386D01*
X124218972Y-66242850D01*
X124243194Y-66163000D01*
X141172531Y-66163000D01*
X141216000Y-66167281D01*
X141259469Y-66163000D01*
X141259477Y-66163000D01*
X141389490Y-66150195D01*
X141556313Y-66099589D01*
X141710059Y-66017411D01*
X141844817Y-65906817D01*
X141846620Y-65904620D01*
X141848817Y-65902817D01*
X141959411Y-65768059D01*
X142041589Y-65614313D01*
X142092195Y-65447490D01*
X142105000Y-65317477D01*
X142105000Y-65317469D01*
X142109281Y-65274000D01*
X142105000Y-65230531D01*
X142105000Y-62565098D01*
X164835000Y-62565098D01*
X164835000Y-63034902D01*
X164926654Y-63495679D01*
X165106440Y-63929721D01*
X165367450Y-64320349D01*
X165699651Y-64652550D01*
X166090279Y-64913560D01*
X166524321Y-65093346D01*
X166985098Y-65185000D01*
X167454902Y-65185000D01*
X167915679Y-65093346D01*
X168349721Y-64913560D01*
X168740349Y-64652550D01*
X169072550Y-64320349D01*
X169333560Y-63929721D01*
X169513346Y-63495679D01*
X169605000Y-63034902D01*
X169605000Y-62565098D01*
X169513346Y-62104321D01*
X169333560Y-61670279D01*
X169072550Y-61279651D01*
X168740349Y-60947450D01*
X168349721Y-60686440D01*
X167915679Y-60506654D01*
X167454902Y-60415000D01*
X166985098Y-60415000D01*
X166524321Y-60506654D01*
X166090279Y-60686440D01*
X165699651Y-60947450D01*
X165367450Y-61279651D01*
X165106440Y-61670279D01*
X164926654Y-62104321D01*
X164835000Y-62565098D01*
X142105000Y-62565098D01*
X142105000Y-60688818D01*
X142110535Y-60685120D01*
X142305120Y-60490535D01*
X142458005Y-60261727D01*
X142490000Y-60184485D01*
X142521995Y-60261727D01*
X142674880Y-60490535D01*
X142869465Y-60685120D01*
X143098273Y-60838005D01*
X143352510Y-60943314D01*
X143622408Y-60997000D01*
X143897592Y-60997000D01*
X144167490Y-60943314D01*
X144421727Y-60838005D01*
X144650535Y-60685120D01*
X144845120Y-60490535D01*
X144998005Y-60261727D01*
X145030000Y-60184485D01*
X145061995Y-60261727D01*
X145214880Y-60490535D01*
X145409465Y-60685120D01*
X145638273Y-60838005D01*
X145892510Y-60943314D01*
X146162408Y-60997000D01*
X146437592Y-60997000D01*
X146707490Y-60943314D01*
X146961727Y-60838005D01*
X147190535Y-60685120D01*
X147385120Y-60490535D01*
X147538005Y-60261727D01*
X147643314Y-60007490D01*
X147671637Y-59865098D01*
X151755000Y-59865098D01*
X151755000Y-60334902D01*
X151846654Y-60795679D01*
X152026440Y-61229721D01*
X152287450Y-61620349D01*
X152619651Y-61952550D01*
X153010279Y-62213560D01*
X153444321Y-62393346D01*
X153905098Y-62485000D01*
X154374902Y-62485000D01*
X154835679Y-62393346D01*
X155269721Y-62213560D01*
X155660349Y-61952550D01*
X155992550Y-61620349D01*
X156253560Y-61229721D01*
X156433346Y-60795679D01*
X156525000Y-60334902D01*
X156525000Y-59865098D01*
X156433346Y-59404321D01*
X156253560Y-58970279D01*
X155992550Y-58579651D01*
X155660349Y-58247450D01*
X155269721Y-57986440D01*
X154835679Y-57806654D01*
X154374902Y-57715000D01*
X153905098Y-57715000D01*
X153444321Y-57806654D01*
X153010279Y-57986440D01*
X152619651Y-58247450D01*
X152287450Y-58579651D01*
X152026440Y-58970279D01*
X151846654Y-59404321D01*
X151755000Y-59865098D01*
X147671637Y-59865098D01*
X147697000Y-59737592D01*
X147697000Y-59462408D01*
X147643314Y-59192510D01*
X147538005Y-58938273D01*
X147385120Y-58709465D01*
X147190535Y-58514880D01*
X146961727Y-58361995D01*
X146707490Y-58256686D01*
X146437592Y-58203000D01*
X146162408Y-58203000D01*
X145892510Y-58256686D01*
X145638273Y-58361995D01*
X145409465Y-58514880D01*
X145214880Y-58709465D01*
X145061995Y-58938273D01*
X145030000Y-59015515D01*
X144998005Y-58938273D01*
X144845120Y-58709465D01*
X144650535Y-58514880D01*
X144421727Y-58361995D01*
X144167490Y-58256686D01*
X143897592Y-58203000D01*
X143622408Y-58203000D01*
X143352510Y-58256686D01*
X143098273Y-58361995D01*
X142869465Y-58514880D01*
X142674880Y-58709465D01*
X142521995Y-58938273D01*
X142490000Y-59015515D01*
X142458005Y-58938273D01*
X142305120Y-58709465D01*
X142110535Y-58514880D01*
X141881727Y-58361995D01*
X141627490Y-58256686D01*
X141357592Y-58203000D01*
X141082408Y-58203000D01*
X140812510Y-58256686D01*
X140558273Y-58361995D01*
X140329465Y-58514880D01*
X140134880Y-58709465D01*
X139981995Y-58938273D01*
X139952308Y-59009943D01*
X139947636Y-58996977D01*
X139885656Y-58881020D01*
X139645565Y-58814040D01*
X138859605Y-59600000D01*
X139645565Y-60385960D01*
X139885656Y-60318980D01*
X139949485Y-60183240D01*
X139981995Y-60261727D01*
X140134880Y-60490535D01*
X140329465Y-60685120D01*
X140335000Y-60688819D01*
X140335001Y-64393000D01*
X124243194Y-64393000D01*
X124218972Y-64313150D01*
X124136905Y-64159614D01*
X124026462Y-64025038D01*
X123891886Y-63914595D01*
X123738350Y-63832528D01*
X123571754Y-63781992D01*
X123398500Y-63764928D01*
X122473500Y-63764928D01*
X122300246Y-63781992D01*
X122133650Y-63832528D01*
X121980114Y-63914595D01*
X121845538Y-64025038D01*
X121735095Y-64159614D01*
X121653028Y-64313150D01*
X121602492Y-64479746D01*
X121585428Y-64653000D01*
X121585428Y-65903000D01*
X121602492Y-66076254D01*
X121653028Y-66242850D01*
X121735095Y-66396386D01*
X121845538Y-66530962D01*
X121980114Y-66641405D01*
X122065001Y-66686778D01*
X122065000Y-71173379D01*
X121955820Y-71206498D01*
X121845506Y-71265463D01*
X121800000Y-71302809D01*
X121754494Y-71265463D01*
X121644180Y-71206498D01*
X121535000Y-71173379D01*
X121535000Y-70235294D01*
X121605886Y-70197405D01*
X121740462Y-70086962D01*
X121850905Y-69952386D01*
X121932972Y-69798850D01*
X121983508Y-69632254D01*
X122000572Y-69459000D01*
X122000572Y-68209000D01*
X121983508Y-68035746D01*
X121932972Y-67869150D01*
X121850905Y-67715614D01*
X121740462Y-67581038D01*
X121605886Y-67470595D01*
X121452350Y-67388528D01*
X121285754Y-67337992D01*
X121112500Y-67320928D01*
X120187500Y-67320928D01*
X120014246Y-67337992D01*
X119847650Y-67388528D01*
X119694114Y-67470595D01*
X119559538Y-67581038D01*
X119449095Y-67715614D01*
X119367028Y-67869150D01*
X119316492Y-68035746D01*
X119299428Y-68209000D01*
X119299428Y-69459000D01*
X119316492Y-69632254D01*
X119367028Y-69798850D01*
X119449095Y-69952386D01*
X119559538Y-70086962D01*
X119694114Y-70197405D01*
X119765000Y-70235295D01*
X119765001Y-71173378D01*
X119655820Y-71206498D01*
X119545506Y-71265463D01*
X119500000Y-71302809D01*
X119454494Y-71265463D01*
X119344180Y-71206498D01*
X119224482Y-71170188D01*
X119100000Y-71157928D01*
X118635750Y-71161000D01*
X118477000Y-71319750D01*
X118477000Y-72669000D01*
X118497000Y-72669000D01*
X118497000Y-72923000D01*
X118477000Y-72923000D01*
X118477000Y-74272250D01*
X118635750Y-74431000D01*
X119100000Y-74434072D01*
X119224482Y-74421812D01*
X119344180Y-74385502D01*
X119454494Y-74326537D01*
X119500000Y-74289191D01*
X119545506Y-74326537D01*
X119655820Y-74385502D01*
X119765000Y-74418621D01*
X119765001Y-77457928D01*
X118750000Y-77457928D01*
X118625518Y-77470188D01*
X118505820Y-77506498D01*
X118395506Y-77565463D01*
X118298815Y-77644815D01*
X118219463Y-77741506D01*
X118160498Y-77851820D01*
X118124188Y-77971518D01*
X118111928Y-78096000D01*
X118111928Y-80096000D01*
X118124188Y-80220482D01*
X118160498Y-80340180D01*
X118219463Y-80450494D01*
X118298815Y-80547185D01*
X118395506Y-80626537D01*
X118505820Y-80685502D01*
X118625518Y-80721812D01*
X118750000Y-80734072D01*
X119765001Y-80734072D01*
X119765000Y-97746531D01*
X119760719Y-97790000D01*
X119765000Y-97833469D01*
X119765000Y-97833476D01*
X119777805Y-97963489D01*
X119828411Y-98130312D01*
X119910589Y-98284058D01*
X120021183Y-98418817D01*
X120054956Y-98446534D01*
X130941001Y-109332580D01*
X130941001Y-115950982D01*
X130850350Y-115902528D01*
X130683754Y-115851992D01*
X130510500Y-115834928D01*
X129585500Y-115834928D01*
X129412246Y-115851992D01*
X129245650Y-115902528D01*
X129092114Y-115984595D01*
X128957538Y-116095038D01*
X128847095Y-116229614D01*
X128765028Y-116383150D01*
X128714492Y-116549746D01*
X128697428Y-116723000D01*
X128697428Y-117973000D01*
X128714492Y-118146254D01*
X128765028Y-118312850D01*
X128847095Y-118466386D01*
X128957538Y-118600962D01*
X129092114Y-118711405D01*
X129245650Y-118793472D01*
X129288001Y-118806319D01*
X129288000Y-121724289D01*
X129244063Y-121768226D01*
X129130795Y-121937744D01*
X129052774Y-122126102D01*
X129013000Y-122326061D01*
X129013000Y-122529939D01*
X129052774Y-122729898D01*
X129130795Y-122918256D01*
X129244063Y-123087774D01*
X129388226Y-123231937D01*
X129557744Y-123345205D01*
X129746102Y-123423226D01*
X129946061Y-123463000D01*
X130149939Y-123463000D01*
X130349898Y-123423226D01*
X130538256Y-123345205D01*
X130707774Y-123231937D01*
X130851937Y-123087774D01*
X130941000Y-122954481D01*
X130941000Y-124083000D01*
X126945818Y-124083000D01*
X126942120Y-124077465D01*
X126747535Y-123882880D01*
X126518727Y-123729995D01*
X126441485Y-123698000D01*
X126518727Y-123666005D01*
X126747535Y-123513120D01*
X126942120Y-123318535D01*
X127095005Y-123089727D01*
X127200314Y-122835490D01*
X127254000Y-122565592D01*
X127254000Y-122290408D01*
X127200314Y-122020510D01*
X127095005Y-121766273D01*
X126942120Y-121537465D01*
X126747535Y-121342880D01*
X126617000Y-121255659D01*
X126617000Y-118861072D01*
X127535500Y-118861072D01*
X127708754Y-118844008D01*
X127875350Y-118793472D01*
X128028886Y-118711405D01*
X128163462Y-118600962D01*
X128273905Y-118466386D01*
X128355972Y-118312850D01*
X128406508Y-118146254D01*
X128423572Y-117973000D01*
X128423572Y-116723000D01*
X128406508Y-116549746D01*
X128355972Y-116383150D01*
X128273905Y-116229614D01*
X128163462Y-116095038D01*
X128028886Y-115984595D01*
X127875350Y-115902528D01*
X127708754Y-115851992D01*
X127535500Y-115834928D01*
X126610500Y-115834928D01*
X126437246Y-115851992D01*
X126270650Y-115902528D01*
X126117114Y-115984595D01*
X125982538Y-116095038D01*
X125872095Y-116229614D01*
X125790028Y-116383150D01*
X125739492Y-116549746D01*
X125735724Y-116588000D01*
X125470276Y-116588000D01*
X125466508Y-116549746D01*
X125415972Y-116383150D01*
X125333905Y-116229614D01*
X125223462Y-116095038D01*
X125088886Y-115984595D01*
X124935350Y-115902528D01*
X124768754Y-115851992D01*
X124595500Y-115834928D01*
X123670500Y-115834928D01*
X123497246Y-115851992D01*
X123330650Y-115902528D01*
X123177114Y-115984595D01*
X123042538Y-116095038D01*
X122932095Y-116229614D01*
X122850028Y-116383150D01*
X122799492Y-116549746D01*
X122782428Y-116723000D01*
X122782428Y-117973000D01*
X122799492Y-118146254D01*
X122850028Y-118312850D01*
X122932095Y-118466386D01*
X123042538Y-118600962D01*
X123177114Y-118711405D01*
X123330650Y-118793472D01*
X123497246Y-118844008D01*
X123670500Y-118861072D01*
X124595500Y-118861072D01*
X124768754Y-118844008D01*
X124935350Y-118793472D01*
X125088886Y-118711405D01*
X125097001Y-118704745D01*
X125097000Y-121255659D01*
X124966465Y-121342880D01*
X124771880Y-121537465D01*
X124618995Y-121766273D01*
X124587000Y-121843515D01*
X124555005Y-121766273D01*
X124402120Y-121537465D01*
X124207535Y-121342880D01*
X123978727Y-121189995D01*
X123724490Y-121084686D01*
X123454592Y-121031000D01*
X123179408Y-121031000D01*
X122909510Y-121084686D01*
X122655273Y-121189995D01*
X122426465Y-121342880D01*
X122231880Y-121537465D01*
X122078995Y-121766273D01*
X122047000Y-121843515D01*
X122015005Y-121766273D01*
X121862120Y-121537465D01*
X121667535Y-121342880D01*
X121438727Y-121189995D01*
X121184490Y-121084686D01*
X120914592Y-121031000D01*
X120639408Y-121031000D01*
X120369510Y-121084686D01*
X120115273Y-121189995D01*
X119886465Y-121342880D01*
X119691880Y-121537465D01*
X119538995Y-121766273D01*
X119509308Y-121837943D01*
X119504636Y-121824977D01*
X119442656Y-121709020D01*
X119202565Y-121642040D01*
X118416605Y-122428000D01*
X119202565Y-123213960D01*
X119442656Y-123146980D01*
X119506485Y-123011240D01*
X119538995Y-123089727D01*
X119691880Y-123318535D01*
X119886465Y-123513120D01*
X120115273Y-123666005D01*
X120192515Y-123698000D01*
X120115273Y-123729995D01*
X119886465Y-123882880D01*
X119691880Y-124077465D01*
X119538995Y-124306273D01*
X119507000Y-124383515D01*
X119475005Y-124306273D01*
X119322120Y-124077465D01*
X119127535Y-123882880D01*
X118898727Y-123729995D01*
X118827057Y-123700308D01*
X118840023Y-123695636D01*
X118955980Y-123633656D01*
X119022960Y-123393565D01*
X118237000Y-122607605D01*
X117451040Y-123393565D01*
X117518020Y-123633656D01*
X117653760Y-123697485D01*
X117575273Y-123729995D01*
X117346465Y-123882880D01*
X117151880Y-124077465D01*
X116998995Y-124306273D01*
X116893686Y-124560510D01*
X116840000Y-124830408D01*
X111200000Y-124830408D01*
X111200000Y-122500017D01*
X116835090Y-122500017D01*
X116876078Y-122772133D01*
X116969364Y-123031023D01*
X117031344Y-123146980D01*
X117271435Y-123213960D01*
X118057395Y-122428000D01*
X117271435Y-121642040D01*
X117031344Y-121709020D01*
X116914244Y-121958048D01*
X116847977Y-122225135D01*
X116835090Y-122500017D01*
X111200000Y-122500017D01*
X111200000Y-121462435D01*
X117451040Y-121462435D01*
X118237000Y-122248395D01*
X119022960Y-121462435D01*
X118955980Y-121222344D01*
X118706952Y-121105244D01*
X118439865Y-121038977D01*
X118164983Y-121026090D01*
X117892867Y-121067078D01*
X117633977Y-121160364D01*
X117518020Y-121222344D01*
X117451040Y-121462435D01*
X111200000Y-121462435D01*
X111200000Y-118223000D01*
X119807428Y-118223000D01*
X119819688Y-118347482D01*
X119855998Y-118467180D01*
X119914963Y-118577494D01*
X119994315Y-118674185D01*
X120091006Y-118753537D01*
X120201320Y-118812502D01*
X120321018Y-118848812D01*
X120445500Y-118861072D01*
X120872250Y-118858000D01*
X121031000Y-118699250D01*
X121031000Y-117475000D01*
X121285000Y-117475000D01*
X121285000Y-118699250D01*
X121443750Y-118858000D01*
X121870500Y-118861072D01*
X121994982Y-118848812D01*
X122114680Y-118812502D01*
X122224994Y-118753537D01*
X122321685Y-118674185D01*
X122401037Y-118577494D01*
X122460002Y-118467180D01*
X122496312Y-118347482D01*
X122508572Y-118223000D01*
X122505500Y-117633750D01*
X122346750Y-117475000D01*
X121285000Y-117475000D01*
X121031000Y-117475000D01*
X119969250Y-117475000D01*
X119810500Y-117633750D01*
X119807428Y-118223000D01*
X111200000Y-118223000D01*
X111200000Y-116473000D01*
X119807428Y-116473000D01*
X119810500Y-117062250D01*
X119969250Y-117221000D01*
X121031000Y-117221000D01*
X121031000Y-115996750D01*
X121285000Y-115996750D01*
X121285000Y-117221000D01*
X122346750Y-117221000D01*
X122505500Y-117062250D01*
X122508572Y-116473000D01*
X122496312Y-116348518D01*
X122460002Y-116228820D01*
X122401037Y-116118506D01*
X122321685Y-116021815D01*
X122224994Y-115942463D01*
X122114680Y-115883498D01*
X121994982Y-115847188D01*
X121870500Y-115834928D01*
X121443750Y-115838000D01*
X121285000Y-115996750D01*
X121031000Y-115996750D01*
X120872250Y-115838000D01*
X120445500Y-115834928D01*
X120321018Y-115847188D01*
X120201320Y-115883498D01*
X120091006Y-115942463D01*
X119994315Y-116021815D01*
X119914963Y-116118506D01*
X119855998Y-116228820D01*
X119819688Y-116348518D01*
X119807428Y-116473000D01*
X111200000Y-116473000D01*
X111200000Y-73796000D01*
X116961928Y-73796000D01*
X116974188Y-73920482D01*
X117010498Y-74040180D01*
X117069463Y-74150494D01*
X117148815Y-74247185D01*
X117245506Y-74326537D01*
X117355820Y-74385502D01*
X117475518Y-74421812D01*
X117600000Y-74434072D01*
X118064250Y-74431000D01*
X118223000Y-74272250D01*
X118223000Y-72923000D01*
X117123750Y-72923000D01*
X116965000Y-73081750D01*
X116961928Y-73796000D01*
X111200000Y-73796000D01*
X111200000Y-71796000D01*
X116961928Y-71796000D01*
X116965000Y-72510250D01*
X117123750Y-72669000D01*
X118223000Y-72669000D01*
X118223000Y-71319750D01*
X118064250Y-71161000D01*
X117600000Y-71157928D01*
X117475518Y-71170188D01*
X117355820Y-71206498D01*
X117245506Y-71265463D01*
X117148815Y-71344815D01*
X117069463Y-71441506D01*
X117010498Y-71551820D01*
X116974188Y-71671518D01*
X116961928Y-71796000D01*
X111200000Y-71796000D01*
X111200000Y-69709000D01*
X116324428Y-69709000D01*
X116336688Y-69833482D01*
X116372998Y-69953180D01*
X116431963Y-70063494D01*
X116511315Y-70160185D01*
X116608006Y-70239537D01*
X116718320Y-70298502D01*
X116838018Y-70334812D01*
X116962500Y-70347072D01*
X117389250Y-70344000D01*
X117548000Y-70185250D01*
X117548000Y-68961000D01*
X117802000Y-68961000D01*
X117802000Y-70185250D01*
X117960750Y-70344000D01*
X118387500Y-70347072D01*
X118511982Y-70334812D01*
X118631680Y-70298502D01*
X118741994Y-70239537D01*
X118838685Y-70160185D01*
X118918037Y-70063494D01*
X118977002Y-69953180D01*
X119013312Y-69833482D01*
X119025572Y-69709000D01*
X119022500Y-69119750D01*
X118863750Y-68961000D01*
X117802000Y-68961000D01*
X117548000Y-68961000D01*
X116486250Y-68961000D01*
X116327500Y-69119750D01*
X116324428Y-69709000D01*
X111200000Y-69709000D01*
X111200000Y-67959000D01*
X116324428Y-67959000D01*
X116327500Y-68548250D01*
X116486250Y-68707000D01*
X117548000Y-68707000D01*
X117548000Y-67482750D01*
X117802000Y-67482750D01*
X117802000Y-68707000D01*
X118863750Y-68707000D01*
X119022500Y-68548250D01*
X119025572Y-67959000D01*
X119013312Y-67834518D01*
X118977002Y-67714820D01*
X118918037Y-67604506D01*
X118838685Y-67507815D01*
X118741994Y-67428463D01*
X118631680Y-67369498D01*
X118511982Y-67333188D01*
X118387500Y-67320928D01*
X117960750Y-67324000D01*
X117802000Y-67482750D01*
X117548000Y-67482750D01*
X117389250Y-67324000D01*
X116962500Y-67320928D01*
X116838018Y-67333188D01*
X116718320Y-67369498D01*
X116608006Y-67428463D01*
X116511315Y-67507815D01*
X116431963Y-67604506D01*
X116372998Y-67714820D01*
X116336688Y-67834518D01*
X116324428Y-67959000D01*
X111200000Y-67959000D01*
X111200000Y-66153000D01*
X118610428Y-66153000D01*
X118622688Y-66277482D01*
X118658998Y-66397180D01*
X118717963Y-66507494D01*
X118797315Y-66604185D01*
X118894006Y-66683537D01*
X119004320Y-66742502D01*
X119124018Y-66778812D01*
X119248500Y-66791072D01*
X119675250Y-66788000D01*
X119834000Y-66629250D01*
X119834000Y-65405000D01*
X120088000Y-65405000D01*
X120088000Y-66629250D01*
X120246750Y-66788000D01*
X120673500Y-66791072D01*
X120797982Y-66778812D01*
X120917680Y-66742502D01*
X121027994Y-66683537D01*
X121124685Y-66604185D01*
X121204037Y-66507494D01*
X121263002Y-66397180D01*
X121299312Y-66277482D01*
X121311572Y-66153000D01*
X121308500Y-65563750D01*
X121149750Y-65405000D01*
X120088000Y-65405000D01*
X119834000Y-65405000D01*
X118772250Y-65405000D01*
X118613500Y-65563750D01*
X118610428Y-66153000D01*
X111200000Y-66153000D01*
X111200000Y-62565098D01*
X115725000Y-62565098D01*
X115725000Y-63034902D01*
X115816654Y-63495679D01*
X115996440Y-63929721D01*
X116257450Y-64320349D01*
X116589651Y-64652550D01*
X116980279Y-64913560D01*
X117414321Y-65093346D01*
X117875098Y-65185000D01*
X118344902Y-65185000D01*
X118729708Y-65108458D01*
X118772250Y-65151000D01*
X119834000Y-65151000D01*
X119834000Y-65131000D01*
X120088000Y-65131000D01*
X120088000Y-65151000D01*
X121149750Y-65151000D01*
X121308500Y-64992250D01*
X121311572Y-64403000D01*
X121299312Y-64278518D01*
X121263002Y-64158820D01*
X121204037Y-64048506D01*
X121124685Y-63951815D01*
X121027994Y-63872463D01*
X120917680Y-63813498D01*
X120797982Y-63777188D01*
X120673500Y-63764928D01*
X120290678Y-63767684D01*
X120403346Y-63495679D01*
X120495000Y-63034902D01*
X120495000Y-62565098D01*
X120403346Y-62104321D01*
X120223560Y-61670279D01*
X119962550Y-61279651D01*
X119630349Y-60947450D01*
X119239721Y-60686440D01*
X118805679Y-60506654D01*
X118344902Y-60415000D01*
X117875098Y-60415000D01*
X117414321Y-60506654D01*
X116980279Y-60686440D01*
X116589651Y-60947450D01*
X116257450Y-61279651D01*
X115996440Y-61670279D01*
X115816654Y-62104321D01*
X115725000Y-62565098D01*
X111200000Y-62565098D01*
X111200000Y-60010000D01*
X116874877Y-60010000D01*
X116906019Y-60006933D01*
X116919360Y-60007026D01*
X116929225Y-60006059D01*
X117346534Y-59962197D01*
X117409528Y-59949266D01*
X117472781Y-59937200D01*
X117482271Y-59934335D01*
X117705939Y-59865098D01*
X128455000Y-59865098D01*
X128455000Y-60334902D01*
X128546654Y-60795679D01*
X128726440Y-61229721D01*
X128987450Y-61620349D01*
X129319651Y-61952550D01*
X129710279Y-62213560D01*
X130144321Y-62393346D01*
X130605098Y-62485000D01*
X131074902Y-62485000D01*
X131535679Y-62393346D01*
X131969721Y-62213560D01*
X132360349Y-61952550D01*
X132692550Y-61620349D01*
X132953560Y-61229721D01*
X133133346Y-60795679D01*
X133179118Y-60565565D01*
X137894040Y-60565565D01*
X137961020Y-60805656D01*
X138210048Y-60922756D01*
X138477135Y-60989023D01*
X138752017Y-61001910D01*
X139024133Y-60960922D01*
X139283023Y-60867636D01*
X139398980Y-60805656D01*
X139465960Y-60565565D01*
X138680000Y-59779605D01*
X137894040Y-60565565D01*
X133179118Y-60565565D01*
X133225000Y-60334902D01*
X133225000Y-59865098D01*
X133186594Y-59672017D01*
X137278090Y-59672017D01*
X137319078Y-59944133D01*
X137412364Y-60203023D01*
X137474344Y-60318980D01*
X137714435Y-60385960D01*
X138500395Y-59600000D01*
X137714435Y-58814040D01*
X137474344Y-58881020D01*
X137357244Y-59130048D01*
X137290977Y-59397135D01*
X137278090Y-59672017D01*
X133186594Y-59672017D01*
X133133346Y-59404321D01*
X132953560Y-58970279D01*
X132729156Y-58634435D01*
X137894040Y-58634435D01*
X138680000Y-59420395D01*
X139465960Y-58634435D01*
X139398980Y-58394344D01*
X139149952Y-58277244D01*
X138882865Y-58210977D01*
X138607983Y-58198090D01*
X138335867Y-58239078D01*
X138076977Y-58332364D01*
X137961020Y-58394344D01*
X137894040Y-58634435D01*
X132729156Y-58634435D01*
X132692550Y-58579651D01*
X132360349Y-58247450D01*
X131969721Y-57986440D01*
X131535679Y-57806654D01*
X131074902Y-57715000D01*
X130605098Y-57715000D01*
X130144321Y-57806654D01*
X129710279Y-57986440D01*
X129319651Y-58247450D01*
X128987450Y-58579651D01*
X128726440Y-58970279D01*
X128546654Y-59404321D01*
X128455000Y-59865098D01*
X117705939Y-59865098D01*
X117883111Y-59810254D01*
X117942402Y-59785330D01*
X118002100Y-59761211D01*
X118010847Y-59756559D01*
X118010851Y-59756557D01*
X118010854Y-59756555D01*
X118379958Y-59556982D01*
X118433302Y-59521001D01*
X118487154Y-59485761D01*
X118494836Y-59479495D01*
X118547412Y-59436000D01*
X118999000Y-59436000D01*
X119023776Y-59433560D01*
X119047601Y-59426333D01*
X119069557Y-59414597D01*
X119088803Y-59398803D01*
X119104597Y-59379557D01*
X119116333Y-59357601D01*
X119123560Y-59333776D01*
X119126000Y-59309000D01*
X119126000Y-58855959D01*
X119180991Y-58788533D01*
X119216599Y-58734939D01*
X119252959Y-58681836D01*
X119257674Y-58673116D01*
X119454667Y-58302625D01*
X119479182Y-58243148D01*
X119504539Y-58183984D01*
X119507471Y-58174514D01*
X119628751Y-57772818D01*
X119641245Y-57709720D01*
X119654630Y-57646746D01*
X119655666Y-57636887D01*
X119696612Y-57219283D01*
X119696612Y-57219277D01*
X119700000Y-57184877D01*
X119700000Y-55065098D01*
X140105000Y-55065098D01*
X140105000Y-55534902D01*
X140196654Y-55995679D01*
X140376440Y-56429721D01*
X140637450Y-56820349D01*
X140969651Y-57152550D01*
X141360279Y-57413560D01*
X141794321Y-57593346D01*
X142255098Y-57685000D01*
X142724902Y-57685000D01*
X143185679Y-57593346D01*
X143619721Y-57413560D01*
X144010349Y-57152550D01*
X144342550Y-56820349D01*
X144603560Y-56429721D01*
X144783346Y-55995679D01*
X144875000Y-55534902D01*
X144875000Y-55065098D01*
X144783346Y-54604321D01*
X144603560Y-54170279D01*
X144342550Y-53779651D01*
X144010349Y-53447450D01*
X143619721Y-53186440D01*
X143185679Y-53006654D01*
X142724902Y-52915000D01*
X142255098Y-52915000D01*
X141794321Y-53006654D01*
X141360279Y-53186440D01*
X140969651Y-53447450D01*
X140637450Y-53779651D01*
X140376440Y-54170279D01*
X140196654Y-54604321D01*
X140105000Y-55065098D01*
X119700000Y-55065098D01*
X119700000Y-51510000D01*
X165280001Y-51510000D01*
X165280000Y-57184876D01*
M02*
